<svg id="Layer_1" data-name="Layer 1" xmlns="http://www.w3.org/2000/svg" viewBox="0 0 251 70"><defs><style>.cls-1{fill:#93c467;}.cls-2{fill:#f9af20;}.cls-3{fill:#e85017;}.cls-4{fill:#23afe5;}</style></defs><path class="cls-1" d="M.8,1H9.17c3,0,5.25.75,6.64,2.23S17.9,6.87,17.9,9.69a9.69,9.69,0,0,1-.23,2.12,7.43,7.43,0,0,1-.7,2,6.35,6.35,0,0,1-1.23,1.64A5.3,5.3,0,0,1,14,16.56a7.42,7.42,0,0,1,3.37,2.77,9.21,9.21,0,0,1,1.18,5,14,14,0,0,1-.48,3.77,8,8,0,0,1-1.52,3,7.08,7.08,0,0,1-2.73,2,10.21,10.21,0,0,1-4.09.73H.8ZM6.44,14.47H8.49a3.7,3.7,0,0,0,2.68-1.07,4.16,4.16,0,0,0,1.09-3.12q0-4.63-3.68-4.64H6.44Zm0,14.73H8.81A3.65,3.65,0,0,0,12,27.93a6.47,6.47,0,0,0,.91-3.78,5.79,5.79,0,0,0-1.05-3.79A4.42,4.42,0,0,0,8.26,19.1H6.44Z"/><path class="cls-1" d="M22.4,33.84V1H37.51V5.92H28v8.46h7.28v4.91H28v9.64h10.1v4.91Z"/><path class="cls-2" d="M50.42,1h8.37c3,0,5.25.75,6.64,2.23s2.09,3.64,2.09,6.46a10.32,10.32,0,0,1-.22,2.12,7.82,7.82,0,0,1-.71,2,6.35,6.35,0,0,1-1.23,1.64,5.3,5.3,0,0,1-1.75,1.14A7.42,7.42,0,0,1,67,19.33a9.21,9.21,0,0,1,1.18,5,14,14,0,0,1-.48,3.77,8,8,0,0,1-1.52,3,7.08,7.08,0,0,1-2.73,2,10.21,10.21,0,0,1-4.09.73H50.42Zm5.64,13.47h2a3.7,3.7,0,0,0,2.68-1.07,4.16,4.16,0,0,0,1.09-3.12q0-4.63-3.68-4.64H56.06Zm0,14.73h2.37a3.65,3.65,0,0,0,3.18-1.27,6.47,6.47,0,0,0,.91-3.78,5.79,5.79,0,0,0-1.05-3.79,4.42,4.42,0,0,0-3.59-1.26H56.06Z"/><path class="cls-2" d="M72,9a10.09,10.09,0,0,1,.52-3.27A7.36,7.36,0,0,1,74.14,3a7.64,7.64,0,0,1,2.68-1.79,11.53,11.53,0,0,1,7.69,0A7.55,7.55,0,0,1,87.19,3a7.25,7.25,0,0,1,1.6,2.69A10.37,10.37,0,0,1,89.31,9V25.88a10.43,10.43,0,0,1-.52,3.28,7.2,7.2,0,0,1-1.6,2.68,7.44,7.44,0,0,1-2.68,1.8,11.53,11.53,0,0,1-7.69,0,7.53,7.53,0,0,1-2.68-1.8,7.32,7.32,0,0,1-1.59-2.68A10.15,10.15,0,0,1,72,25.88Zm5.63,16.79a4.79,4.79,0,0,0,.64,2.75,3.62,3.62,0,0,0,4.73,0,4.71,4.71,0,0,0,.64-2.75V9.1A4.71,4.71,0,0,0,83,6.35a3.59,3.59,0,0,0-4.73,0,4.79,4.79,0,0,0-.64,2.75Z"/><path class="cls-2" d="M93.36,33.84V1H99V28.93h8.87v4.91Z"/><path class="cls-2" d="M110.18,1h8.37c2.94,0,5.17.81,6.67,2.41s2.25,4.11,2.25,7.51v13q0,5.09-2.25,7.5c-1.5,1.61-3.73,2.41-6.67,2.41h-8.37Zm5.64,28.2h2a4.07,4.07,0,0,0,3.16-1,5.5,5.5,0,0,0,.89-3.59V10.24a5.53,5.53,0,0,0-.89-3.6,4.11,4.11,0,0,0-3.16-1h-2Z"/><path class="cls-3" d="M.8,36.79H9.17c3,0,5.25.75,6.64,2.23s2.09,3.64,2.09,6.46a9.53,9.53,0,0,1-.23,2.11,7.38,7.38,0,0,1-.7,2,6.35,6.35,0,0,1-1.23,1.64A5.46,5.46,0,0,1,14,52.35a7.42,7.42,0,0,1,3.37,2.77,9.19,9.19,0,0,1,1.18,5,14,14,0,0,1-.48,3.77,8,8,0,0,1-1.52,3,7.08,7.08,0,0,1-2.73,2,10.21,10.21,0,0,1-4.09.73H.8ZM6.44,50.25H8.49a3.69,3.69,0,0,0,2.68-1.06,4.17,4.17,0,0,0,1.09-3.12q0-4.64-3.68-4.64H6.44ZM6.44,65H8.81A3.65,3.65,0,0,0,12,63.72a6.47,6.47,0,0,0,.91-3.78,5.79,5.79,0,0,0-1.05-3.79,4.42,4.42,0,0,0-3.59-1.26H6.44Z"/><path class="cls-3" d="M22.4,69.63V36.79H37.51v4.92H28v8.45h7.28v4.92H28v9.64h10.1v4.91Z"/><path class="cls-4" d="M50.42,36.79h8.37c3,0,5.25.75,6.64,2.23s2.09,3.64,2.09,6.46a10.15,10.15,0,0,1-.22,2.11,7.75,7.75,0,0,1-.71,2,6.35,6.35,0,0,1-1.23,1.64,5.46,5.46,0,0,1-1.75,1.14A7.42,7.42,0,0,1,67,55.12a9.19,9.19,0,0,1,1.18,5,14,14,0,0,1-.48,3.77,8,8,0,0,1-1.52,3,7.08,7.08,0,0,1-2.73,2,10.21,10.21,0,0,1-4.09.73H50.42Zm5.64,13.46h2a3.69,3.69,0,0,0,2.68-1.06,4.17,4.17,0,0,0,1.09-3.12q0-4.64-3.68-4.64H56.06Zm0,14.74h2.37a3.65,3.65,0,0,0,3.18-1.27,6.47,6.47,0,0,0,.91-3.78,5.79,5.79,0,0,0-1.05-3.79,4.42,4.42,0,0,0-3.59-1.26H56.06Z"/><path class="cls-4" d="M72.8,69.63V36.79h5.64V69.63Z"/><path class="cls-4" d="M89.17,69.63H83.53V36.79h7.92c3.15,0,5.53.75,7.14,2.23S101,43,101,46.48a15.15,15.15,0,0,1-.34,3.41,9,9,0,0,1-.91,2.39A5.84,5.84,0,0,1,97,54.76l4.78,14.87H96.09l-4-13.6a10.89,10.89,0,0,1-1.34.12l-1.57,0Zm0-18.1h2a7.21,7.21,0,0,0,1.94-.23,2.51,2.51,0,0,0,1.29-.82,3.53,3.53,0,0,0,.73-1.57,11,11,0,0,0,.23-2.43c0-1.94-.32-3.27-1-4a4.16,4.16,0,0,0-3.23-1.07h-2Z"/><path class="cls-4" d="M127.74,36.79V69.63h-4.91V44h-.09l-5.1,25.65h-2.72L109.82,44h-.09V69.63h-4.91V36.79h7.41l4,19.2h.09l4-19.2Z"/><path class="cls-4" d="M132.56,69.63V36.79h5.64V69.63Z"/><path class="cls-4" d="M143.3,69.63V36.79h5.23l6.86,18.79h.1V36.79h5.09V69.63h-4.91l-7.19-20.51h-.09V69.63Z"/><path class="cls-4" d="M172.68,53h9.23V69.63h-2.73l-1.05-2.46a9.74,9.74,0,0,1-2.47,2.21,6.36,6.36,0,0,1-3.21.71A7.18,7.18,0,0,1,167,67.86a8.72,8.72,0,0,1-2.09-6.19V44.75a10.09,10.09,0,0,1,.52-3.27A7.71,7.71,0,0,1,167,38.79,7.28,7.28,0,0,1,169.54,37a9.21,9.21,0,0,1,3.64-.66,8.7,8.7,0,0,1,3.68.73,7.62,7.62,0,0,1,2.66,2,7.9,7.9,0,0,1,1.59,2.87,11.22,11.22,0,0,1,.53,3.45v2.1h-5.37a21,21,0,0,0-.18-3,5.52,5.52,0,0,0-.59-1.91,2.35,2.35,0,0,0-1-1,3.51,3.51,0,0,0-1.43-.27,2.36,2.36,0,0,0-1.77.75,4.11,4.11,0,0,0-.73,2.84V61.72a4.7,4.7,0,0,0,.59,2.52,2.24,2.24,0,0,0,2.05.93,2.66,2.66,0,0,0,2.41-1,6.76,6.76,0,0,0,.68-3.5V57.44h-3.59Z"/><path class="cls-4" d="M186.5,69.63V36.79h5.64V50.16h6V36.79h5.64V69.63h-5.64V55.08h-6V69.63Z"/><path class="cls-4" d="M211.38,69.63h-5.45l6-32.84h7L225,69.63h-5.46l-1-7.28h-6.19Zm1.82-12.19h4.55l-2.23-14.1h-.09Z"/><path class="cls-4" d="M249.77,36.79V69.63h-4.91V44h-.09l-5.1,25.65h-2.73L231.85,44h-.09V69.63h-4.91V36.79h7.41l4,19.2h.09l4-19.2Z"/></svg>