<?xml version="1.0" encoding="utf-8" ?>
<svg xmlns="http://www.w3.org/2000/svg" xmlns:xlink="http://www.w3.org/1999/xlink" width="1536" height="1024">
	<path fill="#000007" d="M0 0L652.536 0L753.531 0L848.229 0L938.376 0L1026.56 0L1112.91 0L1534.69 0C1535.35 1.02752 1535.76 2.01625 1535.87 3.24968C1537 16.6861 1536 31.1058 1536 44.6382L1536.02 128.623L1536.02 362.968L1536.01 424.336C1536.01 431.91 1537.2 441.699 1535.76 448.993C1535.58 449.909 1535.18 450.827 1534.69 451.621C1536.1 454.239 1536.54 457.142 1535.66 460.031C1535.44 460.748 1535.11 461.38 1534.73 462.021C1535.52 464.061 1536.3 465.197 1535.46 467.354C1535.21 468.002 1535.02 468.297 1534.69 468.866C1535.14 470.433 1535.13 471.033 1534.68 472.599C1536.3 475.624 1536.46 478.711 1535.46 481.988C1535.26 482.647 1535.27 482.585 1535.04 483.112C1535.34 484.601 1535.31 485.352 1534.94 486.824C1536.05 489.672 1536.53 491.637 1535.31 494.543C1535.12 494.995 1534.9 495.438 1534.69 495.88C1535.42 497.525 1536.2 498.535 1535.47 500.347C1535.23 500.95 1535.01 501.304 1534.7 501.85C1535.81 504.187 1536.58 506.14 1535.65 508.695C1535.38 509.436 1535.04 510.147 1534.7 510.855C1535.52 512.881 1536.3 513.954 1535.46 516.116C1535.21 516.763 1535.02 517.059 1534.69 517.627C1536.12 520.282 1536.52 523.162 1535.65 526.091C1535.43 526.841 1535.1 527.511 1534.72 528.19C1535.66 530.445 1536.47 531.912 1535.41 534.343C1535.23 534.764 1534.92 535.29 1534.71 535.669C1536.24 538.446 1536.48 541.718 1535.66 544.779C1535.44 545.581 1535.13 546.232 1534.72 546.946C1536.01 549.582 1536.57 551.877 1535.55 554.73C1535.31 555.401 1535.01 556.011 1534.69 556.647C1536.4 559.697 1536.56 564.138 1535.66 567.495C1535.47 568.179 1535.17 568.731 1534.83 569.346C1536.34 572.78 1536.6 576.683 1535.13 580.206C1535.07 580.347 1535 580.479 1534.93 580.616C1536.44 583.972 1536.84 591.452 1535.35 594.884C1535.25 595.109 1535.14 595.326 1535.03 595.547C1536.23 598.86 1536.77 603.903 1535.07 607.156C1534.96 607.355 1534.85 607.548 1534.73 607.743C1536.78 611.005 1536.54 620.378 1535.8 624.131C1535.63 624.958 1535.37 625.548 1535.02 626.309C1536.36 629.727 1536.78 636.01 1535.39 639.444C1535.17 639.987 1535.03 640.168 1534.71 640.709C1536.85 644.133 1536.53 653.982 1535.8 657.893C1535.64 658.73 1535.38 659.317 1535.03 660.085C1536.39 663.785 1536.4 667.004 1534.97 670.687C1536.8 674.729 1537.05 696.053 1535.4 700.461C1535.2 700.984 1535.19 700.997 1534.98 701.439C1536.77 705.431 1537.09 743.823 1535.35 747.837C1535.23 748.115 1535.08 748.382 1534.95 748.654C1535.58 750.031 1535.86 751.172 1535.94 752.679C1536.55 764.489 1537.11 856.844 1535.42 861.348C1535.33 861.59 1535.22 861.826 1535.12 862.065C1536.84 866.383 1536.86 1019.47 1535.23 1023.03C1535.03 1023.48 1534.93 1023.62 1534.69 1024L1337.05 1024L1121.2 1024L918.803 1024L618.893 1024L414.754 1024L195.786 1024L0 1024L0 862.948L0 750.709L0 674.171L0 619.175L0 604.361L0 589.099L0 582.537L0 519.058L0 455.352L0 389.168L0 0Z"/>
	<path fill="#6F320A" d="M983.728 652.288Q985.302 648.988 986.945 645.721L987.227 672.646C987.54 679.171 987.03 699.539 988.59 704.194L984.174 705.47L983.822 708.071L983.177 708.555C982.616 690.683 986.4 669.504 983.728 652.288Z"/>
	<path fill="#6A370D" d="M987.227 672.646C987.54 679.171 987.03 699.539 988.59 704.194L984.174 705.47C986.642 695.205 984.864 683.561 987.227 672.646Z"/>
	<path fill="#6F320A" d="M985.515 528.607L986.503 527.754C988.968 533.996 986.231 545.672 987.146 552.755C989.396 556.982 988.297 564.196 988.659 569.018C988.652 579.439 988.7 589.983 987.686 600.365C987.763 603.772 987.781 607.137 987.597 610.54C987.491 622.269 986.81 633.992 986.945 645.721Q985.302 648.988 983.728 652.288C983.436 650.757 983.466 649.194 983.429 647.64C982.339 633.549 983.167 619.124 983.405 605.002Q984.037 566.793 985.515 528.607Z"/>
	<path d="M987.146 552.755C989.396 556.982 988.297 564.196 988.659 569.018C988.652 579.439 988.7 589.983 987.686 600.365C987.763 603.772 987.781 607.137 987.597 610.54C987.491 622.269 986.81 633.992 986.945 645.721Q985.302 648.988 983.728 652.288C983.436 650.757 983.466 649.194 983.429 647.64C987.636 634.537 982.856 618.7 985.38 605.122C985.446 602.125 985.68 599.177 985.962 596.194C986.811 581.817 986.723 567.166 987.146 552.755Z"/>
	<path fill="#6F320A" d="M989.259 354.183L990.669 353.179C994.045 357.172 991.459 372.362 992.966 378.257C993.55 389.457 992.852 400.938 992.569 412.154C992.047 432.945 991.343 453.93 991.394 474.72C989.854 475.029 989.206 474.946 987.766 474.482C985.524 470.446 988.762 369.15 989.259 354.183Z"/>
	<path fill="#F99835" d="M779.403 223.213C796.784 225.658 814.668 223.136 832.1 224.882C844.026 224.832 856.108 224.962 868.017 225.591C870.496 228.201 874.443 227.476 877.837 228.004C895.461 227.633 913.259 228.928 930.894 229.345C949.781 229.791 968.757 229.386 987.621 230.308L988.559 230.634C1000.78 234.789 1014.4 230.19 1026.91 232.418C1026.94 232.423 1026.96 232.406 1026.99 232.4L1027.08 234.114C1019.03 235.979 1008.64 234.87 1000.26 234.715C998.262 234.678 995.494 233.973 993.6 234.468L993.882 235.043L993.311 235.506C980.278 235.459 967.322 235.981 954.299 236.252C941.256 236.418 926.337 238.042 913.594 237.168C906.089 238.291 897.841 237.819 890.217 237.982Q863.676 238.53 837.13 238.694C751.68 239.814 666.365 236.517 580.951 235.358C571.2 235.353 559.381 233.174 549.893 235.265C543.38 235.767 536.689 235.089 530.168 234.738C516.736 235.38 501.417 234.68 488.029 233.43C482.983 233.886 477.415 233.436 472.322 233.4L469.748 232.239L470.227 231.383C477.397 228.468 494.928 230.413 503.17 230.54C506.534 230.56 512.965 231.432 515.811 229.786C502.638 229.772 489.413 229.761 476.255 229.115C477.007 228.23 479.724 227.686 480.92 227.302C497.396 226.579 585.536 227.101 591.775 224.056C596.354 226.872 628.024 223.754 636.402 224.365C643.95 224.208 651.546 223.88 659.09 224.18C670.383 222.929 681.839 224.625 693.116 223.411C696.862 224.586 773.22 224.343 779.403 223.213Z"/>
	<path fill="#F3BC89" d="M636.402 224.365C643.95 224.208 651.546 223.88 659.09 224.18C665.373 225.096 681.072 222.72 685.608 225.933L685.711 225.107L686.388 225.273L686.482 225.891C677.001 228.385 665.47 227.391 655.687 227.277C650.793 227.22 639.861 227.909 636.402 224.365Z"/>
	<path fill="#F3BC89" d="M542.602 229.653C555.758 229.371 568.55 230.629 581.642 231.034C592.346 231.366 603.786 230.207 614.282 232.432C604.157 232.425 586.806 230.752 577.59 233.519L577.4 234.313L580.951 235.358C571.2 235.353 559.381 233.174 549.893 235.265L548.994 233.71C546.335 231.95 541.417 232.506 538.228 232.422C536.08 231.43 532.788 231.707 530.4 231.589L531.299 230.943C530.746 231.176 530.217 231.441 529.68 231.707L530.137 231.061C538.482 230.716 546.836 231.062 555.185 231.116C551.171 230.034 547.137 230.853 543.127 229.802C542.951 229.756 542.777 229.703 542.602 229.653Z"/>
	<path fill="#F3BC89" d="M832.1 224.882C844.026 224.832 856.108 224.962 868.017 225.591C870.496 228.201 874.443 227.476 877.837 228.004C869.928 228.538 862.373 230.401 854.367 230.37C847.422 230.343 840.466 228.95 833.58 228.17C825.049 227.203 816.432 226.652 807.878 225.89C815.877 224.528 824.016 225.156 832.1 224.882Z"/>
	<path fill="#FCCE9E" d="M515.811 229.786C524.744 229.629 533.669 229.443 542.602 229.653C542.777 229.703 542.951 229.756 543.127 229.802C547.137 230.853 551.171 230.034 555.185 231.116C546.836 231.062 538.482 230.716 530.137 231.061L529.68 231.707C530.217 231.441 530.746 231.176 531.299 230.943L530.4 231.589C532.788 231.707 536.08 231.43 538.228 232.422C541.417 232.506 546.335 231.95 548.994 233.71L549.893 235.265C543.38 235.767 536.689 235.089 530.168 234.738C516.736 235.38 501.417 234.68 488.029 233.43C482.983 233.886 477.415 233.436 472.322 233.4L469.748 232.239L470.227 231.383C477.397 228.468 494.928 230.413 503.17 230.54C506.534 230.56 512.965 231.432 515.811 229.786Z"/>
	<path fill="#FCCE9E" d="M580.951 235.358L577.4 234.313L577.59 233.519C586.806 230.752 604.157 232.425 614.282 232.432L789.717 233.465L852.756 233.377C864.765 233.335 878.83 232.26 890.702 234.07C904.245 233.657 947.447 231.533 958.851 234.647L958.967 234.957C957.546 236.074 955.992 235.57 954.299 236.252C941.256 236.418 926.337 238.042 913.594 237.168C906.089 238.291 897.841 237.819 890.217 237.982Q863.676 238.53 837.13 238.694C751.68 239.814 666.365 236.517 580.951 235.358Z"/>
	<path fill="#0F172A" d="M386.547 560.008C387.41 560.639 387.712 560.539 387.879 561.648C388.244 564.068 388.56 566.761 387.711 569.108C389.559 573.501 389.821 588.496 388.598 593.169C391.099 596.075 390.296 621.644 389.99 626.872Q389.953 637.818 390.384 648.755C395.44 648.988 446.16 665.178 450.798 668.121C451.373 669.908 451.465 669.794 453.127 670.63C465.402 676.801 480.151 678.828 492.217 684.717C501.241 689.416 511.576 691.458 521.134 694.792C533.498 699.105 545.935 702.928 558.309 707.139C567.34 710.211 576.135 713.852 585.298 716.546C590.892 717.993 599.761 721.734 605.329 721.135C624.65 726.274 643.886 734.278 662.851 740.757L711.796 757.854C722.285 761.418 733.207 764.476 743.5 768.509C754.081 772.129 764.68 775.78 775.477 778.709L775.667 782.414C775.904 782.544 776.137 782.681 776.378 782.804C777.865 783.566 779.197 783.937 780.861 783.534C787.946 781.816 795.494 778.108 802.352 775.517L855.413 755.126C876.598 747.006 898.488 740.898 919.758 733.045C930.315 730.246 940.95 725.666 951.33 722.108C985.248 710.485 1018.65 697.469 1052.37 685.311L1122.11 660.231C1127.65 658.237 1136.34 657.111 1140.97 653.726C1142.06 651.585 1141.7 651.194 1141.22 648.913C1142.31 648.485 1143.36 647.893 1144.4 647.372C1146.27 642.899 1146.52 624.231 1145.1 619.759C1147.14 614.592 1147.73 598.742 1146.59 593.247C1152.18 593.335 1198.83 600.225 1201.98 602.291C1210.73 603.097 1258.54 610.502 1264.23 613.029C1263.92 613.401 1263.7 613.857 1263.31 614.146C1261.59 615.436 1236.39 622.838 1231.93 624.39C1205.99 633.406 1180.43 643.425 1154.55 652.6L1154.36 651.233C1151.42 654.879 1121.38 663.23 1115.06 665.437C1065.85 682.633 1017.15 701.473 968.083 719.134C951.551 725.085 935.032 732.281 918.237 737.337C902.425 743.703 886.07 748.937 869.982 754.566Q841.523 764.704 813.184 775.172C806.972 777.613 784.288 784.934 780.143 788.237L778.413 788.139C777.375 787.23 776.054 786.776 774.804 786.208C772.545 785.254 770.563 784.593 768.142 784.161C750.707 777.084 732.102 771.796 714.29 765.658C687.709 756.499 661.348 746.673 634.681 737.762C625.609 734.319 615.839 729.862 606.348 727.913C599.856 724.502 591.884 722.412 584.959 719.844C577.793 718.239 570.459 715.019 563.544 712.538Q546.531 706.294 529.255 700.821Q509.713 693.632 490.062 686.749C462.933 677.075 435.763 666.964 408.023 659.174C401.574 656.735 395.123 654.53 388.524 652.53L389.28 648.935C384.618 649.744 379.046 649.496 374.68 651.04C374.242 651.882 373.934 652.451 373.759 653.394C365.199 651.408 356.334 647.077 348.079 643.954L294.603 623.627L239.695 602.557C226.119 597.475 211.853 592.782 198.795 586.465L200.359 586.031L197.735 584.872C205.047 579.735 239.521 579.595 249.758 576.329C261.033 574.942 309.552 567.684 315.488 569.286C321.101 566.519 357.329 563.478 366.521 562.019C373.184 561.265 379.874 560.674 386.547 560.008Z"/>
	<path fill="#37537E" d="M1146.59 593.247C1152.18 593.335 1198.83 600.225 1201.98 602.291C1188.12 604.979 1173.75 610.546 1160.33 615.019C1155.5 616.628 1150.1 619.18 1145.1 619.759C1147.14 614.592 1147.73 598.742 1146.59 593.247Z"/>
	<path fill="white" d="M386.547 560.008C387.41 560.639 387.712 560.539 387.879 561.648C388.244 564.068 388.56 566.761 387.711 569.108C389.559 573.501 389.821 588.496 388.598 593.169C391.099 596.075 390.296 621.644 389.99 626.872Q339.997 609.526 290.281 591.401C276.801 586.449 262.731 582.528 249.758 576.329C261.033 574.942 309.552 567.684 315.488 569.286C321.101 566.519 357.329 563.478 366.521 562.019C373.184 561.265 379.874 560.674 386.547 560.008Z"/>
	<path fill="#0F172A" d="M386.547 560.008C387.41 560.639 387.712 560.539 387.879 561.648C388.244 564.068 388.56 566.761 387.711 569.108C389.559 573.501 389.821 588.496 388.598 593.169Q365.717 585.515 342.696 578.292C333.637 575.43 324.271 572.916 315.488 569.286C321.101 566.519 357.329 563.478 366.521 562.019C373.184 561.265 379.874 560.674 386.547 560.008Z"/>
	<path fill="white" d="M386.547 560.008C387.41 560.639 387.712 560.539 387.879 561.648C388.244 564.068 388.56 566.761 387.711 569.108C380.754 566.982 373.054 565.19 366.521 562.019C373.184 561.265 379.874 560.674 386.547 560.008Z"/>
	<path fill="#F99835" d="M373.759 653.394C373.934 652.451 374.242 651.882 374.68 651.04C379.046 649.496 384.618 649.744 389.28 648.935L388.524 652.53C395.123 654.53 401.574 656.735 408.023 659.174C435.763 666.964 462.933 677.075 490.062 686.749Q509.713 693.632 529.255 700.821Q546.531 706.294 563.544 712.538C570.459 715.019 577.793 718.239 584.959 719.844C591.884 722.412 599.856 724.502 606.348 727.913C615.839 729.862 625.609 734.319 634.681 737.762C661.348 746.673 687.709 756.499 714.29 765.658C732.102 771.796 750.707 777.084 768.142 784.161C770.563 784.593 772.545 785.254 774.804 786.208C776.054 786.776 777.375 787.23 778.413 788.139C778.25 790.551 778.492 798.528 777.373 800.062C771.438 798.637 761.204 797.352 756.192 793.86C754.405 793.259 753.391 792.874 751.555 793.447L752.093 794.253L752.68 794.547C755.48 795.518 759.062 797.289 761.935 797.681C765.206 798.721 769.456 799.553 771.8 802.172C772.666 803.994 772.765 805.669 772.933 807.661C771.439 808.498 769.952 809.327 768.514 810.257L771.625 810.966C772.583 813.649 772.769 817.565 772.405 820.393C771.85 820.796 770.995 821.257 770.576 821.781C772.035 823.18 772.072 823.249 772.327 825.254C771.72 826.213 771.736 826.492 770.666 826.98C770.469 828.814 770.556 831.668 769.627 833.223L769.443 839.558L770.031 835.741L770.6 835.365C771.181 836.59 771.717 837.951 772.425 839.1L771.842 840.649L772.842 842.257C776.992 843.182 782.177 840.961 786.091 839.682C787.018 841.137 786.595 841.931 787.918 843.128C783.734 844.775 778.482 846.657 773.945 845.822C772.398 849.611 773.277 854.025 771.83 857.262C740.224 845.984 709.757 831.31 678.085 820.419C672.159 817.046 664.809 814.826 658.427 812.313C641.317 805.576 623.921 799.441 606.984 792.287C585.673 784.623 563.256 776.148 542.883 766.378C540.669 766.098 377.68 702.443 376.598 701.522C375.489 700.577 375.632 698.271 375.488 696.861L375.731 694.621C375.918 688.288 374.888 681.86 374.966 675.462Q374.878 667.6 374.42 659.75C374.348 657.588 374.107 655.529 373.759 653.394Z"/>
	<path fill="#6A370D" d="M769.443 839.558L770.031 835.741L770.6 835.365C771.181 836.59 771.717 837.951 772.425 839.1L771.842 840.649L772.842 842.257C776.992 843.182 782.177 840.961 786.091 839.682C787.018 841.137 786.595 841.931 787.918 843.128C783.734 844.775 778.482 846.657 773.945 845.822C773.269 844.994 772.834 844.694 771.835 844.413C765.404 842.609 757.056 839.684 751.461 836.018C755.68 837.421 764.765 841.85 768.794 841.199L769.723 840.367L769.443 839.558Z"/>
	<path d="M407.147 673.037L408.154 671.922L411.999 672.713C418.69 676.919 434.293 681.069 442.281 683.906L520.667 711.577L520.282 714.829L520.425 720.373C520.372 723.075 520.215 725.818 520.36 728.517C516.643 729.099 508.359 724.833 504.453 723.623C501.113 721.394 495.86 720.014 492.067 718.584C486.087 716.331 479.895 713.795 473.642 712.421C459.707 709.359 442.89 710.547 428.557 710.418C423.68 710.196 412.057 710.635 408.271 708.508C410.691 705.535 409.111 697.524 408.831 693.719C408.832 689.48 408.573 685.222 408.416 680.986C408.325 678.18 408.414 675.611 407.147 673.037Z"/>
	<path d="M562.08 726.38C614.146 744.278 665.716 763.652 717.921 781.18C717.756 785.462 717.758 789.672 717.957 793.953L717.794 796.763L717.903 802.496L717.625 803.711C712.551 803.984 644.373 776.409 632.519 773.307C622.131 770.588 580.085 767.495 568.956 768.603L566.618 767.887C566.723 764.869 566.567 761.801 566.523 758.779L566.39 750.504L566.273 744.435L566.234 738.036L566.354 735.382C566.336 734.192 566.31 733.004 566.191 731.819C565.932 729.218 563.955 727.924 562.08 726.38Z"/>
	<path fill="#B66815" d="M1151.58 447.862C1152.78 451.11 1152.38 455.692 1151.76 459.057C1151.6 466.767 1152.5 487.381 1149.57 493.619C1150.24 496.133 1150.19 496.457 1149.35 498.923C1150.17 501.38 1150.61 502.508 1149.53 504.996C1149.47 505.124 1149.4 505.246 1149.34 505.371C1150.37 508.824 1150.35 514.335 1148.64 517.573C1149.56 519.983 1150.04 521.723 1148.91 524.152C1148.8 524.383 1148.68 524.609 1148.56 524.838C1149.63 528.462 1149.53 534.563 1147.74 537.932C1149.21 541.276 1147.05 546.56 1149.45 548.921C1147.79 550.424 1148.13 552.893 1148.01 555.1C1147.86 557.804 1148.07 560.78 1147.34 563.396C1147.8 567.226 1147.79 571.517 1147.22 575.326C1147.57 580.994 1147.46 587.641 1146.59 593.247C1147.73 598.742 1147.14 614.592 1145.1 619.759C1146.52 624.231 1146.27 642.899 1144.4 647.372C1143.36 647.893 1142.31 648.485 1141.22 648.913L1039.95 685.598C1022.87 691.757 1005.43 697.425 988.59 704.194C987.03 699.539 987.54 679.171 987.227 672.646L986.945 645.721C986.81 633.992 987.491 622.269 987.597 610.54C987.781 607.137 987.763 603.772 987.686 600.365C988.7 589.983 988.652 579.439 988.659 569.018C988.297 564.196 989.396 556.982 987.146 552.755C986.231 545.672 988.968 533.996 986.503 527.754L985.515 528.607L986.343 488.337C986.233 486.43 986.028 484.448 986.085 482.54C986.138 480.731 986.371 480.336 987.669 479.088L991.125 479.298C1006.35 476.017 1148.75 450.089 1150.67 448.88C1151.05 448.637 1151.27 448.201 1151.58 447.862Z"/>
	<path fill="#6F320A" d="M986.343 488.337C986.233 486.43 986.028 484.448 986.085 482.54C986.138 480.731 986.371 480.336 987.669 479.088L991.125 479.298L990.728 495.229L989.056 496.222C987.277 493.901 989.183 490.619 987.58 488.023L986.343 488.337Z"/>
	<path fill="#000007" d="M1048.38 628.575C1050.22 626.85 1051.63 625.095 1054.27 624.895C1055.43 625.798 1055.87 625.948 1056.04 627.52C1056.45 631.269 1054.44 635.034 1052.22 637.848C1051.72 638.488 1051.55 639.001 1051.41 639.795L1049.7 640.6C1050.64 636.202 1049.9 632.732 1048.38 628.575Z"/>
	<path fill="#000007" d="M1023.32 632.479C1025.05 632.402 1025.17 632.27 1026.53 633.289C1026.64 636.185 1026.42 638.316 1025.56 641.098C1024.63 641.961 1024.2 643.259 1023.65 644.394L1024.56 645.703L1023.36 645.106L1023.32 646.536L1021.29 647.62C1020.59 647.163 1019.62 646.753 1019.23 646.003C1017.76 643.143 1017.73 639.743 1018.78 636.718C1019.6 634.356 1021.18 633.52 1023.32 632.479Z"/>
	<path fill="#000007" d="M1009.51 636.787C1009.99 636.918 1010.55 637.405 1010.96 637.685C1011.16 638.663 1011.29 639.615 1011.29 640.618C1011.3 644.281 1010.13 649.301 1007.53 651.94L1006.28 651.865C1005.97 650.877 1005.77 650.163 1005.16 649.308C1005.03 649.126 1004.88 648.957 1004.74 648.782C1004.11 649.564 1003.39 650.289 1002.71 651.03C1002.23 650.491 1002.14 650.441 1001.76 649.724C1000.61 647.561 1001.22 644.526 1002.13 642.41C1003.62 638.925 1006.25 638.172 1009.51 636.787Z"/>
	<defs>
		<linearGradient id="gradient_0" gradientUnits="userSpaceOnUse" x1="995.99091" y1="517.49274" x2="978.75909" y2="510.25818">
			<stop offset="0" stop-color="#571500"/>
			<stop offset="1" stop-color="#6F310E"/>
		</linearGradient>
	</defs>
	<path fill="url(#gradient_0)" d="M986.343 488.337L987.58 488.023C989.183 490.619 987.277 493.901 989.056 496.222L990.728 495.229Q989.882 517.042 989.355 538.866C989.168 548.881 989.48 559.041 988.659 569.018C988.297 564.196 989.396 556.982 987.146 552.755C986.231 545.672 988.968 533.996 986.503 527.754L985.515 528.607L986.343 488.337Z"/>
	<path fill="#000007" d="M996.908 635.675C1008.45 631.87 1020.08 628.531 1031.77 625.197C1036.55 623.831 1041.48 621.871 1046.4 621.162L1046.35 622.663C1043.22 623.338 1039.27 623.75 1036.75 625.784C1036.54 627.078 1036.49 627.054 1037.18 628.157C1039.34 628.559 1041.02 627.555 1042.95 626.711C1043.72 629.516 1043.19 633.617 1041.67 636.124C1041.4 636.561 1041.33 636.612 1041.03 636.938C1040.62 637.612 1040.22 638.19 1039.72 638.802C1038.25 640.603 1037.98 642.967 1036.27 644.635C1033.95 641.722 1036.04 639.47 1032.54 636.033L1031.06 636.781L1030.81 635.537C1030.77 632.54 1031.16 630.706 1029.52 628.149C1027.4 627.043 1025.68 626.942 1023.39 627.709C1019.12 629.137 1015.91 632.259 1011.92 634.157L1010.86 632.511C1007.52 631.981 1000.99 635.599 997.594 636.682C997.307 644.282 997.314 651.847 997.411 659.452C1002.18 657.855 1006.96 656.088 1011.86 654.974L1012.03 654.531C1012.48 653.3 1012.88 652.456 1013.77 651.453L1013.21 651.651C1015.49 653.209 1017.3 652.893 1019.93 652.392C1023.2 651.77 1027.88 650.576 1030.08 647.962C1030.13 647.899 1030.2 647.848 1030.26 647.791L1030.31 648.164C1030.82 648.271 1031.03 648.334 1031.51 648.381C1033.74 648.599 1035.34 648.088 1037.07 646.715C1039.42 646.356 1041.38 646.25 1043.13 644.458C1043.81 642.306 1043.52 641.205 1042.86 639.078C1043.37 641.137 1043.76 643.002 1043.78 645.129C1042.17 647.256 1038.02 648.003 1035.47 648.696C1026.54 651.758 1017.39 654.425 1008.32 657.056Q1002.34 659.104 996.429 661.369C996.256 652.813 996.983 644.25 996.908 635.675Z"/>
	<path fill="#F99835" d="M1030.81 635.537C1030.81 632.456 1030.34 629.023 1032.07 626.356C1033.61 625.508 1033.62 625.576 1035.35 625.91C1034.69 627.133 1034.26 627.256 1033.04 627.966L1033.47 628.462L1035.43 628.32C1035.71 630.217 1035.64 633.487 1034.36 635.011C1033.91 635.547 1033.17 635.805 1032.54 636.033L1031.06 636.781L1030.81 635.537Z"/>
	<path fill="#000007" d="M1018.43 485.737C1019.58 486.138 1020.04 486.749 1020.83 487.638C1022.82 493.242 1020.44 498.927 1019.47 504.504C1018.17 511.938 1019.8 512.486 1023.77 518.124L1023.31 520.371C1020.26 521.596 1002.39 525.89 1000.07 524.956C999.735 523.29 999.833 522.663 1000.44 521.074C1001.63 520.081 1002.9 519.066 1003.92 517.89C1006.92 514.435 1005.58 509.266 1005.16 505.071C1004.16 502.059 1003.17 498.526 1003.63 495.328C1003.98 492.845 1004.93 491.175 1006.89 489.724L1008.22 490.36C1010.62 495.545 1007.86 511.337 1008.04 518.388C1011.15 517.753 1014.24 516.912 1017.33 516.159C1018.4 506.338 1013.34 493.909 1018.43 485.737Z"/>
	<path fill="#F99835" d="M384.169 442.264C392.524 446.525 418.204 449.776 428.857 451.789L519.198 469.062C529.835 471.135 540.709 472.606 551.263 475.011C551.654 551.18 555.263 627.437 554.842 703.586Q520.082 692.17 485.6 679.938C474.307 676.006 462.357 670.827 450.798 668.121C446.16 665.178 395.44 648.988 390.384 648.755Q389.953 637.818 389.99 626.872C390.296 621.644 391.099 596.075 388.598 593.169C389.821 588.496 389.559 573.501 387.711 569.108C388.56 566.761 388.244 564.068 387.879 561.648C387.712 560.539 387.41 560.639 386.547 560.008C389.083 557.333 387.788 547.644 387.69 543.813C387.873 532.498 386.861 521.054 386.368 509.746C385.391 487.315 384.343 464.713 384.169 442.264Z"/>
	<path fill="#000007" d="M422.227 604.524C426.38 607.397 427.77 609.737 429.142 614.553C427.976 615.749 426.879 616.652 425.482 617.566C424.767 617.363 423.915 617.165 423.274 616.785C421.431 615.692 421.537 613.352 421.222 611.441L422.227 604.524Z"/>
	<path fill="#000007" d="M408.763 600.93C409.062 600.917 409.284 601.228 409.524 601.406C409.501 606.968 410.311 612.517 410.944 618.035C409.553 615.121 408.409 612.045 407.18 609.056L403.395 611.686L402.434 611.341C402.287 610.801 402.119 610.277 402.041 609.722C401.738 607.59 401.71 603.402 402.953 601.627C404.323 601.981 405.662 602.394 407.009 602.827L408.763 600.93Z"/>
	<path fill="#000007" d="M408.857 459.604C414.311 464.765 408.678 482.263 414.144 490.307C414.313 490.556 414.492 490.798 414.666 491.043L414.336 492.474L412.361 492.681C410.156 492.359 408.579 492.129 406.703 490.884C413.534 478.794 404.641 471.493 408.857 459.604Z"/>
	<path fill="#000007" d="M439.53 609.515C442.096 611.047 442.467 611.738 443.257 614.633C443.466 615.399 443.697 615.348 444.339 615.765C444.163 614.268 443.74 613.231 444.502 611.901Q445.767 613.22 446.963 614.602L447.416 614.764C449.173 617.543 448.504 620.341 448.456 623.589L448.245 624.891C447.956 624.883 447.666 624.9 447.379 624.866C444.186 624.487 440.144 622.059 438.619 619.23C437.017 616.257 438.56 612.492 439.53 609.515Z"/>
	<path fill="#000007" d="M397.973 456.728C403.318 461.604 396.376 477.719 402.484 488.227C403.03 489.167 402.832 489.207 402.666 490.231L400.173 490.961C398.667 490.641 396.119 490.384 395.046 489.212C394.265 488.36 394.557 487.694 394.554 486.593C402.38 477.956 393.153 468.955 397.973 456.728Z"/>
	<path fill="#F99835" d="M378.079 232.836C394.97 234.11 412.216 233.696 429.169 234.165Q488.42 235.491 547.652 237.467C550.017 314.972 549.214 392.614 551.315 470.137L442.926 450.324C423.75 446.815 403.79 441.883 384.39 440.286C381.568 433.21 383.02 392.354 381.667 380.401C381.713 380.219 381.767 380.038 381.805 379.854C383.072 373.715 381.324 317.775 379.346 314.896C380.932 310.388 379.415 295.928 379.352 290.205C379.83 282.24 378.742 273.827 378.399 265.834C377.926 254.838 378.012 243.84 378.079 232.836Z"/>
	<path fill="#000007" d="M392.327 243.516C392.4 243.673 392.48 243.828 392.546 243.988C395.307 250.666 396.101 263.951 393.464 270.76C392.649 264.502 392.051 258.411 389.656 252.519C390.458 249.492 391.401 246.507 392.327 243.516Z"/>
	<path fill="#000007" d="M432.154 389.59C434.127 390.402 437.229 391.568 438.823 392.679C439.639 395.472 437.591 399.156 437.584 402.316C437.583 402.547 437.59 402.778 437.593 403.009L437.18 402.942C436.658 402.264 436.405 401.986 435.753 401.502L435.049 402.359C434.186 401.811 433.493 401.339 432.915 400.472C430.796 397.293 431.428 393.1 432.154 389.59Z"/>
	<path fill="#000007" d="M392.444 385.642C393.015 385.686 394.358 385.614 394.827 385.826C395.208 385.998 396.219 387.455 396.498 387.474C398.833 387.632 398.738 385.571 401.923 386.682C403.095 389.694 402.65 393.708 402.632 396.935L397.827 396.278C395.192 393.696 393.071 389.26 392.444 385.642Z"/>
	<path fill="#000007" d="M419.509 404.486L418.162 402.235C418.224 401.649 418.343 400.95 418.214 400.359C418.105 399.862 417.532 398.302 417.094 398.064L416.933 400.935L415.354 401.431C413.365 400.232 411.844 397.563 410.995 395.368C410.39 393.805 410.587 392.235 411.476 390.82C412.304 389.501 413.878 388.601 415.384 388.335C417.148 388.023 419.524 388.867 420.831 390.075C422.821 391.915 422.465 394.579 422.677 397.098L421.69 398.858L419.677 399.405C419.53 401.113 419.473 402.772 419.509 404.486Z"/>
	<path fill="#000007" d="M402.405 242.921C402.505 243.025 402.617 243.12 402.705 243.235C408.006 250.165 403.173 260.385 404.161 268.103C404.542 271.076 407.811 274.832 407.383 277.383C402.735 278.045 397.642 277.231 392.97 276.873C390.065 276.683 389.678 276.941 387.657 274.921L387.842 273.631C390.823 271.527 399.371 272.989 403.023 273.225C402.545 262.599 400.513 253.631 402.405 242.921Z"/>
	<path fill="#B66815" d="M993.882 235.043C1000.79 236.189 1008.69 235.521 1015.72 235.482C1030.84 235.399 1045.89 235.166 1061 234.644Q1107.53 233.129 1154.09 232.979C1156.3 232.999 1158.88 232.655 1160.76 233.96C1161.42 246.102 1160.01 258.876 1159.46 271.044L1156.94 332.018C1155.2 368.101 1155.24 404.523 1152.42 440.525C1152.31 441.873 1151.92 443.171 1151.04 444.221C1139.04 447.067 1126.74 448.853 1114.63 451.152Q1076.87 458.553 1038.97 465.243C1023.5 468.031 1006.31 469.903 991.394 474.72C991.343 453.93 992.047 432.945 992.569 412.154C992.852 400.938 993.55 389.457 992.966 378.257C991.459 372.362 994.045 357.172 990.669 353.179L989.259 354.183C989.057 331.452 990.411 308.515 990.987 285.781C991.474 272.479 991.469 259.19 992.39 245.903L992.647 237.519L993.311 235.506L993.882 235.043Z"/>
	<path fill="#F99835" d="M1019.94 431.442L1020.14 432.393L1020.77 430.578C1021.1 435.318 1020.88 439.323 1019.86 443.959C1018.67 440.297 1016.18 436.926 1016.92 433.077L1019.94 431.442Z"/>
	<path fill="#000007" d="M1037.3 404.013L1038.96 404.262C1040.02 405.148 1040.49 405.981 1040.74 407.337C1041.17 409.749 1039.75 413.452 1038.34 415.47C1037.52 416.653 1036.62 418.17 1035.18 418.401L1034.37 415.829L1033.56 415.946C1032.72 415.047 1031.95 414.205 1031.47 413.045C1030.5 410.655 1030.81 407.644 1031.85 405.332C1033.62 404.304 1034.79 405.003 1036.7 405.448L1037.3 404.013Z"/>
	<path fill="#000007" d="M1058.96 400.968L1060.63 401.511C1061.67 404.165 1061.54 407.612 1061.41 410.438C1061.31 412.519 1061.02 414.316 1059.43 415.752C1058.07 415.664 1058.46 412.958 1056.88 411.774L1055.03 413.527L1054.85 415.9L1054.01 416.593L1052.92 415.252C1052.31 411.481 1050.9 405.745 1052.62 402.148C1054.9 402.114 1056.79 401.599 1058.96 400.968Z"/>
	<path fill="#000007" d="M1012.6 406.834C1014.5 407.908 1016.24 410.859 1016.83 412.898C1016.49 414.619 1016.15 415.785 1015.01 417.159C1014.49 417.788 1014 418.315 1013.6 419.036C1012.72 420.637 1011.96 421.36 1010.46 422.423L1009.18 421.812C1007.41 419.374 1005.56 416.561 1005.23 413.492C1004.98 411.218 1005.44 410.489 1006.69 408.761C1009 408.812 1010.16 408.509 1012.08 407.2C1012.26 407.082 1012.43 406.956 1012.6 406.834Z"/>
	<path fill="#562706" d="M992.39 245.903L992.647 237.519C993.815 239.529 995.604 238.96 996.227 239.874C997.488 241.726 994.688 306.906 994.4 314.449C994.247 314.332 994.073 314.237 993.94 314.097C991.373 311.401 993.316 295.027 993.451 290.537L992.525 290.638C991.12 289.584 991.251 287.497 990.987 285.781C991.474 272.479 991.469 259.19 992.39 245.903Z"/>
	<path fill="#6F320A" d="M992.39 245.903C993.232 246.868 993.937 247.867 994.184 249.153C995.941 258.274 993.429 279.85 993.451 290.537L992.525 290.638C991.12 289.584 991.251 287.497 990.987 285.781C991.474 272.479 991.469 259.19 992.39 245.903Z"/>
	<defs>
		<linearGradient id="gradient_1" gradientUnits="userSpaceOnUse" x1="1002.5544" y1="328.05042" x2="980.6239" y2="317.55154">
			<stop offset="0" stop-color="#581A03"/>
			<stop offset="1" stop-color="#6E3511"/>
		</linearGradient>
	</defs>
	<path fill="url(#gradient_1)" d="M990.987 285.781C991.251 287.497 991.12 289.584 992.525 290.638L993.451 290.537C993.316 295.027 991.373 311.401 993.94 314.097C994.073 314.237 994.247 314.332 994.4 314.449C994.752 335.644 993.624 357.062 992.966 378.257C991.459 372.362 994.045 357.172 990.669 353.179L989.259 354.183C989.057 331.452 990.411 308.515 990.987 285.781Z"/>
	<path fill="#000007" d="M1022.04 245.23C1030.05 255.591 1019.25 270.516 1022.24 277.818C1023.1 279.925 1025.18 280.521 1027.06 281.461C1027.59 283.055 1027.35 283.042 1026.58 284.571C1022.44 286.142 1015.77 285.794 1011.24 286.075C1008.46 286.247 1004.79 287.089 1002.67 285.215C1002.67 283.412 1002.54 282.681 1003.42 281.073L1007.11 280.351C1009.04 277.755 1007.74 269.484 1007.5 266.142C1006.29 258.31 1007.28 252.75 1010.27 245.42C1013.85 258.153 1010.53 267.915 1010.79 280.621L1019.17 280.2C1020.28 268.021 1018.29 257.072 1022.04 245.23Z"/>
	<path fill="#B66815" d="M776.789 517.054C796.933 514.537 817.036 510.059 836.997 506.295L942.479 486.122C956.494 483.411 970.728 479.416 984.819 477.482Q982.584 549.552 981.281 621.645C980.759 649.8 980.929 677.922 979.465 706.06C960.036 713.965 940.104 720.488 920.308 727.388L864.388 747.486C835.352 757.953 806.449 770.505 776.9 779.316C778.525 726.9 776.532 674.333 776.947 621.896L777.642 551.353C777.659 542.024 778.814 531.002 777.027 521.892C776.64 520.32 776.776 518.669 776.789 517.054Z"/>
	<path fill="#000007" d="M856.839 681.381C859.422 682.036 863.452 683.235 865.365 685.069C866.683 686.334 867.615 687.935 867.582 689.778C867.544 691.861 866.007 693.867 864.602 695.287L862.527 694.554L859.708 696.134C859.632 697.862 859.468 699.15 858.845 700.769L857.462 701.146L856.429 700.256C856.565 698.924 856.744 697.615 856.95 696.292Q856.387 695.739 855.839 695.17C851.871 691.042 856.845 688.321 856.849 682.272C856.849 681.975 856.843 681.678 856.839 681.381Z"/>
	<path fill="#000007" d="M831.012 689.89C832.281 690.08 833.513 690.371 834.764 690.655C836.991 693.139 839.549 695.616 839.529 699.129L837.168 700.798C835.995 703.292 836.958 704.844 836.585 707.425C834.995 706.635 834.632 704.108 834.032 702.439C832.559 703.323 832.243 705.617 831.697 707.251C831.246 708.411 830.723 709.103 829.902 710.032C828.361 709.27 828.896 705.826 827.272 704.413C825.848 705.26 824.509 706.296 822.802 706.331L822.463 704.582C823.78 699.663 827.656 693.735 831.012 689.89Z"/>
	<path fill="#000007" d="M802.081 717.874C801.253 716.666 801.077 715.986 800.878 714.58C799.213 713.468 798.788 713.415 796.773 713.289L795.482 714.359C795.898 715.534 796.285 716.694 796.624 717.894L795.674 719.262L794.432 719.283C793.462 717.086 791.572 710.515 792.426 708.321C793.166 706.42 797.406 700.176 799.175 699.517C800.988 699.777 802.194 700.336 803.795 701.208L805.13 700.838C805.573 699.524 805.983 698.248 806.267 696.886L807.808 697.073L807.467 696.875C807.502 697.045 807.541 697.215 807.572 697.386C808.27 701.207 808.555 716.515 806.476 719.322C805.828 720.196 804.859 720.607 803.9 721.053L802.277 720.957C803.134 719.514 804.261 719.249 805.739 718.504L802.081 717.874Z"/>
	<path fill="#F99835" d="M802.081 717.874C802.58 715.414 802.911 713.274 802.761 710.739L803.629 709.692C805.213 710.136 806.348 710.984 807.126 712.487C807.973 714.123 807.699 715.702 807.247 717.388C806.752 717.844 806.406 718.358 805.739 718.504L802.081 717.874Z"/>
	<path fill="#000007" d="M811.502 523.964C821 531.705 808.75 550.815 813.828 559.461C815.683 559.592 816.805 559.627 818.288 560.808C818.822 562.841 818.552 563.216 817.906 565.148C813.415 566.699 792.032 572.02 788.538 571.078C787.173 569.507 787.393 569.221 787.355 567.215C789.305 565.161 791.766 564.855 794.432 564.013Q793.704 555.904 792.829 547.81C792.28 543.766 791.197 538.5 792.123 534.495C792.663 532.159 794.136 529.489 796.184 528.222L797.042 528.618C801.608 537.836 796.274 553.344 796.368 563.555L810.096 560.051C810.164 547.949 805.509 535.239 811.502 523.964Z"/>
	<path fill="#B66815" d="M961.515 238.211C970.948 237.867 980.412 237.834 989.85 237.656L984.706 472.132C962.084 478.026 938.376 481.644 915.394 485.983L803.077 507.064Q790.707 509.502 778.24 511.377C778.39 500.97 777.855 490.57 777.889 480.163L778.382 386.684C778.401 355.52 778.064 324.379 778.97 293.226C779.457 276.46 777.184 257.987 779.936 241.511C840.55 242.218 900.953 239.364 961.515 238.211Z"/>
	<path fill="#000007" d="M797.431 253.561C804.49 263.324 798.817 278.422 798.757 289.643C803.348 289.339 807.95 289.133 812.544 288.884C813.518 279.098 810.467 269.001 812.573 259.448C812.996 257.531 813.248 256.233 814.929 255.117C818.047 257.113 818.694 261.935 819.564 265.342L816.355 273.619C815.267 276.669 814.486 283.073 815.17 286.163C816.959 288.912 820.147 289.5 822.88 291.109L822.634 293.418C819.85 296.239 816.605 295.952 812.763 296.182C808.297 296.45 792.157 298.415 789.411 295.976C788.04 291.528 795.816 288.835 796.326 282.294C797.306 269.715 788.282 272.277 797.431 253.561Z"/>
	<path fill="#F99835" d="M821.095 478.81C811.055 480.574 800.311 483.04 790.146 483.456C788.981 479.704 790.182 465.708 790.224 460.867L792.104 459.819L792.429 458.658L790.308 457.12C789.809 454.7 789.562 431.73 790.294 430.077C798.724 428.218 807.755 426.827 816.382 426.517C818.256 434.166 814.86 442.984 816.674 450.659L817.465 450.751C821.441 446.493 816.949 432.059 818.903 426.04C827.154 422.88 865.936 422.003 871.429 419.278C871.652 419.167 871.87 419.044 872.091 418.927L873.174 419.61C874.638 425.729 873.334 441.21 873.375 448.545C873.443 455.108 874.625 463.567 873.408 469.92C872.25 469.952 872.58 469.962 871.477 470.471C866.227 472.894 829.868 477.432 821.095 478.81Z"/>
	<path fill="#000007" d="M824.063 437.251C824.039 435.832 823.874 434.111 824.131 432.718C824.507 430.679 825.727 429.995 827.221 428.775C829.132 428.514 829.098 428.526 830.733 429.557C831.731 432.075 831.335 433.513 831.01 436.146L828.971 434.077L827.64 434.143C826.519 435.468 825.793 436.851 824.063 437.251Z"/>
	<path fill="#000007" d="M840.452 426.834C842.752 426.826 844.213 426.536 846.265 427.747C848.036 432.231 842.686 441.748 841.309 446.758L840.883 446.905C839.777 446.124 840.282 446.109 840.516 444.916C841.689 438.913 840.149 436.339 837.58 431.039C838.185 428.818 838.751 428.445 840.452 426.834Z"/>
	<path d="M824.063 437.251C825.793 436.851 826.519 435.468 827.64 434.143L828.971 434.077L831.01 436.146C831.214 439.63 832.692 444.055 831.857 447.334C829.173 449.762 826.044 449.737 822.558 450.072C822.935 446.168 822.777 440.882 824.063 437.251Z"/>
	<path fill="#000007" d="M861.37 425.847C863.646 425.979 865.59 426.281 867.769 426.958C869.039 428.792 868.087 430.9 867.718 433.055C868.274 433.746 868.919 434.507 869.282 435.318C870.01 436.943 870.291 438.784 869.447 440.41C868.312 442.594 866.451 443.455 864.241 444.218C861.547 444.031 860.876 444.17 858.79 442.534L859.065 441.26C860.81 440.477 862.468 440.028 864.336 439.634L865.255 438.005C864.196 436.632 860.799 436.347 859 435.654C858.808 435.049 858.658 434.705 858.594 434.099C858.299 431.277 859.775 428.066 861.37 425.847Z"/>
	<path d="M804.201 431.724C804.418 431.861 804.672 431.952 804.852 432.136C807.078 434.41 808.504 435.037 811.49 436.252C810.718 439.226 807.474 448.016 805.123 449.724L803.247 447.953L801.888 448.32C801.063 447.02 800.629 446.416 799.247 445.63C797.515 446.266 797.113 448.036 796.308 449.649L795.194 449.066C795.146 447.141 794.89 436.605 795.793 435.677C796.258 435.199 800.315 435.697 801.187 435.08C802.168 434.385 803.365 432.655 804.201 431.724Z"/>
	<path fill="#F99835" d="M555.137 475.663C579.704 479.653 604.298 485.408 628.734 490.282C657.771 496.073 686.884 501.114 715.993 506.492C733.736 509.77 759.502 516.102 776.789 517.054C776.776 518.669 776.64 520.32 777.027 521.892C774.699 546.077 776.473 571.694 776.472 596.026L776.308 694.641C776.327 722.659 776.68 750.71 775.477 778.709C764.68 775.78 754.081 772.129 743.5 768.509C733.207 764.476 722.285 761.418 711.796 757.854L662.851 740.757C643.886 734.278 624.65 726.274 605.329 721.135C590.198 714.887 574.252 710.212 558.822 704.688L556.752 574.308C556.229 541.442 556.13 508.515 555.137 475.663Z"/>
	<path fill="#000007" d="M598.095 656.242C599.967 656.552 602.584 656.714 604.244 657.617C607.877 659.591 605.035 664.376 606.143 667.522C606.616 668.865 607.026 670.228 607.471 671.581C605.214 672.356 603.485 672.133 601.165 671.71C597.718 668.599 599.273 661.036 598.095 656.242Z"/>
	<path fill="#000007" d="M629.295 666.026L630.749 667.381C633.263 667.604 634.725 669.416 636.339 671.334C637.665 672.909 637.913 674.15 637.773 676.167C636.405 678.436 635.4 678.69 633.081 679.804L631.286 678.017C629.532 677.939 627.949 677.682 626.241 677.28C624.618 674.872 625.71 672.286 623.942 669.104L624.743 668.373L626.281 668.988C627.632 668.569 628.14 667.623 628.933 666.532L629.295 666.026Z"/>
	<path fill="#000007" d="M578.174 648.964C579.2 649.682 580.452 649.646 581.04 650.157C582.514 651.437 583.839 652.058 585.664 652.706C587.071 654.503 587.599 658.406 587.46 660.731L587.054 668.016C586.393 666.121 586.15 664.593 584.599 663.241L582.493 665.007C581.645 663.511 580.754 662.237 579.631 660.934C578.499 661.741 578.487 663.564 578.182 664.911L577.265 665.06C576.977 664.406 576.925 664.367 576.771 663.547C576.138 660.173 576.233 651.598 578.174 648.964Z"/>
	<path fill="#000007" d="M588.297 494.808C588.475 494.973 588.664 495.127 588.831 495.304C592.013 498.674 590.331 510.512 590.033 514.981C589.52 522.644 590.38 526.497 595.563 532.421L595.409 534.002C593.34 534.857 591.561 534.195 589.382 533.855C587.077 533.387 584.976 533.106 583.011 531.723L582.831 529.302C584.044 527.483 584.982 527.682 587.055 527.179C587.373 526.527 587.481 526.378 587.684 525.737C589.601 519.691 587.182 509.447 584.288 503.884C585.382 500.637 586.598 497.785 588.297 494.808Z"/>
	<path fill="#000007" d="M572.641 491.746C579.896 497.191 571.529 517.563 575.846 525.038C576.423 526.038 577.933 526.137 579.015 526.455C580.5 527.954 580.17 528.671 580.27 530.727L579.328 531.548L575.714 530.983C573.02 530.53 569.506 530.175 567.726 528.01L567.923 526.128C569.214 525.181 570.768 524.159 571.617 522.771C574.756 517.636 571.435 508.817 570.218 503.438C569.135 498.65 570.127 495.738 572.641 491.746Z"/>
	<path fill="#F99835" d="M551.514 237.119C583.561 236.933 615.744 238.414 647.788 239.218L778.018 241.583C778.548 250.832 778.079 260.254 778.006 269.52L777.146 329.546C776.668 366.308 777.07 403.127 777.034 439.895C777.012 463.274 776.251 486.678 776.852 510.046L776.476 510.735C771.496 513.115 578.641 475.453 555.191 470.797L553.707 366.33C553.374 323.33 553.537 280.071 551.514 237.119Z"/>
	<path fill="#000007" d="M626.195 421.736L628.539 422.209C629.428 421.451 630.257 420.7 631.064 419.856C631.655 419.238 631.932 419.007 632.707 418.705L633.842 419.508L633.943 420.116C634.181 421.461 634.37 422.51 635.07 423.691C636.297 425.759 636.189 428.323 635.552 430.566C635.326 431.362 634.701 431.795 634.141 432.386C631.155 432.471 629.056 429.461 626.12 429.288C626.039 429.121 625.94 428.962 625.877 428.788C625.198 426.905 625.287 423.539 626.195 421.736Z"/>
	<path fill="#000007" d="M599.106 413.198C600.065 413.552 599.68 413.327 600.407 413.877C602.3 415.308 603.54 415.555 605.879 415.722C607.445 415.834 607.878 416.277 609.071 417.246C609.816 420.091 611.084 427.366 609.743 429.946L608.268 429.901C605.243 428.4 606.052 425.641 603.529 424.028L604.17 425.023L603.072 424.601L601.978 427.324C601.016 426.223 601.271 423.483 601.273 421.944C601.277 419.302 600.902 418.244 599.387 416.132C598.693 415.165 599.021 414.354 599.106 413.198Z"/>
	<path fill="#000007" d="M572.983 411.294C574.817 412.044 576.459 412.753 578.476 412.789C579.265 412.803 579.989 412.786 580.775 412.902C582.197 413.113 583.035 413.25 583.814 414.603C585.76 417.983 584.715 421.923 583.874 425.451L583.042 424.485C582.337 424.082 581.752 423.707 581.188 423.113C580.147 422.016 579.722 421.467 578.159 421.103L577.729 422.278L574.234 423.822C572.536 420.734 573.062 414.845 572.983 411.294Z"/>
	<path fill="#000007" d="M586.687 245.108C587.145 245.935 587.518 246.66 587.839 247.552C590.056 253.711 590.569 275.136 587.622 281.111C587.545 280.969 587.456 280.833 587.39 280.686C585.598 276.665 584.137 258.482 584.442 253.691C584.618 250.911 585.859 247.781 586.687 245.108Z"/>
	<path fill="#000007" d="M572.372 244.357C577.957 254.873 574.263 268.646 573.584 280.073C573.176 279.745 572.744 279.368 572.496 278.897C570.671 275.427 569.801 257.662 570.323 253.015C570.65 250.1 571.579 247.175 572.372 244.357Z"/>
	<path fill="#000007" d="M566.859 280.866C575.291 280.465 584.71 281.031 593.097 281.97C594.388 283.185 593.982 285.75 594.06 287.52C588.383 286.809 571.898 287.891 567.832 285.091C566.608 284.248 566.943 282.223 566.859 280.866Z"/>
	<path fill="#000007" d="M1264.23 613.029C1273.32 614.261 1331.04 622.42 1334.7 624.824C1348.41 626.096 1362.34 629.293 1375.92 631.668C1382.62 632.839 1390.67 633.353 1397.01 635.538C1415.54 637.681 1434.2 642.113 1452.55 645.499C1459.12 646.711 1468.24 647.037 1474.23 649.553C1464.97 650.134 1302.36 732.337 1279.84 743.371C1256.67 754.728 1233.04 765.283 1210.09 777.063L1155.98 804.621C1148.94 808.198 1137.92 815.366 1130.73 816.817C1129.93 816.449 1129.35 816.301 1128.46 816.387C1110.96 818.064 1093.48 820.875 1076.01 822.878C1044.74 826.46 1013.39 829.521 982.168 833.348C962.584 835.749 941.945 839.995 922.324 840.377C912.17 843.184 903.19 848.974 893.334 852.496L893.067 851.883C894.263 850.624 895.904 849.885 897.415 849.063C891.959 848.231 879.911 851.245 873.993 852.186C853.017 855.519 792.315 866.21 774.362 860.442C765.67 857.649 679.552 822.675 678.888 821.978C678.485 821.555 678.352 820.939 678.085 820.419C709.757 831.31 740.224 845.984 771.83 857.262C773.277 854.025 772.398 849.611 773.945 845.822C778.482 846.657 783.734 844.775 787.918 843.128C786.595 841.931 787.018 841.137 786.091 839.682C782.177 840.961 776.992 843.182 772.842 842.257L771.842 840.649L772.425 839.1C771.717 837.951 771.181 836.59 770.6 835.365L770.031 835.741L769.443 839.558L769.627 833.223C770.556 831.668 770.469 828.814 770.666 826.98C771.736 826.492 771.72 826.213 772.327 825.254C772.072 823.249 772.035 823.18 770.576 821.781C770.995 821.257 771.85 820.796 772.405 820.393C772.769 817.565 772.583 813.649 771.625 810.966L768.514 810.257C769.952 809.327 771.439 808.498 772.933 807.661C772.765 805.669 772.666 803.994 771.8 802.172C769.456 799.553 765.206 798.721 761.935 797.681C759.062 797.289 755.48 795.518 752.68 794.547L752.093 794.253L751.555 793.447C753.391 792.874 754.405 793.259 756.192 793.86C761.204 797.352 771.438 798.637 777.373 800.062C778.492 798.528 778.25 790.551 778.413 788.139L780.143 788.237C784.288 784.934 806.972 777.613 813.184 775.172Q841.523 764.703 869.982 754.566C886.07 748.937 902.425 743.703 918.237 737.337C935.032 732.281 951.551 725.085 968.083 719.134C1017.15 701.473 1065.85 682.633 1115.06 665.437C1121.38 663.23 1151.42 654.879 1154.36 651.233L1154.55 652.6C1180.43 643.425 1205.99 633.406 1231.93 624.39C1236.39 622.838 1261.59 615.436 1263.31 614.146C1263.7 613.857 1263.92 613.401 1264.23 613.029Z"/>
	<path fill="#562706" d="M840.526 824.707C849.737 822.699 858.99 820.164 867.848 816.93C880.619 812.267 933.179 788.935 941.422 789.642C928.219 796.577 913.329 801.506 899.448 806.98L821.594 838.258C810.446 842.68 799.421 847.285 788.342 851.87C783.866 853.722 778.978 855.128 774.676 857.295L775.045 853.259C778.003 848.381 785.582 846.73 790.688 844.916C806.703 838.851 824.515 829.097 840.526 824.707Z"/>
	<path fill="#6A370D" d="M1153.97 663.239L1154.65 665.408L1153.39 667.506C1155.36 672.526 1154.42 680.66 1153.86 685.963L1152.56 687.778C1153.67 690.429 1154.46 692.694 1153.53 695.588C1153.46 695.785 1153.36 695.97 1153.28 696.161C1153.6 698.244 1153.82 699.66 1153.15 701.684C1149.38 705.014 1022.32 756.823 1016.4 758.081C1006.99 762.916 946.779 789.194 941.422 789.642C933.179 788.935 880.619 812.267 867.848 816.93C858.99 820.164 849.737 822.699 840.526 824.707C849.201 819.959 859.53 817.291 868.685 813.388C893.691 802.727 918.711 792.515 943.895 782.298C953.015 778.598 962.836 773.09 972.387 770.905C972.896 769.8 972.9 769.608 972.772 768.392L971.226 768.255L971.956 766.254C977.333 762.75 1000.41 752.847 1006.51 752.644C1008.95 752.819 1138.15 701.727 1146.9 697.345L1143.71 696.806C1144.72 693.426 1145.71 690.053 1146.27 686.565C1147.01 681.939 1148.83 670.086 1146 666.193C1146.39 666.173 1147.8 665.982 1148.11 666.189L1153.97 663.239Z"/>
	<path fill="#B66815" d="M1153.97 663.239L1154.65 665.408L1153.39 667.506C1155.36 672.526 1154.42 680.66 1153.86 685.963L1152.56 687.778L1151.33 687.652C1149.54 689.535 1150.5 692.348 1149.66 694.819C1144.67 689.122 1149.52 676.349 1147.59 669.146C1147.88 668.177 1147.97 667.189 1148.11 666.189L1153.97 663.239Z"/>
	<path fill="#441E06" d="M1008.83 716.2C1018.81 711.829 1029.31 708.432 1039.49 704.537C1058 697.462 1076.35 690.16 1094.98 683.386C1114.53 676.274 1133.92 668.316 1153.85 662.303L1153.97 663.239L1148.11 666.189C1147.8 665.982 1146.39 666.173 1146 666.193C1148.83 670.086 1147.01 681.939 1146.27 686.565C1145.71 690.053 1144.72 693.426 1143.71 696.806L1146.9 697.345C1138.15 701.727 1008.95 752.819 1006.51 752.644C1008.14 750.381 1007.89 747.912 1007.94 745.236C1007.7 735.607 1008.44 725.825 1008.83 716.2Z"/>
	<path fill="#562706" d="M1113.77 683.79L1115.43 684.53L1115.92 686.717C1111.73 691.218 1086.21 698.768 1078.89 701.211L1078.46 701.107C1080.76 698.95 1086.27 696.207 1089.28 695.369C1097.66 693.039 1106.23 688.1 1113.77 683.79Z"/>
	<path fill="#0F172A" d="M1070.44 697.276C1071.44 697.116 1072.36 697.215 1073.36 697.297C1069.97 701.121 1018.32 718.833 1011.17 720.136L1009.83 719.417C1010.11 719.03 1010.31 718.563 1010.68 718.256C1012.94 716.376 1025.79 713.446 1029.63 712.181C1043.37 707.654 1056.68 701.694 1070.44 697.276Z"/>
	<defs>
		<linearGradient id="gradient_2" gradientUnits="userSpaceOnUse" x1="1120.3783" y1="696.67358" x2="1146.4141" y2="668.03967">
			<stop offset="0" stop-color="#442405"/>
			<stop offset="1" stop-color="#A45D1A"/>
		</linearGradient>
	</defs>
	<path fill="url(#gradient_2)" d="M1146 666.193C1148.83 670.086 1147.01 681.939 1146.27 686.565C1145.71 690.053 1144.72 693.426 1143.71 696.806C1142.51 697.3 1141.26 697.706 1139.96 697.866C1134.41 698.548 1121.65 699.007 1117.33 695.759C1116.23 691.344 1118.23 686.239 1117.5 681.552C1117.47 681.357 1117.43 681.164 1117.4 680.97C1117.55 680.9 1117.7 680.848 1117.84 680.761C1119.68 679.609 1120.88 676.982 1121.42 674.957L1146 666.193Z"/>
	<defs>
		<linearGradient id="gradient_3" gradientUnits="userSpaceOnUse" x1="1206.3055" y1="717.91595" x2="1264.1353" y2="594.21332">
			<stop offset="0" stop-color="#224571"/>
			<stop offset="1" stop-color="#3B5D8B"/>
		</linearGradient>
	</defs>
	<path fill="url(#gradient_3)" d="M1264.23 613.029C1273.32 614.261 1331.04 622.42 1334.7 624.824C1322.35 630.279 1309.53 634.5 1296.94 639.373L1226.49 667.169L1178.4 686.626C1170.75 689.745 1161.35 694.84 1153.28 696.161C1153.36 695.97 1153.46 695.785 1153.53 695.588C1154.46 692.694 1153.67 690.429 1152.56 687.778L1153.86 685.963C1154.42 680.66 1155.36 672.526 1153.39 667.506L1154.65 665.408L1153.97 663.239L1153.85 662.303C1155.39 659.054 1154.94 656.035 1154.55 652.6C1180.43 643.425 1205.99 633.406 1231.93 624.39C1236.39 622.838 1261.59 615.436 1263.31 614.146C1263.7 613.857 1263.92 613.401 1264.23 613.029Z"/>
	<path fill="#B66815" d="M1154.36 651.233L1154.55 652.6C1154.94 656.035 1155.39 659.054 1153.85 662.303C1133.92 668.316 1114.53 676.274 1094.98 683.386C1076.35 690.16 1058 697.462 1039.49 704.537C1029.31 708.432 1018.81 711.829 1008.83 716.2C1008.44 725.825 1007.7 735.607 1007.94 745.236C1007.89 747.912 1008.14 750.381 1006.51 752.644C1000.41 752.847 977.333 762.75 971.956 766.254L971.226 768.255L972.772 768.392C972.9 769.608 972.896 769.8 972.387 770.905C962.836 773.09 953.015 778.598 943.895 782.298C918.711 792.515 893.691 802.727 868.685 813.388C859.53 817.291 849.201 819.959 840.526 824.707C824.515 829.097 806.703 838.851 790.688 844.916C785.582 846.73 778.003 848.381 775.045 853.259L774.676 857.295L771.83 857.262C773.277 854.025 772.398 849.611 773.945 845.822C778.482 846.657 783.734 844.775 787.918 843.128C786.595 841.931 787.018 841.137 786.091 839.682C782.177 840.961 776.992 843.182 772.842 842.257L771.842 840.649L772.425 839.1C771.717 837.951 771.181 836.59 770.6 835.365L770.031 835.741L769.443 839.558L769.627 833.223C770.556 831.668 770.469 828.814 770.666 826.98C771.736 826.492 771.72 826.213 772.327 825.254C772.072 823.249 772.035 823.18 770.576 821.781C770.995 821.257 771.85 820.796 772.405 820.393C772.769 817.565 772.583 813.649 771.625 810.966L768.514 810.257C769.952 809.327 771.439 808.498 772.933 807.661C772.765 805.669 772.666 803.994 771.8 802.172C769.456 799.553 765.206 798.721 761.935 797.681C759.062 797.289 755.48 795.518 752.68 794.547L752.093 794.253L751.555 793.447C753.391 792.874 754.405 793.259 756.192 793.86C761.204 797.352 771.438 798.637 777.373 800.062C778.492 798.528 778.25 790.551 778.413 788.139L780.143 788.237C784.288 784.934 806.972 777.613 813.184 775.172Q841.523 764.703 869.982 754.566C886.07 748.937 902.425 743.703 918.237 737.337C935.032 732.281 951.551 725.085 968.083 719.134C1017.15 701.473 1065.85 682.633 1115.06 665.437C1121.38 663.23 1151.42 654.879 1154.36 651.233Z"/>
	<defs>
		<linearGradient id="gradient_4" gradientUnits="userSpaceOnUse" x1="979.9718" y1="760.52026" x2="969.98718" y2="739.00757">
			<stop offset="0" stop-color="#7E4817"/>
			<stop offset="1" stop-color="#A65F1F"/>
		</linearGradient>
	</defs>
	<path fill="url(#gradient_4)" d="M973.771 740.681C976.823 736.316 977.552 733.934 978.424 728.642C978.53 734.717 980.201 750.911 977.884 755.867L977.46 755.781L978.216 756.672L979.265 756.345C979.462 757.603 979.569 758.738 979.565 760.02C981.235 760.433 984.133 759.89 985.641 758.996C986.184 758.673 986.634 758.208 987.091 757.78C988.009 756.922 988.923 756.067 989.822 755.188L990.513 755.593L991.362 753.956L990.949 754.167L990.69 755.045L991.344 753.951C992.891 754.913 993.409 754.838 995.213 754.376C997.444 753.805 1005.81 750.277 1006.84 748.461C1007.41 747.462 1007.69 746.347 1007.94 745.236C1007.89 747.912 1008.14 750.381 1006.51 752.644C1000.41 752.847 977.333 762.75 971.956 766.254L972.317 763.752L970.59 763.647C969.474 761.268 970.476 757.071 970.511 754.295L970.599 750.368C972.453 747.502 971.042 744.225 973.392 741.392L973.771 740.681Z"/>
	<path fill="#6A370D" d="M973.392 741.392C973.536 748.708 974.312 756.628 972.317 763.752L970.59 763.647C969.474 761.268 970.476 757.071 970.511 754.295L970.599 750.368C972.453 747.502 971.042 744.225 973.392 741.392Z"/>
	<path fill="#441E06" d="M970.392 730.788L972.889 730.525C974.666 733.358 973.932 737.448 973.771 740.681L973.392 741.392C971.042 744.225 972.453 747.502 970.599 750.368L970.511 754.295C970.476 757.071 969.474 761.268 970.59 763.647L972.317 763.752L971.956 766.254L971.226 768.255L972.772 768.392C972.9 769.608 972.896 769.8 972.387 770.905C962.836 773.09 953.015 778.598 943.895 782.298C918.711 792.515 893.691 802.727 868.685 813.388C859.53 817.291 849.201 819.959 840.526 824.707C824.515 829.097 806.703 838.851 790.688 844.916C785.582 846.73 778.003 848.381 775.045 853.259L774.676 857.295L771.83 857.262C773.277 854.025 772.398 849.611 773.945 845.822C778.482 846.657 783.734 844.775 787.918 843.128C786.595 841.931 787.018 841.137 786.091 839.682L788.258 838.395L785.372 837.259L784.562 836.742C784.917 836.266 785.176 836.02 785.755 835.843C793.098 833.604 800.13 830.768 807.391 828.317C809.485 828.126 811.046 827.845 812.961 828.83C815.482 826.84 816.127 825.176 816.639 822.046C815.561 817.12 816.139 811.244 816.072 806.158L816.471 800.081L816.668 795.167L816.434 788.639C819.7 788.24 823.156 786.695 826.247 785.584C840.451 779.547 855.419 775.189 869.841 769.66C892.154 761.104 914.086 751.604 936.529 743.371L941.51 741.394C950.311 739.433 962.093 734.625 970.392 730.788Z"/>
	<path d="M936.055 760.082C938.332 760.4 940.485 760.431 942.279 762.005C941.345 763.966 939.521 764.513 937.55 765.345L936.357 765.369L936.148 765.208C935.91 764.269 936.097 764.43 935.576 763.879C934.543 762.785 934.19 762.372 933.794 760.891L936.055 760.082Z"/>
	<path fill="#0F172A" d="M932.429 747.774C932.387 751.459 931.638 755.839 933.06 759.261C934.059 759.528 935.063 759.785 936.055 760.082L933.794 760.891C934.19 762.372 934.543 762.785 935.576 763.879C936.097 764.43 935.91 764.269 936.148 765.208L936.357 765.369C925.301 771.376 912.465 775.653 900.71 780.181C902.412 778.219 906.516 776.882 908.91 775.862Q916.6 772.843 924.143 769.472C926.634 768.338 932.29 766.18 933.215 763.7C930.07 763.763 927.131 765.154 924.228 766.254C922.3 767.341 920.922 767.907 918.702 768.054L922.786 764.954L922.335 763.678C921.685 764.096 921.607 765.378 921.415 766.134L921.509 764.939C920.38 765.188 919.244 765.184 918.092 765.235L918.235 764.33C921.131 761.883 923.428 759.912 927.157 758.942L929.751 757.695C929.597 756.331 929.447 754.973 929.35 753.603L926.6 754.309L925.994 753.527C926.952 752.225 928.413 751.874 929.866 751.322L930.201 750.862C927.479 750.196 923.653 753.246 921.415 752.083C924.835 750.137 928.712 749.027 932.429 747.774Z"/>
	<path fill="#562706" d="M970.392 730.788L972.889 730.525C974.666 733.358 973.932 737.448 973.771 740.681L973.392 741.392C971.042 744.225 972.453 747.502 970.599 750.368L970.511 754.295C968.06 755.745 967.246 755.53 964.504 755.344L964.808 756.2L967.981 757.591L967.297 758.024C957.007 757.815 945.948 752.664 936.728 748.426C939.894 747.043 942.617 748.338 945.281 747.234L945.089 745.903C945.781 745.396 947.291 745.246 948.17 744.932L947.602 744.844L948.819 743.79L948.26 742.812L948.131 744.119C946.163 741.557 944.623 741.925 941.51 741.394C950.311 739.433 962.093 734.625 970.392 730.788Z"/>
	<path fill="#6F320A" d="M970.392 730.788L972.889 730.525C974.666 733.358 973.932 737.448 973.771 740.681L973.392 741.392C971.042 744.225 972.453 747.502 970.599 750.368Q970.615 740.577 970.392 730.788Z"/>
	<path fill="#6F320A" d="M971.226 768.255L972.772 768.392C972.9 769.608 972.896 769.8 972.387 770.905C962.836 773.09 953.015 778.598 943.895 782.298C918.711 792.515 893.691 802.727 868.685 813.388C859.53 817.291 849.201 819.959 840.526 824.707C824.515 829.097 806.703 838.851 790.688 844.916C785.582 846.73 778.003 848.381 775.045 853.259L774.676 857.295L771.83 857.262C773.277 854.025 772.398 849.611 773.945 845.822C778.482 846.657 783.734 844.775 787.918 843.128C786.595 841.931 787.018 841.137 786.091 839.682L788.258 838.395L785.372 837.259L784.562 836.742C784.917 836.266 785.176 836.02 785.755 835.843C793.098 833.604 800.13 830.768 807.391 828.317C809.485 828.126 811.046 827.845 812.961 828.83L812.143 829.89C815.819 830.508 820.429 828.011 824.449 827.859C836.931 821.033 856.289 814.734 870.174 809.314Q906.174 795.16 941.797 780.081L971.226 768.255Z"/>
	<path fill="#6A370D" d="M812.961 828.83L812.143 829.89C815.819 830.508 820.429 828.011 824.449 827.859C818.199 831.531 795.509 840.105 788.996 839.87C788.746 839.412 788.388 838.9 788.258 838.395L785.372 837.259L784.562 836.742C784.917 836.266 785.176 836.02 785.755 835.843C793.098 833.604 800.13 830.768 807.391 828.317C809.485 828.126 811.046 827.845 812.961 828.83Z"/>
	<path fill="#37537E" d="M1397.01 635.538C1415.54 637.681 1434.2 642.113 1452.55 645.499C1459.12 646.711 1468.24 647.037 1474.23 649.553C1464.97 650.134 1302.36 732.337 1279.84 743.371C1256.67 754.728 1233.04 765.283 1210.09 777.063L1155.98 804.621C1148.94 808.198 1137.92 815.366 1130.73 816.817C1129.93 816.449 1129.35 816.301 1128.46 816.387C1110.96 818.064 1093.48 820.875 1076.01 822.878C1044.74 826.46 1013.39 829.521 982.168 833.348C962.584 835.749 941.945 839.995 922.324 840.377C928.458 835.412 939.347 832.148 946.695 829.035Q976.581 816.268 1006.82 804.365L1116.55 759.293C1152.34 744.341 1187.38 727.637 1222.98 712.219L1344.23 659.024C1361.59 651.483 1379.4 644.806 1396.61 636.995L1397.01 635.538Z"/>
	<path fill="white" d="M1026.56 0L1112.91 0L1534.69 0C1535.35 1.02752 1535.76 2.01625 1535.87 3.24968C1537 16.6861 1536 31.1058 1536 44.6382L1536.02 128.623L1536.02 362.968L1536.01 424.336C1536.01 431.91 1537.2 441.699 1535.76 448.993C1535.58 449.909 1535.18 450.827 1534.69 451.621C1536.1 454.239 1536.54 457.142 1535.66 460.031C1535.44 460.748 1535.11 461.38 1534.73 462.021C1535.52 464.061 1536.3 465.197 1535.46 467.354C1535.21 468.002 1535.02 468.297 1534.69 468.866C1535.14 470.433 1535.13 471.033 1534.68 472.599C1536.3 475.624 1536.46 478.711 1535.46 481.988C1535.26 482.647 1535.27 482.585 1535.04 483.112C1535.34 484.601 1535.31 485.352 1534.94 486.824C1536.05 489.672 1536.53 491.637 1535.31 494.543C1535.12 494.995 1534.9 495.438 1534.69 495.88C1535.42 497.525 1536.2 498.535 1535.47 500.347C1535.23 500.95 1535.01 501.304 1534.7 501.85C1535.81 504.187 1536.58 506.14 1535.65 508.695C1535.38 509.436 1535.04 510.147 1534.7 510.855C1535.52 512.881 1536.3 513.954 1535.46 516.116C1535.21 516.763 1535.02 517.059 1534.69 517.627C1536.12 520.282 1536.52 523.162 1535.65 526.091C1535.43 526.841 1535.1 527.511 1534.72 528.19C1535.66 530.445 1536.47 531.912 1535.41 534.343C1535.23 534.764 1534.92 535.29 1534.71 535.669C1536.24 538.446 1536.48 541.718 1535.66 544.779C1535.44 545.581 1535.13 546.232 1534.72 546.946C1536.01 549.582 1536.57 551.877 1535.55 554.73C1535.31 555.401 1535.01 556.011 1534.69 556.647C1536.4 559.697 1536.56 564.138 1535.66 567.495C1535.47 568.179 1535.17 568.731 1534.83 569.346C1536.34 572.78 1536.6 576.683 1535.13 580.206C1535.07 580.347 1535 580.479 1534.93 580.616C1536.44 583.972 1536.84 591.452 1535.35 594.884C1535.25 595.109 1535.14 595.326 1535.03 595.547C1536.23 598.86 1536.77 603.903 1535.07 607.156C1534.96 607.355 1534.85 607.548 1534.73 607.743C1536.78 611.005 1536.54 620.378 1535.8 624.131C1535.63 624.958 1535.37 625.548 1535.02 626.309C1536.36 629.727 1536.78 636.01 1535.39 639.444C1535.17 639.987 1535.03 640.168 1534.71 640.709C1536.85 644.133 1536.53 653.982 1535.8 657.893C1535.64 658.73 1535.38 659.317 1535.03 660.085C1531.22 657.93 1482.07 650.468 1474.23 649.553C1468.24 647.037 1459.12 646.711 1452.55 645.499C1434.2 642.113 1415.54 637.681 1397.01 635.538C1390.67 633.353 1382.62 632.839 1375.92 631.668C1362.34 629.293 1348.41 626.096 1334.7 624.824C1331.04 622.42 1273.32 614.261 1264.23 613.029C1258.54 610.502 1210.73 603.097 1201.98 602.291C1198.83 600.225 1152.18 593.335 1146.59 593.247C1147.46 587.641 1147.57 580.994 1147.22 575.326C1147.79 571.517 1147.8 567.226 1147.34 563.396C1148.07 560.78 1147.86 557.804 1148.01 555.1C1148.13 552.893 1147.79 550.424 1149.45 548.921C1147.05 546.56 1149.21 541.276 1147.74 537.932C1149.53 534.563 1149.63 528.462 1148.56 524.838C1148.68 524.609 1148.8 524.383 1148.91 524.152C1150.04 521.723 1149.56 519.983 1148.64 517.573C1150.35 514.335 1150.37 508.824 1149.34 505.371C1149.4 505.246 1149.47 505.124 1149.53 504.996C1150.61 502.508 1150.17 501.38 1149.35 498.923C1150.19 496.457 1150.24 496.133 1149.57 493.619C1152.5 487.381 1151.6 466.767 1151.76 459.057C1152.38 455.692 1152.78 451.11 1151.58 447.862L1152.05 445.815L1151.04 444.221C1151.92 443.171 1152.31 441.873 1152.42 440.525C1155.24 404.523 1155.2 368.101 1156.94 332.018L1159.46 271.044C1160.01 258.876 1161.42 246.102 1160.76 233.96C1158.88 232.655 1156.3 232.999 1154.09 232.979Q1107.53 233.129 1061 234.644C1045.89 235.166 1030.84 235.399 1015.72 235.482C1008.69 235.521 1000.79 236.189 993.882 235.043L993.6 234.468C995.494 233.973 998.262 234.678 1000.26 234.715C1008.64 234.87 1019.03 235.979 1027.08 234.114L1026.99 232.4C1026.96 232.406 1026.94 232.423 1026.91 232.418C1014.4 230.19 1000.78 234.789 988.559 230.634L987.621 230.308C968.757 229.386 949.781 229.791 930.894 229.345C913.259 228.928 895.461 227.633 877.837 228.004C874.443 227.476 870.496 228.201 868.017 225.591C856.108 224.962 844.026 224.832 832.1 224.882C814.668 223.136 796.784 225.658 779.403 223.213C760.769 213.187 742.163 202.089 724.332 190.684C742.899 177.625 763.032 166.411 782.189 154.192L952.054 47.0488C975.886 32.1067 1000.91 18.2713 1024.14 2.46397C1025.31 1.66893 1025.92 1.25417 1026.56 0Z"/>
	<path fill="#FCCE9E" d="M987.621 230.308C1015.02 230.318 1042.47 229.97 1069.87 230.371Q1099.82 231.085 1129.75 232.174C1135.21 232.32 1149.63 231.174 1154.09 232.979Q1107.53 233.129 1061 234.644C1045.89 235.166 1030.84 235.399 1015.72 235.482C1008.69 235.521 1000.79 236.189 993.882 235.043L993.6 234.468C995.494 233.973 998.262 234.678 1000.26 234.715C1008.64 234.87 1019.03 235.979 1027.08 234.114L1026.99 232.4C1026.96 232.406 1026.94 232.423 1026.91 232.418C1014.4 230.19 1000.78 234.789 988.559 230.634L987.621 230.308Z"/>
	<path fill="#000007" d="M1534.69 451.621C1536.1 454.239 1536.54 457.142 1535.66 460.031C1535.44 460.748 1535.11 461.38 1534.73 462.021C1535.52 464.061 1536.3 465.197 1535.46 467.354C1535.21 468.002 1535.02 468.297 1534.69 468.866C1535.14 470.433 1535.13 471.033 1534.68 472.599C1527.84 471.199 1520.22 471.136 1513.24 470.552C1495.84 469.096 1478.81 467.758 1461.32 467.914C1451.8 468.369 1442.01 469.765 1432.53 469.743C1425.55 469.732 1418.89 472.721 1411.96 472.738C1394.35 472.369 1377.18 474.552 1359.67 474.988C1350.54 474.976 1340.18 477.039 1331.14 478.524L1288.21 480.992C1277.07 480.559 1264.93 484.012 1253.65 484.748C1239.65 484.618 1225.73 486.654 1211.76 486.982C1200.97 486.519 1186.18 488.599 1175.58 491.246Q1162.55 492.195 1149.57 493.619C1152.5 487.381 1151.6 466.767 1151.76 459.057C1157.12 461.101 1172.76 473.299 1177.35 477.617L1412.4 460.773Q1452.57 458.19 1492.7 454.982C1506.49 453.983 1521.11 453.984 1534.69 451.621Z"/>
	<path fill="#0F172A" d="M1502.72 463.732C1513.39 463.692 1523.97 461.833 1534.73 462.021C1535.52 464.061 1536.3 465.197 1535.46 467.354C1535.21 468.002 1535.02 468.297 1534.69 468.866C1535.14 470.433 1535.13 471.033 1534.68 472.599C1527.84 471.199 1520.22 471.136 1513.24 470.552C1495.84 469.096 1478.81 467.758 1461.32 467.914C1467.1 466.413 1474.3 467.288 1480.36 466.698C1487.71 465.984 1495.36 463.472 1502.72 463.732Z"/>
	<path fill="#37537E" d="M1502.72 463.732C1513.39 463.692 1523.97 461.833 1534.73 462.021C1535.52 464.061 1536.3 465.197 1535.46 467.354C1535.21 468.002 1535.02 468.297 1534.69 468.866C1526.91 467.559 1507.44 467.827 1501.68 464.818L1502.72 463.732Z"/>
	<path fill="#000007" d="M1026.56 0L1112.91 0C1112.68 0.448876 1112.54 0.949072 1112.24 1.34663C1110.71 3.32636 997.225 73.0585 983.632 81.5986L842.617 171.241C831.831 178.092 820.5 184.236 809.982 191.484C821.028 197.78 861.227 218.391 868.017 225.591C856.108 224.962 844.026 224.832 832.1 224.882C814.668 223.136 796.784 225.658 779.403 223.213C760.769 213.187 742.163 202.089 724.332 190.684C742.899 177.625 763.032 166.411 782.189 154.192L952.054 47.0488C975.886 32.1067 1000.91 18.2713 1024.14 2.46397C1025.31 1.66893 1025.92 1.25417 1026.56 0Z"/>
	<path fill="white" d="M1461.32 467.914C1478.81 467.758 1495.84 469.096 1513.24 470.552C1520.22 471.136 1527.84 471.199 1534.68 472.599C1536.3 475.624 1536.46 478.711 1535.46 481.988C1535.26 482.647 1535.27 482.585 1535.04 483.112C1535.34 484.601 1535.31 485.352 1534.94 486.824C1536.05 489.672 1536.53 491.637 1535.31 494.543C1535.12 494.995 1534.9 495.438 1534.69 495.88C1535.42 497.525 1536.2 498.535 1535.47 500.347C1535.23 500.95 1535.01 501.304 1534.7 501.85C1535.81 504.187 1536.58 506.14 1535.65 508.695C1535.38 509.436 1535.04 510.147 1534.7 510.855C1535.52 512.881 1536.3 513.954 1535.46 516.116C1535.21 516.763 1535.02 517.059 1534.69 517.627C1536.12 520.282 1536.52 523.162 1535.65 526.091C1535.43 526.841 1535.1 527.511 1534.72 528.19C1535.66 530.445 1536.47 531.912 1535.41 534.343C1535.23 534.764 1534.92 535.29 1534.71 535.669C1536.24 538.446 1536.48 541.718 1535.66 544.779C1535.44 545.581 1535.13 546.232 1534.72 546.946C1536.01 549.582 1536.57 551.877 1535.55 554.73C1535.31 555.401 1535.01 556.011 1534.69 556.647C1536.4 559.697 1536.56 564.138 1535.66 567.495C1535.47 568.179 1535.17 568.731 1534.83 569.346C1536.34 572.78 1536.6 576.683 1535.13 580.206C1535.07 580.347 1535 580.479 1534.93 580.616C1536.44 583.972 1536.84 591.452 1535.35 594.884C1535.25 595.109 1535.14 595.326 1535.03 595.547C1536.23 598.86 1536.77 603.903 1535.07 607.156C1534.96 607.355 1534.85 607.548 1534.73 607.743C1536.78 611.005 1536.54 620.378 1535.8 624.131C1535.63 624.958 1535.37 625.548 1535.02 626.309C1536.36 629.727 1536.78 636.01 1535.39 639.444C1535.17 639.987 1535.03 640.168 1534.71 640.709C1536.85 644.133 1536.53 653.982 1535.8 657.893C1535.64 658.73 1535.38 659.317 1535.03 660.085C1531.22 657.93 1482.07 650.468 1474.23 649.553C1468.24 647.037 1459.12 646.711 1452.55 645.499C1434.2 642.113 1415.54 637.681 1397.01 635.538C1390.67 633.353 1382.62 632.839 1375.92 631.668C1362.34 629.293 1348.41 626.096 1334.7 624.824C1331.04 622.42 1273.32 614.261 1264.23 613.029C1258.54 610.502 1210.73 603.097 1201.98 602.291C1198.83 600.225 1152.18 593.335 1146.59 593.247C1147.46 587.641 1147.57 580.994 1147.22 575.326C1147.79 571.517 1147.8 567.226 1147.34 563.396C1148.07 560.78 1147.86 557.804 1148.01 555.1C1148.13 552.893 1147.79 550.424 1149.45 548.921C1147.05 546.56 1149.21 541.276 1147.74 537.932C1149.53 534.563 1149.63 528.462 1148.56 524.838C1148.68 524.609 1148.8 524.383 1148.91 524.152C1150.04 521.723 1149.56 519.983 1148.64 517.573C1150.35 514.335 1150.37 508.824 1149.34 505.371C1149.4 505.246 1149.47 505.124 1149.53 504.996C1150.61 502.508 1150.17 501.38 1149.35 498.923C1150.19 496.457 1150.24 496.133 1149.57 493.619Q1162.55 492.195 1175.58 491.246C1186.18 488.599 1200.97 486.519 1211.76 486.982C1225.73 486.654 1239.65 484.618 1253.65 484.748C1264.93 484.012 1277.07 480.559 1288.21 480.992L1331.14 478.524C1340.18 477.039 1350.54 474.976 1359.67 474.988C1377.18 474.552 1394.35 472.369 1411.96 472.738C1418.89 472.721 1425.55 469.732 1432.53 469.743C1442.01 469.765 1451.8 468.369 1461.32 467.914Z"/>
	<path fill="#0F172A" d="M1147.74 537.932C1154.66 538.597 1161.51 539.687 1168.38 540.758C1209.47 546.249 1250.48 553.578 1291.5 559.673L1472.52 586.198C1479.46 587.203 1531.81 593.933 1535.03 595.547C1536.23 598.86 1536.77 603.903 1535.07 607.156C1534.96 607.355 1534.85 607.548 1534.73 607.743C1516.86 606.242 1498.74 602.318 1480.97 599.581L1383.04 584.625L1149.45 548.921C1147.05 546.56 1149.21 541.276 1147.74 537.932Z"/>
	<path fill="white" d="M1206.64 533.442C1226.73 534.074 1247.54 539.367 1267.52 542.241L1405.26 561.958L1499.3 575.133C1508.12 576.386 1527.73 577.97 1534.93 580.616C1536.44 583.972 1536.84 591.452 1535.35 594.884C1535.25 595.109 1535.14 595.326 1535.03 595.547C1531.81 593.933 1479.46 587.203 1472.52 586.198L1291.5 559.673C1250.48 553.578 1209.47 546.249 1168.38 540.758C1179.42 535.758 1195.78 537.902 1206.64 533.442Z"/>
	<path fill="#0F172A" d="M1149.35 498.923L1265.51 512.386C1275.65 513.614 1296.82 514.735 1305.11 517.478C1362.66 524.703 1420.08 533.221 1477.69 540.014C1496.58 542.241 1515.77 545.96 1534.72 546.946C1536.01 549.582 1536.57 551.877 1535.55 554.73C1535.31 555.401 1535.01 556.011 1534.69 556.647C1536.4 559.697 1536.56 564.138 1535.66 567.495C1535.47 568.179 1535.17 568.731 1534.83 569.346C1536.34 572.78 1536.6 576.683 1535.13 580.206C1535.07 580.347 1535 580.479 1534.93 580.616C1527.73 577.97 1508.12 576.386 1499.3 575.133L1405.26 561.958L1267.52 542.241C1247.54 539.367 1226.73 534.074 1206.64 533.442C1195.78 537.902 1179.42 535.758 1168.38 540.758C1161.51 539.687 1154.66 538.597 1147.74 537.932C1149.53 534.563 1149.63 528.462 1148.56 524.838C1148.68 524.609 1148.8 524.383 1148.91 524.152C1150.04 521.723 1149.56 519.983 1148.64 517.573C1150.35 514.335 1150.37 508.824 1149.34 505.371C1149.4 505.246 1149.47 505.124 1149.53 504.996C1150.61 502.508 1150.17 501.38 1149.35 498.923Z"/>
	<path fill="#37537E" d="M1149.34 505.371C1160.56 506.389 1275.66 519.272 1278.43 522.026C1271.24 522.555 1246.33 525.452 1241 528.805Q1211.46 524.736 1181.86 521.067C1170.88 519.724 1159.68 517.903 1148.64 517.573C1150.35 514.335 1150.37 508.824 1149.34 505.371Z"/>
	<path fill="white" d="M1278.43 522.026L1534.69 556.647C1536.4 559.697 1536.56 564.138 1535.66 567.495C1535.47 568.179 1535.17 568.731 1534.83 569.346C1527.34 567.244 1518.06 567.017 1510.26 566.038Q1482.99 562.731 1455.77 558.993L1302.61 537.745C1282.06 534.9 1261.59 531.372 1241 528.805C1246.33 525.452 1271.24 522.555 1278.43 522.026Z"/>
	<path fill="#0F172A" d="M1148.64 517.573C1159.68 517.903 1170.88 519.724 1181.86 521.067Q1211.46 524.736 1241 528.805C1261.59 531.372 1282.06 534.9 1302.61 537.745L1455.77 558.993Q1482.99 562.731 1510.26 566.038C1518.06 567.017 1527.34 567.244 1534.83 569.346C1536.34 572.78 1536.6 576.683 1535.13 580.206C1535.07 580.347 1535 580.479 1534.93 580.616C1527.73 577.97 1508.12 576.386 1499.3 575.133L1405.26 561.958L1267.52 542.241C1247.54 539.367 1226.73 534.074 1206.64 533.442C1195.78 537.902 1179.42 535.758 1168.38 540.758C1161.51 539.687 1154.66 538.597 1147.74 537.932C1149.53 534.563 1149.63 528.462 1148.56 524.838C1148.68 524.609 1148.8 524.383 1148.91 524.152C1150.04 521.723 1149.56 519.983 1148.64 517.573Z"/>
	<path fill="#37537E" d="M1148.56 524.838C1155.65 525.859 1203.77 531.383 1206.64 533.442C1195.78 537.902 1179.42 535.758 1168.38 540.758C1161.51 539.687 1154.66 538.597 1147.74 537.932C1149.53 534.563 1149.63 528.462 1148.56 524.838Z"/>
	<path fill="white" d="M1147.34 563.396L1333.68 593.323C1358.39 597.225 1529.39 622.872 1535.02 626.309C1536.36 629.727 1536.78 636.01 1535.39 639.444C1535.17 639.987 1535.03 640.168 1534.71 640.709C1536.85 644.133 1536.53 653.982 1535.8 657.893C1535.64 658.73 1535.38 659.317 1535.03 660.085C1531.22 657.93 1482.07 650.468 1474.23 649.553C1468.24 647.037 1459.12 646.711 1452.55 645.499C1434.2 642.113 1415.54 637.681 1397.01 635.538C1390.67 633.353 1382.62 632.839 1375.92 631.668C1362.34 629.293 1348.41 626.096 1334.7 624.824C1331.04 622.42 1273.32 614.261 1264.23 613.029C1258.54 610.502 1210.73 603.097 1201.98 602.291C1198.83 600.225 1152.18 593.335 1146.59 593.247C1147.46 587.641 1147.57 580.994 1147.22 575.326C1147.79 571.517 1147.8 567.226 1147.34 563.396Z"/>
	<path fill="#0F172A" d="M1147.34 563.396L1333.68 593.323C1358.39 597.225 1529.39 622.872 1535.02 626.309C1536.36 629.727 1536.78 636.01 1535.39 639.444C1535.17 639.987 1535.03 640.168 1534.71 640.709C1520.22 637.035 1504.75 635.338 1490.01 632.779Q1443.53 624.484 1396.9 617.111L1147.22 575.326C1147.79 571.517 1147.8 567.226 1147.34 563.396Z"/>
	<path fill="#0F172A" d="M1461.32 467.914C1478.81 467.758 1495.84 469.096 1513.24 470.552C1520.22 471.136 1527.84 471.199 1534.68 472.599C1536.3 475.624 1536.46 478.711 1535.46 481.988C1535.26 482.647 1535.27 482.585 1535.04 483.112C1535.34 484.601 1535.31 485.352 1534.94 486.824C1536.05 489.672 1536.53 491.637 1535.31 494.543C1535.12 494.995 1534.9 495.438 1534.69 495.88C1535.42 497.525 1536.2 498.535 1535.47 500.347C1535.23 500.95 1535.01 501.304 1534.7 501.85C1535.81 504.187 1536.58 506.14 1535.65 508.695C1535.38 509.436 1535.04 510.147 1534.7 510.855C1535.52 512.881 1536.3 513.954 1535.46 516.116C1535.21 516.763 1535.02 517.059 1534.69 517.627C1536.12 520.282 1536.52 523.162 1535.65 526.091C1535.43 526.841 1535.1 527.511 1534.72 528.19C1535.66 530.445 1536.47 531.912 1535.41 534.343C1535.23 534.764 1534.92 535.29 1534.71 535.669C1536.24 538.446 1536.48 541.718 1535.66 544.779C1535.44 545.581 1535.13 546.232 1534.72 546.946C1515.77 545.96 1496.58 542.241 1477.69 540.014C1420.08 533.221 1362.66 524.703 1305.11 517.478C1296.82 514.735 1275.65 513.614 1265.51 512.386L1149.35 498.923C1150.19 496.457 1150.24 496.133 1149.57 493.619Q1162.55 492.195 1175.58 491.246C1186.18 488.599 1200.97 486.519 1211.76 486.982C1225.73 486.654 1239.65 484.618 1253.65 484.748C1264.93 484.012 1277.07 480.559 1288.21 480.992L1331.14 478.524C1340.18 477.039 1350.54 474.976 1359.67 474.988C1377.18 474.552 1394.35 472.369 1411.96 472.738C1418.89 472.721 1425.55 469.732 1432.53 469.743C1442.01 469.765 1451.8 468.369 1461.32 467.914Z"/>
	<path fill="white" d="M1405.28 501.984C1424.3 502.788 1443.5 506.713 1462.43 508.9C1485.9 511.612 1511.74 512.831 1534.69 517.627C1536.12 520.282 1536.52 523.162 1535.65 526.091C1535.43 526.841 1535.1 527.511 1534.72 528.19L1407.97 512.398C1393.41 510.661 1378.79 508.075 1364.18 506.981C1375.25 503.599 1396.03 505.969 1405.28 501.984Z"/>
	<path fill="#37537E" d="M1211.76 486.982C1225.73 486.654 1239.65 484.618 1253.65 484.748C1296.81 488.772 1340.37 492.429 1383.29 498.477C1389.9 499.409 1399.25 499.561 1405.28 501.984C1396.03 505.969 1375.25 503.599 1364.18 506.981C1355.7 503.364 1331.49 502.623 1320.84 501.446C1284.54 497.436 1248.09 493.87 1211.87 489.263L1212.07 488.606L1210.04 488.721L1210.05 488.33L1211.76 486.982Z"/>
	<path fill="#37537E" d="M1175.58 491.246C1204.24 494.043 1232.84 497.796 1261.46 500.957C1274.01 502.343 1328.99 506.867 1337.81 510.756C1331.7 512.144 1308.79 514.906 1305.11 517.478C1296.82 514.735 1275.65 513.614 1265.51 512.386L1149.35 498.923C1150.19 496.457 1150.24 496.133 1149.57 493.619Q1162.55 492.195 1175.58 491.246Z"/>
	<path fill="white" d="M1337.81 510.756C1355.45 512.235 1373.06 515.129 1390.62 517.387Q1439.81 523.248 1488.9 529.911C1504.03 531.841 1519.53 534.583 1534.71 535.669C1536.24 538.446 1536.48 541.718 1535.66 544.779C1535.44 545.581 1535.13 546.232 1534.72 546.946C1515.77 545.96 1496.58 542.241 1477.69 540.014C1420.08 533.221 1362.66 524.703 1305.11 517.478C1308.79 514.906 1331.7 512.144 1337.81 510.756Z"/>
	<path fill="#0F172A" d="M1461.32 467.914C1478.81 467.758 1495.84 469.096 1513.24 470.552C1520.22 471.136 1527.84 471.199 1534.68 472.599C1536.3 475.624 1536.46 478.711 1535.46 481.988C1535.26 482.647 1535.27 482.585 1535.04 483.112C1535.34 484.601 1535.31 485.352 1534.94 486.824C1536.05 489.672 1536.53 491.637 1535.31 494.543C1535.12 494.995 1534.9 495.438 1534.69 495.88C1535.42 497.525 1536.2 498.535 1535.47 500.347C1535.23 500.95 1535.01 501.304 1534.7 501.85C1535.81 504.187 1536.58 506.14 1535.65 508.695C1535.38 509.436 1535.04 510.147 1534.7 510.855C1535.52 512.881 1536.3 513.954 1535.46 516.116C1535.21 516.763 1535.02 517.059 1534.69 517.627C1511.74 512.831 1485.9 511.612 1462.43 508.9C1443.5 506.713 1424.3 502.788 1405.28 501.984C1399.25 499.561 1389.9 499.409 1383.29 498.477C1340.37 492.429 1296.81 488.772 1253.65 484.748C1264.93 484.012 1277.07 480.559 1288.21 480.992L1331.14 478.524C1340.18 477.039 1350.54 474.976 1359.67 474.988C1377.18 474.552 1394.35 472.369 1411.96 472.738C1418.89 472.721 1425.55 469.732 1432.53 469.743C1442.01 469.765 1451.8 468.369 1461.32 467.914Z"/>
	<path fill="white" d="M1463.67 493.542C1479.53 494.763 1495.33 497.039 1511.13 498.87C1518.53 499.728 1527.7 499.773 1534.7 501.85C1535.81 504.187 1536.58 506.14 1535.65 508.695C1535.38 509.436 1535.04 510.147 1534.7 510.855C1522.95 507.646 1499.68 506.426 1486.22 504.981C1468.11 503.037 1449.98 500.177 1431.84 498.725C1435.67 495.833 1457.34 494.856 1463.67 493.542Z"/>
	<path fill="#37537E" d="M1331.14 478.524C1343.94 479.783 1458.56 490.511 1462.91 492.66C1463.26 492.832 1463.42 493.248 1463.67 493.542C1457.34 494.856 1435.67 495.833 1431.84 498.725C1420.2 495.237 1403.41 494.808 1390.99 493.466Q1355.17 489.294 1319.29 485.699C1312.26 485.035 1293.04 484.119 1287.51 481.976L1288.21 480.992L1331.14 478.524Z"/>
	<path fill="#0F172A" d="M1331.14 478.524C1340.18 477.039 1350.54 474.976 1359.67 474.988L1359.46 475.936C1370.22 478.666 1385.91 478.678 1397.22 479.749C1427.37 482.605 1457.72 485.189 1487.78 488.85L1488.18 489.58L1487.49 490.729L1489.33 490.606C1500.19 486.906 1515.9 486.911 1527.44 486.005C1529.76 486.174 1532.77 486.031 1534.94 486.824C1536.05 489.672 1536.53 491.637 1535.31 494.543C1535.12 494.995 1534.9 495.438 1534.69 495.88C1535.42 497.525 1536.2 498.535 1535.47 500.347C1535.23 500.95 1535.01 501.304 1534.7 501.85C1527.7 499.773 1518.53 499.728 1511.13 498.87C1495.33 497.039 1479.53 494.763 1463.67 493.542C1463.42 493.248 1463.26 492.832 1462.91 492.66C1458.56 490.511 1343.94 479.783 1331.14 478.524Z"/>
	<path fill="white" d="M1527.44 486.005C1529.76 486.174 1532.77 486.031 1534.94 486.824C1536.05 489.672 1536.53 491.637 1535.31 494.543C1535.12 494.995 1534.9 495.438 1534.69 495.88C1519.95 492.94 1504.29 492.055 1489.33 490.606C1500.19 486.906 1515.9 486.911 1527.44 486.005Z"/>
	<path fill="#37537E" d="M1461.32 467.914C1478.81 467.758 1495.84 469.096 1513.24 470.552C1520.22 471.136 1527.84 471.199 1534.68 472.599C1536.3 475.624 1536.46 478.711 1535.46 481.988C1535.26 482.647 1535.27 482.585 1535.04 483.112C1535.34 484.601 1535.31 485.352 1534.94 486.824C1532.77 486.031 1529.76 486.174 1527.44 486.005C1515.9 486.911 1500.19 486.906 1489.33 490.606L1487.49 490.729L1488.18 489.58L1487.78 488.85C1457.72 485.189 1427.37 482.605 1397.22 479.749C1385.91 478.678 1370.22 478.666 1359.46 475.936L1359.67 474.988C1377.18 474.552 1394.35 472.369 1411.96 472.738C1418.89 472.721 1425.55 469.732 1432.53 469.743C1442.01 469.765 1451.8 468.369 1461.32 467.914Z"/>
	<path fill="#0F172A" d="M1411.96 472.738C1418.89 472.721 1425.55 469.732 1432.53 469.743C1436.55 472.078 1444.94 471.914 1449.74 472.387C1463.16 473.71 1522.18 477.181 1531.26 482.102C1532.43 482.737 1533.64 482.787 1534.91 483.054C1534.96 483.064 1535 483.093 1535.04 483.112C1535.34 484.601 1535.31 485.352 1534.94 486.824C1532.77 486.031 1529.76 486.174 1527.44 486.005C1524.54 483.665 1426.9 474.962 1411.96 472.738Z"/>
	<path fill="#37537E" d="M1461.32 467.914C1478.81 467.758 1495.84 469.096 1513.24 470.552C1520.22 471.136 1527.84 471.199 1534.68 472.599C1536.3 475.624 1536.46 478.711 1535.46 481.988C1535.26 482.647 1535.27 482.585 1535.04 483.112C1535 483.093 1534.96 483.064 1534.91 483.054C1533.64 482.787 1532.43 482.737 1531.26 482.102C1522.18 477.181 1463.16 473.71 1449.74 472.387C1444.94 471.914 1436.55 472.078 1432.53 469.743C1442.01 469.765 1451.8 468.369 1461.32 467.914Z"/>
	<path fill="white" d="M0 0L652.536 0L753.531 0L848.229 0L938.376 0L1026.56 0C1025.92 1.25417 1025.31 1.66893 1024.14 2.46397C1000.91 18.2713 975.886 32.1067 952.054 47.0488L782.189 154.192C763.032 166.411 742.899 177.625 724.332 190.684C742.163 202.089 760.769 213.187 779.403 223.213C773.22 224.343 696.862 224.586 693.116 223.411C681.839 224.625 670.383 222.929 659.09 224.18C651.546 223.88 643.95 224.208 636.402 224.365C628.024 223.754 596.354 226.872 591.775 224.056C585.536 227.101 497.396 226.579 480.92 227.302C479.724 227.686 477.007 228.23 476.255 229.115C489.413 229.761 502.638 229.772 515.811 229.786C512.965 231.432 506.534 230.56 503.17 230.54C494.928 230.413 477.397 228.468 470.227 231.383L469.748 232.239L472.322 233.4Q444.518 233.205 416.73 232.22C403.828 231.884 390.907 231.915 378.051 230.639L378.079 232.836C378.012 243.84 377.926 254.838 378.399 265.834C378.742 273.827 379.83 282.24 379.352 290.205C379.415 295.928 380.932 310.388 379.346 314.896C381.324 317.775 383.072 373.715 381.805 379.854C381.767 380.038 381.713 380.219 381.667 380.401Q354.163 365.512 326.403 351.104C317.801 346.609 309.219 341.518 300.363 337.568L247.92 369.934L336.806 416.621C352.318 424.698 367.921 433.766 383.857 440.885L384.169 442.264C384.343 464.713 385.391 487.315 386.368 509.746C386.861 521.054 387.873 532.498 387.69 543.813C387.788 547.644 389.083 557.333 386.547 560.008C379.874 560.674 373.184 561.265 366.521 562.019C357.329 563.478 321.101 566.519 315.488 569.286C309.552 567.684 261.033 574.942 249.758 576.329C239.521 579.595 205.047 579.735 197.735 584.872L200.359 586.031L198.795 586.465C194.929 585.427 190.556 583.053 186.683 582.739C174.645 581.762 158.837 585.281 146.622 586.811C136.709 588.052 126.754 588.786 116.83 589.893C106.114 593.867 64.2743 594.947 59.4604 598.855C58.9783 599.247 58.4514 600.23 58.0642 600.757C55.884 599.855 53.6408 598.877 51.2635 598.712C40.2071 597.943 12.3141 602.775 0 604.361L0 589.099L0 582.537L0 519.058L0 455.352L0 389.168L0 0Z"/>
	<path fill="#000007" d="M379.352 290.205C379.415 295.928 380.932 310.388 379.346 314.896Q367.576 308.936 355.716 303.158C363.705 299.002 371.164 294.018 379.352 290.205Z"/>
	<path fill="#F3BC89" d="M378.051 230.639C382.436 229.411 410.155 229.799 417.085 229.596C438.366 228.975 459.613 227.117 480.92 227.302C479.724 227.686 477.007 228.23 476.255 229.115C489.413 229.761 502.638 229.772 515.811 229.786C512.965 231.432 506.534 230.56 503.17 230.54C494.928 230.413 477.397 228.468 470.227 231.383L469.748 232.239L472.322 233.4Q444.518 233.205 416.73 232.22C403.828 231.884 390.907 231.915 378.051 230.639Z"/>
	<path fill="#000007" d="M848.229 0L938.376 0L1026.56 0C1025.92 1.25417 1025.31 1.66893 1024.14 2.46397C1000.91 18.2713 975.886 32.1067 952.054 47.0488L782.189 154.192C763.032 166.411 742.899 177.625 724.332 190.684C742.163 202.089 760.769 213.187 779.403 223.213C773.22 224.343 696.862 224.586 693.116 223.411C681.839 224.625 670.383 222.929 659.09 224.18C651.546 223.88 643.95 224.208 636.402 224.365C628.024 223.754 596.354 226.872 591.775 224.056C572.805 212.569 552.634 202.492 533.202 191.735C562.512 173.021 592.496 155.254 622.165 137.106L758.398 54.0598Q803.588 27.4857 848.229 0Z"/>
	<path fill="white" d="M938.376 0L1026.56 0C1025.92 1.25417 1025.31 1.66893 1024.14 2.46397C1000.91 18.2713 975.886 32.1067 952.054 47.0488L782.189 154.192C763.032 166.411 742.899 177.625 724.332 190.684C742.163 202.089 760.769 213.187 779.403 223.213C773.22 224.343 696.862 224.586 693.116 223.411C671.502 212.393 648.95 203.279 627.32 192.21C634.027 187.02 642.271 182.825 649.514 178.319L704.173 144.715L855.168 51.4042Q883.717 33.97 912.09 16.2493C920.838 10.8304 929.866 5.78655 938.376 0Z"/>
	<path fill="#000007" d="M192.724 401.457C220.945 416.868 249.511 431.538 277.901 446.62C301.971 459.406 326.006 472.836 350.495 484.761C332.223 495.721 314.629 508.26 296.998 520.231Q266.516 540.573 236.441 561.511L387.69 543.813C387.788 547.644 389.083 557.333 386.547 560.008C379.874 560.674 373.184 561.265 366.521 562.019C357.329 563.478 321.101 566.519 315.488 569.286C309.552 567.684 261.033 574.942 249.758 576.329C239.521 579.595 205.047 579.735 197.735 584.872L200.359 586.031L198.795 586.465C194.929 585.427 190.556 583.053 186.683 582.739C174.645 581.762 158.837 585.281 146.622 586.811C136.709 588.052 126.754 588.786 116.83 589.893C106.114 593.867 64.2743 594.947 59.4604 598.855C58.9783 599.247 58.4514 600.23 58.0642 600.757C55.884 599.855 53.6408 598.877 51.2635 598.712C40.2071 597.943 12.3141 602.775 0 604.361L0 589.099L0 582.537L0 519.058C15.0934 510.847 29.572 501.177 44.3004 492.31C93.9814 462.401 142.717 430.795 192.724 401.457Z"/>
	<path fill="white" d="M0 582.537Q74.943 537.218 148.878 490.272C163.959 480.642 179.825 471.989 194.634 461.99C212.36 471.733 230.512 480.811 248.124 490.733C216.395 512.033 183.598 532.051 151.159 552.265C141.504 558.281 120.482 573.097 110.64 576.344C101.788 579.264 84.5817 579.59 74.7578 580.713C49.9825 583.545 24.8751 587.568 0 589.099L0 582.537Z"/>
	<path fill="#000007" d="M652.536 0L753.531 0Q488.967 154.676 228.104 315.522L56.7576 420.647C37.952 432.303 18.4596 443.189 0 455.352L0 389.168C22.237 377.106 43.5185 362.964 65.1649 349.851L204.119 265.699Q427.591 131.6 652.536 0Z"/>
	<path fill="white" d="M0 0L652.536 0Q427.59 131.601 204.119 265.699L65.1649 349.851C43.5185 362.964 22.237 377.106 0 389.168L0 0Z"/>
	<defs>
		<linearGradient id="gradient_5" gradientUnits="userSpaceOnUse" x1="825.59735" y1="1037.5769" x2="742.40143" y2="505.09985">
			<stop offset="0" stop-color="#09080E"/>
			<stop offset="1" stop-color="#0C2853"/>
		</linearGradient>
	</defs>
	<path fill="url(#gradient_5)" d="M116.83 589.893C126.754 588.786 136.709 588.052 146.622 586.811C158.837 585.281 174.645 581.762 186.683 582.739C190.556 583.053 194.929 585.427 198.795 586.465C211.853 592.782 226.119 597.475 239.695 602.557L294.603 623.627L348.079 643.954C356.334 647.077 365.199 651.408 373.759 653.394C374.107 655.529 374.348 657.588 374.42 659.75Q374.878 667.6 374.966 675.462C374.888 681.86 375.918 688.288 375.731 694.621L375.488 696.861C375.632 698.271 375.489 700.577 376.598 701.522C377.68 702.443 540.669 766.098 542.883 766.378C563.256 776.148 585.673 784.623 606.984 792.287C623.921 799.441 641.317 805.576 658.427 812.313C664.809 814.826 672.159 817.046 678.085 820.419C678.352 820.939 678.485 821.555 678.888 821.978C679.552 822.675 765.67 857.649 774.362 860.442C792.315 866.21 853.017 855.519 873.993 852.186C879.911 851.245 891.959 848.231 897.415 849.063C895.904 849.885 894.263 850.624 893.067 851.883L893.334 852.496C903.19 848.974 912.17 843.184 922.324 840.377C941.945 839.995 962.584 835.749 982.168 833.348C1013.39 829.521 1044.74 826.46 1076.01 822.878C1093.48 820.875 1110.96 818.064 1128.46 816.387C1129.35 816.301 1129.93 816.449 1130.73 816.817C1137.92 815.366 1148.94 808.198 1155.98 804.621L1210.09 777.063C1233.04 765.283 1256.67 754.728 1279.84 743.371C1302.36 732.337 1464.97 650.134 1474.23 649.553C1482.07 650.468 1531.22 657.93 1535.03 660.085C1536.39 663.785 1536.4 667.004 1534.97 670.687C1536.8 674.729 1537.05 696.053 1535.4 700.461C1535.2 700.984 1535.19 700.997 1534.98 701.439C1536.77 705.431 1537.09 743.823 1535.35 747.837C1535.23 748.115 1535.08 748.382 1534.95 748.654C1535.58 750.031 1535.86 751.172 1535.94 752.679C1536.55 764.489 1537.11 856.844 1535.42 861.348C1535.33 861.59 1535.22 861.826 1535.12 862.065C1536.84 866.383 1536.86 1019.47 1535.23 1023.03C1535.03 1023.48 1534.93 1023.62 1534.69 1024L1337.05 1024L1121.2 1024L918.803 1024L618.893 1024L414.754 1024L195.786 1024L0 1024L0 862.948L0 750.709L0 674.171L0 619.175L0 604.361C12.3141 602.775 40.2071 597.943 51.2635 598.712C53.6408 598.877 55.884 599.855 58.0642 600.757C58.4514 600.23 58.9783 599.247 59.4604 598.855C64.2743 594.947 106.114 593.867 116.83 589.893Z"/>
	<path fill="#37537E" d="M1534.97 670.687C1536.8 674.729 1537.05 696.053 1535.4 700.461C1535.2 700.984 1535.19 700.997 1534.98 701.439C1527.67 707.11 1518.44 711.411 1510.49 716.189C1483.51 732.403 1456.26 747.93 1428.99 763.631C1417.59 770.195 1397.16 783.29 1385.77 787.113C1376.99 790.06 1334.74 793.93 1324.56 793.632Q1390.74 751.427 1459.51 713.609Q1487.11 698.326 1514.34 682.389C1520.85 678.653 1529.17 675.325 1534.97 670.687Z"/>
	<path fill="white" d="M1534.98 701.439C1536.77 705.431 1537.09 743.823 1535.35 747.837C1535.23 748.115 1535.08 748.382 1534.95 748.654C1526.82 756.576 1513.16 764.396 1503.59 770.936Q1465.78 796.777 1427.59 822.053L1230.02 952.508L1162.89 996.653C1149 1005.73 1134.79 1014.49 1121.2 1024L918.803 1024C935.364 1013.11 953.757 1004.07 971.094 994.405L1078.5 934.533L1265.25 828.101C1285.1 816.842 1304.47 804.406 1324.56 793.632C1334.74 793.93 1376.99 790.06 1385.77 787.113C1397.16 783.29 1417.59 770.195 1428.99 763.631C1456.26 747.93 1483.51 732.403 1510.49 716.189C1518.44 711.411 1527.67 707.11 1534.98 701.439Z"/>
	<path fill="white" d="M0 674.171Q198.99 790.56 400.084 903.274Q465.621 940.473 531.752 976.604Q563.632 993.538 595.182 1011.08C602.95 1015.38 611.442 1019.24 618.893 1024L414.754 1024C394.992 1010.65 374.297 998.511 354.31 985.464L191.937 878.712L50.9553 784.747C33.9463 773.458 17.2765 761.583 0 750.709L0 674.171Z"/>
	<path fill="#0F172A" d="M0 750.709C17.2765 761.583 33.9463 773.458 50.9553 784.747L191.937 878.712L354.31 985.464C374.297 998.511 394.992 1010.65 414.754 1024L195.786 1024L0 1024L0 862.948L0 750.709Z"/>
	<path fill="white" d="M0 862.948L122.976 964.914C147.055 984.757 170.95 1005.11 195.786 1024L0 1024L0 862.948Z"/>
	<path fill="#0F172A" d="M1121.2 1024C1134.79 1014.49 1149 1005.73 1162.89 996.653L1230.02 952.508L1427.59 822.053Q1465.78 796.777 1503.59 770.936C1513.16 764.396 1526.82 756.576 1534.95 748.654C1535.58 750.031 1535.86 751.172 1535.94 752.679C1536.55 764.489 1537.11 856.844 1535.42 861.348C1535.33 861.59 1535.22 861.826 1535.12 862.065C1536.84 866.383 1536.86 1019.47 1535.23 1023.03C1535.03 1023.48 1534.93 1023.62 1534.69 1024L1337.05 1024L1121.2 1024Z"/>
	<path fill="white" d="M1535.12 862.065C1536.84 866.383 1536.86 1019.47 1535.23 1023.03C1535.03 1023.48 1534.93 1023.62 1534.69 1024L1337.05 1024C1350.76 1014.16 1363.71 1002.95 1377 992.526Q1437.43 944.513 1496.57 894.926C1504.66 888.131 1530.03 868.762 1535.12 862.065Z"/>
	<path fill="white" d="M116.83 589.893C126.754 588.786 136.709 588.052 146.622 586.811C158.837 585.281 174.645 581.762 186.683 582.739C190.556 583.053 194.929 585.427 198.795 586.465C211.853 592.782 226.119 597.475 239.695 602.557L294.603 623.627L348.079 643.954C356.334 647.077 365.199 651.408 373.759 653.394C374.107 655.529 374.348 657.588 374.42 659.75Q374.878 667.6 374.966 675.462C374.888 681.86 375.918 688.288 375.731 694.621L375.488 696.861C375.632 698.271 375.489 700.577 376.598 701.522C377.68 702.443 540.669 766.098 542.883 766.378C563.256 776.148 585.673 784.623 606.984 792.287C623.921 799.441 641.317 805.576 658.427 812.313C664.809 814.826 672.159 817.046 678.085 820.419C678.352 820.939 678.485 821.555 678.888 821.978C679.552 822.675 765.67 857.649 774.362 860.442C792.315 866.21 853.017 855.519 873.993 852.186C879.911 851.245 891.959 848.231 897.415 849.063C895.904 849.885 894.263 850.624 893.067 851.883L893.334 852.496C903.19 848.974 912.17 843.184 922.324 840.377C941.945 839.995 962.584 835.749 982.168 833.348C1013.39 829.521 1044.74 826.46 1076.01 822.878C1093.48 820.875 1110.96 818.064 1128.46 816.387C1129.35 816.301 1129.93 816.449 1130.73 816.817C1127.78 820.449 801.666 980.533 768.629 995.57Q480.894 860.312 196.29 718.582L0 619.175L0 604.361C12.3141 602.775 40.2071 597.943 51.2635 598.712C53.6408 598.877 55.884 599.855 58.0642 600.757C58.4514 600.23 58.9783 599.247 59.4604 598.855C64.2743 594.947 106.114 593.867 116.83 589.893Z"/>
	<path fill="#0F172A" d="M116.83 589.893C126.754 588.786 136.709 588.052 146.622 586.811C158.837 585.281 174.645 581.762 186.683 582.739C190.556 583.053 194.929 585.427 198.795 586.465C211.853 592.782 226.119 597.475 239.695 602.557L294.603 623.627L348.079 643.954C356.334 647.077 365.199 651.408 373.759 653.394C374.107 655.529 374.348 657.588 374.42 659.75Q374.878 667.6 374.966 675.462C374.888 681.86 375.918 688.288 375.731 694.621L375.488 696.861C375.632 698.271 375.489 700.577 376.598 701.522C377.68 702.443 540.669 766.098 542.883 766.378C563.256 776.148 585.673 784.623 606.984 792.287C623.921 799.441 641.317 805.576 658.427 812.313C664.809 814.826 672.159 817.046 678.085 820.419C678.352 820.939 678.485 821.555 678.888 821.978C679.552 822.675 765.67 857.649 774.362 860.442C792.315 866.21 853.017 855.519 873.993 852.186C879.911 851.245 891.959 848.231 897.415 849.063C895.904 849.885 894.263 850.624 893.067 851.883L893.334 852.496C887.037 857.095 869.098 863.404 860.947 867.084L798.368 895.256C787.538 900.066 776.629 905.531 765.422 909.381C748.77 902.219 731.862 895.689 715.181 888.598L411.137 758.528L58.0642 600.757C58.4514 600.23 58.9783 599.247 59.4604 598.855C64.2743 594.947 106.114 593.867 116.83 589.893Z"/>
	<path fill="white" d="M116.83 589.893C126.754 588.786 136.709 588.052 146.622 586.811C158.837 585.281 174.645 581.762 186.683 582.739C190.556 583.053 194.929 585.427 198.795 586.465C211.853 592.782 226.119 597.475 239.695 602.557L294.603 623.627L348.079 643.954C356.334 647.077 365.199 651.408 373.759 653.394C374.107 655.529 374.348 657.588 374.42 659.75Q374.878 667.6 374.966 675.462C374.888 681.86 375.918 688.288 375.731 694.621L375.488 696.861C363.512 692.7 351.723 687.425 339.936 682.721Q299.659 666.889 259.832 649.957C212.085 630.073 163.99 611.184 116.83 589.893Z"/>
</svg>
