<?xml version="1.0" encoding="utf-8" ?>
<svg xmlns="http://www.w3.org/2000/svg" xmlns:xlink="http://www.w3.org/1999/xlink" width="1536" height="1024">
	<path fill="white" d="M0 0L1534.69 0C1535.54 1.34434 1535.84 2.50848 1535.91 4.09208C1536.57 18.5072 1536 33.1619 1536 47.604L1536.01 132.471L1536.01 391.421L1536.01 865.91L1536 981.169C1536 989.131 1537.19 1015.2 1535.79 1021.39C1535.57 1022.35 1535.21 1023.17 1534.69 1024L0 1024L0 0Z"/>
	<path fill="#8894A8" d="M797.978 324.786C799.46 325.858 799.732 325.968 800.417 327.75C799.167 329.798 795.059 331.055 792.847 331.995C764.788 343.92 761.205 325.063 738.173 332.517C736.959 332.396 736.506 331.975 735.593 331.198L735.737 330.158C737.171 328.965 738.804 328.141 740.547 327.49C752.409 323.067 759.801 327.548 770.596 331.791C777.616 334.55 791.429 327.471 797.978 324.786Z"/>
	<path fill="#8894A8" d="M1075.31 377.702L1077.83 377.699C1080.94 379.375 1084.16 381.998 1086.23 384.871C1087.74 386.954 1088.97 389.228 1088.58 391.805C1084.05 392.233 1079.82 385.868 1075.89 383.655C1075.72 383.556 1075.54 383.466 1075.36 383.371C1073.93 387.052 1067.26 392.19 1063.78 394.136C1062.87 390.885 1058.28 387.269 1055.47 385.618C1052.44 383.903 1046.88 391.221 1042.81 391.416L1041.45 390.137C1042.05 385.647 1050.76 380.999 1053.75 377.315C1053.86 377.183 1053.96 377.047 1054.06 376.912C1057.51 378.684 1062.62 383.752 1064.02 387.317C1068.11 385.156 1072.31 381.202 1075.31 377.702Z"/>
	<path fill="#8894A8" d="M1147.63 223.178C1158.8 221.581 1165.65 230.502 1176 230.946C1187.31 231.431 1198.41 221.346 1209.73 224.611C1211.57 225.141 1213.79 226.296 1214.69 228.072C1215.23 229.147 1214.94 229.203 1214.58 230.263C1212.28 231.102 1211.48 230.719 1209.12 230.241C1202.68 225.716 1185.46 235.422 1177.53 235.804C1168.74 236.228 1164.72 231.028 1157.09 228.945C1152.51 227.693 1147.35 229.198 1142.89 227.423L1144.54 224.632L1144.23 224.772L1147.63 223.178Z"/>
	<path fill="#8894A8" d="M114.279 506.141C118.124 506.698 123.087 511.633 126.125 514.057C129.4 510.845 132.553 507.963 136.347 505.347C139.747 507.737 142.614 510.932 145.539 513.87L156.513 505.818C158.84 507.593 161.301 509.43 163.284 511.593C164.708 513.147 166.097 515.317 165.969 517.47L164.584 517.938C161.356 517.128 158.982 514.674 156.51 512.57C153.553 512.906 148.755 518.127 146.456 520.12C142.769 517.749 139.521 514.442 136.254 511.525Q130.917 515.841 125.52 520.081Q120.379 515.908 115.175 511.812C112.193 514.686 109.97 517.023 105.726 517.899L104.97 517.06C106.054 511.794 110.324 509.248 114.279 506.141Z"/>
	<path fill="#8894A8" d="M739.804 336.293C754.802 335.431 762.271 343.871 772.648 343.611C779.361 343.442 796.788 335.1 800.979 337.001L800.963 338.504C797.315 342.959 788.458 344.948 783.166 346.853C763.114 352.548 758.772 340.958 744.309 340.952C737.09 340.948 729.947 347.714 723.191 346.955C722.845 345.989 722.591 346.009 723.124 345.014C725.459 340.662 735.317 337.607 739.804 336.293Z"/>
	<path fill="#8894A8" d="M1141.52 235.181C1154.65 233.425 1161.29 242.139 1173.02 242.543C1184.62 242.942 1196.91 232.698 1208.55 237.367C1210.48 238.143 1212.8 239.384 1213.6 241.38C1210.2 244.056 1203.9 241.73 1199.81 241.792C1197.72 241.824 1195.54 242.309 1193.48 242.683C1172.1 254.099 1163.38 241.436 1143.87 239.052C1143.72 239.172 1143.58 239.31 1143.41 239.412C1139.49 241.862 1131.96 245.209 1127.39 243.793L1126.9 242.601C1129.96 238.104 1136.59 236.825 1141.52 235.181Z"/>
	<path fill="#8894A8" d="M551.194 214.992C555.368 212.269 559.162 206.951 563.949 205.639C569.395 206.192 581.257 209.999 585.284 213.973L585.25 215.376C584.829 215.824 584.454 216.249 583.891 216.526C579.179 218.84 569.179 212.519 564.378 210.411C561.529 212.567 558.851 215.092 556.132 217.419C561.08 219.917 567.947 220.777 572.196 223.845C572.398 225.901 571.469 226.402 570.234 227.995C561.087 228.891 539.46 214.899 531.279 210.396C529.009 212.264 527.153 214.595 525.222 216.802L525.873 216.886C527.742 217.134 530.451 217.007 532.075 217.961C533.372 218.724 533.375 219.252 533.672 220.593C532.507 221.612 532.232 221.921 530.719 222.209C525.323 223.237 519.367 220.565 514.958 217.602C512.156 215.718 509.255 213.477 508.561 210.066L509.895 209.291C514.259 209.751 517.547 212.242 521.165 214.527C523.667 211.125 526.063 208.282 529.278 205.521C537.589 205.329 544.487 210.762 551.194 214.992Z"/>
	<path fill="#8894A8" d="M529.684 931.111C541.324 903.623 527.984 863.911 563.734 849.26C563.77 886.349 547.983 899.531 533.854 931.144L529.684 931.111Z"/>
	<path fill="white" d="M558.457 857.232C558.548 857.56 558.656 857.884 558.728 858.217C561.463 870.832 545.384 901.441 538.828 912.43C537.999 908.102 539.192 902.02 539.871 897.621C542.129 882.975 545.916 866.416 558.457 857.232Z"/>
	<path fill="#8894A8" d="M611.556 79.8469Q620.73 79.5042 629.911 79.4265Q639.091 79.3488 648.27 79.5361Q657.449 79.7235 666.619 80.1758Q675.788 80.6281 684.941 81.3449Q694.094 82.0618 703.222 83.0425Q712.351 84.0233 721.447 85.2672Q730.543 86.5112 739.6 88.0172Q748.656 89.5232 757.665 91.29Q766.675 93.0569 775.629 95.0831Q784.584 97.1093 793.476 99.3932Q802.368 101.677 811.191 104.217Q820.014 106.756 828.759 109.55Q837.505 112.343 846.167 115.388Q854.828 118.432 863.398 121.726Q871.968 125.019 880.44 128.559Q888.911 132.098 897.277 135.881Q901.832 137.958 906.35 140.115Q910.867 142.273 915.345 144.511Q919.823 146.75 924.261 149.068Q928.698 151.385 933.093 153.782Q937.489 156.179 941.84 158.655Q946.192 161.13 950.499 163.682Q954.806 166.235 959.066 168.864Q963.327 171.493 967.539 174.198Q971.752 176.903 975.916 179.683Q980.08 182.463 984.193 185.317Q988.306 188.171 992.368 191.098Q996.43 194.025 1000.44 197.024Q1004.45 200.023 1008.4 203.094Q1012.36 206.164 1016.26 209.305Q1020.15 212.445 1024 215.655Q1027.84 218.865 1031.62 222.143Q1035.41 225.421 1039.13 228.766Q1042.86 232.111 1046.52 235.523Q1050.19 238.934 1053.79 242.41Q1057.39 245.887 1060.93 249.427Q1064.47 252.967 1067.95 256.57Q1071.43 260.173 1074.84 263.837Q1078.25 267.502 1081.59 271.227Q1084.94 274.952 1088.22 278.736Q1091.5 282.52 1094.71 286.362Q1097.92 290.205 1101.06 294.104Q1104.2 298.003 1107.27 301.957Q1110.34 305.912 1113.34 309.92Q1116.34 313.929 1119.27 317.991Q1122.2 322.053 1125.05 326.167Q1127.9 330.28 1130.68 334.444Q1133.46 338.608 1136.17 342.821C1154.94 371.552 1172.19 402.465 1183.95 434.812C1185.08 437.915 1187.2 442.792 1185.71 445.985L1183.91 446.559C1183.43 446.154 1182.88 445.816 1182.46 445.343C1180.39 442.994 1178.3 434.433 1177.1 431.24Q1170.81 415.008 1163.01 399.449Q1155.25 384.125 1146.6 369.286Q1137.95 354.447 1128.43 340.145Q1118.92 325.842 1108.58 312.127Q1098.24 298.412 1087.11 285.331C1082.02 279.233 1075.63 270.073 1068.85 265.938C1068.61 265.269 1068.24 264.659 1067.83 264.083C1063.5 258.063 1057.11 252.645 1051.71 247.515C1032.25 229.02 1012.07 211.517 990.145 195.993Q979.922 188.72 969.404 181.881Q958.885 175.042 948.091 168.648Q937.296 162.255 926.244 156.318Q915.191 150.381 903.9 144.912Q892.609 139.442 881.1 134.45Q869.591 129.457 857.883 124.949Q846.175 120.442 834.289 116.428Q822.402 112.414 810.359 108.9C712.922 80.6827 601.713 77.6033 502.168 96.372Q463.603 103.848 425.988 115.173C417.539 117.652 369.542 135.561 365.291 134.704C364.03 134.45 364.235 134.274 363.616 133.278C363.813 133.059 364.004 132.833 364.208 132.621C369.278 127.371 386.583 122.625 394.003 120.031Q407.099 115.414 420.364 111.313Q433.63 107.211 447.046 103.631Q460.462 100.05 474.007 96.9968Q487.553 93.9433 501.207 91.4212Q514.861 88.8991 528.604 86.9124Q542.346 84.9256 556.155 83.4771Q569.965 82.0287 583.82 81.1208Q597.676 80.2129 611.556 79.8469Z"/>
	<path fill="#8894A8" d="M488.328 833.279C480.023 800.812 479.588 761.006 482.646 727.646C483.165 721.986 483.183 714.192 485.856 709.134C486.281 708.33 486.861 707.628 487.478 706.967C488.675 706.737 488.912 706.414 490.018 707.098C500.031 713.281 516.137 791.489 518.759 807.65C525.358 848.324 526.032 890.028 525.873 931.151L521.788 930.867L519.182 931.146C515.549 930.854 511.768 931.03 508.116 930.996C506.844 916.084 504.438 903.152 498.121 889.448C490.335 872.559 437.271 799.975 443.538 787.02C445.47 786.248 446.071 786.373 448.044 787.149C463.159 793.094 481.367 818.94 488.328 833.279Z"/>
	<path fill="white" d="M448.895 793.649C449.848 794.005 450.669 794.37 451.524 794.932C458.471 799.504 464.14 805.962 469.279 812.434C487.256 835.074 497.457 860.957 503.327 889.159C498.807 882.67 495.647 874.789 491.343 868.022C476.343 844.438 457.016 820.796 448.895 793.649Z"/>
	<path fill="white" d="M488.639 712.848C494.427 724.074 497.867 737.051 501.218 749.195C514.088 795.831 519.027 841.833 521.172 890.022C521.762 903.296 522.882 917.628 521.788 930.867L519.182 931.146C517.319 905.573 515.174 879.785 511.23 854.436C509.424 842.823 506.14 831.433 504.578 819.793C501.36 795.818 502.267 768.313 493.05 745.707L491.551 744.999L490.249 745.466C488.938 749.73 494.205 767.404 495.036 772.978C496.977 786.009 496.657 799.452 498.686 812.337C503.327 841.804 509.081 870.614 512.131 900.359C513.053 909.359 514.425 918.672 514.135 927.728C510.987 914.039 510.632 899.77 507.445 886.044C504.117 871.714 498.743 858.021 495.279 843.786C484.72 800.408 484.16 757.078 488.639 712.848Z"/>
	<path fill="#8894A8" d="M202.76 931.696Q197.986 927.269 193.338 922.709Q188.69 918.149 184.173 913.46Q179.655 908.771 175.272 903.956Q170.889 899.141 166.643 894.205Q162.397 889.269 158.292 884.214Q154.187 879.16 150.226 873.992Q146.265 868.824 142.452 863.546Q138.638 858.269 134.975 852.885Q131.312 847.502 127.802 842.018Q124.292 836.534 120.938 830.952Q117.584 825.371 114.388 819.698Q111.193 814.024 108.159 808.263Q105.125 802.501 102.254 796.656Q99.3837 790.812 96.6791 784.888Q93.9746 778.965 91.4381 772.968Q88.9016 766.97 86.5352 760.904C53.0951 674.062 45.5228 580.056 68.7903 489.729C74.0895 469.156 80.3568 449.058 89.0232 429.611C94.0696 418.287 99.7548 406.971 105.728 396.108C111.763 385.132 140.888 335.663 150.114 332.139L151.833 333.155C152.146 334.835 152.168 335.185 151.474 336.745C149.544 341.083 138.058 355.036 134.496 360.256C111.264 394.298 91.9335 430.237 79.5753 469.735C53.1337 554.245 54.5194 643.122 80.3996 727.504C85.1312 742.932 90.0234 760.437 97.4796 774.703C95.943 765.905 95.1359 757.313 95.3804 748.376C96.4379 709.718 106.554 675.761 123.914 641.46C126.43 636.49 129.443 628.119 133.689 624.633C135.192 623.399 135.968 623.465 137.807 623.739C139.518 626.296 139.665 629.741 139.9 632.735C143.592 679.737 138.61 732.83 119.76 776.305C116.588 783.623 113.072 791.644 107.853 797.733C116.284 815.07 126.652 832.354 137.926 847.945C131.922 800.57 143.404 750.246 171.566 711.226C173.337 708.772 174.695 707.183 177.775 706.657C179.4 707.8 179.854 708.377 180.281 710.389C181.746 717.29 181.623 725.929 181.707 732.99C182.205 774.867 171.74 826.971 147.08 861.595C157.688 876.05 194.704 923.139 209.322 929.099L208.817 931.081C206.904 932.149 204.876 931.798 202.76 931.696Z"/>
	<path fill="white" d="M175.05 714.667L176.051 716.05C180.709 758.219 170.05 813.462 148.586 850.083C150.384 839.116 167.663 756.114 167.077 752.847C166.847 751.564 166.364 751.596 165.359 750.876L163.724 751.192L162.885 752.61C156.257 785.751 147.263 819.064 144.184 852.778Q143.444 850.381 142.97 847.918C134.161 803.094 150.128 751.845 175.05 714.667Z"/>
	<path fill="white" d="M134.463 631.401C136.742 639.571 135.919 650.073 135.873 658.557C135.642 701.057 129.534 750.82 108.358 788.407C112.607 766.001 115.05 742.932 118.557 720.354C120.657 706.829 125.041 687.283 125.651 674.314C125.73 672.637 125.605 672.594 124.528 671.404C122.735 671.314 122.749 671.227 121.352 672.329Q114.72 710.154 109.376 748.182C107.489 761.216 106.608 774.803 103.74 787.629Q102.833 783.839 102.039 780.024C100.121 770.689 100.13 761.029 100.312 751.541C100.989 716.231 108.793 683.1 124.055 651.244C127.259 644.556 130.393 637.601 134.463 631.401Z"/>
	<path fill="#8894A8" d="M930.423 215.565C934.048 215.317 937.629 215.156 941.26 215.391C959.129 216.548 977.468 225.174 989.193 238.816C1000.04 251.437 1006.9 268.477 1005.47 285.284C1004.68 294.634 1001.25 304.193 997.801 312.868C989.576 333.537 958.905 395.43 944.028 407.943C942.38 408.625 940.574 408.997 938.808 409.227C935.654 409.638 932.71 408.971 930.206 406.999C917.753 397.189 882.902 328.64 875.715 310.559C872.758 303.12 870.376 295.448 869.455 287.468Q869.278 285.938 869.176 284.402Q869.074 282.865 869.048 281.326Q869.023 279.786 869.073 278.247Q869.123 276.708 869.25 275.173Q869.376 273.639 869.578 272.112Q869.78 270.586 870.057 269.071Q870.334 267.556 870.686 266.057Q871.037 264.558 871.463 263.078Q871.888 261.598 872.386 260.141Q872.883 258.684 873.452 257.253Q874.022 255.822 874.661 254.421Q875.3 253.02 876.007 251.653Q876.715 250.285 877.489 248.954Q878.263 247.623 879.102 246.332Q879.941 245.041 880.843 243.793Q881.745 242.545 882.707 241.343C894.538 226.547 911.718 217.671 930.423 215.565Z"/>
	<path fill="white" d="M929.495 220.779C946.222 218.484 963.051 224.01 976.495 233.83C988.884 242.878 997.556 257.999 999.872 273.099C1000.9 279.778 1000.39 286.111 998.88 292.674C992.03 322.386 961.526 377.666 943.154 402.44C941.881 403.362 940.745 403.928 939.183 404.227C936.937 404.657 935.334 404.411 933.459 403.061C923.96 396.223 889.468 329.037 883.415 315.15C879.86 306.992 876.539 298.596 874.961 289.799Q874.719 288.423 874.545 287.038Q874.37 285.652 874.265 284.259Q874.16 282.866 874.123 281.47Q874.086 280.074 874.119 278.678Q874.151 277.281 874.253 275.888Q874.354 274.495 874.524 273.109Q874.694 271.722 874.932 270.346Q875.17 268.97 875.476 267.607Q875.782 266.244 876.155 264.898Q876.528 263.552 876.967 262.226Q877.405 260.9 877.909 259.598Q878.413 258.295 878.981 257.019Q879.548 255.743 880.178 254.496Q880.807 253.25 881.498 252.036Q882.189 250.822 882.938 249.643Q883.688 248.465 884.495 247.325C895.445 232.014 911.325 223.856 929.495 220.779Z"/>
	<path fill="#8894A8" d="M930.474 253.648C937.292 253.073 943.091 253.087 949.408 256.041Q950.082 256.357 950.74 256.706Q951.398 257.055 952.038 257.436Q952.678 257.817 953.298 258.229Q953.919 258.641 954.518 259.084Q955.117 259.526 955.693 259.998Q956.27 260.47 956.822 260.969Q957.374 261.469 957.901 261.995Q958.428 262.521 958.928 263.073Q959.429 263.625 959.901 264.201Q960.374 264.777 960.817 265.375Q961.26 265.974 961.673 266.594Q962.086 267.213 962.468 267.853Q962.85 268.492 963.2 269.15Q963.55 269.808 963.866 270.482Q964.183 271.156 964.466 271.845Q964.749 272.534 964.998 273.236Q965.225 273.907 965.418 274.589Q965.611 275.271 965.769 275.961Q965.928 276.652 966.052 277.349Q966.176 278.047 966.265 278.75Q966.354 279.453 966.408 280.159Q966.462 280.866 966.481 281.574Q966.499 282.282 966.482 282.99Q966.465 283.699 966.413 284.405Q966.361 285.112 966.273 285.815Q966.186 286.518 966.063 287.216Q965.941 287.914 965.784 288.605Q965.627 289.296 965.435 289.978Q965.244 290.66 965.018 291.332Q964.793 292.003 964.535 292.663Q964.276 293.323 963.985 293.969Q963.694 294.614 963.371 295.245C959.123 303.631 951.817 308.014 943.127 310.786C937.1 312.294 929.73 311.252 924.171 308.589C916.97 305.14 911.456 298.557 908.98 290.998Q908.754 290.31 908.563 289.611Q908.372 288.912 908.216 288.205Q908.059 287.497 907.938 286.783Q907.818 286.068 907.732 285.349Q907.647 284.629 907.598 283.906Q907.549 283.184 907.536 282.459Q907.522 281.735 907.545 281.011Q907.568 280.286 907.627 279.564Q907.686 278.842 907.781 278.124Q907.875 277.406 908.006 276.693Q908.136 275.98 908.302 275.275Q908.467 274.57 908.668 273.873Q908.868 273.177 909.103 272.492Q909.338 271.807 909.607 271.134Q909.876 270.461 910.178 269.802Q910.48 269.144 910.814 268.501C915.101 260.232 921.908 256.414 930.474 253.648Z"/>
	<path fill="white" d="M932.744 258.223C938.149 257.851 943.252 258.515 948.121 261.003Q948.669 261.283 949.203 261.589Q949.736 261.896 950.254 262.229Q950.771 262.562 951.272 262.921Q951.772 263.28 952.254 263.663Q952.735 264.046 953.197 264.453Q953.659 264.86 954.1 265.289Q954.541 265.718 954.96 266.169Q955.379 266.62 955.775 267.092Q956.171 267.563 956.543 268.054Q956.915 268.544 957.261 269.053Q957.608 269.561 957.929 270.086Q958.25 270.612 958.544 271.152Q958.839 271.693 959.106 272.248Q959.372 272.803 959.611 273.37Q959.85 273.937 960.06 274.516Q960.27 275.095 960.451 275.683C962.206 281.463 961.767 287.733 958.883 293.074C954.977 300.309 948.29 303.681 940.739 306.002C935.62 306.302 930.435 305.733 925.807 303.411Q925.267 303.141 924.74 302.844Q924.214 302.547 923.703 302.225Q923.192 301.903 922.697 301.556Q922.202 301.209 921.725 300.839Q921.248 300.468 920.79 300.074Q920.331 299.681 919.893 299.265Q919.454 298.849 919.037 298.413Q918.619 297.976 918.223 297.52Q917.828 297.063 917.455 296.587Q917.082 296.112 916.733 295.619Q916.384 295.126 916.059 294.616Q915.735 294.106 915.436 293.581Q915.136 293.056 914.864 292.517Q914.59 291.978 914.344 291.426Q914.098 290.875 913.879 290.311Q913.66 289.748 913.469 289.175Q913.288 288.618 913.135 288.053Q912.983 287.487 912.859 286.915Q912.736 286.342 912.642 285.764Q912.547 285.186 912.483 284.604Q912.418 284.022 912.383 283.438Q912.348 282.853 912.343 282.267Q912.338 281.682 912.363 281.097Q912.387 280.512 912.442 279.928Q912.496 279.345 912.58 278.766Q912.664 278.186 912.778 277.612Q912.891 277.037 913.034 276.469Q913.176 275.901 913.348 275.341Q913.519 274.781 913.719 274.231Q913.918 273.68 914.146 273.14Q914.373 272.601 914.628 272.073Q914.882 271.546 915.163 271.032C919.044 263.805 925.125 260.426 932.744 258.223Z"/>
	<path fill="#8894A8" d="M1342.16 79.8943C1369.87 79.7635 1394.72 89.5415 1414.51 109.13C1431.1 125.551 1440.71 149.633 1440.79 172.892C1440.84 185.563 1436.85 198.594 1432.48 210.401C1418.27 248.729 1395.84 287.244 1373.57 321.582C1368.39 329.564 1363.24 338.496 1356.46 345.214C1352.94 348.704 1350.21 349.728 1345.31 349.68C1341.16 349.816 1336.57 348.312 1333.37 345.621C1325.26 338.787 1313.86 317.745 1307.97 307.769C1289.15 275.899 1251.1 214.054 1248.72 178.171C1247.11 153.906 1256.43 131.161 1272.27 113.119C1290.41 92.4699 1314.91 81.5955 1342.16 79.8943Z"/>
	<path fill="white" d="M1336.89 85.1442Q1339.82 84.9009 1342.76 84.8422Q1345.7 84.7836 1348.63 84.9098Q1351.57 85.0361 1354.49 85.3468Q1357.41 85.6575 1360.31 86.1514Q1363.21 86.6452 1366.07 87.3204Q1368.93 87.9955 1371.74 88.8492Q1374.55 89.7029 1377.3 90.7317Q1380.06 91.7606 1382.74 92.9606C1404.11 102.476 1421.82 119.815 1430.24 141.833C1442.18 173.051 1433.41 197.731 1420.45 226.534C1411.63 246.152 1363.49 338.497 1349.44 343.811C1348.32 344.696 1347.99 344.95 1346.58 345.205C1343.66 345.733 1341.33 345.133 1338.93 343.37C1329.22 336.235 1321.76 320.423 1315.48 310.1C1295.66 277.514 1258.77 217.458 1253.91 181.161C1250.99 159.42 1259.12 137.453 1272.37 120.385C1288.17 100.02 1311.58 88.2827 1336.89 85.1442Z"/>
	<path fill="#8894A8" d="M1336.82 134.657C1348.67 132.961 1359.76 134.801 1369.48 142.09Q1370.27 142.682 1371.02 143.312Q1371.78 143.943 1372.51 144.611Q1373.23 145.278 1373.92 145.981Q1374.61 146.684 1375.27 147.42Q1375.92 148.156 1376.54 148.925Q1377.16 149.693 1377.74 150.491Q1378.31 151.289 1378.85 152.115Q1379.39 152.94 1379.89 153.792Q1380.38 154.644 1380.84 155.519Q1381.29 156.394 1381.7 157.291Q1382.11 158.188 1382.47 159.104Q1382.83 160.02 1383.15 160.953Q1383.47 161.886 1383.74 162.834Q1384.01 163.782 1384.23 164.742Q1384.45 165.702 1384.63 166.672Q1384.8 167.642 1384.93 168.619Q1385.06 169.536 1385.14 170.458Q1385.21 171.38 1385.25 172.305Q1385.28 173.23 1385.27 174.156Q1385.25 175.081 1385.19 176.005Q1385.13 176.929 1385.03 177.848Q1384.92 178.768 1384.77 179.681Q1384.62 180.594 1384.42 181.498Q1384.22 182.402 1383.98 183.295Q1383.74 184.188 1383.45 185.068Q1383.16 185.948 1382.83 186.812Q1382.5 187.677 1382.13 188.523Q1381.75 189.37 1381.34 190.197Q1380.92 191.023 1380.46 191.828Q1380.01 192.633 1379.51 193.414Q1379.01 194.195 1378.48 194.95Q1377.94 195.705 1377.37 196.432C1370.39 205.271 1360.24 210.269 1349.19 211.575C1342.23 213.774 1332.64 211.291 1326.33 208.171C1316.56 203.344 1308.59 194.628 1305.15 184.239Q1304.87 183.419 1304.63 182.587Q1304.4 181.754 1304.2 180.911Q1304.01 180.067 1303.85 179.215Q1303.7 178.363 1303.59 177.504Q1303.48 176.645 1303.41 175.782Q1303.35 174.919 1303.32 174.053Q1303.3 173.188 1303.32 172.322Q1303.34 171.456 1303.4 170.593Q1303.47 169.73 1303.58 168.87Q1303.68 168.011 1303.83 167.158Q1303.98 166.306 1304.17 165.461Q1304.37 164.617 1304.6 163.784Q1304.84 162.95 1305.11 162.13Q1305.39 161.309 1305.7 160.503Q1306.02 159.698 1306.38 158.909Q1306.73 158.12 1307.13 157.35C1313.48 144.923 1324.1 138.887 1336.82 134.657Z"/>
	<path fill="white" d="M1339.75 139.158C1349.29 138.171 1359.34 140.614 1367.04 146.422C1374 151.67 1378.85 159.299 1379.97 168.006Q1380.08 168.851 1380.15 169.7Q1380.22 170.55 1380.25 171.402Q1380.27 172.254 1380.26 173.106Q1380.24 173.958 1380.18 174.808Q1380.12 175.659 1380.02 176.505Q1379.92 177.351 1379.77 178.191Q1379.63 179.031 1379.44 179.862Q1379.25 180.694 1379.03 181.515Q1378.8 182.336 1378.53 183.145Q1378.26 183.953 1377.95 184.747Q1377.64 185.541 1377.29 186.318Q1376.94 187.095 1376.55 187.854Q1376.16 188.612 1375.73 189.35Q1375.31 190.088 1374.84 190.803Q1374.38 191.519 1373.88 192.21Q1373.38 192.901 1372.85 193.566C1366.35 201.697 1357.33 205.699 1347.18 206.865C1339.64 207.359 1332.45 205.883 1325.83 202.161C1317.8 197.646 1311.76 190.358 1309.41 181.393Q1309.21 180.62 1309.05 179.839Q1308.88 179.057 1308.76 178.268Q1308.64 177.479 1308.56 176.685Q1308.47 175.89 1308.43 175.093Q1308.39 174.296 1308.38 173.497Q1308.38 172.699 1308.42 171.901Q1308.46 171.104 1308.53 170.309Q1308.61 169.514 1308.73 168.724Q1308.85 167.934 1309 167.151Q1309.16 166.369 1309.35 165.594Q1309.55 164.82 1309.79 164.057Q1310.02 163.294 1310.29 162.543Q1310.57 161.793 1310.88 161.057Q1311.19 160.321 1311.53 159.602Q1311.88 158.883 1312.26 158.182Q1312.64 157.481 1313.06 156.8C1319.19 146.687 1328.65 141.939 1339.75 139.158Z"/>
	<path d="M274.287 231.482C269.32 227.098 262.409 222.157 261.929 215.073C260.232 190.021 244.259 168.201 264.611 145.669C275.265 133.874 287.398 128.718 303.105 128.028C315.612 127.478 329.113 128.93 338.785 137.697C347.532 145.625 352.046 157.746 356.141 168.54C365.679 167.611 381.312 166.012 389.22 172.313C390.728 173.515 391.863 175.233 391.982 177.197C392.149 179.975 390.415 182.495 388.531 184.369C380.65 192.21 365.308 196.084 354.543 196.741C350.225 212.823 357.108 220.247 346.7 237.093C344.438 240.755 341.711 244.561 337.869 246.703C332.858 249.496 324.083 248.465 322.316 254.543C321.901 255.974 321.691 257.511 321.445 258.979C323.36 261.436 349.022 266.782 353.679 267.787C356.75 258.974 359.717 250.105 363.055 241.389C385.81 246.145 408.064 253.785 430.302 260.533C440.567 263.648 451.417 267.804 462.1 269.07C479.742 271.161 544.563 264.646 554.061 269.235C555.268 271.35 553.815 275.221 553.174 277.581C545.459 305.977 535.118 336.616 528.817 365.003C532.778 365.259 536.774 365.186 539.641 368.384C542.686 371.781 543.076 376.436 542.634 380.763C541.874 388.219 536.328 401.253 530.354 405.911C527.95 407.785 524.842 407.302 522.051 406.812Q521.341 406.685 520.634 406.542C504.657 434.264 488.665 462.098 473.87 490.473C454.586 491.19 435.136 492.056 415.912 493.732C427.44 601.482 423.206 709.927 415.652 817.783C415.082 825.922 415.294 857.083 410.894 862.668C408.752 865.388 404.593 867.357 401.839 869.518C405.025 870.436 408.203 871.378 411.434 872.131C423.445 898.826 427.443 892.572 449.212 906.65C454.99 906.066 461.598 905.416 466.535 909.169C471.966 913.299 473.43 922.561 473.992 928.961Q474.078 929.978 474.105 930.998L508.116 930.996C511.768 931.03 515.549 930.854 519.182 931.146L521.788 930.867L525.873 931.151L529.684 931.111L533.854 931.144L697.924 930.849C682.154 906.633 677.521 881.663 678.19 853.043Q640.683 864.981 603.751 878.592L603.886 841.162C600.272 841.31 593.826 842.385 591.116 839.778C589.919 838.627 589.91 836.368 589.804 834.756C588.817 819.744 589.565 804.179 589.549 789.108L589.491 701.154L589.485 571.157C589.458 547.52 588.908 523.753 589.462 500.13C589.531 497.195 589.123 490.121 591.265 488.201C592.606 486.999 594.039 486.525 595.808 486.336C617.815 483.986 640.158 483.073 662.246 481.477L790.975 472.051L898.494 464.18C919.212 462.626 940.151 460.188 960.921 459.868C982.515 459.534 1004.25 460.416 1025.84 460.911L1141.1 463.642L1230.43 465.673C1247.17 465.994 1264.41 465.429 1281.06 466.835C1282.2 466.931 1283.33 467.112 1284.45 467.303C1287.7 471.738 1287.58 523.496 1286.24 531.102C1286.07 532.06 1285.76 532.81 1285.33 533.666C1285.27 533.785 1285.22 533.906 1285.16 534.026L1331.03 533.976C1340.99 533.926 1352.79 532.687 1362.53 534.812C1365.58 535.478 1368.04 537.028 1370.22 539.228C1372.38 541.404 1373.84 543.835 1374.9 546.704C1378.51 556.491 1410.23 663.093 1410.22 667.678C1410.22 668.08 1410.07 668.733 1410.01 669.088C1426.63 676.935 1453.74 703.258 1459.82 720.573C1461.32 724.864 1462.18 729.241 1462.58 733.765C1463.85 748.041 1463.07 762.961 1463 777.306C1462.97 784.78 1463.89 793.194 1462.52 800.488C1468.84 802.607 1473.12 805.105 1476.2 811.212C1480.08 818.916 1479.84 835.313 1477.15 843.305C1475.66 847.736 1472.56 851.786 1468.38 853.986C1465.32 855.591 1461.28 856.014 1457.88 856.146C1456.41 858.056 1455.09 859.512 1452.86 860.528Q1430.91 860.922 1408.96 860.842C1414.01 870.452 1409.43 889.686 1406.26 899.868C1402.85 910.802 1395.99 925.896 1385.3 931.473C1384.64 931.816 1383.96 932.124 1383.29 932.426C1399.18 932.497 1443.31 931.538 1457.06 935.433L1456.9 936.098C1446.66 938.798 1433.96 938.089 1423.35 938.396Q1384.45 939.418 1345.54 939.369L1155.87 940.976L215.641 940.424C199.446 940.259 90.1896 939.867 83.4067 936.061C83.2267 935.96 83.0734 935.817 82.9068 935.695C91.0972 931.132 186.431 931.762 202.76 931.696C204.876 931.798 206.904 932.149 208.817 931.081L209.322 929.099C208.712 920.618 211.104 912.819 212.191 904.486C213.264 896.253 212.969 887.809 212.345 879.551C214.201 878.084 217.152 876.233 217.483 873.725C217.775 871.51 217.464 869.069 217.292 866.845C212.916 866.668 208.052 867.144 204.783 863.761C201.985 857.711 204.756 834.689 205.079 827.174Q207.43 767.733 212.319 708.446Q217.208 649.159 224.626 590.136C227.915 562.222 229.271 533.726 235.616 506.277C229.179 504.212 216.504 501.133 213.105 494.973C211.119 491.375 217.612 449.141 218.447 441.427C207.798 444.454 194.825 448.206 184.461 442.39C179.026 439.339 175.92 434.192 174.295 428.305C169.229 409.957 171.895 374.283 173.487 354.653C170.846 353.88 168.026 353.375 165.974 351.452C164.469 347.341 186.39 285.812 189.664 278.784C195.92 265.353 204.383 258.821 218.157 253.865C233.834 248.225 250.768 246.288 267.239 244.264C270.158 240.139 272.467 236.198 274.287 231.482Z"/>
	<path fill="white" d="M1037.36 924.563C1039.15 925.056 1041.53 926.686 1042.37 928.501C1042.86 929.57 1042.51 929.916 1042.05 930.872L1038.56 931.092C1037.3 931.143 1036.06 930.989 1034.8 930.87L1034.44 929.996C1035.57 928.369 1036.51 926.888 1037.2 925.02C1037.26 924.868 1037.31 924.715 1037.36 924.563Z"/>
	<path fill="#F7BE87" d="M513.118 397.814C517.617 398.182 525.662 397.027 529.367 399.536L529.512 402.321C528.379 402.689 527.278 402.923 526.081 402.744C522.79 402.254 515.034 400.436 513.118 397.814Z"/>
	<path fill="#425882" d="M409.902 890.608L414.621 890.647L415.476 892.471C412.06 894.009 408.409 894.207 404.884 896.039L404.055 896.477C403.847 896.622 403.662 896.808 403.431 896.913C401.991 897.57 400.853 897.016 399.666 896.282L399.555 895.047C402.248 891.681 405.914 891.343 409.902 890.608Z"/>
	<path fill="#667090" d="M243.74 886.139C248.869 885.633 252.749 885.523 257.618 887.373C258.901 887.861 258.885 887.785 259.435 889C257.439 889.936 255.078 889.334 252.951 889.093C247.964 888.96 242.826 890.872 237.905 890.357L237.156 888.313C238.783 886.874 241.649 886.608 243.74 886.139Z"/>
	<path fill="#425882" d="M408.224 882.868C410.08 883.21 410.864 883.714 412.136 885.118C412.258 885.252 412.375 885.391 412.495 885.527L412.692 884.76C412.407 885.292 411.735 886.95 411.234 887.207C406.678 889.544 401.797 889.039 397.157 892.233L396.442 892.731L395.707 893.05C394.246 891.983 394.018 891.896 393.371 890.115C396.811 886.737 403.708 884.723 408.224 882.868Z"/>
	<path fill="#667090" d="M244.849 894.315C245.017 894.295 245.185 894.273 245.353 894.254C249.626 893.788 257.981 893.058 261.464 895.872L261.54 897.47C259.548 898.414 255.903 897.713 253.688 897.587C249.331 897.606 243.735 899.911 239.675 898.377L239.32 897.087C240.811 895.151 242.573 895.039 244.849 894.315Z"/>
	<path fill="#425882" d="M421.573 901.086C423.232 900.973 424.945 900.934 426.595 901.157C430.851 901.732 438.659 904.362 441.259 908.048L439.963 909.808C434.533 907.9 428.69 907.307 423.252 905.47C421.451 904.862 420.459 904.444 419.58 902.765L421.573 901.086Z"/>
	<path fill="#425882" d="M404.061 876.125C406.083 876.247 407.631 876.223 409.347 877.379L409.318 878.507C409.131 878.756 408.912 878.984 408.758 879.255C407.119 882.134 398.091 884.888 394.854 886.756C393.781 887.623 393.583 887.678 392.211 887.864C391.625 886.58 391.357 886.263 391.932 884.849C393.854 880.123 399.715 877.853 404.061 876.125Z"/>
	<path fill="#F7BE87" d="M509.185 389.573C515.776 389.095 525.36 388.685 531.787 390.144C533.451 390.522 533.566 390.478 534.449 391.93L533.811 393.979C527.223 394.969 519.201 394.772 512.667 393.468C510.657 393.067 509.779 392.803 508.618 391.122L509.185 389.573Z"/>
	<path fill="#425882" d="M265.121 199.907L268.821 200.688C271.051 202.858 270.085 208.887 271.189 212.076C272.297 215.278 275.108 217.343 276.628 220.231C277.792 222.445 277.18 223.758 276.628 226.022C273.958 225.266 270.985 222.657 269.176 220.563C264.201 214.805 264.518 206.986 265.121 199.907Z"/>
	<path fill="#8894A8" d="M238.509 908.982C246.428 904.891 254.713 903.485 263.34 906.175C267.066 907.337 270.02 909.352 273.179 911.594C262.566 911.295 251.944 910.669 241.33 910.563L238.509 908.982Z"/>
	<path fill="#F7BE87" d="M519.306 380.633C522.93 380.421 527.087 379.831 530.673 380.346C533.045 380.687 535.947 381.587 537.422 383.452L536.507 384.631C532.118 386.194 527.891 385.755 523.312 385.597C517.508 385.642 509.725 386.456 504.394 383.903C506.727 381.274 515.652 380.976 519.306 380.633Z"/>
	<path fill="#F99835" d="M523.054 370.108C526.757 369.372 531.118 369.345 534.731 370.49C535.577 371.243 536.333 371.924 536.746 373.01C537.318 374.513 537.387 374.758 536.713 376.186C531.247 377.734 523.211 376.469 517.32 376.817C512.888 377.458 508.146 378.704 503.869 376.928L503.487 375.757C507.577 371.144 517.243 370.831 523.054 370.108Z"/>
	<path fill="#F99835" d="M222.916 867.427C229.344 867.343 249.245 865.911 254.47 869.27C254.905 871.008 254.718 871.166 254.072 872.758L252.797 872.96C244.033 873.104 231.149 877.378 224.159 873.858C222.447 871.616 222.912 870.2 222.916 867.427Z"/>
	<path fill="white" d="M237.309 916.889C244.82 915.804 268.95 915.716 275.481 917.796C277.061 918.299 277.508 919.041 278.16 920.47C276.31 921.758 272.234 921.222 269.894 921.239C258.562 921.325 238.104 923.035 228.007 920.481L228.567 920.566L229.67 918.747C231.949 917.743 234.865 917.42 237.309 916.889Z"/>
	<path fill="white" d="M448.14 912.403C454.246 911.949 460.355 911.636 465.458 915.739C466.939 916.93 467.507 917.566 467.788 919.402L466.698 920.574C463.797 921.803 460.414 920.974 457.384 920.582C449.783 920.537 442.169 920.693 434.568 920.752C438.648 915.897 441.973 913.833 448.14 912.403Z"/>
	<path fill="#CAD1E3" d="M214.079 926.64L254.655 926.474C262.624 926.432 270.836 925.941 278.759 926.798C280.113 928.395 279.848 929.425 279.985 931.477C259.883 931.407 234.541 933.128 215.055 931.358C213.667 929.756 214.078 928.714 214.079 926.64Z"/>
	<path fill="#0F172A" d="M409.588 494.771L410.151 495.027C412.515 499.105 412.296 509.713 412.795 514.719C404.493 512.535 396.807 510.388 389.177 506.296C384.294 503.519 380.93 499.445 377.413 495.179C388.21 495.712 398.797 495.418 409.588 494.771Z"/>
	<path fill="#F99835" d="M1106.08 637.278C1111.06 636.946 1118.06 635.821 1122.64 637.907C1125.29 641.79 1124.32 654.942 1123.55 659.746L1121.48 660.761L1115.47 660.901C1112.31 660.963 1108.42 661.598 1106.02 659.283C1104.73 654.405 1103.57 641.836 1106.08 637.278Z"/>
	<path fill="#F99835" d="M359.016 868.703C370.23 868.788 381.603 868.081 392.789 868.764C395.339 868.92 397.773 868.987 399.524 870.955C398.388 872.853 393.93 874.971 391.946 876.218C389.557 878.701 386.664 880.84 384.006 883.039Q370.765 881.977 357.565 880.486L359.016 868.703Z"/>
	<path fill="#425882" d="M217.177 880.932C219.049 880.503 221.061 880.072 222.983 879.946C225.008 879.813 226.195 880.371 227.671 881.74C231.63 885.414 231.961 890.378 232.121 895.406L230.262 896.206L230.741 897.975L233.188 898.366C234.339 901.084 233.836 904.618 234.095 907.554C235.687 908.773 236.553 908.714 238.509 908.982L241.33 910.563C233.203 911.864 225.526 912.333 217.312 912.149C218.113 901.477 218.448 891.571 217.177 880.932Z"/>
	<path fill="#CAD1E3" d="M344.012 926.416C358.05 926.418 464.925 925.157 468.386 927.436L468.956 931.148C454.997 931.006 348.247 932.623 344.503 930.212L344.012 926.416Z"/>
	<path fill="#F99835" d="M1061.62 770.335C1072.87 768.283 1083.61 770.391 1093.03 776.961C1112.51 790.542 1120.79 817.449 1124.65 839.786C1125.06 842.177 1125.43 844.27 1124.68 846.632L1123.4 846.735C1122.92 846.269 1121.91 845.53 1121.6 844.987C1119.66 841.554 1114.71 816.957 1112.32 809.964C1105.97 791.334 1089.42 773.252 1068.68 773.397C1065.1 773.422 1061.57 773.851 1058.02 774.33C1057.49 774.953 1057.7 774.822 1057.09 775.171C1054.02 776.935 1050.85 778.649 1047.99 780.752C1037.14 788.741 1028.07 809.804 1025.1 822.853C1023.69 829.037 1023.33 835.677 1022.44 841.973C1021.97 845.331 1021.88 848.728 1019.01 850.889L1018.01 850.306C1017.48 846.882 1018.39 842.657 1018.82 839.213C1020.96 822.312 1025.33 803.893 1035.01 789.615C1041.41 780.176 1050.23 772.598 1061.62 770.335Z"/>
	<path fill="white" d="M960.398 792.136L974.957 792.249L974.688 850.847L960.37 850.825C960.556 831.26 960.127 811.699 960.398 792.136Z"/>
	<path fill="#0F172A" d="M280.043 138.658L281.187 139.143C283.401 154.8 289.029 169.712 292.312 185.16Q280.463 190.381 268.707 195.808L263.311 198.542C260.786 188.323 257.444 176.818 259.248 166.278C261.396 153.724 270.121 145.656 280.043 138.658Z"/>
	<path fill="#425882" d="M353.463 885.104Q369.41 887.016 385.425 888.224Q386.892 890.829 388.608 893.278C397.998 906.932 419.053 910.186 434.182 912.925L428.229 920.201C420.953 921.928 410.33 920.615 402.742 920.591Q375.539 920.397 348.336 920.668C349.529 908.817 351.654 896.884 353.463 885.104Z"/>
	<path fill="white" d="M262.949 249.38C262.58 250.481 262.134 251.168 262.771 252.286C267.818 261.148 285.164 270.641 294.905 271.821C305.162 273.063 309.224 268.787 316.66 262.965C321.958 265.316 332.027 265.622 335.399 270.009C337.606 279.583 327.701 299.119 323.821 308.064L318.644 319.691C298.382 295.174 271.674 272.171 247.257 251.81Q255.111 250.649 262.949 249.38Z"/>
	<path d="M325.829 271.346C326.717 272.595 326.73 272.89 326.863 274.434C326.348 275.537 325.936 276.308 324.97 277.088C318.216 282.544 308.578 284.176 300.213 283.034C299.618 282.386 299.194 281.747 298.716 281.013C299.906 279.615 308.307 279.372 310.745 278.739C316.663 277.202 320.884 274.881 325.829 271.346Z"/>
	<path fill="#0F172A" d="M260.426 491.366L311.846 494.302C308.334 508.8 303.753 520.435 292.856 531.084C282.069 540.172 268.633 544.252 254.853 545.84C255.618 527.689 258.298 509.408 260.426 491.366Z"/>
	<path fill="white" d="M299.614 133.793C308.396 132.392 319.338 132.791 327.498 136.445C340.923 142.457 346.616 156.937 351.658 169.732Q340.034 170.797 328.464 172.341C317.302 174.872 306.87 179.182 296.12 183.02C291.984 167.696 287.053 152.184 284.863 136.445C289.773 135.257 294.617 134.469 299.614 133.793Z"/>
	<path fill="#0F172A" d="M1015.74 560.859C1021.49 560.198 1027.23 559.768 1033 559.411C1033.19 559.787 1033.4 560.158 1033.56 560.547C1035.33 564.738 1035.13 600.646 1033.63 604.635C1035.54 608.606 1035.57 619.903 1033.97 624.157C1033.81 624.565 1033.45 625.117 1033.24 625.459C1035.43 630.398 1035.29 653.326 1033.4 658.514C1033.22 658.471 1033.04 658.426 1032.86 658.386C1025.1 656.643 1013.66 658.545 1007.2 654.123C1006.15 652.365 1006.4 650.657 1006.47 648.684C1006.75 644.243 1006.61 639.221 1007.75 634.93C1009.3 610.313 1013.3 585.456 1015.74 560.859Z"/>
	<path fill="white" d="M914.588 836.049C927.141 835.76 939.769 836.089 952.329 836.147L952.41 850.648L826.125 850.776L787.619 850.698L787.756 836.832C829.99 835.573 872.361 837.517 914.588 836.049Z"/>
	<path fill="white" d="M715.452 817.746C717.573 817.555 719.955 817.215 722.021 817.863C727.519 819.588 731.869 824.268 734.562 829.184C743.828 846.1 744.491 871.738 739.12 889.812C736.314 899.258 732.035 908.482 723.113 913.384C721.212 913.529 719.068 913.803 717.182 913.469C712.247 912.594 707.659 908.05 705.105 903.977C695.287 888.32 694.382 863.303 698.438 845.661C700.987 834.571 705.473 823.921 715.452 817.746Z"/>
	<path d="M717.221 843.2C720.269 843.966 722.269 844.849 724.288 847.336C729.234 853.427 730.255 862.724 729.5 870.273C728.756 877.713 726.369 883.608 720.603 888.422C720.085 888.409 719.566 888.407 719.048 888.376C716.488 888.224 715.035 887.276 713.382 885.348C708.296 879.416 707.679 868.923 708.457 861.521C709.221 854.251 711.505 847.916 717.221 843.2Z"/>
	<path fill="#0F172A" d="M340.239 568.543C340.36 568.687 340.501 568.817 340.602 568.977C343.747 573.937 348.209 636.065 349.527 647.789C351.428 664.689 354.675 681.879 355.483 698.829C356.003 709.735 354.791 721.043 354.561 731.981Q354.095 759.297 354.752 786.608Q354.997 809.881 355.944 833.137C356.39 842.079 358.498 852.88 357.333 861.641C354.435 862.493 351.518 861.986 348.567 861.679C345.702 848.288 345.205 834.096 344.143 820.446C342.278 796.461 340.416 772.583 340.76 748.5C341.042 728.767 342.703 708.784 341.29 689.089C340.143 673.099 337.108 656.921 334.175 641.163C332.617 632.788 329.697 622.911 329.848 614.424C330.052 603.012 337.292 580.849 340.239 568.543Z"/>
	<path fill="#F99835" d="M720.661 775.859C728.878 775.341 735.779 776.796 742.634 781.546C755.161 790.227 764.382 807.359 767.173 822.214L952.337 820.575L952.366 831.255Q868.525 830.978 784.687 831.867L765.423 832.19C763.98 823.797 760.712 815.682 756.383 808.364C750.861 799.029 742.873 790.478 732.022 787.749C723.356 785.57 714.234 787.325 706.645 791.921C691.469 801.113 684.567 819.167 680.574 835.607C653.306 835.456 625.977 834.946 598.715 835.404L598.68 823.354C626.391 823.46 654.26 823.326 681.954 822.368C685.025 812.801 688.107 803.194 693.653 794.713C700.396 784.403 708.621 778.351 720.661 775.859Z"/>
	<path fill="white" d="M1064 815.817C1069.04 815.214 1073.36 816.206 1077.44 819.22C1086.79 826.124 1090.47 839.482 1091.94 850.431C1094.24 867.581 1092.9 890.624 1081.92 904.601C1078.43 909.053 1074.59 911.915 1068.92 912.61C1066.63 912.896 1064.7 912.705 1062.5 911.971C1055.44 909.614 1051.05 903.334 1048.16 896.826C1039.94 878.332 1039.34 854.554 1046.65 835.645C1050.17 826.543 1054.94 819.759 1064 815.817Z"/>
	<path d="M1063.34 839.819C1065.52 839.451 1067.84 838.92 1069.95 839.814C1073.74 841.42 1076.23 845.262 1077.65 848.978C1081.29 858.543 1081.07 873.117 1076.81 882.468C1075.25 885.887 1073.3 888.328 1069.68 889.696L1068.04 890.47C1066.16 890.329 1064.63 890.145 1063.12 888.915C1058.34 885.017 1056.38 877.35 1055.63 871.519C1054.14 859.951 1056.18 849.089 1063.34 839.819Z"/>
	<path fill="#F7BE87" d="M334.861 184.869C339.426 184.663 343.945 184.48 348.517 184.645C349.079 185.006 349.598 185.162 349.873 185.791C351.898 190.415 350.016 213.535 349.16 219.398C348.697 222.571 347.71 225.706 346.493 228.666C343.839 235.118 340.165 241.404 333.442 244.152C326.748 246.888 319.708 245.461 313.259 242.806C308.924 241.021 306.321 236.95 302.987 233.827C301.669 232.593 300.815 231.774 298.996 231.842L298.267 233.439C298.827 239.103 309.236 243.696 312.807 248.057C314.342 249.93 315.253 252.131 314.888 254.584C314.359 258.136 311.045 262.031 308.15 264.083C303.539 267.352 299.145 267.641 293.712 266.799C282.943 263.175 275.658 257.676 267.113 250.421C275.684 241.75 278.634 234.613 282.145 223.038C284.081 221.819 286.567 220.551 288.113 218.851C289.241 217.612 289.292 217.402 289.221 215.754C286.639 213.861 283.515 216.937 280.104 216.636C277.385 215.091 275.992 213.047 274.983 210.099C273.759 206.528 273.42 201.79 275.287 198.411C276.296 196.585 277.919 195.279 279.943 194.757C283.145 193.932 285.465 196.169 288.121 197.615C289.744 198.499 291.004 198.501 292.728 197.94C296.023 196.867 294.876 192.494 296.199 189.819C303.426 186.301 326.232 185.303 334.861 184.869Z"/>
	<path d="M340.505 192.645C342.971 192.947 344.997 193.187 347.215 194.428C348.459 196.32 348.386 196.485 348.194 198.762C346.057 198.445 343.251 197.704 341.622 196.245C340.263 195.029 340.549 194.304 340.505 192.645Z"/>
	<path d="M316.001 197.712C316.558 197.745 317.122 197.779 317.675 197.86C320.001 198.201 320.946 198.869 322.295 200.632C322.137 202.956 321.652 203.558 320.369 205.55C319.933 205.527 319.417 205.514 318.973 205.448C316.654 205.1 315.579 204.375 314.275 202.59C314.173 200.379 314.756 199.499 316.001 197.712Z"/>
	<path d="M316.405 189.848C317.617 189.77 318.831 189.695 320.046 189.699C322.542 189.706 324.291 190.577 326.006 192.332L325.626 193.564C323.306 194.803 321.142 194.529 318.616 194.396C317.141 194.84 315.264 195.58 313.719 195.322C312.306 195.086 312.059 194.812 311.354 193.648C312.519 191.55 314.349 190.88 316.405 189.848Z"/>
	<path d="M333.207 199.229C334.696 200.264 334.871 200.951 335.641 202.557L336.216 202.893L336.29 204.053C337.587 202.29 338.629 200.945 340.459 199.721C341.997 199.902 342.894 200.084 343.817 201.463C344.836 202.985 344.678 203.861 344.248 205.532C340.305 208.795 339.709 204.917 336.213 205.513C336.579 210.22 339.625 214.091 340.203 218.738C340.525 221.322 339.593 222.715 338.092 224.727C337.115 225.361 335.994 225.86 334.879 226.198C332.986 226.772 330.921 226.297 329.259 225.274C327.456 224.165 326.186 222.705 325.676 220.699L326.648 219.375C328.781 220.147 330.532 221.859 332.721 222.43C334.342 222.853 334.601 222.597 336.041 221.779C337.794 217.318 333.19 205.856 333.207 199.229Z"/>
	<path fill="#0F172A" d="M304.49 406.766L305.687 406.881C306.801 409.845 282.702 463.005 280.121 470.537C292.158 474.951 305.749 477.237 318.251 480.027C332.072 483.112 346.072 486.78 360.091 488.794C353.275 491.165 298.58 487.968 287.428 487.062C261.556 484.342 242.3 480.438 217.145 490.404C219.077 473.674 221.441 456.804 223.822 440.124C247.688 432.044 269.215 419.568 291.96 409.022C294.785 411.54 297.789 413.354 301.348 414.617L301.491 413.781C299.635 411.838 297.802 410.195 295.664 408.568L304.49 406.766Z"/>
	<path fill="white" d="M205.305 265.271C205.976 265.386 206.325 265.41 206.938 265.627C224.772 271.947 243.623 315.538 252.101 332.034C249.19 339.452 244.618 343.743 240.576 350.27C237.185 355.746 235.657 362.214 233.957 368.365L223.237 364.378C213.228 360.354 203.131 356.154 192.851 352.874C185.839 350.636 178.607 349.161 171.632 346.817C179.585 325.802 189.04 278.873 205.305 265.271Z"/>
	<path fill="white" d="M855.23 884.847L925.464 884.601C928.088 901.356 932.581 916.69 942.296 930.779L895.875 930.815L809.206 931.085C818.917 915.904 822.895 902.688 825.963 885.004C835.705 884.766 845.483 884.89 855.23 884.847Z"/>
	<path fill="#0F172A" d="M244.15 490.4L256.088 490.674C255.51 499.105 254.068 507.581 253.139 515.989C250.98 535.551 248.829 555.211 247.182 574.822Q244.297 610.477 241.952 646.172C241.158 657.972 240.805 669.926 239.535 681.675C238.516 691.106 235.401 700.296 234.074 709.72C231.403 728.697 230.503 748.159 229.267 767.274Q227.547 793.8 226.669 820.367C226.386 831.716 226.775 843.197 225.964 854.518C225.801 856.786 225.822 858.692 224.491 860.569L222.563 860.832L209.173 860.425C211.125 829.753 211.677 799.028 213.688 768.38Q219.553 683.369 229.335 598.72C233.392 562.39 237.044 526.3 244.15 490.4Z"/>
	<path fill="#0F172A" d="M1056.43 557.312C1069.38 555.85 1085.9 553.743 1098.81 554.42L1099.8 555.402L1099.1 558.061C1100.9 561.534 1101.85 565.561 1100.64 569.416C1103.91 574.796 1110.3 624.634 1109.39 631.88C1106.23 632.369 1102.72 632.63 1100.61 635.323C1099.63 636.575 1098.83 637.904 1097.81 639.138C1098.87 641.757 1100.12 650.028 1098.86 652.594C1098.71 652.877 1098.55 653.149 1098.4 653.427C1100.53 658.676 1099.27 663.677 1105.38 666.331C1105.95 666.577 1106.18 666.638 1106.82 666.85L1106.45 667.061L1108.09 667.305C1099.86 668.291 1089.69 664.853 1081.38 663.841C1077.09 663.56 1072.86 663.078 1068.59 662.533C1060.29 661.983 1051.94 660.798 1043.63 660.058C1043.77 659.82 1043.92 659.586 1044.05 659.342C1046.02 655.679 1045.5 623.72 1043.93 618.908C1045.08 615.219 1045.08 611.402 1043.84 607.744C1046.03 602.455 1045.42 584.662 1044.08 579.102C1044.19 578.698 1044.36 578.14 1044.43 577.707C1045.23 573.049 1045.41 562.042 1042.9 558.303C1047.42 557.773 1051.89 557.477 1056.43 557.312Z"/>
	<path fill="#0F172A" d="M234.679 253.663C235.731 253.504 236.84 253.339 237.906 253.409C249.797 254.19 306.696 312.808 316.862 324.767C314.158 330.536 302.173 352.566 303.933 357.768L305.192 357.703C314.354 349.285 339.896 284.634 341.702 270.25L352.308 272.939C346.768 286.913 342.439 301.328 336.785 315.282C333.174 324.261 328.718 342.884 323.142 349.648Q322.363 349.739 321.586 349.851C317.159 350.526 316.097 353.031 313.553 356.477C299.829 361.582 290.927 366.536 279.357 375.637Q254.07 379.027 228.957 383.528C229.577 382.012 230.17 380.483 230.8 378.972C232.137 375.758 233.523 374.211 236.809 372.88C236.998 372.803 237.22 372.785 237.382 372.659C239.259 371.201 243.914 354.471 245.475 351.344C247.167 347.953 249.913 345.525 252.308 342.658C254.791 339.684 256.051 336.841 255.634 332.873C254.434 321.475 234.459 287.764 226.911 278.136C222.123 272.027 216.938 266.921 210.854 262.109C218.748 259.04 226.491 255.886 234.679 253.663Z"/>
	<path fill="#F7BE87" d="M325.727 358.81C332.472 358.168 337.022 358.504 343.097 361.683C347.084 363.769 355.234 369.05 356.617 373.404C351.929 375.407 337.005 365.111 330.685 364.823C326.519 364.633 321.455 364.388 318.33 367.313C318.7 368.798 318.955 368.585 320.347 368.99C334.433 373.091 330.801 365.792 346.216 378.969C338.536 377.759 330.305 374.431 322.484 375.108C321.208 375.218 321.169 375.122 320.359 376.049C321.942 378.619 331.75 378.973 335.213 380.529C337.765 381.675 339.807 382.916 340.832 385.6C338.208 387.212 319.712 383.693 314.523 383.952C320.2 386.942 326.798 387.498 332.734 389.937C334.521 390.672 335.89 391.224 336.634 393.055L335.68 394.479C330.335 396.178 322.183 392.066 316.648 391.168C315.75 391.022 315.549 391.461 314.838 391.967L314.769 393.179C318.612 395.998 324.723 395.711 329.05 397.802C330.315 398.413 330.895 398.446 331.349 399.798C330.55 400.452 329.843 400.577 328.844 400.751C323.683 401.65 318.003 401.178 312.755 401.424C306.923 401.696 300.811 402.809 295.11 404.1C278.866 407.781 254.802 422.32 238.026 429.11C225.954 433.947 211.374 440.054 198.207 440.17C192.809 440.217 187.305 438.85 183.477 434.807C180.947 432.135 179.483 428.655 178.684 425.105C175.035 408.894 177.342 376.097 177.814 358.892Q203.556 364.364 228.705 372.12L223.515 384.404C217.697 385.068 201.515 385.398 197.596 389.575L197.978 391.411C203.25 394.423 269.939 381.499 281.375 380.141C295.925 368.048 306.862 361.727 325.727 358.81Z"/>
	<path fill="white" d="M1152.79 885.591C1201.95 884.949 1251.28 885.023 1300.44 885.506C1302.77 888.735 1305.39 905.518 1307.6 911.17C1310.98 919.806 1318.65 925.541 1321.26 930.94C1321.38 931.198 1321.5 931.461 1321.62 931.721L1294.31 931.301Q1209.1 930.728 1123.88 931.12C1130.01 927.436 1134.97 916.103 1137.67 909.42C1139.98 903.68 1144.68 891.523 1142.27 885.862L1152.79 885.591Z"/>
	<path fill="#F99835" d="M1117.56 596.803C1118.73 597.928 1119.87 599.12 1120.53 600.634C1123.33 607.138 1140.47 659.895 1140.43 664.464C1140.43 664.758 1140.41 665.05 1140.4 665.343C1144.22 670.678 1144.79 679.3 1148.08 685.345C1153.98 696.178 1162.88 705.563 1167.86 716.89C1172.72 727.948 1177.41 789.075 1177.73 803.929L1177.69 804.197C1167.33 812.697 1169.98 825.428 1170.61 837.479C1170.74 840.07 1171.43 842.948 1170.66 845.452Q1150.7 845.422 1130.74 845.653C1132.17 842.25 1130.57 836.933 1129.81 833.443C1124.98 811.343 1115.33 783.931 1095.32 771.292C1082.72 763.333 1069.97 762.48 1055.83 765.691C1059.42 761.238 1058.66 754.811 1062.48 750.273C1069.21 742.269 1082.84 744.785 1091.86 743.838C1099.64 743.024 1105.36 738.514 1110.06 732.523C1114.8 726.487 1132.61 697.714 1131.92 691.972C1132.03 691.7 1132.15 691.434 1132.25 691.156C1133.55 687.247 1130.15 678.386 1128.38 674.793C1128.95 674.01 1129.48 673.147 1129.94 672.293C1131.29 669.773 1130.99 667.924 1130.12 665.301C1131.96 660.738 1130.85 639.308 1129.17 634.746C1128.17 633.821 1125.25 632.035 1124.69 631.104C1121.96 626.596 1122.96 606.767 1118.28 598.181C1118.12 597.896 1117.99 597.603 1117.84 597.316C1117.74 597.144 1117.65 596.974 1117.56 596.803Z"/>
	<path fill="white" d="M1186.43 806.071C1198.96 804.775 1212.4 805.716 1225 805.723L1297.32 805.708L1401.28 805.673C1419.72 805.645 1438.55 804.838 1456.95 805.727C1460.64 805.905 1464.98 805.987 1468.09 808.225C1470.91 810.253 1472.51 813.392 1473.11 816.762C1474.37 823.782 1474.86 840.016 1470.44 845.879C1467.89 849.258 1464.26 850.193 1460.31 850.689C1441.27 851.269 1422.14 850.822 1403.09 850.768L1303.92 850.666L1229.86 850.86C1217.89 850.917 1194.78 853.379 1184.14 850.093C1180.86 849.08 1178.56 846.983 1177.1 843.86C1174.59 838.477 1174.53 820.19 1176.89 814.449C1178.78 809.811 1182.05 807.892 1186.43 806.071Z"/>
	<path d="M1430.81 819.574C1433.13 819.386 1435.54 819.58 1437.58 820.794C1439.98 822.219 1441.82 824.718 1442.42 827.442C1442.91 829.663 1442.47 832.125 1441.14 833.984C1439.29 836.572 1436.89 837.056 1433.93 837.42C1432.85 837.417 1431.71 837.419 1430.65 837.202C1428.63 836.789 1426.61 835.597 1425.44 833.877C1424 831.737 1423.83 829.075 1424.4 826.605C1425.28 822.813 1427.68 821.363 1430.81 819.574Z"/>
	<path d="M1232.21 820.324C1234.7 819.854 1237.46 819.548 1239.85 820.531C1242.33 821.551 1244.4 823.667 1245.34 826.186C1246.12 828.291 1245.99 830.549 1244.93 832.532C1243.46 835.27 1241.29 836.506 1238.38 837.254C1237.52 837.586 1236.69 837.598 1235.77 837.617C1233.34 837.667 1231.04 837.452 1229.31 835.574C1227.42 833.528 1227 830.162 1227.27 827.492C1227.64 823.89 1229.56 822.387 1232.21 820.324Z"/>
	<path fill="white" d="M325.895 629.236C328.469 632.55 328.95 642.765 329.681 647.206C332.404 663.742 335.765 680.512 336.566 697.271C337.483 716.471 335.407 735.958 335.377 755.206C335.353 771.057 339.117 855.097 344.058 863.451C345.924 866.608 350.297 867.155 353.564 867.991C353.062 872.008 353.3 876.133 350.981 879.624C343.692 890.594 347.041 909.352 341.096 921.852C339.581 925.037 339.237 927.654 339.129 931.151Q313.47 931.168 287.813 931.504L286.668 931.465C284.538 930.034 284.94 924.522 284.385 921.878C283.101 915.766 278.46 910.858 274.722 906.101C267.022 896.3 266.459 889.57 262.33 878.818C261.5 876.658 259.402 874.184 259.86 871.787C261.087 865.367 268.144 869.17 272.299 866.28C274.654 864.642 275.645 861.594 276.35 858.935C279.01 848.887 280.366 838.08 282.466 827.854C286.509 808.167 290.97 788.559 295.265 768.925L311.891 692.27C316.634 671.303 321.98 650.369 325.895 629.236Z"/>
	<path fill="#F99835" d="M1076.19 539.753C1081.36 539.56 1086.74 539.13 1091.89 539.618C1094.28 539.845 1095.67 540.362 1097.22 542.207C1097.84 544.235 1098.09 544.49 1097.37 546.571C1095.83 547.765 1094.41 548.221 1092.5 548.51C1087.75 549.228 1082.6 548.753 1077.79 549.009C1064.86 549.695 1051.91 550.814 1039 551.728C1031.33 552.27 1022.73 552.153 1015.24 553.82C1013.36 554.238 1012.42 554.976 1011.46 556.6C1008.31 561.945 999.005 652.237 1000.88 658.803C1005.8 662.188 1088.78 672.171 1101.69 673.297C1108.37 673.879 1115.06 673.758 1121.76 673.644C1122.14 674.079 1122.3 674.214 1122.58 674.68C1124.31 677.526 1126.54 687.142 1125.84 690.439C1126.1 691.934 1125.57 693.146 1125.01 694.501C1120.5 705.273 1109.5 727.185 1100.5 733.984C1096.85 736.74 1092.66 737.833 1088.14 738.049C1080.41 738.419 1072.79 737.757 1065.5 740.861C1052.26 746.492 1055.29 756.53 1050.39 767.311C1049.7 768.837 1048.74 768.78 1047.26 769.268C1043.52 773.287 1038.5 775.873 1034.85 780.236C1018.41 799.903 1015.34 826.718 1012.37 851.205L981.63 851.235Q981.312 799.358 982.186 747.488C982.494 729.328 982.393 710.989 983.931 692.879C985.076 679.403 989.109 666.805 991.544 653.598C993.974 640.416 994.918 626.643 996.284 613.31Q998.019 596.966 999.254 580.577C999.844 572.921 999.688 563.792 1001.79 556.417C1002.51 553.87 1004.14 551.419 1005.88 549.456C1008.9 546.062 1012.37 544.346 1016.7 543.219C1023.76 541.38 1032.17 541.727 1039.44 541.423Q1057.82 540.756 1076.19 539.753Z"/>
	<path d="M1004.42 695.559C1013.44 695.117 1025.97 693.532 1034.61 695.735C1036.54 696.227 1038.19 696.875 1039.17 698.706C1040.4 700.977 1039.95 704.2 1039.07 706.507C1038.23 708.7 1037.14 708.971 1035.16 709.92C1034.81 710.124 1034.62 710.263 1034.19 710.341C1027.26 711.57 1008.23 711.575 1003.1 706.806C1001.91 705.704 1001.12 704.192 1001.14 702.547C1001.18 699.764 1002.43 697.429 1004.42 695.559Z"/>
	<path fill="#F99835" d="M964.306 469.637C999.508 471.237 1034.83 471.329 1070.06 472.148L1275.31 476.574C1275.67 477.212 1275.87 477.485 1276.09 478.145C1277.47 482.206 1276.93 530.967 1275.41 534.027L1181.74 534.023C1161.77 533.995 1141.48 533.231 1121.55 534.044C1112.9 534.396 1109.63 538.15 1104.12 544.151C1104.13 544.005 1104.17 543.858 1104.16 543.712C1103.95 541.471 1102.61 538.737 1100.95 537.227C1093.16 530.137 1052.76 535.362 1040.81 535.65C1027.96 536.503 1012.48 534.28 1002.56 544.278C999.096 547.768 996.844 552.216 995.781 556.997C993.366 567.852 993.218 579.912 992.18 591.029C990.358 610.536 988.367 630.135 985.876 649.567C983.998 664.211 978.658 677.882 977.479 692.802C975.173 721.979 975.338 751.768 975.22 781.035L964.368 781.017L964.306 469.637Z"/>
	<path fill="#F99835" d="M810.908 480.423L820.461 479.732L820.51 816.076L771.353 816.54C769.001 809.026 766.166 802.179 762.279 795.332C754.417 782.916 744.685 774.265 730.558 769.967L730.43 486.441C757.182 485.499 784.189 482.432 810.908 480.423Z"/>
	<path d="M747.954 645.485L756.545 645.167C756.556 654.452 758.23 665.698 755.924 674.7C754.287 676.542 754.045 676.22 751.687 676.361L740.363 676.364C740.269 666.824 739.344 656.071 740.781 646.669C742.762 645.263 745.597 645.566 747.954 645.485Z"/>
	<path fill="#F99835" d="M717.256 487.308C719.568 487.02 721.801 486.591 724.113 487.051C724.98 488.117 725.118 488.721 725.178 490.119C725.65 501.106 725.227 512.295 725.205 523.303L725.1 586.47L725.296 769.382C719.72 769.723 714.867 770.514 709.727 772.821C691.617 780.945 683.957 799.546 677.457 816.907L605.813 817.577C604.059 817.663 602.521 817.642 600.786 817.363C600.494 816.855 600.093 816.395 599.91 815.838C599.047 813.217 599.925 764.842 599.917 756.693L600.063 495.668L717.256 487.308Z"/>
	<path fill="white" d="M366.098 247.965C382.006 251.874 397.65 256.962 413.37 261.563C428.633 266.03 444.178 270.026 459.185 275.286L463.148 275.105C470.281 274.333 544.589 272.671 546.825 273.352C547.312 273.5 547.681 273.904 548.109 274.18L548.028 275.513L545.536 283.381C539.067 310.754 530.592 338.59 523.001 365.764C516.924 366.454 503.941 366.422 499.666 371.49C498.028 373.43 497.666 375.828 497.934 378.285C498.951 387.599 506.915 397.718 514.233 403.087C514.679 403.415 515.145 403.716 515.607 404.021Q492.876 443.711 471.021 483.891L470.11 485.089L467.467 485.409C442.731 486.307 418.017 488.382 393.29 489.558C391.626 490.461 391.683 490.337 389.828 489.863C378.337 486.571 365.962 484.95 354.218 482.515Q320.265 475.415 286.535 467.323L292.085 454.181L294.257 449.323C300.198 434.779 306.542 420.454 311.856 405.66C318.401 405.705 327.794 408.072 333.521 404.274C339.234 400.485 346.335 383.68 347.982 376.953Q349.225 377.522 350.482 378.058C353.844 379.489 356.258 380.222 359.818 378.798C361.069 377.386 361.687 376.748 361.568 374.709C361.325 370.58 357.468 366.511 354.502 363.932C346.681 357.132 338.254 353.189 327.834 353.878C335.235 334.063 343.181 314.344 349.979 294.319L351.412 290.314C356.398 276.245 361.597 262.195 366.098 247.965Z"/>
	<path fill="#F99835" d="M459.185 275.286L463.148 275.105C459.89 285.239 437.562 350.013 438.434 353.483L440.201 353.279C447.433 346.258 458.143 340.359 466.491 334.58Q490.227 318.025 513.66 301.045C523.162 290.789 538.026 285.42 548.028 275.513L545.536 283.381C535.114 287.738 524.29 300.831 515.263 304.12C499.578 317.793 480.801 329.326 463.629 341.182C457.152 345.655 450.12 351.654 443.175 355.067L435.203 360.476C432.544 369.477 420.73 400.73 421.632 407.216L424.396 411.601C430.004 420.727 466.603 481.214 471.021 483.891L470.11 485.089L467.467 485.409C461.082 477.802 455.909 468.881 450.602 460.504C440.505 444.567 430.832 428.353 420.892 412.316L419.452 411.492C416.542 414.338 396.292 480.889 393.29 489.558C391.626 490.461 391.683 490.337 389.828 489.863C398.349 461.622 407.823 433.779 417.065 405.775C421.06 393.671 427.277 377.671 429.925 365.482L429.039 364.664C421.956 369.813 414.76 375.076 407.08 379.312C400.319 384.142 383.197 396.927 376.487 399.459C366.638 407.126 355.796 413.803 345.345 420.615C331.987 429.322 318.674 438.124 305.214 446.67C301.098 449.669 296.834 452.295 292.085 454.181L294.257 449.323C297.157 447.719 299.97 445.879 302.806 444.159C306.086 440.53 315.401 435.668 319.88 432.721C336.958 421.486 354.229 410.535 371.059 398.93Q389.476 386.164 408.606 374.492C410.513 371.953 422.911 363.961 426.037 362.707C427.679 361.515 429.022 360.41 430.293 358.823C429.29 354.941 400.341 333.81 395.306 329.775Q381.971 319.498 368.899 308.889C362.76 303.925 356.716 298.455 349.979 294.319L351.412 290.314C359.782 298.154 393.001 320.798 396.862 326.496C409.509 335.001 421.414 345.739 433.287 355.35Q446.541 315.417 459.185 275.286Z"/>
	<path fill="white" d="M393.29 489.558C396.292 480.889 416.542 414.338 419.452 411.492L420.892 412.316C430.832 428.353 440.505 444.567 450.602 460.504C455.909 468.881 461.082 477.802 467.467 485.409C442.731 486.307 418.017 488.382 393.29 489.558Z"/>
	<path fill="white" d="M463.148 275.105C470.281 274.333 544.589 272.671 546.825 273.352C547.312 273.5 547.681 273.904 548.109 274.18L548.028 275.513C538.026 285.42 523.162 290.789 513.66 301.045Q490.227 318.025 466.491 334.58C458.143 340.359 447.433 346.258 440.201 353.279L438.434 353.483C437.562 350.013 459.89 285.239 463.148 275.105Z"/>
	<path fill="white" d="M366.098 247.965C382.006 251.874 397.65 256.962 413.37 261.563C428.633 266.03 444.178 270.026 459.185 275.286Q446.541 315.417 433.287 355.35C421.414 345.739 409.509 335.001 396.862 326.496C393.001 320.798 359.782 298.154 351.412 290.314C356.398 276.245 361.597 262.195 366.098 247.965Z"/>
	<path fill="white" d="M349.979 294.319C356.716 298.455 362.76 303.925 368.899 308.889Q381.971 319.498 395.306 329.775C400.341 333.81 429.29 354.941 430.293 358.823C429.022 360.41 427.679 361.515 426.037 362.707C422.911 363.961 410.513 371.953 408.606 374.492Q389.476 386.164 371.059 398.93C354.229 410.535 336.958 421.486 319.88 432.721C315.401 435.668 306.086 440.53 302.806 444.159C299.97 445.879 297.157 447.719 294.257 449.323C300.198 434.779 306.542 420.454 311.856 405.66C318.401 405.705 327.794 408.072 333.521 404.274C339.234 400.485 346.335 383.68 347.982 376.953Q349.225 377.522 350.482 378.058C353.844 379.489 356.258 380.222 359.818 378.798C361.069 377.386 361.687 376.748 361.568 374.709C361.325 370.58 357.468 366.511 354.502 363.932C346.681 357.132 338.254 353.189 327.834 353.878C335.235 334.063 343.181 314.344 349.979 294.319Z"/>
	<path fill="white" d="M515.263 304.12C524.29 300.831 535.114 287.738 545.536 283.381C539.067 310.754 530.592 338.59 523.001 365.764C516.924 366.454 503.941 366.422 499.666 371.49C498.028 373.43 497.666 375.828 497.934 378.285C498.951 387.599 506.915 397.718 514.233 403.087C514.679 403.415 515.145 403.716 515.607 404.021Q492.876 443.711 471.021 483.891C466.603 481.214 430.004 420.727 424.396 411.601L421.632 407.216C420.73 400.73 432.544 369.477 435.203 360.476L443.175 355.067C450.12 351.654 457.152 345.655 463.629 341.182C480.801 329.326 499.578 317.793 515.263 304.12Z"/>
	<path fill="#0F172A" d="M315.345 494.342Q344.914 495.457 374.503 495.259C375.353 497.635 376.328 500.048 377.809 502.108C385.502 512.807 400.904 516.153 413.178 518.267Q418.703 601.188 416.835 684.271C416.013 715.249 413.973 746.229 412.169 777.164L408.866 826.335C408.157 837.418 408.062 848.954 406.215 859.882C392.083 863.462 376.859 862.577 362.377 862.377C362.061 850.847 360.956 839.301 360.459 827.769C359.095 796.065 358.162 764.061 358.908 732.333C359.129 722.912 358.397 712.099 360.073 702.873C360.737 702.421 361.315 702.102 362.061 701.783C362.31 701.677 362.562 701.578 362.813 701.476L362.88 699.671C361.666 698.256 359.893 696.392 359.398 694.562C357.517 687.612 356.316 667.808 355.418 659.327C351.863 625.722 349.805 590.998 343.322 557.82C349.606 554.03 360.534 547.803 364.649 541.71C365.682 540.181 365.53 539.395 365.091 537.7C363.461 535.987 362.442 535.476 360.11 535.103C360.156 536.361 360.29 537.83 360.108 539.072C359.388 543.968 343.642 552.009 339.438 555.723L338.937 556.172C335.216 573.197 330.357 590.054 326.072 606.95Q314.788 651.48 304.879 696.336L280.341 807.197C276.435 824.879 273.808 843.845 268.32 861.058C255.962 862.404 242.741 861.344 230.302 861.208C231.464 814.804 232.58 768.649 236.977 722.389C238.428 707.123 242.697 692.412 244.077 677.151C247.881 635.078 250.135 592.85 253.869 550.752C267.755 549.267 281.659 545.044 292.972 536.612C306.685 526.392 313.059 510.845 315.345 494.342Z"/>
	<path fill="#F99835" d="M944.598 470.675C947.756 470.259 951.17 470.359 954.366 470.222C953.275 489.694 953.828 509.463 953.788 528.977L953.859 635.26L953.554 773.441C953.438 786.999 952.169 800.453 952.209 814.067Q893.302 815.632 834.374 815.706L825.918 815.808C825.482 703.703 827.138 591.538 825.773 479.439C840.234 479.015 854.774 477.451 869.205 476.327L944.598 470.675Z"/>
	<path d="M845.723 644.013C849.594 643.791 853.491 643.758 857.368 643.641C857.438 653.808 858.062 664.31 857.138 674.43C855.757 675.699 854.771 675.378 852.937 675.455L840.795 675.603C840.707 665.584 840.25 655.408 840.927 645.412C842.243 644.022 843.875 644.228 845.723 644.013Z"/>
	<path fill="#F99835" d="M1122.65 539.757Q1200.84 539.338 1279.04 539.831L1328.93 539.959C1338.48 539.977 1348.5 539.362 1357.96 540.493C1361.02 540.858 1365 541.006 1366.95 543.643C1368.87 546.243 1370.17 549.437 1371.23 552.467C1378.08 572.024 1382.86 592.743 1388.61 612.67C1393.89 630.98 1400.26 649.176 1404.75 667.687C1405.11 669.164 1405.18 670.132 1404.94 671.625C1405.58 671.916 1405.63 671.922 1406.33 672.344C1424.12 683.013 1451.12 706.315 1456.37 726.936C1457.82 732.624 1458.52 797.579 1456.71 800.684L1444.31 800.699L1272.75 799.818C1242.71 799.692 1212.17 798.578 1182.2 800.623C1184.08 796.518 1177.44 726.756 1175.01 719.319C1170.25 704.732 1158.51 693.59 1152.15 679.792C1149.5 674.021 1148.09 667.44 1146.21 661.365L1135.92 628.861Q1128.67 606.083 1121.13 583.403C1117.61 572.717 1113.22 561.72 1111.6 550.559C1111.21 547.863 1111.03 545.425 1112.88 543.187C1115.31 540.237 1119.14 540.003 1122.65 539.757Z"/>
	<path d="M1256.06 754.307C1264.51 752.32 1292.55 753.941 1302.98 753.974C1327.87 754.054 1353.05 753.108 1377.91 753.867C1380.96 753.96 1384.96 753.894 1387.79 755.195C1389.28 755.88 1389.41 756.084 1390 757.581C1389.1 759.273 1388.33 759.994 1386.75 761.062L1385.65 761.894C1377.58 762.672 1369.29 762.272 1361.17 762.271L1318.09 762.206C1299.72 762.211 1280.46 763.811 1262.2 762.494C1259.52 762.3 1258.29 762.025 1256.2 760.334C1255.3 758.299 1255.77 756.436 1256.06 754.307Z"/>
	<path d="M1257.03 783.565C1268.1 782.548 1280 783.647 1291.19 783.703L1361.81 783.781C1369.21 783.772 1385.09 781.897 1390.34 787.129L1390.27 788.461C1388.98 789.662 1387.77 790.485 1386.23 791.337C1381.91 792.87 1266.7 793.198 1259.31 792.076C1257.38 791.783 1256.9 790.894 1255.83 789.46C1255.49 786.995 1255.89 785.754 1257.03 783.565Z"/>
	<path d="M1257.58 768.561C1269.27 766.881 1292.74 768.523 1306.02 768.6L1359.3 768.906C1366.18 768.925 1373.13 768.374 1379.99 768.664C1382.33 768.763 1385.64 768.889 1387.6 770.259C1388.92 771.182 1388.85 771.9 1389.16 773.336C1388.17 775.663 1387.72 775.621 1385.43 776.792C1380.3 778.293 1355.82 777.186 1348.46 777.194C1318.8 777.223 1288.72 778.307 1259.12 776.965C1257.31 775.908 1257.13 775.653 1256.18 773.782C1256.09 771.617 1256.53 770.441 1257.58 768.561Z"/>
	<path d="M1257.47 738.554C1257.6 738.538 1257.74 738.519 1257.88 738.504C1270.79 737.109 1291.73 738.401 1305.57 738.353L1357.23 738.27C1366.78 738.266 1376.56 737.843 1386.08 738.482C1388.27 738.628 1389.81 738.866 1391.55 740.291C1392.09 741.762 1392.43 742.648 1391.63 744.127C1390.64 745.954 1389.4 746.031 1387.59 746.485C1360.74 747.613 1333.43 746.655 1306.53 746.819C1295.78 746.885 1267.04 748.428 1258.24 746.564C1256.45 746.184 1256.45 746.111 1255.39 744.579C1255.39 742.112 1256.26 740.619 1257.47 738.554Z"/>
	<path d="M1190.72 706.296C1203.59 704.846 1389.96 705.333 1394.05 706.791C1395.47 707.294 1395.61 707.462 1396.22 708.737C1395.7 711.006 1395.66 710.969 1393.74 712.3C1393.06 712.485 1392.45 712.568 1391.75 712.598C1376.26 713.258 1360.6 712.659 1345.09 712.603Q1307.43 712.732 1269.78 712.398Q1244.25 712.124 1218.72 712.152C1210.65 712.16 1202.37 712.675 1194.31 712.285C1192.23 712.185 1191.19 711.854 1189.66 710.477C1189.57 708.447 1189.83 708.047 1190.72 706.296Z"/>
	<path d="M1400.49 753.559C1405.96 753.173 1444.07 752.268 1446.96 753.214C1448.84 753.829 1450.27 755.235 1451.12 757C1453.35 761.657 1453.66 777.174 1451.21 782.044C1450.18 784.09 1448.89 784.092 1446.89 784.596C1437.51 784.589 1428.13 784.517 1418.76 784.635C1414.33 784.691 1409.68 785.229 1405.27 784.933C1402.8 784.767 1400.49 783.784 1398.94 781.796C1395.95 777.951 1396.53 771.103 1396.96 766.553C1397.34 762.494 1397.18 756.292 1400.49 753.559Z"/>
	<path fill="white" d="M1402.86 758.81C1416.96 757.967 1431.35 758.505 1445.48 758.523C1447.65 762.087 1447.13 769.679 1446.84 773.852C1446.65 776.572 1446.85 777.442 1444.76 779.28C1430.43 779.531 1416.05 779.285 1401.72 779.265C1404.32 774.357 1402.93 764.358 1402.86 758.81Z"/>
	<path d="M1190.13 752.807C1197.99 751.777 1237.9 751.199 1243.36 753.635C1244.89 754.318 1245.97 756.285 1246.53 757.775C1248.74 763.554 1248.67 775.253 1245.81 780.732C1244.54 783.176 1243.09 783.58 1240.65 784.317C1240.09 784.416 1239.56 784.511 1238.99 784.539C1231.65 784.9 1191.82 786.072 1188.26 782.602C1183.86 778.302 1184.86 767.684 1185.14 761.96C1185.36 757.629 1187.04 755.503 1190.13 752.807Z"/>
	<path fill="white" d="M1190.63 758.808C1199.71 756.68 1229.89 757.616 1239.8 758.686C1241.04 760.411 1241.35 761.841 1241.55 763.951C1241.97 768.391 1242.69 774.024 1239.77 777.568L1239.45 777.956C1235.15 779.858 1196.84 779.167 1189.79 778.635C1192.23 774.361 1190.89 763.761 1190.63 758.808Z"/>
	<path d="M1121.82 546.506C1131.13 545.245 1141.52 546.053 1150.95 546.064L1205.87 546.172L1297.26 546.453C1314.25 546.49 1331.52 545.903 1348.49 546.785C1353.3 547.035 1359.26 546.923 1362.61 550.76C1364.82 553.297 1366.4 556.657 1367.53 559.8C1370.65 568.446 1399.31 664.926 1399.14 667.86C1397.52 669.824 1396.78 669.681 1394.36 670.253L1240.14 670.413C1215.56 670.393 1190.52 671.598 1166 670.483C1163.51 670.37 1155.6 670.014 1153.84 668.406C1151.03 665.826 1146.91 646.513 1145.65 641.96Q1137.77 614.074 1129.34 586.352C1126.14 575.926 1121.66 564.788 1119.94 554.078C1119.41 550.802 1119.88 549.171 1121.82 546.506Z"/>
	<path fill="#0F172A" d="M1124.57 552.586C1148.39 552.222 1172.31 552.803 1196.15 552.88C1219.59 552.957 1243.08 552.52 1266.52 552.982C1269.46 552.936 1272.75 552.614 1275.64 553.006L1284.38 553.008C1293.35 552.806 1346.05 551.626 1350.58 553.511C1353.67 553.589 1356.39 553.551 1358.72 555.94C1359.78 557.03 1360.48 558.327 1360.98 559.754C1364.44 569.641 1366.54 580.163 1369.61 590.216C1376.9 614.078 1384.7 637.924 1391.18 662.015L1390.74 663.089C1385.68 664.923 1340.74 663.79 1331.85 663.799C1288.62 663.844 1245.31 664.433 1202.08 663.796C1190.69 664.57 1178.9 663.995 1167.48 663.832Q1165.64 663.98 1163.8 664.062C1160.64 664.18 1159.34 663.76 1157.05 661.65C1157.1 661.267 1157.2 660.654 1157.19 660.237C1157.06 653.193 1130.91 567.692 1126.82 556.052C1126.34 554.689 1125.55 553.635 1124.57 552.586Z"/>
</svg>
