<?xml version="1.0" encoding="utf-8" ?>
<svg xmlns="http://www.w3.org/2000/svg" xmlns:xlink="http://www.w3.org/1999/xlink" width="1476" height="984">
	<path fill="white" transform="scale(0.961159 0.961159)" d="M0 0L1534.69 0C1535.54 1.34434 1535.84 2.50848 1535.91 4.09208C1536.57 18.5072 1536 33.1619 1536 47.604L1536.01 132.471L1536.01 391.421L1536.01 865.91L1536 981.169C1536 989.131 1537.19 1015.2 1535.79 1021.39C1535.57 1022.35 1535.21 1023.17 1534.69 1024L946.135 1024L934.361 1024L930.675 1024L920.635 1024L866.658 1024L812.641 1024L788.082 1024L695.509 1024L687.82 1024L655.479 1024L619.109 1024L602.524 1024L587.444 1024L571.041 1024L432.016 1024L415.177 1024L396.626 1024L395.751 1024L381.353 1024L340.025 1024L308.418 1024L257.915 1024L232.441 1024L0 1024L0 0Z"/>
	<path fill="#F99835" transform="scale(0.961159 0.961159)" d="M60.8645 50.1543L621.149 49.2624C612.522 55.5257 603.334 61.492 595.46 68.688C570.95 67.2156 545.918 67.7674 521.358 67.8868L418.885 68.2812L78.6737 68.864L66.3741 658.245Q62.9538 802.652 61.4889 947.093C123.663 947.009 185.88 948.272 248.049 947.517C246.468 953.428 244.509 959.501 243.529 965.533C220.84 964.172 197.573 965.196 174.839 965.094L44.2273 964.35C43.9181 893.549 45.8363 822.613 47.0908 751.818L56.1449 308.694Q59.2549 179.438 60.8645 50.1543Z"/>
	<path fill="#F99835" transform="scale(0.961159 0.961159)" d="M841.431 47.7032C849.865 46.6788 858.924 47.2471 867.431 47.2964L913.343 47.5354L1073.53 47.4444L1376.36 46.2541C1415.97 45.9858 1455.63 44.895 1495.23 45.0872C1495.89 46.3643 1496.2 47.4384 1496.29 48.8668C1496.82 57.967 1496.2 67.4409 1496.03 76.5696L1494.84 130.445L1491.43 297.673L1480.53 853.923L1478.6 933.287C1478.43 942.643 1479.35 970.483 1477.33 977.327C1477.16 977.903 1476.87 978.451 1476.6 978.984C1476.54 979.108 1476.48 979.234 1476.42 979.358L1064.94 977.018L970.821 976.587C962.674 976.545 943.863 974.963 936.961 976.685C935.973 970.399 934.387 964.1 933.078 957.866L1287.87 960.858C1345.07 961.248 1402.52 960.475 1459.68 962.398C1459.75 962.277 1459.81 962.155 1459.87 962.036C1460.15 961.529 1460.45 961.003 1460.63 960.45C1462.63 954.092 1461.74 924.626 1461.97 916.354Q1464.43 830.358 1465.76 744.337L1477.94 76.0909C1477.97 72.3882 1478.74 67.0027 1476.86 63.7941L1021.34 65.4186L917.547 65.5651C909.615 65.5831 882.75 64.2587 876.899 66.2593Q859.538 56.2688 841.431 47.7032Z"/>
	<path fill="white" transform="scale(0.961159 0.961159)" d="M78.6737 68.864L418.885 68.2812L521.358 67.8868C545.918 67.7674 570.95 67.2156 595.46 68.688C586.537 77.4021 577.67 85.866 570.11 95.8317C531.311 96.6964 492.418 96.0276 453.609 95.9922L240.256 96.1419L162.557 96.6999C147.062 96.7392 131.015 95.8998 115.585 97.1313C112.251 97.3973 110.266 97.456 107.909 99.9113C105.098 107.187 105.284 221.936 105.084 237.05L103.578 308.059L97.2644 710.638L94.8909 847.075L93.92 890.164C93.6995 900.575 92.9281 911.411 94.5376 921.725L95.3018 922.794C108.348 924.695 122.75 923.629 135.947 923.685Q174.951 923.763 213.952 924.243C227.363 924.328 241.454 923.448 254.778 924.628Q251.311 936.042 248.049 947.517C185.88 948.272 123.663 947.009 61.4889 947.093Q62.9537 802.652 66.3741 658.245L78.6737 68.864Z"/>
	<path fill="white" transform="scale(0.961159 0.961159)" d="M876.899 66.2593C882.75 64.2587 909.615 65.5831 917.547 65.5651L1021.34 65.4186L1476.86 63.7941C1478.74 67.0027 1477.97 72.3882 1477.94 76.0909L1465.76 744.337Q1464.43 830.358 1461.97 916.354C1461.74 924.626 1462.63 954.092 1460.63 960.45C1460.45 961.003 1460.15 961.529 1459.87 962.036C1459.81 962.155 1459.75 962.277 1459.68 962.398C1402.52 960.475 1345.07 961.248 1287.87 960.858L933.078 957.866C931.121 949.087 929.257 940.289 926.657 931.673C974.754 931.337 1426.59 938.195 1430.83 935.765C1431.96 935.114 1432.67 932.794 1432.97 931.623C1434.84 924.327 1433.93 914.585 1434.09 906.941Q1434.77 877.33 1435.04 847.712L1438.51 649.742Q1442.66 467.758 1444.81 285.739L1446.88 169.009C1447.39 146.957 1449.27 123.006 1448.08 101.251C1447.93 98.4711 1447.91 95.3581 1446.46 92.9171C1434.83 90.9716 1414.76 92.5332 1402.17 92.5161L1291.71 92.7462Q1103.54 93.8438 915.362 93.0252C902.728 83.5425 890.569 74.2823 876.899 66.2593Z"/>
	<path fill="#F99835" transform="scale(0.961159 0.961159)" d="M254.778 924.628C241.454 923.448 227.363 924.328 213.952 924.243Q174.951 923.763 135.947 923.685C122.75 923.629 108.348 924.695 95.3018 922.794L94.5376 921.725C92.9281 911.411 93.6995 900.575 93.92 890.164L94.8909 847.075L97.2644 710.638L103.578 308.059L105.084 237.05C105.284 221.936 105.098 107.187 107.909 99.9113C110.266 97.456 112.251 97.3973 115.585 97.1313C131.015 95.8998 147.062 96.7392 162.557 96.6999L240.256 96.1419L453.609 95.9922C492.418 96.0276 531.311 96.6964 570.11 95.8317L563.761 104.402C526.718 156.122 506.898 228.238 517.292 291.452C521.097 314.592 530.891 335.151 538.192 357.211C541.434 367.005 543.585 376.884 545.438 387.017C525.924 380.083 482.36 363.109 462.974 372.479C458.172 374.8 454.379 378.584 451.423 382.973C446.455 390.348 443.374 399.492 439.743 407.587C434.272 419.784 428.542 432.006 422.568 443.962L419.121 451.469Q404.056 482.459 389.559 513.719C383.194 527.595 377.432 542.162 370.214 555.596C365.084 565.144 358.108 573.556 352.7 582.92C349.911 587.722 347.19 592.568 344.043 597.147C339.256 606.713 334.652 616.354 331.164 626.483C330.399 629.212 329.438 632.024 328.889 634.797C324.626 651.856 322.407 670.94 332.049 686.707C336.614 694.171 343.263 699.402 351.314 702.683C307.839 773.673 281.902 837.082 257.247 916.163C256.399 918.859 255.193 921.843 254.778 924.628Z"/>
	<path fill="white" transform="scale(0.961159 0.961159)" d="M344.079 508.01C347.178 507.49 350.363 507.345 353.396 508.3Q354.131 508.535 354.839 508.841Q355.547 509.146 356.223 509.518Q356.898 509.891 357.535 510.327Q358.171 510.762 358.762 511.258Q359.353 511.753 359.894 512.304Q360.435 512.854 360.92 513.454Q361.404 514.054 361.829 514.698Q362.254 515.342 362.614 516.024C364.656 519.91 365.096 524.596 363.588 528.745C361.856 533.51 358.621 535.889 354.133 537.886C351.289 538.556 347.724 538.917 344.857 538.215C341.194 537.318 337.907 534.773 336.041 531.507C333.863 527.691 333.463 522.96 334.662 518.767C336.176 513.473 339.375 510.557 344.079 508.01Z"/>
	<path fill="white" transform="scale(0.961159 0.961159)" d="M357.048 421.468C382.891 423.227 400.224 434.985 419.121 451.469Q404.056 482.459 389.559 513.719C383.194 527.595 377.432 542.162 370.214 555.596C365.084 565.144 358.108 573.556 352.7 582.92C351.443 571.312 353.331 558.188 353.782 546.403C355.397 545.94 357.027 545.477 358.598 544.878C364.161 542.755 368.892 537.89 371.227 532.46Q371.458 531.938 371.662 531.405Q371.866 530.872 372.043 530.329Q372.221 529.787 372.371 529.236Q372.521 528.686 372.644 528.128Q372.766 527.571 372.861 527.008Q372.955 526.445 373.021 525.878Q373.088 525.311 373.126 524.741Q373.163 524.172 373.173 523.601Q373.182 523.03 373.163 522.46Q373.144 521.889 373.097 521.32Q373.049 520.751 372.974 520.186Q372.898 519.62 372.794 519.059Q372.69 518.497 372.558 517.942Q372.427 517.387 372.267 516.839Q372.108 516.291 371.922 515.751Q371.735 515.212 371.522 514.682C368.575 507.499 362.835 503.634 355.916 500.778L357.048 421.468Z"/>
	<path fill="white" transform="scale(0.961159 0.961159)" d="M331.164 626.483C306.843 626.047 283.562 614.753 266.113 598.081C247.414 580.213 236.342 553.999 235.722 528.29Q235.695 527.017 235.7 525.744Q235.704 524.471 235.74 523.199Q235.776 521.926 235.842 520.655Q235.909 519.384 236.007 518.114Q236.106 516.845 236.235 515.579Q236.364 514.312 236.524 513.049Q236.684 511.786 236.875 510.528Q237.066 509.269 237.288 508.016Q237.51 506.762 237.763 505.515Q238.015 504.267 238.299 503.026Q238.582 501.785 238.895 500.551Q239.209 499.317 239.552 498.091Q239.896 496.865 240.27 495.648Q240.643 494.432 241.046 493.224Q241.45 492.017 241.883 490.82Q242.316 489.622 242.778 488.436Q243.24 487.25 243.731 486.076Q244.222 484.901 244.741 483.739Q245.261 482.577 245.809 481.428Q246.357 480.279 246.933 479.144Q247.509 478.009 248.113 476.888Q248.717 475.767 249.348 474.662Q249.979 473.556 250.637 472.467Q251.294 471.377 251.979 470.304Q252.663 469.23 253.374 468.174Q254.085 467.118 254.821 466.08Q255.557 465.041 256.319 464.021Q257.08 463.001 257.866 462Q258.653 460.999 259.463 460.018Q260.274 459.036 261.108 458.075Q261.943 457.114 262.801 456.174Q263.658 455.233 264.539 454.314C287.132 430.968 317.493 421.341 349.242 420.858Q347.99 460.335 347.678 499.831C344.689 500.464 341.589 501.105 338.824 502.452C333.478 505.056 329.134 510.057 327.192 515.657C325.108 521.669 325.434 528.65 328.295 534.357C331.934 541.613 338.033 544.734 345.424 547.18C344.89 563.675 343.437 580.672 344.043 597.147C339.256 606.713 334.652 616.354 331.164 626.483Z"/>
	<path fill="white" transform="scale(0.961159 0.961159)" d="M104.457 735.991Q165.102 736.236 225.739 737.304C225.663 757.398 224.248 777.707 223.615 797.82Q222.314 837.647 220.384 877.448C219.873 889.575 219.827 901.714 219.113 913.832L218.607 915.541C213.623 917.146 115.64 915.542 101.429 915.361L104.457 735.991Z"/>
	<path fill="#F99835" transform="scale(0.961159 0.961159)" d="M202.925 840.167L203.698 840.13L204.61 840.984C205.22 846.201 204.734 851.616 204.548 856.856C197.497 859.746 188.855 861.103 182.359 865.065C180.747 866.049 180.589 866.448 180.187 868.28C180.83 870.027 180.949 870.091 182.493 871.151C187.203 871.582 198.965 866.559 203.958 865.007C204.005 870.569 203.836 876.151 203.756 881.713C196.428 884.876 187.793 886.037 180.819 889.818L180.364 891.404Q180.037 899.54 179.437 907.66C173.849 907.743 168.216 908.168 162.633 908.443L164.271 853.757C176.986 848.834 190.127 844.91 202.925 840.167Z"/>
	<path fill="white" transform="scale(0.961159 0.961159)" d="M114.915 104.481C155.966 103.637 197.387 103.871 238.443 104.563C237.273 126.753 237.195 149.121 236.692 171.34L233.887 314.015C222.47 314.737 210.4 313.752 198.904 313.671L111.664 312.697C111.685 243.337 113.877 173.847 114.915 104.481Z"/>
	<path fill="#F99835" transform="scale(0.961159 0.961159)" d="M218.137 201.04C218.991 201.094 219.035 201.305 219.676 201.825C220.547 206.787 220.366 211.902 220.4 216.925C215.169 219.44 199.256 225.25 196.228 228.61C195.918 229.776 195.726 230.273 196.09 231.48C196.431 232.609 197.043 232.558 198.031 233.042C204.682 233.047 212.787 228.476 218.873 225.968L219.263 242.035C212.921 244.658 204.169 246.258 198.84 250.659C196.902 252.259 197.198 253.461 197.067 255.788C197.034 257.605 197.209 260.117 196.623 261.828C195.351 265.545 183.799 269.291 180.105 270.945C179.953 253.551 178.531 236.042 177.213 218.7Q197.38 209.185 218.137 201.04Z"/>
	<path fill="white" transform="scale(0.961159 0.961159)" d="M363.274 104.442C393.599 103.668 424.08 104.228 454.421 104.165C490.838 104.09 527.356 103.514 563.761 104.402C526.718 156.122 506.898 228.238 517.292 291.452C521.097 314.592 530.891 335.151 538.192 357.211C541.434 367.005 543.585 376.884 545.438 387.017C525.924 380.083 482.36 363.109 462.974 372.479C458.172 374.8 454.379 378.584 451.423 382.973C446.455 390.348 443.374 399.492 439.743 407.587C434.272 419.784 428.542 432.006 422.568 443.962C401.075 424.576 386.392 417.625 357.508 413.189C358.335 310.286 361.359 207.333 363.274 104.442Z"/>
	<path fill="#F99835" transform="scale(0.961159 0.961159)" d="M477.636 208.542C478.76 208.324 479.505 208.545 480.598 208.836C482.608 212.436 481.603 219.094 481.455 223.222C474.441 227.37 463.393 229.108 457.698 234.78C456.277 236.195 456.032 236.913 455.934 238.854L456.691 239.66C464.475 237.629 471.88 234.692 479.744 232.924C480.178 238.105 480.04 243.464 480.144 248.669C473.003 251.808 463.939 253.125 457.426 257.307C456.729 257.755 456.795 258.599 456.614 259.376L456.731 271.867C452.162 273.669 447.364 275.967 442.603 277.131C441.194 277.476 440.879 277.763 439.659 277.014C437.267 269.971 436.578 232.438 439.101 225.639C440.414 222.102 472.679 210.525 477.636 208.542Z"/>
	<path fill="white" transform="scale(0.961159 0.961159)" d="M246.433 104.387L354.904 104.347C354.283 206.893 351.325 309.522 349.524 412.06C319.034 412.906 292.559 420.146 268.515 439.715C246.077 457.977 230.835 485.397 227.982 514.264Q227.838 515.629 227.728 516.997Q227.618 518.364 227.543 519.734Q227.467 521.105 227.426 522.476Q227.385 523.848 227.378 525.22Q227.372 526.592 227.4 527.964Q227.428 529.336 227.49 530.707Q227.552 532.078 227.649 533.447Q227.746 534.816 227.877 536.182Q228.008 537.547 228.174 538.91Q228.339 540.272 228.539 541.63Q228.738 542.987 228.972 544.339Q229.206 545.692 229.473 547.038Q229.741 548.383 230.042 549.722Q230.343 551.061 230.678 552.392Q231.013 553.722 231.381 555.044Q231.749 556.366 232.15 557.678Q232.552 558.991 232.986 560.292Q233.42 561.594 233.886 562.885Q234.353 564.175 234.852 565.453Q235.351 566.732 235.882 567.997Q236.413 569.262 236.975 570.514Q237.538 571.765 238.131 573.003Q238.725 574.24 239.35 575.461Q239.974 576.683 240.63 577.889Q241.285 579.094 241.97 580.283Q242.655 581.472 243.37 582.643Q244.085 583.814 244.829 584.967Q245.573 586.12 246.346 587.254Q247.119 588.388 247.92 589.502Q248.721 590.616 249.55 591.709Q250.378 592.803 251.234 593.875Q252.09 594.948 252.973 595.998C272.262 619.354 299.061 631.948 328.889 634.797C324.626 651.856 322.407 670.94 332.049 686.707C336.614 694.171 343.263 699.402 351.314 702.683C307.839 773.673 281.902 837.082 257.247 916.163C247.317 916.764 237.331 916.523 227.387 916.469L231.093 801.669C231.857 779.731 233.77 757.154 233.219 735.248C233.181 733.749 232.943 732.29 231.89 731.154C230.882 730.066 230.038 729.887 228.637 729.732C215.979 728.328 202.547 729.257 189.76 729.092L104.867 728.245C104.946 697.571 105.85 666.873 106.238 636.198Q107.668 478.268 111.061 320.369Q154.068 320.613 197.064 321.639C209.204 321.833 223.212 323.315 235.174 321.807C237.21 321.55 238.183 320.978 239.622 319.514C241.44 317.667 241.898 316.002 242.148 313.491C243.12 303.724 242.688 293.423 242.834 283.584L243.731 235.446Q244.65 169.907 246.433 104.387Z"/>
	<path fill="white" transform="scale(0.961159 0.961159)" d="M915.362 93.0252Q1103.54 93.8427 1291.71 92.7462L1402.17 92.5161C1414.76 92.5332 1434.83 90.9716 1446.46 92.9171C1447.91 95.3581 1447.93 98.4711 1448.08 101.251C1449.27 123.006 1447.39 146.957 1446.88 169.009L1444.81 285.739Q1442.65 467.758 1438.51 649.742L1435.04 847.712Q1434.77 877.33 1434.09 906.941C1433.93 914.585 1434.84 924.327 1432.97 931.623C1432.67 932.794 1431.96 935.114 1430.83 935.765C1426.59 938.195 974.754 931.337 926.657 931.673L924.717 923.324C915.003 880.52 902.125 838.168 888.337 796.512C881.121 774.712 871.971 752.473 866.347 730.244C870.538 715.211 890.085 681.83 899.178 667.882C904.361 659.932 910.691 652.059 914.965 643.604C916.124 641.31 916.698 639.06 916.385 636.463C915.273 627.227 891.531 609.082 883.635 602.408C903.424 588.399 925.21 575.171 947.883 566.361C957.876 562.479 968.811 562.002 978.082 556.151C1004.15 539.702 993.092 514.974 994.794 490.962C995.351 483.09 998.934 476.349 1000.49 468.747C1002.02 461.246 999.644 456.094 995.536 449.964C1000.46 442.694 1006.28 434.94 1009.45 426.695C1013.91 415.096 1008.5 405.229 1003.75 394.743C1007.55 394.684 1011.36 395.074 1015.17 395.054C1024.26 395.006 1032.61 392.205 1039.05 385.592C1072.9 350.852 998.733 312.523 991.412 282.681C988.698 271.621 1001.51 250.833 1001.19 235.803C1000.69 211.904 985.243 201.761 974.841 182.778C969.824 173.622 967.224 163.968 963.391 154.352C955.058 133.445 941.297 117.772 925.387 102.258L915.362 93.0252Z"/>
	<path fill="#F99835" transform="scale(0.961159 0.961159)" d="M1103.74 209.67C1104.79 209.687 1105.42 209.929 1106.38 210.36C1108.22 214.28 1110.08 219.477 1109.24 223.817C1104.4 230.569 1089.82 229.862 1084.86 236.809C1083.78 238.316 1083.82 239.053 1084.19 240.777C1089.12 241.355 1100.82 236.418 1104.83 233.496C1104.98 233.704 1105.14 233.907 1105.28 234.122C1107.26 237.174 1108 246.732 1107.13 250.152C1103.75 253.317 1089.61 256.657 1084.66 257.945C1081.43 262.731 1085.67 271.464 1082.34 276.955L1066.03 275.207C1066.19 274.945 1066.36 274.691 1066.5 274.421C1068.44 270.788 1068.03 230.06 1066.53 225.285C1073.7 223.172 1097.62 213.372 1103.74 209.67Z"/>
	<path fill="#F99835" transform="scale(0.961159 0.961159)" d="M1049.76 776.043L1052.62 775.756L1053.66 776.958C1054.81 781.701 1054.71 788.236 1053.12 792.89C1047.42 797.213 1033 797.696 1028.69 802.145C1028.5 804.109 1028.05 805.986 1029.16 807.738C1035.83 806.392 1045.45 803.146 1051.41 799.873C1051.74 800.386 1052.04 800.904 1052.26 801.474C1053.7 805.141 1053.57 813.328 1052 816.884C1048.86 819.587 1043.15 820.517 1039.26 821.757C1034.34 823.324 1031.65 824.287 1029.28 828.982C1029.58 829.604 1029.53 829.462 1029.82 830.256C1031 833.507 1030.78 836.555 1029.29 839.647C1025.52 842.741 1016.62 844.717 1011.8 846.761Q1011.91 818.413 1012.65 790.075C1024.68 785.034 1038.19 781.959 1049.76 776.043Z"/>
	<path fill="#F99835" transform="scale(0.961159 0.961159)" d="M915.362 93.0252Q1103.54 93.8427 1291.71 92.7462L1402.17 92.5161C1414.76 92.5332 1434.83 90.9716 1446.46 92.9171C1447.91 95.3581 1447.93 98.4711 1448.08 101.251C1449.27 123.006 1447.39 146.957 1446.88 169.009L1444.81 285.739Q1442.65 467.758 1438.51 649.742L1435.04 847.712Q1434.77 877.33 1434.09 906.941C1433.93 914.585 1434.84 924.327 1432.97 931.623C1432.67 932.794 1431.96 935.114 1430.83 935.765C1426.59 938.195 974.754 931.337 926.657 931.673L924.717 923.324L1424.37 928.281C1424.76 927.643 1425.05 927.001 1425.3 926.295C1426.57 922.72 1427.68 849.525 1427.13 840.202C1427.05 838.879 1426.72 837.786 1426.13 836.596Q1351.31 835.94 1276.51 834.44L1205.55 833.542C1194.02 833.41 1182.34 833.805 1170.84 833.258C1168.36 833.141 1165.91 833.111 1163.65 832.01C1162.33 829.038 1162.09 825.828 1162.01 822.611C1161.56 805.853 1162.78 788.755 1163.01 771.964L1164.03 666.975C1164.09 660.596 1165.52 638.448 1163.94 633.573C1163.85 633.287 1163.74 633.005 1163.64 632.721C1157.6 628.992 1148.59 627.429 1141.88 624.477C1114.58 612.47 1092.93 586.032 1082.35 558.648Q1081.82 557.259 1081.33 555.857Q1080.83 554.455 1080.37 553.041Q1079.91 551.628 1079.49 550.203Q1079.06 548.778 1078.67 547.344Q1078.28 545.909 1077.93 544.465Q1077.57 543.021 1077.26 541.569Q1076.94 540.117 1076.66 538.657Q1076.37 537.198 1076.13 535.732Q1075.88 534.266 1075.67 532.794Q1075.46 531.322 1075.29 529.846Q1075.11 528.369 1074.98 526.889Q1074.84 525.408 1074.74 523.925Q1074.64 522.442 1074.57 520.957Q1074.51 519.471 1074.48 517.985Q1074.46 516.498 1074.47 515.012Q1074.47 513.525 1074.52 512.039Q1074.57 510.553 1074.65 509.069Q1074.73 507.585 1074.85 506.103Q1074.97 504.621 1075.13 503.142Q1075.28 501.664 1075.48 500.19Q1075.67 498.716 1075.9 497.247Q1076.13 495.778 1076.39 494.315Q1076.66 492.852 1076.96 491.396Q1077.26 489.94 1077.6 488.492Q1077.93 487.044 1078.3 485.605Q1078.68 484.166 1079.09 482.736Q1079.49 481.307 1079.94 479.888Q1080.38 478.469 1080.86 477.061Q1081.34 475.653 1081.85 474.258Q1082.36 472.862 1082.91 471.48Q1083.45 470.098 1084.03 468.729Q1084.62 467.361 1085.23 466.007C1096.67 440.216 1117.14 417.666 1142.97 405.813C1150.59 402.316 1158.48 400.501 1166.18 397.497L1166.62 397.322C1169.42 391.691 1168.27 366.365 1168.37 358.656Q1168.9 305.243 1169.99 251.839C1170.3 237.619 1169.57 222.647 1170.84 208.52C1171.09 205.703 1171.53 203.105 1173.08 200.681C1175.5 199.462 1178.05 199.355 1180.73 199.303C1210.46 198.729 1240.55 200.421 1270.31 200.889L1437.12 203.493C1437.54 202.846 1437.84 202.17 1438.06 201.434C1439.64 196.15 1440.45 112.499 1440.32 103.684C1440.3 102.56 1439.94 101.61 1439.42 100.636L1105.22 101.581Q1015.3 101.043 925.387 102.258L915.362 93.0252Z"/>
	<path fill="white" transform="scale(0.961159 0.961159)" d="M1197.66 501.496C1201.42 501.149 1204.31 500.897 1207.72 502.918C1211.43 505.12 1213.92 508.843 1214.82 513.041C1215.68 517.043 1214.99 521.39 1212.58 524.748C1209.85 528.562 1206.1 529.925 1201.67 530.531C1199.56 531.232 1196.64 530.688 1194.53 530.052C1191.6 529.17 1189.44 526.853 1188.16 524.145C1186.16 519.902 1186.06 514.716 1187.78 510.369C1189.75 505.436 1193.11 503.523 1197.66 501.496Z"/>
	<path fill="white" transform="scale(0.961159 0.961159)" d="M1391.93 438.481C1402.02 436.353 1422.56 438.126 1433.54 438.498C1433.9 439.079 1434.16 439.631 1434.3 440.308C1435.86 447.823 1434.17 473.018 1434.04 482.204L1432.79 554.783C1432.53 568.546 1432.62 582.488 1431.73 596.22C1431.63 597.917 1431.37 599.058 1430.48 600.523C1427.33 602.193 1394.55 600.218 1388.75 600.122C1388.82 599.997 1388.9 599.875 1388.96 599.748C1389.87 597.983 1389.92 596.222 1390.03 594.293C1390.94 577.482 1393.42 443.05 1391.93 438.481Z"/>
	<path fill="#F99835" transform="scale(0.961159 0.961159)" d="M1415.04 518.75C1415.19 518.743 1415.33 518.727 1415.48 518.729C1417.47 518.757 1419.34 519.316 1420.58 520.966C1421.73 522.482 1421.52 523.742 1421.34 525.475C1419.84 527.605 1419.39 527.737 1416.95 528.726C1415.65 528.982 1415.01 528.596 1413.84 528.096C1412.81 526.65 1412.25 525.877 1412.32 523.978C1412.41 521.661 1413.46 520.314 1415.04 518.75Z"/>
	<path fill="white" transform="scale(0.961159 0.961159)" d="M1350.1 524.752C1360.11 523.017 1372.16 524.649 1382.36 525.151C1387.33 533.67 1378.18 597.609 1384.35 607.023C1389.23 609.556 1422.32 608.64 1430.44 608.893C1430.7 609.357 1430.86 609.594 1431.02 610.077C1432.33 614.093 1430.86 664.517 1429.35 668.041L1429.42 669.256C1426.76 670.995 1357.1 668.267 1348 668.09C1348.73 666.696 1349.01 665.477 1349.12 663.921C1350.39 645.228 1349.71 625.946 1349.99 607.173L1350.69 552.116C1350.76 544.057 1352.26 532.447 1350.1 524.752Z"/>
	<path fill="white" transform="scale(0.961159 0.961159)" d="M1353.36 367.964C1362.62 367.054 1372.5 367.89 1381.83 368.067L1434.91 369.208C1435.18 369.779 1435.49 370.375 1435.64 370.99C1436.77 375.645 1435.21 419.976 1434.53 426.947C1434.42 428.124 1434.03 429.048 1433.4 430.028C1423.37 429.713 1396.25 428.03 1387.9 430.526C1381.7 432.379 1387.06 461.848 1383.35 468.114C1383.28 468.243 1383.19 468.364 1383.11 468.49C1383.17 468.615 1383.22 468.741 1383.29 468.865C1383.55 469.395 1383.85 469.952 1384 470.528C1384.98 474.207 1383.89 514.999 1382.35 517.581C1371.7 516.634 1360.9 516.779 1350.22 516.802C1350.81 515.783 1351.24 514.68 1351.37 513.502C1352.69 500.982 1351.79 487.218 1352.07 474.568L1353.7 396.408C1353.81 388.043 1355.32 375.684 1353.36 367.964Z"/>
	<path fill="white" transform="scale(0.961159 0.961159)" d="M1164.89 406.222L1167.29 406.362C1167.42 406.664 1167.63 407.093 1167.72 407.432C1169.38 413.716 1167.26 440.548 1167.17 449.327Q1166.86 502.237 1165.86 555.139C1165.61 573.992 1165.81 592.87 1165.09 611.712C1164.93 615.858 1165.26 620.979 1163.35 624.751C1160.81 621.849 1144.76 616.521 1140.37 614.273C1130.48 609.21 1123.63 601.039 1114.68 594.846C1114.52 594.735 1114.36 594.628 1114.2 594.519C1113.6 591.638 1106.28 584.554 1104.18 581.784C1098.3 574.004 1092.97 565.128 1089.86 555.848C1079.72 525.586 1080.68 492.216 1095.09 463.445C1109.84 433.994 1134.19 416.405 1164.89 406.222Z"/>
	<path fill="white" transform="scale(0.961159 0.961159)" d="M1178.74 403.223C1203.69 401.174 1225.68 404.43 1247.67 416.928C1273.87 431.823 1294.72 456.377 1302.72 485.713C1304.71 493.038 1309.01 508.87 1305.22 515.516Q1263.74 514.649 1222.25 514.702C1222.79 510.547 1220.68 504.729 1218.35 501.295C1215.44 496.997 1210.43 494.596 1205.43 493.763C1199.11 492.711 1192.79 494.114 1187.59 497.881C1182.66 501.451 1178.97 507.03 1178.06 513.09C1177.12 519.299 1179.2 526.15 1182.97 531.117C1186.44 535.687 1192.37 538.319 1197.96 539.01C1203.86 539.74 1211.09 538.27 1215.76 534.42C1218.46 532.195 1221.79 527.183 1221.98 523.633C1221.99 523.326 1221.98 523.018 1221.99 522.71L1249.31 522.892L1304.88 523.757C1305.75 525.838 1305.79 527.33 1305.54 529.573C1302.23 559.433 1285.34 585.962 1262.15 604.501C1234.93 626.258 1205.4 630.203 1171.73 626.368C1172.35 625.373 1172.7 624.201 1172.81 623.037C1174.71 602.401 1173.58 579.881 1173.77 559.045L1175.49 439.667C1175.64 432.598 1174.67 409.419 1176.54 404.096L1178.74 403.223Z"/>
	<path fill="white" transform="scale(0.961159 0.961159)" d="M1313.7 524.002C1322.94 522.969 1332.88 523.893 1342.18 524.319C1342.98 525.707 1343.27 526.866 1343.33 528.453C1343.94 542.712 1342.72 557.417 1342.39 571.698Q1341.63 606.817 1341.48 641.944C1341.38 650.07 1340.41 658.902 1341.35 666.937C1341.7 669.99 1342.35 672.785 1344.37 675.192C1348.92 677.447 1417.2 677.603 1429.02 678.148C1429.36 678.725 1429.64 679.285 1429.79 679.941C1431.19 686.085 1429.93 695.284 1429.85 701.689C1429.56 725.762 1428.66 749.781 1428.07 773.842C1427.66 790.555 1428.36 807.509 1427.37 824.165C1427.28 825.757 1426.93 826.92 1426.06 828.277Q1356.8 827.763 1287.56 826.182C1248.04 825.745 1208.07 826.352 1168.61 824.488C1168.73 824.281 1168.86 824.08 1168.98 823.867C1169.62 822.648 1169.87 821.524 1169.95 820.168C1170.8 805.814 1170.58 791.384 1170.8 777.012L1171.8 692.805C1171.93 680.332 1173.99 643.642 1171.75 634.916C1185.76 636.292 1199.99 637.575 1213.96 635.234C1245.9 629.883 1274.29 610.047 1292.84 583.836C1301.87 571.074 1316.35 539.362 1313.7 524.002Z"/>
	<path fill="#F99835" transform="scale(0.961159 0.961159)" d="M1228.47 684.54L1231.13 684.194L1232.09 685.41C1232.97 689.933 1233.29 697.785 1231.22 701.97C1224.49 706.836 1214.74 707.645 1207.54 712.444L1207.88 714.004C1208.35 714.133 1208.47 714.189 1209.03 714.211C1214.73 714.429 1225.96 710.594 1230.08 706.724C1230.22 707.003 1230.37 707.278 1230.5 707.562C1231.88 710.529 1231.64 720.298 1230.42 723.382C1224.43 727.784 1209.56 728.368 1206.05 734.796C1206.14 734.98 1206.24 735.158 1206.31 735.348C1207.65 738.933 1207.24 744.783 1205.71 748.268C1202.36 751.396 1193.86 752.901 1189.3 754.136C1191.25 749.724 1191.29 702.357 1190.04 698.619C1198.23 696.599 1221.06 688.37 1228.47 684.54Z"/>
	<path fill="white" transform="scale(0.961159 0.961159)" d="M1178.42 207.424C1203.16 206.354 1228.31 208.156 1253.1 208.41Q1345.16 209.437 1437.2 211.675C1437.56 212.233 1437.56 212.18 1437.83 212.921C1438.85 215.761 1436.71 343.3 1435.97 356.834C1435.87 358.616 1435.63 359.845 1434.75 361.418C1418.03 360.627 1401.22 360.608 1384.49 360.299C1373.37 360.094 1359.94 358.512 1349.06 360.745C1341.71 367.022 1349.39 415.567 1343.98 424.575C1343.89 424.712 1343.8 424.842 1343.71 424.975C1344 425.49 1344.3 426.063 1344.47 426.63C1345.68 430.737 1343.9 503.899 1343.18 512.719C1343.07 514.094 1342.66 515.159 1341.96 516.343L1313.51 516.064C1315.19 513.208 1314.81 509.568 1314.66 506.362C1313.23 477.042 1297.56 446.625 1275.9 427.157C1244.17 398.642 1215.64 393.178 1174.42 395.449C1175.46 393.734 1175.75 392.5 1175.86 390.496C1177.92 353.303 1176.79 315.519 1177.53 278.251L1178.49 230.964C1178.63 223.471 1179.62 214.791 1178.42 207.424Z"/>
	<path transform="scale(0.961159 0.961159)" d="M621.149 49.2624Q630.032 43.674 639.426 38.9954Q648.819 34.3168 658.631 30.5941C720.717 6.76198 782.931 21.5347 841.431 47.7032Q859.538 56.2688 876.899 66.2593C890.569 74.2823 902.728 83.5425 915.362 93.0252L925.387 102.258C941.297 117.772 955.058 133.445 963.391 154.352C967.224 163.968 969.824 173.622 974.841 182.778C985.243 201.761 1000.69 211.904 1001.19 235.803C1001.51 250.833 988.698 271.621 991.412 282.681C998.733 312.523 1072.9 350.852 1039.05 385.592C1032.61 392.205 1024.26 395.006 1015.17 395.054C1011.36 395.074 1007.55 394.684 1003.75 394.743C1008.5 405.229 1013.91 415.096 1009.45 426.695C1006.28 434.94 1000.46 442.694 995.536 449.964C999.644 456.094 1002.02 461.246 1000.49 468.747C998.934 476.349 995.351 483.09 994.794 490.962C993.092 514.974 1004.15 539.702 978.082 556.151C968.811 562.002 957.876 562.479 947.883 566.361C925.21 575.171 903.424 588.399 883.635 602.408C891.531 609.082 915.273 627.227 916.385 636.463C916.698 639.06 916.124 641.31 914.965 643.604C910.691 652.059 904.361 659.932 899.178 667.882C890.085 681.83 870.538 715.211 866.347 730.244C871.971 752.473 881.121 774.712 888.337 796.512C902.125 838.168 915.003 880.52 924.717 923.324L926.657 931.673C929.257 940.289 931.121 949.087 933.078 957.866C934.387 964.1 935.973 970.399 936.961 976.685Q941.889 1000.28 946.135 1024L934.361 1024L930.675 1024L920.635 1024L866.658 1024L812.641 1024L788.082 1024L695.509 1024L687.82 1024L655.479 1024L619.109 1024L602.524 1024L587.444 1024L571.041 1024L432.016 1024L415.177 1024L396.626 1024L395.751 1024L381.353 1024L340.025 1024L308.418 1024L257.915 1024L232.441 1024Q236.703 994.523 243.529 965.533C244.509 959.501 246.468 953.428 248.049 947.517Q251.311 936.042 254.778 924.628C255.193 921.843 256.399 918.859 257.247 916.163C281.902 837.082 307.839 773.673 351.314 702.683C343.263 699.402 336.614 694.171 332.049 686.707C322.407 670.94 324.626 651.856 328.889 634.797C329.438 632.024 330.399 629.212 331.164 626.483C334.652 616.354 339.256 606.713 344.043 597.147C347.19 592.568 349.911 587.722 352.7 582.92C358.108 573.556 365.084 565.144 370.214 555.596C377.432 542.162 383.194 527.595 389.559 513.719Q404.056 482.459 419.121 451.469L422.568 443.962C428.542 432.006 434.272 419.784 439.743 407.587C443.374 399.492 446.455 390.348 451.423 382.973C454.379 378.584 458.172 374.8 462.974 372.479C482.36 363.109 525.924 380.083 545.438 387.017C543.585 376.884 541.434 367.005 538.192 357.211C530.891 335.151 521.097 314.592 517.292 291.452C506.898 228.238 526.718 156.122 563.761 104.402L570.11 95.8317C577.67 85.866 586.537 77.4021 595.46 68.688C603.334 61.492 612.522 55.5257 621.149 49.2624Z"/>
	<path fill="white" transform="scale(0.961159 0.961159)" d="M984.155 441.273L986.237 441.211C988.521 442.665 990.217 447.995 991.424 450.522L980.441 447.59Q974.833 446.271 969.191 445.104C974.16 443.6 979.072 442.335 984.155 441.273Z"/>
	<path fill="#52618D" transform="scale(0.961159 0.961159)" d="M396.626 1024C405.215 998.658 416.111 978.917 434.314 959.37C426.586 980.779 420.551 1001.91 415.177 1024L396.626 1024Z"/>
	<path fill="#52618D" transform="scale(0.961159 0.961159)" d="M696.796 604.766C700.358 606.322 703.287 608.754 706.183 611.291C707.301 634.89 706.416 657.351 700.635 680.336C697.297 676.595 693.398 673.41 689.611 670.138C694.21 648.424 695.937 626.89 696.796 604.766Z"/>
	<path fill="#52618D" transform="scale(0.961159 0.961159)" d="M590.716 572.221L603.86 572.316C595.813 590.375 587.996 608.707 579.05 626.337L570.702 627.357L559.044 629.107C570.131 610.438 579.752 590.962 590.716 572.221Z"/>
	<path fill="#F99835" transform="scale(0.961159 0.961159)" d="M874.999 607.954L906.069 637.956C888.952 660.669 873.21 686.888 862.198 713.169C862.661 708.828 887.144 641.832 890.678 634.965C882.856 628.3 874.466 621.188 865.839 615.584L864.869 613.826L874.999 607.954Z"/>
	<path fill="#52618D" transform="scale(0.961159 0.961159)" d="M340.025 1024C348.81 1016.46 358.371 1009.74 367.526 1002.65Q388.685 986.51 408.886 969.187C397.77 986.264 388.952 1003.38 381.832 1022.49L381.353 1024L340.025 1024Z"/>
	<path fill="white" transform="scale(0.961159 0.961159)" d="M959.672 446.475C970.074 451.555 982.543 454.33 993.661 457.501C992.904 462.491 991.792 467.344 990.624 472.248C987.782 469.001 984.28 466.058 980.146 464.604C978.269 463.944 976.937 464.264 975.196 465.092C973.777 466.424 973.123 467.655 972.639 469.547C971.639 473.451 971.155 483.547 973.235 486.915L974.613 486.955C976.315 486.87 976.449 486.789 977.848 487.724C981.443 494.494 980.233 502.54 978.6 509.702C972.745 505.194 965.752 501.65 961.977 495.005C954.85 482.459 955.866 459.786 959.672 446.475Z"/>
	<path fill="#52618D" transform="scale(0.961159 0.961159)" d="M864.869 613.826L865.839 615.584C869.895 622.821 880.264 630.041 886.474 635.678C883.609 644.978 879.612 654.14 876.133 663.234L857.079 713.22C846.551 690.206 838.606 665.188 829.936 641.375C841.373 631.463 852.364 622.387 864.869 613.826Z"/>
	<path fill="#52618D" transform="scale(0.961159 0.961159)" d="M587.444 1024Q619.869 906.49 654.888 789.729C665.629 753.364 677.674 717.182 687.305 680.517C690.646 683.303 694.19 686.001 697.317 689.022C663.156 800.046 633.044 911.951 602.524 1024L587.444 1024Z"/>
	<path fill="#52618D" transform="scale(0.961159 0.961159)" d="M620.151 573.345C643.257 576.426 662.46 586.074 682.618 597.22C681.871 618.162 680.808 639.555 676.034 660.005L664.148 652.488Q660.201 650.088 656.146 647.873Q652.092 645.659 647.939 643.635Q643.786 641.611 639.544 639.781Q635.302 637.952 630.98 636.322Q626.657 634.691 622.264 633.263Q617.871 631.834 613.416 630.611Q608.961 629.388 604.455 628.373Q599.948 627.358 595.399 626.553C602.834 608.463 611.86 591.051 620.151 573.345Z"/>
	<path fill="#52618D" transform="scale(0.961159 0.961159)" d="M574.201 634.949L574.313 635.014C574.5 635.338 574.917 635.613 574.873 635.984C574.639 637.982 568.689 648.661 567.422 651.345C561.397 664.11 555.581 677.015 549.312 689.661C537.706 713.076 525.359 736.256 514.684 760.112C505.639 780.328 498.526 801.181 491.341 822.108C482.275 848.515 473.188 875.49 467.582 902.875C459.616 909.429 450.572 914.892 441.981 920.593L441.252 919.671C443.384 911.159 446.938 902.879 449.767 894.574Q459.78 864.805 470.501 835.284C480.051 808.38 488.207 780.979 498.369 754.305C507.437 730.502 518.399 707.639 529.349 684.67C536.782 669.078 543.914 653.586 552.819 638.746C559.84 637.141 567.099 636.166 574.201 634.949Z"/>
	<path fill="#F99835" transform="scale(0.961159 0.961159)" d="M459.003 392.008C462.364 386.616 465.159 382.877 471.675 381.28C482.256 378.686 496.922 383.614 507.195 386.275C574.064 403.598 633.619 436.859 691.842 473.227C712.51 486.137 774.405 525.011 786.249 542.107C795.93 556.079 800.954 582.175 806.012 598.78Q815.444 629.691 825.677 660.345C831.522 677.387 838.649 694.715 846.345 711.008C848.859 716.328 854.244 721.216 855.516 726.818C856.629 731.718 857.088 736.816 858.458 741.656C861.905 753.843 867.088 765.967 871.262 777.964C876.778 793.818 881.468 809.976 886.221 826.071Q900.94 874.861 912.984 924.38Q925.028 973.899 934.361 1024L930.675 1024C927.003 999.659 920.719 975.049 914.729 951.156C906.475 918.227 855.369 725.24 838.361 712.063C837.657 711.517 836.903 711.09 836.147 710.625C835.519 710.238 834.904 709.829 834.276 709.442C819.311 674.178 807.693 637.674 793.112 602.252C787.085 587.61 781.207 572.494 772.683 559.096Q771.111 556.612 769.367 554.246Q767.622 551.88 765.714 549.644Q763.806 547.409 761.743 545.314Q759.681 543.22 757.474 541.278C745.624 530.846 731.283 522.407 718.199 513.546C666.141 478.289 608.299 441.47 550.01 417.852C519.112 405.332 491.594 398.766 459.003 392.008Z"/>
	<path fill="#52618D" transform="scale(0.961159 0.961159)" d="M535.337 643.002C534.755 646.713 526.643 659.879 524.431 664.509C509.873 694.983 495.286 725.367 482.731 756.741C477.485 769.852 473.088 783.447 468.378 796.768L433.554 894.066C429.38 905.83 425.918 917.909 421.569 929.586C420.87 931.462 420.129 933.864 418.533 935.168C404.663 946.502 389.564 956.281 375.177 966.946Q362.503 976.307 350.462 986.469Q338.42 996.63 327.061 1007.55C337.469 953.583 366.265 904.199 394.386 857.828C406.028 839.522 416.253 820.181 427.57 801.635C442.637 776.946 459.449 752.414 471.923 726.296C441.095 751.031 412.997 785.302 389.861 817.401C383.265 826.553 377.332 836.171 370.735 845.324C374.689 835.65 378.553 825.894 382.939 816.407C408.981 760.078 448.741 693.69 501.508 659.365C512.239 652.385 523.356 647.412 535.337 643.002Z"/>
	<path fill="#52618D" transform="scale(0.961159 0.961159)" d="M709.817 703.787C736.614 727.279 744.31 768.424 746.582 802.298C748.226 826.8 744.492 850.123 740.351 874.17C732.776 851.344 718.439 831.553 702.38 813.881C712.126 840.716 727.031 901.351 725.817 929.713C725.263 942.667 721.905 955.114 717.741 967.327Q711.253 986.012 703.62 1004.26C700.982 1010.61 697.346 1017.41 695.509 1024L687.82 1024L655.479 1024L619.109 1024C624.86 998.2 632.531 972.523 639.564 947.032Q655.164 889.39 671.773 832.029L696.767 746.211C700.998 732.032 704.766 717.712 709.817 703.787Z"/>
	<path transform="scale(0.961159 0.961159)" d="M655.479 1024C656.231 1003.72 657.896 983.446 658.383 963.156C658.866 943.07 658.203 922.952 658.681 902.886C676.43 929.54 681.406 959.374 684.96 990.667C686.208 1001.66 687.615 1012.95 687.82 1024L655.479 1024Z"/>
	<path fill="#52618D" transform="scale(0.961159 0.961159)" d="M257.915 1024C274.383 908.022 306.685 794.623 369.959 695.01C379.258 680.372 393.509 657.631 405.004 645.231C415.338 634.084 428.166 624.075 440.293 614.979C472.879 590.538 499.66 581.435 539.989 576.356C551.269 574.935 562.677 574.138 573.911 572.415C561.937 591.641 552.826 612.343 541.494 631.851C527.574 636.268 514.511 641.133 501.932 648.638C451.71 678.601 410.541 740.039 383.926 791.294Q369.044 820.324 357.216 850.727C357.389 841.398 357.789 831.973 358.809 822.696C346.341 849.704 338.387 879.324 331.176 908.137C321.575 946.5 313.688 984.795 308.418 1024L257.915 1024Z"/>
	<path fill="#52618D" transform="scale(0.961159 0.961159)" d="M720.116 620.928C769.725 664.538 788.957 734.018 813.417 793.137C827.799 827.899 843.252 862.221 861.441 895.165C850.916 861.326 838.393 828.389 825.431 795.433C811.367 759.675 797.039 723.627 777.227 690.594C786.62 693.846 796.026 697.055 805.063 701.223C814.335 705.5 823.548 711.141 833.279 714.195C847.447 752.813 859.154 792.145 870.809 831.564C889.564 894.996 907.192 959.21 920.635 1024L866.658 1024L812.641 1024L788.082 1024C793.451 1008.47 810.02 976.965 812.207 963.956C814.086 952.776 811.369 936.82 810.486 925.417C806.104 868.876 800.759 811.598 787.026 756.472C786.219 814.177 775.085 872.939 764.092 929.512C760.42 948.413 755.523 967.444 752.717 986.458C751.508 974.207 756.052 949.462 757.647 936.011C765.906 866.327 782.63 792.521 755.998 724.801C751.555 713.505 745.99 701.606 738.745 691.817C741.259 705.569 747.036 718.512 750.905 731.908C760.461 764.992 762.277 796.538 759.394 830.744C757.549 819.853 757.052 808.69 755.855 797.708C750.882 752.062 744.116 725.891 713.227 691.734C720.602 667.916 720.7 645.621 720.116 620.928Z"/>
	<path transform="scale(0.961159 0.961159)" d="M878.472 961.7C875.519 982.57 870.481 1003.26 866.658 1024L812.641 1024C833.733 1002.76 855.668 981.077 878.472 961.7Z"/>
	<path fill="#52618D" transform="scale(0.961159 0.961159)" d="M591.736 635.098Q594.492 635.528 597.233 636.041Q599.975 636.554 602.7 637.148Q605.425 637.742 608.132 638.418Q610.838 639.093 613.523 639.849Q616.207 640.605 618.868 641.441Q621.529 642.277 624.164 643.193Q626.799 644.108 629.405 645.101Q632.012 646.095 634.587 647.166Q637.163 648.237 639.705 649.385Q642.247 650.532 644.754 651.755Q647.261 652.978 649.73 654.276Q652.199 655.573 654.629 656.944Q657.058 658.315 659.445 659.757Q661.833 661.2 664.176 662.713Q666.519 664.227 668.816 665.809Q671.112 667.392 673.361 669.043C670.804 685.619 665.187 701.825 660.171 717.798L643.248 772.251C626.139 827.862 610.662 884.159 594.869 940.157L578.701 995.917C576.044 1005.21 573.006 1014.53 571.041 1024L432.016 1024C437.118 995.476 453.648 936.537 472.897 915.466C484.175 903.12 498.449 893.62 510.088 881.594C500.578 885.758 491.409 890.4 482.747 896.149C487.012 882.587 490.852 868.769 495.702 855.41C522.681 838.173 545.557 807.171 562.865 780.542Q536.688 792.657 511.401 806.532C527.081 764.795 545.958 729.351 565.667 689.752C574.651 671.701 582.372 652.932 591.736 635.098Z"/>
	<path fill="#52618D" transform="scale(0.961159 0.961159)" d="M457.369 397.352C467.579 399.778 477.876 401.634 488.051 404.28C502.036 407.918 515.822 412.588 529.449 417.389C593.656 440.012 663.966 484.538 719.832 523.601C737.317 535.827 757.185 546.463 768.714 564.982C784.542 590.405 796.888 626.358 806.819 654.891C811.974 669.705 816.715 684.535 823.499 698.705C810.529 687.497 799.004 674.612 786.451 662.935C752.992 631.811 721.608 607.313 681.492 585.208C663.381 575.414 644.942 566.853 624.329 564.155C569.363 556.962 459.195 576.623 415.914 609.981L415.852 610.934L418.81 611.925C418.488 614.198 406.506 627.212 404.134 630.186C387.988 650.427 372.945 671.39 357.806 692.383Q355.995 691.668 354.216 690.876C347.284 687.763 342.06 682.301 339.387 675.165C334.231 661.403 337.505 644.544 342.169 631.05C346.934 617.261 353.392 603.592 361.209 591.266C368.466 579.825 376.696 568.916 382.831 556.799C391.662 539.362 398.974 520.936 407.284 503.215L457.369 397.352Z"/>
	<path transform="scale(0.961159 0.961159)" d="M492.259 530.321L492.709 530.408L492.913 531.111C485.09 538.867 475.788 545.895 467.167 552.75C444.995 570.381 422.104 586.423 399.214 603.033C384.212 613.918 369.989 625.927 355.705 637.724L354.954 637.742C358.466 630.257 366.845 621.47 371.88 614.597C378.835 605.105 388.252 589.619 396.412 581.944C405.802 573.112 422.883 566.104 434.485 560.035Q463.198 544.839 492.259 530.321Z"/>
	<path transform="scale(0.961159 0.961159)" d="M567.041 463.395C567.401 463.434 567.933 463.476 568.306 463.563C578.668 465.999 598.249 478.935 608.343 484.555C667.176 517.309 713.41 540.709 750.27 601.111C740.957 597.044 718.994 576.918 708.859 569.628C699.536 562.922 689.786 556.541 679.728 550.992C670.771 546.052 661.374 541.797 652.928 535.986C637.022 525.043 623.651 509.84 608.943 497.291C595.346 485.69 580.023 475.631 567.041 463.395Z"/>
	<path fill="white" transform="scale(0.961159 0.961159)" d="M556.069 382.101C550.952 352.189 538.674 330.987 531.228 303.335C514.461 241.064 536.529 162.223 572.985 110.674C601.798 69.9331 646.843 39.9435 696.307 31.6514C763.233 20.4321 840.832 52.6725 894.558 91.0842C920.508 109.638 948.618 136.761 956.857 168.757C935.913 167.367 916.769 175.303 900.239 187.752C918.879 180.115 937.491 172.162 958.05 172.514C960.974 179.668 964.436 186.305 967.792 193.236C953.154 189.641 939.792 188.726 926.27 196.8C922.6 198.991 919.299 201.545 916.061 204.323C926.98 199.149 937.374 194.337 949.782 194.71C956.076 194.899 962.412 195.61 968.71 195.275C980.042 208.819 991.744 220.305 989.935 239.402C987.134 268.962 968.763 275.989 992.975 305.794C1002.9 318.01 1039.37 352.988 1037.32 368.574C1036.69 373.408 1033.33 377.289 1029.49 380.035C1027.44 381.497 1025.27 382.815 1023.13 384.13C1025.98 379.726 1028.05 375.715 1026.74 370.318C1026.37 368.807 1025.57 367.4 1024.18 366.631C1021.78 365.302 1018.57 365.598 1016.05 366.428C1010.89 368.123 989.886 383.38 988.026 387.296C987.424 388.564 987.112 390.135 986.772 391.497L985.58 392.266C984.073 391.028 984.921 390.063 984.041 388.964C980.257 384.244 972.209 386.674 970.856 372.986C970.371 368.074 972.349 363.407 975.521 359.745C981.33 353.039 989.245 349.318 994.712 342.06C985.391 346.881 971.464 352.86 968.078 363.579C966.201 369.518 966.446 376.696 969.479 382.22C971.546 385.984 974.399 388.184 978.498 389.369C981.291 390.177 984.665 392.334 986.565 394.554C984.622 399.02 970.092 406.623 965.423 410.688Q963.673 412.216 962.05 413.878Q960.428 415.54 958.943 417.327Q957.459 419.114 956.122 421.013Q954.784 422.913 953.603 424.913C946.776 436.274 943.767 449.084 941.532 462.001C940.4 468.547 939.679 477.07 936.429 482.926C933.902 478.074 938.023 477.196 931.467 472.772C931.57 463.772 932.008 454.243 925.271 447.193C924.991 446.9 924.693 446.627 924.394 446.355L923.346 446.42C920.904 456.169 931.833 472.774 920.395 479.873C917.66 481.57 912.307 482.741 909.169 482.122C908.051 477.804 924.72 448.631 916.85 440.025C916.204 440.035 915.693 439.837 915.232 440.339C911.398 444.511 911.019 453.741 908.985 459.086C907.59 462.754 905.564 466.365 903.629 469.779C903.893 460.481 904.654 442.267 898.553 434.826L897.404 434.546C893.608 441.53 899.31 455.99 895.257 462.014L894.921 461.281C894.029 459.368 893.24 457.609 891.101 456.857C886.49 455.235 879.853 460.956 878.164 459.201C878.11 456.714 878.592 455.109 876.883 453.195C873.434 454.259 866.353 463.843 863.054 466.71C859.75 469.58 855.877 471.93 852.203 474.297C853.46 469.983 855.625 464.386 854.51 459.935L853.268 458.981C842.804 466.574 852.94 475.231 827.506 487.02C831.188 481.845 840.143 468.136 839.111 462.208C838.94 461.226 838.552 461.191 837.817 460.604C835.282 461.28 833.74 464.688 832.438 466.947C828.142 474.403 824.361 480.808 818.379 487.104C812.146 485.215 801.657 480.167 795.474 483.661C793.289 484.896 792.289 486.888 791.712 489.253C790.177 495.547 792.083 502.736 793.61 508.861C785.506 498.467 777.012 488.343 769.647 477.4C761.614 465.465 754.522 452.51 745.948 441.015C750.228 453.718 754.977 465.512 761.569 477.207C786.766 521.914 833.49 565.199 871.444 599.548C856.235 609 840.225 619.693 827.984 632.883C819.697 614.014 814.787 593.347 809.152 573.557C806.672 564.847 804.441 555.935 800.834 547.603C798.103 541.295 793.61 535.575 788.705 530.816C774.933 517.455 757.247 506.084 741.373 495.344C715.818 478.056 690.109 461.322 663.357 445.923C642.736 435.294 622.747 423.484 602.03 412.97C587.197 405.443 570.984 399.262 556.738 390.804C556.458 387.902 556.216 385.013 556.069 382.101Z"/>
	<path transform="scale(0.961159 0.961159)" d="M809.787 353.734C810.87 353.959 812.098 354.153 813.111 354.597C814.974 355.413 815.296 356.379 815.94 358.124C815.619 360.546 814.597 361.694 813.085 363.51C812.22 363.379 811.209 363.261 810.409 362.898C808.543 362.049 808.061 361.015 807.307 359.276C807.339 356.801 808.289 355.624 809.787 353.734Z"/>
	<path transform="scale(0.961159 0.961159)" d="M793.376 372.666C794.381 372.695 795.538 372.679 796.508 372.953C798.53 373.524 799.085 374.479 800.035 376.158C800.122 378.691 799.38 380.045 798.077 382.172C796.879 382.113 795.39 382.09 794.266 381.667C792.391 380.963 791.956 379.821 791.243 378.149C791.238 375.753 792.007 374.579 793.376 372.666Z"/>
	<path transform="scale(0.961159 0.961159)" d="M764.428 448.236C765.632 448.374 767.203 448.433 768.333 448.865C770.308 449.62 770.731 450.518 771.644 452.264C771.708 454.615 771.078 455.849 769.861 457.825C768.69 457.742 767.265 457.712 766.132 457.37C764.215 456.789 763.661 455.575 762.775 453.977C762.647 451.571 763.235 450.296 764.428 448.236Z"/>
	<path transform="scale(0.961159 0.961159)" d="M814.3 459.606C815.429 459.728 816.722 459.804 817.797 460.172C819.731 460.834 820.26 461.888 821.125 463.552C821.216 466.226 820.237 467.598 818.82 469.712C817.835 469.648 816.656 469.623 815.726 469.282C813.664 468.526 813.161 467.336 812.34 465.511C812.235 463.057 813.089 461.642 814.3 459.606Z"/>
	<path transform="scale(0.961159 0.961159)" d="M791.099 299.299C792.619 299.234 794.622 299.138 796.055 299.691C797.856 300.386 798.291 301.248 798.974 302.937C798.711 305.343 797.91 306.444 796.337 308.24C795.13 308.262 793.608 308.357 792.45 307.989C790.501 307.371 789.956 306.276 789.079 304.624C789.258 302.025 789.635 301.494 791.099 299.299Z"/>
	<path transform="scale(0.961159 0.961159)" d="M789.822 400.069C790.605 400.414 791.398 400.758 792.153 401.16C794.589 402.454 795.09 403.702 795.837 406.163C795.538 408.706 794.716 409.965 793.12 411.931C791.512 411.499 789.726 410.851 788.532 409.645C787.367 408.468 786.615 407.192 786.673 405.508C786.76 402.998 788.106 401.729 789.822 400.069Z"/>
	<path transform="scale(0.961159 0.961159)" d="M798.541 322.918C800.2 323.241 801.885 323.753 803.126 324.967C804.248 326.065 804.92 327.333 804.951 328.915C805.002 331.466 803.778 332.851 802.144 334.655C802 334.619 801.856 334.586 801.713 334.546C801.476 334.478 801.242 334.401 801.006 334.331C800.1 334.059 799.099 333.801 798.291 333.293C797.122 332.557 795.971 331.043 795.824 329.639C795.542 326.951 796.993 324.936 798.541 322.918Z"/>
	<path transform="scale(0.961159 0.961159)" d="M862.804 407.228C864.124 407.742 864.618 408.346 865.525 409.382C865.3 410.652 864.719 411.713 863.911 412.711C860.741 416.623 856.335 417.922 851.538 418.266C850.652 417.474 850.18 416.711 849.571 415.707L850.117 413.831C853.323 410.7 858.757 409.14 862.804 407.228Z"/>
	<path transform="scale(0.961159 0.961159)" d="M776.985 419.196C778.288 419.322 779.862 419.57 780.954 420.363C783.252 422.031 784.63 424.83 784.858 427.605C785.159 431.262 784.134 432.781 781.808 435.371C780.374 434.918 779.015 434.425 777.911 433.367C775.347 430.909 773.686 427.955 773.801 424.313C773.875 421.964 775.375 420.717 776.985 419.196Z"/>
	<path transform="scale(0.961159 0.961159)" d="M954.955 214.075C957.663 213.92 960.58 213.908 963.25 214.409C968.345 215.366 975.872 218.015 978.897 222.479C979.19 224.391 979.01 224.645 978.262 226.342C976.085 224.591 974.684 222.349 972.18 220.871C964.622 216.409 956.182 216.872 947.991 219.053C938.977 221.7 932.353 227.883 925.421 233.886C926.639 231.888 927.881 229.832 929.292 227.962C935.735 219.423 944.636 215.564 954.955 214.075Z"/>
	<path transform="scale(0.961159 0.961159)" d="M876.449 414.446C877.478 414.504 878.311 414.794 879.288 415.095C881.226 419.057 877.418 427.158 876.324 431.362C879.475 429.197 883.481 424.854 887.463 425.028L888.534 426.398C888.473 428.893 887.473 430.327 886.216 432.381C883.803 434.818 880.475 437.785 876.905 438.035C875.395 438.141 873.937 437.706 872.808 436.683C870.811 434.873 870.196 431.78 870.18 429.201C870.146 423.485 872.527 418.473 876.449 414.446Z"/>
	<path transform="scale(0.961159 0.961159)" d="M743.624 323.406C744.628 323.356 745.64 323.32 746.643 323.4C750.611 323.713 753.419 325.149 756.01 328.113C759.76 332.402 762.744 339.233 762.132 345.027C761.865 347.558 760.954 348.543 759.098 350.004C756.732 350.563 755.162 350.124 752.874 349.42C750.705 347.045 748.869 344.231 746.969 341.633C744.167 342.106 740.743 342.531 737.961 341.864C735.71 341.323 733.688 340.17 732.607 338.049C731.809 336.484 731.923 334.866 732.454 333.233C734.168 327.969 738.993 325.583 743.624 323.406Z"/>
	<path transform="scale(0.961159 0.961159)" d="M785.003 282.371C784.872 282.236 784.743 282.099 784.61 281.966C781.593 278.958 774.949 276.371 774.589 272.011L775.61 271.254C784.35 273.299 793.682 282.119 801.591 286.655C806.646 289.699 811.619 293.222 815.621 297.585C827.043 310.039 824.502 323.435 827.277 338.683Q827.981 342.479 829.041 346.19Q830.102 349.902 831.51 353.496Q832.918 357.09 834.66 360.535Q836.402 363.979 838.463 367.243C841.627 372.325 855.779 390.889 855.512 396.169C854.338 396.164 854.189 396.159 853.209 395.475C849.884 393.155 847.074 389.589 844.427 386.514C833.009 373.249 824.318 358.649 820.79 341.323C819.169 333.36 819.592 325.181 818.155 317.217C815.179 300.733 797.728 291.175 785.003 282.371Z"/>
	<path transform="scale(0.961159 0.961159)" d="M952.752 242.493C956.634 242.288 981.225 245.021 983.296 246.488C984.801 249.472 984.184 252.501 983.213 255.559C979.829 266.224 974.117 266.454 964.513 269.489C960.171 270.86 956.084 272.879 952.03 274.931C951.547 282.122 950.355 288.457 947.814 295.211C948.975 298.202 950.207 301.749 950.378 304.966C950.492 307.126 950.175 309.333 948.679 310.978C947.671 312.086 946.139 312.638 944.642 312.63C938.004 312.596 932.371 307.007 928.085 302.635C931.393 304.239 941.105 310.338 944.673 308.985C945.659 308.612 945.837 307.756 946.308 306.869C946.016 303.838 947.637 299.257 946.228 296.789C945.094 296.361 945.148 296.307 944.035 296.76L944.166 300.336L943.031 300.969C939.756 300.21 936.536 298.191 933.548 296.649C930.005 294.562 927.23 291.054 924.686 287.893C921.209 286.981 914.049 290.292 910.395 291.454C918.947 284.416 930.199 276.625 940.461 272.421C944.849 270.623 955.468 269.189 958.251 265.769C942.613 259.783 932.197 277.191 920.566 276.499C918.874 276.398 918.689 275.981 917.603 274.81C916.986 270.37 920.138 265.759 922.642 262.324C930.506 251.538 939.432 244.572 952.752 242.493Z"/>
	<path fill="white" transform="scale(0.961159 0.961159)" d="M936.427 281.245C937.324 285.159 937.452 289.826 938.153 293.904L937.573 294.507L935.51 293.266L928.435 286.282L936.427 281.245Z"/>
	<path transform="scale(0.961159 0.961159)" d="M704.093 264.278C711.887 263.962 720.76 266.8 726.908 271.613C733.2 276.538 736.599 284.123 737.536 291.941C738.74 301.995 735.067 312.759 728.734 320.559C726.51 323.298 724.176 325.681 720.496 326.077C718.569 325.337 716.998 324.596 716.247 322.436C715.118 319.189 718.46 314.253 719.903 311.521C715.679 313.757 711.868 316.337 708.4 319.625C711.987 334.687 723.572 336.093 724.43 343.084L723.21 343.824C721.499 343.776 720.023 343.486 718.44 342.825C712.044 340.154 706.292 334.33 703.776 327.867C702.566 324.758 701.383 319.544 702.971 316.431C706.007 310.478 718.318 301.542 724.824 300.044C726.877 299.572 727.426 300.371 729.087 301.497L729.944 299.799C729.848 298.141 729.488 296.844 728.739 295.354C724.921 287.762 717.018 280.046 708.831 277.419C704.603 276.063 699.889 275.687 695.867 277.947C692.462 279.86 692.204 283.203 691.367 286.708C688.66 299.573 688.375 310.803 693.569 323.143C697.276 331.954 705.635 349.785 717.269 348.502C723.433 347.822 729.289 345.462 735.594 346.307C740.553 346.973 745.24 349.725 749.857 351.55C755.835 353.912 757.575 352.641 762.983 350.271L764.154 351.775C764.269 353.71 763.947 355.388 762.992 357.109C757.526 366.963 739.165 353.033 731.986 352.374C726.938 351.91 721.938 355.229 717.036 356.227C713.315 356.984 710.255 355.241 707.263 353.24C695.392 345.299 686.062 328.032 683.318 314.277C681.092 303.121 683.584 281.999 690.194 272.445C693.77 267.277 698.057 265.379 704.093 264.278Z"/>
	<path transform="scale(0.961159 0.961159)" d="M671.745 329.101C671.124 325.933 669.53 322.534 668.602 319.368C663.558 302.173 663.409 284.524 672.338 268.479C678.016 258.276 686.826 249.843 698.253 246.633C714.098 242.181 730.087 249.891 741.776 260.302C746.447 264.463 751.146 269.87 756.589 272.91C765.477 277.873 774.772 277.992 784.935 283.764L785.879 285.137L785.255 286.237C775.631 286.939 765.045 278.324 755.203 277.604C742.056 276.643 717.57 234.145 687.215 260.17C677.509 268.491 672.201 280.656 671.357 293.296C669.899 315.141 682.966 343.928 697.285 360.281C705.44 369.594 735.053 388.486 746.826 393.283C750.334 394.712 754.664 395.381 758.434 395.6C762.714 395.847 765.211 394.784 768.738 392.533L769.526 392.964C769.519 395.109 769.104 395.634 767.556 397.172C761.532 403.162 752.67 404.575 744.599 404.019C730.268 403.03 713.938 396.196 704.481 385.05C700.104 379.891 698.504 375.009 697.064 368.538C684.73 358.873 677.193 343.456 671.745 329.101Z"/>
	<path fill="#52618D" transform="scale(0.961159 0.961159)" d="M556.069 382.101C557.953 360.414 543.783 335.202 538.302 314.211Q536.587 307.894 535.371 301.461Q534.155 295.029 533.446 288.521Q532.737 282.013 532.54 275.47Q532.342 268.927 532.657 262.388C533.602 246.094 537.889 230.743 542.056 215.045C550.796 182.119 560.344 150.06 577.741 120.47C597.835 86.2925 624.221 61.8822 663.152 51.866C699.627 42.4818 734.934 52.1052 766.745 70.9488C806.901 94.7357 838.221 138.405 849.68 183.458C851.452 190.423 852.648 197.942 851.028 205.056C846.597 224.522 813.232 267.115 801.591 286.655C793.682 282.119 784.35 273.299 775.61 271.254L774.589 272.011C774.949 276.371 781.593 278.958 784.61 281.966C784.743 282.099 784.872 282.236 785.003 282.371L784.935 283.764C774.772 277.992 765.477 277.873 756.589 272.91C751.146 269.87 746.447 264.463 741.776 260.302C730.087 249.891 714.098 242.181 698.253 246.633C686.826 249.843 678.016 258.276 672.338 268.479C663.409 284.524 663.558 302.173 668.602 319.368C669.53 322.534 671.124 325.933 671.745 329.101C670.192 339.801 671.933 351.301 671.381 362.157Q669.178 404.213 663.357 445.923C642.736 435.294 622.747 423.484 602.03 412.97C587.197 405.443 570.984 399.262 556.738 390.804C556.458 387.902 556.216 385.013 556.069 382.101Z"/>
	<path transform="scale(0.961159 0.961159)" d="M593.988 300.328C597.188 299.914 603.683 299.489 606.403 301.341C608.306 302.637 608.181 303.127 608.547 305.269C602.622 308.352 590.64 306.344 583.776 306.082C578.531 306.173 573.259 307.064 568.059 307.728C576.501 304.176 584.897 301.601 593.988 300.328Z"/>
</svg>
