<?xml version="1.0" encoding="utf-8" ?>
<svg xmlns="http://www.w3.org/2000/svg" xmlns:xlink="http://www.w3.org/1999/xlink" width="1536" height="1024">
	<path fill="white" d="M0 0L1534.69 0C1535.54 1.34434 1535.84 2.50848 1535.91 4.09208C1536.57 18.5072 1536 33.1619 1536 47.604L1536.01 132.471L1536.01 391.421L1536.01 865.91L1536 981.169C1536 989.131 1537.19 1015.2 1535.79 1021.39C1535.57 1022.35 1535.21 1023.17 1534.69 1024L0 1024L0 0Z"/>
	<path fill="#000007" d="M147.102 898.339C165.39 897.311 184.763 899.641 203.087 900.599Q271.93 903.659 340.474 910.764C375.603 914.145 411.815 915.587 446.486 922.271C433.72 922.624 420.926 923.861 408.161 924.497Q361.097 926.643 314.058 929.302Q208.783 935.272 103.452 940.13Q83.575 940.94 63.7162 942.116C56.8823 942.535 49.9758 943.53 43.1267 943.477C39.615 943.45 35.1154 943.181 32.528 940.572C34.1034 937.582 38.8528 937.079 41.999 936.727C52.4978 935.551 63.4078 935.627 73.9892 935.139L135.455 932.235L328.381 922.186C334.376 921.836 367.056 921.424 370.132 919.684C363.013 917.946 354.939 918.161 347.616 917.668Q331.141 916.545 314.691 915.105Q251.347 909.958 188.143 903.313C178.928 902.37 155.279 901.269 147.525 898.501C147.383 898.45 147.243 898.393 147.102 898.339Z"/>
	<path fill="#F99835" d="M120.301 175.874L337.433 260.243L402.051 285.685C413.955 290.341 425.839 295.34 438.026 299.201C433.732 342.872 429.278 386.647 425.754 430.384C405.922 417.316 386.798 403.192 367.413 389.478C354.556 380.384 340.825 371.774 328.713 361.741C303.497 367.118 278.395 375.272 253.564 382.265L146.778 411.731C132.446 415.752 118.277 420.307 103.936 424.298C98.0651 425.931 91.991 428.002 85.9518 428.838C87.5153 420.918 88.1164 412.641 89.1369 404.626L94.9502 360.471L112.476 230.95C115.078 212.567 117.228 194.196 120.301 175.874Z"/>
	<path fill="#000007" d="M581.523 43.7239Q619.39 90.2374 655.87 137.847C668.45 154.24 681.803 170.366 693.524 187.365C692.067 196.298 692.077 205.575 691.743 214.612Q691.093 235.262 690.096 255.898C715.817 248.817 742.05 241.885 767.266 233.22C771.112 238.666 774.852 244.405 779.429 249.271L778.604 345.314C788.626 357.106 798.367 368.966 807.838 381.205C807.791 397.187 807.344 413.271 807.745 429.241C825.871 422.314 842.962 412.827 860.499 404.584C880.97 394.962 909.062 383.195 927.685 371.662C931.27 364.966 933.764 357.654 937.271 350.906C944.934 336.159 970.646 311.107 987.004 306.094C987.159 306.047 987.314 306.003 987.469 305.957C988.792 304.163 987.534 301.313 988.306 299.117C989.191 296.605 990.867 295.91 993.064 294.834C993.897 291.373 991.95 286.374 991.095 282.915C986.115 281.603 980.961 280.655 975.931 279.537C973.883 279.131 971.455 278.639 969.675 277.536C963.326 273.6 966.028 264.573 966.027 258.558C966.026 255.599 965.271 252.414 964.728 249.507C958.593 247.611 954.038 245.123 949.143 240.937C944.087 236.613 937.879 229.751 937.53 222.719C937.322 218.516 939.087 216.129 941.813 213.258C944.512 208.989 951.884 206.466 956.399 204.541C956.633 204.482 956.867 204.428 957.1 204.365C963.6 202.607 968.675 191.366 973.887 186.584C992.179 169.798 1021.78 168.795 1042.96 180.546C1056.28 187.936 1065.38 200.667 1069.42 215.219C1071.45 222.543 1072.04 229.544 1072.13 237.08C1075.02 240.315 1077.62 243.441 1077.23 248.096Q1077.19 248.612 1077.09 249.12Q1077 249.629 1076.85 250.125Q1076.7 250.621 1076.51 251.099Q1076.31 251.578 1076.06 252.033Q1075.82 252.488 1075.53 252.915Q1075.23 253.342 1074.9 253.737Q1074.57 254.132 1074.19 254.49Q1073.82 254.848 1073.41 255.165C1072.43 255.915 1071.26 256.273 1070.09 256.609C1065.75 261.12 1054.97 262.61 1048.93 262.713C1048.78 262.716 1048.64 262.715 1048.49 262.716C1048.59 263.025 1048.69 263.331 1048.78 263.643C1049.66 266.828 1047.71 270.44 1048.15 273.678C1050.75 274.076 1052.68 273.485 1054.83 275.118L1055.16 276.082C1066.63 272.762 1077.3 266.145 1088.09 261.078L1158.68 227.891L1404.52 115.726C1414.03 111.329 1487.23 80.5093 1490.68 77.0891C1491.28 78.5091 1491.57 79.7212 1491.64 81.2579C1492.57 102.14 1492.19 288.215 1491.04 291.112C1490.93 291.369 1490.83 291.623 1490.72 291.879C1493.84 298.976 1491.74 434.875 1491.82 456.018L1493.08 722.069C1493.1 737.577 1494.47 864.372 1493.23 867.269C1493.02 867.758 1492.9 867.911 1492.61 868.404C1480.56 868.857 1468.49 868.442 1456.44 868.454L1365.2 868.039L1146.82 867.966C1149.97 873.384 1148.67 879.738 1150.61 885.474C1153.95 895.368 1168.66 906.876 1166.16 917.86C1166.09 918.188 1165.95 918.499 1165.84 918.818C1179.29 919.674 1225.69 921.621 1236.52 927.12L1236.62 928.172C1228.1 933.497 1198.12 934.416 1186.87 935.216Q1119.84 939.332 1052.69 940.04Q985.546 940.748 918.448 938.046C896.777 937.042 868.005 936.772 847.269 931.838C844.875 931.268 842.641 930.722 840.651 929.217L840.527 928.181C847.328 921.952 887.112 920.791 898.166 920.409C898.453 914.673 898.633 909.241 900.509 903.744C908.189 896.799 917.492 896.229 926.158 891.326C930.829 888.683 935.147 884.045 939.106 880.424C940.252 878.867 941.159 878.069 941.367 876.123C940.825 875.857 940.333 875.442 939.74 875.326C935.966 874.592 927.143 875.898 922.888 876.054L856.498 878.489L669.688 886.318C640.987 887.501 612.17 887.563 583.51 889.354Q583.123 889.929 582.709 890.485C582.028 891.384 581.238 892.423 580.183 892.909C573.636 895.927 525.509 902.159 513.821 904C582.102 908.124 650.749 913.362 718.452 923.326C655.703 937.084 591.579 945.45 528.35 956.887Q439.519 973.461 350.196 987.144C316.562 992.111 283.2 998.037 249.078 997.826C264.474 994.125 280.869 992.494 296.532 990.096L384.322 976.44C452.019 965.526 519.278 952.121 586.897 940.853Q620.086 935.31 653.337 930.153C665.598 928.258 678.77 927.296 690.687 923.828C667.866 923.837 644.365 919.532 621.631 917.275C607.761 915.898 508.672 907.258 502.923 909.943C506.155 917.576 616.517 917.78 626.134 926.722C622.45 928.085 619.679 928.454 615.723 928.428C604.802 928.356 593.439 926.329 582.529 925.333C554.706 922.793 526.414 920.181 498.81 915.846C498.583 912.781 497.429 905.558 499.122 903.093C501.595 899.493 565.121 890.958 574.6 889.221C563.733 888.695 552.759 889.416 541.89 889.803Q510.512 890.685 479.206 892.994C465.869 893.982 452.468 895.744 439.114 896.277C396.736 897.966 353.959 897.707 311.542 897.925Q273.121 898.139 234.7 897.778C215.581 897.759 196.498 898.137 177.38 897.641C178.758 896.318 218.089 894.93 223.586 894.658Q306.513 891.212 389.502 890.06C407.279 889.742 425.114 890.333 442.872 889.648L785.81 875.207Q863.071 871.582 940.378 869.159L942.37 868.824C943.533 867.573 943.811 867.604 943.789 865.823C941.046 863.711 919.082 864.399 914.252 864.368L35.1866 865.762C35.4352 850.671 38.1103 834.995 39.8215 819.993Q45.1832 773.374 51.259 726.843L108.99 736.33Q116.374 737.719 123.724 739.277C133.018 740.643 142.798 741.477 151.934 743.574C147.41 778.734 143.132 814.172 137.691 849.195L155.158 849.215C158.071 834.202 159.077 818.545 160.778 803.337L167.949 742.573C154.246 740.573 140.18 737.011 126.402 736.105C117.006 733.567 106.49 732.682 96.8344 731.258C81.7641 729.036 66.5986 726.434 51.4281 725.051L52.8158 711.4C54.1823 700.887 55.3865 690.321 57.1185 679.862L57.1676 678.704C60.4421 653.88 61.4291 628.457 65.9338 603.845C66.3467 593.418 67.7678 581.817 69.4664 571.501L69.6633 569.27C69.957 558.447 72.2008 547.019 73.4968 536.227C74.9567 524.07 75.6935 511.612 77.7861 499.572L77.8282 496.97C81.4321 476.378 81.5186 455.116 85.0811 434.548L85.9518 428.838C91.991 428.002 98.0651 425.931 103.936 424.298C118.277 420.307 132.446 415.752 146.778 411.731L253.564 382.265C278.395 375.272 303.497 367.118 328.713 361.741C340.825 371.774 354.556 380.384 367.413 389.478C386.798 403.192 405.922 417.316 425.754 430.384C429.278 386.647 433.732 342.872 438.026 299.201L458.444 85.5206C499.483 71.8113 540.174 56.4274 581.523 43.7239Z"/>
	<path fill="white" d="M929.033 475.036C931.401 475.498 934.638 475.735 936.346 477.526L935.148 478.676C933.126 479.425 931.223 480.259 929.046 480.361C928.129 478.639 928.759 476.929 929.033 475.036Z"/>
	<path fill="white" d="M1128.7 884.836C1129.14 884.75 1129.59 884.663 1130.03 884.6C1132.65 884.231 1134.58 884.957 1136.65 886.496L1136.29 887.552L1133.4 888.139C1131.75 888.516 1130.07 888.772 1128.39 889.052L1127.72 888.27L1128.7 884.836Z"/>
	<path fill="white" d="M897.567 451.918L899.489 453.275C901.367 457.349 902.223 461.151 900.632 465.488L899.273 464.253C897.916 460.437 897.092 455.957 897.567 451.918Z"/>
	<path fill="white" d="M1035.02 324.398C1036.19 325.253 1037.07 326.533 1037.32 327.987C1037.53 329.212 1036.7 329.922 1036.05 330.929C1033.08 332.751 1030.66 332.639 1027.29 332.583C1028.31 329.479 1033.01 327.418 1035.02 324.398Z"/>
	<path fill="white" d="M1107.68 916.336C1110.08 916.382 1113.19 918.321 1115.58 919.028C1120.97 920.616 1129.92 921.229 1134.49 923.852C1129.1 924.935 1115.88 923.703 1110.86 921.166C1108.66 920.054 1108.48 918.493 1107.68 916.336Z"/>
	<path fill="white" d="M1008.34 351.87L1009.31 351.454C1009.19 353.165 1009.14 354.84 1009.18 356.555L1011.49 358.237C1009.04 359.301 1005.59 358.678 1002.95 358.559L1000.35 359.468L999.191 358.219C999.316 356.879 999.599 356.066 1000.43 355.026C1001.52 353.654 1002.83 352.448 1004.63 352.255L1008.34 351.87Z"/>
	<path fill="white" d="M878.775 478.493L879.55 479.498C879.359 484.198 883.073 491.795 881.876 495.598L880.404 495.467C877.862 491.219 875.488 486.863 873.06 482.549L878.775 478.493Z"/>
	<path fill="white" d="M883.135 465.676C883.972 467.767 885.172 469.631 884.558 471.911C882.6 479.183 890.681 487.897 891.809 495.307C888.797 492.632 882.313 480.071 881.035 475.983C879.719 471.777 881.226 469.319 883.135 465.676Z"/>
	<path fill="white" d="M1108.37 872.077L1109.63 872.628C1112.55 877.589 1113.3 883.897 1113.17 889.573C1113.1 892.924 1112.76 896.584 1110.23 899L1109.89 900.299C1107.21 893.26 1111.63 879.644 1108.37 872.077Z"/>
	<path fill="white" d="M864.364 835.282C865.978 836.313 866.798 836.473 867.283 838.409C868.184 842.004 868.743 851.554 866.892 854.597C866.771 854.795 866.635 854.984 866.507 855.177L864.811 855.477L863.313 854.208C863.225 849.563 861.988 838.909 864.364 835.282Z"/>
	<path fill="white" d="M887.002 461.721C887.351 462.391 887.242 462.096 887.438 462.785C887.562 463.22 887.675 463.659 887.813 464.089C889.68 469.912 890.999 466.936 893.843 468.468C894.039 471.602 893.671 475.163 894.279 478.201C894.812 480.868 896.366 482.855 896.815 485.767L896.098 486.315C892.579 484.215 887.893 474.041 886.685 470.235C885.734 467.239 885.51 464.577 887.002 461.721Z"/>
	<path fill="white" d="M852.691 853.02C852.686 846.704 852.565 841.034 854.412 834.91L855.529 834.378L854.923 834.161C858.679 837.969 857.797 848.815 857.852 854.076L857.295 854.775C855.34 855.498 855.32 855.477 853.368 854.733L852.691 853.02Z"/>
	<path fill="white" d="M841.826 832.075C843.318 832.756 844.843 833.01 845.497 834.637C847.495 839.61 845.731 846.928 846.318 852.319L845.854 854.02C844.03 854.642 843.991 854.658 842.171 854.036C839.39 849.278 840.943 837.493 841.826 832.075Z"/>
	<path fill="white" d="M748.716 725.157L746.319 723.107C744.315 717.125 744.55 706.772 745.338 700.425C745.586 698.425 745.661 697.176 747.292 695.887L750.191 696.856C749.116 706.019 751.065 716.287 748.716 725.157Z"/>
	<path fill="white" d="M828.238 830.021C829.735 830.169 830.855 830.42 832.269 830.933C835.452 836.179 833.698 848.103 833.676 854.275C831.868 854.239 830.705 854.247 829.151 853.265C826.211 847.601 828.098 836.387 828.238 830.021Z"/>
	<path fill="white" d="M749.156 786.178L746.504 784.407C744.095 778.339 745.129 756.747 745.764 749.474C747.036 748.49 748.002 748.984 749.561 749.164C749.386 761.241 750.389 774.244 749.156 786.178Z"/>
	<path fill="white" d="M717.844 708.247C717.891 708.06 717.943 707.873 717.987 707.685C719.589 700.767 717.164 683.211 719.104 679.125L720.698 679.103C723.463 681.912 723.189 687.144 723.165 690.834C723.119 698.038 722.063 705.882 722.773 713C722.074 712.743 721.32 712.5 720.654 712.158C718.632 711.12 718.571 710.265 717.844 708.247Z"/>
	<path fill="white" d="M815.286 827.296C817.133 827.813 819.022 828.075 820.251 829.663C820.914 836.886 821.513 847.402 819.951 854.468C818.416 854.222 817.054 854.153 815.842 853.078C812.754 846.495 814.727 834.55 815.286 827.296Z"/>
	<path fill="white" d="M734.348 686.806C735.882 687.784 738.819 689.024 739.241 690.919C740.049 694.546 739.871 715.451 739.057 719.305C736.989 719.639 735.377 718.482 733.609 717.547C735.787 710.922 734.396 694.435 734.348 686.806Z"/>
	<path fill="white" d="M930.686 895.707C931.732 895.44 932.733 895.431 933.785 895.685C935.717 896.153 936.812 897.312 937.709 898.96L936.872 900.547C931.567 904.285 923.303 905.319 917.066 906.8Q915.866 907.125 914.659 907.425C912.779 907.879 911.428 908.401 909.768 907.363L910.38 905.919C916.277 900.921 923.554 898.378 930.686 895.707Z"/>
	<path fill="white" d="M679.409 656.721C680.508 657.249 681.553 657.901 682.609 658.511C685.739 664.613 684.037 687.295 683.936 695.538C682.388 695.02 681.482 694.605 680.304 693.461C677.267 685.602 679.235 665.693 679.409 656.721Z"/>
	<path fill="white" d="M1122.87 900.594C1130.72 899.93 1137.57 900.424 1145.09 902.807C1141.17 905.173 1132.79 906.157 1128.18 906.531C1125.14 907.474 1120.64 907.73 1117.4 908.254C1115.21 908.608 1112.44 908.919 1110.57 907.556L1110.89 906.102C1114.7 902.41 1117.76 901.57 1122.87 900.594Z"/>
	<path fill="white" d="M1293.53 756.542L1295.58 756.981C1297.42 761 1302.13 804.298 1301.77 810.081L1299.85 811.337L1299.5 811.133C1297.27 804.688 1292.23 761.876 1293.53 756.542Z"/>
	<path fill="white" d="M735.826 744.264C737.371 745.237 738.608 745.554 739.094 747.446C740.571 753.194 740.211 774.654 739.057 780.76C737.075 780.948 735.646 780.59 733.743 780.048C736.49 770.789 730.911 751.768 735.826 744.264Z"/>
	<path fill="white" d="M678.789 722.604C680.518 723.196 681.588 723.698 682.943 724.937C684.55 738.024 683.381 752.294 683.311 765.488C681.696 765.145 680.522 764.706 679.074 763.909C677.294 752.109 678.733 734.973 678.789 722.604Z"/>
	<path fill="white" d="M717.329 775.561C717.378 775.384 717.431 775.208 717.476 775.029C720.23 764.151 715.401 749.558 719.376 739.707C720.54 739.756 720.891 739.483 721.737 740.397C725.35 744.301 723.399 771.501 722.925 777.897L717.329 775.561Z"/>
	<path fill="white" d="M666.19 649.515C668.298 650.858 669.297 651.145 669.838 653.761C672.158 664.969 668.789 677.448 670.721 688.855C667.965 688.738 666.343 688.163 664.078 686.603C667.305 676.684 662.216 657.987 666.19 649.515Z"/>
	<path fill="white" d="M1021.17 644.92C1026.7 650.027 1036.06 670.041 1041.29 677.768C1044.18 682.032 1054.25 693.558 1055.17 697.345C1055.1 697.315 1055.03 697.292 1054.97 697.254C1039.9 687.532 1024.9 662.291 1021.17 644.92Z"/>
	<path fill="white" d="M761.183 729.395C759.179 726.651 760.401 706.585 760.723 702.165L768.25 706.404C768.181 714.287 769.124 723.789 767.6 731.444C765.304 731.06 763.32 730.268 761.183 729.395Z"/>
	<path fill="white" d="M665.083 717.493C666.554 718.093 667.954 718.789 669.37 719.507C672.119 723.448 670.458 755.115 670.4 761.989C668.653 761.773 667.434 761.465 665.854 760.679C663.656 755.4 665.044 725.544 665.083 717.493Z"/>
	<path fill="white" d="M648.573 679.875C646.634 678.787 644.5 677.95 643.464 675.889C642.945 670.395 641.568 642.301 643.547 638.602C645.348 638.332 646.896 639.437 648.435 640.252C649.765 642.772 649.346 644.609 649.265 647.428C647.861 658.157 649.397 669.132 648.573 679.875Z"/>
	<path fill="white" d="M642.586 708.78C644.836 709.704 646.494 710.018 647.965 712.057C648.34 719.649 649.326 749.934 647.141 755.383C644.431 754.141 643.532 753.991 642.126 751.372C644.07 742.557 642.594 719.044 642.586 708.78Z"/>
	<path fill="white" d="M761.205 755.078L766.489 756.641C768.772 760.201 767.78 783.823 766.931 789.069C764.773 789.608 761.868 788.243 759.793 787.521C762.016 778.386 757.253 763.194 761.205 755.078Z"/>
	<path fill="white" d="M1304.49 748.305L1305.59 748.52C1307.45 750.705 1311.84 799.082 1311.85 805.19C1310.72 806.844 1310.09 806.66 1308.2 807.121C1309.84 796.315 1299.71 758.569 1302.64 751.006C1302.97 750.166 1303.96 749.08 1304.49 748.305Z"/>
	<path fill="white" d="M1026.98 342.389L1030.17 342.396C1030.21 345.704 1021.88 353.65 1019.9 357.009L1019.44 357.795C1019.06 366.209 1019.55 374.078 1020.63 382.402C1014.04 383.201 1007.34 383.465 1000.71 383.884C999.62 383.08 999.415 382.538 998.998 381.263L999.959 380.046C1004.79 377.58 1013.34 377.605 1018.87 377.032C1018.98 366.584 1016.57 355.521 1015.75 345.037C1019.54 344.285 1023.3 343.577 1026.98 342.389Z"/>
	<path fill="white" d="M1034.9 293.569L1036.6 293.959L1036.87 295.009C1031.16 301.203 1022.86 306.304 1017.97 312.949C1019.07 312.39 1020.03 311.703 1021.29 311.713C1011.12 322.517 1000.49 335.791 987.999 343.781C991.016 340.117 994.671 336.388 997.233 332.425L996.46 333.53L995.419 333.111L990.282 337.62C986.25 340.981 982.699 347.416 978.489 349.75C978.369 349.817 978.243 349.874 978.12 349.937L978.2 350.298L979.64 349.112L978.264 349.31L978.04 349.948C983.542 336.657 1022.82 308.63 1034.9 293.569Z"/>
	<path fill="white" d="M967.44 327.221L967.656 327.36C967.579 328.087 967.448 328.695 967.087 329.341C964.965 333.14 961.428 340.653 957.08 341.899C955.299 341.27 954.056 340.652 952.205 341.276C946.143 346.531 942.848 358.255 940.473 365.787C942.958 365.299 945.913 364.437 948.409 364.457C950.259 364.472 950.997 364.707 952.151 366.069C952.047 366.329 951.959 366.596 951.84 366.85C950.065 370.65 943.989 372.208 940.319 373.554C936.476 375.597 934.151 378.276 931.456 381.597C936.494 366.233 943.646 347.058 955.658 335.78C959.179 332.475 963.417 329.873 967.44 327.221Z"/>
	<path fill="white" d="M617.187 624.142C618.715 624.794 621.139 625.533 622.3 626.704C624.448 628.87 623.186 662.946 623.109 668.484C620.847 667.882 619.171 667.482 617.346 665.911C614.958 658.372 616.969 633.525 617.187 624.142Z"/>
	<path fill="white" d="M615.912 698.02C617.78 698.905 621.095 699.766 621.568 702.028C621.82 703.232 621.737 704.695 621.739 705.929C620.711 714.971 619.421 739.02 620.85 747.362C618.57 747.057 616.796 747.012 615.028 745.382C613.177 737.982 615.338 707.354 615.912 698.02Z"/>
	<path fill="white" d="M1279.82 626.775L1280.61 627.6C1282.15 633.817 1292.84 718.529 1292.46 721.097L1290.15 722.526L1282.56 666.246C1280.99 655.191 1278.06 642.781 1278.19 631.628C1278.21 629.81 1278.94 628.323 1279.82 626.775Z"/>
	<path fill="white" d="M344.003 714.975C350.305 714.426 417.798 730.284 425.776 733.371L426.628 736.218C418.283 735.544 352.672 720.602 346.256 717.709C344.621 716.971 344.653 716.661 344.003 714.975Z"/>
	<path fill="white" d="M717.417 786.389C717.375 784.087 717.256 781.981 717.922 779.746C720.2 778.985 722.224 779.969 724.522 780.552C726.734 781.316 728.947 782.168 731.207 782.776L738.393 785.233C738.571 789.07 739.539 794.845 737.311 798.131L735.47 798.316C730.505 796.064 722.685 796.007 718.646 792.461C717.045 791.055 717.472 788.351 717.417 786.389Z"/>
	<path fill="white" d="M991.595 311.34C993.008 311.347 994.018 310.991 995.066 312.01C992.125 315.213 986.916 317.342 983.097 319.451C980.633 324.417 977.552 329.145 974.707 333.903C980.454 330.455 986.06 326.709 991.713 323.106C983.68 332.051 974.653 339.72 965.794 347.801C962.197 355.278 960.044 363.276 956.553 370.793C958.995 348.896 969.949 331.508 983.087 314.393C985.846 313.233 988.767 312.33 991.595 311.34Z"/>
	<path fill="white" d="M691.555 729.279C694.575 730.214 697.569 731.755 700.476 733.019L700.352 770.745C697.391 769.997 694.448 768.902 691.535 767.97Q691.929 748.625 691.555 729.279Z"/>
	<path fill="white" d="M692.768 665.663C696.291 667.213 699.631 669.591 702.91 671.619L702.617 703.336L692.422 698.434C692.401 687.595 691.825 676.455 692.768 665.663Z"/>
	<path fill="white" d="M1023.34 401.547C1024.66 401.413 1026.06 401.472 1027.38 401.452C1026.59 411.886 1023.36 422.513 1021.65 432.881L1020.81 433.361L1018.59 431.56C1013.32 422.88 1011.59 412.989 1009.79 403.157L1023.34 401.547Z"/>
	<path fill="white" d="M717.114 731.89C717.213 726.587 715.589 720.023 717.844 715.164C719.913 714.352 721.05 715.295 723.02 716.091C725.435 717.326 727.907 718.778 730.422 719.776L738.898 723.566C738.744 728.678 739.289 735.059 737.931 739.95C730.928 737.397 723.973 734.812 717.114 731.89Z"/>
	<path fill="white" d="M1316.23 739.304C1317.27 739.473 1317.38 739.559 1318.16 740.173C1319.44 747.386 1319.69 754.698 1320.57 761.967C1322.1 774.562 1324.14 787.234 1324.85 799.901C1323.62 801.413 1321.87 801.687 1320.06 802.323L1319.29 802.454C1317.71 800.765 1313.82 750.688 1311.72 742.742C1313.55 741.794 1314.8 740.778 1316.23 739.304Z"/>
	<path fill="white" d="M664.63 711.358C664.689 705.785 662.669 696.69 665.39 691.814C667.564 690.983 669.025 692.004 671.139 692.766C675.08 694.854 679.264 696.35 683.235 698.347L683.401 718.318C677.366 716.043 670.849 712.885 664.63 711.358Z"/>
	<path fill="white" d="M1288.93 614.024C1289.55 614.571 1289.45 614.4 1289.9 615.13C1290.83 616.639 1302.48 710.408 1301.45 714.05C1301.02 715.552 1299.74 715.765 1298.45 716.399L1289.69 641.182C1289.01 635.823 1285.89 622.944 1286.35 618.582C1286.49 617.258 1288.21 615.123 1288.93 614.024Z"/>
	<path fill="white" d="M1041.12 454.984C1045.79 454.745 1056.2 453.225 1059.95 456.271C1061.3 457.365 1061.08 457.983 1061.18 459.534C1060.48 460.964 1060.21 461.931 1058.89 462.853C1057.44 461.055 1056.25 459.408 1054.2 458.261C1047.22 460.88 1055.82 481.668 1050.41 487.068C1049.54 487.94 1048.95 487.7 1047.78 487.785C1043.48 482.368 1048.56 471.102 1044.77 464.927C1044.69 464.794 1044.6 464.667 1044.51 464.537C1044.77 464.001 1045.13 463.362 1045.23 462.759C1045.52 460.969 1044.98 460.383 1043.85 459.106L1042.2 459.004C1036.61 464.286 1039.33 482.634 1038.04 490.222C1036.76 491.116 1036.05 490.725 1034.54 490.551C1033.27 488.221 1036.95 467.655 1036.32 461.727C1035.73 461.088 1035.18 460.597 1034.44 460.136L1033.72 459.69L1034.82 457.358C1036.76 455.614 1038.65 455.43 1041.12 454.984Z"/>
	<path fill="white" d="M686.683 769.855C695.861 772.822 705.079 775.764 714.512 777.816Q714.555 784.962 714.978 792.096C705.34 790.106 695.917 787.509 686.445 784.865L686.683 769.855Z"/>
	<path fill="white" d="M1298.61 569.762L1299.43 570.753C1300.1 575.269 1301.48 582.462 1300.16 586.821C1299.52 590.475 1279.92 618.121 1276.55 620.78C1275.02 619.336 1275.74 613.535 1273.87 610.848C1278.66 606.877 1295.19 576.803 1298.61 569.762Z"/>
	<path fill="white" d="M888.114 452.054C887.55 452.46 887.803 452.235 887.278 452.819C882.985 457.59 878.251 462.158 873.42 466.382L873.556 465.487C876.644 462.309 878.326 458.279 881.238 455.12C884.062 452.057 887.842 449.763 890.76 446.711C895.437 441.821 899.309 435.923 903.912 430.867C915.288 418.371 927.492 406.868 939.443 394.966C949.856 384.595 962.945 366.532 975.926 360.369C970.413 372.601 952.382 384.965 944.26 397.47C940.06 399.676 936.118 403.763 932.482 406.892C916.46 420.679 900.731 434.966 888.114 452.054Z"/>
	<path fill="white" d="M741.033 786.147C744.434 786.976 747.714 787.537 751.195 787.902L756.124 790.01C762.542 791.948 768.936 793.801 775.581 794.802L775.569 807.928C771.43 806.827 766.422 804.829 762.218 804.496C755.305 802.224 748.019 800.833 740.925 799.21L741.033 786.147Z"/>
	<path fill="white" d="M714.752 640.071C720.254 641.666 726.512 646.697 731.386 649.813L731.673 679.328C728.05 677.435 716.759 673.035 715.511 669.176C715.049 667.746 715.246 665.713 715.282 664.218Q715.882 652.125 714.752 640.071Z"/>
	<path fill="white" d="M735.102 681.019C735.034 675.462 733.461 657.534 735.974 653.533L738.494 653.798C739.46 654.895 740.213 655.9 741.623 656.436C744.77 659.352 748.861 661.747 752.382 664.229L752.668 691.645C746.872 688.016 740.955 684.556 735.102 681.019Z"/>
	<path fill="white" d="M1038.92 396.457C1039.47 396.579 1040.5 396.659 1040.97 396.91C1043.52 398.29 1046.9 402.253 1049.28 404.263Q1057.05 410.874 1065.35 416.819C1069.34 419.697 1076.2 422.927 1078.83 427.03C1074.81 425.524 1070.5 424.779 1066.43 423.35C1058.26 420.481 1052.13 415.878 1045 411.183C1043.34 407.887 1036.93 402.611 1033.72 400.874C1036.67 404.191 1038.83 413.198 1039.62 417.672C1040.9 424.893 1040.89 432.531 1036.6 438.745C1037.41 434.86 1033.59 423.227 1033.02 418.084C1032.33 411.804 1033.34 405.15 1032.05 399.031C1034.55 398.385 1036.62 397.584 1038.92 396.457Z"/>
	<path fill="white" d="M731.424 803.838L741.776 806.245L741.739 851.687L731.34 851.92Q731.126 827.878 731.424 803.838Z"/>
	<path fill="#F99835" d="M142.341 670.779L157.741 669.086C157.068 678.374 155.892 687.676 154.944 696.943C154.683 698.384 154.806 699.942 153.587 700.844C150.077 703.44 142.829 702.701 138.563 703.133C140.025 692.388 141.098 681.554 142.341 670.779Z"/>
	<path fill="#F99835" d="M168.684 553.142L169.543 553.368C170.751 557.142 167.428 581.343 166.996 587.121L152.628 589.339L151.988 589.255C150.494 586.272 154.395 560.69 154.964 555.588L168.684 553.142Z"/>
	<path fill="white" d="M686.357 699.8Q699.877 705.998 713.679 711.538C714.14 717.95 714.338 724.349 714.501 730.774C706.657 729.776 694.263 722.845 686.883 719.581C686.902 712.999 686.555 706.382 686.357 699.8Z"/>
	<path fill="white" d="M745.279 806.808C749.454 807.224 753.573 808.264 757.668 809.153L757.635 851.564L745.126 851.537L745.279 806.808Z"/>
	<path fill="white" d="M1312.88 712.295C1313.67 712.434 1314.6 712.295 1315.03 713.057C1316.89 716.395 1317.8 727.616 1316.71 731.317C1315.48 734.888 1296.46 747.085 1292.35 749.81L1291.98 750.336C1289.45 744.916 1291.18 737.889 1288.78 732.159C1294.22 729.715 1309.65 717.038 1312.88 712.295Z"/>
	<path fill="white" d="M574.111 78.7713L575.559 79.1647L576.047 81.3956C575.748 81.9538 575.562 82.5896 575.15 83.0702C573.553 84.9305 473.725 116.846 460.829 121.522L459.712 121.315C459.212 119.599 459.195 119.647 459.938 118.024C465.088 113.767 559.317 83.8576 574.111 78.7713Z"/>
	<path fill="white" d="M756.161 666.125C763.328 671.247 770.847 676.133 778.493 680.509C778.3 687.759 778.932 696.141 777.223 703.169L776.225 704.064L773.856 703.258L756.5 693.128L756.161 666.125Z"/>
	<path fill="white" d="M741.649 725.288C744.681 726.595 747.809 727.705 750.899 728.87L756.568 731.09C763.707 733.956 771.122 736.66 777.678 740.744L777.778 755.478L771.197 753.37L759.989 749.023L754.659 746.689Q747.928 743.691 741.254 740.567C741.146 735.481 741.455 730.371 741.649 725.288Z"/>
	<path fill="white" d="M1036.14 690.456C1039.66 692.399 1045.11 702.92 1048.29 706.843C1053.36 713.099 1059.51 718.488 1065.67 723.646C1075.72 732.06 1086.94 738.176 1098.6 744.027C1105.21 747.346 1112.73 750.48 1118.52 755.103C1120.5 756.686 1122.36 758.446 1122.67 761.07C1116.08 760.296 1104.24 753.616 1098.06 750.677C1080.18 742.183 1055.58 727.92 1044.69 710.82C1040.78 704.677 1038.56 697.288 1036.14 690.456Z"/>
	<path fill="white" d="M693.167 625.219C699.281 629.437 705.66 633.317 711.831 637.465C711.838 643.4 711.829 649.281 712.392 655.196C712.326 659.203 712.455 663.088 712.835 667.078L712.18 668.225C707.249 668.241 697.583 660.919 693.372 658.274Q693.396 641.746 693.167 625.219Z"/>
	<path fill="white" d="M760.634 809.975L775.916 813.992C776.626 826.782 776.207 839.748 776.13 852.555L761.346 852.305C760.676 838.194 760.674 824.099 760.634 809.975Z"/>
	<path fill="white" d="M1300.79 597.519C1301.26 598.074 1301.61 598.443 1301.82 599.154C1303.7 605.355 1303.6 614.24 1304.42 620.765Q1308.11 649.434 1311.49 678.141C1312.48 686.607 1314.53 696.309 1313.97 704.77C1313.25 706.644 1310.34 707.741 1308.63 708.549C1306.41 692.735 1298.61 609.582 1295.13 603.821C1297.57 602.281 1299.1 599.801 1300.79 597.519Z"/>
	<path fill="white" d="M996.627 228.902C998.497 228.734 1000.19 228.801 1002.06 228.97C1002.19 229.367 1002.5 229.749 1002.44 230.16C1002.27 231.245 991.192 256.984 989.632 261.213Q983.009 261.851 976.372 262.328C978.161 263.456 983.653 265.571 984.251 267.157C981.268 269.661 978.293 271.878 974.136 271.437C971.934 271.203 970.676 270.379 969.266 268.734C967.836 263.345 971.64 263.128 972.863 258.753C972.138 258.081 971.514 257.524 971.025 256.657L973.325 255.326C976.873 255.013 982.514 255.158 985.29 252.842C982.169 248.349 974.306 254.057 970.181 250.721L970.156 249.419C973.732 247.202 979.103 248.913 982.325 246.432C979.834 239.96 971.381 243.156 967.614 240.356C967.275 238.917 967.031 238.486 967.534 237.061C968.132 236.628 968.618 236.279 969.315 236.027C972.015 235.054 975.439 237.184 977.84 238.333C983.933 234.387 989.531 230.839 996.627 228.902Z"/>
	<path fill="white" d="M669.735 609.463Q680.178 616.15 690.069 623.631Q690.201 639.975 690.091 656.319C683.035 652.919 676.323 648.822 669.571 644.862L669.735 609.463Z"/>
	<path fill="white" d="M1304.3 559.247L1306.35 559.893C1306.56 560.256 1306.83 560.689 1306.98 561.095C1308.37 564.937 1308.06 571.697 1308.54 575.99Q1310.98 597.43 1313.64 618.843L1328.72 749.248L1336.34 813.839C1337.85 826.36 1339.94 839.086 1340.82 851.653C1340.93 853.14 1340.72 854.273 1340.02 855.595L1339.04 855.696C1338.11 854.576 1338.04 853.738 1337.85 852.364C1334.28 826.233 1332.25 799.765 1329.26 773.552L1309.74 606.915C1307.93 591.231 1307.41 574.705 1304.3 559.247Z"/>
	<path fill="white" d="M1380.27 710.047L1381.33 710.253C1381.69 710.665 1382.17 711.001 1382.42 711.491C1382.51 711.678 1392.52 797.035 1392.47 801.24C1390.68 802.549 1387.64 802.822 1385.48 803.295C1384.24 802.328 1377.69 747.78 1376.94 741.15C1376.14 734.096 1376.18 719.781 1372.86 714.165C1375.62 713.036 1377.86 711.799 1380.27 710.047Z"/>
	<path fill="white" d="M497.993 763.22C505.445 763.795 521.399 764.235 527.378 768.464L527.9 767.839L528.322 770.381C525.493 771.065 522.027 769.056 519.074 768.912C514.989 768.713 510.629 770.467 506.479 770.681C505.955 781.283 503.969 846.012 501.294 849.581C498.787 850.188 496.621 850.086 494.086 849.916C495.523 838.583 495.373 826.881 495.867 815.463C496.619 798.064 497.688 780.631 497.993 763.22Z"/>
	<path fill="white" d="M965.109 472.078C966.201 471.805 966.463 471.869 967.52 472.112C970.925 479.736 970.79 500.564 970.661 509.515C964.419 511.612 958.265 514.074 952.097 516.384C948.51 504.123 947.724 490.352 945.688 477.715C952.108 475.533 958.414 473.278 965.109 472.078Z"/>
	<path fill="#000007" d="M963.534 474.18L964.446 474.493C966.527 479.646 966.189 500.169 966.508 506.525C962.655 507.605 959.016 509.237 955.342 510.801C953.55 500.178 952.284 489.215 951.36 478.482L963.534 474.18Z"/>
	<path fill="white" d="M999.012 406.322C1001.38 405.952 1003.64 405.362 1005.98 406.079C1005.26 411.793 1005.72 418.189 1004.11 423.709C1003.38 426.189 1002.74 426.875 1000.61 428.058C998.855 427.657 998.412 427.704 997.141 426.353L998.382 416.258C974.754 421.866 976.24 423.898 959.649 440.027C958.293 439.523 958.657 435.224 957.373 433.519C954.394 433.952 951.747 438.324 949.858 440.642L950.647 439.362C952.706 435.983 957.345 429.101 956.355 425.027L954.936 425.156C946.524 432.966 939.455 441.938 930.697 449.499C933.057 444.718 935.389 440.061 938.645 435.809C954.13 415.586 974.811 409.522 999.012 406.322Z"/>
	<path fill="white" d="M617.024 575.34C624.618 579.107 631.986 584.884 639.113 589.549Q639.02 609.022 638.688 628.492C630.791 624.539 622.994 620.311 615.755 615.237C615.809 602.046 615.91 588.475 617.024 575.34Z"/>
	<path fill="white" d="M1004.91 457.116C1006.68 456.875 1007.33 456.612 1009 457.348C1011 465.209 1010.86 486.872 1011.34 496.093C1005 497.809 998.634 499.796 992.127 500.734C988.379 488.247 985.661 474.952 984.121 462.004Q994.34 458.812 1004.91 457.116Z"/>
	<path fill="#000007" d="M996.951 464.095L999.666 464.574C1002.69 468.287 1003.74 486.382 1004.43 492.117C1003.45 493.779 1001.15 494.167 999.366 494.866C997.894 495.028 997.632 495.125 996.328 494.472C993.953 489.353 991.502 471.294 993.616 466.3C994.184 464.957 995.668 464.688 996.951 464.095Z"/>
	<path fill="white" d="M642.058 591.342C650.445 596.474 659.558 601.504 667.113 607.798C667.084 614.323 668.182 639.213 665.788 643.579C664.013 642.086 662.244 641.245 660.162 640.29L641.934 630.185L642.058 591.342Z"/>
	<path fill="#F99835" d="M175.908 477.258L176.721 477.372C178.788 480.889 171.246 541.081 170.334 549.59L157.806 551.937L156.159 551.848C154.653 548.486 162.858 489.235 163.743 479.848C167.821 479.235 171.882 478.16 175.908 477.258Z"/>
	<path fill="white" d="M811.617 755.708C830.151 763.171 848.192 772.714 866.153 781.501L866.247 799.52C857.505 795.706 814.853 778.846 811.426 774.935C812.177 768.76 811.636 761.953 811.617 755.708Z"/>
	<path fill="#F99835" d="M872.456 644.085C874.652 645.335 876.653 647.707 878.497 649.453C877.821 675.89 878.896 702.647 879.118 729.115L879.968 856.611C878.335 856.301 877.526 856.051 876.188 855.069C875.833 854.25 875.55 853.627 875.436 852.731C874.631 846.392 875.328 838.956 875.303 832.518Q875.264 811.03 874.934 789.545L872.456 644.085Z"/>
	<path fill="white" d="M1056.59 738.523C1061.5 738.57 1074.67 746.734 1079.73 749.181C1090.7 754.488 1102.16 758.946 1113.58 763.218C1118.53 765.072 1123.8 766.402 1128.6 768.613C1131.53 771.495 1132.13 774.22 1132.38 778.14C1128.67 774.729 1081.98 756.325 1075.58 754.301L1074.86 755.26C1078.13 767.03 1096.86 776.257 1107.37 780.618C1111.82 782.468 1118.67 783.92 1122.12 787.288C1103.33 786.1 1086.87 780.421 1068.86 775.486C1068.92 775.27 1068.99 775.055 1069.04 774.836C1070.76 767.567 1060.85 744.898 1056.59 738.523Z"/>
	<path fill="white" d="M612.732 667.998C624.079 673.487 636.172 677.923 647.86 682.66C651.025 684.142 658.501 688.784 661.692 688.603C662.61 695.81 662.24 703.332 662.239 710.598C654.827 706.87 646.132 703.016 638.171 700.797C636.102 699.64 633.736 698.841 631.541 697.94L615.535 691.91L613.292 690.664C610.604 686.619 612.606 673.191 612.732 667.998Z"/>
	<path fill="#F99835" d="M164.689 590.671L166.13 590.948C166.562 598.01 164.614 606.668 163.843 613.767L158.243 665.924C153.607 666.129 148.971 666.723 144.356 667.202C143.914 667.264 143.366 666.875 142.962 666.687C143.325 658.267 144.756 649.641 145.692 641.254Q148.443 617.115 150.879 592.943C155.472 592.135 160.086 591.425 164.689 590.671Z"/>
	<path fill="white" d="M610.482 748.912L621.214 751.414L634.704 755.445C639.154 756.604 643.622 757.933 648.121 758.873C660.157 762.071 672.08 765.95 684.006 769.549L684.056 784.107C659.311 777.397 634.189 772.939 609.788 764.883L610.482 748.912Z"/>
	<path fill="white" d="M199.771 740.181C211.04 740.771 267.471 747.328 275.537 750.67L275.444 751.57Q273.683 752.203 271.831 752.471Q269.979 752.738 268.111 752.63C263.852 752.423 259.411 751.2 255.14 750.667Q230.89 747.422 206.68 743.883L203.041 781.826C200.248 804.288 198.804 826.747 195.373 849.176C192.66 849.201 189.204 849.717 186.816 848.306C186.192 838.162 188.963 826.195 190.203 815.999Q194.735 778.058 199.771 740.181Z"/>
	<path fill="white" d="M811.339 729.485Q811.574 721.01 811.519 712.531C830.159 722.282 847.852 735.239 865.697 746.483C865.827 750.089 865.711 753.927 866.283 757.481C866.29 760.096 866.198 762.645 865.988 765.252L865.127 765.637C852.714 759.969 822.635 744.696 812.378 737.045C810.995 734.903 811.367 731.966 811.339 729.485Z"/>
	<path fill="white" d="M306.711 653.862L342.685 664.297L339.544 699.184C334.869 695.819 310.898 691.362 303.475 689.645C304.011 678.397 303.756 664.632 306.711 653.862Z"/>
	<path fill="white" d="M1322.76 808.32L1325.38 808.187L1326.15 809.107C1327.49 816.132 1332.63 851.523 1330.21 856.172C1321.5 856.246 1312.77 856.095 1304.06 856.055L1302.03 855.919C1297.5 851.073 1299.14 827.445 1296.54 819.446C1302.76 817.883 1318.1 812.241 1322.76 808.32Z"/>
	<path fill="#F99835" d="M290.906 652.22C291.997 663.502 289.129 677.094 288.304 688.496C276.029 689.559 262.125 689.623 250.156 692.28C253.068 681.51 252.971 668.348 253.666 657.198Q272.272 654.601 290.906 652.22Z"/>
	<path fill="white" d="M1003.39 179.509Q1006.52 179.104 1009.68 179.032Q1012.84 178.96 1015.99 179.221Q1019.14 179.483 1022.24 180.074Q1025.35 180.666 1028.37 181.582C1036.72 184.19 1048.25 189.695 1052.52 197.78C1049.03 196.191 1045.56 195.392 1041.71 195.49C1033.93 195.687 1027.23 199.124 1021.95 204.703C1004.22 204.992 987.299 201.416 969.659 201.114Q970.351 199.985 971.097 198.891C978.953 187.378 989.977 181.985 1003.39 179.509Z"/>
	<path fill="#000007" d="M1007.55 185.146C1008.35 185.333 1008.53 185.471 1009.14 185.966C1004.27 190.072 1000.76 192.525 997.748 198.388C991.803 197.205 986.087 197.25 980.062 197.296L977.409 196.991L977.324 196.041C978.71 195.314 979.995 194.819 981.521 194.475C985.364 193.608 989.67 193.228 993.327 191.765C998.229 189.803 1002.46 186.923 1007.55 185.146Z"/>
	<path fill="white" d="M811.664 796.324C830.045 801.916 848.605 807.297 866.625 813.977C866.764 818.367 868.457 830.748 865.943 834.074L864.628 834.396C858.068 832.83 851.197 831.925 844.549 830.739C833.693 828.487 822.621 826.251 811.63 824.778L811.664 796.324Z"/>
	<path fill="white" d="M318.179 528.009Q335.617 535.908 352.941 544.053Q352.067 562.21 350.193 580.292Q332.708 573.994 315.665 566.583L314.991 565.992C313.759 561.656 317.636 534.928 318.179 528.009Z"/>
	<path fill="#F99835" d="M302.308 525.182C303.292 529.022 300.936 560.068 299.028 563.428C298.536 564.294 298.81 564.041 297.983 564.379L262.378 570.97C264.684 558.745 264.968 545.721 266.409 533.32C278.417 530.973 290.607 528.796 302.308 525.182Z"/>
	<path fill="white" d="M480.875 704.664L529.445 719.988C531.043 722.895 529.362 741.812 528.663 745.918C517.592 743.614 506.678 740.624 495.749 737.734C490.408 736.321 484.334 735.201 479.223 733.146C479.236 723.701 480.268 714.097 480.875 704.664Z"/>
	<path fill="white" d="M393.382 762.805C396.995 763.422 400.66 763.623 404.311 763.894C406.142 764.279 407.645 764.694 409.325 765.53C410.424 768.567 405.06 840.749 404.206 849.812C399.523 849.921 394.345 850.489 389.743 849.574L388.825 848.399C391.204 820.213 392.3 791.104 393.382 762.805Z"/>
	<path fill="white" d="M1101.26 373.213C1106.43 372.631 1113.85 372.178 1118.42 374.966C1121.59 381.03 1120.63 397.831 1118.99 404.456C1117.95 408.653 1115.7 412.985 1111.8 415.154C1100.2 421.592 1054.32 399.711 1040.86 395.345C1045.48 393.409 1050.22 391.599 1054.68 389.322C1058.43 390.61 1064.51 394.88 1066.98 397.976C1072.61 400.568 1077.81 403.708 1083.7 405.75C1088.86 407.536 1102.43 412.459 1107.2 410.12L1107.56 408.714C1106.25 405.683 1103.62 403.51 1101.06 401.53C1088.56 391.847 1079.82 392.547 1066.53 387.005L1065.83 386.706C1076.38 386.043 1087.46 387.233 1097.78 389.532C1097.66 389.255 1097.56 388.972 1097.43 388.701C1095.22 384.049 1087.23 381.17 1082.68 379.822C1088.97 377.597 1094.71 374.744 1101.26 373.213Z"/>
	<path fill="white" d="M486.817 606.315Q501.175 613.446 515.729 620.166C522.328 623.418 529.138 626.485 535.553 630.081C535.183 639.211 534.158 648.366 534.097 657.493C530.133 655.94 525.967 653.901 521.865 652.827C509.408 647.938 497.217 642.312 485.108 636.624Q485.588 621.448 486.817 606.315Z"/>
	<path fill="white" d="M491.015 545.166C499.099 550.882 510.995 555.792 517.699 562.469C516.165 580.218 515.875 598.052 514.433 615.803L487.382 602.964C487.757 583.78 489.836 564.345 491.015 545.166Z"/>
	<path fill="white" d="M687.482 334.842L707.358 329.677C707.103 356.584 707.032 384.233 705.067 411.049L684.584 405.539C685.185 382.081 685.297 358.207 687.482 334.842Z"/>
	<path fill="white" d="M1401.37 698.793C1402.6 698.604 1403.31 698.508 1404.49 698.926C1406.96 719.157 1408.84 739.46 1411.35 759.677C1412.68 770.348 1415.26 781.505 1415.78 792.195C1415.83 793.17 1415.61 794.132 1415.34 795.063C1412.1 797.308 1405.82 798.082 1401.9 798.898L1400.03 798.631C1398.12 795.703 1392.52 737.228 1391.45 727.913C1390.7 721.393 1390.78 711.535 1387.71 705.82C1392.09 704.118 1397.98 702.056 1401.37 698.793Z"/>
	<path fill="white" d="M484.659 641.523C493.715 645.247 505.003 648.781 513.009 654.314Q511.794 681.073 510.191 707.812C514.62 709.111 527.424 711.552 529.923 715.332L530.024 716.394C513.692 712.701 497.303 706.397 481.361 701.182C481.743 681.296 484.266 661.439 484.659 641.523Z"/>
	<path fill="white" d="M1207.68 758.378L1209.24 758.365C1211.51 764.601 1219.47 852.18 1217.97 855.309C1217.84 855.582 1217.7 855.846 1217.56 856.114C1211.51 856.111 1204.02 856.892 1198.17 855.63C1197.74 853.671 1197.52 851.411 1196.14 849.883C1197.68 845.734 1193.1 790.79 1191.24 786.377C1194.99 783.053 1207.35 762.793 1207.68 758.378Z"/>
	<path fill="#000007" d="M1197.8 796.309L1199.77 796.757C1201.35 801.163 1202.57 819.452 1201.52 823.93C1201.09 825.791 1199.79 826.134 1198.29 827.083C1197.7 826.962 1197.77 827.099 1197.47 826.502C1195.85 823.269 1195.53 806.626 1195.93 802.446C1196.13 800.353 1197.03 798.249 1197.8 796.309Z"/>
	<path fill="#000007" d="M1205.72 786.563L1207.03 787.384C1209.72 793.593 1209.64 810.865 1209.43 818.049C1208.51 819.764 1206.11 820.828 1204.48 821.827C1201.53 814.344 1204.5 800.06 1201.75 791.057C1203.53 789.684 1204.6 788.515 1205.72 786.563Z"/>
	<path fill="white" d="M474.772 764.826C474.979 763.15 475.247 761.746 475.844 760.163C480.924 757.675 489.845 762.283 495.591 762.356L496.327 762.361C494.199 771.129 494.6 781.265 494.188 790.297C493.314 809.458 492.916 828.743 491.624 847.874C491.323 848.869 491.342 849.326 490.29 849.781C486.947 851.228 475.651 850.624 472.083 849.557L471.524 847.714C472.486 820.271 475.498 792.241 474.772 764.826Z"/>
	<path fill="white" d="M998.207 713.493C999.43 717.308 1000.44 721.218 1001.55 725.07C993.709 741.224 982.299 753.649 972.475 768.335C970.786 770.745 969.293 772.719 968.813 775.69C969.539 777.819 969.589 777.638 971.473 778.587C974.132 778.748 976.43 777.923 978.929 777.147C989.307 773.739 998.913 769.134 1006.83 761.467C1008.93 765.297 1010.5 769.343 1012.14 773.384C995.463 786.778 987.53 782.288 968.646 786.321C963.111 787.503 942.905 793.597 940.27 798.517C939.747 799.494 940.101 799.869 940.354 800.882C945.638 805.834 954.601 805.668 961.114 808.323C960.713 808.624 960.59 808.761 960.043 808.915C951.965 811.198 939.612 805.124 933.265 800.712C936.794 794.554 941.085 788.657 944.98 782.711C951.003 779.609 963.735 777.162 966.643 770.737C966.165 769.596 966.274 769.259 965.125 768.624C959.667 765.611 952.624 768.193 947.173 769.855L943.725 762.576C957.697 756.616 973.997 748.256 983.04 735.726C988.305 728.43 992.536 720.529 998.207 713.493Z"/>
	<path fill="white" d="M1393.93 356.711C1394.36 357.135 1394.76 357.621 1395.01 358.176C1396.71 361.923 1399.21 386.153 1398.11 389.97C1398.14 390.672 1398.2 390.843 1397.98 391.617C1396.92 395.333 1393.36 400.074 1391.54 403.687C1384.03 418.619 1376.19 433.372 1368.46 448.193C1362.86 458.926 1357.34 470.479 1350.7 480.589C1349.94 481.75 1349.12 482.456 1347.91 483.139C1348.48 479.558 1345.2 462.043 1343.38 459.3C1348.72 453.693 1390.78 365.943 1393.93 356.711Z"/>
	<path fill="white" d="M1355.5 484.239L1356.93 484.62C1360.3 494.133 1363.39 531.886 1364.86 544.157L1372.43 607.445C1374.28 622.132 1376.52 636.825 1377.82 651.571C1378.09 654.614 1378.73 657.895 1377.56 660.783C1376.2 663.328 1372.99 664.439 1370.49 665.567C1370.18 666.121 1369.61 666.475 1369.13 666.878C1368.82 666.649 1368.4 666.522 1368.2 666.19C1367.35 664.746 1355.09 558.732 1354.06 547.621C1353.08 537.089 1351.9 503.119 1348.64 496.437C1348.79 496.328 1348.96 496.231 1349.1 496.109C1351.87 493.76 1354.96 487.766 1355.5 484.239Z"/>
	<path fill="white" d="M760.653 241.672L762.276 241.8C764.029 244.868 762.886 317.833 762.711 325.946C760.351 323.091 757.441 320.025 755.935 316.632C751.327 306.247 753.893 275.793 753.964 263.192L739.816 267.45C722.914 272.913 706.138 278.888 688.988 283.538L689.322 263.106C713.285 256.989 736.705 248.125 760.653 241.672Z"/>
	<path fill="white" d="M366.084 759.167C373.482 760.417 381.94 762.15 389.407 761.92C391.034 763.462 391.023 763.626 391.079 765.932C391.311 775.556 389.972 785.716 389.331 795.345Q387.5 821.936 386.155 848.557C384.623 850.195 383.154 850.04 380.987 850.095C374.389 850.262 367.755 849.952 361.148 850.023C362.616 832.924 363.24 815.674 364.222 798.536C364.969 785.502 366.307 772.203 366.084 759.167Z"/>
	<path fill="white" d="M341.007 755.779C346.252 756.518 360.575 757.166 364.199 759.786C361.534 787.796 360.306 816.337 359.152 844.462C358.971 846.062 358.939 847.456 357.962 848.806C351.745 851.842 340.518 850.061 333.627 849.978C335.223 818.566 338.005 787.088 341.007 755.779Z"/>
	<path fill="white" d="M1427.18 632.778C1427.94 632.891 1428.69 633.134 1429.44 633.334C1431.63 639.397 1435.51 666.975 1434.18 672.563C1431.95 674.949 1379.2 703.505 1374.63 705.549L1374.33 705.939L1373.21 706.081C1369.35 697.34 1371.92 685.498 1368.45 676.316C1372.81 674.153 1424.8 636.072 1427.18 632.778Z"/>
	<path fill="white" d="M558.787 506.213C571.198 513.789 582.341 525.097 593.9 534.042C599.54 538.372 605.359 542.58 610.819 547.129L610.374 565.303Q609.48 576.37 608.952 587.461C592.944 575.79 575.387 564.362 558.258 554.394L556.852 553.319C554.273 548.151 557.916 514.131 558.787 506.213Z"/>
	<path fill="white" d="M495.099 487.729C502.938 490.926 531.896 512.223 540.129 518.572Q539.411 543 537.713 567.38C525.803 561.168 514.644 553.006 502.66 547.175C499.679 544.449 495.373 542.229 491.968 539.975Q493.396 513.844 495.099 487.729Z"/>
	<path fill="white" d="M331.63 372.855C336.717 376.367 341.797 379.844 347.056 383.097C353.432 388.06 360.344 392.328 366.959 396.961Q364.563 429.161 360.306 461.168Q343.908 452.13 327.687 442.777L326.625 441.727C324.896 433.562 331.107 385.871 331.63 372.855Z"/>
	<path fill="white" d="M446.79 742.127Q458.385 744.798 470.031 747.237L469.689 753.951C468.47 784.087 467.354 814.377 465.395 844.471L464.79 849.325C461.929 851.579 444.818 850.182 440.32 850.155C440.697 837.707 441.855 825.181 442.588 812.74L446.79 742.127Z"/>
	<path fill="#F99835" d="M318.204 371.608C317.703 384.545 310.565 435.872 312.056 443.196C299.508 445.168 286.694 449.209 274.323 452.248C277.922 429.295 278.998 405.357 281.499 382.207C293.633 378.821 306.399 375.962 318.204 371.608Z"/>
	<path fill="#F99835" d="M57.1185 679.862C63.6561 681.956 127.635 671.765 139.673 671.151L135.423 703.775C107.828 705.24 80.4089 709.945 52.8158 711.4C54.1823 700.887 55.3865 690.321 57.1185 679.862Z"/>
	<path fill="#F99835" d="M69.4664 571.501C74.7381 573.268 141.379 558.086 152.609 556.161C151.17 567.338 150.495 579.046 148.344 590.082Q117.846 594.77 87.4046 599.811C80.6816 600.965 72.2927 601.507 65.9338 603.845C66.3467 593.418 67.7678 581.817 69.4664 571.501Z"/>
	<path fill="white" d="M789.225 683.542Q797.44 689.171 805.566 694.927C805.608 703.67 805.263 712.594 806.139 721.294Q806.014 729.292 806.248 737.288L806.287 853.579L789.532 853.11Q790.115 768.325 789.225 683.542Z"/>
	<path fill="#F99835" d="M311.208 446.606C310.831 465.256 307.531 484.463 305.453 503.039C304.749 509.338 303.214 516.767 303.66 523.026C296.125 522.487 275.332 528.341 266.688 530.168Q269.966 492.888 274.119 455.696L311.208 446.606Z"/>
	<path fill="white" d="M325.58 445.676Q342.849 455.873 360.307 465.743L353.463 540.464L318.65 524.053C320.04 497.901 323.733 471.807 325.58 445.676Z"/>
	<path fill="white" d="M1434.36 680.791L1435.52 681.142C1435.67 681.394 1435.92 681.779 1436.04 682.07C1438.68 688.448 1439.6 706.081 1440.72 713.797C1443.95 735.947 1448.72 758.701 1450.41 781.009C1450.53 782.647 1450.36 783.888 1449.7 785.406C1444.73 788.662 1431.39 791.179 1425.25 792.57C1424.84 792.768 1424.01 792.764 1423.55 792.814C1421.35 789.297 1421.58 780.729 1421.07 776.323C1419.65 764.106 1413.89 700.373 1410.1 694.624C1417.76 691.99 1428 685.796 1434.36 680.791Z"/>
	<path fill="white" d="M308.027 650.586C307.485 650.252 307.503 650.396 307.322 649.76C306.463 646.744 313.056 574.509 314.979 570.342L349.85 584.199C348.475 609.72 344.896 635.091 343.248 660.585C331.51 657.26 319.797 653.793 308.027 650.586Z"/>
	<path fill="#F99835" d="M299.412 566.864C297.226 583.964 295.898 601.226 294.298 618.391C293.387 628.159 291.329 639.45 292.224 649.185C283.778 648.153 263.23 652.37 254.098 653.756C257.743 627.499 259.092 600.67 261.926 574.285Q280.707 570.767 299.412 566.864Z"/>
	<path fill="#F99835" d="M865.89 639.966C866.463 640.027 866.935 640.355 867.445 640.615C866.539 662.488 866.901 684.857 867.235 706.756C867.415 718.585 868.473 731.084 867.264 742.806L866.374 743.133C865.689 742.611 864.405 741.895 863.901 741.252C862.898 739.971 863.369 676.628 863.323 669.808C863.286 664.462 864.203 656.155 862.737 651.137C862.594 650.648 861.709 649.71 861.379 649.252L862.224 649.206L862.518 650.113L861.553 648.973C860.186 651.446 859.84 654.236 859.665 657.027C859.047 666.923 859.865 677.204 859.997 687.136L860.279 739.799L854.938 735.505C854.964 725.33 856.327 655.135 854.017 651.714L852.407 651.705C850.251 654.57 851.835 722.599 851.751 732.295L850.935 732.991C849.725 732.401 848.571 732.182 848.046 730.842C846.381 726.596 847.152 719.322 847.1 714.737L846.67 676.866C846.646 671.298 847.249 665.502 846.802 659.98C846.619 657.711 845.903 655.598 844.786 653.624L843.919 653.554C841.721 660.109 843.415 693.316 843.508 702.734L843.525 729.031L837.613 725.373C837.577 712.444 839.081 664.449 836.239 655.02L836.744 657.091L835.277 656.738C832.262 665.506 834.109 711.052 834.135 723.34C832.901 722.496 830.456 720.971 829.857 719.643C825.527 710.043 830.907 672.017 828.341 658.445L826.865 657.838L825.688 658.491C824.63 662.682 825.205 667.555 825.267 671.85C825.418 682.35 826.969 707.782 824.821 716.919L823.594 717.494C817.974 709.859 820.454 681.308 820.494 670.586C820.504 667.977 821.031 663.938 820.318 661.552C819.922 660.228 819.362 660.099 818.242 659.477C814.617 663.039 818.263 702.759 816.399 711.492C815.767 711.385 815.447 711.366 814.82 711.078C809.128 708.459 812.401 678.568 812.249 672.294C812.16 668.62 811.536 665.156 810.492 661.642L809.114 662.926L809.724 660.524L810.463 661.902L807.891 662.744L809.042 662.797C808.08 670.929 808.501 679.432 807.973 687.652C805.78 677.2 807.548 665.915 807.469 655.295Q836.757 647.926 865.89 639.966Z"/>
	<path fill="#F99835" d="M160.694 668.685C171.693 667.801 182.771 665.936 193.724 664.521Q222.454 660.756 251.247 657.508C249.844 668.966 249.183 680.639 248.145 692.147C217.962 696.25 187.328 697.857 157.028 701.111C159.545 690.803 159.617 679.275 160.694 668.685Z"/>
	<path fill="#F99835" d="M123.724 739.277C133.018 740.643 142.798 741.477 151.934 743.574C147.41 778.734 143.132 814.172 137.691 849.195L109.35 849.067C114.138 812.492 117.994 775.717 123.724 739.277Z"/>
	<path fill="#F99835" d="M261.945 534.331L262.605 534.461C264.051 537.552 260.344 565.735 259.797 571.387L171.169 586.533L170.084 586.317C168.707 583.129 172.189 557.329 172.662 552.439C202.258 545.841 232.233 540.446 261.945 534.331Z"/>
	<path fill="white" d="M1044.65 361.673C1045.86 357.248 1045.35 353.21 1045.05 348.698C1043.8 329.845 1043.24 319.41 1056.15 303.776C1061.01 297.897 1067.75 292.214 1075.66 291.54C1082.39 290.966 1089.43 294.254 1094.44 298.551C1102.11 305.138 1107.55 318.067 1107.86 328.119C1107.95 331.157 1107.21 332.237 1105.34 334.396C1102.8 338.465 1096.78 340.089 1092.48 341.302C1087.98 339.373 1083.23 337.927 1078.6 336.338C1078.61 336.275 1078.63 336.212 1078.64 336.148C1079.02 332.217 1075.17 322.565 1072.67 319.274C1077.5 317.986 1085.34 316.199 1089.44 313.594C1092.16 313.67 1093.86 313.753 1095.98 311.94L1096.07 310.214C1095.7 309.759 1095.27 309.173 1094.75 308.852C1092.69 307.564 1091.09 308.434 1088.97 309.019C1082.49 311.308 1075.89 313.449 1069.6 316.217C1071 318.897 1070.64 321.387 1071.22 324.236C1072.01 328.099 1076.29 336.372 1075.72 339.446C1081.16 340.72 1090.18 342.214 1094.24 346.145C1097.27 344.761 1105.56 341.303 1107.12 338.356C1108.55 337.631 1109.53 336.32 1111.21 336.074C1112.35 335.907 1112.48 336.327 1113.37 336.96C1113.69 338.608 1113.89 340.092 1113.89 341.773C1112.3 345.278 1107.57 346.623 1106.37 350.256C1105.38 353.231 1115.56 354.659 1117.12 358.798C1117.8 360.623 1117.92 361.627 1117.06 363.307C1107.21 366.404 1097.25 369.138 1087.58 372.761C1077.77 376.436 1067.89 381.494 1057.68 383.811C1062.44 381.182 1066.75 375.415 1071.18 371.869C1079.01 365.598 1088.18 360.494 1095.19 353.295C1097.15 351.284 1099.77 348.373 1099.76 345.509C1097.23 346 1095.07 347.763 1092.73 348.84C1084.23 352.76 1075.07 354.68 1067.6 360.715C1062.96 364.463 1058.98 369.847 1053.81 372.769C1053.65 372.858 1053.49 372.939 1053.33 373.024Q1053.96 372.354 1054.5 371.608C1057.87 367 1066.01 346.231 1065.03 340.888C1063.84 344.675 1058.94 349.456 1055.52 351.411C1056.16 349.69 1059.14 323.434 1058.86 321.974C1056.72 325.362 1051.35 328.187 1047.81 330.09C1047.91 330.343 1048.1 330.796 1048.17 331.091C1048.98 334.891 1047.58 353.591 1046.62 357.847C1046.31 359.233 1045.46 360.528 1044.65 361.673Z"/>
	<path fill="#000007" d="M1099 312.45L1101.02 312.492C1102.68 315.153 1104.22 317.882 1105.36 320.815C1106.75 324.411 1106.75 328.556 1105.07 332.06C1102.86 336.66 1098.23 338.202 1093.74 339.682L1083.86 336.929C1081.25 334.56 1078.92 330.674 1077.15 327.619C1075.96 325.57 1075.8 324.132 1076.4 321.882C1080.72 316.366 1092.03 316.027 1098.22 312.861C1098.48 312.727 1098.74 312.587 1099 312.45Z"/>
	<path fill="white" d="M1092.43 319.933C1093.79 319.778 1095.09 319.869 1096.45 319.954C1097.19 320.5 1098.13 320.974 1098.57 321.797C1100.16 324.775 1101.01 328.354 1100.05 331.657C1098.7 333.125 1097.67 333.669 1095.81 334.369C1093.93 333.862 1093.7 333.159 1092.51 331.666L1092 331.642L1092.83 334.066L1090.83 331.437L1089.32 332.012C1089.05 332.283 1088.52 332.402 1088.15 332.539L1086.48 330.946C1085.56 328.552 1085.45 326.728 1085.46 324.206C1088.21 322.824 1093.02 324.793 1095.81 325.608C1094.65 323.96 1092.91 322.486 1091.49 321.039L1092.43 319.933Z"/>
	<path fill="white" d="M1447.82 794.068C1449.61 793.856 1450.45 793.585 1452.15 794.281C1454.23 802.431 1461.05 849.793 1459.04 854.356C1438.41 854.677 1417.7 853.85 1397.06 853.566L1389.4 853.232C1390.78 847.984 1386.99 814.993 1384.42 810.568C1393.6 809.609 1403.35 806.122 1412.25 803.693C1424.08 800.465 1436.07 797.569 1447.82 794.068Z"/>
	<path fill="white" d="M1378.63 442.229C1379.36 442.368 1379.76 442.675 1380.38 443.072C1382.3 452.251 1382.54 461.982 1383.62 471.313L1390.82 535.878L1399.02 609.307C1399.9 617.33 1403.18 633.85 1401.82 641.262C1400.71 645.24 1389.44 652.298 1385.8 654.536C1385.36 654.249 1385.21 653.693 1385.05 653.198C1382.87 646.144 1381.51 623.354 1380.52 614.623L1369.52 520.341C1368.55 512.137 1366.06 477.579 1362.16 472.351C1362.27 472.258 1362.38 472.163 1362.49 472.071C1367.7 467.675 1376.8 448.911 1378.63 442.229Z"/>
	<path fill="white" d="M1399.15 404.723L1400.21 405.936C1403.76 419.403 1403.93 436.069 1405.78 450.072L1421.47 571.148C1422.57 579.234 1429.28 618.165 1427.69 623.455C1426.21 626.559 1416.29 632.653 1412.91 634.28C1412.84 634.4 1412.8 634.53 1412.72 634.639C1411.81 635.924 1411.16 636.434 1409.68 636.827C1407.2 629.661 1407.14 615.149 1406.18 607.111C1401.24 565.712 1397.19 524.188 1392.63 482.741C1390.85 466.501 1390.38 448.514 1387.19 432.619C1386.93 431.336 1386.39 430.44 1385.53 429.492C1390.64 424.598 1396.18 411.414 1399.15 404.723Z"/>
	<path fill="white" d="M345.881 665.23L411.338 684.022C433.553 690.325 456.072 696.307 477.827 704.071C477.457 713.612 476.099 723.856 476.746 733.322C470.779 730.485 455.805 727.909 448.532 726.01Q413.698 716.668 378.635 708.227C368.614 705.797 358.442 702.759 348.281 701.031C346.329 700.31 344.666 700.114 343.516 698.304C342.781 687.378 345.218 676.152 345.881 665.23Z"/>
	<path fill="white" d="M356.427 545.668L428.955 579.521C447.289 587.957 465.964 595.948 483.825 605.353C483.214 615.422 482.386 625.551 482.125 635.631L473.188 631.826C468.259 628.187 459.69 625.523 453.973 623.036C429.8 612.519 405.083 603.328 380.985 592.674L353.398 581.179C354.39 569.348 355.23 557.479 356.427 545.668Z"/>
	<path fill="#F99835" d="M684.584 405.539L705.067 411.049Q703.605 465.007 701.344 518.937C700.254 551.496 699.948 584.327 697.361 616.801Q686.95 610.196 676.448 603.737C676.94 573.727 678.74 543.554 679.941 513.555C681.381 477.576 682.357 441.475 684.584 405.539Z"/>
	<path fill="white" d="M1046.37 866.833C1063.27 866.295 1080.27 866.568 1097.18 866.459C1100.14 870.267 1101.14 878.767 1101.67 883.487C1102.43 890.37 1102.39 910.319 1097.81 916.106C1083.32 915.179 1068.83 915.113 1054.31 914.983Q1028.92 914.551 1003.52 914.937C1003.85 899.042 999.584 883.425 999.604 867.423C1015.19 866.947 1030.78 867.607 1046.37 866.833Z"/>
	<path fill="white" d="M299.813 703.98C310.797 705.57 322.195 708.986 332.964 711.724C331.378 727.387 323.787 845.589 320.777 849.794Q303.778 850.157 286.78 849.741C287.72 829.576 290.037 809.444 291.752 789.33C294.176 760.895 296.286 732.301 299.813 703.98Z"/>
	<path fill="#F99835" d="M85.0811 434.548L85.5666 436.089C89.0566 436.908 157.334 416.08 169.026 413.649C165.644 434.851 164.241 456.351 161.12 477.595Q119.324 486.638 77.8282 496.97C81.4321 476.378 81.5186 455.116 85.0811 434.548Z"/>
	<path fill="#F99835" d="M77.7861 499.572C105.584 494.628 133.611 487.264 161.067 480.549Q156.485 516.826 152.82 553.208C125.146 558.515 97.4487 564.676 69.6633 569.27C69.957 558.447 72.2008 547.019 73.4968 536.227C74.9567 524.07 75.6935 511.612 77.7861 499.572Z"/>
	<path fill="#000007" d="M140.222 493.096L140.711 493.69C141.232 499.852 139.52 507.253 138.784 513.427L134.779 548.725Q109.571 553.81 84.2314 558.195C81.9895 553.949 88.0859 513.519 89.5145 506.035C106.374 501.582 123.212 496.938 140.222 493.096Z"/>
	<path fill="#F99835" d="M65.9338 603.845L66.7236 605.557C72.4949 606.613 136.707 595.286 148.003 593.183C145.449 618.144 141.995 643.086 140.016 668.093C128.946 669.25 61.6551 675.726 57.1676 678.704C60.4421 653.88 61.4291 628.457 65.9338 603.845Z"/>
	<path fill="#000007" d="M126.626 606.466C127.363 606.523 127.559 606.819 128.141 607.248C126.852 625.564 124.13 643.845 122.625 662.168C105.238 662.989 87.0001 666.426 69.7285 668.802L68.7575 668.179C68.7454 662.437 70.1985 656.487 70.9244 650.776L75.2364 614.76Q100.799 609.795 126.626 606.466Z"/>
	<path fill="white" d="M1255.9 674.036L1257.24 674.438C1257.28 674.568 1257.33 674.698 1257.37 674.829C1259.32 680.784 1259.48 688.47 1260.26 694.721C1262.91 715.773 1264.8 736.818 1266.83 757.931C1269.78 788.463 1274.22 819.332 1276 849.93C1276.13 852.169 1276.26 853.961 1275.21 856.021Q1260.39 856.304 1245.56 856.262L1240.5 856.017C1240.12 855.714 1239.61 855.523 1239.36 855.107C1238.32 853.398 1230.1 767.807 1229.12 758.213C1228.18 749.094 1228.2 731.696 1224.21 724.226C1226.99 721.836 1254.31 678.754 1255.9 674.036Z"/>
	<path fill="#000007" d="M1233.43 728.047L1235.13 728.362C1237.37 732.33 1238.94 758.361 1238.07 763.813C1238.01 764.111 1237.98 764.42 1237.88 764.708C1237.18 766.631 1234.84 768.005 1233.19 768.966C1234.39 764.569 1230.91 737.962 1229.25 732.809C1230.99 731.57 1232.56 729.994 1233.43 728.047Z"/>
	<path fill="#000007" d="M1238.5 785.062L1240.42 785.162C1243.41 790.464 1246.37 816.47 1244.78 822.443L1242.19 823.593C1241.73 823.989 1241.23 824.019 1240.66 824.16C1239.97 823.076 1239.8 822.215 1239.6 820.96C1238.48 813.761 1234.47 790.594 1238.5 785.062Z"/>
	<path fill="#000007" d="M1242.92 718.297L1243.93 718.641C1245.78 721.012 1247.52 751.14 1247.06 755.432C1247.03 755.571 1247.02 755.718 1246.96 755.847C1246.06 757.729 1244.04 758.843 1242.29 759.754C1240.42 749.145 1241.25 733.113 1237.33 723.733C1239.67 722.133 1241.17 720.497 1242.92 718.297Z"/>
	<path fill="#000007" d="M1248.44 778.313L1250.13 779.294C1252.4 785.891 1253.69 809.784 1253.7 817.276C1252.28 819.149 1250.28 819.746 1248.18 820.625C1247.05 815.882 1244.03 787.915 1244.4 783.489C1244.62 780.879 1246.52 779.92 1248.44 778.313Z"/>
	<path fill="#000007" d="M1250.54 708.544L1252.14 708.809C1254.19 711.597 1256.74 741.777 1256.12 746.123C1255.59 748.191 1253.13 749.671 1251.52 750.886L1251.43 750.893C1249.42 749.036 1247.49 719.552 1246.61 714.129C1248.41 712.826 1249.65 710.538 1250.54 708.544Z"/>
	<path fill="#000007" d="M1257.74 769.31L1258.78 769.938C1261.11 773.346 1263.03 806.34 1262.81 812.155L1262.75 812.336C1261.24 813.915 1259.25 814.542 1257.27 815.365C1255.44 802.012 1255.83 786.43 1252.91 773.718C1254.85 772.42 1256.24 771.096 1257.74 769.31Z"/>
	<path fill="white" d="M363.18 467.272C370.088 471.073 376.715 475.239 383.357 479.483C381.45 490.699 377.004 541.669 378.99 550.893L379.517 550.734C382.691 531.54 382.864 511.551 384.549 492.162L384.98 492.049L384.895 490.949L389.243 493.263C394.01 496.831 399.287 499.906 404.433 502.898C403.041 521.374 401.838 539.935 400.02 558.372L407.169 561.887C408.752 543.448 409.511 524.922 411.519 506.526C413.594 507.58 416.115 508.443 417.262 510.562C416.825 527.399 415.392 547.052 412.937 563.656C415.192 564.799 417.448 566.043 419.746 567.089Q421.784 540.145 424.206 513.233C427.627 515.16 439.224 520.827 440.374 524.302C440.46 524.56 440.503 524.83 440.567 525.094C439.9 531.474 435.704 570.021 436.441 572.546C436.643 573.237 437.37 574.403 437.846 574.927C439.034 576.236 440.057 576.668 441.74 576.775C444.471 573.163 446.04 537.39 446.585 530.74C446.946 528.802 446.691 528.057 448.349 526.893C450.146 527.227 451.081 528.334 452.344 529.546C451.847 535.428 447.865 578.775 449.873 581.646C450.602 582.687 451.012 582.416 452.155 582.537C453.82 581.475 454.546 580.501 454.962 578.534C456.695 570.344 458.33 542.748 458.479 533.235C460.256 532.608 461.28 533.354 462.915 534.154C466.412 535.866 469.627 538.14 473.112 539.858C473.762 540.42 475.094 541.279 475.535 541.954C479.255 547.651 471.665 585.287 474.55 593.571L475.757 593.942C478.439 589.207 479.19 548.33 479.679 539.196L488.343 544.003C486.415 563.072 485.689 582.423 484.435 601.561L356.656 541.686C358.493 516.852 361.512 492.115 363.18 467.272Z"/>
	<path fill="white" d="M352.92 585.08L374.462 594.1C373.735 604.745 368.076 658.214 370.645 665.424C373.538 661.967 375.441 614.208 375.974 606.198C379.667 607.6 392.722 611.277 393.867 614.715C394.053 615.272 393.957 616.398 393.953 616.941C393.392 622.945 389.289 667.461 389.634 669.356C391.301 670.562 392.466 670.955 394.504 671.198L395.937 670.606C397.408 663.655 397.537 656.059 398.162 648.976C399.082 638.553 400.356 628.007 400.79 617.556L401.604 615.326C402.81 614.9 403.157 614.624 404.391 615.243C405.413 615.757 406.137 616.926 406.803 617.827C406.968 619.296 406.995 620.397 406.768 621.855C405.664 639.218 403.762 656.517 402.509 673.868L410.135 675.902C411.428 657.979 411.935 639.552 414.526 621.794C418.991 622.615 428.87 626.48 432.234 629.474C431.764 635.702 427.531 678.153 429.029 681.672C430.803 682.364 432.02 682.768 433.935 682.671C436.51 678.691 437.762 641.707 438.366 633.714L438.911 631.68L440.15 631.109C441.902 631.63 442.604 632.181 443.818 633.533C443.233 643.255 442.833 653.035 442.072 662.74C441.51 669.9 440.384 677.11 440.831 684.296C442.323 685.588 443.222 685.799 445.164 686.023L446.374 685.307C448.74 670.505 449.319 650.479 449.412 635.368C454.4 633.909 462.471 639.986 467.812 640.808C469.78 651.778 467.292 669.647 466.509 681.138C466.237 685.124 465.551 689.427 466.054 693.398L467.185 694.249L468.327 693.817C470.767 675.629 470.732 656.144 471.662 637.793L482.045 641.243L478.43 700.35C459.649 694.966 441.007 689.024 422.238 683.568C396.967 676.223 371.426 669.241 346.363 661.242Q350.193 623.209 352.92 585.08Z"/>
	<path fill="#F99835" d="M270.629 456.356C271.85 459.238 264.698 522.253 263.785 530.732Q219.015 540.088 174.126 548.853L173.837 548.636C172.871 546.969 179.658 483.736 180.308 476.333C210.482 469.984 240.461 462.746 270.629 456.356Z"/>
	<path fill="#000007" d="M250.503 470.547L251 470.834C251.697 476.032 250.098 482.699 249.47 487.946C247.921 500.874 245.919 513.897 245.117 526.892L191.499 538.463L190.877 537.963C189.287 530.636 192.451 495.741 193.497 486.566C212.478 481.09 231.337 475.359 250.503 470.547Z"/>
	<path fill="white" d="M930.834 545.83C939.198 536.229 948.962 527.148 962.108 525.814C962.365 529.962 962.577 534.117 963.068 538.245C958.306 539.577 953.153 540.634 948.812 543.05L948.239 544.103C952.161 546.502 959.557 545.319 963.887 544.427C965.526 548.084 967.096 551.717 969.268 555.1C960.519 557.894 946.472 555.815 937.212 555.722C947.626 561.367 960.039 563.587 971.247 567.343C962.48 568.572 953.635 568.17 944.818 567.925C952.213 575.711 961.633 583.376 967.452 592.392C971.819 599.16 973.38 607.884 975.918 615.482C977.748 620.962 979.994 626.273 982.253 631.586C969.175 619.408 954.926 601.982 949.301 584.922C949.464 611.437 960.215 644.732 974.917 666.817C981.03 675.999 989.632 683.716 991.997 694.822C980.488 712.598 963.189 728.499 947.501 742.654C945.994 726.11 946.934 708.394 943.723 692.16C940.184 674.268 932.511 657.709 930.22 639.406C926.372 608.677 929.144 576.639 930.834 545.83Z"/>
	<path fill="#000007" d="M954.786 662.248C958.05 665.401 974.051 703.793 975.836 710.13C975.021 709.931 974.339 709.602 973.655 709.122C963.743 702.16 957.218 673.916 954.786 662.248Z"/>
	<path fill="#F99835" d="M258.602 574.979C259.853 577.619 252.55 644.51 251.66 653.957C221.932 658.309 192.022 661.515 162.239 665.49C161.308 664.105 161.472 663.714 161.541 662.034C161.964 651.761 163.942 641.104 165.046 630.835C166.511 617.212 167.323 603.538 168.928 589.927C198.71 584.709 228.699 579.411 258.602 574.979Z"/>
	<path fill="#000007" d="M238.546 587.623L240.755 587.333C242.674 589.703 236.154 640.327 235.343 648.054Q208.927 651.695 182.429 654.683C181.504 654.78 180.902 654.614 180.005 654.411C177.563 648.074 182.288 605.682 183.315 596.794C201.638 594.898 220.428 590.989 238.546 587.623Z"/>
	<path fill="#F99835" d="M245.077 392.005C256.483 389.631 267.803 386.031 278.975 382.733Q274.904 417.656 272.004 452.695C236.169 460.714 199.414 467.344 164.029 477.016C165.922 464.385 167.118 451.618 168.529 438.926C169.469 430.479 170.874 421.793 171.189 413.315C174.88 411.038 181.159 409.955 185.397 408.756Q204.129 403.487 222.945 398.525C230.151 396.603 238.348 395.109 245.077 392.005Z"/>
	<path fill="white" d="M369.892 399.5C375.584 403.153 381.11 407.15 386.701 410.963C394.091 418.052 404.721 423.935 413.24 429.732C421.928 435.643 489.533 481.27 492.226 486.127C491.217 502.621 491.327 520.106 488.771 536.388C488.35 536.699 487.898 537.125 487.406 537.302C479.719 530.567 468.584 525.416 459.818 520.071C437.221 506.293 414.954 492.318 391.684 479.648C384.395 474.017 371.756 468.008 363.516 463.029C366.239 441.947 367.941 420.667 369.892 399.5Z"/>
	<path fill="white" d="M967.001 528.052C967.273 526.531 967.145 525.238 968.464 524.248C976.548 518.18 1005.15 513.234 1015.91 512.887C1021.11 512.719 1026.24 513.263 1031.33 514.271C1046.4 517.251 1048.13 521.488 1058.18 531.945C1060.79 534.668 1064.34 537.074 1066.5 540.14C1068.08 542.388 1069.12 545.919 1068.5 548.662C1068.46 548.826 1068.4 548.983 1068.34 549.143C1055.04 546.015 1040.18 547.214 1026.93 549.916C1029.85 550.42 1032.63 550.954 1035.27 552.374C1049.64 560.096 1069.64 583.163 1079.19 596.724C1080.4 598.448 1080.7 599.457 1081 601.543C1077.61 597.194 1049.13 582.178 1043.51 580.573C1049.39 585.34 1054.36 591.733 1059.53 597.275C1068.21 606.577 1092.6 629.384 1093.86 642.07C1093.99 643.336 1093.88 644.69 1093.81 645.958C1090.56 634.894 1055.28 599.534 1044.7 593.774Q1043.65 593.205 1042.57 592.691C1048.1 597.007 1052.44 603.092 1056.87 608.502C1068.68 622.902 1089.87 648.299 1092.01 667.344C1092.11 668.227 1092.08 668.935 1091.8 669.786L1091.45 669.548C1088.31 667.42 1084.8 665.847 1081.56 663.835C1072.84 658.406 1064.79 652.362 1057.43 645.185C1052.25 640.142 1034.38 615.845 1032.38 614.831C1037.58 628.549 1043 641.887 1052.43 653.332C1057.05 658.931 1062.96 664.058 1068.72 668.442C1073.61 672.16 1104 690.827 1105.18 693.688C1107.07 697.661 1108.27 706.432 1106.97 710.709C1106.77 711.358 1106.48 711.946 1106.15 712.532C1105.89 706.557 1096.38 698.135 1091.93 694.046C1082.69 685.565 1071.81 679.091 1062.33 670.914C1040.46 652.07 1027.24 632.783 1012.14 608.715C1008.33 602.647 1003.74 596.671 1000.83 590.138C1008.26 596.312 1015.55 603.141 1023.72 608.322C1029.96 612.272 1037.27 615.2 1043.16 619.481C1041.74 614.682 1008.83 588.92 1002.94 583.825C1002.06 583.07 1001.38 582.258 1000.64 581.375C1005.33 580.259 1019.38 587.28 1023.75 589.901C1019.65 581.707 1000.74 574.842 994.139 565.984C1007.63 567.828 1022.02 568.681 1035.17 572.094C1028.2 564.519 1002.84 561.863 992.307 560.112C985.15 557.126 978.321 558.131 973.389 550.967C979.274 548.685 1030.08 543.581 1037.73 543.748C1046.87 543.948 1055.9 545.741 1064.88 547.309C1064.22 544.766 1062.14 543.055 1060.08 541.568C1043.24 529.451 992.853 544.588 972.637 548.126C971.038 546.872 970.965 546.082 970.283 544.206C970.658 542.904 970.858 542.778 972.123 542.178C976.433 540.136 982.455 539.224 987.117 537.972C998.557 534.901 1034.63 526.174 1041.38 518.847C1041.48 518.735 1041.58 518.616 1041.68 518.501C1016.51 520.522 991.484 530.233 967.593 537.93C967.575 534.585 967.421 531.371 967.001 528.052Z"/>
	<path fill="#F99835" d="M1021.8 669.248C1031.36 676.037 1036.84 714.435 1042.02 726.891C1044.78 733.54 1050.8 738.455 1053.52 745.303C1056.19 752.051 1059.93 778.033 1057.38 783.953C1061.98 786.391 1066.61 789.085 1070.92 791.996C1071.06 792.354 1071.17 792.725 1071.26 793.098C1071.87 795.633 1070.84 798.591 1069.54 800.741C1077.57 804.005 1083.39 812.336 1087.25 819.76C1091 826.96 1099.38 849.197 1096.96 856.74C1085.49 857.306 1074.04 857.302 1062.56 857.341L1000.45 857.299C1000.85 848.005 1000.58 837.751 1002.76 828.677C1005.49 817.327 1009.65 810.037 1019.68 803.952L1016.37 791.436C1019.09 788.513 1022.34 785.456 1024.14 781.873C1028.38 773.444 1021.48 763.204 1018.62 755.067C1023.55 733.868 1016.95 724.885 1016.38 706.506C1016.01 694.591 1019.49 680.966 1021.8 669.248Z"/>
	<path fill="white" d="M556.656 559.07C573.195 569.66 589.677 581.344 606.765 590.952C607.111 591.352 608.037 592.175 608.207 592.619C610.496 598.588 605.62 657.582 605.958 669.748C604.589 683.738 604.657 698.068 604.206 712.125C602.414 719.745 602.386 752.142 602.056 762.135L598.409 850.62C579.733 850.754 560.871 851.283 542.224 850.28C542.615 806.955 546.2 763.433 547.982 720.131Q550.022 667.591 552.684 615.077C553.56 597.66 553.941 580.054 555.563 562.694C555.701 561.212 555.773 560.305 556.656 559.07Z"/>
	<path fill="white" d="M688.563 304.622C702.455 301.618 716.816 297.625 730.901 295.93C754.775 325.167 780.023 353.331 802.483 383.712L802.245 541.818Q801.179 613.594 802.278 685.367C800.224 684.087 797.296 682.8 796.248 680.55C796.545 678.099 796.751 675.36 796.564 672.9C796.416 670.959 795.583 669.303 794.077 668.097L792.87 668.804C791.377 671.731 791.948 675.206 792.097 678.388C791.034 678.268 790.41 677.741 789.526 677.179C788.087 673.806 788.821 669.087 788.363 665.353L785.563 663.872L784.506 664.286C783.527 667.429 785.642 672 783.969 674.328C781.903 673.427 781.563 672.043 780.803 669.998C780.009 667.862 778.985 662.655 777.334 661.463C776.864 663.831 777.306 668.084 775.469 669.373C775.403 669.419 775.321 669.438 775.247 669.47C771.509 665.244 773.438 661.573 770.805 658.714C769.842 660.752 770.978 663.267 769.178 664.565C767.619 663.796 767.491 663.745 766.903 662.113C765.904 659.339 766.492 657.154 764.254 654.986L763.43 655.662L763.092 659.524L761.91 659.994C759.011 658.471 756.408 649.673 754.894 650.133L754.039 653.088L752.867 653.552C750 651.266 748.313 647.143 746.578 643.942L745.738 644.082L745.354 647.205C741.758 647.023 740.109 642.929 737.196 641.504C733.946 639.914 731.773 639.29 728.694 636.995C729.063 618.882 728.527 473.192 731.142 466.818L733.163 468.12L733.119 468.137L732.814 464.543L733.457 465.571C733.524 458.793 735.289 447.61 731.941 441.916C727.42 434.228 737.094 404.07 732.235 398.901L731.622 404.211C730.287 383.279 732.015 359.437 731.878 338.064C747.993 358.011 764.135 378.286 781.369 397.283L781.838 374.253C776.006 364.851 768.336 356.337 761.584 347.567Q745.074 325.848 728.874 303.898C715.44 307.019 701.349 311.39 687.625 312.564L688.563 304.622Z"/>
	<path fill="#000007" d="M762.897 617.571C763.379 617.736 764.17 617.973 764.575 618.263C767.738 620.526 766.467 637.063 766.452 641.272L764.685 640.576C761.709 636.769 763.757 623.72 763.015 618.378L762.897 617.571Z"/>
	<path fill="#000007" d="M777.262 625.161L779.236 626.084C781.954 630.92 780.228 642.67 780.076 648.217C779.101 647.77 778.426 647.109 777.63 646.407C775.847 640.306 777.077 631.559 777.262 625.161Z"/>
	<path fill="#000007" d="M770.317 549.787C770.834 550.133 771.174 550.316 771.594 550.825C774.292 554.093 772.775 571.573 772.244 576.149C771.751 575.728 771.373 575.452 770.989 574.894C768.456 571.222 769.394 554.387 770.317 549.787Z"/>
	<path fill="#000007" d="M777.502 410.847C778.512 411.717 779.334 412.173 779.768 413.469C781.389 418.315 781.14 433.678 779.025 438.25C778.96 438.136 778.898 438.021 778.83 437.908C775.401 432.26 777.182 417.569 777.502 410.847Z"/>
	<path fill="#000007" d="M770.443 440.14L772.158 441.441C774.946 446.991 773.187 459.325 772.987 465.742L771.649 465.312C768.349 461.165 770.257 445.81 770.443 440.14Z"/>
	<path fill="#000007" d="M763.289 469.968C763.844 470.29 764.573 470.662 765.046 471.12C767.622 473.621 765.777 491.235 765.647 495.466L763.941 494.269C761.064 488.986 762.979 476.274 763.289 469.968Z"/>
	<path fill="#000007" d="M763.182 507.426L764.898 508.744C767.68 514.101 765.927 527.316 765.6 533.529C765.026 533.055 764.824 532.922 764.356 532.434C760.979 528.916 762.894 512.624 763.182 507.426Z"/>
	<path fill="#000007" d="M769.717 403.141C770.823 403.53 771.503 404.326 772.314 405.133C775.071 411.845 773.357 423.637 773.118 431.043C772.775 430.917 772.414 430.816 772.139 430.549C769.282 427.763 770.696 408.54 769.717 403.141Z"/>
	<path fill="#000007" d="M777.753 519.773C778.228 520.109 778.898 520.528 779.266 521.006C781.891 524.419 780.177 541.281 779.688 545.94L778.049 544.797C775.522 539.866 776.551 525.227 777.753 519.773Z"/>
	<path fill="#000007" d="M763.483 544.952L764.904 545.946C767.434 551.372 766.608 564.012 765.457 569.987L763.724 568.825C761.29 564.428 762.228 549.882 763.483 544.952Z"/>
	<path fill="#000007" d="M737.274 487.279L739.403 488.795C742.16 494.562 740.399 506.133 740.175 512.684L738.282 511.338C735.31 506.033 737.055 493.285 737.274 487.279Z"/>
	<path fill="#000007" d="M785.305 595.523L786.875 596.756C789.598 602.363 788.485 613.124 787.765 619.317L785.772 618.026C783.236 612.755 784.113 601.298 785.305 595.523Z"/>
	<path fill="#000007" d="M755.227 577.15L757.243 578.599C759.997 584.167 758.71 595.404 758.044 601.604L756.022 600.955C753.366 596.015 755.089 583.111 755.227 577.15Z"/>
	<path fill="#000007" d="M770.292 514.091L772.183 515.142C775.147 520.032 773.437 533.632 773.128 539.554L771.521 539.262C768.529 536.028 770.216 519.034 770.292 514.091Z"/>
	<path fill="#000007" d="M736.95 602.545L739 603.936C742.097 609.952 740.436 621.91 739.998 628.665C739.239 628.558 738.668 628.229 737.98 627.906C735.776 622.03 736.979 609.071 736.95 602.545Z"/>
	<path fill="#000007" d="M755.312 500.788C755.841 501.094 756.315 501.435 756.737 501.883C759.952 505.294 758.6 521.387 758.641 526.435C757.607 526.497 757.034 526.196 756.112 525.756C753.347 520.208 755.141 507.282 755.312 500.788Z"/>
	<path fill="#000007" d="M746.029 607.884C746.945 608.295 747.544 608.669 748.223 609.4C751.061 612.45 749.581 628.429 749.491 632.909C748.968 632.659 748.306 632.393 747.859 632.001C744.421 628.988 745.966 612.64 746.029 607.884Z"/>
	<path fill="#000007" d="M755.877 539.063C756.699 539.756 757.245 540.035 757.678 541.049C759.605 545.566 759.226 560.88 757.361 565.255C756.817 564.647 756.296 564.017 755.895 563.301C753.236 558.556 754.603 544.455 755.877 539.063Z"/>
	<path fill="#000007" d="M784.458 455.72C785.28 456.24 786.034 456.974 786.784 457.598C789.625 463.606 788.125 473.795 787.966 480.297L785.832 479.735C782.733 474.138 784.323 462.255 784.458 455.72Z"/>
	<path fill="#000007" d="M785.01 629.681L786.788 630.904C789.57 636.232 788.651 647.067 787.738 652.982L785.477 651.653C782.819 647.16 783.882 634.83 785.01 629.681Z"/>
	<path fill="#000007" d="M746.323 493.335C746.857 493.686 747.595 494.115 748.019 494.622C751.064 498.262 749.678 513.747 749.691 519.097C748.611 519.123 748.041 518.835 747.088 518.351C744.418 511.848 746.088 500.3 746.323 493.335Z"/>
	<path fill="#000007" d="M792.589 464.623L794.635 465.834C797.651 470.334 796.043 483.884 795.686 489.437C795.376 489.122 795.064 488.809 794.771 488.478C790.029 483.13 792.114 471.225 792.589 464.623Z"/>
	<path fill="#000007" d="M784.68 561.414C785.647 562.075 786.868 562.84 787.525 563.828C790.025 567.588 788.743 580.566 787.771 585.008L785.672 584.018C782.769 578.778 784.508 567.347 784.68 561.414Z"/>
	<path fill="#000007" d="M763.476 394.318C764.006 394.661 763.932 394.582 764.473 395.112C768.434 398.996 766.657 416.531 766.558 422.051C765.629 421.517 764.956 420.891 764.166 420.18C761.42 413.475 763.192 401.446 763.476 394.318Z"/>
	<path fill="#000007" d="M776.962 447.398L779.153 449.035C781.966 455.396 780.291 466.835 780.064 473.911C779.316 473.544 778.619 473.008 777.924 472.547C775.118 466.272 776.774 454.411 776.962 447.398Z"/>
	<path fill="#000007" d="M763.13 432.502C763.611 432.869 764.044 433.272 764.452 433.719C768.634 438.295 766.577 454.317 766.371 460.262C766.079 459.964 765.785 459.666 765.508 459.354C761.261 454.568 762.814 438.963 763.13 432.502Z"/>
	<path fill="#000007" d="M763.378 581.722L764.884 582.596C767.675 586.871 766.348 601.31 765.946 606.593C764.816 605.994 763.723 605.732 763.159 604.538C761.095 600.173 761.88 586.402 763.378 581.722Z"/>
	<path fill="#000007" d="M746.952 532.448C747.439 532.787 747.705 532.929 748.102 533.433C751.59 537.864 749.996 552.465 749.801 558.391C748.731 557.696 747.675 557.256 747.041 556.117C744.784 552.068 745.62 537.006 746.952 532.448Z"/>
	<path fill="#000007" d="M792.184 428.619C793.012 428.901 793.646 429.266 794.225 429.928C797.537 433.716 795.815 449.564 795.688 454.706C795.082 454.281 794.516 453.892 794.015 453.344C790.166 449.135 792.047 434.174 792.184 428.619Z"/>
	<path fill="#000007" d="M784.512 418.217C785.798 419.136 786.638 419.469 787.124 421.101C788.623 426.137 788.736 441.827 786.555 446.162C786.324 445.922 786.082 445.692 785.861 445.442C782.778 441.971 784.052 423.601 784.512 418.217Z"/>
	<path fill="#000007" d="M792.505 634.088C793.481 634.489 794.344 635.063 795.245 635.609C798.163 640.706 796.449 651.232 796.197 656.975L793.52 655.506C790.42 650.571 792.229 639.752 792.505 634.088Z"/>
	<path fill="#000007" d="M754.626 613.026C755.518 613.326 756.383 613.778 757.241 614.164C760.031 619.498 758.287 631.553 758.063 637.769C757.061 637.475 756.464 637.237 755.751 636.476C752.924 633.455 754.505 617.439 754.626 613.026Z"/>
	<path fill="#000007" d="M792.971 531.581L794.98 533.025C797.294 538.85 796.423 550.816 796 557.204C795.06 556.908 794.241 556.46 793.366 556.014C790.12 550.24 792.444 538.149 792.971 531.581Z"/>
	<path fill="#000007" d="M746.304 571.144L748.766 572.671C751.85 577.7 750.125 590.237 750.053 596.211L747.738 594.994C744.378 591.064 746.176 576.331 746.304 571.144Z"/>
	<path fill="#000007" d="M755.169 462.388L757.417 463.771C760.541 469.439 758.803 481.658 758.595 488.177C757.302 488.182 757.122 487.869 756.054 487.213C753.359 481.219 755.003 469.177 755.169 462.388Z"/>
	<path fill="#000007" d="M777.131 480.622C777.455 480.875 777.772 481.139 778.067 481.426C782.024 485.265 780.157 504.049 779.998 509.977L777.809 508.927C775.103 503.254 776.788 487.364 777.131 480.622Z"/>
	<path fill="#000007" d="M737.309 446.077C737.948 446.517 738.462 446.864 738.984 447.428C743.012 451.778 740.655 467.81 740.305 473.889C739.625 473.932 739.071 473.715 738.421 473.537C735.757 468.966 736.806 451.8 737.309 446.077Z"/>
	<path fill="#000007" d="M754.892 422.755C755.599 423.271 756.312 423.817 756.881 424.49C760.773 429.088 758.759 445.434 758.625 451.333L756.312 449.784C753.177 443.879 754.503 429.593 754.892 422.755Z"/>
	<path fill="#000007" d="M792.213 496.388C793.092 496.866 794.047 497.392 794.755 498.11C798.249 501.656 796.449 517.644 796.309 522.517C795.368 521.999 794.344 521.433 793.648 520.597C790.188 516.44 792.047 501.705 792.213 496.388Z"/>
	<path fill="#000007" d="M746.52 453.606C747.361 454.343 748.222 455.105 748.906 455.995C752.148 460.211 750.144 476.051 749.683 481.581C748.565 481.665 748.129 481.38 747.191 480.8C744.505 473.725 746.269 461.351 746.52 453.606Z"/>
	<path fill="#000007" d="M784.536 525.35C785.609 525.764 786.425 526.31 787.163 527.195C790.859 531.63 788.762 545.362 788.468 551.05C787.123 551.079 786.74 550.607 785.638 549.878C782.715 544.277 784.391 531.906 784.536 525.35Z"/>
	<path fill="#000007" d="M754.874 384.485C755.83 385.145 756.674 385.959 757.544 386.727C760.757 394.14 758.973 405.786 758.496 413.846C758.012 413.404 757.543 412.961 757.111 412.466C753.241 408.021 754.592 390.595 754.874 384.485Z"/>
	<path fill="#000007" d="M784.509 488.697C785.233 489.15 785.923 489.64 786.539 490.238C790.634 494.219 788.735 509.863 788.656 515.411C787.06 515.09 786.741 514.688 785.542 513.643C782.591 507.58 784.298 495.567 784.509 488.697Z"/>
	<path fill="#000007" d="M737.313 404.876C738.146 405.26 738.945 405.857 739.725 406.346C743.426 412.444 741.269 427.713 741.073 434.835C740.361 434.461 739.766 433.979 739.223 433.385C734.867 428.611 736.989 411.386 737.313 404.876Z"/>
	<path fill="#000007" d="M746.203 414.059C747.543 414.58 748.268 415.32 749.251 416.318C752.142 423.666 750.436 435.765 750.224 443.751C749.275 443.107 748.286 442.448 747.46 441.646C744.134 438.415 746.059 418.744 746.203 414.059Z"/>
	<path fill="#000007" d="M737.187 364.1L739.282 365.521C743.392 372.409 741.513 386.571 741.42 394.438C739.563 393.184 738.027 391.066 736.535 389.393L737.187 364.1Z"/>
	<path fill="#000007" d="M746.785 374.14C747.562 374.719 748.303 375.347 748.967 376.055C753.215 380.588 750.761 398.597 750.528 404.65C749.633 404.265 748.988 403.787 748.355 403.05C744.184 398.195 746.048 380.527 746.785 374.14Z"/>
	<path fill="#000007" d="M738.175 527.757L740.591 529.066C742.179 539.341 739.747 550.43 739.661 560.789C739.58 570.385 740.755 579.834 740.45 589.533C739.856 590.027 739.546 589.939 738.798 590.03C735.633 586.228 737.779 535.666 738.175 527.757Z"/>
	<path fill="#000007" d="M776.878 555.695C778.072 556.556 779.432 557.387 780.174 558.697C781.792 561.559 781.231 610.421 779.752 615.408C779.25 615.12 778.544 614.769 778.122 614.346C777.018 613.241 777.065 611.368 776.979 609.891C776.471 601.148 777.36 592.282 777.384 583.526C777.408 574.243 776.64 564.982 776.878 555.695Z"/>
	<path fill="#000007" d="M792.464 563.843C793.088 564.299 793.677 564.724 794.204 565.294C800.032 571.595 795.136 590.081 795.174 598.371C795.212 606.608 796.467 614.747 796.363 623.107C795.286 623.241 794.515 622.997 793.476 622.752C793.184 622.319 792.772 621.945 792.601 621.451C792.173 620.213 791.948 568.949 792.464 563.843Z"/>
	<path fill="white" d="M583.583 55.4213Q635.797 121.975 686.681 189.552C682.857 249.242 681.393 309.212 679.312 368.985L675.311 461.364Q673.974 506.865 671.902 552.339C671.237 567.729 671.112 583.397 669.573 598.718L653.361 588.478Q663.579 398.332 671.634 208.082C669.512 205.579 667.345 203.106 665.375 200.479C664.822 254.763 660.035 309.35 657.317 363.571C653.633 437.055 651.415 510.677 647.224 584.137L640.161 579.941C644.197 450.424 655.035 321.133 659.139 191.619L653.383 185.975C653.036 205.647 651.601 225.355 650.551 245.001Q648.148 293.07 645.257 341.113L633.321 575.62L626.096 570.832Q628.284 521.133 631.144 471.47L647.655 178.222L641.309 170.486C640.684 205.315 637.327 240.344 635.373 275.132L622.543 498.053L619.881 544.145C619.609 549.756 620.112 555.49 619.625 561.062C619.469 562.847 619.405 563.752 618.355 565.263C617.294 564.908 616.748 564.644 615.961 563.843L616.523 542.906C615.867 542.359 615.204 541.812 614.574 541.233C612.615 539.432 612.928 538.264 612.976 535.769C613.731 496.647 617.155 457.11 619.66 418.05L628.936 265.35L632.973 199.523C633.775 187.858 635.916 175.02 635.259 163.447C633.729 161.541 631.35 157.658 629.158 156.892C627.964 159.252 628.19 161.918 628.143 164.51C625.984 189.305 625.215 214.313 623.73 239.165Q619.266 303.424 615.841 367.746C612.606 423.244 607.688 478.746 605.779 534.311L598.912 528.947C597.977 526.784 598.484 522.698 598.503 520.269L621.797 153.574C621.846 152.878 621.868 152.199 621.893 151.504C621.957 149.74 621.882 148.369 621.169 146.741C620.124 144.357 618.78 141.377 616.323 140.437C615.155 142.407 615.571 144.651 615.677 146.86C614.002 158.602 613.646 170.799 612.848 182.645L608.652 249.425L595.342 449.758Q593.59 472.134 592.609 494.557C592.222 502.645 592.833 512.785 590.867 520.616L589.873 520.736L583.505 515.101Q591.573 375.954 601.649 236.937C603.992 201.185 607.091 165.464 608.26 129.648L601.743 122.064C600.535 159.336 597.396 196.808 594.798 234.016L583.485 401.381C580.97 437.391 577.714 473.303 576.055 509.371L567.696 502.87C568.87 477.491 571.542 452.171 573.565 426.849C575.877 397.904 577.522 368.879 579.462 339.904L590.467 182.173C592.107 158.814 592.934 135.236 595.083 111.941L588.439 104.791Q580.737 227.131 571.279 349.347Q568.165 398.712 563.984 447.999C562.733 464.226 562.319 480.954 559.978 497.043C557.474 495.528 552.225 494.29 551.525 491.498C550.93 489.129 555.386 438.797 555.946 431.983L573.883 191.612Q576.678 145.866 580.024 100.158C581.099 85.2736 581.538 70.2156 583.583 55.4213Z"/>
	<path fill="#F99835" d="M807.745 429.241C825.871 422.314 842.962 412.827 860.499 404.584C880.97 394.962 909.062 383.195 927.685 371.662C922.248 385.824 917.443 399.206 914.678 414.181C905.657 423.442 896.473 432.754 886.96 441.504C882.042 446.028 876.317 450.001 871.675 454.764C870.582 455.884 870.521 456.762 870.579 458.255C870.639 459.83 871.06 461.414 871.406 462.946C866.915 468.645 854.661 479.493 855.207 486.731C855.381 489.053 856.537 490.789 858.299 492.21L864.102 493.614C853.686 504.111 841.769 514.612 832.627 526.222C835.429 529.539 838.227 532.662 841.427 535.6C851.624 522.242 861.152 508.342 871.656 495.233L877.139 501.443C887.229 500.009 902.228 499.041 910.949 505.581C912.224 506.537 913.34 507.71 914.418 508.877C914.489 513.693 914.32 518.765 915.1 523.522C915.739 527.417 917.029 531.399 917.275 535.331C917.511 539.106 916.11 542.967 916.215 546.768C916.262 548.446 916.261 549.708 917.522 550.921C918.254 551.625 919.16 552.123 920.029 552.637C921.896 559.827 920.468 576.673 920.426 585.137C920.333 603.611 920.077 622.404 921.751 640.817C923.536 660.456 932.926 677.781 937.267 696.644C938.984 704.104 937.546 712.914 938.13 720.606C938.765 728.979 940.779 737.297 941.297 745.637C938.588 749.334 935.75 752.839 932.751 756.304C934.347 762.673 936.3 768.882 938.331 775.124Q930.777 788.169 924.137 801.702C934.61 810.891 942.912 819.842 943.862 834.421C944.348 841.874 944.196 849.353 943.997 856.812Q913.758 856.844 883.532 855.966L882.677 748.958C882.578 721.416 883.11 693.533 881.867 666.024C882.241 659.805 881.883 653.351 881.873 647.108C877.737 643.593 873.969 639.218 870.172 635.317C849.66 641.589 828.308 645.899 807.571 651.517C806.516 577.777 809.583 503.849 807.515 430.162L807.745 429.241Z"/>
	<path fill="#F99835" d="M1055.16 276.082C1066.63 272.762 1077.3 266.145 1088.09 261.078L1158.68 227.891L1404.52 115.726C1414.03 111.329 1487.23 80.5093 1490.68 77.0891C1491.28 78.5091 1491.57 79.7212 1491.64 81.2579C1492.57 102.14 1492.19 288.215 1491.04 291.112C1490.93 291.369 1490.83 291.623 1490.72 291.879C1470.98 300.312 1451.05 308.203 1431.22 316.415C1419.84 321.128 1408.03 327.272 1396.15 330.377C1396.11 333.139 1338.64 455.646 1335.74 458.428C1335.55 458.608 1335.35 458.778 1335.16 458.953C1336.22 460.528 1336.69 462.015 1337.04 463.858C1338.64 472.207 1345.72 527.401 1344.77 531.867C1344.74 532.009 1344.69 532.148 1344.65 532.288C1341.26 534.954 1303.02 553.216 1298.86 554.418C1298.74 558.853 1271.79 605.495 1268.1 609.032C1268 609.131 1267.89 609.224 1267.78 609.32C1270.5 612.62 1273.71 646.157 1273.04 651.473C1272.95 652.261 1272.71 652.724 1272.36 653.426C1263.9 654.992 1260.1 655.486 1254.94 663.006C1251.03 668.684 1247.87 675.007 1244.34 680.934C1238.7 690.384 1232.76 699.663 1226.9 708.976C1223.93 713.702 1220.99 719.779 1216.89 723.551C1218.83 727.065 1220.27 736.446 1218.98 740.356C1218.89 740.62 1218.79 740.877 1218.69 741.138C1215.63 742.1 1212.53 742.514 1209.37 742.978C1209.45 746.178 1206.71 749.497 1204.69 751.793C1203.05 757.438 1188.84 783.018 1184.53 786.344C1186.45 790.585 1191.57 851.824 1190.44 855.842L1189.78 857.029C1175.52 858.933 1159.97 858.165 1145.54 858.479C1149.31 852.197 1144.43 817.979 1145.35 807.781C1145.97 801 1152.14 791.98 1151.93 786.285C1151.92 786.103 1151.94 785.919 1151.92 785.739C1151.41 782.324 1145.82 776.426 1143.03 774.479C1143.33 773.98 1143.64 773.431 1143.84 772.884C1145.47 768.348 1147.39 743.947 1145.78 740.499L1145.79 738.866C1142.54 732.654 1129.53 714.937 1124.39 710.373C1124.77 709.758 1125.09 709.146 1125.38 708.483C1125.45 708.321 1125.51 708.155 1125.57 707.988C1132.42 688.67 1116.49 676.484 1114.41 658.94C1113.36 650.088 1118.3 641.726 1115.8 632.598C1112.32 619.859 1103.76 609.9 1101.49 596.44C1098.83 580.696 1097.4 564.308 1095.8 548.409C1095.14 541.772 1095.65 534.391 1093.24 528.115C1106.17 520.775 1104.25 502.561 1109.2 497.687C1111.1 498.117 1112.49 498.369 1114.43 498.047C1115.23 497.222 1115.76 496.536 1116.15 495.434C1118.24 489.535 1121.29 463.228 1118.83 458.432C1115.27 451.472 1103.45 449.298 1096.67 447.131C1108.77 442.117 1131.21 433.788 1137.25 421.841C1144.02 408.431 1129.25 363.112 1124.93 347.462C1122.44 338.434 1120.46 329.067 1117.43 320.223C1111.93 304.186 1094.09 288.459 1078.31 282.868C1070.57 280.126 1063.19 280.025 1055.57 276.285L1055.16 276.082Z"/>
</svg>
