<svg width="256" height="256" viewBox="0 0 256 256" fill="none" xmlns="http://www.w3.org/2000/svg">
<path d="M127.999 255.361C198.338 255.361 255.359 198.34 255.359 128.001C255.359 57.6616 198.338 0.640625 127.999 0.640625C57.6597 0.640625 0.638672 57.6616 0.638672 128.001C0.638672 198.34 57.6597 255.361 127.999 255.361Z" fill="#382B73"/>
<path d="M152.939 37.5764L148.549 33.186C147.702 32.3392 146.597 31.7977 145.408 31.6468C144.22 31.4958 143.015 31.7438 141.983 32.3519L137.606 34.9354L136.337 30.0106C136.036 28.8513 135.36 27.8246 134.413 27.0916C133.466 26.3586 132.302 25.9607 131.105 25.9604H124.896C123.698 25.961 122.534 26.3594 121.587 27.093C120.64 27.8266 119.963 28.8539 119.663 30.0138L118.394 34.9354L114.015 32.3498C112.983 31.7427 111.778 31.4955 110.59 31.6469C109.402 31.7982 108.298 32.3396 107.451 33.186L103.061 37.5764C102.214 38.4237 101.672 39.5283 101.521 40.7169C101.37 41.9054 101.618 43.1105 102.226 44.1428L104.809 48.5204L99.8846 49.7887C98.7249 50.0889 97.6979 50.7657 96.9646 51.7129C96.2313 52.6601 95.8334 53.8239 95.8334 55.0218V61.2308C95.8336 62.429 96.2318 63.5931 96.9654 64.5403C97.6991 65.4875 98.7267 66.1641 99.8867 66.4639L104.808 67.7322L102.223 72.1119C101.615 73.144 101.368 74.3487 101.519 75.5367C101.671 76.7246 102.213 77.8286 103.06 78.6751L107.45 83.0655C108.297 83.9135 109.402 84.4558 110.591 84.6068C111.78 84.7578 112.985 84.509 114.017 83.8996L118.394 81.3162L119.664 86.242C119.964 87.4014 120.641 88.4282 121.588 89.1613C122.535 89.8943 123.698 90.2921 124.896 90.2922H125.334V113.956H111.674C111.814 108.622 111.161 97.3898 104.026 90.2559C94.6088 80.8372 78.0403 82.7135 77.3395 82.7978C76.7467 82.8692 76.1951 83.1375 75.7729 83.5597C75.3507 83.9819 75.0824 84.5335 75.011 85.1263C74.9267 85.8271 73.0504 102.395 82.4691 111.813C89.1027 118.448 99.284 119.478 104.968 119.478C106.309 119.484 107.648 119.422 108.982 119.291H125.333V142.814H121.627L116.986 134.461C116.1 132.866 114.804 131.538 113.231 130.612C111.659 129.687 109.868 129.199 108.043 129.199H80.3486C74.707 129.199 70.1182 133.788 70.1182 139.429V154.808C70.1182 154.955 70.1384 155.095 70.1608 155.234C70.1427 155.516 70.1182 155.795 70.1182 156.081V214.639C70.1182 221.955 76.0702 227.907 83.3864 227.907H114.517C115.224 227.907 115.903 227.626 116.403 227.126C116.903 226.626 117.184 225.948 117.184 225.24C117.184 224.533 116.903 223.855 116.403 223.355C115.903 222.855 115.224 222.574 114.517 222.574H83.3864C79.011 222.574 75.4515 219.014 75.4515 214.639V156.081C75.4515 151.706 79.011 148.146 83.3864 148.146H172.612C176.987 148.146 180.547 151.706 180.547 156.081V214.639C180.547 219.014 176.987 222.574 172.612 222.574H141.482C140.775 222.574 140.097 222.855 139.597 223.355C139.097 223.855 138.816 224.533 138.816 225.24C138.816 225.948 139.097 226.626 139.597 227.126C140.097 227.626 140.775 227.907 141.482 227.907H172.613C179.929 227.907 185.881 221.955 185.881 214.639V156.081C185.881 148.765 179.929 142.813 172.613 142.813H130.666V119.29H147.017C147.52 119.343 148.979 119.477 151.031 119.477C156.717 119.477 166.897 118.447 173.53 111.812C182.949 102.394 181.073 85.8261 180.989 85.1253C180.917 84.5325 180.649 83.9808 180.227 83.5586C179.804 83.1364 179.253 82.8681 178.66 82.7967C177.958 82.7114 161.391 80.8351 151.973 90.2548C144.838 97.3887 144.186 108.621 144.325 113.955H130.666V90.2922H131.105C132.303 90.292 133.467 89.8938 134.414 89.1601C135.361 88.4264 136.038 87.3989 136.338 86.2388L137.606 81.3173L141.985 83.9018C143.017 84.5094 144.222 84.757 145.41 84.6057C146.598 84.4543 147.702 83.9126 148.549 83.0655L152.939 78.6751C153.787 77.8282 154.329 76.7235 154.48 75.5348C154.632 74.3461 154.383 73.1409 153.775 72.1087L151.191 67.7311L156.117 66.4618C157.276 66.1616 158.303 65.4849 159.036 64.538C159.769 63.591 160.167 62.4273 160.167 61.2298V55.0207C160.167 53.8229 159.769 52.659 159.036 51.7118C158.303 50.7646 157.276 50.0878 156.116 49.7876H156.114L151.191 48.5194L153.776 44.1396C154.384 43.1078 154.631 41.9031 154.48 40.715C154.329 39.527 153.787 38.4229 152.939 37.5764V37.5764ZM95.1326 99.1487C94.8851 98.9009 94.5912 98.7044 94.2677 98.5702C93.9442 98.4361 93.5974 98.3671 93.2472 98.3671C92.897 98.3671 92.5503 98.4361 92.2268 98.5702C91.9033 98.7044 91.6094 98.9009 91.3619 99.1487C91.1141 99.3962 90.9175 99.6901 90.7834 100.014C90.6493 100.337 90.5802 100.684 90.5802 101.034C90.5802 101.384 90.6493 101.731 90.7834 102.055C90.9175 102.378 91.1141 102.672 91.3619 102.919L102.496 114.053C97.5614 113.763 90.6942 112.495 86.2398 108.042C80.4392 102.241 80.0339 92.337 80.1694 87.9562C84.5555 87.8207 94.4552 88.2271 100.255 94.0266C104.709 98.481 105.978 105.349 106.267 110.284L95.1326 99.1487V99.1487ZM83.3864 142.813C80.4094 142.813 77.668 143.81 75.4515 145.472V139.428C75.4532 138.13 75.9697 136.885 76.8877 135.967C77.8057 135.049 79.0503 134.533 80.3486 134.531H108.043C109.822 134.531 111.461 135.496 112.324 137.05L115.525 142.812H83.3864V142.813ZM155.745 94.0266C161.545 88.2271 171.448 87.8229 175.83 87.9562C175.966 92.337 175.56 102.241 169.76 108.042C165.303 112.498 158.435 113.771 153.499 114.058L164.639 102.918C164.886 102.671 165.083 102.377 165.217 102.053C165.351 101.73 165.42 101.383 165.42 101.033C165.42 100.683 165.351 100.336 165.217 100.013C165.083 99.689 164.886 99.3951 164.639 99.1476C164.391 98.8999 164.097 98.7033 163.774 98.5692C163.45 98.435 163.104 98.366 162.753 98.366C162.403 98.366 162.056 98.435 161.733 98.5692C161.409 98.7033 161.115 98.8999 160.868 99.1476L149.733 110.283C150.021 105.348 151.29 98.481 155.745 94.0266V94.0266ZM154.782 54.9525L155.447 52.37L154.833 55.0207L154.783 61.2991L146.427 63.4516C146.027 63.5548 145.657 63.7496 145.345 64.0206C145.033 64.2917 144.788 64.6315 144.63 65.0133C144.472 65.3951 144.404 65.8084 144.433 66.2207C144.462 66.6329 144.587 67.0328 144.797 67.3887L149.17 74.9034L144.694 79.3066L137.264 74.9215C136.908 74.7106 136.508 74.5855 136.096 74.5561C135.683 74.5267 135.269 74.5938 134.887 74.7521C134.505 74.9103 134.165 75.1555 133.894 75.468C133.623 75.7805 133.429 76.1518 133.327 76.5524L131.105 84.9578L124.826 84.9076L122.674 76.5524C122.571 76.1521 122.376 75.7813 122.105 75.4692C121.834 75.157 121.494 74.9122 121.112 74.7541C120.73 74.5959 120.316 74.5287 119.904 74.5577C119.492 74.5868 119.092 74.7113 118.736 74.9215L111.221 79.2948L106.818 74.8202L111.204 67.3898C111.414 67.0338 111.538 66.6338 111.567 66.2215C111.596 65.8092 111.529 65.3958 111.371 65.0139C111.213 64.632 110.968 64.2921 110.656 64.021C110.344 63.7499 109.973 63.555 109.573 63.4516L101.168 61.2298L101.219 54.9514L109.574 52.7978C109.974 52.6946 110.345 52.4998 110.657 52.2287C110.97 51.9577 111.214 51.6177 111.373 51.2358C111.531 50.8538 111.598 50.4404 111.569 50.028C111.54 49.6156 111.415 49.2156 111.205 48.8596L106.832 41.345L111.306 36.9418L118.737 41.3279C119.093 41.5381 119.493 41.6626 119.905 41.6917C120.318 41.7208 120.731 41.6536 121.113 41.4954C121.495 41.3372 121.835 41.0924 122.106 40.7803C122.377 40.4682 122.572 40.0973 122.675 39.697L124.897 31.2916L131.175 31.3418L133.328 39.697C133.431 40.0973 133.626 40.4682 133.897 40.7803C134.168 41.0924 134.508 41.3372 134.89 41.4954C135.272 41.6536 135.685 41.7208 136.098 41.6917C136.51 41.6626 136.91 41.5381 137.266 41.3279L144.781 36.9546L149.184 41.4303L144.799 48.8607C144.588 49.2166 144.464 49.6165 144.435 50.0288C144.406 50.4411 144.473 50.8546 144.631 51.2364C144.789 51.6183 145.034 51.9581 145.346 52.2291C145.658 52.5001 146.029 52.6948 146.43 52.7978L154.782 54.9525V54.9525Z" fill="#291B4A"/>
<path d="M128 227.907C128.707 227.907 129.386 227.626 129.886 227.126C130.386 226.626 130.667 225.948 130.667 225.241V208.314H145.435C147.24 208.312 148.971 207.594 150.248 206.317C151.525 205.041 152.243 203.31 152.244 201.504V166.635C152.243 164.829 151.525 163.098 150.248 161.822C148.971 160.545 147.24 159.827 145.435 159.825H110.566C108.761 159.827 107.03 160.545 105.753 161.822C104.477 163.098 103.759 164.829 103.757 166.635V201.504C103.759 203.31 104.477 205.04 105.753 206.317C107.03 207.594 108.761 208.312 110.566 208.314H125.333V225.241C125.333 225.948 125.614 226.626 126.114 227.126C126.615 227.626 127.293 227.907 128 227.907V227.907ZM110.565 202.98C110.174 202.98 109.799 202.824 109.522 202.547C109.245 202.271 109.09 201.895 109.089 201.504V166.635C109.089 165.821 109.751 165.159 110.565 165.159H145.434C146.247 165.159 146.91 165.821 146.91 166.635V201.504C146.91 202.318 146.247 202.98 145.434 202.98H110.565Z" fill="#291B4A"/>
<path d="M118.073 171.07C117.366 171.07 116.687 171.351 116.187 171.851C115.687 172.351 115.406 173.029 115.406 173.737C115.406 174.444 115.687 175.122 116.187 175.622C116.687 176.122 117.366 176.403 118.073 176.403H128C128.708 176.403 129.386 176.122 129.886 175.622C130.386 175.122 130.667 174.444 130.667 173.737C130.667 173.029 130.386 172.351 129.886 171.851C129.386 171.351 128.708 171.07 128 171.07H118.073ZM118.073 181.403C117.366 181.403 116.687 181.684 116.187 182.184C115.687 182.684 115.406 183.362 115.406 184.069C115.406 184.777 115.687 185.455 116.187 185.955C116.687 186.455 117.366 186.736 118.073 186.736H137.928C138.635 186.736 139.313 186.455 139.813 185.955C140.314 185.455 140.595 184.777 140.595 184.069C140.595 183.362 140.314 182.684 139.813 182.184C139.313 181.684 138.635 181.403 137.928 181.403H118.073V181.403ZM118.073 191.736C117.366 191.736 116.687 192.016 116.187 192.517C115.687 193.017 115.406 193.695 115.406 194.402C115.406 195.109 115.687 195.788 116.187 196.288C116.687 196.788 117.366 197.069 118.073 197.069H137.928C138.635 197.069 139.313 196.788 139.813 196.288C140.314 195.788 140.595 195.109 140.595 194.402C140.595 193.695 140.314 193.017 139.813 192.517C139.313 192.016 138.635 191.736 137.928 191.736H118.073V191.736ZM115.816 58.1259C115.816 64.8438 121.283 70.3105 128 70.3105C134.718 70.3105 140.185 64.8438 140.185 58.1259C140.185 51.4081 134.718 45.9414 128 45.9414C121.283 45.9414 115.816 51.4081 115.816 58.1259ZM134.852 58.1259C134.852 61.9041 131.779 64.9771 128 64.9771C124.222 64.9771 121.149 61.9041 121.149 58.1259C121.149 54.3478 124.222 51.2747 128 51.2747C131.779 51.2747 134.852 54.3489 134.852 58.1259V58.1259Z" fill="#291B4A"/>
<path d="M91.3617 94.8822C91.1139 95.1297 90.9174 95.4236 90.7832 95.7471C90.6491 96.0706 90.5801 96.4174 90.5801 96.7676C90.5801 97.1178 90.6491 97.4645 90.7832 97.788C90.9174 98.1115 91.1139 98.4054 91.3617 98.6529L105.255 112.546C105.776 113.067 106.458 113.327 107.141 113.327C107.824 113.327 108.506 113.067 109.027 112.546C109.275 112.299 109.471 112.005 109.605 111.681C109.739 111.358 109.808 111.011 109.808 110.661C109.808 110.311 109.739 109.964 109.605 109.64C109.471 109.317 109.275 109.023 109.027 108.776L95.1324 94.8822C94.8849 94.6344 94.591 94.4379 94.2675 94.3037C93.944 94.1696 93.5973 94.1006 93.2471 94.1006C92.8969 94.1006 92.5501 94.1696 92.2266 94.3037C91.9031 94.4379 91.6092 94.6344 91.3617 94.8822Z" fill="#F9B087"/>
<path d="M77.3397 78.5311C76.7469 78.6026 76.1952 78.8708 75.773 79.293C75.3509 79.7152 75.0826 80.2669 75.0111 80.8597C74.9269 81.5605 73.0506 98.1279 82.4693 107.547C89.1029 114.181 99.2842 115.212 104.968 115.212C107.354 115.212 108.948 115.03 109.156 115.005C109.749 114.933 110.301 114.665 110.723 114.243C111.145 113.821 111.413 113.269 111.485 112.676C111.569 111.975 113.445 95.4079 104.027 85.9893C94.6079 76.5706 78.0405 78.4458 77.3397 78.5311V78.5311ZM106.325 109.845C101.947 109.982 92.0394 109.574 86.2399 103.775C80.4394 97.9743 80.0341 88.0703 80.1695 83.6895C84.5557 83.5573 94.4554 83.9605 100.255 89.7599C106.055 95.5605 106.461 105.467 106.325 109.845ZM146.283 113.237C146.803 113.758 147.486 114.018 148.168 114.018C148.851 114.018 149.534 113.758 150.054 113.237L164.639 98.6527C164.887 98.4053 165.083 98.1114 165.217 97.7879C165.352 97.4644 165.421 97.1176 165.421 96.7674C165.421 96.4172 165.352 96.0704 165.217 95.7469C165.083 95.4234 164.887 95.1295 164.639 94.8821C164.391 94.6343 164.098 94.4377 163.774 94.3036C163.451 94.1695 163.104 94.1004 162.754 94.1004C162.403 94.1004 162.057 94.1695 161.733 94.3036C161.41 94.4377 161.116 94.6343 160.868 94.8821L146.284 109.467C146.036 109.714 145.839 110.008 145.705 110.331C145.571 110.655 145.502 111.002 145.502 111.352C145.502 111.702 145.571 112.049 145.705 112.372C145.839 112.696 146.035 112.99 146.283 113.237Z" fill="#F9B087"/>
<path d="M144.516 112.675C144.587 113.268 144.856 113.819 145.278 114.242C145.7 114.664 146.252 114.932 146.845 115.003C147.052 115.028 148.645 115.21 151.032 115.21C156.718 115.21 166.898 114.18 173.532 107.545C182.95 98.1267 181.074 81.5592 180.99 80.8584C180.918 80.2656 180.65 79.714 180.228 79.2918C179.806 78.8696 179.254 78.6013 178.661 78.5299C177.959 78.4456 161.392 76.5683 151.974 85.988C142.555 95.4067 144.432 111.975 144.516 112.675V112.675ZM155.745 89.7598C161.545 83.9592 171.448 83.5539 175.83 83.6894C175.966 88.0702 175.56 97.9742 169.76 103.775C163.959 109.575 154.057 109.988 149.674 109.845C149.539 105.464 149.944 95.5603 155.745 89.7598Z" fill="#F9B087"/>
<path d="M107.831 109.69C107.124 109.69 106.445 109.971 105.945 110.471C105.445 110.971 105.164 111.649 105.164 112.356C105.164 113.063 105.445 113.742 105.945 114.242C106.445 114.742 107.124 115.023 107.831 115.023H148.167C148.874 115.023 149.552 114.742 150.053 114.242C150.553 113.742 150.834 113.063 150.834 112.356C150.834 111.649 150.553 110.971 150.053 110.471C149.552 109.971 148.874 109.69 148.167 109.69H107.831V109.69ZM152.939 33.3098L148.549 28.9194C147.701 28.0726 146.597 27.5311 145.408 27.3802C144.22 27.2292 143.015 27.4772 141.982 28.0853L137.606 30.6688L136.336 25.744C136.036 24.5847 135.359 23.558 134.412 22.825C133.466 22.092 132.302 21.6941 131.104 21.6938H124.895C123.697 21.6944 122.533 22.0928 121.586 22.8264C120.639 23.56 119.962 24.5873 119.662 25.7472L118.394 30.6688L114.014 28.0832C112.982 27.4763 111.778 27.2292 110.59 27.3805C109.402 27.5319 108.298 28.0731 107.451 28.9194L103.061 33.3098C102.214 34.1571 101.672 35.2617 101.521 36.4503C101.369 37.6388 101.617 38.8439 102.226 39.8762L104.809 44.2538L99.8842 45.5221C98.7246 45.8223 97.6975 46.4991 96.9642 47.4463C96.231 48.3935 95.8331 49.5573 95.833 50.7552V56.9643C95.8332 58.1624 96.2314 59.3265 96.9651 60.2737C97.6988 61.2209 98.7263 61.8975 99.8863 62.1973L104.808 63.4656L102.222 67.8453C101.615 68.8774 101.368 70.0821 101.519 71.2701C101.671 72.458 102.213 73.562 103.06 74.4085L107.45 78.7989C108.297 79.6464 109.402 80.1883 110.591 80.3393C111.779 80.4903 112.984 80.2419 114.016 79.6331L118.394 77.0496L119.663 81.9755C119.964 83.1348 120.64 84.1616 121.587 84.8947C122.534 85.6277 123.698 86.0255 124.895 86.0256H131.104C132.303 86.0254 133.467 85.6272 134.414 84.8935C135.361 84.1598 136.038 83.1323 136.338 81.9723L137.606 77.0507L141.984 79.6352C143.017 80.2428 144.221 80.4904 145.41 80.3391C146.598 80.1877 147.702 79.646 148.549 78.7989L152.939 74.4085C153.787 73.5616 154.329 72.4569 154.48 71.2682C154.631 70.0795 154.383 68.8743 153.774 67.8421L151.191 63.4645L156.117 62.1952C157.276 61.895 158.303 61.2183 159.036 60.2714C159.769 59.3244 160.167 58.1607 160.167 56.9632V50.7541C160.167 49.5563 159.769 48.3924 159.036 47.4452C158.302 46.498 157.275 45.8212 156.116 45.521H156.114L151.191 44.2528L153.775 39.873C154.383 38.8412 154.631 37.6365 154.48 36.4484C154.328 35.2604 153.786 34.1563 152.939 33.3098V33.3098ZM154.781 50.6859L155.447 48.1034L154.832 50.7541L154.782 57.0325L146.427 59.1851C146.027 59.2882 145.656 59.483 145.344 59.754C145.032 60.0251 144.788 60.3649 144.629 60.7467C144.471 61.1285 144.404 61.5418 144.433 61.9541C144.462 62.3663 144.586 62.7662 144.796 63.1221L149.17 70.6368L144.694 75.04L137.263 70.6549C136.908 70.444 136.508 70.3189 136.095 70.2895C135.683 70.2601 135.269 70.3272 134.887 70.4855C134.505 70.6438 134.165 70.8889 133.894 71.2014C133.623 71.5139 133.429 71.8852 133.326 72.2859L131.104 80.6912L124.826 80.6411L122.674 72.2859C122.57 71.8855 122.376 71.5147 122.105 71.2026C121.833 70.8904 121.493 70.6456 121.112 70.4875C120.73 70.3293 120.316 70.2621 119.904 70.2911C119.491 70.3202 119.091 70.4447 118.735 70.6549L111.221 75.0282L106.818 70.5536L111.204 63.1232C111.414 62.7672 111.538 62.3672 111.567 61.9549C111.596 61.5426 111.529 61.1292 111.37 60.7473C111.212 60.3654 110.968 60.0255 110.656 59.7544C110.344 59.4833 109.973 59.2884 109.573 59.1851L101.167 56.9632L101.219 50.6848L109.574 48.5312C109.974 48.428 110.345 48.2332 110.657 47.9621C110.969 47.6911 111.214 47.3511 111.372 46.9692C111.53 46.5872 111.598 46.1738 111.569 45.7614C111.539 45.349 111.415 44.949 111.205 44.593L106.831 37.0784L111.306 32.6752L118.736 37.0613C119.092 37.2715 119.492 37.396 119.905 37.4251C120.317 37.4542 120.731 37.387 121.113 37.2288C121.495 37.0706 121.834 36.8258 122.106 36.5137C122.377 36.2016 122.571 35.8307 122.675 35.4304L124.896 27.025L131.175 27.0752L133.327 35.4304C133.431 35.8307 133.625 36.2016 133.896 36.5137C134.168 36.8258 134.507 37.0706 134.889 37.2288C135.271 37.387 135.685 37.4542 136.097 37.4251C136.51 37.396 136.91 37.2715 137.266 37.0613L144.78 32.688L149.183 37.1637L144.798 44.5941C144.588 44.95 144.464 45.3499 144.435 45.7622C144.405 46.1745 144.473 46.588 144.631 46.9698C144.789 47.3517 145.034 47.6915 145.346 47.9625C145.658 48.2335 146.029 48.4282 146.429 48.5312L154.781 50.6859V50.6859Z" fill="#F9B087"/>
<path d="M125.333 83.359V141.213C125.333 141.92 125.614 142.598 126.114 143.099C126.614 143.599 127.292 143.88 128 143.88C128.707 143.88 129.385 143.599 129.885 143.099C130.385 142.598 130.666 141.92 130.666 141.213V83.359C130.666 82.6518 130.385 81.9735 129.885 81.4734C129.385 80.9733 128.707 80.6924 128 80.6924C127.292 80.6924 126.614 80.9733 126.114 81.4734C125.614 81.9735 125.333 82.6518 125.333 83.359V83.359Z" fill="#F9B087"/>
<path d="M152.94 33.3098L148.549 28.9194C147.701 28.0734 146.597 27.5325 145.408 27.3816C144.22 27.2306 143.015 27.4781 141.983 28.0853L137.606 30.6688L136.337 25.744C136.037 24.5847 135.36 23.558 134.413 22.825C133.466 22.092 132.303 21.6941 131.105 21.6938H124.896C123.698 21.6944 122.534 22.0928 121.587 22.8264C120.64 23.56 119.963 24.5873 119.663 25.7472L118.395 30.6688L114.015 28.0832C112.983 27.4761 111.778 27.2289 110.59 27.3803C109.403 27.5316 108.299 28.073 107.452 28.9194L103.061 33.3098C102.214 34.1571 101.672 35.2617 101.521 36.4503C101.37 37.6388 101.618 38.8439 102.226 39.8762L104.81 44.2538L99.8847 45.5221C98.7251 45.8223 97.698 46.4991 96.9648 47.4463C96.2315 48.3935 95.8336 49.5573 95.8335 50.7552V56.9643C95.8337 58.1624 96.2319 59.3265 96.9656 60.2737C97.6993 61.2209 98.7269 61.8975 99.8869 62.1973L104.808 63.4656L102.223 67.8453C101.615 68.8774 101.368 70.0821 101.52 71.2701C101.671 72.458 102.213 73.562 103.06 74.4085L107.451 78.7989C108.297 79.6468 109.402 80.189 110.591 80.3402C111.78 80.4914 112.985 80.243 114.017 79.6341L118.395 77.0507L119.664 81.9765C119.964 83.1359 120.641 84.1627 121.588 84.8957C122.535 85.6288 123.698 86.0266 124.896 86.0267H125.334V109.691H111.675C111.814 104.356 111.162 93.1243 104.027 85.9904C97.3941 79.3568 87.2138 78.3253 81.5285 78.3253C79.1413 78.3253 77.5466 78.5067 77.3397 78.5323C76.7469 78.6037 76.1952 78.872 75.773 79.2942C75.3509 79.7163 75.0826 80.268 75.0111 80.8608C74.9269 81.5616 73.0506 98.1291 82.4693 107.548C89.1029 114.182 99.2842 115.213 104.968 115.213C106.309 115.219 107.648 115.156 108.982 115.025H125.333V141.215C125.333 141.922 125.614 142.6 126.114 143.101C126.614 143.601 127.293 143.882 128 143.882C128.707 143.882 129.385 143.601 129.886 143.101C130.386 142.6 130.667 141.922 130.667 141.215V115.025H147.018C147.52 115.078 148.979 115.213 151.031 115.213C156.717 115.213 166.897 114.182 173.531 107.548C182.949 98.1291 181.073 81.5616 180.989 80.8608C180.917 80.268 180.649 79.7163 180.227 79.2942C179.805 78.872 179.253 78.6037 178.66 78.5323C178.453 78.5077 176.858 78.3253 174.47 78.3253C168.785 78.3253 158.606 79.3557 151.973 85.9893C144.838 93.1232 144.187 104.355 144.325 109.69H130.667V86.0256H131.105C132.303 86.0254 133.467 85.6272 134.414 84.8935C135.362 84.1598 136.038 83.1323 136.338 81.9723L137.606 77.0507L141.985 79.6352C143.017 80.2438 144.222 80.4919 145.41 80.3405C146.599 80.1891 147.703 79.6468 148.549 78.7989L152.94 74.4085C153.787 73.5616 154.329 72.4569 154.481 71.2682C154.632 70.0795 154.384 68.8743 153.775 67.8421L151.191 63.4645L156.117 62.1952C157.277 61.895 158.303 61.2183 159.036 60.2714C159.77 59.3244 160.167 58.1607 160.167 56.9632V50.7541C160.167 49.5563 159.769 48.3924 159.036 47.4452C158.303 46.498 157.276 45.8212 156.116 45.521H156.114L151.191 44.2528L153.776 39.873C154.384 38.8412 154.632 37.6365 154.48 36.4484C154.329 35.2604 153.787 34.1563 152.94 33.3098V33.3098ZM155.447 48.1034L154.833 50.7541L154.783 57.0325L146.428 59.1851C146.028 59.2882 145.657 59.483 145.345 59.754C145.033 60.0251 144.788 60.3649 144.63 60.7467C144.472 61.1285 144.405 61.5418 144.433 61.9541C144.462 62.3663 144.587 62.7662 144.797 63.1221L149.17 70.6368L144.694 75.04L137.264 70.6549C136.908 70.4442 136.508 70.3195 136.096 70.2906C135.684 70.2617 135.27 70.3295 134.888 70.4885C134.506 70.6465 134.166 70.8913 133.895 71.2034C133.624 71.5156 133.43 71.8865 133.327 72.2869L131.105 80.6923L124.827 80.6421L122.674 72.2869C122.571 71.8866 122.376 71.5157 122.105 71.2036C121.834 70.8915 121.494 70.6467 121.112 70.4885C120.73 70.3303 120.317 70.2631 119.904 70.2922C119.492 70.3213 119.092 70.4458 118.736 70.656L111.221 75.0293L106.818 70.5546L111.204 63.1243C111.414 62.7682 111.539 62.3683 111.567 61.956C111.596 61.5437 111.529 61.1303 111.371 60.7484C111.213 60.3665 110.968 60.0266 110.656 59.7555C110.344 59.4844 109.973 59.2895 109.573 59.1861L101.168 56.9643L101.219 50.6859L109.574 48.5323C109.975 48.4291 110.346 48.2343 110.658 47.9632C110.97 47.6921 111.215 47.3522 111.373 46.9703C111.531 46.5883 111.598 46.1748 111.569 45.7624C111.54 45.3501 111.415 44.9501 111.205 44.5941L106.832 37.0795L111.307 32.6762L118.737 37.0624C119.093 37.2726 119.493 37.3971 119.905 37.4262C120.318 37.4552 120.731 37.388 121.113 37.2298C121.495 37.0717 121.835 36.8269 122.106 36.5147C122.377 36.2026 122.572 35.8318 122.675 35.4314L124.897 27.0261L131.175 27.0762L133.328 35.4314C133.431 35.8319 133.626 36.2028 133.897 36.5151C134.168 36.8273 134.508 37.0722 134.89 37.2305C135.272 37.3888 135.685 37.4561 136.098 37.4271C136.51 37.3981 136.91 37.2736 137.266 37.0635L144.781 32.6901L149.184 37.1658L144.799 44.5962C144.589 44.9521 144.464 45.3521 144.435 45.7644C144.406 46.1767 144.473 46.5901 144.631 46.972C144.79 47.3538 145.034 47.6937 145.347 47.9647C145.659 48.2356 146.03 48.4303 146.43 48.5333L154.785 50.6869L155.447 48.1034V48.1034ZM152.398 39.0602L149.813 43.44C149.687 43.6537 149.613 43.8936 149.596 44.141C149.578 44.3884 149.619 44.6364 149.714 44.8655C149.809 45.0945 149.956 45.2984 150.143 45.4611C150.33 45.6237 150.552 45.7406 150.792 45.8026L154.56 46.7733C154.232 46.9914 153.997 47.3231 153.9 47.7045L153.633 48.7371L146.828 46.9835C146.668 46.942 146.52 46.864 146.395 46.7556C146.27 46.6473 146.172 46.5114 146.109 46.3588C146.046 46.2062 146.019 46.041 146.03 45.8762C146.042 45.7114 146.091 45.5515 146.175 45.409L150.56 37.9786C150.739 37.675 150.813 37.3207 150.77 36.9708C150.727 36.6209 150.569 36.295 150.322 36.0437L145.919 31.568C145.67 31.3143 145.343 31.151 144.991 31.1039C144.638 31.0567 144.28 31.1285 143.973 31.3077L136.449 35.6864C136.307 35.7708 136.147 35.8206 135.982 35.8319C135.817 35.8432 135.652 35.8156 135.5 35.7514C135.347 35.6878 135.211 35.5899 135.103 35.4652C134.995 35.3404 134.916 35.1924 134.875 35.0325L132.722 26.6773C132.634 26.336 132.436 26.0334 132.158 25.8162C131.88 25.5991 131.539 25.4796 131.186 25.4762L124.908 25.4261H124.895C124.542 25.4262 124.199 25.5431 123.919 25.7586C123.639 25.9741 123.438 26.2761 123.348 26.6176L121.124 35.0336C121.064 35.2621 120.93 35.4644 120.743 35.6091C120.556 35.7538 120.327 35.8327 120.091 35.8336C119.9 35.8336 119.713 35.7824 119.549 35.6853L112.118 31.2992C111.815 31.1192 111.46 31.045 111.11 31.088C110.76 31.131 110.434 31.289 110.183 31.5371L105.709 35.9402C105.455 36.1896 105.292 36.5161 105.245 36.8684C105.198 37.2207 105.27 37.5787 105.448 37.8859L109.826 45.409C109.91 45.5516 109.959 45.7116 109.97 45.8764C109.981 46.0412 109.954 46.2064 109.891 46.359C109.828 46.5116 109.73 46.6475 109.606 46.756C109.481 46.8645 109.333 46.9427 109.173 46.9845L100.818 49.1381C100.116 49.3195 99.6234 49.9498 99.617 50.6741L99.5658 56.9525C99.563 57.3079 99.6786 57.654 99.8944 57.9364C100.11 58.2187 100.414 58.4213 100.757 58.512L109.173 60.736C109.495 60.8192 109.764 61.0528 109.892 61.3611C110.02 61.6683 109.995 62.0235 109.825 62.3115L105.439 69.7419C105.26 70.0456 105.186 70.4002 105.229 70.7503C105.272 71.1004 105.429 71.4265 105.677 71.6779L110.08 76.1525C110.329 76.4057 110.656 76.5688 111.008 76.6161C111.36 76.6634 111.718 76.5922 112.026 76.4139L119.551 72.0352C119.693 71.9513 119.853 71.9017 120.018 71.8902C120.183 71.8788 120.349 71.9058 120.501 71.9692C120.654 72.0327 120.79 72.1307 120.898 72.2556C121.006 72.3805 121.084 72.5289 121.125 72.6891L123.278 81.0442C123.459 81.7461 124.09 82.2389 124.814 82.2453L131.092 82.2955H131.105C131.458 82.2954 131.801 82.1785 132.081 81.963C132.361 81.7475 132.561 81.4454 132.652 81.104L134.876 72.688C134.936 72.4593 135.07 72.2569 135.256 72.1122C135.443 71.9676 135.673 71.8887 135.909 71.888C136.1 71.8881 136.287 71.9393 136.451 72.0362L143.882 76.4213C144.185 76.6013 144.539 76.6755 144.89 76.6325C145.24 76.5895 145.566 76.4315 145.816 76.1835L150.292 71.7803C150.546 71.5311 150.709 71.2045 150.756 70.8522C150.804 70.4999 150.732 70.1419 150.554 69.8347L146.175 62.3104C146.091 62.168 146.042 62.0083 146.03 61.8436C146.018 61.6789 146.045 61.5138 146.108 61.3611C146.236 61.0528 146.504 60.8192 146.827 60.736L155.182 58.5834C155.523 58.4952 155.826 58.2969 156.043 58.0192C156.26 57.7415 156.38 57.3999 156.383 57.0474L156.432 50.9461L157.007 48.4672C157.068 48.2042 157.061 47.9301 156.988 47.6704C157.476 48.0229 157.874 48.4865 158.149 49.023C158.423 49.5596 158.566 50.1536 158.566 50.7562V56.9653C158.567 57.8081 158.287 58.6272 157.771 59.2938C157.256 59.9605 156.533 60.437 155.717 60.6485L150.791 61.9178C150.551 61.9798 150.329 62.0967 150.142 62.2594C149.954 62.422 149.808 62.626 149.713 62.8551C149.618 63.0842 149.578 63.3323 149.595 63.5797C149.613 63.827 149.687 64.067 149.813 64.2805L152.396 68.656C152.824 69.3826 152.999 70.2311 152.893 71.068C152.786 71.9049 152.405 72.6826 151.808 73.2789L147.418 77.6693C146.822 78.2662 146.045 78.648 145.209 78.7546C144.373 78.8612 143.525 78.6866 142.799 78.2581L138.42 75.6736C138.206 75.5478 137.966 75.4733 137.719 75.456C137.472 75.4388 137.223 75.4792 136.994 75.5741C136.765 75.6691 136.561 75.8159 136.398 76.0031C136.236 76.1903 136.119 76.4127 136.056 76.6528L134.788 81.5723C134.577 82.3889 134.101 83.1123 133.434 83.6289C132.767 84.1455 131.947 84.4261 131.104 84.4267H130.667C130.242 84.4267 129.835 84.5952 129.535 84.8953C129.235 85.1953 129.067 85.6023 129.067 86.0267V109.691C129.067 110.115 129.235 110.522 129.535 110.822C129.835 111.122 130.242 111.291 130.667 111.291H144.326C144.54 111.291 144.752 111.248 144.949 111.166C145.146 111.083 145.324 110.961 145.473 110.808C145.622 110.655 145.739 110.473 145.817 110.274C145.894 110.075 145.931 109.863 145.925 109.649C145.808 105.152 146.273 93.9541 153.105 87.1211C159.364 80.8597 169.178 79.9253 174.47 79.9253C176.779 79.9253 178.303 80.1003 178.469 80.1205C178.707 80.1486 178.927 80.2557 179.096 80.4246C179.265 80.5936 179.372 80.8145 179.4 81.0517C179.482 81.7205 181.272 97.5435 172.4 106.416C166.14 112.677 156.325 113.612 151.032 113.612C149.074 113.612 147.692 113.487 147.188 113.434C147.132 113.428 147.075 113.425 147.019 113.425H130.667C130.242 113.425 129.835 113.594 129.535 113.894C129.235 114.194 129.067 114.601 129.067 115.025V141.215C129.067 141.803 128.588 142.282 128 142.282C127.412 142.282 126.933 141.803 126.933 141.215V115.025C126.933 114.601 126.765 114.194 126.465 113.894C126.165 113.594 125.758 113.425 125.333 113.425H108.982C108.926 113.425 108.869 113.428 108.813 113.434C108.309 113.487 106.926 113.612 104.968 113.612C99.6757 113.612 89.8613 112.677 83.601 106.416C74.7285 97.5435 76.5194 81.7216 76.6005 81.0517C76.6286 80.8141 76.7361 80.593 76.9054 80.424C77.0748 80.2551 77.2962 80.1481 77.5338 80.1205C77.5989 80.112 79.1637 79.9253 81.5285 79.9253C86.8213 79.9253 96.6346 80.8608 102.895 87.1211C109.728 93.9541 110.192 105.151 110.075 109.648C110.069 109.861 110.106 110.074 110.184 110.273C110.262 110.472 110.379 110.653 110.528 110.806C110.677 110.959 110.855 111.081 111.052 111.164C111.249 111.247 111.46 111.29 111.674 111.29H125.333C125.758 111.29 126.165 111.121 126.465 110.821C126.765 110.521 126.933 110.114 126.933 109.69V86.0256C126.933 85.6012 126.765 85.1943 126.465 84.8942C126.165 84.5942 125.758 84.4256 125.333 84.4256H124.895C124.052 84.4259 123.233 84.1462 122.566 83.6305C121.9 83.1148 121.423 82.3924 121.212 81.5765L119.942 76.6507C119.88 76.4104 119.763 76.1878 119.601 76.0005C119.438 75.8132 119.234 75.6663 119.005 75.5713C118.776 75.4764 118.527 75.436 118.28 75.4534C118.032 75.4707 117.792 75.5454 117.579 75.6715L113.202 78.2549C112.617 78.5999 111.951 78.7822 111.271 78.7829C110.254 78.7829 109.298 78.3872 108.58 77.6683L104.189 73.2768C103.593 72.6813 103.211 71.9046 103.104 71.0688C102.998 70.233 103.172 69.3854 103.599 68.6592L106.184 64.2795C106.311 64.0658 106.385 63.8258 106.403 63.5784C106.42 63.3309 106.38 63.0829 106.285 62.8537C106.19 62.6246 106.043 62.4206 105.855 62.258C105.668 62.0954 105.445 61.9786 105.205 61.9168L100.286 60.6496C99.4692 60.4384 98.7458 59.9619 98.2291 59.2951C97.7125 58.6283 97.4319 57.8088 97.4314 56.9653V50.7562C97.4312 49.9133 97.711 49.0941 98.2269 48.4275C98.7428 47.7608 99.4655 47.2844 100.282 47.0731L105.206 45.8048C105.447 45.7428 105.669 45.6259 105.856 45.4632C106.044 45.3004 106.191 45.0964 106.286 44.8672C106.381 44.638 106.421 44.3898 106.404 44.1423C106.386 43.8948 106.312 43.6548 106.186 43.4411L103.603 39.0656C103.175 38.3386 103 37.4901 103.107 36.6532C103.213 35.8162 103.595 35.0383 104.191 34.4416L108.581 30.0512C109.177 29.4551 109.954 29.0736 110.79 28.9667C111.626 28.8597 112.473 29.0333 113.2 29.4602L117.58 32.0458C117.793 32.1717 118.033 32.2461 118.281 32.2634C118.528 32.2807 118.776 32.2402 119.006 32.1453C119.235 32.0504 119.439 31.9035 119.601 31.7164C119.764 31.5292 119.881 31.3068 119.943 31.0666L121.211 26.1472C121.422 25.3303 121.898 24.6067 122.565 24.0899C123.232 23.5731 124.051 23.2923 124.895 23.2917H131.104C131.947 23.2918 132.766 23.5716 133.432 24.0872C134.099 24.6028 134.575 25.3251 134.787 26.1408L136.056 31.0656C136.118 31.3059 136.235 31.5285 136.398 31.7158C136.561 31.9031 136.765 32.05 136.994 32.1449C137.223 32.2397 137.472 32.28 137.719 32.2624C137.967 32.2449 138.207 32.17 138.42 32.0437L142.795 29.4613C143.381 29.1168 144.048 28.9349 144.728 28.9344C145.746 28.9344 146.702 29.3301 147.42 30.048L151.81 34.4384C152.406 35.035 152.787 35.8125 152.893 36.6489C153 37.4854 152.825 38.3335 152.398 39.0602V39.0602Z" fill="#FF8639"/>
<path d="M81.4492 82.0704C80.9671 82.0704 80.5223 82.0779 80.1212 82.0907C79.2754 82.1163 78.5959 82.7947 78.5703 83.6405C78.438 87.936 78.8092 98.6069 85.109 104.907C89.9079 109.705 97.1623 111.078 102.404 111.386L102.498 111.389C102.814 111.389 103.124 111.296 103.388 111.12C103.651 110.944 103.856 110.694 103.977 110.401C104.099 110.109 104.13 109.787 104.068 109.476C104.006 109.166 103.853 108.881 103.628 108.657L92.4924 97.5211C92.2908 97.3195 92.1799 97.0517 92.1799 96.7669C92.1799 96.4821 92.2908 96.2144 92.4935 96.0128C92.592 95.9134 92.7094 95.8346 92.8387 95.7809C92.9679 95.7273 93.1066 95.6999 93.2466 95.7003C93.5314 95.7003 93.7991 95.8112 94.0007 96.0128L105.136 107.148C105.365 107.377 105.659 107.531 105.978 107.59C106.297 107.649 106.627 107.609 106.923 107.476C107.219 107.343 107.467 107.123 107.635 106.846C107.803 106.568 107.883 106.246 107.864 105.922C107.557 100.681 106.183 93.4251 101.385 88.6272C95.6796 82.9227 86.4455 82.0704 81.4492 82.0704V82.0704ZM95.1324 94.8821C94.6119 94.3616 93.9292 94.1013 93.2466 94.1013C92.5639 94.1013 91.8812 94.3616 91.3607 94.8821C91.1129 95.1296 90.9163 95.4235 90.7822 95.747C90.6481 96.0705 90.5791 96.4173 90.5791 96.7675C90.5791 97.1177 90.6481 97.4644 90.7822 97.7879C90.9163 98.1114 91.1129 98.4053 91.3607 98.6528L102.496 109.788C97.5612 109.499 90.693 108.228 86.2386 103.775C80.438 97.9744 80.0327 88.0704 80.1682 83.6896C80.5543 83.6779 80.9831 83.6704 81.4482 83.6704C86.2652 83.6704 94.965 84.4704 100.255 89.76C104.709 94.2144 105.978 101.083 106.267 106.017L95.1324 94.8821ZM149.076 107.476C149.372 107.609 149.701 107.649 150.02 107.591C150.339 107.532 150.633 107.378 150.863 107.149L161.999 96.0128C162.097 95.9134 162.214 95.8346 162.344 95.7809C162.473 95.7273 162.612 95.6999 162.752 95.7003C163.036 95.7003 163.304 95.8112 163.506 96.0128C163.707 96.2144 163.818 96.4821 163.818 96.7669C163.818 97.0517 163.707 97.3195 163.506 97.5211L152.368 108.659C152.138 108.889 151.984 109.182 151.925 109.501C151.867 109.82 151.907 110.15 152.039 110.446C152.172 110.741 152.392 110.99 152.669 111.158C152.946 111.327 153.268 111.407 153.592 111.388C158.832 111.083 166.086 109.711 170.891 104.906C177.191 98.6059 177.562 87.9349 177.43 83.6395C177.417 83.2324 177.25 82.8455 176.962 82.5575C176.674 82.2695 176.287 82.1022 175.88 82.0896C175.431 82.0758 174.981 82.0691 174.531 82.0693C169.542 82.0693 160.321 82.9216 154.614 88.6283C149.816 93.4261 148.442 100.682 148.135 105.923C148.116 106.247 148.195 106.569 148.363 106.846C148.532 107.124 148.78 107.343 149.076 107.476V107.476ZM155.745 89.76C161.027 84.4779 169.712 83.6704 174.531 83.6693C175.003 83.6693 175.44 83.6768 175.831 83.6896C175.967 88.0704 175.561 97.9744 169.761 103.775C165.304 108.231 158.436 109.504 153.5 109.791L164.639 98.6528C165.012 98.2802 165.267 97.805 165.37 97.2875C165.474 96.77 165.421 96.2335 165.219 95.7459C165.017 95.2584 164.675 94.8418 164.236 94.549C163.797 94.2563 163.28 94.1004 162.753 94.1013C162.07 94.1013 161.387 94.3616 160.867 94.8821L149.732 106.017C150.021 101.082 151.29 94.2144 155.745 89.76V89.76Z" fill="#FF8639"/>
<path d="M125.333 201.38V220.974C125.333 221.681 125.614 222.359 126.114 222.859C126.614 223.359 127.292 223.64 128 223.64C128.707 223.64 129.385 223.359 129.885 222.859C130.385 222.359 130.666 221.681 130.666 220.974V201.38C130.666 200.673 130.385 199.995 129.885 199.494C129.385 198.994 128.707 198.713 128 198.713C127.292 198.713 126.614 198.994 126.114 199.494C125.614 199.995 125.333 200.673 125.333 201.38V201.38Z" fill="#D3D3D3"/>
<path d="M125.333 201.38V220.974C125.333 221.681 125.614 222.359 126.114 222.859C126.614 223.359 127.292 223.64 128 223.64C128.707 223.64 129.385 223.359 129.885 222.859C130.385 222.359 130.666 221.681 130.666 220.974V201.38C130.666 200.673 130.385 199.995 129.885 199.494C129.385 198.994 128.707 198.713 128 198.713C127.292 198.713 126.614 198.994 126.114 199.494C125.614 199.995 125.333 200.673 125.333 201.38V201.38ZM129.066 201.38V220.974C129.066 221.561 128.587 222.04 128 222.04C127.412 222.04 126.933 221.561 126.933 220.974V201.38C126.933 200.792 127.412 200.313 128 200.313C128.587 200.313 129.066 200.792 129.066 201.38Z" fill="#EBE7F2"/>
<path d="M108.043 124.932H80.3486C74.707 124.932 70.1182 129.521 70.1182 135.163V150.542C70.1182 151.249 70.3991 151.927 70.8992 152.427C71.3993 152.927 72.0776 153.208 72.7848 153.208C73.4921 153.208 74.1704 152.927 74.6705 152.427C75.1705 151.927 75.4515 151.249 75.4515 150.542V135.163C75.4532 133.864 75.9697 132.62 76.8877 131.702C77.8057 130.784 79.0503 130.267 80.3486 130.265H108.043C109.822 130.265 111.461 131.231 112.324 132.784L117.727 142.509C118.079 143.109 118.653 143.548 119.325 143.731C119.997 143.914 120.714 143.828 121.323 143.489C121.932 143.151 122.384 142.588 122.583 141.921C122.782 141.253 122.713 140.534 122.389 139.918L116.986 130.194C116.1 128.599 114.804 127.271 113.231 126.346C111.659 125.421 109.868 124.933 108.043 124.932V124.932Z" fill="#ED9ABC"/>
<path d="M172.613 218.307H141.482C140.775 218.307 140.097 218.588 139.597 219.088C139.097 219.588 138.816 220.266 138.816 220.974C138.816 221.681 139.097 222.359 139.597 222.859C140.097 223.359 140.775 223.64 141.482 223.64H172.613C179.929 223.64 185.881 217.688 185.881 210.372V151.814C185.881 144.498 179.929 138.546 172.613 138.546H83.3864C76.0702 138.546 70.1182 144.498 70.1182 151.814V210.372C70.1182 217.688 76.0702 223.64 83.3864 223.64H114.517C115.224 223.64 115.903 223.359 116.403 222.859C116.903 222.359 117.184 221.681 117.184 220.974C117.184 220.266 116.903 219.588 116.403 219.088C115.903 218.588 115.224 218.307 114.517 218.307H83.3864C79.011 218.307 75.4515 214.748 75.4515 210.372V151.814C75.4515 147.439 79.011 143.879 83.3864 143.879H172.612C176.987 143.879 180.547 147.439 180.547 151.814V210.372C180.548 214.748 176.989 218.307 172.613 218.307Z" fill="#ED9ABC"/>
<path d="M113.722 132.006C113.16 130.994 112.336 130.15 111.338 129.563C110.339 128.975 109.202 128.665 108.044 128.665H80.3486C78.6261 128.667 76.9747 129.352 75.7567 130.57C74.5387 131.788 73.8535 133.439 73.8516 135.162V141.205C73.8516 141.502 73.9343 141.794 74.0905 142.047C74.2467 142.299 74.4702 142.504 74.736 142.636C75.0018 142.769 75.2993 142.826 75.5952 142.799C75.8912 142.772 76.1739 142.664 76.4116 142.485C78.4192 140.966 80.8686 140.144 83.3865 140.146H115.525C115.804 140.146 116.077 140.073 116.319 139.934C116.56 139.796 116.762 139.597 116.903 139.357C117.044 139.117 117.12 138.844 117.124 138.566C117.127 138.288 117.058 138.013 116.924 137.77L113.722 132.006V132.006ZM83.3865 138.546C80.4094 138.546 77.6681 139.543 75.4516 141.205V135.162C75.4533 133.863 75.9697 132.619 76.8878 131.701C77.8058 130.783 79.0504 130.266 80.3486 130.265H108.044C109.822 130.265 111.461 131.23 112.324 132.783L115.525 138.545H83.3865V138.546Z" fill="#E54890"/>
<path d="M172.613 218.307H141.482C140.775 218.307 140.097 218.588 139.597 219.088C139.097 219.588 138.816 220.267 138.816 220.974C138.816 221.681 139.097 222.359 139.597 222.859C140.097 223.36 140.775 223.64 141.482 223.64H172.613C179.929 223.64 185.881 217.688 185.881 210.372V151.814C185.881 144.498 179.929 138.546 172.613 138.546H121.627L116.986 130.193C116.1 128.599 114.804 127.27 113.231 126.345C111.659 125.42 109.868 124.932 108.043 124.931H80.3486C74.707 124.931 70.1182 129.52 70.1182 135.162V210.372C70.1182 217.688 76.0702 223.64 83.3864 223.64H114.517C115.224 223.64 115.903 223.36 116.403 222.859C116.903 222.359 117.184 221.681 117.184 220.974C117.184 220.267 116.903 219.588 116.403 219.088C115.903 218.588 115.224 218.307 114.517 218.307H83.3864C79.011 218.307 75.4515 214.748 75.4515 210.372V151.814C75.4515 147.439 79.011 143.879 83.3864 143.879H172.612C176.987 143.879 180.547 147.439 180.547 151.814V210.372C180.548 214.748 176.989 218.307 172.613 218.307V218.307ZM172.613 142.279H83.3864C78.1288 142.279 73.8515 146.557 73.8515 151.814V210.372C73.8515 215.63 78.1288 219.907 83.3864 219.907H114.517C115.105 219.907 115.584 220.386 115.584 220.974C115.584 221.562 115.105 222.04 114.517 222.04H83.3864C76.9523 222.04 71.7182 216.806 71.7182 210.372V135.162C71.7182 130.403 75.5902 126.531 80.3486 126.531H108.043C109.583 126.532 111.094 126.943 112.42 127.724C113.747 128.504 114.84 129.625 115.588 130.971L120.229 139.324C120.368 139.573 120.57 139.781 120.816 139.925C121.062 140.07 121.342 140.146 121.627 140.146H172.613C179.047 140.146 184.281 145.38 184.281 151.814V210.372C184.281 216.806 179.047 222.04 172.613 222.04H141.482C140.895 222.04 140.416 221.562 140.416 220.974C140.416 220.386 140.895 219.907 141.482 219.907H172.613C177.871 219.907 182.148 215.63 182.148 210.372V151.814C182.148 146.557 177.871 142.279 172.613 142.279V142.279Z" fill="#E54890"/>
<path d="M110.565 155.559C108.76 155.56 107.029 156.278 105.752 157.555C104.476 158.832 103.758 160.563 103.756 162.368V197.238C103.758 199.043 104.476 200.774 105.753 202.05C107.029 203.327 108.76 204.045 110.565 204.047H145.434C147.239 204.045 148.97 203.327 150.247 202.051C151.524 200.774 152.242 199.043 152.243 197.238V162.368C152.242 160.563 151.524 158.832 150.247 157.555C148.97 156.278 147.239 155.56 145.434 155.559H110.565ZM146.911 162.368V197.238C146.911 198.051 146.249 198.714 145.435 198.714H110.567C110.175 198.713 109.8 198.558 109.523 198.281C109.247 198.004 109.091 197.629 109.09 197.238V162.368C109.09 161.554 109.753 160.892 110.567 160.892H145.435C146.249 160.892 146.911 161.554 146.911 162.368Z" fill="#F9B087"/>
<path d="M118.073 166.803C117.366 166.803 116.687 167.084 116.187 167.584C115.687 168.084 115.406 168.763 115.406 169.47C115.406 170.177 115.687 170.855 116.187 171.356C116.687 171.856 117.366 172.137 118.073 172.137H128C128.708 172.137 129.386 171.856 129.886 171.356C130.386 170.855 130.667 170.177 130.667 169.47C130.667 168.763 130.386 168.084 129.886 167.584C129.386 167.084 128.708 166.803 128 166.803H118.073ZM118.073 177.136C117.366 177.136 116.687 177.417 116.187 177.917C115.687 178.417 115.406 179.095 115.406 179.803C115.406 180.51 115.687 181.188 116.187 181.688C116.687 182.188 117.366 182.469 118.073 182.469H137.928C138.635 182.469 139.313 182.188 139.813 181.688C140.314 181.188 140.595 180.51 140.595 179.803C140.595 179.095 140.314 178.417 139.813 177.917C139.313 177.417 138.635 177.136 137.928 177.136H118.073V177.136ZM118.073 187.469C117.366 187.469 116.687 187.75 116.187 188.25C115.687 188.75 115.406 189.428 115.406 190.135C115.406 190.843 115.687 191.521 116.187 192.021C116.687 192.521 117.366 192.802 118.073 192.802H137.928C138.635 192.802 139.313 192.521 139.813 192.021C140.314 191.521 140.595 190.843 140.595 190.135C140.595 189.428 140.314 188.75 139.813 188.25C139.313 187.75 138.635 187.469 137.928 187.469H118.073V187.469Z" fill="#F9B087"/>
<path d="M110.566 159.292C109.75 159.293 108.968 159.618 108.392 160.194C107.815 160.771 107.49 161.553 107.489 162.368V197.238C107.49 198.053 107.815 198.835 108.392 199.412C108.968 199.988 109.75 200.313 110.566 200.314H145.434C146.249 200.313 147.031 199.988 147.608 199.412C148.184 198.835 148.509 198.053 148.51 197.238V162.368C148.509 161.553 148.184 160.771 147.608 160.194C147.031 159.618 146.249 159.293 145.434 159.292H110.566ZM146.911 162.368V197.238C146.911 198.051 146.249 198.714 145.435 198.714H110.567C110.175 198.713 109.8 198.558 109.523 198.281C109.247 198.004 109.091 197.629 109.09 197.238V162.368C109.09 161.554 109.753 160.892 110.567 160.892H145.435C146.249 160.892 146.911 161.554 146.911 162.368Z" fill="#FF8639"/>
<path d="M110.565 155.559C108.76 155.56 107.029 156.278 105.752 157.555C104.476 158.832 103.758 160.563 103.756 162.368V197.238C103.758 199.043 104.476 200.774 105.753 202.05C107.029 203.327 108.76 204.045 110.565 204.047H145.434C147.239 204.045 148.97 203.327 150.247 202.051C151.524 200.774 152.242 199.043 152.243 197.238V162.368C152.242 160.563 151.524 158.832 150.247 157.555C148.97 156.278 147.239 155.56 145.434 155.559H110.565ZM150.644 162.368V197.238C150.643 198.619 150.093 199.943 149.117 200.919C148.14 201.896 146.816 202.445 145.435 202.447H110.567C109.185 202.445 107.861 201.896 106.885 200.919C105.908 199.943 105.359 198.619 105.357 197.238V162.368C105.359 160.987 105.908 159.663 106.885 158.686C107.861 157.71 109.185 157.16 110.567 157.159H145.435C146.816 157.16 148.14 157.71 149.117 158.686C150.093 159.663 150.643 160.987 150.644 162.368V162.368Z" fill="#FF8639"/>
<path d="M118.073 166.803C117.366 166.803 116.687 167.084 116.187 167.584C115.687 168.084 115.406 168.763 115.406 169.47C115.406 170.177 115.687 170.855 116.187 171.356C116.687 171.856 117.366 172.137 118.073 172.137H128C128.708 172.137 129.386 171.856 129.886 171.356C130.386 170.855 130.667 170.177 130.667 169.47C130.667 168.763 130.386 168.084 129.886 167.584C129.386 167.084 128.708 166.803 128 166.803H118.073ZM129.067 169.47C129.067 170.058 128.588 170.537 128 170.537H118.073C117.485 170.537 117.006 170.058 117.006 169.47C117.006 168.882 117.485 168.403 118.073 168.403H128C128.588 168.403 129.067 168.882 129.067 169.47ZM118.073 177.136C117.366 177.136 116.687 177.417 116.187 177.917C115.687 178.417 115.406 179.095 115.406 179.803C115.406 180.51 115.687 181.188 116.187 181.688C116.687 182.188 117.366 182.469 118.073 182.469H137.928C138.635 182.469 139.313 182.188 139.813 181.688C140.314 181.188 140.595 180.51 140.595 179.803C140.595 179.095 140.314 178.417 139.813 177.917C139.313 177.417 138.635 177.136 137.928 177.136H118.073V177.136ZM138.995 179.803C138.995 180.39 138.516 180.869 137.928 180.869H118.073C117.485 180.869 117.006 180.39 117.006 179.803C117.006 179.215 117.485 178.736 118.073 178.736H137.928C138.517 178.736 138.995 179.215 138.995 179.803Z" fill="#FF8639"/>
<path d="M118.073 187.469C117.366 187.469 116.687 187.75 116.187 188.25C115.687 188.75 115.406 189.429 115.406 190.136C115.406 190.843 115.687 191.521 116.187 192.022C116.687 192.522 117.366 192.803 118.073 192.803H137.928C138.635 192.803 139.313 192.522 139.813 192.022C140.314 191.521 140.595 190.843 140.595 190.136C140.595 189.429 140.314 188.75 139.813 188.25C139.313 187.75 138.635 187.469 137.928 187.469H118.073V187.469ZM138.995 190.136C138.995 190.724 138.516 191.203 137.928 191.203H118.073C117.485 191.203 117.006 190.724 117.006 190.136C117.006 189.548 117.485 189.069 118.073 189.069H137.928C138.517 189.069 138.995 189.548 138.995 190.136Z" fill="#FF8639"/>
<path d="M115.815 53.8593C115.815 60.5772 121.282 66.0439 128 66.0439C134.718 66.0439 140.184 60.5772 140.184 53.8593C140.184 47.1415 134.718 41.6748 128 41.6748C121.282 41.6748 115.815 47.1415 115.815 53.8593ZM134.851 53.8593C134.851 57.6375 131.778 60.7105 128 60.7105C124.222 60.7105 121.149 57.6375 121.149 53.8593C121.149 50.0812 124.222 47.0081 128 47.0081C131.778 47.0081 134.851 50.0823 134.851 53.8593V53.8593Z" fill="#D3D3D3"/>
<path d="M119.549 53.8594C119.549 58.5197 123.34 62.3106 128 62.3106C132.66 62.3106 136.451 58.5197 136.451 53.8594C136.451 49.1991 132.66 45.4082 128 45.4082C123.34 45.4082 119.549 49.2002 119.549 53.8594V53.8594ZM134.851 53.8594C134.851 57.6375 131.778 60.7106 128 60.7106C124.222 60.7106 121.149 57.6375 121.149 53.8594C121.149 50.0813 124.222 47.0082 128 47.0082C131.778 47.0082 134.851 50.0823 134.851 53.8594V53.8594Z" fill="#EBE7F2"/>
<path d="M115.815 53.8593C115.815 60.5772 121.282 66.0439 128 66.0439C134.718 66.0439 140.184 60.5772 140.184 53.8593C140.184 47.1415 134.718 41.6748 128 41.6748C121.282 41.6748 115.815 47.1415 115.815 53.8593ZM138.584 53.8593C138.584 59.6951 133.837 64.4439 128 64.4439C122.164 64.4439 117.415 59.6961 117.415 53.8593C117.415 48.0225 122.163 43.2748 128 43.2748C133.836 43.2748 138.584 48.0236 138.584 53.8593V53.8593Z" fill="#EBE7F2"/>
</svg>
