<svg width="256" height="256" viewBox="0 0 256 256" fill="none" xmlns="http://www.w3.org/2000/svg">
<path d="M127.999 255.361C198.338 255.361 255.359 198.34 255.359 128.001C255.359 57.6616 198.338 0.640625 127.999 0.640625C57.6597 0.640625 0.638672 57.6616 0.638672 128.001C0.638672 198.34 57.6597 255.361 127.999 255.361Z" fill="#382B73"/>
<path d="M149.724 161.822C154.042 161.822 157.555 158.31 157.555 153.992V110.542C157.555 106.225 154.042 102.712 149.724 102.712H106.275C101.957 102.712 98.4443 106.224 98.4443 110.542V153.992C98.4443 158.309 101.957 161.822 106.275 161.822H149.724ZM103.778 153.992V110.542C103.778 109.166 104.898 108.046 106.275 108.046H149.724C150.386 108.046 151.021 108.309 151.489 108.777C151.957 109.245 152.221 109.88 152.221 110.542V153.992C152.221 155.368 151.101 156.488 149.724 156.488H106.275C105.613 156.488 104.978 156.225 104.51 155.757C104.042 155.289 103.779 154.654 103.778 153.992V153.992Z" fill="#291B4A"/>
<path d="M115.629 122.058H128C128.707 122.058 129.385 121.777 129.885 121.277C130.385 120.776 130.666 120.098 130.666 119.391C130.666 118.684 130.385 118.005 129.885 117.505C129.385 117.005 128.707 116.724 128 116.724H115.629C114.921 116.724 114.243 117.005 113.743 117.505C113.243 118.005 112.962 118.684 112.962 119.391C112.962 120.098 113.243 120.776 113.743 121.277C114.243 121.777 114.921 122.058 115.629 122.058V122.058ZM115.629 134.933H140.37C141.077 134.933 141.755 134.652 142.256 134.152C142.756 133.652 143.037 132.974 143.037 132.267C143.037 131.559 142.756 130.881 142.256 130.381C141.755 129.881 141.077 129.6 140.37 129.6H115.629C114.921 129.6 114.243 129.881 113.743 130.381C113.243 130.881 112.962 131.559 112.962 132.267C112.962 132.974 113.243 133.652 113.743 134.152C114.243 134.652 114.921 134.933 115.629 134.933ZM115.629 147.809H140.37C141.077 147.809 141.755 147.528 142.256 147.028C142.756 146.528 143.037 145.85 143.037 145.142C143.037 144.435 142.756 143.757 142.256 143.257C141.755 142.757 141.077 142.476 140.37 142.476H115.629C114.921 142.476 114.243 142.757 113.743 143.257C113.243 143.757 112.962 144.435 112.962 145.142C112.962 145.85 113.243 146.528 113.743 147.028C114.243 147.528 114.921 147.809 115.629 147.809ZM128 43.2352C128.707 43.2352 129.385 42.9542 129.885 42.4541C130.385 41.954 130.666 41.2758 130.666 40.5685C130.666 39.8613 130.385 39.183 129.885 38.6829C129.385 38.1828 128.707 37.9019 128 37.9019H118.551C117.844 37.9019 117.166 38.1828 116.666 38.6829C116.166 39.183 115.885 39.8613 115.885 40.5685C115.885 41.2758 116.166 41.954 116.666 42.4541C117.166 42.9542 117.844 43.2352 118.551 43.2352H128ZM137.448 53.0699C138.156 53.0699 138.834 52.7889 139.334 52.2888C139.834 51.7887 140.115 51.1104 140.115 50.4032C140.115 49.6959 139.834 49.0177 139.334 48.5176C138.834 48.0175 138.156 47.7365 137.448 47.7365H118.55C117.843 47.7365 117.165 48.0175 116.665 48.5176C116.164 49.0177 115.884 49.6959 115.884 50.4032C115.884 51.1104 116.164 51.7887 116.665 52.2888C117.165 52.7889 117.843 53.0699 118.55 53.0699H137.448ZM137.448 62.9045C138.156 62.9045 138.834 62.6236 139.334 62.1235C139.834 61.6234 140.115 60.9451 140.115 60.2379C140.115 59.5306 139.834 58.8523 139.334 58.3522C138.834 57.8521 138.156 57.5712 137.448 57.5712H118.55C117.843 57.5712 117.165 57.8521 116.665 58.3522C116.164 58.8523 115.884 59.5306 115.884 60.2379C115.884 60.9451 116.164 61.6234 116.665 62.1235C117.165 62.6236 117.843 62.9045 118.55 62.9045H137.448ZM128 206.962C128.707 206.962 129.385 206.681 129.885 206.181C130.385 205.681 130.666 205.003 130.666 204.295C130.666 203.588 130.385 202.91 129.885 202.41C129.385 201.91 128.707 201.629 128 201.629H118.551C117.844 201.629 117.166 201.91 116.666 202.41C116.166 202.91 115.885 203.588 115.885 204.295C115.885 205.003 116.166 205.681 116.666 206.181C117.166 206.681 117.844 206.962 118.551 206.962H128ZM137.448 216.797C138.156 216.797 138.834 216.516 139.334 216.016C139.834 215.516 140.115 214.837 140.115 214.13C140.115 213.423 139.834 212.745 139.334 212.244C138.834 211.744 138.156 211.463 137.448 211.463H118.55C117.843 211.463 117.165 211.744 116.665 212.244C116.164 212.745 115.884 213.423 115.884 214.13C115.884 214.837 116.164 215.516 116.665 216.016C117.165 216.516 117.843 216.797 118.55 216.797H137.448ZM137.448 226.631C138.156 226.631 138.834 226.35 139.334 225.85C139.834 225.35 140.115 224.672 140.115 223.965C140.115 223.258 139.834 222.579 139.334 222.079C138.834 221.579 138.156 221.298 137.448 221.298H118.55C117.843 221.298 117.165 221.579 116.665 222.079C116.164 222.579 115.884 223.258 115.884 223.965C115.884 224.672 116.164 225.35 116.665 225.85C117.165 226.35 117.843 226.631 118.55 226.631H137.448Z" fill="#291B4A"/>
<path d="M144.594 27.2002H111.407C109.655 27.2022 107.975 27.8993 106.736 29.1385C105.497 30.3777 104.8 32.0579 104.798 33.8103V49.8647C90.6815 53.8269 77.8215 61.3534 67.4538 71.7209C57.0861 82.0884 49.5594 94.9483 45.597 109.065H29.5436C27.7912 109.067 26.1112 109.764 24.8721 111.003C23.6331 112.242 22.9363 113.922 22.9346 115.675V148.861C22.9363 150.613 23.6331 152.294 24.8721 153.533C26.1112 154.772 27.7912 155.469 29.5436 155.471H45.597C49.5563 169.589 57.082 182.451 67.4501 192.819C77.8183 203.187 90.68 210.713 104.798 214.672V230.726C104.8 232.478 105.497 234.158 106.736 235.397C107.975 236.637 109.655 237.334 111.407 237.336H144.594C146.347 237.334 148.027 236.637 149.266 235.397C150.505 234.158 151.202 232.478 151.203 230.726V214.672C165.321 210.713 178.183 203.187 188.551 192.819C198.919 182.451 206.445 169.589 210.404 155.471H226.458C228.21 155.469 229.89 154.772 231.129 153.533C232.368 152.294 233.065 150.613 233.067 148.861V115.675C233.065 113.922 232.368 112.242 231.129 111.003C229.89 109.764 228.21 109.067 226.458 109.065H210.404C206.445 94.9467 198.919 82.0849 188.551 71.7168C178.183 61.3487 165.321 53.823 151.203 49.8637V33.8103C151.202 32.0579 150.505 30.3777 149.266 29.1385C148.027 27.8993 146.347 27.2022 144.594 27.2002V27.2002ZM110.13 33.8103C110.13 33.1063 110.703 32.5335 111.406 32.5335H144.593C145.296 32.5335 145.869 33.1063 145.869 33.8103V66.9965C145.869 67.7005 145.296 68.2733 144.593 68.2733H111.406C111.068 68.2727 110.743 68.138 110.504 67.8986C110.265 67.6593 110.131 67.3348 110.13 66.9965V33.8103ZM29.5426 150.137C29.2042 150.136 28.8799 150.001 28.6407 149.762C28.4016 149.523 28.2671 149.198 28.2668 148.86V115.674C28.2668 114.97 28.8396 114.397 29.5426 114.397H62.7298C63.4338 114.397 64.0066 114.97 64.0066 115.674V148.86C64.0066 149.564 63.4338 150.137 62.7298 150.137H29.5426ZM145.87 230.723C145.87 231.427 145.297 232 144.594 232H111.407C111.069 232 110.744 231.865 110.505 231.626C110.266 231.386 110.132 231.062 110.131 230.723V197.537C110.131 196.833 110.704 196.26 111.407 196.26H144.594C145.297 196.26 145.87 196.833 145.87 197.537V230.723ZM208.366 114.398H226.458C227.161 114.398 227.734 114.971 227.734 115.675V148.861C227.734 149.565 227.161 150.138 226.458 150.138H193.272C192.568 150.138 191.995 149.565 191.995 148.861V115.675C191.995 114.971 192.568 114.398 193.272 114.398H208.366ZM182.87 73.6269L164.188 92.3074V84.1239C164.188 83.4167 163.907 82.7384 163.407 82.2383C162.907 81.7382 162.228 81.4573 161.521 81.4573C160.814 81.4573 160.136 81.7382 159.636 82.2383C159.136 82.7384 158.855 83.4167 158.855 84.1239V98.7447C158.855 99.452 159.136 100.13 159.636 100.63C160.136 101.13 160.814 101.411 161.521 101.411H176.142C176.849 101.411 177.528 101.13 178.028 100.63C178.528 100.13 178.809 99.452 178.809 98.7447C178.809 98.0375 178.528 97.3592 178.028 96.8591C177.528 96.359 176.849 96.0781 176.142 96.0781H167.959L186.64 77.3975C195.069 86.4093 201.301 97.2465 204.851 109.064H193.272C191.519 109.066 189.839 109.763 188.6 111.002C187.361 112.241 186.663 113.921 186.661 115.674V148.86C186.663 150.612 187.361 152.293 188.6 153.532C189.839 154.771 191.519 155.468 193.272 155.47H204.851C201.301 167.287 195.069 178.124 186.64 187.136L167.948 168.444H176.142C176.849 168.444 177.528 168.163 178.028 167.663C178.528 167.163 178.809 166.485 178.809 165.777C178.809 165.07 178.528 164.392 178.028 163.892C177.528 163.392 176.849 163.111 176.142 163.111H161.521C160.814 163.111 160.136 163.392 159.636 163.892C159.136 164.392 158.855 165.07 158.855 165.777V180.398C158.855 181.105 159.136 181.784 159.636 182.284C160.136 182.784 160.814 183.065 161.521 183.065C162.228 183.065 162.907 182.784 163.407 182.284C163.907 181.784 164.188 181.105 164.188 180.398V172.225L182.87 190.907C173.858 199.335 163.021 205.568 151.203 209.118V197.537C151.202 195.785 150.505 194.105 149.266 192.865C148.027 191.626 146.347 190.929 144.594 190.927H111.407C109.655 190.929 107.975 191.626 106.736 192.865C105.497 194.105 104.8 195.785 104.798 197.537V209.118C92.9809 205.568 82.1437 199.335 73.1319 190.907L91.8156 172.224V180.398C91.8156 181.105 92.0966 181.784 92.5967 182.284C93.0968 182.784 93.7751 183.065 94.4823 183.065C95.1896 183.065 95.8678 182.784 96.3679 182.284C96.868 181.784 97.149 181.105 97.149 180.398V165.777C97.149 165.07 96.868 164.392 96.3679 163.892C95.8678 163.392 95.1896 163.111 94.4823 163.111H79.8604C79.1532 163.111 78.4749 163.392 77.9748 163.892C77.4747 164.392 77.1938 165.07 77.1938 165.777C77.1938 166.485 77.4747 167.163 77.9748 167.663C78.4749 168.163 79.1532 168.444 79.8604 168.444H88.0535L69.3602 187.136C60.9317 178.124 54.6993 167.287 51.149 155.47H62.7287C64.4812 155.468 66.1614 154.771 67.4006 153.532C68.6398 152.293 69.3369 150.612 69.3388 148.86V115.674C69.3369 113.921 68.6398 112.241 67.4006 111.002C66.1614 109.763 64.4812 109.066 62.7287 109.064H51.15C54.7017 97.2476 60.9353 86.4119 69.3644 77.4018L88.0407 96.0791H79.8604C79.1532 96.0791 78.4749 96.3601 77.9748 96.8602C77.4747 97.3603 77.1938 98.0386 77.1938 98.7458C77.1938 99.453 77.4747 100.131 77.9748 100.631C78.4749 101.132 79.1532 101.412 79.8604 101.412H94.4812C95.1885 101.412 95.8668 101.132 96.3669 100.631C96.867 100.131 97.1479 99.453 97.1479 98.7458V84.125C97.1479 83.4178 96.867 82.7395 96.3669 82.2394C95.8668 81.7393 95.1885 81.4583 94.4812 81.4583C93.774 81.4583 93.0957 81.7393 92.5956 82.2394C92.0955 82.7395 91.8146 83.4178 91.8146 84.125V92.3117L73.1351 73.6311C82.1451 65.2013 92.9808 58.967 104.797 55.4146V66.9965C104.799 68.7489 105.495 70.429 106.735 71.6683C107.974 72.9075 109.654 73.6046 111.406 73.6066H144.593C146.346 73.6046 148.026 72.9075 149.265 71.6683C150.504 70.429 151.201 68.7489 151.202 66.9965V55.4157C163.02 58.9657 173.857 65.1982 182.87 73.6269V73.6269Z" fill="#291B4A"/>
<path d="M209.864 125.098C210.571 125.098 211.249 124.818 211.749 124.317C212.249 123.817 212.53 123.139 212.53 122.432C212.53 121.725 212.249 121.046 211.749 120.546C211.249 120.046 210.571 119.765 209.864 119.765H200.415C199.708 119.765 199.03 120.046 198.529 120.546C198.029 121.046 197.748 121.725 197.748 122.432C197.748 123.139 198.029 123.817 198.529 124.317C199.03 124.818 199.708 125.098 200.415 125.098H209.864ZM219.312 134.933C220.019 134.933 220.698 134.652 221.198 134.152C221.698 133.652 221.979 132.974 221.979 132.266C221.979 131.559 221.698 130.881 221.198 130.381C220.698 129.881 220.019 129.6 219.312 129.6H200.414C199.707 129.6 199.028 129.881 198.528 130.381C198.028 130.881 197.747 131.559 197.747 132.266C197.747 132.974 198.028 133.652 198.528 134.152C199.028 134.652 199.707 134.933 200.414 134.933H219.312V134.933ZM219.312 144.768C220.019 144.768 220.698 144.487 221.198 143.987C221.698 143.487 221.979 142.808 221.979 142.101C221.979 141.394 221.698 140.716 221.198 140.216C220.698 139.715 220.019 139.434 219.312 139.434H200.414C199.707 139.434 199.028 139.715 198.528 140.216C198.028 140.716 197.747 141.394 197.747 142.101C197.747 142.808 198.028 143.487 198.528 143.987C199.028 144.487 199.707 144.768 200.414 144.768H219.312V144.768ZM46.1367 125.098C46.8439 125.098 47.5222 124.818 48.0223 124.317C48.5224 123.817 48.8033 123.139 48.8033 122.432C48.8033 121.725 48.5224 121.046 48.0223 120.546C47.5222 120.046 46.8439 119.765 46.1367 119.765H36.6882C35.9809 119.765 35.3026 120.046 34.8025 120.546C34.3024 121.046 34.0215 121.725 34.0215 122.432C34.0215 123.139 34.3024 123.817 34.8025 124.317C35.3026 124.818 35.9809 125.098 36.6882 125.098H46.1367ZM55.5852 134.933C56.2925 134.933 56.9707 134.652 57.4708 134.152C57.9709 133.652 58.2519 132.974 58.2519 132.266C58.2519 131.559 57.9709 130.881 57.4708 130.381C56.9707 129.881 56.2925 129.6 55.5852 129.6H36.6882C35.9809 129.6 35.3026 129.881 34.8025 130.381C34.3024 130.881 34.0215 131.559 34.0215 132.266C34.0215 132.974 34.3024 133.652 34.8025 134.152C35.3026 134.652 35.9809 134.933 36.6882 134.933H55.5852V134.933ZM55.5852 144.768C56.2925 144.768 56.9707 144.487 57.4708 143.987C57.9709 143.487 58.2519 142.808 58.2519 142.101C58.2519 141.394 57.9709 140.716 57.4708 140.216C56.9707 139.715 56.2925 139.434 55.5852 139.434H36.6882C35.9809 139.434 35.3026 139.715 34.8025 140.216C34.3024 140.716 34.0215 141.394 34.0215 142.101C34.0215 142.808 34.3024 143.487 34.8025 143.987C35.3026 144.487 35.9809 144.768 36.6882 144.768H55.5852V144.768Z" fill="#291B4A"/>
<path d="M94.4818 178.798C95.189 178.798 95.8673 178.517 96.3674 178.017C96.8675 177.517 97.1485 176.838 97.1485 176.131V161.51C97.1485 160.803 96.8675 160.125 96.3674 159.625C95.8673 159.125 95.189 158.844 94.4818 158.844H79.861C79.1538 158.844 78.4755 159.125 77.9754 159.625C77.4753 160.125 77.1943 160.803 77.1943 161.51C77.1943 162.218 77.4753 162.896 77.9754 163.396C78.4755 163.896 79.1538 164.177 79.861 164.177H91.8151V176.131C91.8151 176.838 92.0961 177.517 92.5962 178.017C93.0963 178.517 93.7746 178.798 94.4818 178.798V178.798Z" fill="#D3D3D3"/>
<path d="M71.2463 188.525L95.8895 163.882C96.1373 163.635 96.3339 163.341 96.468 163.018C96.6021 162.694 96.6711 162.347 96.6711 161.997C96.6711 161.647 96.6021 161.3 96.468 160.977C96.3339 160.653 96.1373 160.359 95.8895 160.112C95.642 159.864 95.3481 159.667 95.0246 159.533C94.7011 159.399 94.3544 159.33 94.0042 159.33C93.654 159.33 93.3072 159.399 92.9837 159.533C92.6602 159.667 92.3663 159.864 92.1188 160.112L67.4756 184.754C67.1019 185.126 66.8473 185.602 66.7439 186.119C66.6406 186.637 66.6933 187.173 66.8953 187.661C67.0973 188.148 67.4396 188.565 67.8786 188.858C68.3177 189.15 68.8338 189.306 69.3615 189.305C69.7116 189.306 70.0584 189.237 70.3819 189.103C70.7053 188.969 70.9991 188.772 71.2463 188.525V188.525Z" fill="#D3D3D3"/>
<path d="M67.475 188.524C67.9955 189.045 68.6782 189.305 69.3609 189.305C70.0435 189.305 70.7251 189.045 71.2467 188.524L91.8153 167.956V176.13C91.8153 176.837 92.0962 177.515 92.5963 178.015C93.0964 178.515 93.7747 178.796 94.4819 178.796C95.1892 178.796 95.8675 178.515 96.3676 178.015C96.8677 177.515 97.1486 176.837 97.1486 176.13V161.509C97.1486 160.802 96.8677 160.123 96.3676 159.623C95.8675 159.123 95.1892 158.842 94.4819 158.842H79.8601C79.5099 158.842 79.1631 158.911 78.8396 159.045C78.516 159.179 78.2221 159.376 77.9745 159.623C77.7268 159.871 77.5304 160.165 77.3964 160.488C77.2624 160.812 77.1934 161.159 77.1934 161.509C77.1934 161.859 77.2624 162.206 77.3964 162.529C77.5304 162.853 77.7268 163.147 77.9745 163.395C78.2221 163.642 78.516 163.839 78.8396 163.973C79.1631 164.107 79.5099 164.176 79.8601 164.176H88.0531L67.475 184.754C67.2272 185.001 67.0306 185.295 66.8965 185.619C66.7624 185.942 66.6934 186.289 66.6934 186.639C66.6934 186.989 66.7624 187.336 66.8965 187.66C67.0306 187.983 67.2272 188.277 67.475 188.524V188.524ZM68.6057 185.885L89.1838 165.307C89.4077 165.084 89.5602 164.798 89.622 164.488C89.6838 164.178 89.6521 163.856 89.531 163.563C89.4098 163.271 89.2046 163.021 88.9414 162.845C88.6781 162.669 88.3686 162.575 88.0521 162.576H79.859C79.2713 162.576 78.7923 162.097 78.7923 161.509C78.7923 160.921 79.2713 160.442 79.859 160.442H94.4798C95.0675 160.442 95.5465 160.921 95.5465 161.509V176.13C95.5465 176.717 95.0675 177.196 94.4798 177.196C93.8921 177.196 93.4131 176.717 93.4131 176.13V167.956C93.4138 167.639 93.3203 167.329 93.1446 167.066C92.9689 166.802 92.7189 166.597 92.4262 166.475C92.1335 166.354 91.8114 166.323 91.5008 166.385C91.1902 166.447 90.905 166.6 90.6814 166.824L70.1129 187.393C69.9113 187.594 69.6435 187.705 69.3587 187.705C69.0739 187.705 68.8062 187.594 68.6046 187.393C68.5049 187.294 68.4258 187.177 68.3718 187.047C68.3179 186.918 68.2901 186.779 68.2902 186.639C68.2903 186.499 68.3183 186.36 68.3724 186.231C68.4266 186.101 68.5059 185.984 68.6057 185.885V185.885Z" fill="#EBE7F2"/>
<path d="M161.521 77.1914C160.814 77.1914 160.136 77.4724 159.636 77.9725C159.135 78.4726 158.854 79.1508 158.854 79.8581V94.4789C158.854 95.1861 159.135 95.8644 159.636 96.3645C160.136 96.8646 160.814 97.1455 161.521 97.1455H176.142C176.849 97.1455 177.527 96.8646 178.028 96.3645C178.528 95.8644 178.809 95.1861 178.809 94.4789C178.809 93.7716 178.528 93.0934 178.028 92.5933C177.527 92.0932 176.849 91.8122 176.142 91.8122H164.188V79.8581C164.188 79.1508 163.907 78.4726 163.407 77.9725C162.907 77.4724 162.228 77.1914 161.521 77.1914Z" fill="#D3D3D3"/>
<path d="M164.087 95.6842L188.527 71.2447C188.774 70.9972 188.971 70.7033 189.105 70.3798C189.239 70.0563 189.308 69.7096 189.308 69.3594C189.308 69.0092 189.239 68.6624 189.105 68.3389C188.971 68.0154 188.774 67.7215 188.527 67.474C188.279 67.2262 187.985 67.0297 187.662 66.8955C187.338 66.7614 186.991 66.6924 186.641 66.6924C186.291 66.6924 185.944 66.7614 185.621 66.8955C185.297 67.0297 185.003 67.2262 184.756 67.474L160.316 91.9135C159.943 92.2861 159.688 92.7613 159.585 93.2788C159.481 93.7963 159.534 94.3328 159.736 94.8204C159.938 95.3079 160.28 95.7245 160.719 96.0173C161.158 96.3101 161.675 96.4659 162.202 96.465C162.552 96.4655 162.899 96.3967 163.223 96.2627C163.546 96.1287 163.84 95.9321 164.087 95.6842V95.6842Z" fill="#D3D3D3"/>
<path d="M161.521 77.191C160.814 77.191 160.136 77.472 159.636 77.9721C159.135 78.4722 158.854 79.1504 158.854 79.8577V94.4785C158.854 95.1857 159.135 95.864 159.636 96.3641C160.136 96.8642 160.814 97.1451 161.521 97.1451H176.142C176.849 97.1451 177.527 96.8642 178.028 96.3641C178.528 95.864 178.809 95.1857 178.809 94.4785C178.809 93.7712 178.528 93.093 178.028 92.5929C177.527 92.0928 176.849 91.8118 176.142 91.8118H167.958L188.526 71.2443C188.9 70.8717 189.154 70.3966 189.258 69.879C189.361 69.3615 189.308 68.825 189.106 68.3375C188.904 67.8499 188.562 67.4334 188.123 67.1406C187.684 66.8478 187.168 66.692 186.64 66.6929C185.957 66.6929 185.276 66.9531 184.754 67.4737L164.187 88.0411V79.8577C164.187 79.5075 164.118 79.1607 163.984 78.8371C163.851 78.5135 163.654 78.2195 163.407 77.9718C163.159 77.7241 162.865 77.5277 162.542 77.3937C162.218 77.2598 161.871 77.1909 161.521 77.191ZM165.318 89.1718L185.886 68.6043C186.088 68.4027 186.355 68.2918 186.64 68.2918C186.925 68.2918 187.193 68.4027 187.394 68.6043C187.596 68.8059 187.707 69.0737 187.707 69.3585C187.707 69.6433 187.596 69.911 187.394 70.1126L166.827 90.6801C166.603 90.9038 166.45 91.189 166.389 91.4995C166.327 91.8099 166.358 92.1317 166.48 92.4242C166.601 92.7167 166.806 92.9666 167.069 93.1424C167.332 93.3182 167.642 93.4119 167.958 93.4118H176.142C176.73 93.4118 177.209 93.8907 177.209 94.4785C177.209 95.0662 176.73 95.5451 176.142 95.5451H161.521C160.933 95.5451 160.454 95.0662 160.454 94.4785V79.8577C160.454 79.2699 160.933 78.791 161.521 78.791C162.109 78.791 162.588 79.2699 162.588 79.8577V88.0411C162.588 88.3576 162.681 88.667 162.857 88.9302C163.033 89.1934 163.283 89.3985 163.575 89.5196C163.867 89.6407 164.189 89.6723 164.5 89.6103C164.81 89.5484 165.095 89.3958 165.318 89.1718V89.1718Z" fill="#EBE7F2"/>
<path d="M94.4818 97.1455C95.189 97.1455 95.8673 96.8646 96.3674 96.3645C96.8675 95.8644 97.1485 95.1861 97.1485 94.4789V79.8581C97.1485 79.1508 96.8675 78.4726 96.3674 77.9725C95.8673 77.4724 95.189 77.1914 94.4818 77.1914C93.7746 77.1914 93.0963 77.4724 92.5962 77.9725C92.0961 78.4726 91.8151 79.1508 91.8151 79.8581V91.8122H79.861C79.1538 91.8122 78.4755 92.0932 77.9754 92.5933C77.4753 93.0934 77.1943 93.7716 77.1943 94.4789C77.1943 95.1861 77.4753 95.8644 77.9754 96.3645C78.4755 96.8646 79.1538 97.1455 79.861 97.1455H94.4818V97.1455Z" fill="#D3D3D3"/>
<path d="M93.8207 96.4884C94.3484 96.4893 94.8645 96.3335 95.3036 96.0407C95.7426 95.7479 96.0849 95.3314 96.2869 94.8438C96.4889 94.3563 96.5416 93.8198 96.4383 93.3023C96.3349 92.7847 96.0803 92.3096 95.7066 91.937L71.2447 67.474C70.9972 67.2262 70.7033 67.0297 70.3798 66.8955C70.0563 66.7614 69.7096 66.6924 69.3594 66.6924C69.0092 66.6924 68.6624 66.7614 68.3389 66.8955C68.0154 67.0297 67.7215 67.2262 67.474 67.474C67.2262 67.7215 67.0297 68.0154 66.8955 68.3389C66.7614 68.6624 66.6924 69.0092 66.6924 69.3594C66.6924 69.7096 66.7614 70.0563 66.8955 70.3798C67.0297 70.7033 67.2262 70.9972 67.474 71.2447L91.9359 95.7066C92.183 95.9547 92.4768 96.1515 92.8002 96.2856C93.1237 96.4198 93.4705 96.4887 93.8207 96.4884V96.4884Z" fill="#D3D3D3"/>
<path d="M77.1936 94.4785C77.1936 95.1857 77.4745 95.864 77.9746 96.3641C78.4747 96.8642 79.153 97.1451 79.8603 97.1451H94.4811C95.1883 97.1451 95.8666 96.8642 96.3667 96.3641C96.8668 95.864 97.1477 95.1857 97.1477 94.4785V79.8577C97.1477 79.1504 96.8668 78.4722 96.3667 77.9721C95.8666 77.472 95.1883 77.191 94.4811 77.191C93.7738 77.191 93.0955 77.472 92.5954 77.9721C92.0953 78.4722 91.8144 79.1504 91.8144 79.8577V88.0443L71.2448 67.4737C70.7243 66.9531 70.0416 66.6929 69.3589 66.6929C68.6763 66.6929 67.9947 66.9531 67.4731 67.4737C67.2253 67.7211 67.0287 68.015 66.8946 68.3385C66.7604 68.662 66.6914 69.0088 66.6914 69.359C66.6914 69.7092 66.7604 70.056 66.8946 70.3795C67.0287 70.703 67.2253 70.9969 67.4731 71.2443L88.0395 91.8118H79.8592C79.1521 91.8121 78.4741 92.0932 77.9743 92.5932C77.4744 93.0933 77.1936 93.7714 77.1936 94.4785V94.4785ZM89.5189 92.4241C89.6401 92.1317 89.6719 91.8099 89.6102 91.4995C89.5485 91.189 89.3961 90.9039 89.1723 90.6801L68.6048 70.1126C68.4032 69.911 68.2923 69.6433 68.2923 69.3585C68.2923 69.0737 68.4032 68.8059 68.6048 68.6043C68.8064 68.4027 69.0741 68.2918 69.3589 68.2918C69.6437 68.2918 69.9115 68.4027 70.1131 68.6043L90.6827 89.175C90.9064 89.3989 91.1916 89.5514 91.5021 89.6132C91.8125 89.675 92.1343 89.6433 92.4268 89.5222C92.7192 89.401 92.9692 89.1958 93.145 88.9326C93.3208 88.6693 93.4145 88.3598 93.4144 88.0433V79.8566C93.4144 79.2689 93.8933 78.7899 94.4811 78.7899C95.0688 78.7899 95.5477 79.2689 95.5477 79.8566V94.4774C95.5477 95.0651 95.0688 95.5441 94.4811 95.5441H79.8603C79.2725 95.5441 78.7936 95.0651 78.7936 94.4774C78.7936 93.8897 79.2725 93.4107 79.8603 93.4107H88.0405C88.357 93.4111 88.6664 93.3176 88.9296 93.1419C89.1928 92.9663 89.3979 92.7164 89.5189 92.4241V92.4241Z" fill="#EBE7F2"/>
<path d="M164.188 176.131V164.177H176.142C176.849 164.177 177.527 163.896 178.028 163.396C178.528 162.896 178.809 162.218 178.809 161.51C178.809 160.803 178.528 160.125 178.028 159.625C177.527 159.125 176.849 158.844 176.142 158.844H161.521C160.814 158.844 160.136 159.125 159.636 159.625C159.135 160.125 158.854 160.803 158.854 161.51V176.131C158.854 176.838 159.135 177.517 159.636 178.017C160.136 178.517 160.814 178.798 161.521 178.798C162.228 178.798 162.907 178.517 163.407 178.017C163.907 177.517 164.188 176.838 164.188 176.131Z" fill="#D3D3D3"/>
<path d="M186.642 189.308C187.169 189.308 187.686 189.153 188.125 188.86C188.564 188.567 188.906 188.151 189.108 187.663C189.31 187.175 189.363 186.639 189.259 186.121C189.156 185.604 188.901 185.129 188.528 184.756L163.953 160.18C163.705 159.932 163.411 159.736 163.088 159.602C162.764 159.467 162.418 159.398 162.067 159.398C161.717 159.398 161.37 159.467 161.047 159.602C160.723 159.736 160.43 159.932 160.182 160.18C159.934 160.428 159.738 160.721 159.604 161.045C159.469 161.368 159.4 161.715 159.4 162.065C159.4 162.416 159.469 162.762 159.604 163.086C159.738 163.409 159.934 163.703 160.182 163.951L184.757 188.527C185.004 188.775 185.298 188.971 185.622 189.105C185.945 189.239 186.292 189.308 186.642 189.308V189.308Z" fill="#D3D3D3"/>
<path d="M178.809 161.51C178.809 160.803 178.528 160.125 178.028 159.625C177.527 159.125 176.849 158.844 176.142 158.844H161.521C160.814 158.844 160.136 159.125 159.636 159.625C159.135 160.125 158.854 160.803 158.854 161.51V176.131C158.854 176.838 159.135 177.517 159.636 178.017C160.136 178.517 160.814 178.798 161.521 178.798C162.228 178.798 162.907 178.517 163.407 178.017C163.907 177.517 164.188 176.838 164.188 176.131V167.958L184.755 188.527C185.276 189.047 185.958 189.308 186.641 189.308C187.324 189.308 188.005 189.047 188.527 188.527C188.775 188.279 188.971 187.986 189.106 187.662C189.24 187.339 189.309 186.992 189.309 186.642C189.309 186.291 189.24 185.945 189.106 185.621C188.971 185.298 188.775 185.004 188.527 184.756L167.949 164.178H176.143C176.85 164.177 177.528 163.896 178.028 163.396C178.527 162.896 178.808 162.217 178.809 161.51V161.51ZM166.469 163.564C166.348 163.856 166.316 164.178 166.378 164.488C166.44 164.799 166.592 165.084 166.816 165.308L187.394 185.887C187.596 186.089 187.707 186.356 187.707 186.641C187.707 186.926 187.596 187.194 187.394 187.395C187.193 187.597 186.925 187.708 186.64 187.708C186.355 187.708 186.088 187.597 185.886 187.395L165.318 166.827C165.095 166.603 164.81 166.45 164.499 166.388C164.189 166.327 163.867 166.358 163.574 166.48C163.282 166.601 163.032 166.806 162.856 167.069C162.68 167.332 162.587 167.642 162.587 167.958V176.131C162.587 176.719 162.108 177.198 161.52 177.198C160.932 177.198 160.453 176.719 160.453 176.131V161.51C160.453 160.923 160.932 160.444 161.52 160.444H176.141C176.729 160.444 177.208 160.923 177.208 161.51C177.208 162.098 176.729 162.577 176.141 162.577H167.947C167.631 162.577 167.322 162.671 167.059 162.847C166.796 163.022 166.591 163.272 166.469 163.564V163.564Z" fill="#EBE7F2"/>
<path d="M47.634 110.131C48.2263 110.13 48.8017 109.933 49.2692 109.569C49.7368 109.205 50.07 108.697 50.2164 108.123C53.7642 94.1881 60.9946 81.4645 71.1501 71.285C81.3055 61.1056 94.012 53.8451 107.938 50.2644C108.28 50.18 108.602 50.0286 108.886 49.819C109.169 49.6093 109.408 49.3456 109.589 49.043C109.769 48.7405 109.888 48.4051 109.939 48.0563C109.989 47.7074 109.97 47.3521 109.882 47.0108C109.794 46.6694 109.639 46.3489 109.427 46.0677C109.215 45.7865 108.948 45.5502 108.644 45.3725C108.34 45.1948 108.003 45.0792 107.654 45.0323C107.304 44.9855 106.949 45.0083 106.609 45.0996C91.7566 48.9189 78.2049 56.6626 67.374 67.5193C56.543 78.376 48.8314 91.946 45.0473 106.807C44.9472 107.201 44.9384 107.613 45.0216 108.01C45.1048 108.408 45.2778 108.782 45.5273 109.102C45.7769 109.423 46.0964 109.682 46.4615 109.861C46.8266 110.039 47.2277 110.131 47.634 110.131V110.131ZM106.805 210.952C107.482 211.103 108.191 210.984 108.782 210.621C109.373 210.258 109.799 209.679 109.97 209.007C110.141 208.335 110.044 207.623 109.699 207.021C109.354 206.419 108.788 205.976 108.121 205.784C94.1546 202.231 81.4044 194.978 71.2138 184.787C61.0232 174.596 53.7694 161.846 50.2164 147.879C50.0418 147.194 49.6022 146.606 48.994 146.245C48.3859 145.883 47.6592 145.778 46.9737 145.953C46.2883 146.127 45.7002 146.567 45.339 147.175C44.9777 147.783 44.8728 148.51 45.0473 149.196C48.8369 164.092 56.5735 177.69 67.4421 188.558C78.3107 199.427 91.9092 207.163 106.805 210.952V210.952ZM148.534 211.035C148.752 211.035 148.974 211.008 149.195 210.951C164.09 207.162 177.689 199.426 188.557 188.557C199.426 177.689 207.162 164.09 210.951 149.195C211.126 148.509 211.021 147.782 210.66 147.174C210.298 146.566 209.71 146.126 209.025 145.952C208.339 145.777 207.613 145.882 207.005 146.243C206.397 146.605 205.957 147.193 205.782 147.878C202.229 161.845 194.975 174.595 184.785 184.786C174.594 194.977 161.844 202.23 147.877 205.783C147.249 205.945 146.701 206.33 146.336 206.867C145.972 207.403 145.815 208.054 145.895 208.698C145.976 209.342 146.288 209.934 146.774 210.364C147.26 210.794 147.886 211.033 148.534 211.035V211.035ZM205.783 108.121C205.97 108.794 206.412 109.366 207.016 109.716C207.62 110.066 208.337 110.166 209.013 109.994C209.689 109.821 210.271 109.391 210.633 108.795C210.996 108.198 211.11 107.484 210.952 106.804C207.163 91.9084 199.426 78.3102 188.558 67.4418C177.69 56.5733 164.091 48.8369 149.196 45.0473C148.51 44.8728 147.783 44.9777 147.175 45.339C146.567 45.7002 146.127 46.2883 145.953 46.9737C145.778 47.6592 145.883 48.3859 146.245 48.994C146.606 49.6022 147.194 50.0418 147.879 50.2164C161.846 53.7697 174.596 61.0236 184.786 71.2141C194.977 81.4047 202.23 94.1548 205.783 108.121V108.121Z" fill="#65C1D6"/>
<path d="M47.6341 110.131C48.2265 110.13 48.8018 109.932 49.2694 109.569C49.7369 109.205 50.0702 108.696 50.2165 108.122C53.7643 94.1878 60.9948 81.4642 71.1502 71.2847C81.3056 61.1053 94.0122 53.8448 107.938 50.2641C108.28 50.1797 108.602 50.0283 108.886 49.8186C109.169 49.609 109.408 49.3453 109.589 49.0427C109.77 48.7402 109.888 48.4048 109.939 48.0559C109.989 47.7071 109.97 47.3518 109.882 47.0104C109.794 46.6691 109.64 46.3486 109.427 46.0674C109.215 45.7862 108.949 45.5499 108.644 45.3722C108.34 45.1945 108.003 45.0788 107.654 45.032C107.305 44.9852 106.949 45.008 106.609 45.0993C91.7568 48.9186 78.2051 56.6623 67.3741 67.519C56.5431 78.3757 48.8315 91.9457 45.0475 106.807C44.9473 107.201 44.9385 107.612 45.0217 108.01C45.1049 108.408 45.2779 108.781 45.5274 109.102C45.777 109.423 46.0965 109.682 46.4616 109.86C46.8268 110.039 47.2278 110.131 47.6341 110.131V110.131ZM46.5984 107.2C50.3113 92.6166 57.8782 79.3007 68.5062 68.6472C79.1341 57.9937 92.4318 50.3949 107.006 46.647C107.142 46.612 107.283 46.604 107.421 46.6236C107.56 46.6432 107.694 46.6899 107.814 46.761C107.935 46.8322 108.041 46.9264 108.125 47.0384C108.209 47.1503 108.271 47.2777 108.306 47.4134C108.341 47.5491 108.349 47.6903 108.329 47.829C108.309 47.9678 108.263 48.1013 108.192 48.222C108.12 48.3427 108.026 48.4482 107.914 48.5325C107.802 48.6167 107.675 48.6781 107.539 48.7131C93.3352 52.3653 80.3751 59.7708 70.017 70.1535C59.6589 80.5362 52.2841 93.5139 48.6656 107.726C48.6312 107.862 48.5704 107.99 48.4867 108.102C48.4029 108.214 48.2979 108.309 48.1775 108.381C48.0571 108.452 47.9238 108.5 47.7852 108.52C47.6466 108.54 47.5053 108.532 47.3696 108.498C47.0955 108.427 46.8605 108.251 46.7159 108.008C46.5714 107.765 46.5291 107.474 46.5984 107.2V107.2ZM106.805 210.952C107.482 211.103 108.191 210.984 108.782 210.621C109.373 210.257 109.799 209.678 109.97 209.006C110.141 208.334 110.044 207.622 109.699 207.021C109.354 206.419 108.788 205.976 108.122 205.784C94.1547 202.231 81.4045 194.977 71.2139 184.787C61.0233 174.596 53.7695 161.846 50.2165 147.879C50.0418 147.194 49.602 146.606 48.9938 146.244C48.3856 145.883 47.6588 145.778 46.9733 145.953C46.2879 146.128 45.6999 146.568 45.3387 147.176C44.9775 147.784 44.8728 148.511 45.0475 149.196C48.8373 164.092 56.574 177.69 67.4426 188.558C78.3112 199.427 91.9095 207.163 106.805 210.952V210.952ZM47.3675 147.502C47.5033 147.467 47.6448 147.46 47.7837 147.479C47.9227 147.499 48.0563 147.546 48.1771 147.618C48.2978 147.689 48.4032 147.784 48.4872 147.896C48.5712 148.009 48.6322 148.137 48.6667 148.273C52.2906 162.518 59.6891 175.523 70.083 185.917C80.4769 196.31 93.4815 203.709 107.727 207.333C107.992 207.411 108.217 207.588 108.354 207.828C108.491 208.069 108.53 208.353 108.461 208.621C108.393 208.889 108.224 209.12 107.989 209.265C107.754 209.411 107.471 209.46 107.201 209.401C92.5838 205.683 79.2398 198.091 68.5746 187.426C57.9094 176.761 50.3178 163.417 46.5995 148.8C46.5295 148.526 46.5711 148.235 46.7151 147.992C46.8591 147.749 47.0937 147.573 47.3675 147.502ZM148.534 211.034C148.752 211.034 148.974 211.008 149.195 210.951C164.091 207.162 177.689 199.425 188.557 188.557C199.426 177.688 207.162 164.09 210.951 149.194C211.126 148.509 211.021 147.782 210.66 147.174C210.299 146.566 209.711 146.126 209.026 145.951C208.34 145.776 207.613 145.881 207.005 146.242C206.397 146.603 205.957 147.191 205.782 147.877C202.229 161.844 194.976 174.594 184.785 184.785C174.594 194.975 161.844 202.229 147.877 205.782C147.248 205.943 146.699 206.328 146.334 206.865C145.968 207.401 145.811 208.053 145.891 208.698C145.972 209.342 146.285 209.935 146.771 210.365C147.258 210.795 147.885 211.033 148.534 211.034V211.034ZM148.273 207.333C162.519 203.709 175.523 196.311 185.918 185.917C196.312 175.523 203.71 162.518 207.334 148.273C207.369 148.137 207.43 148.009 207.514 147.897C207.598 147.785 207.703 147.69 207.823 147.618C207.944 147.547 208.077 147.499 208.216 147.479C208.354 147.459 208.496 147.467 208.631 147.501C209.202 147.646 209.548 148.229 209.403 148.798C205.684 163.416 198.093 176.76 187.428 187.425C176.762 198.09 163.418 205.682 148.801 209.4C148.665 209.435 148.524 209.443 148.385 209.423C148.246 209.403 148.113 209.356 147.992 209.284C147.872 209.212 147.767 209.118 147.683 209.005C147.599 208.893 147.538 208.765 147.504 208.629C147.434 208.355 147.476 208.065 147.62 207.822C147.765 207.579 147.999 207.403 148.273 207.333V207.333ZM205.783 108.121C205.97 108.794 206.413 109.366 207.016 109.716C207.62 110.066 208.337 110.166 209.013 109.993C209.689 109.821 210.271 109.39 210.634 108.794C210.996 108.198 211.111 107.483 210.953 106.804C207.163 91.908 199.427 78.3099 188.558 67.4414C177.69 56.573 164.092 48.8366 149.196 45.047C148.51 44.8729 147.784 44.9779 147.176 45.3389C146.568 45.6999 146.128 46.2873 145.953 46.9723C145.867 47.3117 145.848 47.6649 145.898 48.0115C145.948 48.3582 146.066 48.6916 146.245 48.9927C146.423 49.2938 146.66 49.5568 146.94 49.7665C147.221 49.9762 147.54 50.1286 147.879 50.215C161.846 53.7687 174.596 61.0228 184.786 71.2136C194.977 81.4043 202.23 94.1544 205.783 108.121ZM147.503 47.3681C147.537 47.2322 147.598 47.1045 147.682 46.9923C147.766 46.88 147.871 46.7853 147.992 46.7137C148.112 46.6421 148.246 46.5949 148.384 46.5749C148.523 46.5548 148.664 46.5623 148.8 46.5969C163.417 50.3153 176.761 57.9069 187.426 68.572C198.092 79.2372 205.683 92.5812 209.402 107.198C209.441 107.356 209.445 107.521 209.411 107.68C209.378 107.839 209.308 107.988 209.209 108.116C209.109 108.245 208.981 108.348 208.835 108.42C208.689 108.491 208.528 108.529 208.366 108.529C208.129 108.528 207.899 108.449 207.712 108.304C207.525 108.158 207.392 107.954 207.334 107.724C203.711 93.4789 196.312 80.4743 185.918 70.0804C175.524 59.6865 162.52 52.288 148.274 48.6641C148 48.5944 147.765 48.4188 147.62 48.1757C147.476 47.9327 147.433 47.6422 147.503 47.3681V47.3681Z" fill="#149CB2"/>
<path d="M149.725 157.555C154.043 157.555 157.556 154.044 157.556 149.726V106.275C157.556 101.958 154.043 98.4458 149.725 98.4458H106.276C101.958 98.4458 98.4453 101.957 98.4453 106.275V149.726C98.4453 154.043 101.958 157.555 106.276 157.555H149.725ZM103.779 149.726V106.275C103.779 104.899 104.899 103.779 106.276 103.779H149.725C150.387 103.78 151.022 104.043 151.49 104.511C151.958 104.979 152.222 105.613 152.222 106.275V149.726C152.222 151.102 151.102 152.222 149.725 152.222H106.276C105.614 152.221 104.979 151.958 104.511 151.49C104.043 151.022 103.779 150.388 103.779 149.726V149.726Z" fill="#65C1D6"/>
<path d="M115.63 117.791H128.001C128.708 117.791 129.386 117.51 129.886 117.01C130.386 116.51 130.667 115.831 130.667 115.124C130.667 114.417 130.386 113.739 129.886 113.239C129.386 112.738 128.708 112.458 128.001 112.458H115.63C114.922 112.458 114.244 112.738 113.744 113.239C113.244 113.739 112.963 114.417 112.963 115.124C112.963 115.831 113.244 116.51 113.744 117.01C114.244 117.51 114.922 117.791 115.63 117.791V117.791ZM115.63 130.667H140.371C141.078 130.667 141.756 130.386 142.257 129.886C142.757 129.385 143.038 128.707 143.038 128C143.038 127.293 142.757 126.614 142.257 126.114C141.756 125.614 141.078 125.333 140.371 125.333H115.63C114.922 125.333 114.244 125.614 113.744 126.114C113.244 126.614 112.963 127.293 112.963 128C112.963 128.707 113.244 129.385 113.744 129.886C114.244 130.386 114.922 130.667 115.63 130.667ZM115.63 143.542H140.371C141.078 143.542 141.756 143.261 142.257 142.761C142.757 142.261 143.038 141.583 143.038 140.876C143.038 140.168 142.757 139.49 142.257 138.99C141.756 138.49 141.078 138.209 140.371 138.209H115.63C114.922 138.209 114.244 138.49 113.744 138.99C113.244 139.49 112.963 140.168 112.963 140.876C112.963 141.583 113.244 142.261 113.744 142.761C114.244 143.261 114.922 143.542 115.63 143.542V143.542Z" fill="#65C1D6"/>
<path d="M149.725 153.822C150.811 153.821 151.853 153.389 152.621 152.621C153.389 151.853 153.821 150.812 153.822 149.726V106.275C153.821 105.189 153.389 104.148 152.621 103.38C151.853 102.612 150.811 102.18 149.725 102.179H106.276C105.19 102.18 104.148 102.612 103.38 103.38C102.612 104.148 102.18 105.189 102.179 106.275V149.726C102.18 150.812 102.612 151.853 103.38 152.621C104.148 153.389 105.19 153.821 106.276 153.822H149.725ZM103.779 149.726V106.275C103.779 104.899 104.899 103.779 106.276 103.779H149.725C150.387 103.78 151.022 104.043 151.49 104.511C151.958 104.979 152.222 105.613 152.222 106.275V149.726C152.222 151.102 151.102 152.222 149.725 152.222H106.276C105.614 152.221 104.979 151.958 104.511 151.49C104.043 151.022 103.78 150.388 103.779 149.726V149.726Z" fill="#149CB2"/>
<path d="M149.725 157.555C154.043 157.555 157.556 154.044 157.556 149.726V106.275C157.556 101.958 154.043 98.4458 149.725 98.4458H106.276C101.958 98.4458 98.4453 101.957 98.4453 106.275V149.726C98.4453 154.043 101.958 157.555 106.276 157.555H149.725ZM100.045 149.726V106.275C100.045 102.84 102.84 100.046 106.276 100.046H149.725C151.377 100.047 152.961 100.704 154.129 101.872C155.297 103.04 155.954 104.623 155.956 106.275V149.726C155.956 153.16 153.161 155.955 149.725 155.955H106.276C104.624 155.953 103.04 155.297 101.872 154.129C100.704 152.961 100.047 151.377 100.045 149.726V149.726Z" fill="#149CB2"/>
<path d="M115.63 117.791H128.001C128.708 117.791 129.386 117.51 129.886 117.01C130.386 116.51 130.667 115.831 130.667 115.124C130.667 114.417 130.386 113.739 129.886 113.239C129.386 112.738 128.708 112.458 128.001 112.458H115.63C114.922 112.458 114.244 112.738 113.744 113.239C113.244 113.739 112.963 114.417 112.963 115.124C112.963 115.831 113.244 116.51 113.744 117.01C114.244 117.51 114.922 117.791 115.63 117.791V117.791ZM115.63 114.058H128.001C128.588 114.058 129.067 114.536 129.067 115.124C129.067 115.712 128.588 116.191 128.001 116.191H115.63C115.042 116.191 114.563 115.712 114.563 115.124C114.563 114.536 115.042 114.058 115.63 114.058ZM115.63 130.667H140.371C141.078 130.667 141.756 130.386 142.257 129.886C142.757 129.385 143.038 128.707 143.038 128C143.038 127.293 142.757 126.614 142.257 126.114C141.756 125.614 141.078 125.333 140.371 125.333H115.63C114.922 125.333 114.244 125.614 113.744 126.114C113.244 126.614 112.963 127.293 112.963 128C112.963 128.707 113.244 129.385 113.744 129.886C114.244 130.386 114.922 130.667 115.63 130.667ZM115.63 126.933H140.371C140.959 126.933 141.438 127.412 141.438 128C141.438 128.588 140.959 129.067 140.371 129.067H115.63C115.042 129.067 114.563 128.588 114.563 128C114.563 127.412 115.042 126.933 115.63 126.933V126.933Z" fill="#149CB2"/>
<path d="M115.63 143.542H140.371C141.078 143.542 141.756 143.261 142.257 142.761C142.757 142.261 143.038 141.583 143.038 140.876C143.038 140.168 142.757 139.49 142.257 138.99C141.756 138.49 141.078 138.209 140.371 138.209H115.63C114.922 138.209 114.244 138.49 113.744 138.99C113.244 139.49 112.963 140.168 112.963 140.876C112.963 141.583 113.244 142.261 113.744 142.761C114.244 143.261 114.922 143.542 115.63 143.542V143.542ZM115.63 139.809H140.371C140.959 139.809 141.438 140.288 141.438 140.876C141.438 141.463 140.959 141.942 140.371 141.942H115.63C115.042 141.942 114.563 141.463 114.563 140.876C114.563 140.288 115.042 139.809 115.63 139.809V139.809Z" fill="#149CB2"/>
<path d="M144.594 69.3395C146.347 69.3375 148.027 68.6404 149.266 67.4012C150.505 66.162 151.201 64.4818 151.203 62.7294V29.5432C151.201 27.7908 150.505 26.1107 149.266 24.8714C148.027 23.6322 146.347 22.9351 144.594 22.9331H111.407C109.655 22.9351 107.974 23.6322 106.735 24.8714C105.496 26.1107 104.8 27.7908 104.798 29.5432V62.7294C104.8 64.4818 105.496 66.162 106.735 67.4012C107.974 68.6404 109.655 69.3375 111.407 69.3395H144.594ZM110.13 62.7294V29.5432C110.13 28.8392 110.703 28.2664 111.406 28.2664H144.593C145.296 28.2664 145.869 28.8392 145.869 29.5432V62.7294C145.869 63.4334 145.296 64.0062 144.593 64.0062H111.406C111.067 64.0056 110.743 63.8709 110.504 63.6315C110.265 63.3922 110.13 63.0677 110.13 62.7294V62.7294Z" fill="#F9B087"/>
<path d="M128 38.9681C128.707 38.9681 129.386 38.6871 129.886 38.187C130.386 37.687 130.667 37.0087 130.667 36.3014C130.667 35.5942 130.386 34.9159 129.886 34.4158C129.386 33.9157 128.707 33.6348 128 33.6348H118.552C117.844 33.6348 117.166 33.9157 116.666 34.4158C116.166 34.9159 115.885 35.5942 115.885 36.3014C115.885 37.0087 116.166 37.687 116.666 38.187C117.166 38.6871 117.844 38.9681 118.552 38.9681H128ZM137.449 48.8028C138.156 48.8028 138.834 48.5218 139.334 48.0217C139.834 47.5216 140.115 46.8433 140.115 46.1361C140.115 45.4289 139.834 44.7506 139.334 44.2505C138.834 43.7504 138.156 43.4694 137.449 43.4694H118.55C117.843 43.4694 117.165 43.7504 116.665 44.2505C116.165 44.7506 115.884 45.4289 115.884 46.1361C115.884 46.8433 116.165 47.5216 116.665 48.0217C117.165 48.5218 117.843 48.8028 118.55 48.8028H137.449ZM137.449 58.6374C138.156 58.6374 138.834 58.3565 139.334 57.8564C139.834 57.3563 140.115 56.678 140.115 55.9708C140.115 55.2635 139.834 54.5852 139.334 54.0851C138.834 53.585 138.156 53.3041 137.449 53.3041H118.55C117.843 53.3041 117.165 53.585 116.665 54.0851C116.165 54.5852 115.884 55.2635 115.884 55.9708C115.884 56.678 116.165 57.3563 116.665 57.8564C117.165 58.3565 117.843 58.6374 118.55 58.6374H137.449Z" fill="#F9B087"/>
<path d="M144.594 233.067C146.347 233.065 148.027 232.367 149.266 231.128C150.505 229.889 151.201 228.209 151.203 226.456V193.27C151.201 191.518 150.505 189.838 149.266 188.598C148.027 187.359 146.347 186.662 144.594 186.66H111.407C109.655 186.662 107.974 187.359 106.735 188.598C105.496 189.838 104.8 191.518 104.798 193.27V226.456C104.8 228.209 105.496 229.889 106.735 231.128C107.974 232.367 109.655 233.065 111.407 233.067H144.594ZM110.13 226.456V193.27C110.13 192.566 110.703 191.993 111.406 191.993H144.593C145.296 191.993 145.869 192.566 145.869 193.27V226.456C145.869 227.16 145.296 227.733 144.593 227.733H111.406C111.067 227.733 110.743 227.598 110.504 227.359C110.265 227.119 110.13 226.795 110.13 226.456V226.456Z" fill="#F9B087"/>
<path d="M128 202.695C128.707 202.695 129.386 202.414 129.886 201.914C130.386 201.414 130.667 200.736 130.667 200.028C130.667 199.321 130.386 198.643 129.886 198.143C129.386 197.643 128.707 197.362 128 197.362H118.552C117.844 197.362 117.166 197.643 116.666 198.143C116.166 198.643 115.885 199.321 115.885 200.028C115.885 200.736 116.166 201.414 116.666 201.914C117.166 202.414 117.844 202.695 118.552 202.695H128ZM137.449 212.53C138.156 212.53 138.834 212.249 139.334 211.749C139.834 211.249 140.115 210.57 140.115 209.863C140.115 209.156 139.834 208.478 139.334 207.978C138.834 207.477 138.156 207.196 137.449 207.196H118.55C117.843 207.196 117.165 207.477 116.665 207.978C116.165 208.478 115.884 209.156 115.884 209.863C115.884 210.57 116.165 211.249 116.665 211.749C117.165 212.249 117.843 212.53 118.55 212.53H137.449ZM137.449 222.364C138.156 222.364 138.834 222.084 139.334 221.583C139.834 221.083 140.115 220.405 140.115 219.698C140.115 218.991 139.834 218.312 139.334 217.812C138.834 217.312 138.156 217.031 137.449 217.031H118.55C117.843 217.031 117.165 217.312 116.665 217.812C116.165 218.312 115.884 218.991 115.884 219.698C115.884 220.405 116.165 221.083 116.665 221.583C117.165 222.084 117.843 222.364 118.55 222.364H137.449Z" fill="#F9B087"/>
<path d="M226.457 151.203C228.21 151.201 229.89 150.504 231.129 149.264C232.368 148.025 233.065 146.345 233.066 144.593V111.407C233.065 109.654 232.368 107.974 231.129 106.735C229.89 105.495 228.21 104.798 226.457 104.796H193.271C191.519 104.798 189.839 105.495 188.599 106.735C187.36 107.974 186.663 109.654 186.661 111.407V144.593C186.663 146.345 187.36 148.025 188.599 149.265C189.839 150.504 191.519 151.201 193.271 151.203H226.457ZM191.993 144.593V111.407C191.993 110.703 192.566 110.13 193.27 110.13H226.456C227.159 110.13 227.732 110.703 227.732 111.407V144.593C227.732 145.297 227.159 145.869 226.456 145.869H193.27C192.566 145.869 191.993 145.297 191.993 144.593Z" fill="#F9B087"/>
<path d="M209.863 120.831C210.571 120.831 211.249 120.55 211.749 120.05C212.249 119.55 212.53 118.872 212.53 118.165C212.53 117.457 212.249 116.779 211.749 116.279C211.249 115.779 210.571 115.498 209.863 115.498H200.415C199.708 115.498 199.029 115.779 198.529 116.279C198.029 116.779 197.748 117.457 197.748 118.165C197.748 118.872 198.029 119.55 198.529 120.05C199.029 120.55 199.708 120.831 200.415 120.831H209.863ZM219.312 130.666C220.019 130.666 220.697 130.385 221.197 129.885C221.698 129.385 221.979 128.707 221.979 127.999C221.979 127.292 221.698 126.614 221.197 126.114C220.697 125.614 220.019 125.333 219.312 125.333H200.414C199.706 125.333 199.028 125.614 198.528 126.114C198.028 126.614 197.747 127.292 197.747 127.999C197.747 128.707 198.028 129.385 198.528 129.885C199.028 130.385 199.706 130.666 200.414 130.666H219.312V130.666ZM219.312 140.501C220.019 140.501 220.697 140.22 221.197 139.72C221.698 139.22 221.979 138.541 221.979 137.834C221.979 137.127 221.698 136.449 221.197 135.948C220.697 135.448 220.019 135.167 219.312 135.167H200.414C199.706 135.167 199.028 135.448 198.528 135.948C198.028 136.449 197.747 137.127 197.747 137.834C197.747 138.541 198.028 139.22 198.528 139.72C199.028 140.22 199.706 140.501 200.414 140.501H219.312V140.501Z" fill="#F9B087"/>
<path d="M62.7299 151.203C64.4824 151.201 66.1625 150.504 67.4017 149.265C68.641 148.025 69.338 146.345 69.34 144.593V111.407C69.338 109.654 68.641 107.974 67.4017 106.735C66.1625 105.495 64.4824 104.798 62.7299 104.796H29.5427C27.7902 104.798 26.1102 105.495 24.8712 106.735C23.6321 107.974 22.9353 109.654 22.9336 111.407V144.593C22.9353 146.345 23.6321 148.025 24.8712 149.264C26.1102 150.504 27.7902 151.201 29.5427 151.203H62.7299ZM28.2669 144.593V111.407C28.2669 110.703 28.8397 110.13 29.5427 110.13H62.7288C63.4328 110.13 64.0056 110.703 64.0056 111.407V144.593C64.0056 145.297 63.4328 145.869 62.7288 145.869H29.5427C29.2043 145.869 28.88 145.734 28.6408 145.495C28.4017 145.255 28.2672 144.931 28.2669 144.593V144.593Z" fill="#F9B087"/>
<path d="M46.1367 120.831C46.8439 120.831 47.5222 120.55 48.0223 120.05C48.5224 119.55 48.8033 118.872 48.8033 118.165C48.8033 117.457 48.5224 116.779 48.0223 116.279C47.5222 115.779 46.8439 115.498 46.1367 115.498H36.6882C35.9809 115.498 35.3026 115.779 34.8025 116.279C34.3024 116.779 34.0215 117.457 34.0215 118.165C34.0215 118.872 34.3024 119.55 34.8025 120.05C35.3026 120.55 35.9809 120.831 36.6882 120.831H46.1367ZM55.5852 130.666C56.2925 130.666 56.9707 130.385 57.4708 129.885C57.9709 129.385 58.2519 128.707 58.2519 127.999C58.2519 127.292 57.9709 126.614 57.4708 126.114C56.9707 125.614 56.2925 125.333 55.5852 125.333H36.6882C35.9809 125.333 35.3026 125.614 34.8025 126.114C34.3024 126.614 34.0215 127.292 34.0215 127.999C34.0215 128.707 34.3024 129.385 34.8025 129.885C35.3026 130.385 35.9809 130.666 36.6882 130.666H55.5852V130.666ZM55.5852 140.501C56.2925 140.501 56.9707 140.22 57.4708 139.72C57.9709 139.22 58.2519 138.541 58.2519 137.834C58.2519 137.127 57.9709 136.449 57.4708 135.948C56.9707 135.448 56.2925 135.167 55.5852 135.167H36.6882C35.9809 135.167 35.3026 135.448 34.8025 135.948C34.3024 136.449 34.0215 137.127 34.0215 137.834C34.0215 138.541 34.3024 139.22 34.8025 139.72C35.3026 140.22 35.9809 140.501 36.6882 140.501H55.5852V140.501Z" fill="#F9B087"/>
<path d="M144.594 65.6062C145.357 65.6051 146.088 65.3016 146.627 64.7623C147.166 64.223 147.469 63.492 147.47 62.7294V29.5433C147.469 28.7808 147.166 28.0497 146.627 27.5104C146.088 26.9711 145.357 26.6676 144.594 26.6665H111.407C110.644 26.6676 109.913 26.9711 109.374 27.5104C108.835 28.0497 108.532 28.7808 108.531 29.5433V62.7294C108.532 63.492 108.835 64.223 109.374 64.7623C109.913 65.3016 110.644 65.6051 111.407 65.6062H144.594ZM110.13 62.7294V29.5433C110.13 28.8393 110.703 28.2665 111.406 28.2665H144.593C145.296 28.2665 145.869 28.8393 145.869 29.5433V62.7294C145.869 63.4334 145.296 64.0062 144.593 64.0062H111.406C111.068 64.0057 110.743 63.8709 110.504 63.6316C110.265 63.3922 110.13 63.0678 110.13 62.7294V62.7294Z" fill="#FF8639"/>
<path d="M144.594 69.3395C146.347 69.3375 148.027 68.6404 149.266 67.4012C150.505 66.162 151.201 64.4818 151.203 62.7294V29.5432C151.201 27.7908 150.505 26.1107 149.266 24.8714C148.027 23.6322 146.347 22.9351 144.594 22.9331H111.407C109.655 22.9351 107.974 23.6322 106.735 24.8714C105.496 26.1107 104.8 27.7908 104.798 29.5432V62.7294C104.8 64.4818 105.496 66.162 106.735 67.4012C107.974 68.6404 109.655 69.3375 111.407 69.3395H144.594ZM106.397 62.7294V29.5432C106.398 28.2151 106.926 26.9417 107.865 26.0025C108.804 25.0632 110.078 24.5348 111.406 24.5331H144.593C145.921 24.5345 147.195 25.0629 148.134 26.0022C149.073 26.9415 149.601 28.215 149.602 29.5432V62.7294C149.601 64.0575 149.073 65.3309 148.133 66.2701C147.194 67.2094 145.921 67.7378 144.593 67.7395H111.406C110.078 67.7378 108.804 67.2094 107.865 66.2701C106.926 65.3309 106.398 64.0575 106.397 62.7294Z" fill="#FF8639"/>
<path d="M128 38.9681C128.707 38.9681 129.386 38.6871 129.886 38.187C130.386 37.687 130.667 37.0087 130.667 36.3014C130.667 35.5942 130.386 34.9159 129.886 34.4158C129.386 33.9157 128.707 33.6348 128 33.6348H118.552C117.844 33.6348 117.166 33.9157 116.666 34.4158C116.166 34.9159 115.885 35.5942 115.885 36.3014C115.885 37.0087 116.166 37.687 116.666 38.187C117.166 38.6871 117.844 38.9681 118.552 38.9681H128ZM117.485 36.3014C117.485 35.7137 117.964 35.2348 118.552 35.2348H128C128.588 35.2348 129.067 35.7137 129.067 36.3014C129.067 36.8892 128.588 37.3681 128 37.3681H118.552C118.269 37.3681 117.997 37.2557 117.797 37.0557C117.597 36.8556 117.485 36.5843 117.485 36.3014ZM137.449 48.8028C138.156 48.8028 138.834 48.5218 139.334 48.0217C139.834 47.5216 140.115 46.8433 140.115 46.1361C140.115 45.4289 139.834 44.7506 139.334 44.2505C138.834 43.7504 138.156 43.4694 137.449 43.4694H118.55C117.843 43.4694 117.165 43.7504 116.665 44.2505C116.165 44.7506 115.884 45.4289 115.884 46.1361C115.884 46.8433 116.165 47.5216 116.665 48.0217C117.165 48.5218 117.843 48.8028 118.55 48.8028H137.449ZM117.485 46.1361C117.485 45.5484 117.964 45.0694 118.552 45.0694H137.45C138.037 45.0694 138.516 45.5484 138.516 46.1361C138.516 46.7238 138.037 47.2028 137.45 47.2028H118.552C117.963 47.2028 117.485 46.7238 117.485 46.1361V46.1361ZM137.449 58.6374C138.156 58.6374 138.834 58.3565 139.334 57.8564C139.834 57.3563 140.115 56.678 140.115 55.9708C140.115 55.2635 139.834 54.5852 139.334 54.0851C138.834 53.5851 138.156 53.3041 137.449 53.3041H118.55C117.843 53.3041 117.165 53.5851 116.665 54.0851C116.165 54.5852 115.884 55.2635 115.884 55.9708C115.884 56.678 116.165 57.3563 116.665 57.8564C117.165 58.3565 117.843 58.6374 118.55 58.6374H137.449ZM117.485 55.9708C117.485 55.383 117.964 54.9041 118.552 54.9041H137.45C138.037 54.9041 138.516 55.383 138.516 55.9708C138.516 56.5585 138.037 57.0374 137.45 57.0374H118.552C117.963 57.0374 117.485 56.5585 117.485 55.9708V55.9708ZM144.594 229.333C145.357 229.332 146.088 229.028 146.627 228.489C147.166 227.95 147.469 227.219 147.47 226.456V193.27C147.469 192.507 147.166 191.776 146.627 191.237C146.088 190.698 145.357 190.394 144.594 190.393H111.407C110.644 190.394 109.913 190.698 109.374 191.237C108.835 191.776 108.532 192.507 108.531 193.27V226.456C108.532 227.219 108.835 227.95 109.374 228.489C109.913 229.028 110.644 229.332 111.407 229.333H144.594ZM110.13 226.456V193.27C110.13 192.566 110.703 191.993 111.406 191.993H144.593C145.296 191.993 145.869 192.566 145.869 193.27V226.456C145.869 227.16 145.296 227.733 144.593 227.733H111.406C111.068 227.732 110.743 227.598 110.504 227.358C110.265 227.119 110.13 226.794 110.13 226.456V226.456Z" fill="#FF8639"/>
<path d="M144.594 233.067C146.347 233.065 148.027 232.367 149.266 231.128C150.505 229.889 151.201 228.209 151.203 226.456V193.27C151.201 191.518 150.505 189.838 149.266 188.598C148.027 187.359 146.347 186.662 144.594 186.66H111.407C109.655 186.662 107.974 187.359 106.735 188.598C105.496 189.838 104.8 191.518 104.798 193.27V226.456C104.8 228.209 105.496 229.889 106.735 231.128C107.974 232.367 109.655 233.065 111.407 233.067H144.594ZM106.397 226.456V193.27C106.398 191.942 106.926 190.669 107.865 189.73C108.804 188.79 110.078 188.262 111.406 188.26H144.593C145.921 188.262 147.195 188.79 148.134 189.729C149.073 190.669 149.601 191.942 149.602 193.27V226.456C149.601 227.785 149.073 229.058 148.133 229.997C147.194 230.936 145.921 231.465 144.593 231.467H111.406C110.078 231.465 108.804 230.936 107.865 229.997C106.926 229.058 106.398 227.785 106.397 226.456V226.456Z" fill="#FF8639"/>
<path d="M128 202.695C128.707 202.695 129.386 202.414 129.886 201.914C130.386 201.414 130.667 200.736 130.667 200.028C130.667 199.321 130.386 198.643 129.886 198.143C129.386 197.643 128.707 197.362 128 197.362H118.552C117.844 197.362 117.166 197.643 116.666 198.143C116.166 198.643 115.885 199.321 115.885 200.028C115.885 200.736 116.166 201.414 116.666 201.914C117.166 202.414 117.844 202.695 118.552 202.695H128ZM117.485 200.028C117.485 199.441 117.964 198.962 118.552 198.962H128C128.588 198.962 129.067 199.441 129.067 200.028C129.067 200.616 128.588 201.095 128 201.095H118.552C118.269 201.095 117.997 200.983 117.797 200.783C117.597 200.583 117.485 200.311 117.485 200.028ZM137.449 212.53C138.156 212.53 138.834 212.249 139.334 211.749C139.834 211.249 140.115 210.57 140.115 209.863C140.115 209.156 139.834 208.478 139.334 207.977C138.834 207.477 138.156 207.196 137.449 207.196H118.55C117.843 207.196 117.165 207.477 116.665 207.977C116.165 208.478 115.884 209.156 115.884 209.863C115.884 210.57 116.165 211.249 116.665 211.749C117.165 212.249 117.843 212.53 118.55 212.53H137.449ZM117.485 209.863C117.485 209.275 117.964 208.796 118.552 208.796H137.45C138.037 208.796 138.516 209.275 138.516 209.863C138.516 210.451 138.037 210.93 137.45 210.93H118.552C117.963 210.93 117.485 210.451 117.485 209.863V209.863ZM137.449 222.364C138.156 222.364 138.834 222.083 139.334 221.583C139.834 221.083 140.115 220.405 140.115 219.698C140.115 218.99 139.834 218.312 139.334 217.812C138.834 217.312 138.156 217.031 137.449 217.031H118.55C117.843 217.031 117.165 217.312 116.665 217.812C116.165 218.312 115.884 218.99 115.884 219.698C115.884 220.405 116.165 221.083 116.665 221.583C117.165 222.083 117.843 222.364 118.55 222.364H137.449ZM117.485 219.698C117.485 219.11 117.964 218.631 118.552 218.631H137.45C138.037 218.631 138.516 219.11 138.516 219.698C138.516 220.285 138.037 220.764 137.45 220.764H118.552C117.963 220.764 117.485 220.285 117.485 219.698V219.698ZM226.458 151.203C228.21 151.201 229.89 150.504 231.129 149.264C232.368 148.025 233.065 146.345 233.067 144.593V111.407C233.065 109.654 232.368 107.974 231.129 106.735C229.89 105.495 228.21 104.798 226.458 104.796H193.272C191.519 104.798 189.839 105.495 188.6 106.735C187.36 107.974 186.663 109.654 186.661 111.407V144.593C186.663 146.345 187.36 148.025 188.6 149.265C189.839 150.504 191.519 151.201 193.272 151.203H226.458ZM188.26 144.593V111.407C188.262 110.078 188.79 108.805 189.729 107.865C190.669 106.926 191.942 106.398 193.27 106.396H226.457C227.785 106.398 229.058 106.926 229.997 107.865C230.936 108.805 231.465 110.078 231.466 111.407V144.593C231.464 145.921 230.936 147.194 229.997 148.133C229.058 149.073 227.785 149.601 226.457 149.603H193.27C191.942 149.601 190.669 149.073 189.729 148.134C188.79 147.195 188.262 145.921 188.26 144.593V144.593Z" fill="#FF8639"/>
<path d="M226.457 147.47C227.22 147.468 227.951 147.165 228.49 146.626C229.029 146.086 229.332 145.355 229.333 144.593V111.407C229.332 110.644 229.029 109.913 228.49 109.374C227.951 108.834 227.22 108.531 226.457 108.53H193.271C192.509 108.531 191.777 108.834 191.238 109.373C190.699 109.913 190.395 110.644 190.395 111.407V144.593C190.395 145.355 190.699 146.087 191.238 146.626C191.777 147.165 192.509 147.469 193.271 147.47H226.457ZM191.993 144.593V111.407C191.993 110.703 192.566 110.13 193.27 110.13H226.456C227.159 110.13 227.732 110.703 227.732 111.407V144.593C227.732 145.297 227.159 145.87 226.456 145.87H193.27C192.566 145.87 191.993 145.297 191.993 144.593Z" fill="#FF8639"/>
<path d="M209.864 120.832C210.571 120.832 211.249 120.551 211.749 120.051C212.25 119.551 212.53 118.872 212.53 118.165C212.53 117.458 212.25 116.779 211.749 116.279C211.249 115.779 210.571 115.498 209.864 115.498H200.415C199.708 115.498 199.03 115.779 198.53 116.279C198.03 116.779 197.749 117.458 197.749 118.165C197.749 118.872 198.03 119.551 198.53 120.051C199.03 120.551 199.708 120.832 200.415 120.832H209.864ZM199.349 118.165C199.349 117.577 199.828 117.098 200.415 117.098H209.864C210.452 117.098 210.93 117.577 210.93 118.165C210.93 118.753 210.452 119.232 209.864 119.232H200.415C200.132 119.232 199.861 119.119 199.661 118.919C199.461 118.719 199.349 118.448 199.349 118.165ZM219.312 130.666C220.02 130.666 220.698 130.385 221.198 129.885C221.698 129.385 221.979 128.707 221.979 128C221.979 127.292 221.698 126.614 221.198 126.114C220.698 125.614 220.02 125.333 219.312 125.333H200.414C199.707 125.333 199.029 125.614 198.529 126.114C198.028 126.614 197.748 127.292 197.748 128C197.748 128.707 198.028 129.385 198.529 129.885C199.029 130.385 199.707 130.666 200.414 130.666H219.312V130.666ZM199.349 128C199.349 127.412 199.828 126.933 200.415 126.933H219.313C219.901 126.933 220.38 127.412 220.38 128C220.38 128.587 219.901 129.066 219.313 129.066H200.415C199.826 129.066 199.349 128.587 199.349 128V128ZM219.312 140.501C220.02 140.501 220.698 140.22 221.198 139.72C221.698 139.22 221.979 138.542 221.979 137.834C221.979 137.127 221.698 136.449 221.198 135.949C220.698 135.449 220.02 135.168 219.312 135.168H200.414C199.707 135.168 199.029 135.449 198.529 135.949C198.028 136.449 197.748 137.127 197.748 137.834C197.748 138.542 198.028 139.22 198.529 139.72C199.029 140.22 199.707 140.501 200.414 140.501H219.312V140.501ZM199.349 137.834C199.349 137.247 199.828 136.768 200.415 136.768H219.313C219.901 136.768 220.38 137.247 220.38 137.834C220.38 138.422 219.901 138.901 219.313 138.901H200.415C199.826 138.901 199.349 138.422 199.349 137.834V137.834ZM62.7299 147.47C63.4926 147.469 64.2239 147.165 64.7632 146.626C65.3025 146.087 65.6059 145.355 65.6067 144.593V111.407C65.6059 110.644 65.3025 109.913 64.7632 109.373C64.2239 108.834 63.4926 108.531 62.7299 108.53H29.5427C28.7802 108.531 28.0492 108.834 27.5101 109.374C26.9711 109.913 26.6678 110.644 26.667 111.407V144.593C26.6678 145.355 26.9711 146.086 27.5101 146.626C28.0492 147.165 28.7802 147.468 29.5427 147.47H62.7299V147.47ZM28.267 144.593V111.407C28.267 110.703 28.8398 110.13 29.5427 110.13H62.7289C63.4329 110.13 64.0057 110.703 64.0057 111.407V144.593C64.0057 145.297 63.4329 145.87 62.7289 145.87H29.5427C29.2044 145.869 28.88 145.734 28.6409 145.495C28.4017 145.256 28.2673 144.931 28.267 144.593V144.593Z" fill="#FF8639"/>
<path d="M62.7299 151.203C64.4824 151.201 66.1625 150.504 67.4017 149.265C68.641 148.025 69.338 146.345 69.34 144.593V111.407C69.338 109.654 68.641 107.974 67.4017 106.735C66.1625 105.495 64.4824 104.798 62.7299 104.796H29.5427C27.7902 104.798 26.1102 105.495 24.8712 106.735C23.6321 107.974 22.9353 109.654 22.9336 111.407V144.593C22.9353 146.345 23.6321 148.025 24.8712 149.264C26.1102 150.504 27.7902 151.201 29.5427 151.203H62.7299ZM24.5336 144.593V111.407C24.535 110.078 25.0632 108.805 26.0022 107.866C26.9413 106.927 28.2145 106.398 29.5427 106.396H62.7288C64.0571 106.398 65.3307 106.926 66.2699 107.865C67.2092 108.805 67.7375 110.078 67.7389 111.407V144.593C67.7375 145.921 67.2092 147.195 66.2699 148.134C65.3307 149.073 64.0571 149.601 62.7288 149.603H29.5427C28.2145 149.601 26.9413 149.073 26.0022 148.133C25.0632 147.194 24.535 145.921 24.5336 144.593Z" fill="#FF8639"/>
<path d="M46.1367 120.832C46.8439 120.832 47.5222 120.551 48.0223 120.051C48.5224 119.551 48.8033 118.872 48.8033 118.165C48.8033 117.458 48.5224 116.78 48.0223 116.28C47.5222 115.779 46.8439 115.499 46.1367 115.499H36.6882C35.9809 115.499 35.3026 115.779 34.8025 116.28C34.3024 116.78 34.0215 117.458 34.0215 118.165C34.0215 118.872 34.3024 119.551 34.8025 120.051C35.3026 120.551 35.9809 120.832 36.6882 120.832H46.1367ZM35.6215 118.165C35.6215 117.577 36.1004 117.099 36.6882 117.099H46.1367C46.7244 117.099 47.2033 117.577 47.2033 118.165C47.2033 118.753 46.7244 119.232 46.1367 119.232H36.6882C36.4053 119.232 36.1339 119.119 35.9339 118.919C35.7339 118.719 35.6215 118.448 35.6215 118.165Z" fill="#FF8639"/>
<path d="M55.5852 130.666C56.2925 130.666 56.9707 130.385 57.4708 129.885C57.9709 129.385 58.2519 128.707 58.2519 128C58.2519 127.292 57.9709 126.614 57.4708 126.114C56.9707 125.614 56.2925 125.333 55.5852 125.333H36.6882C35.9809 125.333 35.3026 125.614 34.8025 126.114C34.3024 126.614 34.0215 127.292 34.0215 128C34.0215 128.707 34.3024 129.385 34.8025 129.885C35.3026 130.385 35.9809 130.666 36.6882 130.666H55.5852V130.666ZM35.6215 128C35.6215 127.412 36.1004 126.933 36.6882 126.933H55.5863C56.174 126.933 56.653 127.412 56.653 128C56.653 128.587 56.174 129.066 55.5863 129.066H36.6882C36.0994 129.066 35.6215 128.587 35.6215 128Z" fill="#FF8639"/>
<path d="M55.5852 140.501C56.2925 140.501 56.9707 140.22 57.4708 139.72C57.9709 139.22 58.2519 138.542 58.2519 137.835C58.2519 137.127 57.9709 136.449 57.4708 135.949C56.9707 135.449 56.2925 135.168 55.5852 135.168H36.6882C35.9809 135.168 35.3026 135.449 34.8025 135.949C34.3024 136.449 34.0215 137.127 34.0215 137.835C34.0215 138.542 34.3024 139.22 34.8025 139.72C35.3026 140.22 35.9809 140.501 36.6882 140.501H55.5852V140.501ZM35.6215 137.835C35.6215 137.247 36.1004 136.768 36.6882 136.768H55.5863C56.174 136.768 56.653 137.247 56.653 137.835C56.653 138.422 56.174 138.901 55.5863 138.901H36.6882C36.0994 138.901 35.6215 138.422 35.6215 137.835V137.835Z" fill="#FF8639"/>
</svg>
