<svg width="256" height="256" viewBox="0 0 256 256" fill="none" xmlns="http://www.w3.org/2000/svg">
<path d="M127.999 255.361C198.338 255.361 255.359 198.34 255.359 128.001C255.359 57.6616 198.338 0.640625 127.999 0.640625C57.6597 0.640625 0.638672 57.6616 0.638672 128.001C0.638672 198.34 57.6597 255.361 127.999 255.361Z" fill="#382B73"/>
<path d="M63.5127 213.544H192.487C197.016 213.544 200.701 209.859 200.701 205.33V125.135H206.817C211.346 125.135 215.032 121.45 215.032 116.92V96.1888C215.03 94.8862 214.72 93.6026 214.126 92.4434C213.531 91.2843 212.671 90.2827 211.614 89.521L132.797 32.8373C131.4 31.8313 129.723 31.29 128.001 31.29C126.28 31.29 124.602 31.8313 123.206 32.8373L44.3863 89.521C43.33 90.2829 42.4694 91.2846 41.8753 92.4437C41.2812 93.6028 40.9705 94.8863 40.9688 96.1888V116.922C40.9688 121.451 44.6541 125.136 49.1832 125.136H55.2994V205.331C55.2994 209.86 58.9837 213.544 63.5127 213.544V213.544ZM49.1832 119.802C48.4193 119.801 47.687 119.497 47.1469 118.957C46.6067 118.417 46.3029 117.684 46.3021 116.92V96.1888C46.3021 95.264 46.7501 94.3893 47.501 93.8506L126.319 37.1669C126.809 36.8136 127.397 36.6235 128.001 36.6235C128.604 36.6235 129.193 36.8136 129.682 37.1669L208.499 93.8506C208.87 94.1177 209.172 94.4689 209.38 94.8753C209.589 95.2818 209.698 95.732 209.698 96.1888V116.922C209.698 117.685 209.394 118.418 208.854 118.958C208.313 119.498 207.581 119.802 206.817 119.803H198.034C197.327 119.803 196.649 120.084 196.149 120.584C195.649 121.084 195.368 121.762 195.368 122.469V205.331C195.367 206.095 195.063 206.827 194.523 207.367C193.983 207.908 193.25 208.211 192.487 208.212H63.5127C62.7489 208.211 62.0166 207.908 61.4765 207.367C60.9363 206.827 60.6325 206.095 60.6317 205.331V122.469C60.6317 121.762 60.3507 121.084 59.8506 120.584C59.3505 120.084 58.6723 119.803 57.965 119.803H49.1832V119.802Z" fill="#291B4A"/>
<path d="M78.5463 86.9922C76.6416 86.9942 74.8155 87.7517 73.4686 89.0985C72.1218 90.4454 71.3643 92.2715 71.3623 94.1762V132.2C71.3643 134.104 72.1218 135.931 73.4686 137.278C74.8154 138.625 76.6415 139.382 78.5463 139.385H116.571C118.476 139.383 120.302 138.625 121.649 137.278C122.996 135.931 123.753 134.105 123.755 132.2V94.1762C123.753 92.2715 122.995 90.4454 121.649 89.0985C120.302 87.7517 118.476 86.9942 116.571 86.9922H78.5463ZM118.421 94.1762V132.2C118.421 133.22 117.592 134.051 116.571 134.051H78.5463C78.0555 134.051 77.5849 133.856 77.2379 133.508C76.891 133.161 76.6959 132.69 76.6956 132.2V94.1762C76.6956 93.1554 77.5255 92.3255 78.5463 92.3255H116.571C117.592 92.3255 118.421 93.1554 118.421 94.1762V94.1762Z" fill="#291B4A"/>
<path d="M86.7331 99.2535C86.0258 99.2535 85.3476 99.5345 84.8475 100.035C84.3474 100.535 84.0664 101.213 84.0664 101.92C84.0664 102.627 84.3474 103.306 84.8475 103.806C85.3476 104.306 86.0258 104.587 86.7331 104.587H97.5587C98.2659 104.587 98.9442 104.306 99.4443 103.806C99.9444 103.306 100.225 102.627 100.225 101.92C100.225 101.213 99.9444 100.535 99.4443 100.035C98.9442 99.5345 98.2659 99.2535 97.5587 99.2535H86.7331ZM86.7331 110.522C86.0258 110.522 85.3476 110.803 84.8475 111.303C84.3474 111.803 84.0664 112.481 84.0664 113.188C84.0664 113.896 84.3474 114.574 84.8475 115.074C85.3476 115.574 86.0258 115.855 86.7331 115.855H108.385C109.093 115.855 109.771 115.574 110.271 115.074C110.771 114.574 111.052 113.896 111.052 113.188C111.052 112.481 110.771 111.803 110.271 111.303C109.771 110.803 109.093 110.522 108.385 110.522H86.7331ZM86.7331 121.789C86.0258 121.789 85.3476 122.07 84.8475 122.57C84.3474 123.07 84.0664 123.748 84.0664 124.456C84.0664 125.163 84.3474 125.841 84.8475 126.341C85.3476 126.841 86.0258 127.122 86.7331 127.122H108.385C109.093 127.122 109.771 126.841 110.271 126.341C110.771 125.841 111.052 125.163 111.052 124.456C111.052 123.748 110.771 123.07 110.271 122.57C109.771 122.07 109.093 121.789 108.385 121.789H86.7331ZM132.246 94.1762V132.2C132.248 134.104 133.005 135.931 134.352 137.278C135.699 138.625 137.525 139.382 139.43 139.385H177.454C179.359 139.383 181.185 138.625 182.532 137.278C183.879 135.931 184.636 134.105 184.638 132.2V94.1762C184.636 92.2715 183.879 90.4454 182.532 89.0985C181.185 87.7517 179.359 86.9942 177.454 86.9922H139.43C137.525 86.9942 135.699 87.7517 134.352 89.0985C133.005 90.4454 132.248 92.2715 132.246 94.1762ZM137.579 94.1762C137.579 93.1554 138.409 92.3255 139.43 92.3255H177.454C178.475 92.3255 179.305 93.1554 179.305 94.1762V132.2C179.305 133.22 178.475 134.051 177.454 134.051H139.43C138.939 134.051 138.468 133.856 138.121 133.508C137.774 133.161 137.579 132.69 137.579 132.2V94.1762Z" fill="#291B4A"/>
<path d="M144.95 101.92C144.95 102.627 145.23 103.306 145.731 103.806C146.231 104.306 146.909 104.587 147.616 104.587H158.442C159.149 104.587 159.827 104.306 160.327 103.806C160.827 103.306 161.108 102.627 161.108 101.92C161.108 101.213 160.827 100.535 160.327 100.034C159.827 99.5344 159.149 99.2534 158.442 99.2534H147.616C146.909 99.2534 146.231 99.5344 145.731 100.034C145.23 100.535 144.95 101.213 144.95 101.92ZM144.95 113.188C144.95 113.896 145.23 114.574 145.731 115.074C146.231 115.574 146.909 115.855 147.616 115.855H169.267C169.975 115.855 170.653 115.574 171.153 115.074C171.653 114.574 171.934 113.896 171.934 113.188C171.934 112.481 171.653 111.803 171.153 111.303C170.653 110.803 169.975 110.522 169.267 110.522H147.616C146.909 110.522 146.231 110.803 145.731 111.303C145.23 111.803 144.95 112.481 144.95 113.188V113.188ZM144.95 124.456C144.95 125.163 145.23 125.841 145.731 126.341C146.231 126.841 146.909 127.122 147.616 127.122H169.267C169.975 127.122 170.653 126.841 171.153 126.341C171.653 125.841 171.934 125.163 171.934 124.456C171.934 123.748 171.653 123.07 171.153 122.57C170.653 122.07 169.975 121.789 169.267 121.789H147.616C146.909 121.789 146.231 122.07 145.731 122.57C145.23 123.07 144.95 123.748 144.95 124.456V124.456ZM78.5463 146.628C76.6414 146.63 74.8151 147.388 73.4683 148.735C72.1214 150.082 71.364 151.909 71.3623 153.813V191.837C71.3643 193.742 72.1218 195.568 73.4686 196.915C74.8155 198.261 76.6416 199.019 78.5463 199.021H116.571C118.476 199.019 120.302 198.261 121.649 196.915C122.995 195.568 123.753 193.742 123.755 191.837V153.813C123.753 151.909 122.995 150.082 121.649 148.735C120.302 147.388 118.476 146.631 116.571 146.628H78.5463ZM118.422 153.813V191.837C118.422 192.858 117.592 193.688 116.571 193.688H78.5463C78.0557 193.687 77.5853 193.492 77.2383 193.145C76.8914 192.798 76.6962 192.328 76.6956 191.837V153.813C76.6956 152.793 77.5255 151.962 78.5463 151.962H116.571C117.592 151.962 118.422 152.793 118.422 153.813V153.813Z" fill="#291B4A"/>
<path d="M86.7331 158.891C86.0258 158.891 85.3476 159.172 84.8475 159.672C84.3474 160.172 84.0664 160.85 84.0664 161.557C84.0664 162.265 84.3474 162.943 84.8475 163.443C85.3476 163.943 86.0258 164.224 86.7331 164.224H97.5587C98.2659 164.224 98.9442 163.943 99.4443 163.443C99.9444 162.943 100.225 162.265 100.225 161.557C100.225 160.85 99.9444 160.172 99.4443 159.672C98.9442 159.172 98.2659 158.891 97.5587 158.891H86.7331ZM86.7331 170.158C86.0258 170.158 85.3476 170.439 84.8475 170.939C84.3474 171.439 84.0664 172.117 84.0664 172.825C84.0664 173.532 84.3474 174.21 84.8475 174.71C85.3476 175.21 86.0258 175.491 86.7331 175.491H108.385C109.093 175.491 109.771 175.21 110.271 174.71C110.771 174.21 111.052 173.532 111.052 172.825C111.052 172.117 110.771 171.439 110.271 170.939C109.771 170.439 109.093 170.158 108.385 170.158H86.7331ZM86.7331 181.426C86.0258 181.426 85.3476 181.707 84.8475 182.207C84.3474 182.707 84.0664 183.386 84.0664 184.093C84.0664 184.8 84.3474 185.478 84.8475 185.979C85.3476 186.479 86.0258 186.76 86.7331 186.76H108.385C109.093 186.76 109.771 186.479 110.271 185.979C110.771 185.478 111.052 184.8 111.052 184.093C111.052 183.386 110.771 182.707 110.271 182.207C109.771 181.707 109.093 181.426 108.385 181.426H86.7331ZM132.246 153.813V191.837C132.248 193.742 133.005 195.568 134.352 196.915C135.699 198.261 137.525 199.019 139.43 199.021H177.454C179.359 199.019 181.185 198.261 182.532 196.915C183.879 195.568 184.636 193.742 184.638 191.837V153.813C184.636 151.909 183.879 150.082 182.532 148.735C181.185 147.388 179.359 146.631 177.454 146.628H139.43C137.525 146.63 135.698 147.388 134.352 148.735C133.005 150.082 132.247 151.909 132.246 153.813ZM137.579 153.813C137.579 152.793 138.409 151.962 139.43 151.962H177.454C178.475 151.962 179.305 152.793 179.305 153.813V191.837C179.305 192.858 178.475 193.688 177.454 193.688H139.43C138.939 193.687 138.469 193.492 138.122 193.145C137.775 192.798 137.58 192.328 137.579 191.837V153.813Z" fill="#291B4A"/>
<path d="M144.949 161.557C144.949 162.265 145.23 162.943 145.73 163.443C146.23 163.943 146.909 164.224 147.616 164.224H158.441C159.149 164.224 159.827 163.943 160.327 163.443C160.827 162.943 161.108 162.265 161.108 161.557C161.108 160.85 160.827 160.172 160.327 159.672C159.827 159.172 159.149 158.891 158.441 158.891H147.616C146.909 158.891 146.23 159.172 145.73 159.672C145.23 160.172 144.949 160.85 144.949 161.557ZM144.949 172.824C144.949 173.532 145.23 174.21 145.73 174.71C146.23 175.21 146.909 175.491 147.616 175.491H169.267C169.974 175.491 170.653 175.21 171.153 174.71C171.653 174.21 171.934 173.532 171.934 172.824C171.934 172.117 171.653 171.439 171.153 170.939C170.653 170.439 169.974 170.158 169.267 170.158H147.616C146.909 170.158 146.23 170.439 145.73 170.939C145.23 171.439 144.949 172.117 144.949 172.824V172.824ZM144.949 184.093C144.949 184.8 145.23 185.478 145.73 185.978C146.23 186.478 146.909 186.759 147.616 186.759H169.267C169.974 186.759 170.653 186.478 171.153 185.978C171.653 185.478 171.934 184.8 171.934 184.093C171.934 183.386 171.653 182.707 171.153 182.207C170.653 181.707 169.974 181.426 169.267 181.426H147.616C146.909 181.426 146.23 181.707 145.73 182.207C145.23 182.707 144.949 183.386 144.949 184.093Z" fill="#291B4A"/>
<path d="M63.5127 209.278H192.487C197.016 209.278 200.701 205.593 200.701 201.063V120.868H206.817C211.346 120.868 215.032 117.183 215.032 112.654V91.9222C215.03 90.6196 214.72 89.336 214.126 88.1768C213.531 87.0177 212.671 86.0161 211.614 85.2544L132.797 28.5707C131.4 27.5647 129.723 27.0234 128.001 27.0234C126.28 27.0234 124.602 27.5647 123.206 28.5707L44.3863 85.2544C43.33 86.0163 42.4694 87.018 41.8753 88.1771C41.2812 89.3362 40.9705 90.6197 40.9688 91.9222V112.655C40.9688 117.184 44.6541 120.869 49.1832 120.869H55.2994V201.065C55.2994 205.594 58.9837 209.278 63.5127 209.278V209.278ZM49.1832 115.535C48.4193 115.534 47.687 115.23 47.1469 114.69C46.6067 114.15 46.3029 113.418 46.3021 112.654V91.9222C46.3021 90.9974 46.7501 90.1227 47.501 89.584L126.319 32.9003C126.809 32.547 127.397 32.3569 128.001 32.3569C128.604 32.3569 129.193 32.547 129.682 32.9003L208.499 89.584C208.87 89.8511 209.172 90.2023 209.38 90.6087C209.589 91.0152 209.698 91.4654 209.698 91.9222V112.655C209.698 113.419 209.394 114.151 208.854 114.691C208.313 115.231 207.581 115.535 206.817 115.536H198.034C197.327 115.536 196.649 115.817 196.149 116.317C195.649 116.817 195.368 117.495 195.368 118.203V201.065C195.367 201.828 195.063 202.561 194.523 203.101C193.983 203.641 193.25 203.945 192.487 203.946H63.5127C62.7489 203.945 62.0166 203.641 61.4765 203.101C60.9363 202.561 60.6325 201.828 60.6317 201.065V118.203C60.6317 117.495 60.3507 116.817 59.8506 116.317C59.3505 115.817 58.6723 115.536 57.965 115.536H49.1832V115.535Z" fill="#ED9ABC"/>
<path d="M63.5127 209.278H192.487C197.016 209.278 200.701 205.592 200.701 201.063V120.868H206.817C211.346 120.868 215.032 117.183 215.032 112.654V91.922C215.03 90.6195 214.72 89.3359 214.126 88.1767C213.531 87.0175 212.671 86.016 211.614 85.2543L132.797 28.5705C131.4 27.5647 129.723 27.0234 128.002 27.0234C126.281 27.0234 124.603 27.5647 123.207 28.5705L44.3863 85.2543C43.33 86.0162 42.4694 87.0178 41.8753 88.1769C41.2812 89.336 40.9705 90.6195 40.9688 91.922V112.655C40.9688 117.184 44.6541 120.869 49.1832 120.869H55.2994V201.064C55.2994 205.593 58.9837 209.278 63.5127 209.278V209.278ZM49.1832 119.268C47.4295 119.266 45.7483 118.569 44.5082 117.329C43.2682 116.089 42.5707 114.407 42.5688 112.654V91.922C42.5688 89.7994 43.597 87.7919 45.3207 86.5524L124.139 29.8676C125.262 29.0556 126.614 28.6196 128 28.6217C129.393 28.6217 130.729 29.0527 131.862 29.8676L210.68 86.5524C211.53 87.166 212.223 87.9726 212.702 88.906C213.18 89.8395 213.43 90.8731 213.432 91.922V112.655C213.43 114.408 212.732 116.09 211.492 117.33C210.252 118.57 208.571 119.267 206.817 119.269H200.701C200.277 119.269 199.87 119.438 199.57 119.738C199.27 120.038 199.101 120.445 199.101 120.869V201.064C199.099 202.818 198.402 204.499 197.162 205.739C195.922 206.979 194.24 207.677 192.487 207.679H63.5127C61.7591 207.677 60.0779 206.979 58.8378 205.739C57.5978 204.499 56.9003 202.818 56.8983 201.064V120.869C56.8983 120.445 56.7298 120.038 56.4297 119.738C56.1297 119.438 55.7227 119.269 55.2983 119.269H49.1832V119.268Z" fill="#E54890"/>
<path d="M59.0328 118.202V201.063C59.0342 202.251 59.5068 203.39 60.3468 204.23C61.1869 205.071 62.3259 205.543 63.5139 205.545H192.488C193.676 205.543 194.815 205.071 195.655 204.23C196.495 203.39 196.967 202.251 196.969 201.063V118.202C196.969 117.614 197.448 117.135 198.035 117.135H206.818C208.006 117.134 209.145 116.661 209.985 115.821C210.826 114.981 211.298 113.842 211.299 112.654V91.9221C211.299 91.2116 211.129 90.5113 210.805 89.879C210.481 89.2466 210.011 88.7003 209.435 88.2848L130.618 31.6011C129.857 31.0508 128.941 30.7554 128.001 30.7573C127.056 30.7573 126.152 31.0496 125.386 31.6011L46.5667 88.2848C45.9902 88.7003 45.5206 89.2466 45.1965 89.879C44.8723 90.5113 44.7029 91.2116 44.7021 91.9221V112.655C44.7036 113.843 45.1761 114.982 46.0162 115.822C46.8562 116.662 47.9952 117.135 49.1832 117.136H57.9661C58.2489 117.136 58.52 117.248 58.72 117.448C58.92 117.648 59.0325 117.919 59.0328 118.202V118.202ZM46.3021 112.655V91.9221C46.3021 90.9973 46.7501 90.1227 47.5011 89.584L126.319 32.9003C126.809 32.547 127.397 32.3569 128.001 32.3569C128.605 32.3569 129.193 32.547 129.682 32.9003L208.499 89.584C208.87 89.8511 209.172 90.2022 209.38 90.6087C209.589 91.0152 209.698 91.4653 209.698 91.9221V112.655C209.698 113.419 209.394 114.151 208.854 114.691C208.314 115.231 207.581 115.535 206.817 115.536H198.034C197.327 115.536 196.649 115.817 196.149 116.317C195.649 116.817 195.368 117.495 195.368 118.203V201.065C195.367 201.828 195.063 202.561 194.523 203.101C193.983 203.641 193.251 203.945 192.487 203.946H63.5128C62.749 203.945 62.0166 203.641 61.4765 203.101C60.9364 202.561 60.6326 201.828 60.6318 201.065V118.203C60.6318 117.495 60.3508 116.817 59.8507 116.317C59.3506 115.817 58.6723 115.536 57.9651 115.536H49.1821C48.4186 115.535 47.6867 115.231 47.1469 114.691C46.607 114.151 46.3033 113.419 46.3021 112.655V112.655Z" fill="#E54890"/>
<path d="M78.5463 82.7256C76.6416 82.7276 74.8155 83.4851 73.4686 84.8319C72.1218 86.1788 71.3643 88.0049 71.3623 89.9096V127.933C71.3643 129.838 72.1218 131.664 73.4686 133.011C74.8154 134.358 76.6415 135.116 78.5463 135.118H116.571C118.476 135.116 120.302 134.358 121.649 133.011C122.996 131.664 123.753 129.838 123.755 127.933V89.9096C123.753 88.0049 122.995 86.1788 121.649 84.8319C120.302 83.4851 118.476 82.7276 116.571 82.7256H78.5463ZM118.421 89.9096V127.933C118.421 128.954 117.592 129.785 116.571 129.785H78.5463C78.0555 129.784 77.5849 129.589 77.2379 129.242C76.891 128.895 76.6959 128.424 76.6956 127.933V89.9096C76.6956 88.8888 77.5255 88.0589 78.5463 88.0589H116.571C117.592 88.0589 118.421 88.8888 118.421 89.9096V89.9096Z" fill="#65C1D6"/>
<path d="M86.7331 94.9868C86.0258 94.9868 85.3476 95.2678 84.8475 95.7679C84.3474 96.268 84.0664 96.9462 84.0664 97.6535C84.0664 98.3607 84.3474 99.039 84.8475 99.5391C85.3476 100.039 86.0258 100.32 86.7331 100.32H97.5587C98.2659 100.32 98.9442 100.039 99.4443 99.5391C99.9444 99.039 100.225 98.3607 100.225 97.6535C100.225 96.9462 99.9444 96.268 99.4443 95.7679C98.9442 95.2678 98.2659 94.9868 97.5587 94.9868H86.7331ZM86.7331 106.255C86.0258 106.255 85.3476 106.536 84.8475 107.036C84.3474 107.536 84.0664 108.215 84.0664 108.922C84.0664 109.629 84.3474 110.307 84.8475 110.807C85.3476 111.307 86.0258 111.588 86.7331 111.588H108.385C109.093 111.588 109.771 111.307 110.271 110.807C110.771 110.307 111.052 109.629 111.052 108.922C111.052 108.215 110.771 107.536 110.271 107.036C109.771 106.536 109.093 106.255 108.385 106.255H86.7331ZM86.7331 117.522C86.0258 117.522 85.3476 117.803 84.8475 118.303C84.3474 118.803 84.0664 119.482 84.0664 120.189C84.0664 120.896 84.3474 121.574 84.8475 122.075C85.3476 122.575 86.0258 122.856 86.7331 122.856H108.385C109.093 122.856 109.771 122.575 110.271 122.075C110.771 121.574 111.052 120.896 111.052 120.189C111.052 119.482 110.771 118.803 110.271 118.303C109.771 117.803 109.093 117.522 108.385 117.522H86.7331Z" fill="#D3D3D3"/>
<path d="M132.245 89.9096V127.933C132.247 129.838 133.005 131.664 134.351 133.011C135.698 134.358 137.524 135.116 139.429 135.118H177.454C179.359 135.116 181.185 134.358 182.532 133.011C183.879 131.664 184.636 129.838 184.638 127.933V89.9096C184.636 88.0049 183.878 86.1788 182.531 84.8319C181.184 83.4851 179.358 82.7276 177.454 82.7256H139.429C137.524 82.7276 135.698 83.4851 134.351 84.8319C133.005 86.1788 132.247 88.0049 132.245 89.9096V89.9096ZM137.578 89.9096C137.578 88.8888 138.408 88.0589 139.429 88.0589H177.454C178.474 88.0589 179.304 88.8888 179.304 89.9096V127.933C179.304 128.954 178.474 129.785 177.454 129.785H139.429C138.938 129.784 138.468 129.589 138.121 129.242C137.774 128.895 137.579 128.424 137.578 127.933V89.9096Z" fill="#65C1D6"/>
<path d="M144.949 97.6535C144.949 98.3607 145.23 99.039 145.73 99.5391C146.23 100.039 146.909 100.32 147.616 100.32H158.441C159.149 100.32 159.827 100.039 160.327 99.5391C160.827 99.039 161.108 98.3607 161.108 97.6535C161.108 96.9462 160.827 96.268 160.327 95.7679C159.827 95.2678 159.149 94.9868 158.441 94.9868H147.616C146.909 94.9868 146.23 95.2678 145.73 95.7679C145.23 96.268 144.949 96.9462 144.949 97.6535V97.6535ZM144.949 108.922C144.949 109.629 145.23 110.307 145.73 110.807C146.23 111.307 146.909 111.588 147.616 111.588H169.267C169.974 111.588 170.653 111.307 171.153 110.807C171.653 110.307 171.934 109.629 171.934 108.922C171.934 108.215 171.653 107.536 171.153 107.036C170.653 106.536 169.974 106.255 169.267 106.255H147.616C146.909 106.255 146.23 106.536 145.73 107.036C145.23 107.536 144.949 108.215 144.949 108.922ZM144.949 120.189C144.949 120.896 145.23 121.574 145.73 122.075C146.23 122.575 146.909 122.856 147.616 122.856H169.267C169.974 122.856 170.653 122.575 171.153 122.075C171.653 121.574 171.934 120.896 171.934 120.189C171.934 119.482 171.653 118.803 171.153 118.303C170.653 117.803 169.974 117.522 169.267 117.522H147.616C146.909 117.522 146.23 117.803 145.73 118.303C145.23 118.803 144.949 119.482 144.949 120.189Z" fill="#D3D3D3"/>
<path d="M78.5463 142.362C76.6414 142.364 74.8151 143.121 73.4683 144.469C72.1214 145.816 71.364 147.642 71.3623 149.547V187.57C71.3643 189.475 72.1218 191.301 73.4686 192.648C74.8155 193.995 76.6416 194.752 78.5463 194.754H116.571C118.476 194.752 120.302 193.995 121.649 192.648C122.995 191.301 123.753 189.475 123.755 187.57V149.547C123.753 147.642 122.995 145.816 121.649 144.469C120.302 143.122 118.476 142.364 116.571 142.362H78.5463ZM118.421 149.547V187.57C118.421 188.591 117.592 189.421 116.571 189.421H78.5463C78.0557 189.42 77.5853 189.225 77.2383 188.878C76.8914 188.531 76.6962 188.061 76.6956 187.57V149.547C76.6956 148.526 77.5255 147.695 78.5463 147.695H116.571C117.592 147.695 118.421 148.526 118.421 149.547V149.547Z" fill="#65C1D6"/>
<path d="M86.7331 154.624C86.0258 154.624 85.3476 154.905 84.8475 155.405C84.3474 155.905 84.0664 156.583 84.0664 157.291C84.0664 157.998 84.3474 158.676 84.8475 159.176C85.3476 159.676 86.0258 159.957 86.7331 159.957H97.5587C98.2659 159.957 98.9442 159.676 99.4443 159.176C99.9444 158.676 100.225 157.998 100.225 157.291C100.225 156.583 99.9444 155.905 99.4443 155.405C98.9442 154.905 98.2659 154.624 97.5587 154.624H86.7331ZM86.7331 165.891C86.0258 165.891 85.3476 166.172 84.8475 166.672C84.3474 167.172 84.0664 167.851 84.0664 168.558C84.0664 169.265 84.3474 169.943 84.8475 170.444C85.3476 170.944 86.0258 171.225 86.7331 171.225H108.385C109.093 171.225 109.771 170.944 110.271 170.444C110.771 169.943 111.052 169.265 111.052 168.558C111.052 167.851 110.771 167.172 110.271 166.672C109.771 166.172 109.093 165.891 108.385 165.891H86.7331ZM86.7331 177.159C86.0258 177.159 85.3476 177.44 84.8475 177.941C84.3474 178.441 84.0664 179.119 84.0664 179.826C84.0664 180.533 84.3474 181.212 84.8475 181.712C85.3476 182.212 86.0258 182.493 86.7331 182.493H108.385C109.093 182.493 109.771 182.212 110.271 181.712C110.771 181.212 111.052 180.533 111.052 179.826C111.052 179.119 110.771 178.441 110.271 177.941C109.771 177.44 109.093 177.159 108.385 177.159H86.7331Z" fill="#D3D3D3"/>
<path d="M132.245 149.547V187.57C132.247 189.475 133.005 191.301 134.351 192.648C135.698 193.995 137.524 194.752 139.429 194.754H177.454C179.358 194.752 181.184 193.995 182.531 192.648C183.878 191.301 184.636 189.475 184.638 187.57V149.547C184.636 147.642 183.878 145.816 182.531 144.469C181.185 143.122 179.358 142.364 177.454 142.362H139.429C137.524 142.364 135.698 143.121 134.351 144.469C133.004 145.816 132.247 147.642 132.245 149.547V149.547ZM137.578 149.547C137.578 148.526 138.408 147.695 139.429 147.695H177.454C178.474 147.695 179.304 148.526 179.304 149.547V187.57C179.304 188.591 178.474 189.421 177.454 189.421H139.429C138.938 189.42 138.468 189.225 138.121 188.878C137.774 188.531 137.579 188.061 137.578 187.57V149.547Z" fill="#65C1D6"/>
<path d="M144.949 157.291C144.949 157.998 145.23 158.676 145.73 159.176C146.23 159.676 146.909 159.957 147.616 159.957H158.441C159.149 159.957 159.827 159.676 160.327 159.176C160.827 158.676 161.108 157.998 161.108 157.291C161.108 156.583 160.827 155.905 160.327 155.405C159.827 154.905 159.149 154.624 158.441 154.624H147.616C146.909 154.624 146.23 154.905 145.73 155.405C145.23 155.905 144.949 156.583 144.949 157.291ZM144.949 168.558C144.949 169.265 145.23 169.943 145.73 170.444C146.23 170.944 146.909 171.225 147.616 171.225H169.267C169.974 171.225 170.653 170.944 171.153 170.444C171.653 169.943 171.934 169.265 171.934 168.558C171.934 167.851 171.653 167.172 171.153 166.672C170.653 166.172 169.974 165.891 169.267 165.891H147.616C146.909 165.891 146.23 166.172 145.73 166.672C145.23 167.172 144.949 167.851 144.949 168.558ZM144.949 179.826C144.949 180.533 145.23 181.212 145.73 181.712C146.23 182.212 146.909 182.493 147.616 182.493H169.267C169.974 182.493 170.653 182.212 171.153 181.712C171.653 181.212 171.934 180.533 171.934 179.826C171.934 179.119 171.653 178.441 171.153 177.941C170.653 177.44 169.974 177.159 169.267 177.159H147.616C146.909 177.159 146.23 177.44 145.73 177.941C145.23 178.441 144.949 179.119 144.949 179.826Z" fill="#D3D3D3"/>
<path d="M78.5464 86.459C77.6315 86.4598 76.7543 86.8237 76.1073 87.4706C75.4604 88.1175 75.0966 88.9947 75.0957 89.9097V127.933C75.0968 128.848 75.4607 129.725 76.1076 130.372C76.7544 131.019 77.6314 131.383 78.5464 131.385H116.571C117.486 131.383 118.363 131.019 119.01 130.372C119.657 129.725 120.02 128.848 120.022 127.933V89.9097C120.021 88.9947 119.657 88.1175 119.01 87.4706C118.363 86.8237 117.486 86.4598 116.571 86.459H78.5464ZM118.422 89.9097V127.933C118.422 128.954 117.592 129.785 116.571 129.785H78.5464C78.0555 129.784 77.585 129.589 77.238 129.242C76.891 128.895 76.696 128.424 76.6957 127.933V89.9097C76.6957 88.8889 77.5256 88.059 78.5464 88.059H116.571C117.592 88.059 118.422 88.8889 118.422 89.9097V89.9097Z" fill="#149CB2"/>
<path d="M78.5463 82.7256C76.6416 82.7276 74.8155 83.4851 73.4686 84.8319C72.1218 86.1788 71.3643 88.0049 71.3623 89.9096V127.933C71.3643 129.838 72.1218 131.664 73.4686 133.011C74.8154 134.358 76.6415 135.116 78.5463 135.118H116.571C118.476 135.116 120.302 134.358 121.649 133.011C122.996 131.664 123.753 129.838 123.755 127.933V89.9096C123.753 88.0049 122.995 86.1788 121.649 84.8319C120.302 83.4851 118.476 82.7276 116.571 82.7256H78.5463ZM122.155 89.9096V127.933C122.153 129.414 121.564 130.833 120.518 131.88C119.471 132.927 118.051 133.516 116.571 133.518H78.5463C77.0657 133.516 75.6462 132.927 74.5993 131.88C73.5524 130.833 72.9637 129.414 72.9623 127.933V89.9096C72.964 88.4291 73.5529 87.0098 74.5997 85.963C75.6465 84.9161 77.0659 84.3273 78.5463 84.3256H116.571C118.051 84.3273 119.471 84.9161 120.517 85.963C121.564 87.0098 122.153 88.4291 122.155 89.9096V89.9096Z" fill="#149CB2"/>
<path d="M86.7331 94.9868C86.0258 94.9868 85.3476 95.2678 84.8475 95.7679C84.3474 96.268 84.0664 96.9462 84.0664 97.6535C84.0664 98.3607 84.3474 99.039 84.8475 99.5391C85.3476 100.039 86.0258 100.32 86.7331 100.32H97.5587C98.2659 100.32 98.9442 100.039 99.4443 99.5391C99.9444 99.039 100.225 98.3607 100.225 97.6535C100.225 96.9462 99.9444 96.268 99.4443 95.7679C98.9442 95.2678 98.2659 94.9868 97.5587 94.9868H86.7331ZM98.6253 97.6535C98.6253 98.2412 98.1464 98.7201 97.5587 98.7201H86.7331C86.1453 98.7201 85.6664 98.2412 85.6664 97.6535C85.6664 97.0657 86.1453 96.5868 86.7331 96.5868H97.5587C98.1464 96.5868 98.6253 97.0657 98.6253 97.6535ZM86.7331 106.255C86.0258 106.255 85.3476 106.536 84.8475 107.036C84.3474 107.536 84.0664 108.215 84.0664 108.922C84.0664 109.629 84.3474 110.307 84.8475 110.807C85.3476 111.307 86.0258 111.588 86.7331 111.588H108.385C109.093 111.588 109.771 111.307 110.271 110.807C110.771 110.307 111.052 109.629 111.052 108.922C111.052 108.215 110.771 107.536 110.271 107.036C109.771 106.536 109.093 106.255 108.385 106.255H86.7331ZM109.451 108.922C109.451 109.509 108.972 109.988 108.384 109.988H86.7331C86.1453 109.988 85.6664 109.509 85.6664 108.922C85.6664 108.334 86.1453 107.855 86.7331 107.855H108.385C108.668 107.855 108.939 107.968 109.139 108.168C109.339 108.368 109.451 108.639 109.451 108.922V108.922ZM86.7331 117.522C86.0258 117.522 85.3476 117.803 84.8475 118.303C84.3474 118.803 84.0664 119.482 84.0664 120.189C84.0664 120.896 84.3474 121.574 84.8475 122.075C85.3476 122.575 86.0258 122.856 86.7331 122.856H108.385C109.093 122.856 109.771 122.575 110.271 122.075C110.771 121.574 111.052 120.896 111.052 120.189C111.052 119.482 110.771 118.803 110.271 118.303C109.771 117.803 109.093 117.522 108.385 117.522H86.7331ZM109.451 120.189C109.451 120.777 108.972 121.256 108.384 121.256H86.7331C86.1453 121.256 85.6664 120.777 85.6664 120.189C85.6664 119.601 86.1453 119.122 86.7331 119.122H108.385C108.668 119.123 108.939 119.235 109.139 119.435C109.339 119.635 109.451 119.906 109.451 120.189V120.189Z" fill="#EBE7F2"/>
<path d="M139.429 131.385H177.454C178.369 131.383 179.246 131.019 179.893 130.372C180.539 129.725 180.903 128.848 180.904 127.933V89.9097C180.904 88.9947 180.54 88.1175 179.893 87.4706C179.246 86.8237 178.369 86.4598 177.454 86.459H139.429C138.514 86.4598 137.637 86.8237 136.99 87.4706C136.343 88.1175 135.979 88.9947 135.979 89.9097V127.933C135.979 128.848 136.343 129.725 136.99 130.373C137.637 131.02 138.514 131.384 139.429 131.385V131.385ZM137.579 89.9097C137.579 88.8889 138.408 88.059 139.429 88.059H177.454C178.475 88.059 179.304 88.8889 179.304 89.9097V127.933C179.304 128.954 178.475 129.785 177.454 129.785H139.429C138.938 129.784 138.468 129.589 138.121 129.242C137.774 128.895 137.579 128.424 137.579 127.933V89.9097Z" fill="#149CB2"/>
<path d="M132.245 89.9096V127.933C132.247 129.838 133.005 131.664 134.351 133.011C135.698 134.358 137.524 135.116 139.429 135.118H177.454C179.359 135.116 181.185 134.358 182.532 133.011C183.879 131.664 184.636 129.838 184.638 127.933V89.9096C184.636 88.0049 183.878 86.1788 182.531 84.8319C181.184 83.4851 179.358 82.7276 177.454 82.7256H139.429C137.524 82.7276 135.698 83.4851 134.351 84.8319C133.005 86.1788 132.247 88.0049 132.245 89.9096V89.9096ZM139.429 84.3256H177.454C178.934 84.3273 180.353 84.9161 181.4 85.963C182.447 87.0098 183.036 88.4291 183.038 89.9096V127.933C183.036 129.414 182.447 130.833 181.4 131.88C180.354 132.927 178.934 133.516 177.454 133.518H139.429C137.948 133.516 136.529 132.927 135.482 131.88C134.435 130.833 133.847 129.414 133.845 127.933V89.9096C133.847 88.4291 134.436 87.0098 135.483 85.963C136.529 84.9161 137.949 84.3273 139.429 84.3256Z" fill="#149CB2"/>
<path d="M144.949 97.6535C144.949 98.3607 145.23 99.039 145.73 99.5391C146.23 100.039 146.909 100.32 147.616 100.32H158.441C159.149 100.32 159.827 100.039 160.327 99.5391C160.827 99.039 161.108 98.3607 161.108 97.6535C161.108 96.9462 160.827 96.268 160.327 95.7679C159.827 95.2678 159.149 94.9868 158.441 94.9868H147.616C146.909 94.9868 146.23 95.2678 145.73 95.7679C145.23 96.268 144.949 96.9462 144.949 97.6535V97.6535ZM147.616 96.5868H158.441C159.029 96.5868 159.508 97.0657 159.508 97.6535C159.508 98.2412 159.029 98.7201 158.441 98.7201H147.616C147.028 98.7201 146.549 98.2412 146.549 97.6535C146.549 97.0657 147.028 96.5868 147.616 96.5868ZM144.949 108.922C144.949 109.629 145.23 110.307 145.73 110.807C146.23 111.307 146.909 111.588 147.616 111.588H169.267C169.974 111.588 170.653 111.307 171.153 110.807C171.653 110.307 171.934 109.629 171.934 108.922C171.934 108.215 171.653 107.536 171.153 107.036C170.653 106.536 169.974 106.255 169.267 106.255H147.616C146.909 106.255 146.23 106.536 145.73 107.036C145.23 107.536 144.949 108.215 144.949 108.922ZM147.616 107.855H169.267C169.855 107.855 170.334 108.334 170.334 108.922C170.334 109.509 169.855 109.988 169.267 109.988H147.616C147.028 109.988 146.549 109.509 146.549 108.922C146.549 108.334 147.028 107.855 147.616 107.855ZM144.949 120.189C144.949 120.896 145.23 121.574 145.73 122.075C146.23 122.575 146.909 122.856 147.616 122.856H169.267C169.974 122.856 170.653 122.575 171.153 122.075C171.653 121.574 171.934 120.896 171.934 120.189C171.934 119.482 171.653 118.803 171.153 118.303C170.653 117.803 169.974 117.522 169.267 117.522H147.616C146.909 117.522 146.23 117.803 145.73 118.303C145.23 118.803 144.949 119.482 144.949 120.189ZM147.616 119.122H169.267C169.855 119.122 170.334 119.601 170.334 120.189C170.334 120.777 169.855 121.256 169.267 121.256H147.616C147.028 121.256 146.549 120.777 146.549 120.189C146.549 119.601 147.028 119.122 147.616 119.122Z" fill="#EBE7F2"/>
<path d="M78.5464 146.095C77.6314 146.097 76.7544 146.461 76.1076 147.108C75.4607 147.755 75.0968 148.632 75.0957 149.547V187.57C75.0966 188.485 75.4604 189.363 76.1073 190.009C76.7543 190.656 77.6315 191.02 78.5464 191.021H116.571C117.486 191.02 118.363 190.656 119.01 190.009C119.657 189.363 120.021 188.485 120.022 187.57V149.547C120.02 148.632 119.657 147.755 119.01 147.108C118.363 146.461 117.486 146.097 116.571 146.095H78.5464ZM118.422 149.547V187.57C118.422 188.591 117.592 189.421 116.571 189.421H78.5464C78.0557 189.421 77.5853 189.225 77.2384 188.878C76.8914 188.531 76.6963 188.061 76.6957 187.57V149.547C76.6957 148.526 77.5256 147.695 78.5464 147.695H116.571C117.592 147.695 118.422 148.526 118.422 149.547V149.547Z" fill="#149CB2"/>
<path d="M78.5463 142.362C76.6414 142.364 74.8151 143.121 73.4683 144.469C72.1214 145.816 71.364 147.642 71.3623 149.547V187.57C71.3643 189.475 72.1218 191.301 73.4686 192.648C74.8155 193.995 76.6416 194.752 78.5463 194.754H116.571C118.476 194.752 120.302 193.995 121.649 192.648C122.995 191.301 123.753 189.475 123.755 187.57V149.547C123.753 147.642 122.995 145.816 121.649 144.469C120.302 143.122 118.476 142.364 116.571 142.362H78.5463ZM122.155 149.547V187.57C122.153 189.051 121.564 190.47 120.517 191.517C119.471 192.564 118.051 193.153 116.571 193.154H78.5463C77.0659 193.153 75.6465 192.564 74.5997 191.517C73.5529 190.47 72.964 189.051 72.9623 187.57V149.547C72.964 148.066 73.5528 146.647 74.5996 145.6C75.6464 144.553 77.0658 143.964 78.5463 143.962H116.571C118.051 143.964 119.471 144.553 120.518 145.6C121.564 146.647 122.153 148.066 122.155 149.547V149.547Z" fill="#149CB2"/>
<path d="M86.7331 154.624C86.0258 154.624 85.3476 154.905 84.8475 155.405C84.3474 155.905 84.0664 156.583 84.0664 157.291C84.0664 157.998 84.3474 158.676 84.8475 159.176C85.3476 159.676 86.0258 159.957 86.7331 159.957H97.5587C98.2659 159.957 98.9442 159.676 99.4443 159.176C99.9444 158.676 100.225 157.998 100.225 157.291C100.225 156.583 99.9444 155.905 99.4443 155.405C98.9442 154.905 98.2659 154.624 97.5587 154.624H86.7331ZM98.6253 157.291C98.6253 157.878 98.1464 158.357 97.5587 158.357H86.7331C86.1453 158.357 85.6664 157.878 85.6664 157.291C85.6664 156.703 86.1453 156.224 86.7331 156.224H97.5587C98.1464 156.224 98.6253 156.703 98.6253 157.291ZM86.7331 165.891C86.0258 165.891 85.3476 166.172 84.8475 166.672C84.3474 167.172 84.0664 167.851 84.0664 168.558C84.0664 169.265 84.3474 169.943 84.8475 170.444C85.3476 170.944 86.0258 171.225 86.7331 171.225H108.385C109.093 171.225 109.771 170.944 110.271 170.444C110.771 169.943 111.052 169.265 111.052 168.558C111.052 167.851 110.771 167.172 110.271 166.672C109.771 166.172 109.093 165.891 108.385 165.891H86.7331ZM109.451 168.558C109.451 169.146 108.972 169.625 108.384 169.625H86.7331C86.1453 169.625 85.6664 169.146 85.6664 168.558C85.6664 167.97 86.1453 167.491 86.7331 167.491H108.385C108.668 167.491 108.939 167.604 109.139 167.804C109.339 168.004 109.451 168.275 109.451 168.558V168.558ZM86.7331 177.159C86.0258 177.159 85.3476 177.44 84.8475 177.941C84.3474 178.441 84.0664 179.119 84.0664 179.826C84.0664 180.533 84.3474 181.212 84.8475 181.712C85.3476 182.212 86.0258 182.493 86.7331 182.493H108.385C109.093 182.493 109.771 182.212 110.271 181.712C110.771 181.212 111.052 180.533 111.052 179.826C111.052 179.119 110.771 178.441 110.271 177.941C109.771 177.44 109.093 177.159 108.385 177.159H86.7331ZM109.451 179.826C109.451 180.414 108.972 180.893 108.384 180.893H86.7331C86.1453 180.893 85.6664 180.414 85.6664 179.826C85.6664 179.238 86.1453 178.759 86.7331 178.759H108.385C108.668 178.76 108.939 178.872 109.139 179.072C109.339 179.272 109.451 179.543 109.451 179.826V179.826Z" fill="#EBE7F2"/>
<path d="M132.245 149.547V187.57C132.247 189.475 133.005 191.301 134.351 192.648C135.698 193.995 137.524 194.752 139.429 194.754H177.454C179.358 194.752 181.184 193.995 182.531 192.648C183.878 191.301 184.636 189.475 184.638 187.57V149.547C184.636 147.642 183.878 145.816 182.531 144.469C181.185 143.122 179.358 142.364 177.454 142.362H139.429C137.524 142.364 135.698 143.121 134.351 144.469C133.004 145.816 132.247 147.642 132.245 149.547V149.547ZM139.429 143.962H177.454C178.934 143.964 180.354 144.553 181.401 145.6C182.448 146.647 183.036 148.066 183.038 149.547V187.57C183.036 189.051 182.447 190.47 181.4 191.517C180.353 192.564 178.934 193.153 177.454 193.154H139.429C137.949 193.153 136.529 192.564 135.483 191.517C134.436 190.47 133.847 189.051 133.845 187.57V149.547C133.847 148.066 134.436 146.647 135.482 145.6C136.529 144.553 137.949 143.964 139.429 143.962V143.962Z" fill="#149CB2"/>
<path d="M139.429 191.022H177.454C178.369 191.021 179.246 190.657 179.893 190.011C180.54 189.364 180.904 188.486 180.904 187.571V149.547C180.903 148.632 180.539 147.755 179.893 147.108C179.246 146.461 178.369 146.097 177.454 146.095H139.429C138.514 146.097 137.637 146.461 136.99 147.108C136.344 147.755 135.98 148.632 135.979 149.547V187.57C135.98 188.485 136.344 189.362 136.99 190.01C137.637 190.657 138.514 191.021 139.429 191.022V191.022ZM137.579 149.547C137.579 148.526 138.408 147.695 139.429 147.695H177.454C178.475 147.695 179.304 148.526 179.304 149.547V187.57C179.304 188.591 178.475 189.421 177.454 189.421H139.429C138.939 189.421 138.468 189.225 138.121 188.878C137.774 188.531 137.579 188.061 137.579 187.57V149.547Z" fill="#149CB2"/>
<path d="M144.949 157.291C144.949 157.998 145.23 158.676 145.73 159.176C146.23 159.676 146.909 159.957 147.616 159.957H158.441C159.149 159.957 159.827 159.676 160.327 159.176C160.827 158.676 161.108 157.998 161.108 157.291C161.108 156.583 160.827 155.905 160.327 155.405C159.827 154.905 159.149 154.624 158.441 154.624H147.616C146.909 154.624 146.23 154.905 145.73 155.405C145.23 155.905 144.949 156.583 144.949 157.291ZM147.616 156.224H158.441C159.029 156.224 159.508 156.703 159.508 157.291C159.508 157.878 159.029 158.357 158.441 158.357H147.616C147.028 158.357 146.549 157.878 146.549 157.291C146.549 156.703 147.028 156.224 147.616 156.224Z" fill="#EBE7F2"/>
<path d="M144.949 168.558C144.949 169.266 145.23 169.944 145.73 170.444C146.23 170.944 146.909 171.225 147.616 171.225H169.267C169.974 171.225 170.653 170.944 171.153 170.444C171.653 169.944 171.934 169.266 171.934 168.558C171.934 167.851 171.653 167.173 171.153 166.673C170.653 166.173 169.974 165.892 169.267 165.892H147.616C146.909 165.892 146.23 166.173 145.73 166.673C145.23 167.173 144.949 167.851 144.949 168.558ZM147.616 167.492H169.267C169.855 167.492 170.334 167.971 170.334 168.558C170.334 169.146 169.855 169.625 169.267 169.625H147.616C147.028 169.625 146.549 169.146 146.549 168.558C146.549 167.971 147.028 167.492 147.616 167.492Z" fill="#EBE7F2"/>
<path d="M144.949 179.826C144.949 180.534 145.23 181.212 145.73 181.712C146.23 182.212 146.909 182.493 147.616 182.493H169.267C169.974 182.493 170.653 182.212 171.153 181.712C171.653 181.212 171.934 180.534 171.934 179.826C171.934 179.119 171.653 178.441 171.153 177.941C170.653 177.441 169.974 177.16 169.267 177.16H147.616C146.909 177.16 146.23 177.441 145.73 177.941C145.23 178.441 144.949 179.119 144.949 179.826ZM147.616 178.76H169.267C169.855 178.76 170.334 179.239 170.334 179.826C170.334 180.414 169.855 180.893 169.267 180.893H147.616C147.028 180.893 146.549 180.414 146.549 179.826C146.549 179.239 147.028 178.76 147.616 178.76Z" fill="#EBE7F2"/>
</svg>
