<svg width="256" height="256" viewBox="0 0 256 256" fill="none" xmlns="http://www.w3.org/2000/svg">
<path d="M127.999 255.361C198.338 255.361 255.359 198.34 255.359 128.001C255.359 57.6616 198.338 0.640625 127.999 0.640625C57.6597 0.640625 0.638672 57.6616 0.638672 128.001C0.638672 198.34 57.6597 255.361 127.999 255.361Z" fill="#382B73"/>
<path d="M52.4479 163.07C45.3813 163.07 39.6309 168.819 39.6309 175.887C39.6309 182.953 45.3813 188.703 52.4479 188.703C59.5146 188.703 65.2639 182.953 65.2639 175.887C65.2639 174.505 65.0378 173.179 64.6325 171.932L75.1391 165.865C85.8271 182.622 104.243 193.982 125.334 194.869V206.974C119.543 208.205 115.184 213.354 115.184 219.507C115.184 226.574 120.934 232.323 128.001 232.323C135.068 232.323 140.818 226.574 140.818 219.507C140.818 213.354 136.459 208.206 130.668 206.974V194.869C151.758 193.981 170.175 182.621 180.863 165.865L191.37 171.932C190.952 173.209 190.739 174.543 190.738 175.887C190.738 182.953 196.487 188.703 203.554 188.703C210.621 188.703 216.371 182.953 216.371 175.887C216.371 168.82 210.621 163.07 203.554 163.07C199.782 163.07 196.397 164.718 194.049 167.319L183.539 161.251C188.085 152.576 190.672 142.72 190.672 132.265C190.672 121.811 188.085 111.955 183.539 103.28L194.049 97.2116C196.397 99.8132 199.782 101.461 203.554 101.461C210.621 101.461 216.371 95.7118 216.371 88.6441C216.371 81.5774 210.621 75.8281 203.554 75.8281C196.487 75.8281 190.738 81.5774 190.738 88.6441C190.738 90.0254 190.964 91.3524 191.37 92.5993L180.863 98.6654C170.175 81.9092 151.759 70.5492 130.668 69.6617V57.5593C136.459 56.3284 140.818 51.1785 140.818 45.026C140.818 37.9593 135.068 32.21 128.001 32.21C120.934 32.21 115.184 37.9593 115.184 45.026C115.184 51.1785 119.543 56.3273 125.334 57.5593V69.6638C104.244 70.5524 85.8271 81.9124 75.1391 98.6676L64.6325 92.6014C65.0378 91.3545 65.2639 90.0265 65.2639 88.6462C65.2639 81.5796 59.5146 75.8302 52.4479 75.8302C45.3813 75.8302 39.6309 81.5796 39.6309 88.6462C39.6309 95.7129 45.3813 101.463 52.4479 101.463C56.2197 101.463 59.6053 99.8153 61.953 97.2137L72.4629 103.282C67.9167 111.957 65.3301 121.813 65.3301 132.268C65.3301 142.722 67.9167 152.578 72.4629 161.253L61.953 167.321C59.6053 164.718 56.2197 163.07 52.4479 163.07V163.07ZM52.4479 183.369C48.3221 183.369 44.9642 180.013 44.9642 175.887C44.9642 171.76 48.321 168.403 52.4479 168.403C56.5749 168.403 59.9306 171.76 59.9306 175.887C59.9283 177.871 59.1393 179.773 57.7365 181.175C56.3337 182.578 54.4318 183.367 52.4479 183.369V183.369ZM203.552 168.403C205.536 168.405 207.438 169.194 208.841 170.597C210.244 172 211.033 173.903 211.036 175.887C211.036 180.013 207.679 183.369 203.552 183.369C199.425 183.369 196.069 180.013 196.069 175.887C196.069 171.76 199.426 168.403 203.552 168.403ZM203.552 81.1636C207.678 81.1636 211.036 84.5204 211.036 88.6462C211.036 92.7732 207.679 96.13 203.552 96.13C199.425 96.13 196.069 92.7732 196.069 88.6462C196.072 86.6624 196.861 84.7605 198.263 83.3577C199.666 81.9549 201.568 81.1658 203.552 81.1636ZM52.4479 96.13C50.4638 96.1277 48.5616 95.3385 47.1586 93.9355C45.7556 92.5325 44.9665 90.6303 44.9642 88.6462C44.9642 84.5204 48.321 81.1636 52.4479 81.1636C56.5749 81.1636 59.9306 84.5204 59.9306 88.6462C59.9306 92.7732 56.5738 96.13 52.4479 96.13ZM85.1093 170.26C89.3077 167.933 94.1706 165.994 99.4901 164.483C102.47 174.081 106.764 181.96 111.939 187.298C101.442 184.229 92.1845 178.238 85.1093 170.26V170.26ZM104.783 163.156C111.217 161.744 118.172 160.918 125.361 160.755V189.326C116.847 187.574 109.323 177.47 104.783 163.156ZM135.484 219.507C135.484 223.633 132.127 226.99 128 226.99C123.873 226.99 120.516 223.633 120.516 219.507C120.516 215.381 123.873 212.024 128 212.024C132.127 212.024 135.484 215.38 135.484 219.507ZM130.693 189.317V160.757C137.868 160.922 144.802 161.746 151.217 163.154C146.688 177.439 139.186 187.534 130.693 189.317V189.317ZM144.06 187.298C149.236 181.96 153.53 174.079 156.51 164.48C161.829 165.992 166.692 167.929 170.892 170.258C163.818 178.237 154.559 184.228 144.06 187.298ZM174.279 166.061C169.539 163.333 164.013 161.074 157.939 159.349C159.77 151.94 160.86 143.695 161.044 134.933H185.269C184.735 146.537 180.732 157.248 174.279 166.061V166.061ZM174.278 98.4702C180.732 107.283 184.735 117.994 185.269 129.6H161.044C160.86 120.836 159.77 112.59 157.938 105.18C164.013 103.455 169.54 101.197 174.278 98.4702ZM170.89 94.2718C166.691 96.5993 161.829 98.5374 156.509 100.05C153.528 90.4532 149.235 82.5726 144.06 77.235C154.558 80.3038 163.815 86.2953 170.89 94.2718ZM130.693 75.2158C139.185 76.9982 146.686 87.0932 151.217 101.377C144.799 102.786 137.863 103.612 130.693 103.777V75.2158V75.2158ZM152.669 106.508C154.625 114.304 155.745 123.071 155.745 132.266C155.745 141.462 154.626 150.227 152.67 158.023C144.991 156.31 136.636 155.388 128.032 155.385H128.001C119.393 155.385 111.025 156.309 103.332 158.025C101.376 150.229 100.257 141.462 100.257 132.266C100.257 123.071 101.376 114.306 103.332 106.51C111.021 108.225 119.388 109.148 128.002 109.148H128.033C136.628 109.145 144.986 108.222 152.669 106.508V106.508ZM120.516 45.026C120.516 40.9001 123.873 37.5433 128 37.5433C132.127 37.5433 135.484 40.9001 135.484 45.026C135.484 49.1518 132.127 52.5086 128 52.5086C123.873 52.5086 120.516 49.1529 120.516 45.026V45.026ZM125.36 75.2073V103.777C118.166 103.615 111.213 102.79 104.782 101.379C109.322 87.0644 116.846 76.9588 125.36 75.2073V75.2073ZM111.94 77.235C106.764 82.5726 102.47 90.4542 99.4901 100.053C94.1706 98.5406 89.3077 96.6036 85.1082 94.275C92.1823 86.2964 101.441 80.3049 111.94 77.235ZM81.7205 98.4724C86.4597 101.2 91.9861 103.459 98.0607 105.184C96.2303 112.593 95.1413 120.838 94.9557 129.6H70.7306C71.265 117.994 75.2682 107.285 81.7205 98.4724V98.4724ZM70.7306 134.933H94.9557C95.1402 143.697 96.2303 151.943 98.0618 159.353C91.9861 161.078 86.4586 163.335 81.7215 166.062C75.2682 157.249 71.265 146.538 70.7306 134.933Z" fill="#291B4A"/>
<path d="M140.74 150.701C142.249 150.699 143.697 150.098 144.764 149.031C145.831 147.964 146.432 146.516 146.434 145.007V119.526C146.432 118.017 145.831 116.57 144.764 115.502C143.697 114.435 142.249 113.834 140.74 113.833H115.258C113.749 113.834 112.302 114.435 111.234 115.502C110.167 116.57 109.566 118.017 109.564 119.526V145.007C109.566 146.516 110.167 147.964 111.234 149.031C112.302 150.098 113.749 150.699 115.258 150.701H140.74ZM114.899 145.007V119.526C114.899 119.327 115.06 119.166 115.259 119.166H140.741C140.94 119.166 141.102 119.328 141.102 119.526V145.007C141.102 145.103 141.064 145.194 140.996 145.262C140.928 145.329 140.837 145.367 140.741 145.367H115.259C115.164 145.367 115.072 145.329 115.004 145.262C114.937 145.194 114.899 145.103 114.899 145.007V145.007Z" fill="#291B4A"/>
<path d="M128 129.6C128.707 129.6 129.386 129.319 129.886 128.819C130.386 128.319 130.667 127.641 130.667 126.933C130.667 126.226 130.386 125.548 129.886 125.048C129.386 124.548 128.707 124.267 128 124.267H120.746C120.039 124.267 119.36 124.548 118.86 125.048C118.36 125.548 118.079 126.226 118.079 126.933C118.079 127.641 118.36 128.319 118.86 128.819C119.36 129.319 120.039 129.6 120.746 129.6H128ZM135.255 139.946C135.962 139.946 136.64 139.665 137.14 139.164C137.64 138.664 137.921 137.986 137.921 137.279C137.921 136.572 137.64 135.893 137.14 135.393C136.64 134.893 135.962 134.612 135.255 134.612H120.746C120.039 134.612 119.36 134.893 118.86 135.393C118.36 135.893 118.079 136.572 118.079 137.279C118.079 137.986 118.36 138.664 118.86 139.164C119.36 139.665 120.039 139.946 120.746 139.946H135.255Z" fill="#291B4A"/>
<path d="M130.666 67.9968V50.9098C130.666 50.2026 130.385 49.5243 129.885 49.0242C129.385 48.5241 128.707 48.2432 128 48.2432C127.292 48.2432 126.614 48.5241 126.114 49.0242C125.614 49.5243 125.333 50.2026 125.333 50.9098V67.9968C125.333 68.704 125.614 69.3823 126.114 69.8824C126.614 70.3825 127.292 70.6634 128 70.6634C128.707 70.6634 129.385 70.3825 129.885 69.8824C130.385 69.3823 130.666 68.704 130.666 67.9968V67.9968ZM130.666 205.09V188.003C130.666 187.296 130.385 186.618 129.885 186.118C129.385 185.617 128.707 185.337 128 185.337C127.292 185.337 126.614 185.617 126.114 186.118C125.614 186.618 125.333 187.296 125.333 188.003V205.09C125.333 205.797 125.614 206.476 126.114 206.976C126.614 207.476 127.292 207.757 128 207.757C128.707 207.757 129.385 207.476 129.885 206.976C130.385 206.476 130.666 205.797 130.666 205.09Z" fill="#65C1D6"/>
<path d="M140.817 40.7594C140.817 33.6927 135.066 27.9434 128 27.9434C120.933 27.9434 115.182 33.6927 115.182 40.7594C115.182 47.826 120.933 53.5764 128 53.5764C135.066 53.5764 140.817 47.826 140.817 40.7594ZM120.516 40.7594C120.516 36.6335 123.873 33.2767 128 33.2767C132.126 33.2767 135.483 36.6335 135.483 40.7594C135.483 44.8852 132.126 48.242 128 48.242C123.873 48.242 120.516 44.8863 120.516 40.7594V40.7594ZM140.817 215.24C140.817 208.174 135.066 202.424 128 202.424C120.933 202.424 115.182 208.174 115.182 215.24C115.182 222.307 120.933 228.056 128 228.056C135.066 228.056 140.817 222.307 140.817 215.24ZM120.516 215.24C120.516 211.115 123.873 207.758 128 207.758C132.126 207.758 135.483 211.115 135.483 215.24C135.483 219.366 132.126 222.723 128 222.723C123.873 222.723 120.516 219.366 120.516 215.24V215.24ZM61.239 169.213C61.7064 169.213 62.1656 169.09 62.5702 168.855L77.3681 160.311C77.9755 159.955 78.4175 159.373 78.5975 158.692C78.7775 158.012 78.6809 157.287 78.3288 156.678C77.9767 156.068 77.3977 155.622 76.7181 155.437C76.0385 155.253 75.3135 155.345 74.7014 155.693L59.9035 164.237C59.395 164.53 58.9977 164.984 58.7731 165.526C58.5485 166.069 58.5093 166.67 58.6615 167.237C58.8137 167.804 59.1488 168.305 59.6148 168.663C60.0809 169.02 60.6518 169.213 61.239 169.213V169.213ZM179.966 100.665C180.434 100.666 180.893 100.542 181.298 100.308L196.096 91.7642C196.703 91.408 197.145 90.8261 197.325 90.1453C197.505 89.4645 197.408 88.7401 197.056 88.1303C196.704 87.5205 196.125 87.0747 195.446 86.8902C194.766 86.7057 194.041 86.7974 193.429 87.1455L178.631 95.6895C178.122 95.9831 177.725 96.4364 177.501 96.9789C177.276 97.5214 177.237 98.1229 177.389 98.6901C177.541 99.2572 177.876 99.7582 178.342 100.115C178.808 100.473 179.379 100.666 179.966 100.665V100.665Z" fill="#65C1D6"/>
<path d="M65.2639 171.62C65.2639 164.553 59.5146 158.803 52.4479 158.803C45.3813 158.803 39.6309 164.552 39.6309 171.62C39.6309 178.687 45.3813 184.436 52.4479 184.436C59.5146 184.436 65.2639 178.687 65.2639 171.62ZM44.9642 171.62C44.9642 167.493 48.321 164.136 52.4479 164.136C56.5749 164.136 59.9306 167.493 59.9306 171.62C59.9306 175.746 56.5749 179.103 52.4479 179.103C48.321 179.103 44.9642 175.746 44.9642 171.62ZM216.369 84.3795C216.369 77.3128 210.619 71.5635 203.552 71.5635C196.485 71.5635 190.736 77.3128 190.736 84.3795C190.736 91.4461 196.485 97.1965 203.552 97.1965C210.619 97.1965 216.369 91.4461 216.369 84.3795V84.3795ZM196.069 84.3795C196.069 80.2536 199.425 76.8968 203.552 76.8968C207.679 76.8968 211.036 80.2536 211.036 84.3795C211.036 88.5064 207.679 91.8632 203.552 91.8632C199.425 91.8632 196.069 88.5064 196.069 84.3795ZM74.7018 100.308C75.0052 100.486 75.3408 100.602 75.6892 100.65C76.0376 100.697 76.392 100.675 76.732 100.586C77.072 100.496 77.3909 100.339 77.6703 100.126C77.9496 99.9122 78.184 99.6454 78.3598 99.3409C78.5357 99.0363 78.6495 98.7 78.6949 98.3512C78.7402 98.0025 78.7161 97.6482 78.6239 97.3088C78.5318 96.9694 78.3734 96.6516 78.158 96.3737C77.9425 96.0957 77.6742 95.8632 77.3685 95.6893L62.5706 87.1453C62.2672 86.9675 61.9316 86.8514 61.5832 86.8037C61.2348 86.7561 60.8803 86.7779 60.5403 86.8677C60.2003 86.9576 59.8815 87.1139 59.6021 87.3275C59.3228 87.5411 59.0884 87.8079 58.9126 88.1125C58.7367 88.417 58.6228 88.7534 58.5775 89.1021C58.5322 89.4509 58.5563 89.8051 58.6484 90.1445C58.7406 90.4839 58.8989 90.8017 59.1144 91.0797C59.3299 91.3576 59.5982 91.5902 59.9039 91.764L74.7018 100.308ZM193.429 168.854C193.733 169.032 194.068 169.148 194.417 169.196C194.765 169.243 195.119 169.222 195.459 169.132C195.799 169.042 196.118 168.886 196.398 168.672C196.677 168.458 196.911 168.192 197.087 167.887C197.263 167.582 197.377 167.246 197.422 166.897C197.468 166.549 197.444 166.194 197.351 165.855C197.259 165.516 197.101 165.198 196.885 164.92C196.67 164.642 196.402 164.409 196.096 164.235L181.298 155.691C180.995 155.514 180.659 155.398 180.311 155.35C179.962 155.302 179.608 155.324 179.268 155.414C178.928 155.504 178.609 155.66 178.33 155.874C178.05 156.087 177.816 156.354 177.64 156.659C177.464 156.963 177.35 157.3 177.305 157.648C177.26 157.997 177.284 158.351 177.376 158.691C177.468 159.03 177.626 159.348 177.842 159.626C178.057 159.904 178.326 160.136 178.631 160.31L193.429 168.854Z" fill="#65C1D6"/>
<path d="M216.369 171.62C216.369 164.553 210.619 158.803 203.552 158.803C196.485 158.803 190.736 164.552 190.736 171.62C190.736 178.687 196.485 184.436 203.552 184.436C210.619 184.436 216.369 178.687 216.369 171.62V171.62ZM196.069 171.62C196.069 167.493 199.425 164.136 203.552 164.136C207.679 164.136 211.036 167.493 211.036 171.62C211.036 175.746 207.679 179.103 203.552 179.103C199.425 179.103 196.069 175.746 196.069 171.62ZM65.2639 84.3795C65.2639 77.3128 59.5146 71.5635 52.4479 71.5635C45.3813 71.5635 39.6309 77.3128 39.6309 84.3795C39.6309 91.4461 45.3813 97.1965 52.4479 97.1965C59.5146 97.1965 65.2639 91.4461 65.2639 84.3795ZM44.9642 84.3795C44.9642 80.2536 48.321 76.8968 52.4479 76.8968C56.5749 76.8968 59.9306 80.2536 59.9306 84.3795C59.9306 88.5064 56.5749 91.8632 52.4479 91.8632C48.321 91.8632 44.9642 88.5064 44.9642 84.3795Z" fill="#65C1D6"/>
<path d="M137.083 40.7594C137.083 35.7514 133.009 31.6768 128 31.6768C122.991 31.6768 118.916 35.7514 118.916 40.7594C118.916 45.7674 122.991 49.8421 128 49.8421C133.009 49.8421 137.083 45.7685 137.083 40.7594ZM120.516 40.7594C120.516 36.6336 123.873 33.2768 128 33.2768C132.127 33.2768 135.483 36.6336 135.483 40.7594C135.483 44.8853 132.127 48.2421 128 48.2421C123.873 48.2421 120.516 44.8864 120.516 40.7594V40.7594Z" fill="#149CB2"/>
<path d="M128 70.6634C128.707 70.6634 129.385 70.3824 129.885 69.8823C130.385 69.3822 130.666 68.7039 130.666 67.9967V53.2927C136.457 52.0618 140.817 46.9119 140.817 40.7594C140.817 33.6927 135.066 27.9434 128 27.9434C120.933 27.9434 115.183 33.6927 115.183 40.7594C115.183 46.9119 119.542 52.0607 125.333 53.2927V67.9967C125.333 68.7039 125.614 69.3822 126.114 69.8823C126.614 70.3824 127.292 70.6634 128 70.6634ZM116.783 40.7594C116.783 34.5748 121.814 29.5434 128 29.5434C134.185 29.5434 139.217 34.5748 139.217 40.7594C139.217 46.0202 135.481 50.6324 130.334 51.7268C129.975 51.8031 129.654 52.0001 129.423 52.2849C129.192 52.5697 129.066 52.9251 129.066 53.2916V67.9956C129.066 68.5834 128.587 69.0623 128 69.0623C127.412 69.0623 126.933 68.5834 126.933 67.9956V53.2927C126.933 52.9262 126.807 52.5708 126.576 52.286C126.346 52.0011 126.024 51.8041 125.666 51.7279C120.519 50.6335 116.783 46.0212 116.783 40.7594ZM118.916 215.24C118.916 220.248 122.991 224.323 128 224.323C133.009 224.323 137.083 220.248 137.083 215.24C137.083 210.232 133.009 206.158 128 206.158C122.991 206.158 118.916 210.231 118.916 215.24V215.24ZM135.483 215.24C135.483 219.366 132.127 222.723 128 222.723C123.873 222.723 120.516 219.366 120.516 215.24C120.516 211.115 123.873 207.758 128 207.758C132.127 207.758 135.483 211.113 135.483 215.24Z" fill="#149CB2"/>
<path d="M128 185.337C127.293 185.337 126.614 185.618 126.114 186.118C125.614 186.618 125.333 187.296 125.333 188.003V202.707C119.542 203.938 115.183 209.088 115.183 215.241C115.183 222.307 120.933 228.057 128 228.057C135.067 228.057 140.817 222.307 140.817 215.241C140.817 209.088 136.458 203.939 130.667 202.707V188.003C130.667 187.296 130.386 186.618 129.886 186.118C129.386 185.618 128.707 185.337 128 185.337V185.337ZM139.217 215.241C139.217 221.425 134.186 226.457 128 226.457C121.814 226.457 116.783 221.425 116.783 215.241C116.783 209.98 120.518 205.368 125.666 204.273C126.025 204.197 126.346 204 126.577 203.715C126.807 203.43 126.933 203.075 126.933 202.708V188.004C126.933 187.417 127.412 186.938 128 186.938C128.588 186.938 129.067 187.417 129.067 188.004V202.708C129.067 203.075 129.193 203.43 129.423 203.715C129.654 204 129.975 204.197 130.334 204.273C135.481 205.366 139.217 209.979 139.217 215.241V215.241ZM52.448 162.537C47.4389 162.537 43.3643 166.611 43.3643 171.62C43.3643 176.628 47.4389 180.703 52.448 180.703C57.456 180.703 61.5307 176.628 61.5307 171.62C61.5307 166.611 57.456 162.537 52.448 162.537V162.537ZM52.448 179.103C48.3221 179.103 44.9643 175.746 44.9643 171.62C44.9643 167.493 48.3211 164.137 52.448 164.137C56.5749 164.137 59.9307 167.493 59.9307 171.62C59.9284 173.604 59.1393 175.506 57.7365 176.909C56.3338 178.312 54.4318 179.101 52.448 179.103V179.103Z" fill="#149CB2"/>
<path d="M78.3445 156.668C77.9909 156.055 77.4085 155.608 76.7254 155.425C76.0422 155.242 75.3144 155.338 74.7019 155.692L61.952 163.053C59.6043 160.451 56.2187 158.803 52.4469 158.803C45.3803 158.803 39.6299 164.553 39.6299 171.62C39.6299 178.687 45.3803 184.436 52.4469 184.436C59.5136 184.436 65.2629 178.687 65.2629 171.62C65.2629 170.239 65.0368 168.912 64.6315 167.665L77.3685 160.311C77.672 160.136 77.9379 159.903 78.1511 159.625C78.3644 159.347 78.5208 159.03 78.6115 158.692C78.7021 158.353 78.7252 158.001 78.6794 157.653C78.6336 157.306 78.5198 156.971 78.3445 156.668V156.668ZM76.5685 158.925L63.8315 166.278C63.5137 166.462 63.2687 166.748 63.1374 167.091C63.0061 167.433 62.9966 167.81 63.1104 168.159C63.4755 169.276 63.662 170.444 63.6629 171.619C63.6629 177.804 58.6315 182.835 52.4469 182.835C46.2624 182.835 41.2299 177.804 41.2299 171.619C41.2299 165.435 46.2613 160.402 52.4469 160.402C54.0163 160.407 55.5672 160.741 56.9997 161.382C58.4321 162.023 59.7144 162.957 60.7638 164.124C61.0092 164.395 61.3403 164.575 61.7019 164.632C62.0635 164.689 62.4338 164.62 62.751 164.437L75.5019 157.075C75.6623 156.981 75.845 156.932 76.031 156.932C76.2668 156.93 76.4966 157.007 76.6844 157.15C76.8722 157.292 77.0073 157.493 77.0688 157.721C77.1302 157.949 77.1144 158.19 77.0239 158.408C76.9334 158.626 76.7733 158.808 76.5685 158.925V158.925Z" fill="#149CB2"/>
<path d="M177.656 99.332C178.009 99.9445 178.592 100.391 179.275 100.574C179.958 100.757 180.686 100.662 181.298 100.308L194.048 92.9469C196.396 95.5485 199.781 97.1965 203.553 97.1965C210.62 97.1965 216.37 91.4472 216.37 84.3795C216.37 77.3128 210.62 71.5635 203.553 71.5635C196.486 71.5635 190.737 77.3128 190.737 84.3795C190.737 85.7608 190.963 87.0877 191.369 88.3347L178.632 95.6883C178.328 95.8634 178.062 96.0965 177.849 96.3744C177.636 96.6524 177.479 96.9696 177.389 97.3079C177.298 97.6463 177.275 97.9992 177.321 98.3465C177.367 98.6938 177.48 99.0287 177.656 99.332V99.332ZM179.432 97.0749L192.169 89.7213C192.486 89.5382 192.731 89.2514 192.863 88.909C192.994 88.5666 193.004 88.1894 192.89 87.8408C192.524 86.7237 192.337 85.5559 192.336 84.3805C192.336 78.196 197.368 73.1645 203.552 73.1645C209.737 73.1645 214.769 78.196 214.769 84.3805C214.769 90.5651 209.738 95.5976 203.552 95.5976C201.983 95.5927 200.432 95.259 198.999 94.618C197.567 93.977 196.285 93.0429 195.235 91.876C194.99 91.6044 194.659 91.4252 194.297 91.3681C193.936 91.3111 193.565 91.3796 193.248 91.5624L180.498 98.9235C180.337 99.0175 180.154 99.0669 179.968 99.0664C179.733 99.0675 179.504 98.9907 179.316 98.848C179.129 98.7052 178.994 98.5046 178.933 98.2772C178.872 98.0499 178.888 97.8087 178.978 97.5913C179.068 97.3738 179.227 97.1923 179.432 97.0749V97.0749Z" fill="#149CB2"/>
<path d="M203.552 93.4633C208.561 93.4633 212.636 89.3886 212.636 84.3795C212.636 79.3715 208.561 75.2969 203.552 75.2969C198.544 75.2969 194.47 79.3715 194.47 84.3795C194.47 89.3886 198.544 93.4633 203.552 93.4633V93.4633ZM203.552 76.8969C207.678 76.8969 211.036 80.2537 211.036 84.3795C211.036 88.5065 207.679 91.8633 203.552 91.8633C199.425 91.8633 196.07 88.5065 196.07 84.3795C196.072 82.3957 196.861 80.4938 198.264 79.091C199.667 77.6882 201.569 76.8991 203.552 76.8969Z" fill="#149CB2"/>
<path d="M52.4479 71.5635C45.3813 71.5635 39.6309 77.3128 39.6309 84.3795C39.6309 91.4461 45.3813 97.1965 52.4479 97.1965C56.2197 97.1965 59.6053 95.5485 61.953 92.9469L74.7029 100.308C75.0062 100.486 75.3418 100.602 75.6903 100.65C76.0387 100.697 76.3931 100.675 76.7331 100.586C77.0731 100.496 77.392 100.339 77.6713 100.126C77.9507 99.9122 78.1851 99.6454 78.3609 99.3409C78.5367 99.0363 78.6506 98.7 78.6959 98.3512C78.7413 98.0025 78.7172 97.6482 78.625 97.3088C78.5329 96.9694 78.3745 96.6516 78.159 96.3737C77.9436 96.0957 77.6752 95.8632 77.3695 95.6893L64.6325 88.3357C65.0378 87.0888 65.2639 85.7608 65.2639 84.3805C65.2639 77.3128 59.5146 71.5635 52.4479 71.5635ZM76.5685 97.0739C76.7969 97.2234 76.9594 97.4548 77.0227 97.7204C77.086 97.986 77.0452 98.2657 76.9088 98.5022C76.7723 98.7387 76.5505 98.9141 76.2888 98.9922C76.0272 99.0703 75.7456 99.0453 75.5018 98.9224L62.7519 91.5613C62.4349 91.378 62.0645 91.3091 61.7028 91.3661C61.341 91.4232 61.0099 91.6029 60.7647 91.8749C59.7154 93.0419 58.4331 93.9759 57.0006 94.6169C55.5682 95.2579 54.0173 95.5917 52.4479 95.5965C46.2634 95.5965 41.2309 90.5651 41.2309 84.3795C41.2309 78.1949 46.2623 73.1635 52.4479 73.1635C58.6325 73.1635 63.6639 78.1949 63.6639 84.3795C63.663 85.5548 63.4765 86.7226 63.1114 87.8397C62.9979 88.1884 63.0077 88.5654 63.1389 88.9077C63.2702 89.25 63.515 89.5369 63.8325 89.7203L76.5685 97.0739V97.0739Z" fill="#149CB2"/>
<path d="M52.448 75.2969C47.4389 75.2969 43.3643 79.3715 43.3643 84.3795C43.3643 89.3886 47.4389 93.4633 52.448 93.4633C57.456 93.4633 61.5307 89.3886 61.5307 84.3795C61.5307 79.3715 57.456 75.2969 52.448 75.2969ZM52.448 91.8633C50.4639 91.861 48.5617 91.0718 47.1587 89.6688C45.7557 88.2659 44.9665 86.3637 44.9643 84.3795C44.9643 80.2537 48.3211 76.8969 52.448 76.8969C56.5749 76.8969 59.9307 80.2537 59.9307 84.3795C59.9307 88.5065 56.5739 91.8633 52.448 91.8633Z" fill="#149CB2"/>
<path d="M203.552 180.703C208.561 180.703 212.636 176.628 212.636 171.62C212.636 166.611 208.561 162.537 203.552 162.537C198.544 162.537 194.47 166.611 194.47 171.62C194.47 176.628 198.544 180.703 203.552 180.703V180.703ZM203.552 164.137C205.537 164.139 207.439 164.928 208.842 166.331C210.245 167.734 211.034 169.636 211.036 171.62C211.036 175.746 207.679 179.103 203.552 179.103C199.425 179.103 196.07 175.746 196.07 171.62C196.07 167.493 199.427 164.137 203.552 164.137Z" fill="#149CB2"/>
<path d="M203.552 184.436C210.619 184.436 216.37 178.687 216.37 171.62C216.37 164.554 210.619 158.803 203.552 158.803C199.781 158.803 196.395 160.451 194.047 163.053L181.298 155.692C180.994 155.514 180.659 155.398 180.31 155.35C179.962 155.303 179.607 155.324 179.267 155.414C178.927 155.504 178.608 155.66 178.329 155.874C178.05 156.088 177.815 156.354 177.64 156.659C177.464 156.964 177.35 157.3 177.304 157.649C177.259 157.997 177.283 158.352 177.375 158.691C177.468 159.03 177.626 159.348 177.841 159.626C178.057 159.904 178.325 160.137 178.631 160.311L191.368 167.664C190.951 168.941 190.738 170.276 190.736 171.619C190.736 178.687 196.486 184.436 203.552 184.436V184.436ZM179.432 158.926C179.204 158.776 179.041 158.545 178.978 158.279C178.914 158.014 178.955 157.734 179.092 157.498C179.228 157.261 179.45 157.086 179.712 157.008C179.973 156.93 180.255 156.955 180.499 157.077L193.248 164.439C193.565 164.622 193.936 164.691 194.298 164.634C194.659 164.577 194.991 164.397 195.236 164.125C196.285 162.958 197.567 162.024 199 161.383C200.432 160.742 201.983 160.408 203.552 160.403C209.737 160.403 214.77 165.435 214.77 171.62C214.77 177.805 209.738 182.836 203.552 182.836C197.368 182.836 192.336 177.805 192.336 171.62C192.336 170.452 192.522 169.288 192.89 168.16C193.004 167.812 192.994 167.434 192.863 167.092C192.731 166.75 192.486 166.463 192.169 166.28L179.432 158.926Z" fill="#149CB2"/>
<path d="M128 190.67C162.556 190.67 190.67 162.557 190.67 128C190.67 93.4431 162.556 65.3301 128 65.3301C93.4442 65.3301 65.3301 93.4431 65.3301 128C65.3301 162.557 93.4442 190.67 128 190.67ZM128 70.6634C159.616 70.6634 185.336 96.385 185.336 128C185.336 159.615 159.616 185.336 128 185.336C96.3839 185.336 70.6634 159.616 70.6634 128C70.6634 96.3839 96.3839 70.6634 128 70.6634V70.6634Z" fill="#F9B087"/>
<path d="M161.079 128C161.079 92.8575 146.55 65.3301 128 65.3301C109.451 65.3301 94.9219 92.8575 94.9219 128C94.9219 163.142 109.451 190.67 128 190.67C146.55 190.67 161.079 163.142 161.079 128V128ZM100.255 128C100.255 96.9205 112.96 70.6634 128 70.6634C143.04 70.6634 155.745 96.9205 155.745 128C155.745 159.079 143.04 185.336 128 185.336C112.96 185.336 100.255 159.079 100.255 128Z" fill="#F9B087"/>
<path d="M128 104.881C146.414 104.881 163.774 100.703 175.631 93.4164C175.929 93.2331 176.188 92.9928 176.394 92.7094C176.599 92.4259 176.747 92.1047 176.828 91.7642C176.909 91.4236 176.923 91.0704 176.868 90.7247C176.812 90.379 176.69 90.0475 176.506 89.7492C176.323 89.4509 176.083 89.1916 175.799 88.9862C175.516 88.7807 175.195 88.6331 174.854 88.5518C174.514 88.4705 174.16 88.457 173.815 88.5122C173.469 88.5674 173.137 88.6902 172.839 88.8735C161.798 95.6575 145.455 99.5476 128 99.5476C110.398 99.5476 93.9677 95.6031 82.9213 88.7252C82.3214 88.3667 81.6048 88.2581 80.9256 88.4226C80.2464 88.5872 79.6589 89.0118 79.2896 89.605C78.9203 90.1983 78.7986 90.9128 78.9508 91.5949C79.1029 92.277 79.5167 92.8721 80.1032 93.2521C91.9709 100.643 109.429 104.881 128 104.881ZM83.1378 167.139C94.181 160.347 110.532 156.451 128 156.451C145.605 156.451 162.038 160.398 173.087 167.278C173.384 167.463 173.715 167.588 174.06 167.645C174.406 167.702 174.759 167.691 175.1 167.611C175.441 167.532 175.763 167.386 176.048 167.182C176.332 166.979 176.574 166.721 176.759 166.423C176.944 166.126 177.069 165.795 177.126 165.45C177.184 165.104 177.172 164.751 177.093 164.41C177.014 164.068 176.868 163.746 176.664 163.461C176.46 163.177 176.202 162.935 175.905 162.75C164.035 155.357 146.575 151.117 128 151.117C109.573 151.117 92.2023 155.3 80.3442 162.595C79.7418 162.966 79.3112 163.56 79.1472 164.248C78.9832 164.936 79.0991 165.661 79.4695 166.263C79.6529 166.562 79.8932 166.821 80.1768 167.027C80.4604 167.232 80.7817 167.38 81.1223 167.461C81.4629 167.542 81.8163 167.556 82.1621 167.5C82.5079 167.445 82.8395 167.322 83.1378 167.139V167.139ZM187.075 130.667C187.782 130.667 188.46 130.386 188.961 129.885C189.461 129.385 189.742 128.707 189.742 128C189.742 127.293 189.461 126.614 188.961 126.114C188.46 125.614 187.782 125.333 187.075 125.333H158.411C157.704 125.333 157.026 125.614 156.526 126.114C156.026 126.614 155.745 127.293 155.745 128C155.745 128.707 156.026 129.385 156.526 129.885C157.026 130.386 157.704 130.667 158.411 130.667H187.075V130.667ZM97.5879 130.667C98.2952 130.667 98.9735 130.386 99.4736 129.885C99.9737 129.385 100.255 128.707 100.255 128C100.255 127.293 99.9737 126.614 99.4736 126.114C98.9735 125.614 98.2952 125.333 97.5879 125.333H68.9245C68.2172 125.333 67.539 125.614 67.0389 126.114C66.5388 126.614 66.2578 127.293 66.2578 128C66.2578 128.707 66.5388 129.385 67.0389 129.885C67.539 130.386 68.2172 130.667 68.9245 130.667H97.5879Z" fill="#F9B087"/>
<path d="M130.694 102.214V69.4269C130.694 68.7197 130.413 68.0414 129.913 67.5413C129.413 67.0412 128.734 66.7603 128.027 66.7603C127.32 66.7603 126.641 67.0412 126.141 67.5413C125.641 68.0414 125.36 68.7197 125.36 69.4269V102.214C125.36 102.921 125.641 103.6 126.141 104.1C126.641 104.6 127.32 104.881 128.027 104.881C128.734 104.881 129.413 104.6 129.913 104.1C130.413 103.6 130.694 102.921 130.694 102.214V102.214Z" fill="#F9B087"/>
<path d="M130.694 187.273V153.784C130.694 153.077 130.413 152.399 129.913 151.899C129.413 151.399 128.734 151.118 128.027 151.118C127.32 151.118 126.641 151.399 126.141 151.899C125.641 152.399 125.36 153.077 125.36 153.784V187.273C125.36 187.981 125.641 188.659 126.141 189.159C126.641 189.659 127.32 189.94 128.027 189.94C128.734 189.94 129.413 189.659 129.913 189.159C130.413 188.659 130.694 187.981 130.694 187.273V187.273Z" fill="#F9B087"/>
<path d="M84.3316 91.4079C88.5876 93.7674 93.5402 95.7589 99.0516 97.3258C99.4534 97.4401 99.884 97.3928 100.251 97.1938C100.619 96.9949 100.894 96.6602 101.017 96.2613C103.925 86.897 108.099 79.2266 113.089 74.0821C113.335 73.8283 113.489 73.5005 113.529 73.1496C113.569 72.7988 113.492 72.4446 113.31 72.1422C113.127 71.8397 112.85 71.6061 112.521 71.4775C112.192 71.349 111.83 71.3328 111.491 71.4314C100.849 74.5429 91.3119 80.5983 83.9103 88.9461C83.7511 89.1254 83.6342 89.3382 83.5684 89.5688C83.5025 89.7994 83.4893 90.0418 83.5298 90.2782C83.5702 90.5146 83.6633 90.7388 83.8021 90.9344C83.9409 91.1299 84.1218 91.2918 84.3316 91.4079V91.4079ZM111.94 72.9685C106.764 78.3061 102.47 86.1877 99.49 95.7866C94.1706 94.2741 89.3076 92.337 85.1082 90.0085C92.1823 82.0298 101.441 76.0383 111.94 72.9685ZM185.268 129.067H161.043C160.625 129.067 160.223 129.23 159.924 129.523C159.625 129.816 159.452 130.214 159.443 130.632C159.264 139.111 158.235 147.208 156.385 154.699C156.285 155.101 156.346 155.527 156.555 155.886C156.763 156.245 157.103 156.509 157.502 156.622C163.503 158.325 168.879 160.532 173.481 163.181C173.823 163.378 174.225 163.443 174.611 163.361C174.996 163.279 175.338 163.058 175.57 162.739C182.428 153.373 186.335 142.308 186.867 130.74C186.877 130.524 186.843 130.308 186.767 130.106C186.691 129.903 186.575 129.718 186.426 129.561C186.276 129.405 186.097 129.28 185.898 129.195C185.699 129.11 185.485 129.067 185.268 129.067V129.067ZM174.279 161.794C169.539 159.067 164.013 156.807 157.939 155.083C159.769 147.674 160.86 139.428 161.044 130.667H185.269C184.735 142.271 180.732 152.981 174.279 161.794ZM171.668 164.592C167.411 162.231 162.459 160.241 156.948 158.674C156.546 158.56 156.116 158.607 155.748 158.806C155.381 159.005 155.106 159.34 154.982 159.739C152.075 169.103 147.901 176.772 142.911 181.918C142.665 182.172 142.511 182.499 142.471 182.85C142.431 183.201 142.508 183.555 142.69 183.858C142.873 184.16 143.15 184.394 143.479 184.522C143.807 184.651 144.17 184.667 144.509 184.568C155.151 181.457 164.688 175.402 172.088 167.054C172.248 166.875 172.365 166.662 172.431 166.431C172.496 166.201 172.51 165.958 172.469 165.722C172.429 165.486 172.336 165.261 172.197 165.066C172.059 164.87 171.878 164.708 171.668 164.592V164.592ZM144.06 183.031C149.236 177.694 153.529 169.812 156.51 160.213C161.829 161.726 166.692 163.663 170.892 165.991C163.817 173.97 154.559 179.962 144.06 183.031Z" fill="#FF8639"/>
<path d="M128 190.67C162.556 190.67 190.67 162.557 190.67 128C190.67 93.4431 162.556 65.3301 128 65.3301C93.4442 65.3301 65.3301 93.4431 65.3301 128C65.3301 162.557 93.4442 190.67 128 190.67ZM128 66.9301C161.674 66.9301 189.07 94.3263 189.07 128C189.07 161.674 161.674 189.07 128 189.07C94.3263 189.07 66.9301 161.675 66.9301 128C66.9301 94.3253 94.3263 66.9301 128 66.9301V66.9301Z" fill="#FF8639"/>
<path d="M125.36 154.889H125.324C118.09 155.052 111.062 155.872 104.44 157.326C104.222 157.373 104.017 157.466 103.837 157.597C103.658 157.728 103.507 157.896 103.396 158.088C103.285 158.281 103.215 158.495 103.191 158.716C103.167 158.937 103.19 159.161 103.258 159.373C108.169 174.856 116.108 184.789 125.038 186.626C125.27 186.674 125.511 186.669 125.741 186.613C125.972 186.556 126.187 186.449 126.371 186.299C126.555 186.149 126.703 185.96 126.805 185.745C126.907 185.531 126.96 185.297 126.96 185.059V156.489C126.959 156.064 126.791 155.658 126.491 155.358C126.191 155.058 125.784 154.889 125.36 154.889V154.889ZM125.36 185.059C116.846 183.308 109.323 173.203 104.782 158.89C111.216 157.477 118.171 156.652 125.36 156.489V185.059ZM152.604 158.087C152.493 157.894 152.343 157.727 152.163 157.595C151.984 157.464 151.779 157.372 151.562 157.324C144.959 155.874 137.951 155.056 130.731 154.89H130.693C130.269 154.89 129.862 155.058 129.562 155.358C129.262 155.658 129.093 156.065 129.093 156.49V185.05C129.093 185.288 129.146 185.523 129.249 185.738C129.351 185.952 129.5 186.142 129.685 186.292C129.87 186.442 130.086 186.549 130.317 186.605C130.548 186.661 130.789 186.664 131.022 186.616C139.928 184.746 147.844 174.815 152.742 159.371C152.81 159.159 152.833 158.935 152.809 158.714C152.785 158.493 152.715 158.279 152.604 158.087V158.087ZM130.693 185.051V156.491C137.868 156.656 144.802 157.48 151.217 158.888C146.688 173.172 139.186 183.267 130.693 185.051V185.051ZM111.491 184.568C111.831 184.667 112.193 184.652 112.523 184.523C112.852 184.395 113.13 184.161 113.312 183.858C113.495 183.556 113.572 183.201 113.532 182.85C113.491 182.498 113.336 182.17 113.089 181.917C108.1 176.772 103.928 169.104 101.019 159.741C100.895 159.342 100.62 159.007 100.253 158.808C99.8852 158.61 99.4545 158.563 99.0529 158.677C93.5435 160.243 88.591 162.235 84.3339 164.594C84.1243 164.71 83.9435 164.872 83.8048 165.068C83.6662 165.263 83.5732 165.487 83.5327 165.724C83.4923 165.96 83.5054 166.202 83.5712 166.433C83.6369 166.663 83.7536 166.876 83.9126 167.055C91.3142 175.401 100.85 181.456 111.491 184.568V184.568ZM99.4902 160.217C102.47 169.815 106.764 177.694 111.939 183.032C101.441 179.963 92.1835 173.971 85.1094 165.994C89.3089 163.666 94.1707 161.728 99.4902 160.217Z" fill="#FF8639"/>
<path d="M103.329 100.643C102.611 100.643 101.96 101.13 101.778 101.854C99.7054 110.115 98.6548 118.912 98.6548 128C98.6548 137.089 99.7054 145.887 101.779 154.148C101.881 154.553 102.136 154.902 102.491 155.121C102.846 155.34 103.273 155.412 103.68 155.321C111.413 153.595 119.59 152.719 128.012 152.719H128.032C136.43 152.721 144.601 153.596 152.322 155.318C152.729 155.409 153.155 155.337 153.51 155.118C153.865 154.899 154.121 154.551 154.223 154.146C156.295 145.885 157.346 137.088 157.346 128C157.346 118.911 156.295 110.113 154.222 101.851C154.12 101.446 153.864 101.098 153.509 100.879C153.154 100.66 152.728 100.588 152.321 100.678C144.595 102.402 136.423 103.278 128.032 103.28H127.995C119.59 103.28 111.409 102.405 103.679 100.681C103.564 100.656 103.447 100.643 103.329 100.643V100.643ZM128 104.881H128.031C136.627 104.879 144.985 103.955 152.669 102.241C154.625 110.037 155.745 118.804 155.745 128C155.745 137.196 154.626 145.961 152.67 153.757C144.991 152.044 136.636 151.121 128.032 151.119H128.001C119.393 151.119 111.025 152.043 103.332 153.759C101.376 145.963 100.257 137.196 100.257 128C100.257 118.804 101.376 110.04 103.332 102.243C111.019 103.958 119.385 104.881 128 104.881V104.881ZM156.384 101.296C158.235 108.786 159.264 116.885 159.443 125.366C159.452 125.785 159.624 126.183 159.924 126.476C160.223 126.769 160.625 126.932 161.043 126.932H185.268C185.484 126.932 185.698 126.888 185.897 126.803C186.096 126.718 186.276 126.593 186.425 126.437C186.574 126.281 186.691 126.096 186.767 125.893C186.843 125.691 186.877 125.475 186.867 125.259C186.335 113.691 182.428 102.624 175.569 93.2577C175.336 92.9399 174.994 92.7191 174.609 92.6376C174.224 92.5562 173.822 92.6197 173.48 92.8161C168.882 95.4625 163.506 97.6683 157.502 99.3718C157.103 99.4855 156.763 99.7495 156.555 100.108C156.346 100.467 156.285 100.893 156.384 101.296ZM174.278 94.2038C180.732 103.017 184.735 113.728 185.269 125.333H161.044C160.86 116.57 159.769 108.323 157.938 100.913C164.013 99.1883 169.54 96.9302 174.278 94.2038V94.2038ZM70.7305 126.933H94.9556C95.3741 126.933 95.776 126.77 96.0751 126.477C96.3741 126.184 96.5467 125.786 96.5556 125.368C96.7348 116.889 97.763 108.792 99.6137 101.301C99.7133 100.899 99.6524 100.473 99.4441 100.114C99.2357 99.7552 98.8961 99.4914 98.4969 99.3782C92.4959 97.6747 87.1198 95.4678 82.5172 92.8193C82.176 92.6217 81.7738 92.5575 81.3881 92.639C81.0024 92.7206 80.6606 92.9421 80.4286 93.2609C73.571 102.627 69.6638 113.692 69.1316 125.26C69.1216 125.476 69.1556 125.692 69.2315 125.894C69.3074 126.097 69.4235 126.282 69.573 126.439C69.7225 126.595 69.9021 126.72 70.1011 126.805C70.3 126.89 70.5141 126.933 70.7305 126.933ZM81.7204 94.2059C86.4596 96.9334 91.986 99.1926 98.0606 100.917C96.2302 108.326 95.1412 116.572 94.9556 125.333H70.7305C71.2649 113.728 75.2681 103.019 81.7204 94.2059Z" fill="#FF8639"/>
<path d="M103.396 97.9133C103.621 98.3027 104 98.5789 104.438 98.676C111.057 100.129 118.083 100.948 125.323 101.11H125.36C125.57 101.11 125.778 101.069 125.972 100.989C126.167 100.909 126.343 100.791 126.492 100.642C126.64 100.493 126.758 100.317 126.839 100.123C126.919 99.9285 126.96 99.7203 126.96 99.5101V70.9405C126.959 70.7032 126.906 70.469 126.804 70.2548C126.702 70.0405 126.554 69.8516 126.37 69.7016C126.186 69.5517 125.971 69.4445 125.741 69.3878C125.51 69.331 125.27 69.3262 125.038 69.3736C116.106 71.2104 108.167 81.1453 103.256 96.6291C103.121 97.0579 103.171 97.524 103.396 97.9133ZM125.36 70.9405V99.5101C118.166 99.348 111.213 98.5235 104.782 97.1123C109.321 82.7976 116.846 72.692 125.36 70.9405V70.9405ZM130.693 101.11H130.73C137.943 100.944 144.952 100.125 151.56 98.6739C151.778 98.6265 151.983 98.5342 152.162 98.4029C152.342 98.2717 152.492 98.1043 152.604 97.9116C152.715 97.7189 152.785 97.5051 152.809 97.2839C152.832 97.0627 152.81 96.8389 152.742 96.6269C147.843 81.1827 139.927 71.2531 131.023 69.3843C130.79 69.335 130.548 69.3384 130.317 69.3943C130.085 69.4502 129.869 69.5572 129.684 69.7074C129.5 69.8576 129.351 70.0473 129.248 70.2625C129.146 70.4777 129.094 70.713 129.094 70.9512V99.5123C129.095 99.936 129.263 100.342 129.563 100.642C129.863 100.941 130.269 101.11 130.693 101.11ZM130.693 70.9491C139.185 72.7315 146.686 82.8264 151.217 97.1101C144.799 98.5192 137.863 99.3448 130.693 99.5101V70.9491V70.9491ZM99.6147 154.703C97.764 147.213 96.7347 139.113 96.5555 130.632C96.5466 130.214 96.374 129.816 96.0749 129.523C95.7759 129.23 95.374 129.066 94.9555 129.066H70.7304C70.5141 129.067 70.3001 129.111 70.1013 129.196C69.9025 129.281 69.723 129.405 69.5736 129.562C69.4242 129.718 69.308 129.903 69.232 130.106C69.156 130.308 69.1218 130.524 69.1315 130.74C69.6637 142.308 73.5709 153.374 80.4296 162.741C80.6623 163.059 81.0041 163.28 81.3895 163.361C81.7748 163.443 82.1767 163.379 82.5181 163.183C87.1165 160.536 92.4925 158.33 98.4979 156.627C98.897 156.513 99.2365 156.249 99.4448 155.89C99.6531 155.531 99.714 155.106 99.6147 154.703V154.703ZM81.7213 161.795C75.268 152.982 71.2648 142.272 70.7304 130.666H94.9555C95.14 139.43 96.2301 147.677 98.0616 155.087C91.9859 156.811 86.4595 159.07 81.7213 161.795ZM154.981 96.2579C155.105 96.6566 155.38 96.9911 155.748 97.1898C156.115 97.3885 156.545 97.4357 156.947 97.3213C162.456 95.7555 167.408 93.7651 171.666 91.4045C171.875 91.2883 172.056 91.1265 172.195 90.931C172.334 90.7356 172.427 90.5115 172.467 90.2752C172.508 90.039 172.494 89.7967 172.429 89.5663C172.363 89.3358 172.246 89.123 172.087 88.9437C164.687 80.5981 155.15 74.5427 144.51 71.4323C144.17 71.3326 143.808 71.3482 143.478 71.4765C143.149 71.6048 142.871 71.8386 142.688 72.1414C142.506 72.4442 142.429 72.7989 142.469 73.1502C142.51 73.5015 142.665 73.8295 142.912 74.0829C147.899 79.2264 152.073 86.8947 154.981 96.2579V96.2579ZM170.889 90.0051C166.691 92.3325 161.829 94.2707 156.509 95.7832C153.528 86.1864 149.235 78.3059 144.059 72.9683C154.558 76.0371 163.815 82.0285 170.889 90.0051Z" fill="#FF8639"/>
<path d="M140.74 146.434C142.249 146.432 143.697 145.832 144.764 144.764C145.831 143.697 146.432 142.25 146.434 140.74V115.26C146.432 113.75 145.831 112.303 144.764 111.236C143.697 110.168 142.249 109.568 140.74 109.566H115.258C113.749 109.568 112.302 110.168 111.234 111.236C110.167 112.303 109.566 113.75 109.564 115.26V140.74C109.566 142.25 110.167 143.697 111.234 144.764C112.302 145.832 113.749 146.432 115.258 146.434H140.74ZM114.899 140.74V115.26C114.899 115.06 115.06 114.899 115.259 114.899H140.741C140.94 114.899 141.102 115.061 141.102 115.26V140.74C141.102 140.836 141.064 140.928 140.996 140.995C140.928 141.063 140.837 141.101 140.741 141.101H115.259C115.164 141.101 115.072 141.063 115.004 140.995C114.937 140.928 114.899 140.836 114.899 140.74V140.74Z" fill="#65C1D6"/>
<path d="M140.74 146.434C142.249 146.432 143.697 145.832 144.764 144.764C145.831 143.697 146.432 142.25 146.434 140.74V115.26C146.432 113.75 145.831 112.303 144.764 111.236C143.697 110.168 142.249 109.568 140.74 109.566H115.258C113.749 109.568 112.302 110.168 111.234 111.236C110.167 112.303 109.566 113.75 109.564 115.26V140.74C109.566 142.25 110.167 143.697 111.234 144.764C112.302 145.832 113.749 146.432 115.258 146.434H140.74ZM111.166 140.74V115.26C111.167 114.174 111.598 113.134 112.366 112.366C113.133 111.599 114.174 111.167 115.259 111.166H140.741C141.826 111.167 142.867 111.599 143.634 112.367C144.402 113.134 144.833 114.174 144.835 115.26V140.74C144.834 141.826 144.402 142.866 143.635 143.634C142.867 144.401 141.826 144.833 140.741 144.834H115.259C114.174 144.833 113.133 144.401 112.366 143.634C111.598 142.866 111.167 141.826 111.166 140.74Z" fill="#149CB2"/>
<path d="M140.74 142.701C141.26 142.7 141.758 142.494 142.126 142.126C142.493 141.759 142.7 141.26 142.701 140.74V115.26C142.7 114.74 142.493 114.242 142.126 113.874C141.758 113.507 141.26 113.3 140.74 113.299H115.258C114.739 113.3 114.24 113.507 113.873 113.874C113.505 114.242 113.298 114.74 113.298 115.26V140.74C113.298 141.26 113.505 141.759 113.873 142.126C114.24 142.494 114.739 142.7 115.258 142.701H140.74ZM114.899 140.74V115.26C114.899 115.06 115.06 114.899 115.259 114.899H140.741C140.941 114.899 141.102 115.061 141.102 115.26V140.74C141.102 140.836 141.064 140.928 140.996 140.995C140.928 141.063 140.837 141.101 140.741 141.101H115.259C115.164 141.101 115.072 141.063 115.005 140.995C114.937 140.928 114.899 140.836 114.899 140.74V140.74Z" fill="#149CB2"/>
<path d="M128 125.333C128.707 125.333 129.386 125.052 129.886 124.552C130.386 124.052 130.667 123.374 130.667 122.667C130.667 121.959 130.386 121.281 129.886 120.781C129.386 120.281 128.707 120 128 120H120.746C120.039 120 119.36 120.281 118.86 120.781C118.36 121.281 118.079 121.959 118.079 122.667C118.079 123.374 118.36 124.052 118.86 124.552C119.36 125.052 120.039 125.333 120.746 125.333H128Z" fill="#D3D3D3"/>
<path d="M135.255 135.679C135.962 135.679 136.64 135.398 137.14 134.898C137.64 134.398 137.921 133.72 137.921 133.012C137.921 132.305 137.64 131.627 137.14 131.127C136.64 130.627 135.962 130.346 135.255 130.346H120.746C120.039 130.346 119.36 130.627 118.86 131.127C118.36 131.627 118.079 132.305 118.079 133.012C118.079 133.72 118.36 134.398 118.86 134.898C119.36 135.398 120.039 135.679 120.746 135.679H135.255Z" fill="#D3D3D3"/>
<path d="M128 125.333C128.707 125.333 129.386 125.052 129.886 124.552C130.386 124.052 130.667 123.374 130.667 122.667C130.667 121.959 130.386 121.281 129.886 120.781C129.386 120.281 128.707 120 128 120H120.746C120.039 120 119.36 120.281 118.86 120.781C118.36 121.281 118.079 121.959 118.079 122.667C118.079 123.374 118.36 124.052 118.86 124.552C119.36 125.052 120.039 125.333 120.746 125.333H128ZM119.679 122.667C119.679 122.079 120.158 121.6 120.746 121.6H128C128.588 121.6 129.067 122.079 129.067 122.667C129.067 123.254 128.588 123.733 128 123.733H120.746C120.158 123.733 119.679 123.254 119.679 122.667Z" fill="#EBE7F2"/>
<path d="M135.255 135.679C135.962 135.679 136.64 135.398 137.14 134.898C137.64 134.398 137.921 133.72 137.921 133.012C137.921 132.305 137.64 131.627 137.14 131.127C136.64 130.627 135.962 130.346 135.255 130.346H120.746C120.039 130.346 119.36 130.627 118.86 131.127C118.36 131.627 118.079 132.305 118.079 133.012C118.079 133.72 118.36 134.398 118.86 134.898C119.36 135.398 120.039 135.679 120.746 135.679H135.255ZM119.679 133.012C119.679 132.425 120.158 131.946 120.746 131.946H135.255C135.842 131.946 136.321 132.425 136.321 133.012C136.321 133.6 135.842 134.079 135.255 134.079H120.746C120.158 134.079 119.679 133.601 119.679 133.012Z" fill="#EBE7F2"/>
</svg>
