<?xml version="1.0" encoding="utf-8" ?>
<svg xmlns="http://www.w3.org/2000/svg" xmlns:xlink="http://www.w3.org/1999/xlink" width="1536" height="1024">
	<path fill="#F0A041" d="M0 0L1.16024 0L1534.69 0C1535.54 1.34434 1535.84 2.50848 1535.91 4.09208C1536.57 18.5072 1536 33.1619 1536 47.604L1536.01 132.471L1536.01 391.421L1536.01 865.91L1536 981.169C1536 989.131 1537.19 1015.2 1535.79 1021.39C1535.57 1022.35 1535.21 1023.17 1534.69 1024L1.34398 1024L0 1024L0 0Z"/>
	<path fill="#3B0E01" d="M978.73 977.49C977.543 976.81 977.169 976.405 976.559 975.18C993.564 975.537 1010.61 974.748 1027.6 975.341L1028.25 976.328C1049.25 978.103 1075.46 976.568 1096.97 976.462C1103.35 976.43 1112.86 975.217 1118.81 976.865C1107.6 978.589 1085.87 977.237 1073.57 977.303C1042.1 977.473 1010.17 978.526 978.73 977.49Z"/>
	<path fill="#010101" d="M736.746 47.5156C760.989 47.32 785.265 47.7391 809.514 47.7153L809.448 63.0946L736.604 63.1725L736.746 47.5156Z"/>
	<path fill="#FEFEFE" d="M0 0L1.16024 0L1.34398 1024L0 1024L0 0Z"/>
	<path fill="#E5862E" d="M394.864 154.027C397.884 136.182 403.4 119.965 416.13 106.54C433.256 88.4791 455.402 80.1537 480.001 79.3581C480.008 86.8195 479.739 94.4104 480.265 101.85C462.103 103.372 445.555 109.193 433.531 123.582C425.764 132.879 421.804 143.403 419.437 155.144C411.469 153.699 402.987 154.849 394.864 154.027Z"/>
	<path fill="#010101" d="M178.582 65.2545C181.576 65.256 184.646 65.9321 186.856 68.0886C192.401 73.5013 186.708 76.0924 185.389 80.7759C184.086 85.4006 185.242 120.469 185.251 128.189C197.157 134.893 209.909 141.29 221.039 149.205C229.412 144.188 246.007 136.42 252.456 130.606C252.713 128.646 252.715 126.191 254.445 124.935C254.897 124.606 256.536 123.673 257.077 123.643C257.913 123.595 289.189 143.099 293.726 144.974C296.937 146.3 301.104 143.851 304.578 144.724C306.095 145.105 307.052 146.013 307.826 147.318C309.028 149.341 309.419 152.645 308.724 154.907C308.193 156.636 307.031 158.083 305.342 158.781C302.762 159.846 299.531 159.534 297.067 158.286C294.231 156.85 293.395 154.65 292.457 151.817L292.182 150.975C281.899 146.205 271.536 141.57 262.105 135.218C252.38 144.65 235.666 150.86 223.993 158.359C223.463 171.474 224.428 184.631 223.508 197.731C225.399 199.423 227.215 200.994 227.946 203.536C228.477 205.383 228.412 207.304 227.347 208.949C226.045 210.958 223.704 212.11 221.403 212.519C218.998 212.947 216.153 212.689 214.12 211.22C212.68 210.18 211.821 208.588 211.673 206.824C211.408 203.68 212.618 201.337 214.584 199.01Q214.447 179.109 213.975 159.214C203.186 151.474 190.685 145.278 179.387 138.169C174.234 141.449 149.746 154.284 147.802 157.088C146.776 158.569 146.421 160.571 145.283 162.093C144.104 163.67 142.278 164.556 140.333 164.697C138.103 164.858 135.552 164.102 133.894 162.57C132.219 161.021 131.333 158.658 131.418 156.396C131.501 154.151 132.525 152.179 134.259 150.765C135.271 149.94 136.114 149.723 137.407 149.846C138.628 149.963 139.844 150.093 141.036 149.692C146.973 147.699 169.16 133.913 176.525 129.753C176.466 120.183 177.925 87.7821 175.91 80.6939C175.454 79.0916 173.956 77.7472 172.981 76.4311C171.99 75.093 171.997 73.4319 172.328 71.8584C173.013 68.6057 176.032 66.9726 178.582 65.2545Z"/>
	<path fill="#F0A041" d="M178.563 68.8524C180.161 68.7862 182.158 68.7373 183.509 69.7069C184.756 70.6013 185.28 71.4808 185.39 73.0532C185.546 75.2758 183.76 77.2506 182.479 78.8874C181.427 78.6984 180.219 78.5362 179.238 78.1089C177.235 77.2361 176.833 76.1842 176.097 74.3186C176.185 71.8823 177.08 70.7204 178.563 68.8524Z"/>
	<path fill="#F0A041" d="M138.719 151.373C139.486 151.709 140.26 152.044 141.007 152.425C143.217 153.553 143.903 154.447 144.678 156.663C144.156 159.198 142.863 160.255 141.077 161.969C139.602 161.702 137.855 161.298 136.692 160.281C135.419 159.168 134.805 157.786 134.927 156.1C135.086 153.913 137.141 152.592 138.719 151.373Z"/>
	<path fill="#F0A041" d="M219.039 200.055C220.18 200.37 221.571 200.728 222.58 201.343C224.373 202.434 224.584 203.628 224.976 205.491C224.37 207.818 223.344 208.601 221.507 210.08C219.765 209.823 217.8 209.562 216.493 208.247C215.097 206.842 215.122 205.985 215.051 204.137C215.968 201.926 217.031 201.281 219.039 200.055Z"/>
	<path fill="#F9CF9D" d="M256.346 133.014C255.795 130.712 255.65 130.156 256.307 127.913L257.348 127.148C260.412 127.831 263.946 132.277 266.911 134.055C274.915 138.853 283.924 141.982 291.973 146.677L291.196 147.08L292.842 147.501C287.569 148.308 267.121 133.278 260.578 132.554C259.302 132.413 258.241 133.053 257.211 133.672L256.346 133.014Z"/>
	<path fill="#F0A041" d="M298.314 146.861C299.506 146.917 301.118 146.866 302.248 147.242C304.271 147.917 304.715 148.876 305.659 150.61C305.667 153.154 304.917 154.445 303.517 156.523C302.03 156.645 300.236 156.708 298.85 156.051C297.275 155.304 296.326 154.075 296.06 152.354C295.731 150.232 297.141 148.459 298.314 146.861Z"/>
	<path fill="#83613F" d="M180.857 129.594C179.904 118.666 179.444 92.4293 180.943 81.8887C183.133 86.0155 182.366 122.518 182.166 129.971L180.857 129.594Z"/>
	<path fill="#F0A041" d="M180.857 129.594L182.166 129.971C194.496 138.449 208.512 144.584 221.037 152.802C233.087 146.718 244.283 139.103 256.346 133.014L257.211 133.672C246.639 141.103 230.879 150.938 219.169 156.136C218.894 162.217 220.462 193.97 218.661 197.12C216.603 194.51 217.601 163.69 217.607 158.103C205.023 149.712 191.397 142.819 179.198 133.855C169.452 138.292 155.007 150.835 144.949 151.748L146.77 151.456L145.635 151.223C151.924 147.829 177.564 134.724 180.444 130.282C180.589 130.058 180.719 129.823 180.857 129.594Z"/>
	<path fill="#010101" d="M1053.28 90.3841C1055.17 90.214 1057.23 90.1368 1059.04 90.784C1061.56 91.6786 1063.18 93.3424 1064.25 95.7619Q1064.62 96.6066 1064.87 97.4974C1066.44 103.35 1059.59 104.654 1059.54 109.507C1059.44 119.331 1061.58 150.326 1058.97 157.277C1066.89 159.845 1091.66 170.593 1096.27 176.714C1096.43 176.664 1096.58 176.62 1096.74 176.565C1102.4 174.518 1133.3 158.808 1135.14 154.825C1135.62 153.786 1136.33 152.913 1137 151.991C1138.3 151.288 1139.7 150.453 1141.24 150.703C1143.5 151.072 1145.84 153.217 1147.04 155.077C1148.23 156.933 1148.03 157.9 1147.73 159.948C1146.67 161.631 1145.4 162.809 1143.67 163.793C1139.66 166.076 1134.89 167.096 1130.77 169.226C1120.84 174.357 1111.67 181.134 1101.19 185.299C1103.06 188.856 1103.28 213.774 1102.69 218.952C1102.42 221.344 1101.7 224.617 1099.61 226.06C1098.37 226.914 1097.2 227.081 1095.77 226.604C1093.56 225.868 1091.17 223.664 1090.57 221.372C1089.87 218.717 1090.98 214.883 1091.2 212.072C1091.67 205.872 1092.65 191.015 1090.37 185.886C1090.31 185.747 1090.24 185.614 1090.17 185.477C1087.61 182.682 1062.49 170.323 1057.75 168.582C1056.33 167.085 1054.89 166.028 1053.16 164.927C1042.58 172.27 1030.68 177.502 1019.9 184.579C1019.93 194.101 1021.65 212.365 1019.82 220.93C1019.27 223.52 1018.49 225.39 1016.24 226.846C1014.24 226.578 1013.61 226.357 1012.12 224.978C1010.84 223.794 1009.77 222.382 1009.46 220.634C1008.69 216.248 1009.86 210.646 1010 206.157C1010.23 198.999 1010.1 191.798 1010.07 184.636C1005.59 182.504 980.034 168.977 977.644 168.739C975.442 168.519 973.415 169.565 971.068 168.903C969.034 168.329 967.16 166.43 966.274 164.552C965.276 162.438 965.281 160.037 966.195 157.901C967.154 155.662 969.017 153.718 971.353 152.923C973.214 152.29 975.467 152.472 977.228 153.343C979.786 154.609 980.666 157.654 983.232 159.078C993.645 164.857 1004.77 169.811 1015.38 175.293C1025.36 169.554 1040.83 163.46 1049.46 157.202C1052.64 149.76 1050.7 116.504 1050.61 106.389L1050.62 106.321C1049.37 104.981 1048.04 103.636 1047.28 101.942C1046.53 100.256 1045.89 97.7573 1046.69 96.009C1047.83 93.5006 1050.88 91.4966 1053.28 90.3841Z"/>
	<path fill="#F0A041" d="M1012.76 216.462C1015.01 216.648 1016.23 216.93 1017.76 218.582C1017.94 220.535 1017.37 221.395 1016.36 223.029C1014.52 222.654 1013.65 222.233 1012.23 221.014C1011.74 218.861 1012.03 218.469 1012.76 216.462Z"/>
	<path fill="#F9CF9D" d="M1093.55 217.17C1095.35 216.782 1097.29 216.323 1098.94 217.389C1100.33 218.284 1100.39 218.441 1100.7 220.049C1099.72 221.86 1099.25 222.106 1097.58 223.189C1097.42 223.251 1097.28 223.339 1097.11 223.373C1095.55 223.709 1094.82 223.247 1093.63 222.357C1092.89 219.975 1092.9 219.584 1093.55 217.17Z"/>
	<path fill="#F9CF9D" d="M1052.84 104.306C1051.38 103.275 1050.99 102.276 1050.33 100.652C1050.47 98.6193 1050.48 97.5139 1051.96 95.9349C1053.4 94.4151 1055.05 94.0499 1057.05 94.011C1058.91 94.8876 1058.93 94.7165 1059.7 96.7806C1061.09 98.5181 1061.26 98.7172 1061.4 100.916C1060.7 102.806 1059.67 104.046 1057.88 105.023C1057.18 105.401 1056.42 105.595 1055.67 105.811L1055.33 105.654L1052.84 104.306Z"/>
	<path fill="#010101" d="M1053.5 101.396C1053.45 100.769 1053.34 99.9848 1053.48 99.3535C1053.82 97.77 1054.61 97.1881 1055.87 96.3276C1057 96.96 1056.92 97.1053 1057.39 98.3336L1057.46 100.148C1056.17 101.291 1055.18 101.164 1053.5 101.396Z"/>
	<path fill="#F0A041" d="M1055.33 105.654L1055.67 105.811C1055.92 117.722 1054.21 144.991 1056.29 154.789C1056.69 156.671 1057.27 157.591 1058.66 158.89C1067.61 167.276 1088.84 171.387 1096.81 180.306C1097.04 180.236 1097.27 180.169 1097.51 180.096C1108.83 176.557 1125.07 162.969 1135.02 160.821C1136.06 161.592 1137.06 162.144 1137.45 163.449C1137.21 163.446 1136.98 163.439 1136.74 163.441C1127.59 163.499 1106.33 179.539 1097.7 184.315C1100.61 190.008 1098.49 205.706 1098.68 212.675L1098.12 213.565C1096.58 213.661 1096.42 213.784 1095.17 212.937C1093.86 206.344 1096.33 188.64 1093.95 184.68C1084.33 175.226 1067.85 173.037 1057.87 163.813C1056.56 162.603 1056.09 161.018 1054.98 159.718C1048.08 162.759 1022.59 177.913 1016.83 182.655C1015.65 192.529 1018.41 204.085 1015.52 213.58L1014.6 213.696C1011.65 207.426 1013.27 190.884 1013.31 183.511C1006.28 178.98 986.057 171.407 982.092 165.976C981.175 164.72 981.21 164.409 981.384 162.894L982.263 162.334C994.017 167.072 1004.76 173.884 1016.41 178.803C1022.11 175.866 1050.35 161.617 1053.38 158.294C1055.81 153.533 1055.14 114.551 1053.89 108.084C1053.87 107.95 1053.84 107.817 1053.81 107.684L1055.33 105.654Z"/>
	<path fill="#010101" d="M480.001 79.3581C503.415 79.6699 524.214 87.4739 540.736 104.54C555.24 119.521 564.32 141.128 563.741 162.077Q563.706 163.112 563.645 164.146Q563.585 165.18 563.499 166.212Q563.413 167.244 563.302 168.273Q563.19 169.303 563.054 170.329Q562.918 171.356 562.756 172.379Q562.595 173.402 562.408 174.42Q562.222 175.439 562.01 176.453Q561.799 177.467 561.562 178.475Q561.326 179.483 561.065 180.485Q560.804 181.487 560.519 182.483Q560.234 183.478 559.924 184.467Q559.614 185.455 559.28 186.435Q558.946 187.415 558.589 188.387Q558.231 189.359 557.849 190.322Q557.468 191.284 557.063 192.237Q556.658 193.19 556.23 194.133Q555.802 195.076 555.35 196.008Q554.899 196.94 554.425 197.861Q553.951 198.782 553.455 199.69Q552.958 200.599 552.44 201.496Q551.922 202.392 551.381 203.275Q550.841 204.159 550.279 205.029Q549.717 205.898 549.134 206.754Q548.551 207.61 547.948 208.451Q547.344 209.293 546.72 210.119Q546.095 210.945 545.451 211.756Q544.807 212.566 544.143 213.361Q543.479 214.156 542.796 214.934Q542.113 215.712 541.41 216.473Q540.708 217.234 539.988 217.978Q539.267 218.721 538.529 219.447Q537.79 220.173 537.034 220.88C520.36 236.406 497.258 243.852 474.69 242.904C451.588 241.933 430.56 231.693 415.006 214.645Q414.328 213.893 413.67 213.124Q413.011 212.355 412.373 211.57Q411.734 210.784 411.115 209.983Q410.497 209.182 409.899 208.365Q409.301 207.548 408.724 206.716Q408.147 205.884 407.591 205.038Q407.036 204.192 406.502 203.332Q405.968 202.472 405.456 201.598Q404.944 200.725 404.454 199.839Q403.965 198.952 403.498 198.054Q403.031 197.156 402.587 196.246Q402.143 195.336 401.723 194.415Q401.302 193.494 400.905 192.563Q400.508 191.632 400.135 190.691Q399.762 189.75 399.412 188.799Q399.063 187.849 398.738 186.89Q398.413 185.931 398.113 184.965Q397.812 183.998 397.537 183.024Q397.261 182.05 397.01 181.069Q396.759 180.088 396.533 179.101Q396.307 178.114 396.106 177.122Q395.906 176.13 395.73 175.133Q395.555 174.135 395.405 173.134Q395.255 172.133 395.13 171.128Q395.005 170.123 394.906 169.116Q394.807 168.108 394.734 167.099Q394.661 166.089 394.613 165.078Q394.565 164.066 394.544 163.054Q394.522 162.042 394.525 161.029Q394.529 160.017 394.559 159.005Q394.588 157.993 394.644 156.982Q394.699 155.971 394.78 154.962C394.802 154.65 394.836 154.339 394.864 154.027C402.987 154.849 411.469 153.699 419.437 155.144Q419.288 156.854 419.194 158.568Q419.106 160.031 419.091 161.496Q419.075 162.961 419.133 164.425Q419.191 165.889 419.321 167.348Q419.451 168.807 419.653 170.258Q419.856 171.71 420.13 173.149Q420.404 174.588 420.75 176.012Q421.095 177.436 421.511 178.841Q421.927 180.245 422.412 181.628Q422.897 183.01 423.45 184.367Q424.003 185.724 424.623 187.051Q425.242 188.379 425.927 189.674Q426.612 190.969 427.361 192.229Q428.109 193.488 428.919 194.709Q429.729 195.93 430.599 197.109Q431.468 198.288 432.396 199.422Q433.323 200.556 434.305 201.643C444.985 213.306 460.935 219.795 476.62 220.297Q478.14 220.346 479.66 220.321Q481.18 220.296 482.697 220.197Q484.214 220.097 485.725 219.924Q487.235 219.75 488.735 219.503Q490.236 219.255 491.722 218.935Q493.208 218.614 494.677 218.221Q496.146 217.828 497.593 217.364Q499.041 216.899 500.464 216.365Q501.888 215.83 503.283 215.226Q504.679 214.622 506.043 213.951Q507.407 213.279 508.737 212.542Q510.067 211.805 511.359 211.003Q512.651 210.201 513.902 209.337Q515.153 208.473 516.361 207.549Q517.568 206.625 518.729 205.643Q519.89 204.661 521.001 203.623Q522.088 202.61 523.122 201.542Q524.156 200.475 525.135 199.357Q526.115 198.24 527.036 197.074Q527.957 195.908 528.819 194.697Q529.68 193.486 530.479 192.233Q531.279 190.98 532.014 189.688Q532.749 188.397 533.417 187.069Q534.086 185.742 534.687 184.383Q535.288 183.024 535.82 181.636Q536.352 180.248 536.813 178.835Q537.274 177.423 537.663 175.988Q538.052 174.554 538.368 173.102Q538.684 171.65 538.927 170.183Q539.169 168.717 539.337 167.24Q539.506 165.764 539.599 164.28Q539.693 162.797 539.711 161.311C539.977 146.305 534.113 130.989 523.544 120.264C511.876 108.424 496.836 101.952 480.265 101.85C479.739 94.4104 480.008 86.8195 480.001 79.3581Z"/>
	<path fill="#F9CF9D" d="M480.265 101.85C496.836 101.952 511.876 108.424 523.544 120.264C534.113 130.989 539.977 146.305 539.711 161.311Q539.693 162.797 539.599 164.28Q539.506 165.764 539.337 167.24Q539.169 168.717 538.927 170.183Q538.684 171.65 538.368 173.102Q538.052 174.554 537.663 175.988Q537.273 177.423 536.812 178.835Q536.352 180.248 535.82 181.636Q535.288 183.024 534.687 184.383Q534.086 185.742 533.417 187.069Q532.749 188.397 532.014 189.688Q531.279 190.98 530.479 192.233Q529.68 193.486 528.819 194.697Q527.957 195.908 527.036 197.074Q526.114 198.24 525.135 199.357Q524.156 200.475 523.122 201.542Q522.088 202.61 521.001 203.623Q519.89 204.661 518.729 205.643Q517.568 206.625 516.361 207.549Q515.153 208.473 513.902 209.337Q512.651 210.201 511.359 211.003Q510.067 211.805 508.737 212.542Q507.407 213.279 506.043 213.951Q504.679 214.622 503.283 215.226Q501.888 215.83 500.464 216.365Q499.041 216.899 497.593 217.364Q496.146 217.828 494.677 218.221Q493.208 218.614 491.722 218.935Q490.236 219.255 488.735 219.503Q487.235 219.75 485.725 219.924Q484.214 220.097 482.697 220.197Q481.18 220.296 479.66 220.321Q478.14 220.346 476.62 220.297C460.935 219.795 444.985 213.306 434.305 201.643Q433.323 200.556 432.396 199.422Q431.468 198.288 430.599 197.109Q429.729 195.93 428.919 194.709Q428.109 193.488 427.361 192.229Q426.612 190.969 425.927 189.674Q425.242 188.379 424.623 187.051Q424.003 185.724 423.45 184.367Q422.897 183.01 422.412 181.628Q421.927 180.245 421.511 178.841Q421.095 177.436 420.75 176.012Q420.404 174.588 420.13 173.149Q419.856 171.71 419.653 170.258Q419.451 168.807 419.321 167.348Q419.191 165.889 419.133 164.425Q419.075 162.961 419.091 161.496Q419.106 160.031 419.194 158.568Q419.288 156.854 419.437 155.144C421.804 143.403 425.764 132.879 433.531 123.582C445.555 109.193 462.103 103.372 480.265 101.85Z"/>
	<path fill="#E5862E" d="M479.001 108.255C491.301 108.61 502.319 111.673 512.218 119.234Q513.257 120.012 514.256 120.841Q515.256 121.669 516.212 122.547Q517.169 123.425 518.08 124.349Q518.991 125.274 519.856 126.243Q520.72 127.211 521.534 128.222Q522.349 129.233 523.112 130.283Q523.875 131.334 524.585 132.421Q525.294 133.508 525.949 134.629Q526.603 135.75 527.201 136.903Q527.798 138.055 528.338 139.236Q528.877 140.417 529.357 141.624Q529.836 142.83 530.255 144.059Q530.674 145.288 531.03 146.536Q531.387 147.785 531.681 149.049Q531.975 150.314 532.205 151.592Q532.436 152.869 532.602 154.157C534.328 167.963 529.587 182.156 521.087 193.019C511.44 205.349 497.36 212.067 482.005 213.836Q480.817 213.863 479.628 213.84Q478.44 213.816 477.254 213.743Q476.067 213.67 474.885 213.546Q473.703 213.423 472.527 213.25Q471.351 213.077 470.183 212.855Q469.016 212.633 467.858 212.362Q466.701 212.09 465.556 211.771Q464.411 211.451 463.281 211.083Q462.151 210.715 461.037 210.3Q459.923 209.885 458.828 209.424Q457.732 208.962 456.657 208.455Q455.582 207.948 454.529 207.396Q453.477 206.844 452.448 206.248Q451.42 205.652 450.417 205.013Q449.415 204.375 448.44 203.694Q447.465 203.014 446.52 202.293C435.696 194.01 428.3 182.038 426.617 168.425Q426.47 167.134 426.386 165.837Q426.302 164.54 426.283 163.24Q426.264 161.941 426.309 160.642Q426.354 159.343 426.463 158.048Q426.572 156.753 426.744 155.465Q426.917 154.177 427.154 152.899Q427.39 151.621 427.689 150.356Q427.988 149.091 428.349 147.843Q428.711 146.595 429.133 145.365Q429.555 144.136 430.038 142.93Q430.521 141.723 431.062 140.542Q431.604 139.361 432.203 138.207Q432.803 137.054 433.458 135.932Q434.114 134.81 434.824 133.722Q435.535 132.634 436.298 131.582Q437.061 130.53 437.875 129.517C448.799 115.944 462.059 110.065 479.001 108.255Z"/>
	<path fill="#F9CF9D" d="M478.944 112.831C489.115 111.749 500.672 116.094 508.738 122.074Q509.685 122.776 510.596 123.524Q511.508 124.271 512.381 125.063Q513.254 125.855 514.086 126.69Q514.919 127.524 515.71 128.399Q516.5 129.273 517.246 130.186Q517.992 131.099 518.692 132.047Q519.392 132.996 520.044 133.978Q520.696 134.96 521.299 135.973Q521.901 136.987 522.453 138.028Q523.005 139.07 523.504 140.138Q524.004 141.206 524.45 142.297Q524.895 143.389 525.287 144.501Q525.678 145.613 526.014 146.743Q526.349 147.873 526.629 149.019Q526.908 150.164 527.13 151.322Q527.352 152.48 527.517 153.647Q527.695 154.855 527.813 156.07Q527.93 157.285 527.987 158.504Q528.043 159.724 528.038 160.944Q528.033 162.165 527.966 163.384Q527.9 164.603 527.773 165.817Q527.645 167.031 527.457 168.237Q527.269 169.443 527.02 170.638Q526.771 171.834 526.463 173.015Q526.155 174.196 525.787 175.36Q525.42 176.524 524.995 177.668Q524.569 178.813 524.087 179.934Q523.605 181.055 523.067 182.151Q522.529 183.247 521.937 184.314Q521.344 185.381 520.699 186.418Q520.054 187.454 519.357 188.456Q518.661 189.459 517.915 190.425C508.704 202.482 496.282 207.525 481.624 209.414C469.01 208.493 457.805 206.103 447.712 197.912C438.264 190.244 432.113 179.591 430.913 167.427Q430.795 166.208 430.736 164.984Q430.678 163.761 430.679 162.536Q430.68 161.311 430.741 160.088Q430.802 158.865 430.922 157.646Q431.043 156.427 431.222 155.215Q431.402 154.003 431.641 152.802Q431.879 151.601 432.176 150.412Q432.473 149.224 432.827 148.052Q433.181 146.879 433.592 145.725Q434.003 144.572 434.47 143.439Q434.937 142.307 435.458 141.198Q435.98 140.09 436.555 139.009Q437.13 137.927 437.756 136.875Q438.383 135.823 439.061 134.802Q439.738 133.782 440.464 132.796Q441.19 131.81 441.964 130.86C451.586 119.182 464.252 114.303 478.944 112.831Z"/>
	<path fill="#010101" d="M1306.05 65.6394C1307.76 65.2904 1309.43 64.9712 1311.17 65.2263C1316.12 65.9488 1320.33 70.553 1323.01 74.4977C1326.36 79.4105 1331.76 89.8977 1330.69 95.8049C1341.53 92.4711 1350.78 85.4735 1362.79 86.1586C1365.67 86.3233 1368.83 87.0786 1370.7 89.4545C1372.51 91.7482 1372.72 94.8598 1372.46 97.6644C1371.75 105.254 1366.8 119.276 1360.77 124.182C1369.29 126.271 1377.65 128.389 1385.47 132.493C1389.54 134.628 1394.27 137.787 1395.53 142.49C1396.16 144.846 1395.68 147.132 1394.44 149.196C1389.12 158.034 1371.42 162.049 1361.81 164.284C1362.71 165.021 1363.23 165.782 1363.85 166.746C1368.27 173.574 1376.05 186.358 1373.91 194.708C1373.23 197.348 1370.99 199.655 1368.59 200.85C1357.92 206.17 1342.28 195.898 1332.21 192.245L1331.65 192.045C1332.88 197.04 1326.95 208.875 1324.44 213.13C1321.65 217.885 1318.56 222.445 1312.98 223.931C1312.11 224.147 1311.18 224.366 1310.27 224.335C1296.9 223.878 1294.47 198.891 1287.86 192.663C1287.73 192.822 1287.61 192.996 1287.46 193.142C1282.33 198.198 1266.4 202.896 1259.36 202.559C1256.34 202.414 1252.89 201.623 1250.9 199.167C1242.77 189.129 1259.28 172.281 1259.38 164.094C1259.38 163.822 1259.36 163.549 1259.36 163.277Q1251.8 161.158 1244.4 158.527C1238.47 156.395 1228.99 152.743 1226.33 146.432C1225.58 144.655 1225.64 142.794 1226.39 141.025C1230.25 131.852 1248.58 126.998 1257.02 123.946C1257.26 121.85 1249.66 107.458 1248.71 103.574C1247.6 99.0616 1246.93 92.2894 1249.65 88.2241C1250.77 86.5487 1252.44 85.6969 1254.39 85.328C1261.77 83.9304 1280.95 90.6227 1287.17 95.1651C1288.89 93.1395 1289.9 90.044 1291.05 87.644C1295.03 79.3242 1298.95 71.7575 1306.05 65.6394Z"/>
	<path fill="#E5862E" d="M1278.77 140.657C1280.15 141.907 1280.53 143.682 1280.57 145.578C1280.6 147.236 1280.34 147.908 1279.24 149.099L1277.14 148.166L1276 145.395C1276.45 143.434 1277.54 142.21 1278.77 140.657Z"/>
	<path fill="#E5862E" d="M1283.38 159.409C1284.22 159.457 1284.67 159.606 1285.41 160.037C1287.3 161.147 1289.97 164.052 1290.53 166.168C1289.21 166.706 1287.78 166.31 1286.41 166.117C1284.34 164.468 1284.03 161.866 1283.38 159.409Z"/>
	<path fill="#E5862E" d="M1333.55 160.161C1334.32 160.241 1334.91 160.554 1335.62 160.861C1335.83 162.307 1335.8 163.28 1334.97 164.574C1333.49 166.877 1331.66 166.628 1329.23 166.933L1328.63 166.155C1330.43 164.23 1332.13 162.395 1333.55 160.161Z"/>
	<path fill="#E5862E" d="M1284.56 121.154C1286.91 120.938 1289.15 120.462 1291.14 121.821C1290.37 123.908 1288.25 124.949 1286.49 126.161C1286.27 127.311 1285.82 127.655 1285.09 128.556L1284.2 128.334Q1284.35 124.742 1284.56 121.154Z"/>
	<path fill="#E5862E" d="M1338.8 137.655C1340.46 137.624 1342.01 138.527 1343.17 139.703C1344.36 140.908 1344.29 141.867 1344.21 143.444L1341.94 145.162C1341.55 146.506 1341.47 146.779 1340.48 147.749C1339.05 145.339 1339.67 141.091 1338.94 138.204C1338.9 138.021 1338.85 137.838 1338.8 137.655Z"/>
	<path fill="#E5862E" d="M1272.41 148.91C1272.87 148.898 1273.07 148.864 1273.56 149.014C1276.02 149.767 1278.59 152.904 1279.51 155.201C1279.69 155.474 1280.01 155.926 1280.16 156.249C1281.24 158.592 1281.57 161.37 1280.62 163.689C1278.3 164.82 1276.84 164.147 1274.41 163.706L1264.63 161.141C1267.54 158.532 1270.68 152.49 1272.41 148.91Z"/>
	<path fill="#E5862E" d="M1337.51 123.403C1343.61 122.904 1349.79 124.299 1355.63 125.927C1355.72 129.152 1352.38 132.382 1350.32 134.612C1349.74 136.775 1347.63 138.486 1345.85 139.676C1344.1 136.52 1341.16 134.12 1338.55 131.671C1339.25 129.002 1338.58 125.858 1337.51 123.403Z"/>
	<path fill="#E5862E" d="M1328.99 170.666C1330.52 170.42 1331.48 170.337 1333 170.65C1333.47 171.569 1333.78 172.392 1333.9 173.431C1334.35 177.076 1332.62 184.481 1330.44 187.457C1327.97 185.811 1325.55 184.59 1322.84 183.407C1320.98 180.786 1316.04 178.854 1313.21 177.484C1315.94 176.394 1319.04 174.769 1320.4 172.051C1323.27 171.708 1326.14 171.144 1328.99 170.666Z"/>
	<path fill="#E5862E" d="M1327.58 100.898L1329.5 100.821C1330.01 101.353 1330.43 101.784 1330.76 102.456C1332.56 106.114 1334.43 114.727 1333.26 118.619C1329.52 117.545 1325.63 117.933 1321.84 116.63C1319.89 113.258 1315.97 111.206 1312.55 109.612C1317.36 107.641 1323.74 104.382 1327.58 100.898Z"/>
	<path fill="#E5862E" d="M1285.03 169.165C1285.73 169.15 1285.79 169.133 1286.61 169.215C1293.09 169.862 1302.35 172.233 1306.61 177.432C1305.32 179.665 1302.93 180.462 1300.7 181.463C1298.38 184.542 1293.02 186.886 1289.48 188.384C1290.69 183.869 1286.46 173.788 1285.03 169.165Z"/>
	<path fill="#E5862E" d="M1276.79 122.654L1279.95 122.356C1280.62 122.866 1280.81 122.795 1280.99 123.667C1282.06 128.888 1280.25 134.12 1277.23 138.413C1276.13 139.99 1274.72 141.706 1272.8 142.003C1271.83 140.979 1270.79 140.078 1269.72 139.161C1269.72 139 1269.74 138.838 1269.72 138.678C1269.33 135.115 1263.98 127.868 1261.14 125.83Q1269.02 124.494 1276.79 122.654Z"/>
	<path fill="#E5862E" d="M1288.58 100.146C1289.18 100.073 1289.81 100.025 1290.41 100.107C1294.3 100.632 1303.56 106.369 1306.1 109.515C1304.78 111.952 1301.59 113.377 1299.24 114.66C1298.87 115.183 1298.54 115.636 1298.09 116.085C1295.5 118.651 1287.47 117.878 1283.89 117.881C1283.99 117.778 1284.1 117.679 1284.2 117.572C1287.14 114.436 1288.77 104.466 1288.58 100.146Z"/>
	<path fill="#F0A041" d="M1345.83 145.91C1346.86 146.247 1347.59 146.69 1348.35 147.467C1351.06 150.252 1356.9 158.337 1356.96 162.309C1353.79 163.266 1350.39 163.697 1347.12 164.271C1344.1 165.452 1340.4 165.645 1337.18 166.092C1337.32 165.879 1337.46 165.67 1337.6 165.453C1339.31 162.654 1339.66 157.901 1338.84 154.782L1345.83 145.91Z"/>
	<path fill="#F0A041" d="M1257.79 127.156L1259.64 127.861C1262.59 131.92 1270.14 140.929 1270.36 145.613C1270.36 145.812 1270.39 146.013 1270.37 146.211C1269.99 149.522 1263.57 158.427 1260.95 160.816C1256.57 158.414 1249.99 157.404 1245.13 156.074C1240.37 152.425 1232.21 152.312 1229.37 146.058C1228.73 144.642 1228.69 143.39 1229.32 141.966C1232.72 134.264 1250.32 129.709 1257.79 127.156Z"/>
	<path fill="#F0A041" d="M1261.97 164.663C1267.54 164.013 1275 166.526 1280.51 167.661C1280.68 167.882 1280.86 168.098 1281.02 168.324C1282.92 170.94 1287.57 186.53 1287.06 189.745C1283.25 192.894 1277.59 195.125 1272.88 196.477C1269.51 198.52 1264.71 199.827 1260.75 199.719C1258.3 199.652 1255.18 199.178 1253.51 197.144C1246.42 188.482 1261.92 173.675 1261.99 165.559C1261.99 165.26 1261.97 164.961 1261.97 164.663Z"/>
	<path fill="#F0A041" d="M1253.93 88.8951C1254.2 88.8498 1254.48 88.7975 1254.76 88.7591C1262.88 87.6411 1279.35 93.1194 1286.05 98.1701C1285.54 103.227 1284.53 113.656 1281.56 117.71C1280.62 118.991 1278.87 118.892 1277.41 119.148L1259.59 123.04C1260.49 118.17 1250.79 105.935 1250.26 98.8943C1249.93 94.5393 1251.18 92.0884 1253.93 88.8951Z"/>
	<path fill="#F0A041" d="M1357.4 165.415C1359.1 165.744 1359.69 166.113 1360.74 167.53C1364.97 173.212 1372.4 185.521 1370.92 192.633Q1370.85 192.999 1370.73 193.355Q1370.62 193.71 1370.47 194.051Q1370.32 194.393 1370.13 194.715Q1369.94 195.038 1369.72 195.339Q1369.5 195.639 1369.25 195.914Q1368.99 196.188 1368.71 196.434Q1368.43 196.679 1368.12 196.893Q1367.82 197.106 1367.49 197.285C1361.92 200.364 1354.49 197.653 1348.79 196.172C1344.62 193.124 1337.47 190.733 1332.52 189.025C1333.24 188.246 1333.88 187.394 1334.32 186.42C1336.11 182.444 1338.18 173.943 1336.75 169.746C1343.53 169.01 1350.87 167.383 1357.4 165.415Z"/>
	<path fill="#F0A041" d="M1355.01 89.646Q1357.89 89.2147 1360.79 89.101C1363.15 89.0186 1365.2 89.4408 1366.89 91.2292C1368.98 93.4401 1369.38 96.3649 1369.16 99.2723C1368.63 106.318 1362.96 118.982 1357.56 123.412C1354.57 122.068 1351.19 121.712 1347.98 121.153C1344.54 119.765 1340.24 119.622 1336.55 119.17C1336.68 118.872 1336.93 118.392 1337 118.041C1337.81 114.041 1334.42 102.113 1332.08 98.7855C1339.71 95.5673 1347.17 92.3753 1355.01 89.646Z"/>
	<path fill="#F0A041" d="M1307.77 68.6401C1308.69 68.5404 1309.64 68.442 1310.57 68.488C1313.81 68.647 1317.28 72.6848 1319.14 75.0587C1322.76 79.6605 1328.99 90.8379 1328.21 96.9051C1326.29 99.8214 1313.51 105.509 1310.06 106.903C1307.3 106.982 1294.27 97.6436 1289.9 96.0912C1295.97 90.3622 1297.12 77.3529 1307.77 68.6401Z"/>
	<path fill="#F0A041" d="M1358.79 127.154C1363.57 126.776 1370.62 129.54 1375.15 131.24C1380.71 133.323 1389.74 136.932 1392.11 142.966C1392.78 144.686 1392.71 146.46 1391.82 148.089C1389.43 152.451 1381.71 154.977 1377.12 156.175C1373.08 159.275 1365.23 160.364 1360.27 161.561C1360.25 161.276 1360.25 160.991 1360.23 160.706C1359.87 156.38 1351.24 145.151 1347.78 142.438C1348.31 142.1 1348.8 141.744 1349.29 141.345C1352.39 138.812 1358.4 131.125 1358.79 127.154Z"/>
	<path fill="#F0A041" d="M1309.82 179.669C1314.4 180.339 1325.39 187.503 1329.04 190.627C1329.91 196.513 1324.28 207.621 1321.25 212.489C1318.7 216.6 1316.1 219.853 1311.19 221.021C1310.47 221.1 1310.38 221.159 1309.57 220.968C1299.13 218.509 1295.97 198.891 1290.57 191.162C1296.37 189.197 1305.26 183.835 1309.82 179.669Z"/>
	<path fill="#F0A041" d="M1285.21 133.294C1285.87 132.947 1286.22 132.638 1286.74 132.091C1289.46 129.213 1292.28 126.333 1295.26 123.716C1301.01 118.659 1309.64 120.581 1316.71 121.068C1320.81 120.849 1324.08 121.61 1327.16 124.715C1327.73 125.289 1328.06 126.012 1328.42 126.722L1328.06 128.413C1326.75 129.127 1325.69 129.491 1324.23 129.842L1326.3 131.647C1327.61 131.268 1328.38 130.851 1329.45 130.025C1331.82 130.007 1332.3 129.871 1334.22 131.179C1334.88 132.859 1335.84 134.453 1335.58 136.254L1333.58 137.125C1333.7 140.273 1337.74 142.538 1335.63 145.417L1333.57 146.251L1333.22 148.467L1335.63 149.093L1336.45 150.767C1335.51 152.705 1335.26 152.625 1333.39 153.496C1333.25 155.386 1333.46 155.65 1332.05 157.02C1329.95 156.451 1327.49 153.788 1325.74 154.614C1326 155.271 1326.22 155.992 1326.6 156.592C1328.48 157.723 1328.84 157.67 1329.59 159.821C1328.61 161.399 1328.6 161.272 1326.8 161.777L1324.72 161.123C1325.41 162.82 1325.86 163.235 1325.34 165.039C1323.64 165.386 1322.39 165.437 1320.67 165.232L1322.04 166.763C1321.07 167.8 1320.72 167.691 1319.28 167.714C1318.2 167.731 1317.37 167.459 1316.36 167.132L1315.28 165.807L1313.42 166.07L1314.38 167.689C1312.67 168.395 1311.84 168.405 1310.04 168.036C1308.98 166.882 1308.42 166.375 1306.89 165.823C1304.02 166.515 1306.23 166.517 1304.98 168.501C1302.02 167.637 1296.7 166.811 1294.73 164.464L1295.58 162.754L1294.88 161.786L1292.66 162.371C1291 161.864 1291.08 161.716 1290.14 160.22L1291.43 158.712L1290.83 157.614L1288.3 158.047L1287.13 157.088C1286.65 155.562 1286.56 154.613 1286.66 153.014L1285.1 153.681L1284.06 153.041C1283.53 150.822 1283.57 150.498 1284.33 148.337L1285.86 148.504L1287.41 146.666L1285.91 144.891L1284.59 146.327L1283.87 145.789Q1283.84 141.905 1283.63 138.026C1283.74 136.304 1284.52 134.846 1285.21 133.294Z"/>
	<path fill="#E5862E" d="M1317.06 161.92C1320.57 160.958 1319.98 160.087 1322.59 158.124L1323.93 159.036L1324.72 161.123C1325.41 162.82 1325.86 163.235 1325.34 165.039C1323.64 165.386 1322.39 165.437 1320.67 165.232C1319.34 164.459 1318.16 163.016 1317.06 161.92Z"/>
	<path fill="#010101" d="M636.193 64.7226C727.294 62.6659 818.546 66.2338 909.645 64.8789L909.722 393.578C869.218 392.93 828.64 393.493 788.129 393.506L636.173 393.381L636.193 64.7226Z"/>
	<path fill="#FEFEFE" d="M638.838 67.4987L906.852 67.5564Q907.485 125.955 907.055 184.355C880.555 184.909 853.954 184.21 827.44 184.169L638.973 184.306C638.976 145.389 639.431 106.406 638.838 67.4987Z"/>
	<path fill="#C2C9DB" d="M891.278 76.3267L892.836 76.9072L892.577 77.6171C879.815 79.8081 855.666 78.067 841.728 77.9752C817.702 77.8171 793.547 78.5728 769.545 77.9309C774.812 74.7145 875.157 77.2716 891.278 76.3267Z"/>
	<path fill="#E0E1E7" d="M769.545 77.9309C760.492 79.1766 652.346 79.5055 647.697 78.0012L647.869 77.1773C649.21 76.2586 650.918 75.8204 652.533 75.7436C665.066 75.1482 678.067 76.1652 690.651 76.1833L769.5 75.8057L840.372 75.8575C857.273 75.802 874.415 75.1833 891.278 76.3267C875.157 77.2716 774.812 74.7145 769.545 77.9309Z"/>
	<path fill="#C2C9DB" d="M871.6 86.2055C874.147 86.1291 876.666 86.596 878.83 88.017C880.963 89.4175 882.275 91.5643 882.613 94.0892C882.994 96.9225 882.119 99.9613 880.254 102.131C878.702 103.938 876.536 105.03 874.143 105.075C870.879 105.135 869.076 103.668 866.827 101.577C856.254 105.328 845.984 109.635 835.656 114.004C835.605 114.232 835.557 114.461 835.503 114.689C834.652 118.291 832.943 122.427 829.57 124.343C826.035 126.35 822.584 125.475 818.898 124.602C809.344 136.836 798.686 148.264 788.58 160.049C788.741 161.953 789.107 163.915 789.082 165.825C789.048 168.397 788.059 170.275 786.206 172.021C784.074 174.03 782.446 174.314 779.603 174.208C777.66 174.136 775.408 173.737 774.103 172.136C772.215 169.82 772.708 165.826 772.958 163.035C773.452 157.509 756.16 132.76 751.886 127.218C750.318 125.185 747.339 121.861 744.605 121.703C741.702 121.535 721.358 141.66 717.738 145.048C717.304 147.982 716.938 151.721 714.512 153.755C711.993 155.868 708.162 155.395 705.125 155.145C697.717 159.719 690.353 164.272 683.29 169.375C682.354 174.095 681.251 176.777 677.641 180.048C676.01 180.227 673.981 180.452 672.346 180.216C669.798 179.847 666.911 177.82 665.478 175.717C664.296 173.981 664.03 172.013 664.475 169.98C667.051 158.234 672.924 164.509 679.17 162.613C684.187 161.09 697.589 151.825 701.347 148.034C702.999 146.367 703.732 143.914 705.533 142.383C708.505 139.857 712.523 138.03 715.789 135.789C720.444 132.595 739.464 117.8 740.105 113.435C740.345 111.795 740.404 109.926 740.913 108.35C741.665 106.024 743.533 104.374 745.693 103.356C747.55 102.482 749.501 101.86 751.494 102.653C753.549 103.47 754.73 105.376 755.614 107.298C757.664 111.758 757.195 113.92 755.532 118.389C763.453 129.908 771.389 146.783 780.787 156.409C792.224 144.818 803.399 132.589 813.342 119.689C815.59 116.772 813.577 113.183 814.615 109.86C815.312 107.629 817.21 105.865 819.318 104.966C823.592 103.143 828.145 105.119 832.069 106.857C842.891 102.164 853.966 97.9296 864.904 93.5049C866.731 90.3462 868.732 88.3823 871.6 86.2055Z"/>
	<path fill="#E0E1E7" d="M907.055 184.355Q906.258 287.514 907.182 390.672C817.891 391.721 728.431 390.776 639.127 390.384L638.973 184.306L827.44 184.169C853.954 184.21 880.555 184.909 907.055 184.355Z"/>
	<path fill="#1B2746" d="M737.011 272.504L752.844 272.534L752.816 366.899L737.06 367.003L737.011 272.504Z"/>
	<path fill="#1B2746" d="M659.878 268.605L675.501 268.641L675.724 366.949L659.976 366.975C659.156 334.258 659.922 301.341 659.878 268.605Z"/>
	<path fill="#1B2746" d="M685.514 246.942L701.261 246.965L701.243 366.959L685.462 366.992Q685.095 306.966 685.514 246.942Z"/>
	<path fill="#1B2746" d="M814.768 245.404L830.675 245.396L830.874 366.906L814.923 366.921Q815.348 306.162 814.768 245.404Z"/>
	<path fill="#1B2746" d="M763.505 242.048L779.411 242.073L779.713 366.95L763.376 367.031Q763.027 304.537 763.505 242.048Z"/>
	<path fill="#1B2746" d="M711.252 213.045L726.685 213.032L726.763 366.944L711.007 366.959L711.252 213.045Z"/>
	<path fill="#1B2746" d="M866.758 193.98L881.947 194.157L882.029 366.852L866.959 366.972L866.758 193.98Z"/>
	<path fill="#1B2746" d="M840.756 199.492L856.559 199.47L856.482 366.884L840.807 366.937L840.756 199.492Z"/>
	<path fill="#1B2746" d="M788.988 199.54L805.072 199.503Q804.608 283.208 805.334 366.91L788.78 367.027L788.988 199.54Z"/>
	<path fill="#FEFEFE" d="M167.042 752.46C153.417 730.073 143.772 704.679 136.523 679.598C130.991 660.459 126.078 640.934 123.176 621.214C112.895 551.353 119.501 468.559 136.197 399.968C151.136 338.592 177.658 254.351 234.601 219.637Q235.542 219.055 236.496 218.497Q237.451 217.939 238.42 217.405Q239.388 216.871 240.37 216.362Q241.351 215.852 242.345 215.367Q243.339 214.882 244.345 214.422Q245.351 213.962 246.368 213.528Q247.385 213.093 248.412 212.684Q249.44 212.275 250.477 211.892Q251.515 211.509 252.561 211.152Q253.608 210.795 254.663 210.464Q255.719 210.133 256.782 209.829Q257.845 209.524 258.916 209.247Q259.986 208.969 261.063 208.718Q262.14 208.467 263.223 208.244Q264.306 208.02 265.395 207.823Q266.483 207.627 267.576 207.457Q268.669 207.288 269.765 207.146Q270.862 207.004 271.962 206.89Q273.062 206.775 274.164 206.688Q275.267 206.601 276.371 206.542Q277.476 206.483 278.581 206.451Q279.686 206.419 280.792 206.415Q281.898 206.411 283.004 206.435Q284.109 206.458 285.214 206.51Q286.319 206.561 287.422 206.64Q288.525 206.719 289.626 206.825Q290.727 206.932 291.824 207.066Q292.922 207.2 294.016 207.361Q295.11 207.522 296.2 207.711Q297.29 207.9 298.374 208.115Q299.459 208.331 300.538 208.574Q301.617 208.817 302.689 209.087C351.309 221.06 430.737 289.773 471.3 321.613C502.248 345.906 533.447 370.235 565.779 392.667C629.22 436.681 697.89 476.078 769.104 506.129C833.7 479.712 894.888 443.227 952.444 404C978.957 385.93 1005.2 366.739 1030.79 347.387C1095.1 298.763 1176.83 233.161 1262.05 268.862C1304.85 286.794 1339.76 326.642 1361.34 366.864C1368.11 379.491 1373.34 392.981 1378.74 406.234C1411.7 487.171 1411.6 587.844 1377.63 668.423C1360.77 708.41 1338.35 742.601 1310.47 775.732C1304.72 782.567 1298.73 790.877 1291.87 796.57L1291.35 795.873L1291.02 796.646C1290.5 795.351 1290.11 794.156 1289.26 793.038C1292.44 802.284 1296.74 897.175 1293.97 903.115C1293.75 903.598 1293.62 903.784 1293.36 904.207C1284.31 904.166 1275.45 905.232 1266.48 906.273L1266.86 906.223L1266.97 906.655L1275.98 906.639C1276.51 907.554 1277.01 908.542 1277.16 909.604C1277.92 915.058 1281.06 970.538 1280.46 972.625C1280.27 973.29 1280.17 973.365 1279.84 973.865C1293.9 973.816 1417.83 972.329 1421.05 973.802L1420.91 974.955C1419.98 975.601 1419.31 976.027 1418.15 976.113C1407.04 976.941 1395.01 975.963 1383.81 975.974L1304.86 976.219Q1240.7 977.044 1176.54 976.755C1157.38 976.769 1137.93 977.66 1118.81 976.865C1112.86 975.217 1103.35 976.43 1096.97 976.462C1075.46 976.568 1049.25 978.103 1028.25 976.328L1027.6 975.341C1010.61 974.748 993.564 975.537 976.559 975.18C977.169 976.405 977.543 976.81 978.73 977.49Q907.061 978.441 835.387 978.348C825.245 978.341 794.673 979.83 786.915 977.362L786.678 976.377C788.741 975.024 790.284 975.172 792.646 975.27L793.587 975.313L793.419 973.678C777.434 975.93 758.428 974.155 742.108 974.164L639.593 974.387L292.176 974.387C263.85 974.38 49.839 976.153 46.6222 973.752L47.0126 972.668C52.508 970.808 76.814 971.95 84.0849 971.893C83.5457 952.813 89.3271 937.722 94.3039 919.724L94.615 916.062C104.394 867.86 121.973 819.883 148.451 778.292C154.127 769.375 160.733 760.94 167.042 752.46Z"/>
	<path fill="#010101" d="M482.322 607.646C484.854 607.547 487.401 607.386 489.928 607.626C491.26 607.752 491.174 607.691 492.007 608.715L491.044 610.418C489.713 610.971 488.063 611.575 486.63 611.725C484.545 611.944 483.881 611.416 482.399 610.176L482.322 607.646Z"/>
	<path fill="#1B2746" d="M726.117 719.049C725.938 718.847 725.743 718.658 725.579 718.443C724.574 717.124 724.305 716.458 724.527 714.858C726.783 714.236 727.293 714.815 729.391 715.718L732.487 717.296L731.697 722.451L726.117 719.049Z"/>
	<path fill="#15151A" d="M769.433 582.911C768.179 580.943 767.463 578.423 766.753 576.208C765.476 572.221 764.461 567.224 766.465 563.359C767.197 563.943 767.137 564.173 768.114 564.065C767.991 569.393 771.464 576.361 770.428 581.066L769.662 581.352L769.433 582.911Z"/>
	<path fill="#15151A" d="M558.76 642.433C568.971 645.61 568.336 653.118 573.361 655.197C571.495 654.937 569.558 655 567.673 654.961C565.394 649.046 562.625 647.218 557.083 644.724L558.76 642.433Z"/>
	<path fill="#010101" d="M497.825 616.173L498.67 616.504C500.218 618.167 500.973 620.185 501.038 622.474C501.142 626.151 500.006 628.104 497.512 630.632L496.152 629.823C495.312 627.338 494.506 625.027 494.61 622.363C494.738 619.068 495.571 618.386 497.825 616.173Z"/>
	<path fill="#010101" d="M503.686 641.418C514.425 641.175 550.272 639.733 558.76 642.433L557.083 644.724C544.821 642.934 531.431 643.831 519 643.787C514.273 643.77 509.105 644.219 504.482 643.166L503.686 641.418Z"/>
	<path fill="#010101" d="M766.465 563.359L767.797 561.485C768.331 561.489 768.896 561.322 769.401 561.498C770.43 561.859 789.628 578.781 791.489 580.677C792.89 582.105 793.768 583.439 794.213 585.407C793.613 586.793 793.604 587.157 792.092 587.714C787.254 589.495 775.164 587.153 770.428 585.03L769.433 582.911L769.662 581.352L770.428 581.066C771.67 582.843 772.703 583.501 774.813 583.987C778.475 584.83 787.57 587.347 790.778 585.381C790.729 585.183 790.701 584.977 790.629 584.786C789.263 581.182 771.985 565.976 768.114 564.065C767.137 564.173 767.197 563.943 766.465 563.359Z"/>
	<path fill="#010101" d="M497.246 531.045C500.162 531.43 502.824 531.805 504.675 534.39C505.862 536.049 506.134 537.747 505.64 539.716C504.825 542.959 502.741 544.358 500.028 545.907C499.802 545.875 499.575 545.845 499.349 545.81C496.516 545.372 494.117 544.658 492.436 542.162C491.488 540.752 491.249 539.243 491.607 537.59C492.319 534.296 494.618 532.744 497.246 531.045Z"/>
	<path fill="#010101" d="M586.098 549.049L586.664 549.179C588.756 550.804 589.72 552.924 590.951 555.206Q581.03 562.548 571.184 569.989C568.934 568.122 567.402 565.337 565.775 562.927C572.738 558.645 579.145 553.421 586.098 549.049Z"/>
	<path fill="#3C5178" d="M768.114 564.065C771.985 565.976 789.263 581.182 790.629 584.786C790.701 584.977 790.729 585.183 790.778 585.381C787.57 587.347 778.475 584.83 774.813 583.987C772.703 583.501 771.67 582.843 770.428 581.066C771.464 576.361 767.991 569.393 768.114 564.065Z"/>
	<path fill="#010101" d="M515.305 567.306Q531.705 567.141 548.106 567.25L547.821 576.572C538.001 576.687 525.091 578.318 515.709 576.032C514.66 573.377 515.186 570.122 515.305 567.306Z"/>
	<path fill="#010101" d="M558.785 507.841C561.124 510.104 562.845 512.704 564.669 515.38C548.71 523.414 533.176 534.025 518.195 543.775C515.703 541.249 514.229 537.788 513.107 534.481C520.852 530.443 528.299 525.685 535.889 521.354C543.532 516.993 551.712 513.086 558.785 507.841Z"/>
	<path fill="#010101" d="M492.307 597.522C519.548 596.683 546.954 597.524 574.21 597.781L569.256 607.199C564.601 609.299 500.285 607.389 491.441 606.354C491.136 604.425 490.645 602.276 490.784 600.326C490.898 598.718 491.187 598.55 492.307 597.522Z"/>
	<path fill="#010101" d="M1008.86 435.14C1011.72 434.948 1014.74 435.149 1017.62 435.162L1021.84 444.599C1024.26 444.357 1027.55 443.681 1029.91 444.247C1031.84 444.71 1033.36 445.521 1034.45 447.136L1033.7 448.519C1031.14 450.41 1027.5 450.417 1024.43 450.781C1024.56 450.917 1024.69 451.051 1024.82 451.19C1026.9 453.445 1028.27 455.933 1028.13 459.062L978.563 459.116C972.334 459.125 965.687 459.906 959.531 459.574C957.651 459.473 955.687 458.103 954.577 456.626C953.393 455.052 953.27 454.183 953.518 452.309C957.766 449.329 992.878 450.11 1000.71 449.673L996.75 438.405C999.427 438.653 1005.3 439.797 1007.63 438.272C1008.6 437.631 1008.6 436.24 1008.86 435.14Z"/>
	<path fill="#010101" d="M557.874 520.503C563.119 522.454 577.511 544.297 581.402 549.754L566.639 560.402C559.137 550.384 549.713 541.267 541.455 531.815L541.494 542.727L542.043 565.503C535.396 565.158 528.644 565.361 521.983 565.344C521.931 562.938 522.198 552.305 520.373 551.139C518.562 549.983 516.956 550.672 515.219 548.838L516.772 548.451L515.583 547.976C526.507 538.463 545.082 528.523 557.874 520.503Z"/>
	<path fill="#F0A041" d="M963.551 948.946C968.222 947.973 973.133 947.558 977.862 946.674C993.83 943.69 1009.6 940.362 1025.26 935.977C1041.96 931.301 1058.85 926.417 1075.31 920.95C1084.39 917.932 1093.1 914.069 1102.36 911.545C1101.2 918.409 1089.3 926.544 1083.62 930.599C1071.48 939.275 1051.96 947.618 1044.28 960.508C1041.55 965.074 1040.24 970.359 1038.2 975.237L1027.6 975.341C1010.61 974.748 993.564 975.537 976.559 975.18C978.011 972.609 979.277 970.292 979.543 967.281C979.931 962.885 977.537 959.4 974.944 956.148C975.236 954.118 975.142 952.458 974.823 950.435L973.947 949.928L963.551 948.946Z"/>
	<path fill="#010101" d="M172.885 745.09Q172.637 744.273 172.403 743.451C171.388 739.866 171.053 736.781 173.325 733.508C174.479 731.845 175.509 731.769 177.324 731.581C179.662 732.321 180.693 733.223 182.247 735.098C185.315 739.895 188.712 744.375 192.899 748.261C162.212 786.264 140.353 830.348 121.643 875.306C116.134 888.544 110.15 902.085 106.621 915.996L94.615 916.062C104.394 867.86 121.973 819.883 148.451 778.292C154.127 769.375 160.733 760.94 167.042 752.46L172.885 745.09Z"/>
	<path fill="#010101" d="M377.053 383.513C375.154 370.101 375.982 356.554 383.626 344.935C407.586 308.515 444.476 345.392 456.197 343.024C457.741 340.952 457.236 337.871 457.207 335.382C459.654 338.785 461.613 342.087 462.607 346.203C463.784 351.073 463.435 356.23 460.661 360.532C456.812 366.498 450.953 367.971 444.429 369.441C443.907 372.551 442.948 375.474 444.681 378.263C446.415 378.729 447.687 379.332 449.187 380.317L449.189 381.369C447.493 381.981 445.822 382.378 444.06 382.755C445.812 383.614 446.058 383.58 447.899 383.384C449.547 382.171 450.827 381.198 452.835 380.713C458.701 382.512 463.606 392.603 466.866 397.703C461.595 402.586 455.26 406.743 449.415 410.912C445.766 406.799 443.009 401.824 438.998 398.073C438.861 398.837 438.726 399.606 438.275 400.262C437.502 401.387 435.908 402.392 434.586 402.694C433.154 403.021 431.392 402.754 430.211 401.837C428.705 400.668 428.408 399.725 428.06 397.93C429.306 394.865 433.657 392.948 436.407 391.2C437.338 388.799 438.105 386.65 438.413 384.065C437.72 382.032 437.614 381.986 435.796 380.825L434.846 381.141C434.56 382.893 434.49 384.549 433.262 385.926C431.022 385.575 430.44 384.293 429.015 382.658C427.391 384.323 427.055 386.837 426.571 389.108C426.53 389.302 426.494 389.497 426.455 389.692L425.69 389.361C424.655 387.03 425.172 383.071 425.213 380.475C421.485 377.346 416.148 376.007 411.991 373.415C408.777 371.41 406.19 368.387 403.271 365.995C402.864 367.481 402.776 368.699 401.685 369.81C400.533 369 399.519 368.495 398.213 367.963L396.998 368.8C397.629 369.967 398.348 371.165 398.666 372.461C399.02 373.904 398.968 374.062 398.262 375.275L396.957 374.754C396.187 372.993 395.762 371.321 395.39 369.438L394.172 368.724L392.558 369.748C391.829 370.96 391.158 372.114 391.051 373.556C390.915 375.368 391.536 377.131 392.856 378.397C394.856 380.314 397.832 381.109 400.531 381.033C401.624 380.224 402.678 379.516 403.861 378.848L404.625 379.76C405.141 383.256 403.864 386.136 402.045 389.049L401.106 389.203C400.542 387.949 399.699 386.5 399.917 385.087C399.955 384.836 400.015 384.589 400.064 384.34C396.251 383.062 392.873 381.854 389.765 379.235C383.248 384.267 375.743 388.379 368.578 392.408L386.964 420.257C391.696 415.358 396.626 410.635 401.49 405.866L401.757 406.397C401.908 406.69 402.069 406.979 402.216 407.274C403.397 409.638 404.411 411.176 406.401 412.922C408.684 414.923 411.574 416.706 414.726 416.365C417.956 416.016 420.407 413.698 422.276 411.228C422.681 408.63 421.844 407.943 420.59 405.814L421.136 405.148C424.252 406.219 426.458 406.437 429.746 406.05C431.134 405.886 431.039 406.136 432.136 406.891L432.212 407.638C430.098 409.846 428.81 408.203 426.722 409.89C424.011 412.079 422.69 415.937 419.81 417.962C417.517 419.574 414.219 419.666 411.551 419.231C406.556 418.417 403.4 414.502 400.699 410.602Q394.521 416.661 388.138 422.502C390.684 428.143 392.429 434.378 394.451 440.237C400.173 456.817 405.311 473.969 412.434 489.985C417.353 489.193 420.977 490.696 423.781 490.313C431.213 489.299 444.856 481.477 452.205 478.281C455.107 474.771 454.861 471.517 456.812 467.766C460.681 460.327 469.106 456.738 475.147 451.413L475.665 450.948C466.89 438.49 457.822 426.122 447.985 414.477C448.06 414.403 448.136 414.329 448.21 414.254C453.843 408.484 460.955 404.327 467.338 399.42C477.177 413.713 489.378 426.129 497.825 441.415C499.84 439.862 502.052 438.459 504.141 437.005C510.665 444.175 548.233 500.975 552.202 510.144C541.294 517.71 521.526 530.304 509.102 533.754C507.003 532.595 505.21 531.137 503.199 529.864C501.286 528.653 498.901 528.13 496.686 528.707C493.603 529.51 490.702 532.031 489.317 534.874C488.187 537.195 488.259 539.493 489.235 541.861C490.436 544.776 493.71 547.674 496.688 548.686C498.491 549.299 500.572 549.207 502.25 548.267C506.075 546.124 507.526 542.269 508.52 538.285C508.746 537.38 509.034 536.682 509.532 535.877L510.735 535.84Q513.641 540.549 516.479 545.299C512.183 549.591 507.128 554.23 500.812 554.982C494.951 555.679 491.317 553.595 486.885 550.213Q485.667 552.624 484.598 555.105Q483.53 557.585 482.615 560.127Q481.7 562.668 480.941 565.261Q480.183 567.853 479.585 570.487Q478.986 573.121 478.55 575.787Q478.113 578.453 477.84 581.14Q477.567 583.827 477.459 586.526Q477.35 589.225 477.407 591.926C477.633 600.394 478.87 601.641 477.318 610.427C478.856 612.659 485.999 614.267 488.823 615.782L489.646 616.229C492.455 622.626 493.684 627.126 492.486 634.105L493.28 634.688C493.976 633.052 494.28 631.648 494.516 629.89C495.515 632.934 494.585 640.146 497.314 641.439C499.068 642.27 501.6 641.673 503.463 641.443C503.538 641.434 503.612 641.426 503.686 641.418L504.482 643.166C509.105 644.219 514.273 643.77 519 643.787C531.431 643.831 544.821 642.934 557.083 644.724C562.625 647.218 565.394 649.046 567.673 654.961C569.558 655 571.495 654.937 573.361 655.197C575.216 655.78 575.908 656.126 576.899 657.876C578.737 661.126 578.41 666.856 578.396 670.542L422.463 670.439C418.798 670.55 414.799 670.982 411.219 670.185C410.752 669.294 410.434 668.586 410.367 667.567C409.97 661.518 411.509 654.633 415.593 650.014C422.351 642.369 434.103 641.772 443.588 641.273C440.524 612.682 444.292 581.525 459 556.296C467.835 541.141 482.119 526.361 499.418 521.771C506.332 523.997 510.902 527.158 516.531 531.579C511.86 518.819 500.506 504.945 492.878 493.559C490.871 491.89 490.994 489.4 488.31 488.57L486.542 489.94C487.857 491.834 488.61 492.837 488.492 495.188C487.527 497.392 486.392 498.34 484.13 499.211C480.42 500.638 476.38 501.164 472.555 502.206C476.163 502.848 482.073 503.137 484.363 506.287C484.459 507.416 484.744 507.711 484.003 508.666C480.172 513.611 458.894 513.604 451.545 517.296C447.455 519.35 442.907 521.182 438.598 522.72C435.428 523.7 431.968 524.475 429.239 526.398L428.389 528.535C429.761 534.034 430.769 539.754 432.509 545.142C410.226 550.197 387.233 552.814 364.657 556.317C359.376 566.065 353.592 574.461 345.822 582.426C363.405 617.302 383.692 650.841 401.512 685.639C406.108 694.613 412.576 703.846 415.692 713.386C418.043 720.585 408.603 897.398 405.538 914.862C387.069 915.505 368.309 915.168 349.833 914.687C348.748 900.472 346.582 886.315 344.963 872.148C339.836 827.286 337.256 783.176 347.995 738.866C345.737 737.873 342.875 736.815 341.819 734.394C341.1 732.745 341.528 732.224 342.058 730.663C346.201 726.179 354.203 724.523 360.07 724.228C362.467 724.107 364.577 724.311 366.742 725.426C368.896 728.885 362.872 797.963 362.567 807.95C361.526 841.992 362.102 876.538 365.794 910.409C368.157 901.112 364.357 866.988 363.927 855.004C363.469 842.253 363.715 829.442 363.778 816.683C363.858 800.65 365.85 784.816 366.553 768.826C366.85 762.067 371.132 729.861 369.025 725.901C368.061 724.09 366.429 723.209 364.487 722.726C358.709 721.289 352.293 723.804 346.967 725.788C332.419 709.807 313.137 698.177 297.95 682.773C293.495 697.904 289.518 713.441 284.082 728.242L257.864 720.51C250.553 753.136 225.721 793.235 208.671 822.531C202.277 833.431 157.41 913.056 152.428 916.086L107.74 916.023C110.829 904.626 115.625 893.572 120.088 882.656C134.961 846.284 152.187 809.626 173.485 776.574C179.615 767.062 186.759 758.452 193.564 749.441C195.591 750.533 198.589 752.483 200.884 752.318C199.294 750.001 196.621 748.772 194.248 747.361C198.678 738.104 200.448 729.144 203.261 719.399C203.994 716.861 207.596 706.751 206.487 704.741C204.162 706.916 196.822 738.323 193.266 745.216L192.839 746.03C189.263 742.458 186.214 738.415 183.085 734.457C181.878 732.559 180.363 730.819 178.97 729.052C180.223 718.546 182.792 708.132 185.091 697.813C170.456 693.609 156.133 688.367 141.771 683.326C145.514 675.956 148.256 667.775 151.515 660.15Q161.254 637.504 171.636 615.145C203.928 545.868 254.382 458.403 316.374 412.549C322.77 407.817 329.495 403.419 336.999 400.645C341.886 398.838 347.161 397.549 351.886 395.394C355.963 393.533 359.5 390.468 363.635 388.776C369.907 386.21 367.816 390.119 377.053 383.513Z"/>
	<path fill="#FEFEFE" d="M408.969 367.497C409.672 367.45 410.283 367.435 410.987 367.488C417.248 367.96 426.669 372.827 430.782 377.619C430.541 377.67 430.303 377.731 430.06 377.773C423.624 378.887 413.929 371.18 408.969 367.497Z"/>
	<path fill="#E0E1E7" d="M455.524 477.655C457.614 474.143 459.465 470.494 461.55 466.992C462.815 464.866 463.811 464.046 466.193 463.473C468.611 465.068 469.199 467.276 470.459 469.832L471.109 471.455C465.674 472.991 460.655 475.334 455.524 477.655Z"/>
	<path fill="#FEFEFE" d="M420.905 365.585C421.958 365.41 423.056 365.278 424.125 365.379C429.42 365.883 437.349 367.043 441 371.218C442.024 373.741 441.181 376.146 440.627 378.708C435.447 377.063 423.105 370.966 419.734 366.59L420.905 365.585Z"/>
	<path fill="#FEFEFE" d="M359.908 556.985L360.447 557.877C356.849 564.644 351.134 574.058 344.901 578.571C343.468 577.94 342.836 576.21 342.046 574.863C339.33 570.246 336.923 565.432 334.434 560.69C342.758 558.944 351.474 558.154 359.908 556.985Z"/>
	<path fill="#FEFEFE" d="M473.742 618.275C475.368 618.258 477.1 618.208 478.678 618.648C481.535 619.445 484.199 621.546 485.635 624.139Q485.9 624.608 486.113 625.103Q486.326 625.599 486.484 626.114Q486.642 626.63 486.743 627.159Q486.844 627.689 486.887 628.226Q486.93 628.763 486.914 629.302Q486.899 629.841 486.825 630.375Q486.751 630.909 486.619 631.432Q486.488 631.955 486.3 632.46C484.876 636.346 482.241 637.948 478.7 639.539C477.281 639.485 475.754 639.476 474.358 639.202C471.512 638.644 468.853 636.767 467.291 634.332Q467.006 633.894 466.769 633.427Q466.532 632.961 466.347 632.472Q466.162 631.982 466.031 631.476Q465.9 630.97 465.824 630.453Q465.748 629.935 465.728 629.412Q465.708 628.89 465.744 628.368Q465.78 627.846 465.873 627.332Q465.965 626.817 466.112 626.315C467.338 622.18 470.204 620.241 473.742 618.275Z"/>
	<path fill="#010101" d="M474.61 621.034C477.635 621.582 480.157 622.048 482.108 624.705C483.251 626.262 483.795 627.956 483.48 629.885C482.978 632.961 481.094 634.601 478.724 636.344Q477.468 636.324 476.22 636.182C473.71 635.907 471.737 635.065 470.239 632.948C469.078 631.306 468.73 629.59 469.132 627.622C469.816 624.279 471.942 622.749 474.61 621.034Z"/>
	<path fill="#FEFEFE" d="M363.873 392.17C368.105 394.369 382.368 418.018 385.55 423.441C384.184 426.14 381.677 432.58 378.753 433.73L377.319 432.346C368.708 421.463 360.059 410.216 350.491 400.164C354.994 397.583 359.42 394.837 363.873 392.17Z"/>
	<path fill="#FEFEFE" d="M391.01 441.596C393.824 444.526 406.362 483.061 409.161 490.336C402.836 490.857 396.476 491.888 390.176 492.692Q381.828 493.559 373.529 494.807C383.689 477.716 388.685 461.331 391.01 441.596Z"/>
	<path fill="#FEFEFE" d="M423.235 494.072C435.975 488.601 474.992 469.492 487.056 472.471C488.319 472.782 488.281 472.815 488.908 473.911C485.336 477.726 462.676 483.189 456.14 486.407L455.859 487.812C458.395 489.925 475.923 481.877 481.434 482.393L485.289 484.454C485.366 486.119 484.975 486.164 483.901 487.365C483.727 487.451 483.555 487.54 483.38 487.621C476.278 490.908 464.344 489.915 458.457 494.767C458.845 495.308 458.885 495.692 459.579 495.793C468.344 497.062 476.03 490.63 485.321 493.215L486.06 494.198C480.393 500.651 465.104 497.279 460.98 502.486C462.581 504.429 466.104 504.634 468.468 504.868C473.521 505.368 478.492 505.695 483.398 507.098C474.519 509.702 465.226 509.935 456.426 512.429C449.685 514.339 443.229 518.017 436.552 520.319C433.816 521.178 430.755 522.902 428.067 521.963L427.167 519.214C426.282 510.805 424.199 502.509 423.235 494.072Z"/>
	<path fill="#E0E1E7" d="M505.896 444.999C520.665 465.428 533.718 487.006 548.017 507.75C538.931 514.837 528.346 520.586 518.492 526.558C510.775 514.858 503.295 502.869 495.209 491.425C492.526 486.751 489.16 483.449 484.973 480.099C489.422 480.083 495.494 480.555 499.187 477.629C500.153 476.863 499.996 476.633 500.129 475.415C499.418 474.462 498.817 473.737 497.793 473.101C489.521 467.963 480.032 469.753 471.109 471.455L470.459 469.832C473.319 463.734 498.9 449.144 505.896 444.999Z"/>
	<path fill="#E0E1E7" d="M482.809 533.164C482.33 538.127 482.489 542.757 484.419 547.418C474.276 569.12 473.942 588.242 476.044 611.671C470.382 612.884 465.382 615.297 461.988 620.176Q461.552 620.809 461.183 621.483Q460.814 622.157 460.515 622.865Q460.216 623.573 459.992 624.308Q459.767 625.043 459.618 625.797Q459.469 626.551 459.397 627.316Q459.326 628.081 459.333 628.85Q459.34 629.618 459.425 630.382Q459.51 631.146 459.673 631.897C460.623 636.437 463.419 640.631 467.327 643.15C471.018 645.529 475.312 646.371 479.626 645.378C486.101 643.887 489.295 639.553 492.486 634.105L493.28 634.688C493.976 633.052 494.28 631.648 494.516 629.89C495.515 632.934 494.585 640.146 497.314 641.439C499.068 642.27 501.6 641.673 503.463 641.443C503.538 641.434 503.612 641.426 503.686 641.418L504.482 643.166C509.105 644.219 514.273 643.77 519 643.787C531.431 643.831 544.821 642.934 557.083 644.724C562.625 647.218 565.394 649.046 567.673 654.961Q519.189 655.317 470.704 655.055C452.39 655.029 433.791 655.723 415.509 654.761C416.128 653.777 416.797 652.837 417.583 651.976C424.54 644.362 436.355 644.451 445.844 644.087C445.514 632.937 444.904 621.707 445.865 610.578C448.428 580.899 459.711 552.659 482.809 533.164Z"/>
	<path fill="#FEFEFE" d="M346.625 399.932C354.953 408.492 371.871 433.852 379.747 438.753C382.675 435.846 385.099 430.879 387.507 427.407C389.511 451.916 382.949 475.467 369.18 495.708C363.223 496.319 357.269 497.243 351.332 498.043C355.761 482.081 362.052 461.082 358.525 444.634L357.432 444.393L357.826 443.481L358.472 444.711L357.244 445.306C356.094 452.716 356.105 460.451 355.186 467.926C353.908 478.325 351.141 488.509 348.306 498.568C339.77 500.398 324.294 502.518 318.577 509.394C321.567 510.648 336.308 504.066 340.505 503.095C366.406 497.104 393.274 496.527 419.337 491.81C421.36 501.118 422.89 510.574 424.371 519.98L426.304 529.662C426.845 534.212 427.88 538.767 428.716 543.274Q393.894 549.196 358.914 554.099C346.279 555.887 332.584 559.103 319.822 557.901C310.826 557.054 302.412 553.826 296.583 546.651C279.965 526.197 293.704 484.519 302.907 462.656C305.867 455.624 311.597 448.242 312.383 440.578L311.546 440.541C298.511 454.608 285.07 504.74 285.869 523.909C286.299 534.228 289.448 544.441 297.313 551.517C306.76 560.016 318.699 561.399 330.849 560.778C323.333 586.1 315.475 611.345 308.236 636.746C299.872 666.094 292.049 695.878 282.249 724.776L190.49 696.362C175.546 691.625 160.565 687.257 145.889 681.698C149.113 672.372 153.311 663.299 157.203 654.234C169.65 625.237 183.794 597.247 198.398 569.291C225.803 516.832 288.449 418.175 346.625 399.932Z"/>
	<path fill="#010101" d="M223.286 559.804C223.954 559.884 223.978 559.87 224.747 560.059C230.955 561.58 283.508 579.685 285.463 581.806C285.921 582.303 286.145 582.973 286.486 583.557C286.317 583.583 286.148 583.616 285.978 583.636C281.43 584.152 227.318 565.179 223.237 561.761L223.286 559.804Z"/>
	<path fill="#010101" d="M221.443 569.788C241.243 577.119 261.257 583.956 280.933 591.603C273.396 605.442 269.125 621.91 259.953 634.767C258.691 635.791 257.209 636.804 255.719 637.477C247.286 641.285 234.872 636.685 226.851 633.53C219.034 630.456 208.931 626.035 205.614 617.648C204.642 615.19 204.482 612.854 204.918 610.261C206.647 599.977 217.093 580.526 221.443 569.788Z"/>
	<path fill="#FEFEFE" d="M223.308 574.065C241.301 579.735 258.998 586.739 276.859 592.872C271.322 606.024 265.578 621.517 257.386 633.195C256.256 633.988 255.116 634.72 253.803 635.175C244.836 638.282 232.253 632.78 223.978 629.047C218.181 626.432 210.137 622.574 207.905 616.059C205.423 608.813 219.614 581.829 223.308 574.065Z"/>
	<path fill="#010101" d="M1112.94 363.067C1121.07 352.478 1132.59 344.875 1145.99 343.03C1156.14 341.633 1166.72 343.991 1174.93 350.221C1177.97 352.521 1186.65 360.595 1187.16 364.257C1187.19 364.503 1187.2 364.752 1187.22 365C1199.64 359.121 1209.52 353.693 1223.49 358.806Q1224.22 359.077 1224.95 359.385Q1225.67 359.693 1226.37 360.037Q1227.07 360.38 1227.76 360.759Q1228.45 361.137 1229.11 361.55Q1229.78 361.962 1230.42 362.407Q1231.07 362.852 1231.69 363.329Q1232.31 363.806 1232.91 364.314Q1233.51 364.821 1234.08 365.358Q1234.65 365.895 1235.19 366.459Q1235.73 367.024 1236.25 367.615Q1236.76 368.206 1237.25 368.822Q1237.73 369.439 1238.18 370.078Q1238.64 370.718 1239.06 371.38Q1239.48 372.041 1239.86 372.723Q1240.25 373.405 1240.6 374.105Q1240.95 374.805 1241.27 375.522C1244.86 383.466 1245.48 392.674 1242.3 400.859C1239 409.402 1232.15 415.756 1223.8 419.288L1222.94 419.647C1253.84 430.395 1282.46 473.185 1296.02 501.165C1301.91 513.324 1310.04 531.289 1305.25 544.724C1302.51 552.422 1295.94 557.147 1288.77 560.464C1279.39 564.809 1268.03 568.142 1257.88 569.881C1261.5 574.179 1264.44 588.167 1266.17 594.122Q1272.21 614.34 1277.46 634.778Q1282.7 655.215 1287.15 675.843Q1291.59 696.469 1295.23 717.254Q1298.87 738.039 1301.69 758.95C1302.28 763.042 1304.61 770.025 1304.11 773.885C1304.06 774.291 1303.8 774.971 1303.68 775.311C1300.14 779.449 1292.38 780.309 1287.25 781.101C1289.16 784.266 1290.4 788.747 1289.46 792.433C1289.4 792.639 1289.32 792.836 1289.26 793.038C1292.44 802.284 1296.74 897.175 1293.97 903.115C1293.75 903.598 1293.62 903.784 1293.36 904.207C1284.31 904.166 1275.45 905.232 1266.48 906.273L1266.86 906.223L1266.97 906.655L1275.98 906.639C1276.51 907.554 1277.01 908.542 1277.16 909.604C1277.92 915.058 1281.06 970.538 1280.46 972.625C1280.27 973.29 1280.17 973.365 1279.84 973.865C1293.9 973.816 1417.83 972.329 1421.05 973.802L1420.91 974.955C1419.98 975.601 1419.31 976.027 1418.15 976.113C1407.04 976.941 1395.01 975.963 1383.81 975.974L1304.86 976.219Q1240.7 977.044 1176.54 976.755C1157.38 976.769 1137.93 977.66 1118.81 976.865C1112.86 975.217 1103.35 976.43 1096.97 976.462C1075.46 976.568 1049.25 978.103 1028.25 976.328L1027.6 975.341L1038.2 975.237C1040.24 970.359 1041.55 965.074 1044.28 960.508C1051.96 947.618 1071.48 939.275 1083.62 930.599C1089.3 926.544 1101.2 918.409 1102.36 911.545C1103.19 911.167 1103.78 910.901 1104.39 910.209C1105.5 908.952 1105.48 908.883 1105.34 907.189C1099.3 904.113 1086.5 906.04 1079.39 905.678C1079.8 905.222 1080.18 904.755 1080.48 904.22C1083.49 898.974 1090.16 863.361 1092.16 854.881C1096.68 835.693 1102.15 816.642 1106.04 797.315C1106.5 794.988 1106.83 793.104 1106.31 790.752C1104.09 790.563 1101.82 791.06 1099.6 790.589C1097.65 790.173 1097.58 789.453 1096.61 787.825C1098.38 785.354 1098.88 781.693 1098.45 778.746C1098.62 778.381 1098.75 778.142 1098.88 777.777C1101.28 771.463 1101.86 763.378 1103.06 756.648L1111.21 710.466C1119.21 665.985 1129.38 621.427 1135.15 576.593C1135.43 574.433 1135.49 572.836 1134.59 570.789C1106.19 571.095 1077.64 571.646 1049.25 570.736C1048.2 564.45 968.822 478.304 958.623 461.062L1077.08 460.56C1086.13 465.823 1117.64 508.02 1126.57 518.282C1127.76 519.651 1128.06 520.221 1129.85 520.355C1129.28 514.793 1086.5 468.771 1080.06 459.53C1081.03 458.209 1081.78 457.362 1081.77 455.639L1080.88 454.916C1079.81 456.127 1078.76 457.465 1077.41 458.373C1077.17 458.529 1076.94 458.675 1076.7 458.827C1062.87 458.694 1044.32 460.759 1031.16 458.456C1030.75 458.003 1030.26 457.528 1030.03 456.944C1029.27 455.021 1029.47 454.061 1030.23 452.229C1031.19 451.445 1032.18 450.761 1033.37 450.364C1037.96 448.84 1076.6 448.613 1079.7 450.484C1084.63 453.461 1110.03 482.232 1111.39 487.542C1117.01 481.907 1123.56 461.155 1132.1 451.137C1135.78 446.831 1145.33 441.839 1146.74 436.714C1147.17 436.212 1147.17 436.246 1147.55 435.583C1148.94 433.126 1148.92 428.965 1148.02 426.394C1145.3 425.865 1142.43 425.395 1139.82 424.449C1128.53 420.365 1117.9 409.242 1113.02 398.437C1107.73 386.735 1108.57 374.848 1112.94 363.067Z"/>
	<path fill="#FEFEFE" d="M1130.03 618.519C1133.18 617.682 1138.16 617.368 1141.38 617.986C1143.28 618.352 1143.7 618.608 1144.76 620.169C1144.51 622.116 1144 622.992 1142.8 624.53C1142.55 624.604 1142.31 624.698 1142.06 624.753C1139.26 625.353 1134.23 626.023 1131.89 624.286C1130.11 622.961 1130.34 620.633 1130.03 618.519Z"/>
	<path fill="#E0E1E7" d="M1112.94 363.067C1118.11 363.262 1129.25 377.766 1144.48 378.274C1150.65 378.479 1158.26 377.003 1164.2 375.31C1166.68 374.604 1170 373.041 1172.55 372.93C1173.35 372.895 1173.76 373.017 1174.29 373.557C1171.29 374.917 1168.26 375.756 1165.29 377.297C1158.56 380.697 1149.14 381.289 1141.77 380.324C1130.08 378.791 1120.08 372.322 1112.94 363.067Z"/>
	<path fill="#F0A041" d="M1256.41 948.602L1257.47 949.007C1260.16 952.085 1259.89 968.686 1259.6 973.148C1257.62 974.373 1254.64 973.868 1252.31 973.883L1251.18 973.647L1250.45 972.242C1250.93 965.478 1252.75 954.279 1256.41 948.602Z"/>
	<path fill="#E5862E" d="M1119.63 947.838C1120.55 947.774 1121.49 947.876 1122.42 947.924C1125.41 953.609 1123.84 967.882 1123.3 974.366C1121.88 975.541 1119.19 975.126 1117.34 975.181L1115.76 974.621C1114.63 966.835 1118.03 955.623 1119.63 947.838Z"/>
	<path fill="#FEFEFE" d="M1199.03 416.726C1202.24 417.265 1205.74 419.288 1208.59 420.846C1208.73 422.605 1207.73 424.421 1207.07 426.021C1202.51 437.169 1194.45 435.627 1192.83 439.33C1194.81 441.349 1197.52 440.591 1199.92 441.727C1201.39 442.424 1201.34 442.833 1201.78 444.283C1200.06 449.948 1190.56 457.222 1185.54 460.243C1184.17 464.007 1176.68 468.993 1173.11 470.857C1178.71 464.767 1192.2 427.793 1199.03 416.726Z"/>
	<path fill="#FEFEFE" d="M1128.52 628.273C1132.93 627.299 1138.01 627.735 1142.53 627.705C1142.85 628.287 1143.12 628.866 1143.32 629.503C1145.03 634.797 1140.75 664.617 1138.01 670.08C1136.52 673.068 1135.02 674.209 1131.87 675.203C1128.86 677.474 1122.4 677.312 1118.64 677.606C1122.27 672.166 1129.75 634.645 1128.52 628.273Z"/>
	<path fill="#FEFEFE" d="M1139.66 447.479L1140.89 447.707L1141.45 448.601C1140.82 455.034 1139.1 461.272 1138.32 467.685C1137.13 477.534 1137.09 506.126 1133.7 513.304C1133.64 512.979 1133.6 512.648 1133.5 512.33C1132.68 509.55 1127.68 504.97 1125.21 503.439C1124.38 499.877 1117.09 492.62 1114.17 490.113C1117.72 486.306 1119.08 479.266 1121.26 474.476C1125.82 464.438 1131.85 455.29 1139.66 447.479Z"/>
	<path fill="#3C5178" d="M1174.5 387.867L1176 387.901C1178.16 391.574 1178.87 396.005 1181.27 399.593C1184.67 404.689 1190.49 408.483 1194.43 413.216L1194.89 413.777C1192.85 422.717 1181.37 451.1 1175.56 457.984C1175.82 459.973 1175.46 461.379 1174.48 463.081C1174.17 462.742 1164.39 425.264 1161.99 419.328C1167.36 416.625 1171.38 410.352 1173.58 404.891C1175.87 399.228 1176.9 393.66 1174.5 387.867Z"/>
	<path fill="#3C5178" d="M1173.79 415.955C1174.96 415.73 1176 415.768 1177.18 415.804L1177.31 416.622L1174.79 418.101C1174.08 418.293 1173.92 418.034 1173.27 417.729L1173.79 415.955Z"/>
	<path fill="#3C5178" d="M1174.29 373.557L1177.14 377.543C1176.35 378.006 1176.8 377.91 1175.82 377.731C1173.59 377.324 1171.87 377.212 1169.61 377.649L1169.3 378.513C1171.45 378.529 1173.44 378.592 1175.55 379.043C1176.77 380.522 1176.94 380.693 1177.18 382.703C1176.18 384.386 1172.7 385.506 1172.32 386.693C1171.5 389.238 1172.71 392.96 1172.45 395.744C1171.21 409.136 1161.41 418.027 1149.83 423.334C1135.72 420.983 1127.42 416.236 1119 404.472C1118.12 403.248 1117.17 401.993 1116.42 400.685C1114.73 397.463 1114.09 393.085 1113.19 389.535C1117.49 385.72 1122.59 382.687 1126.66 378.659C1130.52 379.853 1134.61 380.865 1138.27 382.568C1145.25 382.674 1155.95 383.704 1162.22 380.582C1164.1 379.65 1164.66 379.245 1165.29 377.297C1168.26 375.756 1171.29 374.917 1174.29 373.557Z"/>
	<path fill="#010101" d="M1141.25 387.004C1143.6 387.873 1145.63 388.674 1146.66 391.128C1147.24 392.525 1147.5 393.026 1147.02 394.434L1145.36 393.416C1141.69 395.427 1144.82 397.417 1138.16 396.925L1137.47 395.487C1132.32 398.25 1132.8 405.749 1125.94 405.977C1122.73 404.767 1119.33 403.307 1117.16 400.545L1115.48 395.639C1115.33 395.212 1115.65 394.464 1115.77 394.021L1117.93 395.124C1121.49 394.612 1125.43 394.183 1128.77 395.768C1128.64 397.585 1128.34 399.296 1129.11 401.006C1130.44 400.798 1131.07 399.682 1131.98 398.724C1131.24 398.16 1130.8 397.625 1130.28 396.863C1131.18 393.638 1138.46 389.037 1141.25 387.004Z"/>
	<path fill="#3C5178" d="M1141.52 525.321C1141.4 525.192 1141.28 525.061 1141.15 524.933C1138.89 522.585 1135.64 521.578 1134.16 518.627L1134.35 516.524L1134.79 516.179L1135.77 517.361L1135.8 515.898C1141.48 517.26 1147.49 522.144 1152.94 524.598C1158.66 527.17 1170.37 530.314 1174.69 533.68C1177.14 538.977 1183.72 562.55 1182.7 567.929C1178.56 567.04 1174.32 566.021 1170.11 565.614C1162.41 564.869 1130.41 564.501 1126.89 559.361C1126.55 558.864 1126.47 558.626 1126.25 558.107C1122.73 556.902 1117 557.012 1114.36 554.713L1114.21 553.318C1115.74 551.58 1116.93 550.628 1119.42 550.445C1126.55 549.918 1135.5 550.881 1142.59 552L1143.08 551.243C1142.44 549.916 1142 547.996 1140.54 547.464C1133 544.712 1114.33 548.131 1101.58 544.003C1101.48 543.825 1101.37 543.658 1101.29 543.47C1100.68 541.873 1100.86 541.185 1101.62 539.735C1108.8 534.869 1128.56 539.308 1137.94 537.705L1138.44 536.258L1137.81 535.125C1129.52 534.768 1112.9 536.615 1105.92 533.144C1104.84 531.636 1104.82 531.661 1104.95 529.817C1106.44 528.022 1108.42 527.58 1110.67 527.357C1120.9 526.342 1131.34 527.372 1141.52 525.321Z"/>
	<path fill="#4E6F9C" d="M1138.44 536.258C1139.5 536.907 1140.39 537.294 1141.07 538.369L1140.47 539.238C1136.07 539.306 1110.89 538.197 1108.7 539.92C1117.65 544.314 1130.24 539.234 1139.73 543.4C1132.35 544.505 1124.64 542.801 1117.24 542.654C1112.58 542.561 1108.09 543.106 1103.41 542.58L1101.58 544.003C1101.48 543.825 1101.37 543.658 1101.29 543.47C1100.68 541.873 1100.86 541.185 1101.62 539.735C1108.8 534.869 1128.56 539.308 1137.94 537.705L1138.44 536.258Z"/>
	<path fill="#FEFEFE" d="M1183.12 789.37C1192.29 789.479 1201.6 788.661 1210.78 788.392C1211.13 788.94 1211.42 789.488 1211.66 790.094C1213.4 794.416 1214.13 841.51 1212.31 845.154C1213.57 848.859 1213.86 860.983 1212.2 864.357C1212.08 864.614 1211.93 864.86 1211.8 865.112C1208.36 868.862 1171.66 888.501 1166.92 888.896C1169.19 885.374 1184.07 794.819 1183.12 789.37Z"/>
	<path fill="#F0A041" d="M1211.8 865.112C1211.93 864.86 1212.08 864.614 1212.2 864.357C1213.86 860.983 1213.57 848.859 1212.31 845.154C1214.02 848.653 1213.54 900.73 1212.14 904.636C1211.99 905.042 1211.8 905.433 1211.63 905.829L1238.43 905.839C1231.41 925.624 1214.32 937.985 1197.89 949.853C1192.41 953.817 1186.46 957.695 1182.19 963.025C1179.49 966.397 1179.01 970.842 1176.83 974.478L1145.89 974.482C1146.98 971.12 1143.78 908.804 1142.62 906.677C1142.56 906.553 1142.48 906.435 1142.4 906.313L1163.93 906.19C1165.96 903.299 1167.84 892.908 1167.09 889.428C1167.05 889.246 1166.97 889.073 1166.92 888.896C1171.66 888.501 1208.36 868.862 1211.8 865.112Z"/>
	<path fill="#FEFEFE" d="M1213.26 421.226C1221.71 420.007 1230.39 425.96 1237.03 430.621C1264.32 449.772 1297.91 497.215 1303.43 530.19C1304.53 536.795 1303.87 543.737 1299.77 549.251C1296.27 553.947 1290.41 556.838 1285.13 559.005C1266.62 566.595 1245.92 569.846 1226.39 573.807C1214.09 576.299 1201.68 579.252 1189.27 580.994C1189.74 578.262 1178.95 532.579 1176.71 529.151C1198.93 524.199 1220.44 515.48 1242.79 511.13C1247.7 510.176 1252.68 509.406 1257.69 509.528C1260.57 509.598 1263.54 510.497 1266.38 510.043L1266.76 508.98L1265.9 507.996C1259.95 505.701 1250.69 507.371 1244.41 507.776C1248.88 505.946 1253.79 503.392 1256.71 499.481L1255 499.189L1256.77 498.944L1256.18 500.199C1255.66 499.913 1255.21 499.413 1254.63 499.342C1252.16 499.043 1243.28 508.709 1238.47 508.277C1235.13 507.977 1231.66 494.688 1228.95 491.445C1228.85 491.322 1228.74 491.204 1228.63 491.084C1229.48 488.059 1224.03 471.172 1223.65 465.849C1223.39 462.185 1225.14 456.47 1224.05 453.38C1223.86 453.503 1223.66 453.614 1223.47 453.749C1221.19 455.419 1220.98 459.853 1220.98 462.46C1220.96 469.45 1222.34 476.397 1224.27 483.092C1225.94 488.861 1234.06 506.633 1233.67 510.237C1226.42 512.325 1178.19 525.18 1175.21 526.964L1174.59 529.753L1173.81 530.224C1160.85 526.629 1149.91 519.234 1137.53 514.386L1136.89 514.136C1138.73 509.796 1138.2 502.041 1138.47 497.196C1139.02 487.265 1142.02 452.754 1145.12 444.671C1145.86 442.749 1147.53 441.502 1148.57 439.781C1148.68 439.61 1148.77 439.43 1148.86 439.255C1150.75 435.419 1152.07 430.065 1151.99 425.786C1154.26 424.582 1156.93 422.699 1158.22 420.465C1159.01 421.301 1159.8 422.18 1160.33 423.214C1163.63 429.597 1172.9 465.734 1171.22 471.602C1170.72 467.711 1156.81 451.626 1153.47 448.707C1152.16 447.563 1150.43 446.275 1148.7 446.343C1152.99 454.864 1169.29 468.224 1171.83 474.454C1171.94 474.718 1172.04 474.987 1172.14 475.253C1172.58 475.07 1173.21 474.825 1173.65 474.579C1178.23 472.007 1204.82 448.711 1206.42 443.785C1205.59 442.006 1201.77 440.245 1200.15 438.855C1201.35 438.287 1204.07 437.392 1205.03 436.562C1207.32 434.572 1209.1 425.672 1213.26 421.226Z"/>
	<path fill="#FEFEFE" d="M1138.05 570.063C1153.18 569.169 1168.69 568.069 1183.72 570.415C1185.82 572.866 1188 579.073 1187.73 582.388C1187.66 583.198 1187.57 583.301 1187.29 583.947C1200.31 583.008 1213.71 579.363 1226.49 576.733C1235.66 574.845 1246.03 573.493 1254.87 570.439C1258.97 574.235 1262.42 591.094 1264.18 597.33C1278.01 646.205 1290.06 695.849 1297.06 746.212C1298.18 754.281 1300.37 763.577 1300.3 771.694C1300.29 772.489 1300.17 773.125 1300 773.9C1286.18 784.797 1125.77 790.702 1101.74 787.497C1100.87 787.382 1100.17 787.172 1099.35 786.91C1099.74 786.512 1099.9 786.386 1100.21 785.854C1101.29 784.028 1100.94 782.792 1100.62 780.826C1101.23 779.88 1101.82 778.868 1102.09 777.767C1104.03 769.897 1119.33 683.094 1118.9 681.423C1118.82 681.106 1118.71 680.798 1118.61 680.485C1124.79 679.995 1133.79 680.016 1138.17 674.844C1140.85 671.673 1142.18 666.806 1143.06 662.837C1144.5 656.332 1148.16 624.698 1147.29 618.478C1147.16 617.548 1146.89 616.744 1146.48 615.907C1141.11 615.604 1135.72 615.233 1130.34 615.032C1132.77 611.432 1139.2 576.053 1138.5 571.542C1138.41 570.985 1138.24 570.607 1138.05 570.063Z"/>
	<path fill="#010101" d="M1243.46 613.28L1257.15 612.469C1260.36 617.574 1261.26 653.361 1260.39 660.761C1259.69 666.713 1257.78 672.493 1252.83 676.244C1243.95 682.99 1230.27 681.539 1219.92 680.042C1216.92 678.723 1214.06 677.544 1211.67 675.234C1201.16 665.117 1204.17 640.869 1203.31 627.243C1203.08 623.56 1203.21 619.176 1201.36 615.902Q1222.42 614.742 1243.46 613.28Z"/>
	<path fill="#FEFEFE" d="M1248.17 615.524C1250.08 615.411 1252.4 615.058 1254.28 615.303C1255.98 615.526 1256.65 617.212 1257.49 618.496C1257.41 619.613 1257.61 620.09 1256.81 620.954C1253.58 624.451 1219.53 624.789 1212.18 625.337C1211.61 625.426 1211.39 625.472 1210.74 625.501C1208.81 625.591 1207.15 625.826 1205.66 624.558C1205.38 622.722 1204.91 621.653 1205.74 619.956C1212.42 616.243 1238.95 616.316 1248.17 615.524Z"/>
	<path fill="#FEFEFE" d="M1251.17 626.028C1253.22 625.945 1254.08 625.736 1255.93 626.687C1258.05 633.416 1258.92 659.172 1256.57 666.035C1255.05 670.493 1252.04 674.045 1247.78 676.099C1238.12 680.757 1224.85 678.772 1215.17 675.313C1201.27 660.346 1210.86 642.283 1204.77 628.35Q1227.99 627.522 1251.17 626.028Z"/>
	<path fill="#010101" d="M769.544 559.11C774.194 550.282 780.831 543.904 790.462 540.824Q791.366 540.534 792.283 540.29Q793.2 540.046 794.128 539.848Q795.057 539.65 795.993 539.498Q796.93 539.346 797.874 539.241Q798.817 539.136 799.764 539.078Q800.712 539.02 801.661 539.01Q802.61 538.999 803.558 539.036Q804.506 539.072 805.452 539.156Q806.397 539.24 807.337 539.37Q808.277 539.501 809.21 539.679Q810.142 539.856 811.065 540.079Q811.987 540.303 812.897 540.572Q813.807 540.841 814.703 541.156Q815.599 541.47 816.477 541.828Q817.356 542.187 818.216 542.588Q819.076 542.99 819.915 543.434C823.297 545.226 826.029 547.875 828.79 550.483C844.328 547.024 855.023 546.921 869.013 555.752C882.562 564.304 888.853 577.933 900.938 587.41C908.11 593.034 916.962 593.66 925.349 596.343C939.034 600.721 950.775 614.367 953.697 628.296C956.106 639.778 953.295 651.926 946.74 661.584C942.962 667.152 938.219 671.173 932.878 675.166C951.595 706.08 983.548 748.586 974.081 786.864C971.297 798.123 965.753 807.705 957.999 816.246C968.471 816.1 988.109 813.086 996.271 821.083C1000 824.742 1001.49 829.67 1001.51 834.793C1001.53 840.551 999.736 846.786 995.553 850.918C993.489 852.956 991.068 854.179 988.232 854.725C980.174 856.276 971.015 855.442 962.774 855.415Q943.961 855.294 925.148 855.501C925.068 878.677 925.403 901.885 925.065 925.054C936.025 927.269 945.593 931.723 952.747 940.65C954.727 943.12 956.66 946.674 958.989 948.725C959.601 949.265 959.806 949.439 960.628 949.395C961.647 949.339 962.64 949.434 963.551 948.946L973.947 949.928L974.823 950.435C975.142 952.458 975.236 954.118 974.944 956.148C977.537 959.4 979.931 962.885 979.543 967.281C979.277 970.292 978.011 972.609 976.559 975.18C977.169 976.405 977.543 976.81 978.73 977.49Q907.061 978.441 835.387 978.348C825.245 978.341 794.673 979.83 786.915 977.362L786.678 976.377C788.741 975.024 790.284 975.172 792.646 975.27L793.587 975.313L793.419 973.678C777.434 975.93 758.428 974.155 742.108 974.164L639.593 974.387L292.176 974.387C263.85 974.38 49.839 976.153 46.6222 973.752L47.0126 972.668C52.508 970.808 76.814 971.95 84.0849 971.893C83.5457 952.813 89.3271 937.722 94.3039 919.724Q122.722 919.658 151.131 920.344L152.428 916.086C157.41 913.056 202.277 833.431 208.671 822.531C214.738 830.795 223.494 837.512 231.284 844.129C263.919 871.853 299.413 896.493 338.256 914.722C341.487 916.238 345.754 919.568 349.116 920.275C349.595 920.376 350.159 920.372 350.64 920.32C362.792 917.823 391.696 919.891 405.781 919.475Q433.266 935.186 460.141 951.919C466.052 955.563 473.026 958.788 478.539 962.879C481.208 964.86 480.678 969.758 482.635 971.09C484.891 972.625 572.271 971.427 584.515 971.715C592.077 957.915 603.801 944.157 619.449 939.385C631.564 930.931 639.607 919.756 648.484 908.213C642.348 906.094 636.296 903.942 630.338 901.357Q648.729 860.765 669.007 821.083C676.198 806.801 683.062 792.256 691.135 778.442C695.812 770.439 701.67 762.025 709.699 757.099C726.655 746.696 767.839 749.574 788.895 749.508C795.144 749.489 803.286 750.465 809.302 748.895C804.429 743.691 712.466 749.669 698.208 746.397C696.243 745.947 693.663 744.935 692.714 742.989C691.722 740.957 691.434 737.929 692.254 735.843C700.313 732.999 752.579 736.123 766.262 735.22C767.957 735.108 768.955 735.301 770.122 733.979C767.954 732.723 721.113 732.948 715.591 732.97C708.947 732.997 700.608 734.295 694.199 732.631C690.139 731.577 687.179 729.188 684.666 725.934C676.267 715.059 667.993 698.168 660.479 686C650.084 669.165 640.178 652.024 629.763 635.219C620.631 620.483 610.958 606.059 602.147 591.127L616.214 581.432Q644.536 627.262 672.395 673.375L690.518 703.743C694.464 710.374 698.137 717.531 703.013 723.514C711.672 723.138 720.481 723.465 729.153 723.599C730.086 725.336 729.229 728.206 728.995 730.185C731.217 727.237 731.395 726.163 731.697 722.451L732.487 717.296C732.767 714.841 733.363 712.232 732.531 709.856C732.32 711.416 731.884 712.743 731.344 714.219L730.271 714.707C722.744 711.937 701.558 701.051 695.48 696.397C693.335 694.755 692.84 693.686 692.469 691.172C693.531 689.395 693.613 689.275 695.525 688.502C697.144 689.27 698.477 689.824 700.254 690.092C701.208 688.92 701.094 688.174 701.259 686.694C702.602 685.142 704.02 685.01 705.941 684.634L706.763 684.476L707.914 682.679C706.759 679.67 698.329 682.168 695.133 680.136C694.024 679.431 694.248 679.373 693.939 678.215C694.182 677.553 694.396 676.935 694.827 676.365C698.651 671.306 709.503 670.364 715.527 669.084C716.717 667.429 717.564 666.398 719.348 665.385C720.917 665.554 722.158 665.61 723.711 665.304C724.771 663.91 725.404 663.111 727.056 662.466C736.036 662.401 770.517 685.847 780.601 691.905C796.614 690.847 814.406 695.224 829.959 699.007Q828.682 697.971 827.447 696.886C821.309 691.484 815.539 685.622 815.081 677.033C814.363 663.553 819.111 634.777 828.073 624.674C822.285 618.289 816.494 611.613 811.69 604.45C809.037 606.539 806.355 608.804 803.275 610.233C799.142 612.151 794.415 612.793 790.065 611.175C780.736 607.705 774.596 596.49 770.853 587.951C779.103 588.967 787.401 590.206 795.717 590.412L795.693 580.095C805.578 576.778 815.611 571.525 825.746 569.366L825.22 567.755C814.161 570.931 803.505 575.374 792.571 578.948C784.535 572.949 776.787 566.045 769.544 559.11Z"/>
	<path fill="#E5862E" d="M905.345 955.512L913.624 955.724C910.227 957.694 908.877 959.894 907.173 963.329C906.789 960.672 906.036 958.102 905.345 955.512Z"/>
	<path fill="#4E6F9C" d="M813.402 580.212C814.213 577.952 814.668 575.929 816.734 574.503L817.985 574.713C818.976 576.591 818.657 579.386 818.023 581.399C817.968 581.575 817.881 581.74 817.81 581.91L813.402 580.212Z"/>
	<path fill="#E0E1E7" d="M839.25 568.269C838.918 567.626 838.629 566.966 838.299 566.323C836.169 562.168 836.797 554.061 837.806 549.524L838.844 550.082C839.492 552.672 839.905 555.302 840.351 557.932L841.79 558.775C839.963 561.599 839.746 565.013 839.25 568.269Z"/>
	<path fill="#E0E1E7" d="M107.075 952.259C108.128 952.769 108.541 953.359 109.22 954.294C109.816 958.744 110.459 965.973 108.457 970.083L106.812 969.15C104.352 966.007 106.607 956.162 107.075 952.259Z"/>
	<path fill="#FEFEFE" d="M85.9168 966.877C90.0729 966.714 98.5635 965.184 101.967 967.591C103.03 968.343 103.107 970.259 103.406 971.506C99.1299 971.578 91.3252 973.116 87.6292 970.835C86.4538 970.11 86.2978 968.177 85.9168 966.877Z"/>
	<path fill="#FEFEFE" d="M342.867 966.015C347.308 966.237 357.234 964.309 360.731 966.904C361.725 967.641 361.781 969.834 362.004 971.073C357.912 971.689 348.085 972.823 344.547 970.598C343.142 969.715 343.157 967.553 342.867 966.015Z"/>
	<path fill="#FEFEFE" d="M669.741 950.83C670.202 950.98 670.671 951.451 671.057 951.749C671.884 957.895 672.533 964.661 671.874 970.832C670.164 972.193 665.767 971.801 663.475 971.9L662.284 971.65L661.778 970.456C663.231 963.284 664.235 956.044 669.741 950.83Z"/>
	<path fill="#FEFEFE" d="M841.79 558.775C844.373 560.967 845.285 562.327 845.594 565.697C846.579 576.454 844.043 583.458 847.23 594.568C844.24 591.828 841.185 589.134 838.323 586.261C840.795 579.867 841.506 574.841 839.25 568.269C839.746 565.013 839.963 561.599 841.79 558.775Z"/>
	<path fill="#3C5178" d="M740.197 684.934L739.454 683.295L740.736 680.487C738.782 675.292 727.524 672.18 728.053 667.199C729.329 666.184 729.331 665.895 730.947 666.102C739.593 667.206 750.998 677.114 758.486 681.945C756.291 684.295 754.152 686.425 752.812 689.392C752.229 689.352 751.65 689.326 751.066 689.295C748.466 689.16 746.712 688.873 744.38 690.291L743.777 689.507C743.55 689.524 743.323 689.548 743.095 689.558C738.959 689.75 733.575 687.194 730.694 684.372C731.402 684.605 732.112 684.821 732.824 685.045C735.275 685.816 736.958 686.041 739.53 685.779L740.197 684.934Z"/>
	<path fill="#FEFEFE" d="M850.324 597.614C853.649 600.013 856.741 602.632 859.85 605.303C851.432 614.689 842.311 623.59 833.545 632.662C832.885 633.362 832.118 633.906 831.358 634.492C829.617 634.015 828.926 633.515 827.712 632.191C827.458 630.48 827.366 630.017 828.066 628.45C829.125 626.082 831.551 623.972 833.098 621.87C838.704 614.247 844.971 606.554 849.828 598.452L850.324 597.614Z"/>
	<path fill="#F0A041" d="M886.926 955.527C893.081 955.251 899.188 955.362 905.345 955.512C906.036 958.102 906.789 960.672 907.173 963.329C907.833 967.916 908.64 971.55 911.348 975.41C903.623 975.516 878.826 977.105 872.807 975.184L873.852 974.234C877.776 974.427 879.586 973.948 882.524 971.288C885.151 969.944 886.538 967.373 888.171 965.003L886.926 955.527Z"/>
	<path fill="#FEFEFE" d="M760.251 684.529C766.629 686.022 773.704 690.689 779.603 693.682C775.342 699.86 773.203 706.058 771.099 713.166C765.433 711.455 757.506 709.99 753.522 705.311C751.931 703.443 751.322 701.124 751.553 698.701C751.99 694.123 756.762 687.431 760.251 684.529Z"/>
	<path fill="#FEFEFE" d="M110.897 966.982C125.304 965.655 140.729 966.783 155.263 966.752C175.935 966.708 197.215 965.655 217.813 966.983C219.292 968.088 219.284 969.703 219.7 971.452C202.209 972.288 184.37 971.622 166.845 971.654C148.983 971.687 130.769 972.455 112.946 971.395C111.349 970.395 111.357 968.75 110.897 966.982Z"/>
	<path fill="#F0A041" d="M920.511 955.057C933.857 955.399 947.65 954.221 960.904 955.681C957.993 957.798 955.324 960.687 954.814 964.414C954.176 969.083 956.464 972.08 959.218 975.459Q943.202 975.315 927.189 975.653C928.359 973.524 929.685 971.29 930.189 968.894C930.824 965.879 930.389 962.184 928.501 959.672C926.478 956.981 923.769 955.589 920.511 955.057Z"/>
	<path fill="#FEFEFE" d="M369.788 966.306L439.743 966.147C452.25 966.103 465.241 965.244 477.659 966.404C478.87 967.84 478.537 969.613 478.595 971.454L409.156 971.525C396.481 971.539 383.603 972.014 370.953 971.276C369.481 969.902 369.869 968.251 369.788 966.306Z"/>
	<path fill="#E0E1E7" d="M911.463 855.889L922.506 855.798L922.422 925.113L911.347 925.301C912.512 902.339 911.531 878.904 911.463 855.889Z"/>
	<path fill="#3C5178" d="M648.484 908.213C659.255 910.865 669.734 914.526 680.468 917.28L681.305 918.457C676.002 919.795 670.49 923.671 665.644 926.302C652.645 933.361 634.415 940.707 619.449 939.385C631.564 930.931 639.607 919.756 648.484 908.213Z"/>
	<path fill="#FEFEFE" d="M857.128 971.35C856.053 968.941 855.102 966.482 855.016 963.809C854.896 960.054 855.751 956.251 858.467 953.502C860.941 950.997 863.037 950.69 866.347 950.476C874.645 949.938 883.127 951.928 891.49 951.987L972.708 951.91L972.446 955.33C968.578 955.148 964.763 955.426 960.904 955.681C947.65 954.221 933.857 955.399 920.511 955.057C918.222 955.248 915.89 955.351 913.624 955.724L905.345 955.512C899.188 955.362 893.081 955.251 886.926 955.527L888.171 965.003C886.538 967.373 885.151 969.944 882.524 971.288C879.586 973.948 877.776 974.427 873.852 974.234C876.869 971.376 880.289 967.374 880.441 962.981C880.512 960.95 879.835 959.162 878.387 957.719C875.744 955.084 871.542 953.902 867.884 954.197C865.062 954.423 862.123 955.567 860.243 957.75C858.666 959.58 858.108 961.969 858.451 964.336C858.885 967.341 860.302 970.225 862.828 971.985C865.188 973.63 868.339 974.371 871.065 975.193C861.379 976.039 851.459 975.565 841.742 975.522L793.587 975.313L793.419 973.678L793.962 971.63C796.433 970.058 849.316 971.33 857.128 971.35Z"/>
	<path fill="#010101" d="M882.524 971.288C884.69 965.722 881.718 958.935 883.431 955.738L886.926 955.527L888.171 965.003C886.538 967.373 885.151 969.944 882.524 971.288Z"/>
	<path fill="#E0E1E7" d="M911.522 928.213C917.151 927.879 923.129 927.946 928.657 929.108C941.116 931.727 948.99 939.427 955.81 949.721L926.151 949.753C910.468 949.759 894.66 950.154 878.998 949.372C889.715 938.977 895.926 930.353 911.522 928.213Z"/>
	<path fill="#3C5178" d="M722.889 689.989L722.701 689.292L724.607 689.095C726.491 687.787 726.593 684.9 727.347 682.712C728.957 682.725 729.434 683.417 730.694 684.372C733.575 687.194 738.959 689.75 743.095 689.558C743.323 689.548 743.55 689.524 743.777 689.507L744.38 690.291C746.712 688.873 748.466 689.16 751.066 689.295C751.65 689.326 752.229 689.352 752.812 689.392C750.924 694.188 747.674 700.058 749.848 705.203C751.454 709.002 756.053 710.585 759.652 711.819Q765.167 713.68 770.708 715.464C769.537 720.501 769.036 725.615 767.907 730.634C762.463 730.675 732.167 731.861 728.995 730.185C731.217 727.237 731.395 726.163 731.697 722.451L732.487 717.296C732.767 714.841 733.363 712.232 732.531 709.856L731.708 708.827C729.835 708.812 728.225 708.918 726.517 708.074L726.94 707.266Q729.731 707.065 732.527 706.947C731.749 705.228 731.953 704.954 732.314 703.169C724.536 697.769 714.068 696.15 706.084 690.685C715.453 691.074 725.521 698.458 734.468 701.752C731.466 699.794 728.392 698.006 726.08 695.216L726.635 694.885C729.331 696.593 731.851 697.975 734.839 699.101C734.111 695.634 726.055 692.582 723.409 690.421L722.889 689.989Z"/>
	<path fill="#15151A" d="M722.889 689.989L722.701 689.292L724.607 689.095C726.491 687.787 726.593 684.9 727.347 682.712C728.957 682.725 729.434 683.417 730.694 684.372C733.575 687.194 738.959 689.75 743.095 689.558C743.323 689.548 743.55 689.524 743.777 689.507L744.38 690.291L743.682 691.745C735.456 695.403 731.252 692.09 723.494 690.136L722.889 689.989Z"/>
	<path fill="#3C5178" d="M825.22 567.755C830.259 571.634 832.531 580.625 836.094 586.037C839.156 590.687 843.045 594.596 846.92 598.558Q837.862 610.454 829.146 622.603C823.105 615.803 817.266 609.651 813.338 601.346C807.601 605.662 801.223 611.035 793.485 609.757C785.042 608.362 777.96 597.764 773.558 591.083Q773.148 590.461 772.75 589.83C780.834 591.168 788.678 592.262 796.896 592.261L796.689 581.278C801.861 579.712 806.09 578.102 811.417 580.132C812.216 580.437 812.583 580.434 813.402 580.212L817.81 581.91C815.688 582.708 814.002 583.445 812.928 585.491L813.84 586.34C814.427 586.345 814.763 586.375 815.314 586.297C816.639 586.108 817.89 585.287 818.652 584.194C820.181 581.999 821.071 579.086 820.403 576.47C820.364 576.316 820.316 576.164 820.272 576.011C820.89 574.557 821.403 573.063 822.71 572.093C823.84 571.255 824.76 570.368 825.746 569.366L825.22 567.755Z"/>
	<path fill="#3C5178" d="M840.464 900.072C831.434 891.064 823.461 879.331 815.35 869.362C802.033 852.994 787.753 836.84 775.321 819.835C773.623 817.512 770.686 813.839 770.41 810.914C770.027 806.862 771.326 801.517 773.998 798.439C776.291 795.797 779.612 794.403 783.083 794.309C784.859 794.261 785.938 794.824 787.173 796.023C785.71 797.336 781.461 796.868 779.348 797.523C775.628 798.675 773.506 803.363 771.822 806.628C772.066 809.85 773.475 813.46 775.218 816.168C780.741 824.747 788.488 832.66 794.921 840.614L842.356 899.219C846.704 897.54 850.452 894.619 854.887 893.099C859.295 901.921 866.34 909.455 870.41 918.406C851.259 932.964 820.83 953.682 796.493 956.909C807.08 944.532 820.95 933.183 828.809 918.804C825.805 916.255 823.255 913.442 820.656 910.487C827.013 906.688 834.03 903.878 840.464 900.072Z"/>
	<path fill="#FEFEFE" d="M809.395 815.144Q844.088 844.898 877.727 875.84C887.676 869.277 897.576 859.313 908.844 855.543C908.849 878.698 909.721 902.167 908.773 925.29C897.79 927.97 890.135 932.575 882.713 941.194C879.074 933.274 874.619 926.011 870.41 918.406C866.34 909.455 859.295 901.921 854.887 893.099C855.596 891.922 856.75 890.697 856.457 889.253C855.898 886.502 815.789 827.242 809.395 815.144Z"/>
	<path fill="#FEFEFE" d="M739.797 832.189C760.789 861.471 783.044 890.655 808.383 916.343C812.303 914.137 816.575 912.385 820.656 910.487C823.255 913.442 825.805 916.255 828.809 918.804C820.95 933.183 807.08 944.532 796.493 956.909L791.829 959.767C791.847 963.563 791.526 967.346 791.257 971.13C757.533 972.618 723.258 971.358 689.474 971.352C689.47 960.926 691.251 930.316 688.993 922.401C687.125 920.115 684.006 919.428 681.305 918.457L680.468 917.28C683.477 918.057 686.545 918.669 689.579 919.346C695.355 910.932 700.37 901.802 705.622 893.04C717.633 873.003 729.132 852.979 739.797 832.189Z"/>
	<path fill="#F0A041" d="M152.428 916.086C157.41 913.056 202.277 833.431 208.671 822.531C214.738 830.795 223.494 837.512 231.284 844.129C263.919 871.853 299.413 896.493 338.256 914.722C341.487 916.238 345.754 919.568 349.116 920.275C349.595 920.376 350.159 920.372 350.64 920.32C349.573 926.172 347.291 931.958 345.491 937.628C341.767 949.362 340.57 959.501 340.618 971.737L260.561 971.68C249.087 971.686 233.947 973.135 222.895 971.175C221.911 969.818 222.169 968.225 222.191 966.627C218.109 961.43 159.973 923.963 151.131 920.344L152.428 916.086Z"/>
	<path fill="#FEFEFE" d="M861.481 607.383C865.563 608.404 870.922 613.003 874.454 615.455C899.642 632.939 911.133 647.154 927.957 672.697C934.946 683.31 941.418 694.173 947.881 705.109C961.415 728.011 978.185 755.797 972.237 783.582C970.17 793.237 966.558 801.504 960.178 809.14C949.389 822.052 931.248 832.8 917.699 842.903C904.614 852.661 892.014 863.045 878.321 871.961C853.341 850.505 829.588 827.572 804.09 806.719C798.867 802.448 793.68 797.971 788.094 794.18C780.609 789.101 772.601 784.722 765.695 778.841C783.939 773.764 802.444 769.527 820.789 764.815C831.08 762.172 841.363 758.441 851.847 756.763C855.05 762.863 857.983 767.917 864.123 771.457C870.464 775.112 877.96 775.389 884.895 773.417C888.867 772.288 920.702 757.269 921.814 755.305L920.844 754.405C917.074 754.058 901.956 762.416 897.399 764.533C897.097 761.662 896.514 758.813 896.013 755.972C899.695 753.21 902.867 750.427 905.485 746.619C908.76 739.199 908.707 730.859 908.104 722.912C907.133 710.111 894.481 650.065 886.026 642.769C884.214 643.71 888.735 654.227 889.446 656.324C896.14 676.065 911.842 724.14 903.571 743.709C901.116 749.516 896.583 753.527 890.735 755.757C867.876 764.476 794.428 742.922 771.036 732.703C771.746 722.929 773.173 711.083 777.631 702.286C779.148 699.294 781.49 695.83 784.907 694.95C795.393 692.249 850.684 705.359 862.455 710.246C867.774 712.455 872.216 717.058 877.298 719.89L878.125 720.347C871.656 711.91 864.464 707.401 854.226 704.647C842.479 688.39 841.14 670.045 840.182 650.765C840.099 649.087 840.125 647.828 838.881 646.671L837.868 647.519C837.015 651.192 837.611 655.423 837.819 659.16C838.712 675.208 841.897 689.587 850.124 703.583C847.5 703.06 844.86 702.504 842.273 701.819C831.545 698.978 823.077 690.088 817.666 680.781C816.863 665.299 820.879 648.134 825.271 633.372L830.809 639.964C840.279 628.458 851.245 618.199 861.481 607.383Z"/>
</svg>
