<?xml version="1.0" encoding="utf-8" ?>
<svg xmlns="http://www.w3.org/2000/svg" xmlns:xlink="http://www.w3.org/1999/xlink" width="1536" height="1024">
	<path fill="white" d="M0 0L1534.69 0C1535.54 1.34434 1535.84 2.50848 1535.91 4.09208C1536.57 18.5072 1536 33.1619 1536 47.604L1536.01 132.471L1536.01 391.421L1536.01 865.91L1536 981.169C1536 989.131 1537.19 1015.2 1535.79 1021.39C1535.57 1022.35 1535.21 1023.17 1534.69 1024L0 1024L0 0Z"/>
	<path fill="#000007" d="M603.942 216.022C587.367 226.5 585.95 241.623 574.749 255.904C568.677 263.644 561.645 267.792 551.847 268.909C548.433 269.297 542.072 269.947 539.286 267.451C538.02 266.317 538.21 265.943 538.205 264.359L539.314 263.479C541.778 264.4 544.137 264.897 546.776 264.744C577.126 262.984 574.702 235.59 590.458 218.387C603.772 203.849 625.344 200.725 644.184 201.084C646.859 201.134 649.041 202.519 651.839 202.367C653.284 200.604 651.837 192.747 652.084 189.764C652.479 184.991 654.1 179.898 656.077 175.563C658.622 169.984 666.698 162.486 672.462 160.563C673.996 160.051 674.253 160.135 675.633 160.875C676.189 166.386 665.75 168.831 661.702 175.252C657.741 181.534 655.435 190.51 657.085 197.843L657.681 197.489C657.748 197.181 657.787 196.865 657.883 196.565C661.292 185.916 670.953 174.974 680.261 169.184C704.144 154.326 732.359 159.693 753.935 175.939C764.085 183.582 775.657 196.634 788.464 199.34C794.889 200.697 799.613 196.64 804.662 193.346C805.4 191.439 806.215 188.781 807.406 187.148C808.567 185.557 809.377 185.385 811.231 185.136L812.088 186.223C812.29 192.767 806.037 194.045 804.86 199.22C807.984 200.838 829.814 195.372 835.431 195.328Q837.264 195.316 839.096 195.393Q840.928 195.47 842.754 195.637Q844.579 195.804 846.395 196.061Q848.21 196.317 850.011 196.662Q851.812 197.007 853.594 197.439Q855.375 197.872 857.133 198.391Q858.892 198.911 860.623 199.516Q862.354 200.12 864.053 200.809Q865.752 201.498 867.415 202.27Q869.079 203.041 870.702 203.893Q872.326 204.745 873.906 205.675Q875.486 206.605 877.018 207.612Q878.551 208.618 880.032 209.699Q881.514 210.779 882.94 211.931Q884.367 213.083 885.736 214.303Q887.105 215.523 888.412 216.809C895.911 228.597 902.789 241.184 899.517 255.572C899.22 256.881 898.869 258.027 898.274 259.235C896.866 265.391 894.442 270.992 891.729 276.669C893.229 285.756 893.781 290.894 899.103 298.82C899.175 308.726 898.292 315.194 890.907 322.567C884.129 329.334 868.985 337.167 859.104 337.156C856.895 337.153 855.236 336.774 853.705 335.107C852.857 334.183 852.102 333.16 851.361 332.15C849.479 331.682 849.17 331.824 847.395 332.379C847.199 339.067 844.777 348.489 846.141 354.658C846.428 355.953 847.938 357.267 848.824 358.203C855.099 364.823 860.111 369.509 859.892 379.24C859.692 388.105 854.72 399.761 848.285 405.817C841.319 412.371 828.015 416.133 826.356 417.678C824.173 419.712 823.015 427.547 821.883 430.623C815.181 448.816 796.505 494.783 782.147 507.105C777.588 511.018 773.306 511.218 768.21 513.538C772.093 517.91 780.205 520.811 785.156 524.285C796.7 532.385 808.054 544.145 816.482 555.506Q821.189 561.811 825.176 568.594Q829.162 575.378 832.379 582.559C842.913 606.509 848.84 632.474 854.871 657.838C863.396 693.692 870.668 729.728 878.4 765.745C882.689 785.723 885.767 807.894 894.664 826.401C907.098 832.609 927.055 840.866 940.726 842.124L941.808 841.619L941.938 840.661C943.326 830.866 946.668 821.129 949.107 811.535L964.332 751.164Q974.667 707.994 985.72 665.001C989.761 648.934 993.33 632.395 998.556 616.661C999.746 613.08 1000.84 610.049 1003.99 607.706C1008.23 604.552 1014.41 605.671 1019.32 606.045C1046.76 603.425 1074.83 603.039 1102.37 601.85L1250.86 594.898L1371.43 588.239C1385.24 587.502 1412.3 584.652 1424.78 586.183C1426.33 587.713 1426.46 588.771 1426.49 590.986C1426.57 597.25 1424.52 604.087 1423.36 610.236Q1418.92 633.68 1413.82 656.99Q1394.45 751.018 1371.06 844.127C1365.1 867.242 1359.86 890.715 1352.36 913.397C1350.91 917.78 1348.88 923.399 1345.66 926.813C1337.26 935.736 1292.77 927.487 1285.16 933.997C1287.55 936.551 1292.4 958.36 1292.46 962.278C1292.47 963.225 1292.28 963.95 1291.98 964.844L1422.62 964.815C1440.87 964.81 1459.79 963.503 1477.96 964.654C1479.88 964.775 1481.98 964.942 1483.38 966.412C1484.53 967.613 1485.45 969.412 1485.18 971.124C1484.86 973.177 1483.99 973.649 1482.42 974.75C1467.27 976.392 1450.85 975.329 1435.57 975.41L1340.42 975.65L1045.49 976.694L687.579 978.44L214.932 978.5Q136.029 978.238 57.1257 978.791C51.571 978.862 44.1471 980.009 39.3635 976.471C37.9807 975.449 37.4436 974.48 36.883 972.891C37.0821 971.027 37.1873 970.289 38.6658 969.038C40.0544 967.864 42.0482 967.75 43.7839 967.673C67.9035 966.611 92.3015 967.781 116.445 967.668L297.622 966.7C292.983 961.961 288.579 957.23 284.806 951.744C281.874 945.267 279.092 938.926 277.446 931.972C271.271 905.877 274.294 872.035 276.699 845.223C285.198 750.459 317.365 590.557 385.978 521.512C407.234 500.122 434.188 486.355 462.064 475.655C485.27 466.748 509.669 460.999 533.255 453.21C540.773 450.727 549.525 448.45 556.397 444.539C565.448 439.388 570.144 428.433 579.069 422.969C585.64 418.947 596.318 419.124 601.875 414.48L601.838 412.888C601.529 412.652 601.22 412.416 600.927 412.161C595.092 407.081 594.542 386.48 593.008 378.533Q592.268 374.608 591.197 370.761Q590.125 366.913 588.73 363.171Q587.335 359.429 585.627 355.819Q583.918 352.209 581.908 348.758C572.579 332.706 558.245 319.336 557.064 299.736C556.656 292.966 558.287 286.717 561.282 280.669C566.703 269.727 576.733 262.161 583.284 252.037C591.224 239.767 593.834 227.352 603.942 216.022Z"/>
	<path fill="#0F172A" d="M1019.32 606.045C1046.76 603.425 1074.83 603.039 1102.37 601.85L1250.86 594.898L1371.43 588.239C1385.24 587.502 1412.3 584.652 1424.78 586.183C1426.33 587.713 1426.46 588.771 1426.49 590.986C1426.57 597.25 1424.52 604.087 1423.36 610.236Q1418.92 633.68 1413.82 656.99Q1394.45 751.018 1371.06 844.127C1365.1 867.242 1359.86 890.715 1352.36 913.397C1350.91 917.78 1348.88 923.399 1345.66 926.813C1337.26 935.736 1292.77 927.487 1285.16 933.997C1285.24 933.797 1285.34 933.606 1285.39 933.398C1286.05 930.498 1262.73 831.994 1259.84 821.939C1259.19 819.677 1258.32 817.786 1256.99 815.853C1253.39 810.622 1248.5 808.132 1242.36 807.02C1228.59 804.531 1204.61 809.377 1190.06 810.636C1180.68 811.448 1170.89 811.379 1161.61 812.92C1159.22 813.318 1156.41 813.862 1154.43 815.335C1152.72 816.613 1152.61 818.516 1152.32 820.501C1150.4 820.817 1149 821.379 1147.84 823.038C1146.5 824.964 1146.76 827.609 1147.28 829.766C1148.22 833.608 1151.11 840.137 1149.48 843.902C1147.91 845.315 1146.26 847.132 1144.46 848.22C1147.53 855.059 1148.87 863.047 1150.67 870.323Q1155.24 888.039 1159.37 905.86C1161.92 916.491 1165.84 928.049 1167.08 938.869C1167.22 940.048 1167.05 941.21 1166.67 942.328C1158.82 946.74 1110.75 943.117 1100.15 948.215C1091.74 941.22 947.267 956.186 940.23 952.218L940.67 951.453C941.433 951.09 942.056 950.576 942.735 950.077C945.543 939.492 947.718 928.767 950.31 918.131C951.634 912.697 953.471 907.32 954.663 901.88C956.299 894.413 957.358 886.798 959.104 879.361L993.963 734.992C996.77 723.587 1000.4 712.263 1003.02 700.853C1005.56 689.799 1007.09 678.613 1010.02 667.623L1018.91 634.559C1020.61 628.356 1023.02 621.69 1023.75 615.319C1023.26 612.39 1020.71 608.734 1019.32 606.045Z"/>
	<path fill="#0F172A" d="M1154.75 823.868C1156.86 822.653 1158.87 821.762 1161.28 821.321C1172.08 819.344 1183.68 819.126 1194.64 818.188C1210.99 816.79 1227.16 814.736 1243.61 814.653C1247.1 816.337 1250.51 818.443 1251.92 822.282C1256.08 833.65 1258.1 850.549 1261.09 863.02C1268.8 895.187 1277.74 927.271 1283.93 959.771C1284.3 961.666 1284.48 962.923 1283.72 964.764L1196.68 965.984C1197.46 962.96 1196.66 959.945 1196.09 956.946C1191.33 931.826 1184.04 907.116 1177.98 882.289C1175.35 871.524 1174.26 855.44 1168.99 846.042C1168.01 844.303 1167.28 843.832 1165.41 843.334C1164.15 842.999 1162.88 843.018 1161.59 843.027L1160.44 843.837C1159.99 838.442 1157.67 828.433 1154.75 823.868Z"/>
	<path fill="#5D5F70" d="M921.657 953.526C924.784 945.629 925.888 936.964 927.746 928.697Q932.329 908.678 937.112 888.705L967.258 770.036L990.75 676.192C994.702 660.157 997.944 643.911 1002.34 627.988C1003.42 624.078 1005.16 615.446 1007.91 612.688C1011.12 611.77 1014.74 612.282 1018.05 612.473C1011.51 627.089 1008.38 644.189 1004.7 659.745L992.301 710.194L955.941 860.858L942.619 916.058C940.923 923.275 938.647 930.385 937.193 937.658C936.609 940.583 936.19 943.552 936.469 946.536C937.488 948.788 938.792 949.939 940.67 951.453L940.23 952.218C935.136 954.323 927.139 953.528 921.657 953.526Z"/>
	<path fill="#5D5F70" d="M1152.32 820.501L1154.57 821.928L1154.75 823.868C1157.67 828.433 1159.99 838.442 1160.44 843.837C1162.45 847.136 1189.86 963.942 1189.77 965.153C1189.33 965.266 1188.85 965.405 1188.39 965.461C1186.87 965.642 1183.06 965.617 1182.23 964.361C1179.48 960.206 1178.15 950.806 1176.82 945.707C1171.29 924.574 1166.1 903.212 1160.96 881.976C1158.22 870.689 1156.18 858.329 1152.17 847.442C1151.67 846.083 1151.04 845.046 1149.86 844.152C1149.74 844.062 1149.61 843.985 1149.48 843.902C1151.11 840.137 1148.22 833.608 1147.28 829.766C1146.76 827.609 1146.5 824.964 1147.84 823.038C1149 821.379 1150.4 820.817 1152.32 820.501Z"/>
	<path fill="white" d="M1166.67 942.328C1169.98 946.013 1172.29 953.345 1172.56 958.289C1166.11 958.719 1126.23 960.103 1122.96 957.844C1122.81 956.285 1123.11 954.618 1121.82 953.602C1117.25 950.004 1105.93 948.373 1100.15 948.215C1110.75 943.117 1158.82 946.74 1166.67 942.328Z"/>
	<path fill="#F99835" d="M552.56 454.01L553.063 454.543C552.72 455.715 552.546 456.48 552.761 457.708C559.819 498.182 573.649 541.431 586.35 580.521C588.78 588.001 591.521 605.417 597.902 609.797C604.93 609.367 639.692 570.182 647.278 562.595C650.694 570.149 660.909 605.445 661.232 612.867C661.448 617.825 659.984 623.453 659.658 628.48C658.88 640.495 658.73 652.604 658.559 664.64L655.358 852.24C655.232 861.39 656.646 882.595 654.328 889.956C653.711 890.547 653.179 890.897 652.339 891.107C644.063 893.178 632.406 891.285 623.88 891.086Q606.234 890.728 588.602 889.917C581.679 889.667 574.366 889.795 567.511 888.754C551.233 886.282 479.109 862.42 466.105 855.063C465.584 854.768 467.73 844.142 467.851 841.954C468.574 828.85 465.561 814.4 467.574 801.611C468.426 796.196 471.999 790.651 473.747 785.406C474.588 782.882 474.42 780.211 475.137 777.661C476.284 773.587 478.116 769.708 479.25 765.612C483.88 748.891 494.023 681.008 489.384 665.227C489.04 664.058 489.021 664.096 487.972 663.555C485.007 667.109 483.561 703.828 482.642 711.226C480.109 731.62 476.197 752.275 469.918 771.852C469.045 774.575 468.762 777.204 467.534 779.846C467.449 779.542 467.303 779.096 467.323 778.785C467.351 778.357 467.612 777.969 467.659 777.543C468.08 773.677 467.42 769.094 467.361 765.162Q467.158 754.61 467.915 744.084C471.586 686.739 481.049 606.635 449.684 556.134C445.055 548.68 432.058 529.774 423.197 527.684L422.121 528.53C425.953 535.632 433.931 541.955 439.052 548.466C449.995 562.381 458.571 582.087 462.573 599.294C463.972 605.313 464.566 612.108 465.481 618.266C467.359 630.904 467.149 644.216 467.14 656.985C467.121 684.789 465.885 711.989 462.485 739.608C462.085 742.858 462.752 748.033 460.844 750.628L460.815 750.63L460.84 749.635L460.309 749.102L460.605 748.699C459.626 736.429 459.525 724.132 458.335 711.858C455.463 682.21 449.781 648.351 443.785 619.109C442.933 618.445 442.496 618.559 441.448 618.44C439.485 622.264 446.773 658.329 447.834 665.409C452.477 696.377 454.748 727.206 455.72 758.472C456.023 768.219 456.923 778.366 456.224 788.083C455.488 798.306 447.446 826.504 443.654 836.315C442.964 838.099 441.437 842.289 439.538 843.024C438.845 843.292 419.333 839.569 415.583 839.475C398.755 839.053 379.25 842.508 363.869 849.43C352.009 854.767 318.687 875.548 314.022 887.753L314.544 888.533C316.167 888.372 317.605 888.09 318.918 887.053C321.608 884.928 323.774 881.825 326.242 879.413C330.228 875.519 335.16 871.983 339.704 868.758C357.969 855.799 375.573 849.043 397.335 844.471C373.936 856.907 356.762 877.972 341.485 898.997C338.332 903.336 334.562 907.637 331.967 912.332C330.77 914.496 329.083 917.834 329.757 920.255C331.525 919.919 332.539 918.743 333.645 917.429C338.234 911.975 341.876 905.513 346.127 899.768C356.02 886.401 367.667 873.085 380.339 862.298C392.051 852.327 404.481 844.49 420.514 845.944C428.239 846.644 458.353 856.986 463.136 862.818C463.108 866.547 458.163 868.232 455.265 869.884C444.481 876.03 435.593 886.461 428.358 896.478C419.904 908.183 413.19 920.326 406.878 933.286C403.811 939.582 394.723 963.88 392.496 966.294C382.221 968.104 358.862 966.306 347.278 966.371C337.5 966.425 327.498 967.748 317.766 967.344C314.849 967.223 311.799 966.789 309.145 965.504C297.736 959.977 289.694 946.707 285.836 935.136C268.863 884.245 298.089 736.017 313.706 680.792C322.392 650.073 333.221 618.506 347.534 590C376.209 532.89 404.499 505.311 464.651 482.921C493.632 472.134 523.232 463.74 552.56 454.01Z"/>
	<path fill="#000007" d="M544.138 505.037C545.004 504.841 545.718 504.663 546.61 504.765C548.4 504.969 548.333 505.242 549.374 506.628C548.124 508.804 545.956 509.461 543.625 510.169C531.667 513.803 518.844 515.201 506.687 518.272C487.732 523.06 468.924 529.571 450.401 535.826C448.164 536.62 446.788 537.495 444.507 536.586L444.356 535.246C452.002 526.813 529.691 508.193 544.138 505.037Z"/>
	<path fill="#000007" d="M346.159 709.404C347.11 709.369 347.707 709.314 348.605 709.682C353.018 711.495 419.074 761.172 421.362 764.307C421.743 764.829 422.008 766.185 422.234 766.845L420.122 767.192C407.64 760.314 395.753 749.611 384.296 741.047C375.162 734.219 355.422 720.98 348.069 713.146C347.079 712.091 346.582 710.761 346.159 709.404Z"/>
	<path fill="#000007" d="M377.234 816.242C378.29 816.151 379.49 815.966 380.49 816.391C381.893 816.988 381.869 817.455 382.374 818.786L381.284 820.444C375.897 823.817 353.767 826.276 346.674 827.337C345.62 827.47 344.542 827.633 343.48 827.664C341.762 827.713 341.177 827.616 339.92 826.451L340.221 825.672C345.348 821.282 368.922 819.275 377.234 816.242Z"/>
	<path fill="#F99835" d="M733.176 504.963C750.2 512.048 765.434 517.697 780.472 528.745Q783.571 531.061 786.545 533.535Q789.519 536.009 792.36 538.635Q795.202 541.261 797.902 544.032Q800.603 546.802 803.155 549.709Q805.708 552.617 808.106 555.653Q810.503 558.69 812.739 561.847Q814.975 565.005 817.044 568.274Q819.113 571.544 821.008 574.917C842.898 614.692 856.835 697.226 866.308 743.051C869.71 759.505 872.659 776.322 876.66 792.606C878.808 801.346 882.561 809.685 883.928 818.591C858.016 827.037 858.292 831.043 844.089 851.851C839.023 859.274 833.118 866.219 827.457 873.195C821.127 867.731 812.843 864.008 805.312 860.528L804.368 861.057L806.078 860.682L806.543 861.178C803.645 851.651 800.617 842.158 800.667 832.084C800.709 823.712 802.894 815.867 803.992 807.645C804.773 801.798 804.837 795.701 806.064 789.938C808.529 778.369 812.687 766.98 815.617 755.49C821.848 731.049 826.02 706.963 828.486 681.866C829.009 676.54 830.843 665.89 828.221 661.128C826.493 663.477 825.381 679.96 824.899 683.663C822.102 705.145 817.553 725.774 812.778 746.866C811.776 751.295 811.371 756.709 809.479 760.819C803.909 752.768 813.003 682.727 813.4 669.698C813.876 654.06 813.744 636.103 812.348 620.525C812.113 617.901 812.025 613.728 809.923 611.979C807.441 615.585 807.824 658.673 807.464 666.637C807.219 672.072 805.508 678.23 806.006 683.551C806.036 683.864 806.079 684.175 806.115 684.487C803.47 701.329 802.878 718.45 800.456 735.331C797.245 757.716 792.287 779.764 789.142 802.116C786.941 817.754 786.121 834.414 782.837 849.786C777.32 849.171 772.024 843.684 766.441 842.062C763.65 841.252 760.958 841.094 758.148 841.96C753.027 843.538 747.993 847.111 743.296 849.676L711.452 867.083C703.39 871.436 668.267 892.068 661.156 889.948C660.956 876.523 661.816 863.089 661.9 849.644Q662.481 767.967 664.833 686.321C665.171 671.587 663.568 631.46 666.689 619.032C669.26 608.797 687.598 581.067 694.004 569.554C706.032 583.383 707.341 598.937 715.975 611.928C717.121 613.652 717.619 613.93 719.625 614.352C721.819 613.567 723.11 612.465 724.161 610.336C725.946 606.722 726.119 601.879 727.028 597.946C731.839 577.112 740.848 530.287 734.071 510.528L733.091 510.785L733.827 510.202L734.353 511.3L732.774 511.954C731.531 518.942 731.426 526.475 730.845 533.568C729.896 545.168 728.588 556.665 726.534 568.128C725.51 573.849 720.454 591.371 721.168 595.456C721.22 595.755 721.291 596.052 721.353 596.35C720.154 597.956 719.735 598.98 719.593 600.996C719.58 601.18 719.573 601.365 719.564 601.55C717.796 600.46 715.196 591.661 714.14 589.238C711.11 582.281 706.685 571.542 700.932 566.573C699.189 565.067 696.57 564.195 694.442 563.346C701.194 552.243 712.461 533.257 715.904 521.125C717.677 520.725 719.454 520.314 721.194 519.791C727.399 517.929 730.363 510.217 733.176 504.963Z"/>
	<path fill="#000007" d="M741.175 549.414C742.017 549.232 742.867 549.063 743.732 549.026C754.173 548.578 801.241 576.969 810.713 585.489C813.393 587.9 814.945 589.3 815.131 592.982C814.423 592.894 812.92 592.911 812.328 592.631C808.213 590.686 801.75 584.09 797.718 581.113C791.474 576.503 784.683 572.454 777.987 568.532C767.337 562.294 755.789 558.424 744.693 553.172C742.841 552.295 741.879 551.333 741.175 549.414Z"/>
	<path fill="#000007" d="M679.322 845.943L679.919 846.06C683.383 846.769 686.748 847.754 688.676 850.973C690.2 853.518 690.599 856.723 689.884 859.588C688.767 864.062 686.25 866.514 682.457 868.752C680.672 868.812 678.49 869.041 676.75 868.616C674.975 868.182 673.072 866.25 672.151 864.751C670.627 862.272 670.423 859.148 671.123 856.37C672.363 851.446 674.936 848.371 679.322 845.943Z"/>
	<path fill="#F99835" d="M681.055 850.559C682.549 851.615 683.258 852.47 684.178 854.045C684.929 858.493 682.514 861.437 680.13 864.901C679.513 864.424 678.9 863.945 678.311 863.433C676.79 862.106 675.764 860.461 675.775 858.369C675.794 854.859 678.656 852.665 681.055 850.559Z"/>
	<path fill="#000007" d="M685.27 646.468C685.526 646.519 685.782 646.564 686.037 646.62C689.725 647.441 693.046 649.143 695.016 652.503C696.527 655.079 696.738 657.99 695.872 660.825C694.592 665.02 691.567 666.862 687.941 668.769C686.442 668.631 684.708 668.563 683.265 668.129C680.72 667.362 678.398 664.754 677.358 662.381C676.039 659.372 676.24 656.11 677.585 653.149C679.315 649.34 681.609 647.97 685.27 646.468Z"/>
	<path fill="#F99835" d="M685.419 652.685L688.811 653.676C690.071 654.802 691.43 656.039 691.533 657.852C691.69 660.641 690.392 661.588 688.712 663.5C687.483 663.409 685.76 663.027 684.717 662.351C683.162 661.342 682.435 659.763 682.421 657.948C682.404 655.709 683.961 654.17 685.419 652.685Z"/>
	<path fill="#000007" d="M685.118 747.686C686.994 747.967 689.88 748.089 691.299 749.449C691.445 749.589 691.577 749.743 691.719 749.887C692.587 750.763 693.457 751.614 694.135 752.656C695.626 754.947 695.984 757.7 695.276 760.32C694.257 764.085 692.065 765.656 688.953 767.587C687.549 767.637 686.063 767.718 684.686 767.398C682.02 766.78 679.616 764.883 678.314 762.492C676.994 760.068 676.981 757.243 677.877 754.669C679.288 750.62 681.514 749.478 685.118 747.686Z"/>
	<path fill="#F99835" d="M685.253 753.477C687.354 754.071 688.168 754.771 689.472 756.505C689.685 759.161 689.389 759.51 688.054 761.86C685.614 760.794 684.707 760.636 683.288 758.278C683.585 755.873 683.796 755.421 685.253 753.477Z"/>
	<path fill="#FBB48B" d="M634.115 319.988C643.539 322.742 653.353 329.745 657.825 338.754C659.625 342.381 657.105 346.783 659.993 349.642C660.193 349.639 660.393 349.633 660.593 349.631C662.149 349.618 663.357 349.721 664.859 350.127C666.653 350.612 668.109 350.597 669.734 349.593C672.537 347.86 674.685 343.156 675.273 339.96C675.684 337.721 675.657 335.377 675.809 333.108C694.161 337.561 712.919 347.388 730.011 355.496C725.896 365.32 725.159 374.774 729.293 384.757C732.763 393.137 738.958 400.356 747.524 403.706C755.389 406.782 765.113 406.145 772.745 402.638C779.551 399.511 785.729 392.703 788.233 385.615C788.315 385.383 788.389 385.149 788.466 384.916C790.671 381.071 790.79 376.54 792.763 372.797C796.053 372.171 800.629 373.423 804.074 373.644C804.544 374.451 804.763 374.489 804.641 375.424C804.062 379.845 804.699 388.005 805.754 392.458C807.003 397.736 815.581 418.03 811.809 421.693C807.545 425.834 797.126 425.848 791.653 425.291C787.729 424.892 784.347 424.11 780.628 426.103L780.19 426.919C782.112 429.506 786.949 430.357 789.984 430.816C797.779 431.994 808.031 431.663 814.628 426.764C819.645 423.038 817.982 417.821 820.377 416.157C821.513 416.792 822.157 416.896 822.742 418.113C822.603 418.311 822.463 418.507 822.326 418.706C818.904 423.698 816.889 429.964 814.477 435.509C807.275 452.062 792.656 488.041 780.559 500.526C777.589 503.592 773.932 505.764 769.733 506.606C750.665 510.43 715.807 490.321 700.465 479.811C694.094 475.447 687.61 470.74 681.783 465.677C678.012 462.402 673.302 453.783 668.331 453.201C667.515 454.35 667.264 454.63 667.511 456.128C667.98 458.98 669.785 462.168 670.94 464.871C677.571 480.385 685.414 494.867 696.232 507.891C698.587 510.725 709.231 516.926 709.65 519.511C709.932 521.253 685.069 570.85 682.487 575.599C677.604 584.582 672.305 593.662 666.835 602.311C666.375 603.038 665.889 603.728 665.39 604.428C663.271 595.407 657.361 567.89 653.692 561.108C651.149 556.408 641.49 551.729 637.588 546.535Q631.105 537.933 625.165 528.948Q619.224 519.963 613.848 510.629Q608.472 501.295 603.681 491.647Q598.891 482 594.703 472.075C593.086 468.172 590.216 462.875 590.069 458.605C589.944 454.969 595.499 446.595 597.271 443.084C602.961 431.814 606.33 415.095 612.448 405.213C615.785 399.824 621.929 395.442 625.906 389.629C629.959 392.59 638.465 397.825 643.7 397.162C645.086 396.986 646.485 396.611 647.842 396.279C649.141 403.209 649.094 428.771 654.313 432.525C654.916 432.959 655.521 433.192 656.211 433.46L657.164 433.083C658.998 426.879 654.66 412.607 654.003 405.501C653.54 400.493 653.713 395.466 653.431 390.45C652.48 389.572 651.953 388.766 650.538 388.754C648.612 388.738 646.634 390.173 644.713 390.498C639.282 391.417 631.106 386.526 627.149 383.11C618.911 376.001 613.833 364.407 613.197 353.639Q613.14 352.761 613.126 351.882Q613.112 351.003 613.141 350.124Q613.171 349.245 613.244 348.369Q613.317 347.492 613.434 346.621Q613.55 345.749 613.71 344.884Q613.869 344.019 614.072 343.163Q614.274 342.308 614.518 341.463Q614.762 340.618 615.048 339.786Q615.334 338.955 615.661 338.138Q615.988 337.322 616.354 336.523Q616.721 335.723 617.127 334.943Q617.533 334.163 617.977 333.404Q618.421 332.645 618.902 331.909Q619.383 331.173 619.9 330.462Q620.417 329.75 620.969 329.065Q621.52 328.381 622.105 327.724C625.666 323.776 629.272 322.072 634.115 319.988Z"/>
	<path fill="#000007" d="M726.513 425.078C743.408 429.287 759.483 436.672 776.428 440.97C781.063 442.145 785.602 441.059 789.929 442.026C791.287 442.33 791.857 442.893 792.567 444.022C792.363 448.963 788.392 455.783 785.887 459.963C784.017 461.626 781.78 462.922 779.691 464.294C770.39 464.768 761.597 463.397 752.79 460.433C742.624 457.012 732.472 451.004 727.657 440.982C725.14 435.743 724.583 430.532 726.513 425.078Z"/>
	<path fill="white" d="M731.488 431.922C748.095 440.449 767.087 443.457 784.793 448.843C785.201 451.088 783.884 453.063 782.947 455.047C780.869 456.962 778.957 457.997 776.135 458.365C765.075 459.81 750.595 455.108 741.833 448.347C736.079 443.908 732.388 439.199 731.488 431.922Z"/>
	<path fill="#000007" d="M634.573 333.149C636.2 333.383 637.67 333.763 639.18 334.434C643.315 336.271 645.065 340.63 646.659 344.592C648.122 348.224 650.351 358.655 648.869 362.14C647.119 363.07 646.966 362.835 645.109 362.43C643.002 360.339 642.837 357.235 641.907 354.49C639.559 354.182 638.185 354.532 636.255 356.048C633.703 358.054 632.076 360.473 631.702 363.709C633.703 368.207 638.962 368.425 642.903 370.669C644.262 371.443 644.339 371.492 644.692 373C643.324 374.756 641.91 375.008 639.822 375.583C639.093 375.322 638.369 375.042 637.638 374.789C634.128 373.578 631.322 372.024 628.175 370.043L625.531 361.391C631.438 350.134 636.902 353.148 640.966 347.426C640.895 345.449 640.443 344.367 639.501 342.641C637.927 341.901 637.332 341.322 636.364 339.87C635.888 339.154 635.349 339.205 634.548 338.957C630.848 340.613 629.983 344.642 626.868 346.757C625.547 347.654 625.087 347.331 623.663 346.971C623.025 345.41 622.974 345.291 623.599 343.724C625.525 338.893 629.835 334.957 634.573 333.149Z"/>
	<path fill="#000007" d="M738.855 462.117C745.001 463.52 764.022 471.496 768.394 475.445C768.532 477.506 767.706 477.843 766.401 479.373C762.526 481.145 759.476 481.382 755.382 480.268C749.618 478.699 742.735 474.835 739.969 469.277C738.935 467.198 738.197 464.367 738.855 462.117Z"/>
	<path fill="#FBB48B" d="M762.441 845.613C769.609 847.16 777.095 853.226 783.816 856.546C798.999 864.044 816.372 869.19 830.015 879.438C831.32 880.418 832.88 881.638 833.73 883.051C836.644 887.895 838.04 894.997 840.336 900.332C844.459 909.917 852.963 920.332 854.007 930.924C854.17 932.572 854.06 932.776 853.054 934.051C852.66 934.093 852.451 934.123 852.032 934.131C847.563 934.218 841.886 928.379 838.989 925.348C834.041 920.171 827.72 912.42 827.777 905.093C827.8 902.208 825.962 899.942 823.996 898.001C821.576 895.613 818.745 893.325 815.203 893.408C805.412 893.637 773.152 860.218 764.914 860.567L764.63 862C766.068 868.454 798.91 888.056 805.37 896.039C805.833 896.611 806.934 897.806 807.157 898.48C807.922 900.794 807.063 906.42 807.288 909.111C808.251 920.583 811.476 931.088 810.247 942.744C805.587 945.203 794.697 944.972 789.264 945.531C789.504 938.631 786.84 910.427 783.428 905.935C782.35 904.514 781.163 903.14 779.853 901.929C776.158 898.512 744.471 879.051 740.206 879.187L740.128 880.64C743.661 888.745 771.183 899.518 779.191 907.466C781.16 919.013 784.645 932.467 783.675 944.143C783.601 945.037 783.367 944.972 782.72 945.52C777.054 945.932 767.344 948.101 762.239 946.477C762.527 944.837 762.893 944.286 763.992 943.035L766.41 943.208C766.501 943.032 766.615 942.867 766.681 942.68C767.82 939.449 765.43 934.073 763.78 931.253C755.043 916.324 733.237 904.193 716.682 899.949L715.747 899.716C714.895 899.116 713.856 898.255 712.887 897.888C711.463 897.35 710.174 897.917 708.84 898.4L708.701 899.608C715.08 906.718 742.178 912.825 752.356 924.038C753.611 928.13 746.006 928.718 744.15 932.837L745.232 933.611C748.732 933.405 751.161 930.243 754.524 929.178L755.778 929.903C757.757 935.244 757.484 941.803 756.077 947.207Q751.063 947.936 746.003 948.201Q740.943 948.466 735.88 948.265C734.218 944.266 734.206 939.392 731.637 935.859C727.368 933.291 714.155 930.098 709.243 931.441C707.847 931.823 707.77 932.465 707.13 933.653L708.696 935.49L708.158 936.978C702.069 940.25 697.53 947.178 692.923 952.34C676.732 953.779 660.272 955.223 644.027 955.593C634.859 955.801 625.316 954.814 616.262 955.445C614.355 955.577 612.949 955.823 611.437 957.039L611.424 958.525C616.544 963.013 625.808 958.554 631.892 960.926L631.862 961.727C627.089 962.978 621.479 962.066 616.505 962.512C598.851 964.094 580.72 965.785 563.02 966.273C549.122 966.656 535.189 966.022 521.27 966.361C525.199 958.318 528.628 950.143 532.841 942.209C541.665 925.591 551.822 909.925 562.048 894.157C591.28 896.64 643.388 902.459 670.824 893.342C686.469 888.144 702.085 878.581 716.543 870.583C731.787 862.149 746.156 852.003 762.441 845.613Z"/>
	<path fill="#FBB48B" d="M669.166 322.177C681.554 321.458 695.695 320.101 707.053 314.771C720.598 308.415 728.829 294.908 727.755 279.901C727.471 275.936 725.303 269.805 726.636 266.172C733.325 263.995 777.2 288.819 787.611 292.561C800.779 297.295 822.45 302.222 835.479 295.759C836.221 295.39 835.68 295.475 836.826 295.748C839.305 305.465 842.617 339.398 839.844 348.339C839.145 350.592 825.412 349.705 821.089 351.829C812.084 356.253 810.011 368.494 805.306 370.91C801.286 368.666 794.075 369.262 793.405 366.523C792.594 363.207 793.573 358.083 791.398 355.38L790.06 355.746C790.01 358.392 791.3 360.506 791.297 363.029C791.284 371.015 786.771 379.338 783.239 386.269C782.524 386.619 782.001 387.508 781.507 388.144C777.165 393.723 770.74 398.285 763.717 399.595C756.865 400.874 750.466 399.733 744.73 395.668C734.744 388.59 730.123 375.797 732.095 363.867C732.665 360.417 734.531 356.428 733.95 353.002C727.895 346.544 681.098 328.991 669.166 322.177Z"/>
	<path fill="#000007" d="M764.128 328.838Q765.311 328.723 766.498 328.65C772.704 328.279 780.644 329.266 785.365 333.758C787.158 335.464 788.292 337.759 788.27 340.27C788.252 342.352 787.83 342.972 786.447 344.455C780.522 346.275 774.494 341.069 768.608 340.141L767.794 340.02C762.695 336.604 748.227 342.376 741.882 340.566L741.411 338.91C741.594 338.22 741.743 337.605 742.161 337.012C745.738 331.941 758.226 329.754 764.128 328.838Z"/>
	<path fill="#000007" d="M762.329 358.762C769.349 359.653 773.534 362.616 778.541 367.464C777.461 369.176 776.367 370.822 775.119 372.417L771.444 372.188C771.186 372.502 770.899 372.886 770.567 373.121C768.851 374.334 767.15 373.436 765.281 372.987C760.516 372.516 753.858 372.259 749.872 369.306C748.103 367.995 747.888 367.26 747.571 365.24C747.878 364.579 748.146 363.979 748.629 363.425C751.15 360.531 758.551 358.991 762.329 358.762Z"/>
	<path fill="#F99835" d="M474.022 866.743C483.742 869.629 493.267 873.416 502.913 876.58C520.01 882.189 537.164 887.228 554.455 892.193C546.045 905.685 537.477 919.082 529.991 933.119C524.175 944.026 519.352 955.558 513.163 966.23Q493.768 965.891 474.375 966.32C459.454 966.999 444.324 966.514 429.385 966.493C420.479 966.48 411.509 967.084 402.625 966.836L402.049 965.961C403.163 958.912 406.872 951.751 409.711 945.246C420.687 920.105 433.392 896.467 454.712 878.449C460.604 873.469 467.669 871.526 473.588 867.082C473.735 866.972 473.877 866.856 474.022 866.743Z"/>
	<path fill="#F99835" d="M891.934 831.871C895.36 832.261 912.063 841.429 917.59 843.438C924.326 845.885 932.127 846.077 938.581 849.034C938.163 852.939 936.98 865.384 933.625 867.853C929.622 870.798 924.878 873.323 921.28 876.737C906.439 890.814 889.352 918.122 884.381 937.916L884.04 939.237C877.719 942.86 867.462 940.126 860.486 940.136C860.326 940.136 860.167 940.14 860.007 940.142C865.883 916.539 841.55 902.589 841.979 890.164C846.748 885.877 847.574 880.872 850.054 875.172C859.202 854.142 872.557 842.984 891.934 831.871Z"/>
	<path fill="#F99835" d="M594.769 424.667L596.302 424.787C596.313 424.997 596.345 425.207 596.334 425.417C596.145 429.006 589.158 445.29 586.769 447.93L586.143 444.299C584.57 443.013 584.146 442.536 582.096 442.171C581.435 442.608 581.253 443.01 581.033 443.806C579.646 448.808 582.724 457.194 584.217 462.15C592.308 489.004 607.7 515.892 623.922 538.767C628.976 545.892 635.366 552.254 639.98 559.632L639.584 560.949C638.384 560.832 638.144 560.727 637.098 561.284L637.818 562.829C629.395 570.626 621.678 579.132 613.268 586.953C609.091 590.98 604.87 594.878 600.446 598.634L599.835 598.145L600.466 598.076L600.271 596.172L599.124 596.605C592.752 580.457 588.144 562.832 582.847 546.245Q573.796 518.609 565.829 490.642C562.247 478.132 558.519 465.86 556.769 452.922C572.79 444.713 572.591 431.316 594.769 424.667Z"/>
	<path fill="#5D5F70" d="M870.306 948.557C873.891 948.288 877.675 947.744 881.218 948.487C882.477 949.497 883.089 949.758 883.46 951.476C883.922 953.615 883.19 962.556 882.125 964.273C872.334 965.353 861.891 964.393 852.039 964.216C837.219 963.951 822.386 963.965 807.564 963.881C765.701 963.641 724.137 964.768 682.313 965.506C677.859 965.839 673.001 966.611 668.613 965.629C667.976 963.74 667.931 963.883 668.795 962.094C670.74 960.778 672.772 960.318 675.076 960.14C682.62 959.558 690.311 959.915 697.884 959.522C715.679 958.6 733.486 957.161 751.279 956.066C790.994 953.622 830.538 950.416 870.306 948.557Z"/>
	<path fill="#FBB48B" d="M932.948 876.354L933.093 876.485C933.601 878.805 931.12 881.423 930.902 883.879C930.473 888.713 919.17 936.169 917.344 939.818C910.828 941.287 901.35 939.968 894.565 939.937C893.621 940.001 893.156 939.801 892.277 939.496C892.181 938.727 892.096 938.156 892.263 937.386C895.968 920.309 918.475 886.493 932.948 876.354Z"/>
	<path fill="white" d="M829.593 399.715C829.707 399.543 829.825 399.373 829.935 399.199C834.463 392.031 840.15 363.627 842.29 361.614C842.635 361.289 843.176 361.276 843.619 361.107C847.36 361.86 850.105 365.007 853.043 367.277C856.359 375.715 856.335 382.256 852.733 390.692C848.843 399.801 842.663 406.064 833.456 409.711C831.039 410.668 829.074 410.738 826.511 410.543C826.879 407.057 827.178 403.676 828.256 400.322L829.593 399.715Z"/>
	<path fill="#F99835" d="M885.208 823.041C885.479 823.161 885.774 823.236 886.021 823.401C887.571 824.434 888.19 825.691 888.232 827.42C885.768 830.997 879.07 833.517 875.385 836.109C869.668 840.13 864.244 844.9 859.992 850.473C854.605 857.533 850.145 866.872 846.833 875.082C845.497 878.397 844.555 882.735 842.699 885.723C842.301 886.364 841.859 886.638 841.253 887.058L840.026 886.332L838.223 882.845C836.688 879.815 835.33 878.335 832.73 876.22C838.856 867.369 843.591 858.338 848.849 848.991C856.314 835.72 870.843 827.033 885.208 823.041Z"/>
	<path fill="#F99835" d="M814.515 912.144C821.53 919.372 828.254 926.89 835.447 933.95C837.946 936.401 841.673 938.259 843.625 941.028L841.329 941.735C833.433 942.262 825.546 943.411 817.633 943.515C816.902 942.827 816.386 942.597 816.531 941.485C817.785 931.803 815.683 921.903 814.515 912.144Z"/>
	<path fill="#0F172A" d="M906.559 949.357C909.023 949.194 911.375 948.804 913.686 949.846C914.811 952.642 913.668 953.745 913.563 956.53C913.507 958.02 913.812 959.182 914.836 960.297C915.964 961.525 917.76 962.51 919.416 962.723C926.165 963.591 934.464 961.621 941.325 961.207C948.345 960.784 955.505 961.054 962.533 961.305C957.793 962.098 953.37 962.485 948.563 962.483C931.33 964.911 908.42 963.602 890.39 964.435Q890.591 957.177 891.287 949.95C896.4 949.935 901.473 949.972 906.559 949.357Z"/>
	<path fill="#FBB48B" d="M826.511 410.543C825.693 410.653 824.955 410.664 824.13 410.595C820.969 410.33 818.2 409.989 816.145 407.292C815.418 406.337 810.927 386.442 811.157 385.167C816.969 387.083 816.506 385.195 820.156 385.648C822.483 385.936 823.311 388.074 826.076 387.614C826.541 386.041 825.647 385.088 824.951 383.642C825.555 383.15 828.363 383.915 831.225 383.133C832.011 383.901 831.997 383.491 831.73 384.243C829.666 390.05 828.917 393.545 829.593 399.715L828.256 400.322C827.178 403.676 826.879 407.057 826.511 410.543Z"/>
	<path fill="#FBB48B" d="M834.719 361.49C835.488 361.666 835.992 362.024 836.662 362.427C836.819 367.33 834.291 373.484 833.15 378.308C831.408 377.224 829.603 376.096 827.704 375.31C823.011 373.37 818.631 375.23 814.259 376.981L811.07 379.559L810.577 379.143C810.831 374.649 812.505 367.58 815.473 364.103C818.024 361.114 830.785 361.683 834.719 361.49Z"/>
	<path fill="white" d="M892.028 298.56C892.542 299.413 892.972 300.261 893.264 301.22C894.489 305.243 893.282 310.2 891.124 313.682C883.773 325.548 868.539 329.779 855.822 332.735C854.944 332.566 854.939 332.339 854.356 331.704C857.204 328.581 865.216 328.044 869.277 325.985C880.463 320.314 888.344 310.443 892.028 298.56Z"/>
	<path fill="#0F172A" d="M716.819 942.937C721.721 944.528 726.689 942.947 731.319 944.475C732.556 946.157 732.957 947.44 733.397 949.469L732.923 950.082C728.305 950.845 723.729 951.041 719.063 951.235C713.869 951.568 708.743 951.77 703.592 952.583C704.169 951.963 704.778 951.372 705.354 950.752C708.722 947.129 713.244 946.475 716.819 942.937Z"/>
	<path fill="#0F172A" d="M658.156 326.444C659.855 326.674 661.579 327.086 663.26 327.438C666.405 328.098 668.727 328.445 670.607 331.33C671.746 335.174 669.672 339.128 668.26 342.673C667.715 343.333 667.465 343.399 666.694 343.71L664.993 341.987C664.034 336.006 661.523 331.338 658.156 326.444Z"/>
	<path fill="#0F172A" d="M1202.79 551.901C1195.76 553.441 1186.52 552.535 1179.28 552.769Q1148.46 553.909 1117.62 554.697L1007.07 558.599C984.286 559.523 961.34 561.193 938.551 561.159L938.972 560.658L937.495 561.085C936.701 560.763 936.937 561.004 936.517 560.033C935.371 557.382 939.558 453.824 940.205 442.38C941.511 419.3 941.599 395.955 942.407 372.835L947.602 209.61C948.012 194.284 948.456 122.202 951.366 114.171C954.832 112.371 1060.26 95.214 1072.76 93.2552C1087.8 90.8993 1102.73 87.8556 1117.75 85.341L1280.99 57.6742L1324.52 50.2208C1329.17 49.3898 1336.5 46.9596 1341 47.1968C1350.04 47.6731 1340.3 96.8277 1345.99 103.08C1355.42 98.7868 1401.34 94.3111 1413.55 92.676C1420.4 91.7574 1427.31 90.0014 1434.2 89.6223C1436.84 89.477 1438.34 89.4926 1440.33 91.2976C1440.27 93.2369 1440.15 93.5305 1439.07 95.1496C1440.54 97.4857 1440.47 98.6455 1440.54 101.368C1441.06 122.177 1440.51 143.159 1440.48 163.985L1440.75 255.379C1440.75 264.688 1442.02 303.864 1440.51 309.967C1440.2 311.212 1439.6 311.666 1438.78 312.602C1436.35 313.593 1434.11 313.193 1431.58 312.921L1431.04 313.48C1421.41 315.239 1411.22 315.635 1401.46 316.475L1348.71 320.929C1330.14 322.537 1311.52 324.136 1292.98 326.025C1277.93 327.557 1262.84 329.533 1247.76 330.431C1245.74 330.551 1244.11 330.642 1242.26 329.693C1240.91 323.799 1241.64 316.095 1241.57 310.021L1241.32 263.907Q1241.79 191.775 1239.73 119.67C1240.8 117.842 1241.68 117.447 1243.68 116.747C1252.11 113.798 1263.22 113.623 1272.11 112.429L1316.86 105.987C1323.31 105.088 1331.1 104.896 1337.13 102.501C1338.57 100.662 1339.74 62.8439 1339.11 58.1755C1338.83 56.1351 1338.69 55.6038 1337.07 54.4146C1330.49 54.4818 1323.48 56.585 1316.97 57.7365L1274.97 64.9316L1103.5 94.6611C1095.18 96.0779 1084.2 95.708 1076.49 98.6995C1074.89 99.3202 1074.63 100.042 1074.31 101.686C1072.79 109.513 1073.97 119.491 1073.98 127.509Q1074.07 152.412 1073.75 177.313C1073.73 181.093 1074.68 189.842 1073.14 193.062C1073.01 193.344 1072.86 193.615 1072.71 193.892C1065.74 196.245 1056.13 196.646 1048.75 197.82Q1014.43 203.386 979.984 208.087C971.947 209.22 961.157 209.552 953.664 212.703C952.003 219.3 951.971 261.856 952.612 269.96C964.82 270.108 977.063 267.132 989.115 265.634Q1035 259.762 1080.81 253.385C1088 252.347 1110.34 248.166 1116.01 249.206C1117.41 250.279 1117.68 250.487 1118.39 252.188C1117.28 253.868 1116.08 254.37 1114.12 254.806C1098.36 258.302 1081.42 259.258 1065.41 261.308L984.709 272.252C976.97 273.285 958.223 274.202 951.993 277.395C950.379 287.558 950.797 298.638 950.445 308.943L948.591 366.215C946.812 429.091 945.485 492.224 941.727 555.012C979.111 554.646 1016.58 552.08 1053.96 550.912L1138.61 547.963C1157.91 547.356 1177.25 547.274 1196.52 546.054C1197.32 544.5 1197.61 543.378 1197.68 541.64C1197.91 535.857 1197.43 530.099 1197.47 524.317C1197.62 503.234 1197.34 482.201 1197.22 461.123L1196.01 296C1195.88 283.364 1194.47 230.062 1196.93 220.75C1197.43 218.872 1197.71 217.991 1199.4 217.035C1199.97 217.422 1200.55 217.632 1200.85 218.278C1202.07 220.963 1202.26 224.087 1202.34 226.999C1202.62 236.658 1201.91 246.261 1201.87 255.907L1202.16 314.984L1203.4 502.541C1203.4 513 1205.83 543.516 1202.79 551.901Z"/>
	<path fill="white" d="M1433.06 96.0657C1434.98 98.6346 1434.88 100.722 1434.98 103.931C1435.14 108.986 1434.51 114.109 1434.57 119.192L1434.79 209.66C1435.02 232.763 1434.72 255.814 1434.64 278.912C1434.61 285.69 1434.35 292.525 1434.4 299.288C1434.41 301.18 1434.94 303.191 1434.64 305.065C1434.56 305.568 1434.39 306.014 1434.24 306.501L1432.34 307.549C1419.6 307.236 1405.94 309.678 1393.2 310.866L1305.85 318.78C1288.85 320.402 1271.68 322.715 1254.65 323.769C1252.69 323.89 1250.32 324.24 1248.57 323.261Q1247.48 318.726 1247.35 314.064C1246.45 280.298 1247.61 246.348 1247.24 212.552C1247.06 195.492 1247.28 178.282 1246.92 161.27C1246.68 150.48 1244.73 133.004 1247.01 123.034C1248.22 121.836 1250.38 121.516 1252.02 121.232C1259.33 119.965 1266.86 119.665 1274.21 118.61L1353.09 107.646C1379.75 103.965 1406.25 98.5906 1433.06 96.0657Z"/>
	<path fill="#0F172A" d="M1411.64 130.157C1412.23 130.056 1413.09 129.851 1413.71 129.92C1415.37 130.106 1416.11 130.881 1417.19 132.009C1416.71 136.736 1400.11 137.872 1394.37 140.179C1382.49 144.958 1378.08 154.83 1370.74 164.362C1365.8 170.786 1358.41 177.044 1350.01 177.83C1338.55 178.902 1331.57 167.051 1323.87 160.8C1321.52 158.892 1318.34 157.396 1315.25 157.896C1308.01 159.066 1303.04 174.173 1298.99 179.781C1296.7 182.957 1293.64 186.39 1289.52 186.865C1279.83 187.981 1278.07 177.566 1271.85 173.189C1271.72 173.093 1271.57 173.005 1271.43 172.913C1270.7 170.633 1268.84 170.075 1268.22 167.423L1269.25 165.856L1269.03 165.18C1276.96 163.769 1281.43 178.798 1288.17 180.319C1294.95 181.847 1301.38 160.561 1305.71 156.374C1308.87 153.325 1312.66 153.033 1316.21 150.833C1329.3 154.054 1330.78 162.091 1340.52 168.959C1343.93 171.363 1348.29 172.093 1352.35 171.261C1362.92 169.096 1368.88 156.93 1374.63 148.829C1384.53 134.903 1395.65 132.876 1411.64 130.157Z"/>
	<path fill="#0F172A" d="M1359.53 222.429C1360.84 222.224 1362.13 222.21 1363.46 222.188C1364.94 223.232 1365.29 223.411 1366.06 225.125L1365.43 226.432C1363.41 228.041 1361.06 228.583 1358.57 229.061C1350.97 230.523 1343.33 230.601 1335.73 231.674C1313.07 234.876 1289.82 238.685 1266.99 240.135C1265.59 240.486 1264.37 240.58 1262.93 240.594C1261.42 239.768 1260.76 239.274 1259.94 237.745L1260.4 236.531C1265.63 233.065 1345.68 224.836 1359.53 222.429Z"/>
	<path fill="#0F172A" d="M1405.83 195.422C1407.53 195.149 1409.85 194.687 1411.53 195.047C1413.38 195.445 1414.29 196.293 1415.38 197.731L1414.58 199.117C1407.82 203.323 1356.74 208.712 1346.61 209.165C1345.29 209.822 1342.05 210.171 1340.59 209.721C1339.14 209.275 1338.99 208.638 1338.35 207.403L1339.18 205.891C1341.07 204.663 1343 203.946 1345.2 203.498C1350.92 202.332 1357.06 202.134 1362.87 201.375Q1384.38 198.616 1405.83 195.422Z"/>
	<path fill="#0F172A" d="M1307.55 207.425Q1310.84 207.297 1314.13 207.307C1315.68 208.146 1315.8 208.212 1316.6 209.78L1315.87 211.051C1309.2 215.323 1279.21 218.087 1269.91 218.358C1268.53 219.09 1266.33 218.872 1264.77 218.935C1263.02 218.025 1262.86 218.007 1261.92 216.146L1262.59 214.739C1268.45 210.904 1297.48 210.066 1306.68 207.658L1307.55 207.425Z"/>
	<path fill="#0F172A" d="M1287.4 273.44C1288.9 273.066 1290.24 272.927 1291.78 272.866C1293.49 273.712 1294.51 274.649 1295.82 276.026C1295.13 277.389 1290.38 277.93 1288.69 278.499C1286.3 282.048 1296.14 288.112 1296.62 292.942C1296.88 295.537 1295.64 297.075 1294.03 298.949C1293.17 299.778 1292.24 300.302 1291.05 300.44C1287.65 300.829 1284.64 300.837 1281.94 298.661C1279.53 293.248 1283.68 288.227 1283.27 282.653C1282.67 281.584 1282.16 280.756 1281.94 279.531C1283.44 276.873 1285.08 275.355 1287.4 273.44Z"/>
	<path fill="#0F172A" d="M1367.66 262.187C1368.61 261.97 1369.57 261.777 1370.55 261.814C1372.74 261.897 1374.25 262.717 1375.7 264.231C1377.9 271.772 1370.61 278.783 1368.22 285.45C1369.83 285.565 1371.58 285.596 1373.13 286.072C1374.76 286.571 1374.81 286.731 1375.62 288.238L1374.82 290.239C1374.1 290.712 1373.45 291.127 1372.62 291.38C1368.62 292.591 1362.7 292.82 1359.19 290.699C1360.77 287.32 1363.02 284.105 1364.94 280.894C1366.9 277.597 1371.51 271.32 1370.54 267.487C1366.5 266.639 1366.52 272.61 1363.51 274.359C1362.08 273.401 1362.04 273.188 1361.39 271.578C1362.08 267.905 1365.22 264.891 1367.66 262.187Z"/>
	<path fill="#0F172A" d="M1265.8 274.941C1267.94 274.698 1270.43 274.406 1272.44 275.408C1273.73 276.053 1274.58 277.015 1275.03 278.377C1276.6 283.161 1271.33 287.832 1269.59 291.795C1268.92 293.331 1268.08 294.673 1267.17 296.078C1269.03 297.194 1271.27 296.295 1273.41 296.303C1275.4 296.311 1276.12 296.287 1277.56 297.628L1277.34 299.717C1274.96 301.689 1270.08 302.491 1267.01 302.701C1265.69 301.908 1264.17 301.076 1263.12 299.932C1257.51 293.794 1269.52 286.482 1269.69 279.712C1267.76 280.169 1266.82 282.448 1265.43 283.836C1264.03 285.24 1263.31 285.192 1261.45 285.287L1260.69 284.306C1261.14 280.88 1263.87 278.235 1265.58 275.327L1265.8 274.941Z"/>
	<path fill="#0F172A" d="M1308.65 268.188C1310.06 267.854 1311.01 267.832 1312.45 267.966C1319.16 272.674 1310.07 283.819 1311.43 290.074C1313.35 290.784 1315.02 291.358 1316.62 292.685C1316.58 293.693 1316.76 294.126 1316.11 294.959C1313.95 297.697 1305.56 297.872 1302.2 298.295C1301.62 297.013 1301.76 296.219 1301.9 294.863C1303.01 293.87 1304.16 292.857 1305.13 291.714C1307.64 288.745 1309.85 278.212 1309.44 274.247C1307.65 275.299 1305.5 276.999 1303.36 276.786L1303.12 275.035C1303.95 271.809 1306.37 271.323 1308.15 268.903C1308.32 268.668 1308.48 268.426 1308.65 268.188Z"/>
	<path fill="#0F172A" d="M1351.77 262.938C1352.99 262.936 1354.05 263.146 1355.25 263.37L1356 264.5C1355.88 270.268 1353.23 292.398 1349.5 296.074L1347.07 295.954C1346.08 289.292 1350.29 282.666 1349.37 276.325C1349.01 273.89 1347.8 273.267 1346.03 271.76C1346.33 268.651 1349.79 265.371 1351.77 262.938Z"/>
	<path fill="#0F172A" d="M1401.23 268.94C1402.89 268.722 1404.48 268.663 1406.15 268.647C1407.85 269.62 1408.1 269.695 1409.02 271.534C1408.47 273.273 1408.42 273.262 1406.9 274.289C1401.03 274.513 1395.01 275.693 1389.18 276.486C1386.38 276.557 1385.25 276.545 1382.92 274.904L1382.89 272.588C1387 269.864 1396.26 269.682 1401.23 268.94Z"/>
	<path fill="#0F172A" d="M1330.68 279.442C1333.74 279.106 1336.57 278.606 1339.3 280.281L1339.54 281.595C1336.75 285.142 1333.65 285.298 1329.45 285.863C1328.69 286.182 1326.71 286.184 1325.86 286.132C1324.19 286.029 1323.67 285.46 1322.71 284.195L1323.16 282.565C1324.93 280.257 1328 280.01 1330.68 279.442Z"/>
	<path fill="white" d="M1063.46 100.903C1064.97 100.822 1066.61 100.479 1067.93 101.362C1067.92 112.417 1068.74 185.192 1066.28 188.914C1059.21 190.844 1050.56 191.386 1043.22 192.639C1016.62 197.182 989.602 201.121 962.797 204.228C959.919 204.83 957.27 205.4 954.311 205.236C952.733 197.029 954.739 176.118 955.052 166.572C955.548 151.444 955.373 136.196 955.71 121.04C959.613 116.087 1046.82 106.088 1062.73 101.135L1063.46 100.903Z"/>
	<path fill="#0F172A" d="M1039.77 135.27C1041.49 135.089 1043.24 134.855 1044.96 134.919C1046.64 134.982 1046.86 134.876 1048 136.091C1048.12 137.147 1048.47 137.704 1047.78 138.596C1044.64 142.651 994.662 148.241 987.621 149.218C985.934 149.562 983.539 150.163 981.81 150.024C979.859 149.867 979.119 149.252 977.798 147.919L978.097 146.271C979.515 144.926 981.019 144.157 982.918 143.705C986.795 142.784 991.244 142.944 995.226 142.414C1009.62 140.5 1025.8 139.167 1039.77 135.27Z"/>
	<path fill="#0F172A" d="M1027.73 154.874C1029.23 154.688 1030.5 154.688 1032.01 154.802C1033.31 156.151 1033.5 156.054 1033.51 158.03C1028.86 163.802 991.518 167.176 982.136 168.491C980.08 168.688 978.902 168.714 976.997 167.871C976.157 166.339 976.341 166.172 976.628 164.519C980.207 161.123 1019.19 156.831 1027.73 154.874Z"/>
	<path fill="#0F172A" d="M1023.75 173.667C1025.66 173.398 1027.83 172.921 1029.75 172.963C1031.51 173.001 1032.11 173.68 1033.28 174.879C1033.17 176.653 1032.87 176.763 1031.76 178.065C1023.38 180.485 991.707 185.59 982.899 185.235C982.219 185.832 979.624 186.322 978.699 186.298C976.904 186.25 976.165 185.126 975.066 183.934C975.016 182.908 974.759 182.523 975.433 181.673C976.28 180.604 977.646 180.172 978.937 179.918C983.375 179.045 988.069 179.173 992.568 178.547C1002.98 177.098 1013.37 175.325 1023.75 173.667Z"/>
	<path fill="#0F172A" d="M74.3955 346.898C73.0454 335.699 73.7979 324.247 74.1102 312.998L75.4431 264.273L78.4246 142.259C78.9967 122.256 79.1233 102.141 80.2496 82.1663C80.3787 79.876 80.3574 76.6557 81.7588 74.8389C83.2386 74.5509 84.3557 74.5407 85.8486 74.8131C100.627 77.5095 115.27 81.2271 130.018 84.1416Q199.229 97.2157 268.044 112.235C279.359 114.68 303.785 117.714 312.855 122.227C314.158 134.398 312.639 148.087 312.43 160.403Q311.751 203.262 310.609 246.112C310.767 260.904 309.981 370.909 308.375 374.794C304.875 377.521 299.324 376.12 295.12 375.605L220.035 365.879C210.364 364.58 196.842 361.554 187.635 361.512C179.583 359.813 170.943 359.383 162.764 358.388L108.241 351.551C97.0661 350.17 85.3727 349.357 74.3955 346.898Z"/>
	<path fill="white" d="M85.8959 81.7954C86.2235 81.7822 86.5508 81.7628 86.8786 81.7557C95.6112 81.5671 116.41 87.5901 126.191 89.4616Q193.431 102.395 260.31 117.078C274.563 120.112 288.963 122.532 303.176 125.727C304.855 126.105 305.813 126.287 307.067 127.489C307.831 135.413 306.616 144.301 306.521 152.348Q306.319 187.078 305.185 221.79C303.878 271.3 304.15 320.849 302.876 370.365L290.958 368.819L206.516 357.671C190.929 355.712 85.2667 344.077 79.936 341.309C78.6705 332.374 80.1617 323.369 80.4131 314.45L81.5835 264.487L85.8959 81.7954Z"/>
	<path fill="#0F172A" d="M283.171 191.209C283.633 191.153 283.403 191.157 283.986 191.225C285.67 191.42 285.596 191.361 286.708 192.743C286.436 198.143 285.301 209.051 281.981 213.38C281.197 214.401 280.285 214.245 279.113 214.387C277.563 212.212 278.092 209.01 278.097 206.343C270.111 210.567 243.746 267.808 223.839 279.806C219.337 282.519 214.26 283.868 209.067 282.522C196.475 279.258 188.962 261.807 182.758 251.403C181.062 254.384 179.031 257.214 176.912 259.906C172.325 265.731 166.117 272.312 158.254 273.024C148.011 273.952 139.509 265.577 132.262 259.523C129.134 263.487 126.614 266.441 122.03 268.754C121.9 268.673 121.762 268.601 121.638 268.511C119.213 266.749 116.818 263.297 116.266 260.381C115.701 257.398 116.502 254.549 118.272 252.116C119.509 250.417 121.293 248.897 123.434 248.595C126.403 248.176 128.534 250.083 130.786 251.714C134.231 247.151 137.955 242.473 141.973 238.404C147.117 233.194 153.59 228.853 161.171 228.919C170.521 229.001 176.613 234.782 182.708 241.048C184.939 238.151 187.177 235.254 189.821 232.718C193.518 229.171 198.106 226.337 203.426 226.68C217.491 227.586 227.543 249.309 236.347 258.748C247.013 243.746 256.593 227.309 266.221 211.62C267.828 209.001 269.822 206.843 271.026 203.978L270.215 202.974L266.778 202.914C265.205 201.763 265.23 201.778 264.757 199.884C266.468 196.132 279.129 193.074 283.171 191.209Z"/>
	<path fill="white" d="M201.248 232.459C213.506 233.311 219.59 248.424 226.286 256.997C228.23 259.487 230.75 261.647 233.108 263.736C229.245 268.375 224.686 273.128 219.121 275.646C216.557 276.453 213.821 277.054 211.157 276.398C199.763 273.595 192.265 255.36 186.929 246.125C190.604 240.032 194.717 235.443 201.248 232.459Z"/>
	<path fill="white" d="M162.906 235.231C166.746 235.701 170.718 237.476 173.96 239.56C175.926 240.825 177.318 242.76 177.698 245.097C178.26 248.549 176.054 251.995 174.061 254.627C169.272 260.952 163.411 265.987 155.435 267.094C147.459 264.563 142.706 260.335 136.769 254.677C138.482 251.418 140.325 248.464 142.803 245.727C148.286 239.671 154.702 235.607 162.906 235.231Z"/>
	<path fill="#0F172A" d="M110.028 109.028C111.745 109.122 112.845 109.435 114.405 110.149C115.907 112.598 115.715 114.986 115.752 117.815C115.946 132.841 114.806 148.321 114.391 163.378Q112.76 210.726 111.974 258.095C111.786 266.159 109.328 275.764 110.934 283.638C112.079 285.041 113.348 285.329 115.067 285.719C130.419 289.202 146.889 290.449 162.501 292.573L253.653 304.954C260.627 305.905 280.285 306.864 285.297 309.834C285.464 309.933 285.623 310.045 285.786 310.151C285.708 310.72 285.695 310.924 285.53 311.534C284.989 313.525 284.7 313.78 282.894 314.784C269.578 314.629 108.091 291.652 105.479 290.087C104.73 288.042 104.707 285.918 104.69 283.761C104.602 272.212 105.623 260.447 106.083 248.892Q106.739 227.541 107.069 206.183C107.805 174.041 107.26 141.044 110.028 109.028Z"/>
	<path fill="#0F172A" d="M130.755 118.309C131.885 118.249 133.007 118.259 134.138 118.312C146.684 118.907 159.4 121.9 171.719 124.279C183.075 126.472 194.494 128.359 205.871 130.444C217.352 132.549 234.211 134.434 244.889 137.766C246.981 138.419 247.359 138.994 248.81 140.608C248.339 141.072 247.858 141.583 247.32 141.974C245.748 143.115 244.775 143.354 242.836 143.254C230.096 142.597 216.391 138.988 203.809 136.668L132.553 123.726C131.063 121.908 131.107 120.544 130.755 118.309Z"/>
	<path fill="#0F172A" d="M132.172 162.506C150.191 166.019 168.466 169.032 186.578 172.046C193.119 173.135 205.123 173.801 210.953 176.398C211.394 176.594 212.096 177.424 212.487 177.774C212.807 179.81 212.812 180.097 211.971 181.969C206.049 181.749 135.058 170.324 132.684 169.212C132.22 168.994 131.949 168.497 131.582 168.139C130.913 165.837 131.338 164.71 132.172 162.506Z"/>
	<path fill="#0F172A" d="M131.618 141.018C141.153 142.288 205.605 152.017 211.021 154.848C212.516 155.629 212.557 155.853 212.983 157.447C211.927 159.362 211.661 159.269 209.72 160.056C196.217 156.379 137.127 150.91 130.872 145.702C130.566 143.525 130.847 143.008 131.618 141.018Z"/>
	<path fill="#0F172A" d="M177.094 432.085C176.89 429.787 176.666 427.454 176.639 425.146C176.607 422.315 177.217 419.802 179.267 417.751C181.959 416.814 184.051 418.609 186.753 418.669C189.42 416.553 189.638 411.023 191.769 407.972C192.94 406.295 194.601 405.168 196.64 404.858C200.594 404.256 205.823 405.542 208.85 408.143C213.062 411.763 213.466 416.113 213.882 421.246L215.087 422.24C218.588 422.592 222.712 422.41 225.514 424.724C227.127 427.718 226.163 432.257 225.883 435.597C232.996 436.59 264.598 439.249 267.97 442.468C269.484 452.251 268.522 463.226 268.478 473.143L268.205 529.895L267.755 614.263C267.726 626.57 269.251 645.831 266.879 657.458C264.97 658.525 168.205 647.094 158.368 646.276C148.372 645.445 127.313 644.994 118.44 642.395C116.979 641.967 116.16 641.424 115.077 640.373L114.453 638.499C116.072 630.674 114.778 610.368 114.898 600.98L116.538 501.33C116.782 479.079 116.063 454.067 118.042 432.077C118.277 429.476 118.252 426.557 120.023 424.599C129.96 423.887 150.699 428.048 161.46 429.467C166.573 430.927 171.903 431.072 177.094 432.085Z"/>
	<path fill="white" d="M123.75 430.414C131.075 431.505 171.334 435.925 175.448 438.093C178.113 439.497 176.683 443.05 179.254 444.544C181.712 445.972 221.242 451.497 223.996 450.864C225.7 448.551 224.715 446.283 225.857 443.874C226.253 443.04 226.585 442.73 227.444 442.392C230.414 441.222 258.746 445.67 261.942 447.2C262.712 453.973 261.853 461.526 261.816 468.395C261.703 489.524 260.787 511.003 261.515 532.082Q260.898 570.067 261.299 608.053C261.369 619.592 263.017 638.831 260.631 649.69C257.113 650.38 253.229 649.997 249.667 649.72C245.187 649.373 240.723 648.378 236.211 647.965Q193.301 643.97 150.455 639.332C145.031 638.763 124.921 637.817 121.219 636.382C119.628 628.106 119.921 613.642 121.13 605.355C120.704 585.801 121.625 566.103 122.015 546.546Q123.245 488.485 123.75 430.414Z"/>
	<path fill="#0F172A" d="M209.404 564.359C210.073 572.403 207.42 604.054 210.5 608.644C211.153 608.846 212.054 609.204 212.731 609.198C215.479 609.174 215.01 606.891 215.027 604.77C215.12 593.112 214.415 566.548 216.231 556.22C216.618 554.015 217.336 552.191 218.838 550.503C222.835 549.087 227.932 551.437 231.955 552.59C236.2 557.207 233.466 602.201 233.099 610.729Q233.072 611.297 233.039 611.865C236.783 611.941 243.218 611.41 245.917 614.387C246.993 615.574 246.816 616.07 246.796 617.578C245.775 618.722 245.051 619.45 243.427 619.578C239.833 619.862 227.887 617.489 223.374 617.038L170.769 611.371C160.828 610.337 150.599 609.949 140.759 608.308C138.752 607.973 136.288 607.575 134.948 605.883C134.508 605.327 134.692 604.953 134.736 604.304C135.436 603.631 136.216 602.667 137.065 602.214C138.969 601.846 139.641 602.005 140.934 600.499C141.928 596.45 140.71 594.609 140.412 590.803C140.228 588.458 140.987 585.986 142.665 584.299C144.654 582.301 147.642 581.801 150.348 581.928C153.33 582.067 156.525 583.141 158.472 585.522C161.033 588.652 159.044 599.528 158.725 603.544L163.71 604.191C171.061 600.804 163.785 573.593 167.126 565.212C167.685 564.803 168.148 564.464 168.823 564.268C172.404 563.226 180.391 564.308 183.577 566.296C183.832 566.455 184.559 567.019 184.685 567.216C185.688 568.791 182.901 600.059 184.294 605.005C184.736 606.573 185.278 606.672 186.604 607.43C188.103 607.317 189.077 607.286 190.331 606.342C192.692 593.954 190.502 580.07 191.46 567.395C191.655 564.808 191.942 563.723 193.862 562.063C198.966 560.745 204.503 562.922 209.404 564.359Z"/>
	<path fill="white" d="M222.807 556.09L226.117 557.4C229.559 561.658 226.824 603.218 226.535 611.269C225.096 610.873 223.779 610.347 222.408 609.759C220.225 605.388 222.579 564.482 222.807 556.09Z"/>
	<path fill="white" d="M197.464 567.429C199.009 567.617 200.234 568.168 201.641 568.785C201.937 569.201 202.71 570.028 202.842 570.474C204.116 574.791 202.511 601.145 202.477 607.893C200.675 607.828 199.325 607.599 197.617 607.009C195.777 601.759 197.708 575.225 197.464 567.429Z"/>
	<path fill="white" d="M172.752 570.599C174.41 570.659 175.714 570.879 177.302 571.371C179.121 580.405 177.941 595.862 177.539 605.42C175.654 605.267 174.358 605.004 172.638 604.204C170.907 599.896 172.64 576.845 172.752 570.599Z"/>
	<path fill="white" d="M148.138 588.07L151.21 588.785C154.161 591.514 152.46 598.518 152.665 602.5C151.422 602.646 150.223 602.648 148.976 602.633L147.759 601.332C146.324 597.094 147.531 592.4 148.138 588.07Z"/>
	<path fill="#0F172A" d="M152.631 450.936C155.97 451.697 159.318 452.408 162.223 454.31C167.297 457.633 171.147 462.799 172.383 468.775C173.431 473.84 172.711 479.242 169.77 483.571C166.277 488.71 161.329 491.139 155.402 492.265C152.213 491.84 148.969 491.008 146.176 489.373Q145.705 489.093 145.248 488.79Q144.791 488.487 144.35 488.163Q143.908 487.838 143.483 487.492Q143.058 487.146 142.65 486.779Q142.243 486.413 141.854 486.027Q141.464 485.641 141.094 485.236Q140.725 484.832 140.375 484.41Q140.025 483.988 139.697 483.549Q139.368 483.11 139.062 482.656Q138.755 482.201 138.471 481.732Q138.187 481.264 137.926 480.781Q137.666 480.299 137.429 479.805Q137.192 479.311 136.98 478.805Q136.767 478.3 136.58 477.785Q136.393 477.269 136.231 476.746Q136.069 476.222 135.933 475.691C134.618 470.652 135.067 465.023 137.747 460.495C141.205 454.653 146.339 452.551 152.631 450.936Z"/>
	<path fill="white" d="M149.2 457.553C151.254 457.479 153.485 457.344 155.509 457.748C159.199 458.485 162.847 461.32 164.769 464.536Q165.153 465.173 165.47 465.846Q165.787 466.519 166.033 467.221Q166.28 467.922 166.454 468.645Q166.628 469.369 166.727 470.106Q166.826 470.843 166.85 471.586Q166.873 472.33 166.821 473.072Q166.769 473.814 166.641 474.546Q166.514 475.279 166.312 475.995C164.844 481.041 161.778 483.484 157.379 485.822C155.853 485.941 154.346 485.84 152.836 485.583C148.957 484.922 145.779 482.464 143.681 479.19Q143.237 478.492 142.866 477.754Q142.494 477.015 142.198 476.243Q141.902 475.471 141.685 474.673Q141.468 473.875 141.332 473.059Q141.196 472.244 141.142 471.419Q141.088 470.593 141.118 469.767Q141.147 468.941 141.258 468.121Q141.37 467.302 141.563 466.498C142.596 462.009 145.582 459.897 149.2 457.553Z"/>
	<path fill="#0F172A" d="M157.414 463.065C158.748 463.661 160.156 464.289 161.066 465.484C162.027 466.748 162.435 468.65 162.207 470.208C161.747 473.349 159.19 475.933 156.583 477.547C153.274 479.595 150.453 479.329 146.887 478.491C145.534 476.951 144.649 476.005 144.322 473.946C146.048 472.485 147.957 472.973 150.177 472.861C153.109 472.713 155.069 472.472 157.14 470.19L156.156 468.885C155.714 466.734 156.637 465.032 157.414 463.065Z"/>
	<path fill="#0F172A" d="M137.487 503.784C148.606 504.152 160.687 506.808 171.813 508.152C190.483 510.407 214.369 511.534 232.053 516.083C233.73 516.514 234.845 517.396 236.077 518.57C235.289 519.691 234.613 520.737 233.344 521.355C230.701 522.645 144.763 511.978 136.89 509.07C136.169 506.985 136.875 505.814 137.487 503.784Z"/>
	<path fill="#0F172A" d="M139.584 521.829C147.763 522.203 156.374 523.809 164.55 524.742C175.592 526.001 187.13 526.692 198.023 528.841C200.744 529.378 202.89 529.668 204.496 532.071C204.083 534.075 203.825 534.018 202.271 535.209C193.213 534.952 143.265 530.153 139.168 527.057C138.528 524.76 138.935 524.071 139.584 521.829Z"/>
	<path fill="#0F172A" d="M180.915 465.458C181.118 465.463 181.32 465.461 181.522 465.473C187.496 465.813 193.672 467.509 199.643 468.285C209.109 469.516 219.542 469.642 228.764 471.863C230.17 472.201 231.124 472.82 232.066 473.897C232.499 476.083 232.332 476.273 231.36 478.307C223.052 476.839 185.116 474.936 180.86 471.371C179.883 469.076 180.462 467.804 180.915 465.458Z"/>
	<path fill="#0F172A" d="M182.468 479.953C188.656 481.212 218.567 484.272 221.414 485.973C223.155 487.012 223.348 487.402 223.752 489.352C222.964 490.729 222.396 491.119 221.078 491.9C213.342 490.522 184.663 488.995 180.669 484.343C180.563 482.019 181.12 481.77 182.468 479.953Z"/>
	<path fill="white" d="M183.983 423.633C190.947 425.99 215.376 426.993 219.138 430.107C220.394 434.455 219.337 439.914 218.631 444.318C207.544 442.039 194.487 442.7 183.878 439.045C183.072 434.344 183.191 428.32 183.983 423.633Z"/>
	<path fill="white" d="M198.858 421.025C196.422 420.179 195.863 420.141 194.357 418.103C194.174 416.229 194.007 415.198 195.289 413.605C196.516 412.081 198.691 411.088 200.633 411.087C202.215 411.086 203.664 411.844 204.743 412.971C207.187 415.526 207.287 418.51 207.599 421.804C204.422 420.91 202.164 420.323 198.858 421.025Z"/>
	<path fill="#0F172A" d="M356.246 206.77C356.547 199.187 355.81 158.386 358.524 155.701L358.504 155.384L357.411 155.308L358.23 154.04L358.261 154.072C365.565 152.465 389.881 158.508 398.573 160.119C411.733 162.522 480.416 174.428 486.617 178.372C488.047 183.44 485.023 347.996 484.723 348.776C481.865 350.147 478.383 349.845 475.308 349.588C450.846 347.54 426.131 342.707 401.787 339.289C393.501 338.126 363.991 335.059 357.89 332.685C356.973 332.329 356.15 331.893 355.335 331.348C353.497 324.995 355.053 313.089 355.15 306.026Q355.301 276.911 355.92 247.802C356.235 234.513 357.595 219.958 356.246 206.77Z"/>
	<path fill="white" d="M363.046 190.724C363.462 185.017 361.77 166.169 364.093 162.201C368.495 159.525 383.81 164.238 389.424 164.842L389.961 164.896C401.169 167.031 475.832 179.765 480.426 182.783C481.051 184.012 481.294 184.89 481.3 186.285C481.38 203.542 480.176 221 480.006 238.31C479.662 273.465 480.044 308.694 479.197 343.831Q434.237 338.029 389.389 331.411C380.864 330.119 368.881 329.693 360.987 326.423C359.745 321.413 362.193 193.314 363.046 190.724Z"/>
	<path fill="#0F172A" d="M449.26 294.134C449.214 294.364 449.171 294.593 449.122 294.822C448.689 296.842 448.459 297.808 446.894 299.176C445.782 299.134 445.609 299.407 444.832 298.476C442.512 295.694 442.748 288.424 443.336 285.019C443.842 282.085 444.834 279.438 447.4 277.71C449.894 276.03 452.303 275.182 455.279 275.896C458.15 276.585 460.419 278.448 461.876 280.993C463.988 284.681 464.617 289.567 463.345 293.631C462.505 296.316 460.957 298.475 458.322 299.612C456.111 300.566 453.94 300.324 451.664 299.808C450.297 298.317 450.068 297.825 450.052 295.792C450.048 295.217 450.086 295.08 450.165 294.58C451.366 294.591 453.237 294.778 454.348 294.32C455.562 293.819 457.09 291.934 457.626 290.769C458.437 289.005 458.27 286.83 457.589 285.055C456.958 283.412 455.699 281.442 453.982 280.786C452.596 280.256 452.282 280.561 451.005 281.115C448.273 284.997 449.001 289.652 449.26 294.134Z"/>
	<path fill="#0F172A" d="M372.394 256.299C387.876 260.02 407.919 259.673 422.452 263.622C423.37 265.61 422.973 266.494 422.662 268.624C416.716 269.098 377.204 263.996 371.791 261.624C371.2 259.497 371.807 258.341 372.394 256.299Z"/>
	<path fill="#0F172A" d="M374.344 196.404C379.583 195.724 419.994 200.264 423.418 202.235C424.589 202.909 424.456 203.652 424.683 204.864C423.869 206.496 423.955 206.426 422.245 207.054C409.206 206.029 386.822 204.794 374.926 200.843C373.694 199.124 374.128 198.456 374.344 196.404Z"/>
	<path fill="#0F172A" d="M373.634 211.213C382.21 212.449 404.714 213.149 411.243 216.613C412.405 218.691 412.079 219.343 411.838 221.657C403.602 222.024 382.208 219.477 374.318 216.906C373.171 214.842 373.525 213.482 373.634 211.213Z"/>
	<path fill="#0F172A" d="M374.541 272.22C382.347 274.143 407.064 275.38 411.948 278.378C412.865 280.332 412.297 280.977 411.72 283.004C402.656 282.243 393.561 281.445 384.523 280.421C380.692 279.987 375.238 279.777 372.681 276.555C372.687 274.293 373.226 273.988 374.541 272.22Z"/>
	<path fill="#0F172A" d="M458.253 233.623C456.707 230.099 456.161 229.914 452.654 228.211L451.14 228.594C449.724 231.518 450.13 235.329 448.084 237.659L446.605 237.882C444.911 236.509 444.028 235.254 443.832 232.971C443.661 230.992 444.418 229.119 445.798 227.722C447.17 226.333 448.65 225.067 450.013 223.654C449.279 221.02 447.613 218.115 448.109 215.391C449.525 214.208 450.41 213.97 452.312 214.34C453.223 214.516 453.881 215.081 454.298 215.877C457.52 222.03 450.026 222.902 461.213 227.164C462.983 229.106 463.47 231.286 463.737 233.865C463.725 235.29 463.866 237.264 463.238 238.542C462.564 239.917 462.003 239.908 460.658 240.309L459.029 239.063C458.028 237.058 457.98 235.831 458.253 233.623Z"/>
	<path fill="#0F172A" d="M374.768 288.285C383.964 291.333 394.349 290.511 403.846 292.676C405.706 293.1 407.37 293.702 408.423 295.359C407.869 297.386 407.699 297.448 406.158 298.709C399.96 297.878 376.044 296.835 372.777 292.878C372.655 290.345 373.225 290.197 374.768 288.285Z"/>
	<path fill="#0F172A" d="M372.519 226.246C380.931 226.88 394.539 226.252 401.9 230.239C403.154 232.199 402.748 232.528 402.337 234.74C393.885 234.522 381.744 234.993 374.114 231.466C372.524 229.59 372.721 228.562 372.519 226.246Z"/>
	<path fill="#0F172A" d="M435.903 261.517C440.501 262.575 445.216 262.994 449.883 263.644C453.904 264.205 462.424 264.617 464.925 267.931C464.379 269.847 464.051 269.94 462.558 271.147C459.871 270.764 457.148 270.537 454.45 270.23C449.112 269.623 437.571 269.52 434.198 265.279C434.438 263.268 434.691 263.036 435.903 261.517Z"/>
	<path fill="#0F172A" d="M436.839 202.286C443.801 205.29 455.438 201.953 461.054 206.823C461.833 208.989 461.659 209.548 461.211 211.843C454.819 211.881 441.707 211.14 436.552 207.441C435.689 205.164 436.177 204.57 436.839 202.286Z"/>
	<path fill="#0F172A" d="M434.782 278.641C436.449 279.246 437.052 279.642 438.196 280.997C439.964 286.692 440.208 295.944 438.597 301.616C437.315 301.723 436.658 301.566 435.473 301.073C435.02 300.327 434.712 299.79 434.478 298.943C433.291 294.659 432.723 282.525 434.782 278.641Z"/>
	<path fill="#0F172A" d="M435.606 222.471L438.259 223.744C439.895 225.98 439.971 229.902 439.833 232.597C439.613 236.874 439.37 239.772 436.111 242.653C435.721 242.171 435.367 241.675 435.122 241.098C433.657 237.656 434.109 225.997 435.606 222.471Z"/>
	<path fill="#0F172A" d="M1127.87 316.194C1128.74 316.147 1129.8 316.028 1130.66 316.209C1132.29 316.553 1133.03 317.915 1133.45 319.403C1134.75 324.081 1133.45 329.792 1133.44 334.611C1133.44 339.325 1135.01 371.382 1136.33 373.748C1144.62 373.997 1166.67 370.576 1172.01 371.754C1173.67 373.116 1173.55 373.105 1173.85 375.089C1170.58 380.176 1143.31 377.375 1138.04 380.167C1137.4 380.505 1137.39 380.88 1137.2 381.537C1135.86 386.214 1137.17 418.287 1139.23 422.065C1140.69 423.123 1141.2 423.557 1143.05 423.733C1147.37 424.144 1159.95 421.503 1166.44 421.594C1169.24 421.633 1173.54 421.851 1175.59 423.935L1175.05 425.259C1164.68 431.279 1150.12 426.366 1139.12 430.647C1138.53 435.073 1141.03 472.607 1142.02 477.34C1142.11 477.771 1142.5 479.579 1142.81 479.825C1146.85 483.105 1170.73 476.935 1176.43 480.517C1177.33 482.207 1177.44 482.129 1176.96 483.954C1173.01 487.281 1150.83 485.929 1143.84 487.204C1139.26 493.322 1147.95 516.018 1142.85 522.554C1142.12 523.484 1141.88 523.253 1140.79 523.382C1135.07 517.992 1138.92 500.25 1137.28 492.625C1136.88 490.791 1136.12 488.909 1134.38 487.978C1130.5 485.902 1096.33 489.974 1090.77 491.412C1088.56 498.822 1093.3 510.683 1089.58 517.321C1087.94 518.186 1088.02 518.355 1086.13 517.794C1082.33 512.21 1085.42 498.339 1084.41 491.356L1083.45 490.648L1084.32 491.229C1081.49 490.154 1056.66 491.684 1052.18 492.069C1050.03 492.254 1045.13 492.38 1043.57 493.914C1041.25 496.182 1045.33 516.426 1040.86 521.731L1039.56 521.602C1032.31 515.887 1040.39 500.826 1036.27 493.895C1033.07 492.416 1027.85 493.484 1024.31 493.637C1014.53 493.801 1003.79 493.729 994.169 495.41C989.94 500.123 992.997 512.723 990.794 519.114C990.219 520.782 990.02 520.865 988.448 521.596L987.031 520.682C984.207 514.896 986.169 501.599 987.491 495.299C981.674 495.817 975.831 496.424 969.995 496.659C967.484 496.76 964.307 497.003 962.351 495.177C962.436 493.458 962.711 493.269 963.704 491.935C970.953 489.874 979.491 490.471 986.994 490.315C987.327 477.881 990.696 450.577 988.429 440.016C982.364 439.403 970.576 442.034 965.89 439.934C965.082 438.267 965.111 438.363 965.651 436.585C969.935 432.708 983.602 434.291 989.703 433.882C990.684 425.283 989.96 416.181 991.599 407.708C992.037 405.443 992.51 404.035 994.442 402.71L995.672 403.451C998.79 411.017 995.641 424.088 996.163 432.448L997.04 433.054C1002.48 433.923 1031.05 431.273 1037.23 430.062C1041.55 426.428 1036.85 413.859 1039.75 408.549C1040.36 407.426 1040.6 407.622 1041.73 407.266C1048.88 409.995 1042.55 423.099 1045.38 429.245C1045.98 429.406 1046.48 429.548 1047.1 429.559C1049.39 429.599 1082.11 428.09 1082.11 428.09C1082.62 427.869 1082.92 427.335 1083.32 426.958C1086.29 419.637 1085.22 393.619 1084.15 385.151C1077.58 383.525 1069.12 386.102 1062.4 386.387C1060.54 386.466 1060.19 386.215 1058.77 385.014C1058.38 383.238 1058.31 383.103 1059.02 381.45C1065.08 377.56 1076.35 379.805 1083.51 378.409C1087.22 373.371 1081.81 353.26 1085.63 347.199C1086.3 346.134 1086.64 346.302 1087.76 345.981C1089.37 347.332 1089.73 348.089 1090.16 350.154C1091.22 355.26 1092.1 374.435 1089.32 378.494C1096.19 377.547 1125.91 376.47 1129.19 373.354C1130.12 354.552 1128.12 335.07 1127.87 316.194Z"/>
	<path fill="white" d="M1128.2 430.233C1129.79 430.382 1131.36 430.756 1132.92 431.069C1134.38 439.434 1133.79 448.62 1134.32 457.129C1134.81 464.749 1136.42 472.868 1135.98 480.457C1124.07 482.717 1110.73 482.65 1098.58 483.533C1095.56 484.02 1092.46 484.053 1089.42 484.211C1094.09 476.549 1087.23 443.417 1091.71 433.484C1099.67 430.359 1118.02 431.759 1127.56 430.335L1128.2 430.233Z"/>
	<path fill="white" d="M1023.75 436.981C1028.16 437.518 1033.13 436.835 1037.65 437.014C1037.89 437.864 1038.07 438.597 1038.17 439.477C1038.69 444.377 1037.95 484.444 1036.19 486.725C1028.56 489.16 1012.6 488.12 1003.84 488.856C1001 488.376 996.464 489.378 993.487 489.628C992.796 479.444 993.898 449.312 995.742 439.492C1002.95 437.098 1015.82 437.686 1023.75 436.981Z"/>
	<path fill="white" d="M1072.11 433.99C1076.02 434.071 1079.93 433.882 1083.85 433.962L1084.61 434.886C1084.49 443.431 1086.31 479.488 1083.38 484.528L1052.06 486.04C1048.91 486.349 1045.73 486.299 1042.56 486.334C1046.57 474.822 1041.12 446.208 1045.72 436.181C1053.53 433.876 1063.85 435.007 1072.11 433.99Z"/>
	<path fill="white" d="M1120.74 380.719C1124.01 381.731 1126.86 379.659 1130.02 381.853C1131.96 391.958 1132.42 413.263 1131.97 423.52C1123.51 426.118 1104 425.947 1094.31 426.557L1092.33 426.744L1091.25 425.78C1089.78 414.937 1090.24 396.67 1091 385.391C1095.76 380.893 1113.1 383.303 1119.85 381.038C1120.15 380.937 1120.44 380.825 1120.74 380.719Z"/>
	<path fill="#0F172A" d="M355.009 364.268C369.71 364.726 384.741 367.608 399.283 369.788C412.662 371.793 426.122 373.385 439.477 375.492C440.2 376.201 440.623 376.754 440.962 377.728C443.156 384.04 442.606 434.118 440.102 439.647C428.168 438.985 361.934 430.143 354.374 426.309C352.419 421.366 353.283 370.255 355.009 364.268Z"/>
	<path fill="white" d="M359.975 370.002C369.096 372.237 378.686 373.184 387.975 374.549C403.81 376.874 419.584 379.218 435.348 381.977C438.443 389.302 436.246 422.153 435.549 431.452L435.411 432.683C435.206 432.762 435.004 432.849 434.796 432.92C432.968 433.547 364.641 423.462 360.007 421.165L360.193 419.574L359.72 420.255C358.343 403.965 359.256 386.347 359.975 370.002Z"/>
	<path fill="#0F172A" d="M376.709 388.823C384.192 389.528 418.356 393.082 422.83 396.438C423.488 398.704 423.092 399.183 422.356 401.36C421.786 401.15 421.21 400.966 420.639 400.761C410.735 397.217 394.534 397.866 383.617 395.992C380.857 395.518 376.995 395.106 375.286 392.683C375.259 390.638 375.583 390.445 376.709 388.823Z"/>
	<path fill="#0F172A" d="M373.516 404.089C382.283 405.723 396.397 404.902 404.168 408.403C406.277 409.353 406.45 410.505 407.166 412.495C406.578 412.946 405.87 413.517 405.154 413.739C402.396 414.595 376.823 410.656 374.371 409.459C373.1 407.319 373.394 406.523 373.516 404.089Z"/>
	<path fill="#0F172A" d="M1177.86 230.68C1179.44 230.66 1180.22 230.958 1181.62 231.588C1182.54 233.122 1182.85 233.502 1182.64 235.284C1181.85 242.15 1169.84 265.154 1164.51 269.481C1158.54 269.579 1155.54 264.895 1151.01 261.819L1150.43 261.436C1149.89 265.544 1123.2 292.108 1119.15 296.311C1119.7 300.319 1119.55 304.65 1118.08 308.464C1116.31 313.031 1113.17 316.722 1108.54 318.601C1102.2 321.178 1096.76 319.805 1090.77 317.152C1087.82 326.383 1072.06 351.529 1066.29 361.27C1062.02 368.483 1052.83 384.97 1044.19 386.715C1028.1 389.963 1017.18 369.563 1006.02 361.586C1002.79 362.67 997.232 363.385 994.504 365.131C985.951 370.602 978.932 395.021 968.886 399.264C967.057 399 967.007 399.068 965.766 397.72C965.552 394.28 976.593 381.066 979.107 377.038C981.793 372.438 984.518 367.906 987.45 363.456C985.167 361.739 983.181 359.719 981.14 357.727C980.383 354.774 979.461 351.69 979.301 348.634C979.041 343.682 980.722 338.396 984.129 334.745Q984.728 334.109 985.388 333.537Q986.047 332.965 986.762 332.462Q987.476 331.959 988.237 331.532Q988.999 331.104 989.799 330.755Q990.6 330.406 991.432 330.14Q992.263 329.874 993.118 329.693Q993.972 329.512 994.84 329.419Q995.709 329.325 996.582 329.32C1003.73 329.212 1007.96 332.364 1012.9 337.118C1014.57 345.366 1014.57 349.367 1009.86 356.531C1016.57 363.18 1023.21 370.961 1030.66 376.726C1034.11 379.39 1038.73 382.073 1043.23 381.495C1055.66 373 1078.21 328.562 1086.36 313.936C1086.15 310.585 1086.42 306.071 1084.33 303.322C1086.39 301.09 1087.45 297.984 1089.25 295.501C1092.17 291.478 1097.35 287.076 1102.45 286.54C1107.36 286.023 1111.4 288.231 1115.08 291.166C1120.31 287.24 1145.14 261.718 1146.33 256.957C1144.87 252.794 1141.26 250.153 1139.44 246.165L1140.06 244.517C1146.48 238.83 1168.86 233.826 1177.86 230.68Z"/>
	<path fill="white" d="M994.976 334.967C998.873 335.61 1003.14 336.002 1005.97 339.088C1007.62 340.894 1008.38 343.023 1008.16 345.466C1007.63 351.194 1003.62 354.529 999.477 357.867C997.285 357.951 994.935 358.054 992.758 357.715C989.986 357.284 987.691 355.629 986.194 353.276C984.651 350.852 984.449 347.883 985.243 345.16C986.711 340.119 990.571 337.317 994.976 334.967Z"/>
	<path fill="#0F172A" d="M994.127 341.085C995.964 341.376 998.108 341.741 999.441 343.182C1000.58 344.412 1000.93 345.646 1000.9 347.273C1000.84 349.965 999.121 351.544 997.257 353.245C995.601 352.49 993.598 351.547 992.335 350.209C991.125 348.926 990.387 347.32 990.637 345.542C990.915 343.566 992.691 342.255 994.127 341.085Z"/>
	<path fill="white" d="M1100.64 293.689C1103.28 293.374 1106.35 292.768 1108.84 293.973C1111.04 295.04 1112.64 297.092 1113.31 299.434C1114.2 302.594 1113.31 306.051 1111.53 308.735C1109.25 312.186 1106.6 313.317 1102.77 314.199C1101.58 313.935 1102.06 313.962 1100.92 313.99C1099.65 314.021 1098.08 314.225 1096.86 313.828C1095.2 313.285 1093.44 311.242 1092.68 309.722C1091.4 307.15 1091.7 304.489 1092.67 301.854C1094.25 297.55 1096.64 295.483 1100.64 293.689Z"/>
	<path fill="#0F172A" d="M1098.51 298.194C1099.44 298.095 1100.41 297.97 1101.35 297.967C1103.21 297.959 1104.55 298.413 1105.75 299.93C1106.77 301.225 1107.19 302.998 1106.72 304.585C1106.08 306.726 1104.66 307.853 1102.77 308.847C1101.62 309.346 1100.41 309.127 1099.19 309.042C1098.01 308.272 1097.45 308.047 1096.98 306.636C1095.94 303.547 1097.11 300.874 1098.51 298.194Z"/>
	<path fill="white" d="M1171.94 238.927C1173.01 238.867 1173.97 238.981 1175.03 239.096C1171.72 246.116 1167.35 257.772 1161.87 263.149C1160.7 261.074 1156.36 258.449 1154.4 256.938C1152.33 253.394 1148.97 249.896 1145.63 247.521C1154.23 244.929 1163.8 242.63 1171.94 238.927Z"/>
	<path fill="#0F172A" d="M1414.48 463.018C1417.23 462.828 1419.52 462.215 1422.02 463.451C1424.1 468.923 1423.38 502.986 1421.15 508.123L1419.91 508.975C1418.45 508.265 1418.2 508.18 1417.66 506.616C1415.16 499.442 1420.19 471.526 1415.2 468.681Q1377.22 471.936 1339.2 474.613C1330.12 475.22 1269.86 477.859 1264.73 479.998C1264.21 480.217 1263.4 480.766 1263.1 481.243C1261.41 483.864 1263.25 549.026 1263.26 557.051C1263.26 562.344 1264.31 570.919 1262.61 575.754C1262.51 576.044 1262.39 576.328 1262.28 576.615C1268.18 575.979 1274.48 576.171 1280.45 575.881L1326.41 573.751C1351.5 572.502 1376.81 570.084 1401.9 569.524C1403.26 569.493 1404.6 569.749 1405.77 570.465C1407.22 571.353 1407.21 571.625 1407.59 573.271C1406.47 574.758 1405.86 575.194 1403.96 575.548C1396.71 576.901 1381.24 576.717 1373.1 577.182L1289.56 581.518C1280.14 581.963 1268.76 581.259 1259.68 583.074C1258.52 583.304 1258.72 583.25 1257.74 582.815C1257.67 582.431 1257.6 582.048 1257.54 581.663C1255.7 569.809 1257.47 547.684 1257.45 534.743C1257.42 520.038 1256.87 505.391 1257.03 490.68C1257.07 486.834 1256.63 482.93 1256.88 479.094C1256.97 477.532 1257.23 476.75 1258.15 475.493C1259.66 474.467 1260.93 473.989 1262.74 473.685C1264.66 473.362 1284.35 471.726 1285.34 471.856C1292.22 472.763 1310.83 470.449 1318.7 469.894C1350.62 467.643 1382.52 464.583 1414.48 463.018Z"/>
	<path fill="#0F172A" d="M916.306 587.665C920.336 588.989 920.558 593.268 923.765 595.787C928.349 595.711 927.842 592.008 930.913 589.914C932.023 589.157 932.643 589.676 933.815 590.038C934.884 592.962 932.18 594.722 933.127 597.587C936.887 601.241 939.661 595.911 943.954 596.711L944.469 598.08C943.788 599.227 942.886 600.522 942.431 601.773C941.751 603.644 942.14 604.303 942.951 605.937C945.312 606.926 947.244 606.178 949.728 605.776C951.685 606.532 951.501 606.605 952.306 608.41L951.83 609.629L951.382 609.802C948.813 610.808 947.328 611.093 946.197 613.695C947.3 619.422 950.864 615.396 954.782 618.918L954.464 620.914C952.313 622.975 950.292 622.666 947.433 623.235C946.518 625.004 946.255 626.591 945.957 628.549C946.492 628.895 947.03 629.243 947.545 629.618C949.306 630.9 950.522 631.813 950.838 633.969C950.56 634.301 950.506 634.417 950.068 634.648C948.728 635.357 947.041 635.398 945.603 635.096C945.478 635.07 944.376 634.811 944.21 634.805C942.258 634.735 941.676 635.963 940.434 637.255C940.264 639.577 942.878 641.394 943.867 643.658L943.203 644.748C939.387 645.775 935.93 642.03 931.88 642.646C930.926 645.309 932.332 647.367 931.754 650.126L930.348 650.976L928.596 650.463C927.563 648.383 926.486 647.16 924.725 645.656C919.286 644.451 920.332 650.036 916.136 651.236L914.79 650.142C914.109 648.12 914.229 647.709 914.72 645.606C913.858 644.074 912.053 643.515 910.522 642.808C907.925 642.971 907.469 644.49 905.745 646.315L903.982 646.271C902.427 645.089 902.451 645.121 902.029 643.213C902.914 641.356 903.655 640.063 903.412 637.975C902.4 636.59 901.491 635.713 900.101 634.704C898.586 635.759 897.365 636.497 895.592 637.034C893.83 636.358 893.677 636.391 892.621 634.701C893.594 631.179 897.407 631.577 898.607 628.285C896.936 623.205 894.034 624.322 889.985 622.122L889.675 620.339C891.523 617.626 894.984 619.402 897.081 616.768C900.72 612.196 893.705 609.633 893.3 605.871L894.699 604.511C896.991 604.377 898.188 605.689 900.033 606.935C900.602 606.834 901.203 606.761 901.706 606.445C907.591 602.761 901.215 600.052 902.636 595.727C906.309 594.743 909.392 598.422 913.603 597.08C916.648 594.128 914.368 591.798 916.306 587.665Z"/>
	<path fill="white" d="M919.809 601.188Q920.459 601.108 921.114 601.071Q921.768 601.035 922.424 601.042Q923.079 601.05 923.732 601.102Q924.386 601.153 925.034 601.249Q925.683 601.345 926.323 601.483Q926.964 601.622 927.594 601.804Q928.223 601.986 928.839 602.209Q929.456 602.433 930.055 602.697Q930.655 602.962 931.236 603.266Q931.816 603.57 932.375 603.913Q932.934 604.255 933.468 604.635Q934.003 605.014 934.511 605.428Q935.019 605.843 935.497 606.29Q935.976 606.738 936.424 607.217Q936.872 607.696 937.286 608.204Q937.701 608.711 938.08 609.246Q938.459 609.781 938.802 610.339Q939.145 610.898 939.449 611.479Q939.753 612.06 940.018 612.659Q940.283 613.259 940.506 613.875Q940.73 614.492 940.912 615.122Q941.094 615.752 941.232 616.392Q941.372 617.033 941.467 617.681Q941.563 618.33 941.615 618.984Q941.667 619.637 941.674 620.293Q941.682 620.948 941.646 621.603Q941.61 622.257 941.529 622.908Q941.449 623.559 941.326 624.203Q941.202 624.846 941.035 625.48Q940.869 626.114 940.66 626.736Q940.451 627.357 940.201 627.963Q939.95 628.569 939.66 629.157Q939.37 629.745 939.04 630.312Q938.711 630.879 938.345 631.422Q937.978 631.966 937.576 632.483Q937.174 633.001 936.738 633.49Q936.302 633.98 935.834 634.439Q935.366 634.898 934.868 635.324Q934.37 635.75 933.845 636.143Q933.319 636.535 932.769 636.89Q932.219 637.246 931.645 637.564Q931.072 637.882 930.479 638.161Q929.886 638.44 929.275 638.678Q928.665 638.916 928.039 639.113Q927.414 639.31 926.777 639.464Q926.14 639.618 925.494 639.729Q924.848 639.84 924.196 639.907Q923.544 639.975 922.889 639.998Q922.424 640.015 921.96 640.009Q921.495 640.003 921.031 639.976Q920.567 639.948 920.104 639.898Q919.642 639.848 919.183 639.776Q918.723 639.704 918.268 639.61Q917.813 639.517 917.362 639.401Q916.912 639.286 916.467 639.149Q916.023 639.012 915.586 638.855Q915.148 638.697 914.719 638.518Q914.29 638.34 913.869 638.141Q913.449 637.942 913.039 637.724Q912.628 637.505 912.229 637.267Q911.829 637.029 911.442 636.773Q911.054 636.516 910.679 636.241Q910.304 635.966 909.943 635.674Q909.581 635.381 909.234 635.072Q908.887 634.762 908.555 634.437Q908.223 634.111 907.907 633.77Q907.591 633.429 907.292 633.073Q906.992 632.717 906.71 632.348Q906.428 631.978 906.164 631.595Q905.9 631.213 905.654 630.818Q905.409 630.423 905.182 630.017Q904.956 629.611 904.749 629.194Q904.542 628.778 904.355 628.352Q904.169 627.926 904.002 627.491Q903.836 627.057 903.691 626.615Q903.546 626.174 903.421 625.725Q903.297 625.277 903.195 624.824Q903.092 624.37 903.011 623.912Q902.931 623.454 902.872 622.993Q902.813 622.532 902.776 622.068Q902.739 621.604 902.725 621.14Q902.71 620.675 902.718 620.21Q902.725 619.745 902.755 619.281Q902.785 618.817 902.836 618.354Q902.888 617.892 902.962 617.433Q903.036 616.974 903.131 616.519Q903.227 616.064 903.344 615.614Q903.461 615.164 903.6 614.72Q903.739 614.276 903.898 613.839Q904.058 613.402 904.238 612.974Q904.418 612.545 904.619 612.125Q904.819 611.706 905.039 611.296Q905.26 610.886 905.499 610.488Q905.739 610.089 905.997 609.703Q906.255 609.316 906.532 608.942Q906.808 608.568 907.102 608.208Q907.396 607.847 907.707 607.502Q908.017 607.156 908.344 606.825Q908.671 606.494 909.014 606.18Q909.356 605.865 909.713 605.567Q910.07 605.269 910.441 604.988Q910.811 604.708 911.195 604.445Q911.579 604.183 911.975 603.939Q912.37 603.695 912.777 603.47Q913.184 603.245 913.602 603.04Q914.019 602.835 914.445 602.65Q914.872 602.465 915.307 602.3Q915.742 602.136 916.184 601.992Q916.626 601.849 917.075 601.727Q917.523 601.604 917.977 601.504Q918.431 601.403 918.889 601.324Q919.348 601.245 919.809 601.188Z"/>
	<path fill="#0F172A" d="M1279.83 357.459C1282.21 357.19 1282.92 357.102 1285.04 358.181C1285.4 360.267 1284.16 361.791 1283.23 363.643L1283.9 364.657C1290.07 367.565 1289.45 363.042 1294.45 363.079L1295.86 364.673C1296.58 367.945 1295.1 369.533 1293.45 372.384C1294.05 378.348 1299.52 373.813 1302.71 376.933L1302.66 379.237C1301.13 381.247 1298.43 381.519 1296.19 382.726L1295.8 385.274C1297.01 387.641 1298.95 387.844 1300.88 389.488C1302.26 390.666 1302.24 390.815 1302.44 392.637C1298.87 397.407 1297.89 392.76 1293.86 393.972C1290.31 398.81 1294.79 400.568 1293.93 405.091C1289.79 407.209 1289.64 402.994 1286.05 402.5C1280.02 406.946 1284.02 406.347 1282.38 411.459C1282.04 412.537 1280.87 412.811 1279.9 413.327C1276.83 412.132 1277.02 408.011 1274.2 406.044C1273.5 406.144 1272.62 406.221 1271.97 406.499C1270.68 407.047 1270.09 408.643 1269.5 409.819L1269.2 410.416L1268.81 411.978L1266.92 412.574C1264.49 410.973 1263.7 406.463 1262.71 403.648L1261.34 403.028C1259.64 404.594 1258.21 405.948 1256.06 406.907C1254.2 406.281 1254.24 405.993 1253.24 404.387C1253.67 401.669 1255.38 400.595 1257.22 398.638C1254.86 392.293 1251.78 398.081 1247.98 395.819C1246.37 390.253 1252.85 390.576 1254.18 386.014C1252.56 383.105 1249.04 382.652 1247.03 379.832L1247.31 378.278C1250.25 376.395 1251.43 377.21 1254.78 377.873C1255.25 377.464 1255.53 377.271 1255.89 376.708C1258.4 372.805 1253.34 371.211 1252.51 368.048C1253.57 366.533 1253.64 366.341 1255.46 365.662C1258.08 366.182 1258.67 367.042 1260.72 368.707C1262.29 367.803 1263.99 367.109 1264.71 365.34C1264.29 363.692 1263.72 361.933 1263.8 360.219C1263.85 358.943 1264.15 359.031 1265.02 358.2C1270.87 357.378 1268.93 363.127 1273 364.998C1276.55 363.459 1277.84 360.555 1279.83 357.459Z"/>
	<path fill="white" d="M1269.27 369.465C1271.73 369.521 1274.14 368.997 1276.61 369.251C1280.32 369.631 1285.01 371.537 1287.26 374.547C1289.87 378.029 1290.01 382.307 1289.5 386.435C1289.53 386.71 1289.59 386.985 1289.58 387.261C1289.49 389.547 1287.12 393.427 1285.6 395.187C1283.5 397.611 1280.42 400.022 1277.14 400.214C1276.12 400.975 1275.52 401.178 1274.18 401.029C1269.23 400.483 1264.72 398.843 1261.74 394.597C1259.58 391.524 1258.92 387.701 1259.49 384.034C1260.26 379.083 1262.85 373.972 1266.98 371.022Q1268.11 370.215 1269.27 369.465Z"/>
	<path fill="#0F172A" d="M322.326 470.245C324.791 470.028 327.284 470.387 329.638 471.145C333.019 472.233 335.859 474.575 337.421 477.774C339.444 481.916 339.114 486.69 337.483 490.89Q337.264 491.438 337.02 491.974Q336.775 492.511 336.505 493.035Q336.234 493.559 335.939 494.07Q335.644 494.58 335.325 495.076Q335.006 495.572 334.663 496.052Q334.32 496.532 333.954 496.994Q333.589 497.457 333.202 497.902Q332.814 498.347 332.406 498.772Q331.998 499.198 331.569 499.603Q331.141 500.008 330.694 500.393Q330.247 500.777 329.781 501.139Q329.316 501.502 328.834 501.841Q328.352 502.181 327.854 502.497Q327.356 502.813 326.844 503.104Q326.331 503.396 325.805 503.662Q325.279 503.929 324.741 504.17C321.444 505.016 317.687 505.416 314.357 504.608C311.588 503.936 309.077 502.466 307.642 499.93C305.411 495.984 305.94 490.306 307.243 486.126C309.759 478.048 315.16 474.045 322.326 470.245Z"/>
	<path fill="white" d="M324.569 475.573C325.756 475.811 326.998 476.041 328.131 476.476C330.246 477.288 331.934 479.517 332.636 481.611C333.678 484.722 332.907 488.404 331.336 491.192C329.175 495.027 326.206 497.739 321.958 498.924C320.046 499.196 317.826 499.66 315.981 498.904C314.3 498.215 313.227 496.674 312.654 495.004C311.48 491.584 312.657 487.724 314.278 484.639C316.61 480.201 319.701 477.033 324.569 475.573Z"/>
	<path fill="#0F172A" d="M923.79 44.7848C929.976 44.4375 932.738 45.3695 937.662 48.9499C938.487 50.5249 939.337 52.1878 939.867 53.8874C941.189 58.1314 940.39 63.1204 938.406 67.0231C935.189 73.3517 929.185 76.7581 922.686 78.8773C919.969 79.2472 916.805 78.7109 914.222 77.7959C911.635 76.8791 909.548 74.9939 908.495 72.4449C906.653 67.984 907.614 62.3282 909.536 58.0569C912.458 51.5639 917.181 47.2553 923.79 44.7848Z"/>
	<path fill="white" d="M924.603 50.6795C926.012 50.5853 927.491 50.4654 928.868 50.8457C930.751 51.3655 932.527 52.4829 933.427 54.2644C934.488 56.364 934.257 58.6901 933.559 60.8586C931.635 66.836 928.213 69.9277 922.714 72.6707C921.414 72.6638 920.03 72.7029 918.743 72.5138C916.914 72.2451 915.367 71.2902 914.35 69.7263C913.139 67.8636 913.184 65.4604 913.764 63.3973C915.475 57.3147 919.251 53.6667 924.603 50.6795Z"/>
	<path fill="#0F172A" d="M1382.46 488.744C1386.74 488.995 1391.33 487.703 1395.52 488.279C1397.6 488.566 1398.19 489.2 1399.45 490.695C1400.14 497.376 1400.55 554.02 1398.85 557.238C1398.3 558.292 1397.73 558.133 1396.64 558.45C1389.47 554.116 1397.58 507.33 1392.39 496.991L1392.78 494.932C1390.97 494.402 1388.35 494.076 1386.61 494.898C1384.7 495.804 1383.8 497.619 1383.41 499.643C1382.71 503.267 1383.46 507.319 1383.41 511.012C1383.27 523.693 1384.3 548.389 1380.38 559.297L1378.7 559.955C1377.4 556.778 1377.2 552.699 1377.05 549.312C1376.78 543.114 1377.33 493.999 1378.24 490.917C1379.8 489.044 1380.03 489.165 1382.46 488.744Z"/>
	<path fill="#0F172A" d="M235.949 716.512L236.634 716.46C240.657 716.191 244.842 716.665 247.893 719.623C252.374 723.966 252.012 730.666 251.995 736.383C251.359 737.641 250.696 738.884 249.936 740.072C247.038 744.599 242.97 749.036 237.507 750.256C233.99 751.027 231.055 751.762 227.574 750.346Q227.055 750.137 226.56 749.876Q226.066 749.614 225.601 749.302Q225.137 748.989 224.708 748.63Q224.279 748.271 223.889 747.869Q223.5 747.467 223.155 747.027Q222.81 746.586 222.513 746.112Q222.216 745.637 221.971 745.135Q221.725 744.632 221.533 744.106C219.808 739.373 220.772 733.598 222.76 729.097C225.547 722.789 229.591 719.008 235.949 716.512Z"/>
	<path fill="white" d="M236.313 722.457C237.737 722.524 239.264 722.544 240.646 722.911C242.483 723.399 243.993 724.722 244.918 726.361C246.357 728.91 246.371 731.801 245.414 734.518C243.675 739.454 240.448 742.07 235.889 744.282C234.704 744.578 233.353 744.984 232.126 745.053C230.114 745.168 229.301 744.396 227.889 743.196C226.661 740.615 226.638 738.425 227.261 735.666C228.603 729.717 231.094 725.687 236.313 722.457Z"/>
	<path fill="#0F172A" d="M1369.22 370.965C1372.76 370.425 1376.34 371.088 1379.39 372.995C1382.46 374.916 1384.24 377.825 1384.9 381.365C1385.83 386.419 1384.24 391.713 1381.35 395.874C1377.65 401.219 1373.33 403.631 1367.01 404.724C1354.17 403.426 1358.85 401.233 1351.83 393.817C1351.72 393.705 1351.61 393.599 1351.5 393.489C1352.88 391.203 1353.38 388.554 1354.35 386.079C1357.34 378.425 1362.34 374.924 1369.22 370.965Z"/>
	<path fill="white" d="M1368.58 377.717C1370.94 377.379 1373.44 376.804 1375.63 378.065Q1375.96 378.255 1376.26 378.477Q1376.57 378.698 1376.85 378.949Q1377.13 379.201 1377.39 379.479Q1377.64 379.757 1377.87 380.059Q1378.09 380.361 1378.29 380.685Q1378.48 381.008 1378.65 381.35Q1378.81 381.691 1378.93 382.047Q1379.06 382.402 1379.15 382.769C1379.94 385.932 1378.73 389.335 1377.04 391.988C1374.75 395.579 1371.56 397.649 1367.41 398.457L1365.78 399.055C1363.67 398.885 1362.54 398.579 1360.85 397.278C1359.41 395.142 1359.07 392.861 1359.35 390.307C1359.93 384.98 1364.63 380.934 1368.58 377.717Z"/>
	<path fill="#0F172A" d="M1195.38 116.652C1197.12 116.515 1199.46 116.153 1201.07 116.919C1203.21 117.934 1204.58 120.406 1205.28 122.562C1208.22 131.659 1205.26 145.103 1200.72 153.241C1198.79 156.714 1196.77 159.812 1192.76 160.99L1190.27 161.026C1188.6 160.275 1187.26 159.477 1186.15 157.974C1182.45 152.937 1183.66 143.568 1184.61 137.825C1185.6 131.888 1187.84 121.778 1193.1 118.173C1193.85 117.657 1194.61 117.147 1195.38 116.652Z"/>
	<path fill="white" d="M1196.64 121.902C1197.01 121.91 1197.37 121.893 1197.74 122.032C1198.79 122.428 1199.31 122.789 1199.81 123.785C1202.34 128.875 1200.22 138.502 1198.66 143.629C1197.53 147.381 1195.93 152.199 1192.29 154.168C1191.85 154.697 1191.6 154.604 1190.95 154.736C1189.46 152.287 1189.36 149 1189.35 146.183C1189.31 138.232 1190.79 127.691 1196.64 121.902Z"/>
	<path fill="#0F172A" d="M1340.69 528.506C1342.53 528.797 1344.6 528.54 1346.48 528.589C1347.6 529.286 1348.62 529.56 1348.95 530.935C1350.13 535.84 1349.56 558.597 1347.13 562.924C1346.78 563.557 1346.36 563.486 1345.7 563.688C1344.8 562.919 1343.81 562.16 1343.57 560.922C1342.05 552.964 1344.68 543.675 1343.44 535.435C1341.2 534.214 1338.88 534.612 1336.41 534.737C1331.94 536.187 1337.47 558.628 1332.58 564.01L1330.86 563.776C1329.37 562.513 1329.26 562.378 1328.94 560.46C1328.7 559.076 1328.21 536.243 1328.37 534.288C1328.48 532.95 1328.86 532.043 1329.67 530.981C1331.42 528.7 1337.97 528.932 1340.69 528.506Z"/>
	<path fill="#0F172A" d="M1152.62 124.153C1155.48 123.887 1156.39 124.179 1158.7 125.767C1158.74 128.93 1146.21 130.668 1143.68 134.384C1143.55 136.244 1143.8 137.327 1144.59 139.01C1147.25 140.764 1150.87 140.288 1154.05 140.641C1156.03 141.593 1157.79 143.093 1158.71 145.136C1160 147.992 1159.42 151.956 1158.4 154.849C1156.71 159.65 1153.01 164.346 1148.29 166.44C1145.16 167.827 1143.03 166.64 1140.11 165.414C1139.98 165.102 1139.84 164.794 1139.72 164.479C1138.91 162.398 1139.4 160.116 1140.28 158.147C1142.79 157.969 1144.42 160.497 1147.1 160.912C1149.88 159.25 1152.62 153.953 1153.37 150.802C1153.76 149.148 1153.61 148.427 1152.78 146.987C1149.11 144.925 1145.02 146.469 1141.16 145.426C1136.42 144.147 1140.63 133.366 1136.88 127.608C1142.15 126.571 1147.46 125.648 1152.62 124.153Z"/>
	<path fill="#0F172A" d="M1114.2 129.402C1115.9 129.136 1117.59 128.941 1119.3 129.243C1121.03 129.548 1123.28 130.52 1124.26 132.069C1125.49 134.026 1125.44 136.281 1124.92 138.435C1124.99 138.69 1125.07 138.941 1125.13 139.199C1126.44 145.255 1117.39 158.593 1114.23 163.883C1119.24 163.529 1125.83 161.988 1130.21 165.074L1130.12 166.365C1125.55 170.258 1118.52 170.016 1112.81 170.211L1109.62 170.13C1107.97 169.167 1107.61 168.993 1106.63 167.268C1106.82 163.651 1116.51 149.168 1118.67 143.86C1119.73 141.254 1120.77 138.886 1119.63 136.186C1114.92 134.168 1111.83 140.762 1107.37 140.806C1107.17 140.216 1107.08 140.073 1107.1 139.361C1107.18 134.557 1110.73 132.015 1114.2 129.402Z"/>
	<path fill="#0F172A" d="M1338.34 494.746L1340.11 494.863C1341.64 495.893 1341.7 496.057 1342.4 497.783L1341.58 499.571C1335.61 503.99 1291.78 503.917 1281.65 505.514C1281.49 505.539 1281.33 505.568 1281.17 505.594C1279.35 505.236 1277.53 505.412 1275.69 505.503C1274.37 504.531 1274.33 504.459 1273.83 502.895C1275.02 501.056 1275.86 500.713 1278.01 500.124C1283.34 498.662 1289.46 498.815 1294.96 498.489C1307.61 497.739 1326.46 497.516 1338.34 494.746Z"/>
	<path fill="#0F172A" d="M1177.29 108.393C1179.58 108.485 1179.96 108.135 1181.58 109.882C1181.91 111.507 1181.86 113.017 1181.65 114.65C1180.63 122.502 1173.18 161.567 1168.26 165.42L1167.52 166.269L1166.06 166.195C1163.06 160.488 1175.93 118.136 1177.29 108.393Z"/>
	<path fill="#0F172A" d="M1364.86 510.5C1367.6 510.398 1370.59 509.66 1373 511.212C1373.45 512.861 1373.29 513.185 1372.83 514.771C1370.23 516.618 1367.91 515.603 1365.29 517.044C1363.21 529.029 1365.75 543.717 1365.05 556.116C1364.89 559.018 1364.35 559.671 1362.24 561.515C1361.37 561.745 1360.97 561.422 1360.15 561.132C1358.68 557.398 1358.76 516.581 1359.86 511.915C1361.59 510.637 1362.8 510.727 1364.86 510.5Z"/>
	<path fill="#0F172A" d="M1310.17 518.003C1314.19 518.146 1318.75 517.058 1322.54 518.456C1323.91 519.749 1324.01 519.684 1324.22 521.672C1321.64 525.798 1317.64 522.492 1313.98 523.838C1305.73 526.866 1295.98 523.91 1287.62 526.224C1287.46 526.269 1287.3 526.32 1287.15 526.368C1284.32 524.539 1278.82 528.144 1275 525.594C1274.49 524.002 1274.48 523.825 1274.92 522.215C1282.36 518.259 1300.47 519.527 1309.62 518.095L1310.17 518.003Z"/>
	<path fill="#0F172A" d="M1096.07 131.635C1097.13 131.718 1097.89 131.99 1098.87 132.398C1100.93 135.777 1100.36 166.138 1099.01 170.712C1098.45 172.623 1097.48 172.712 1095.86 173.543L1094.12 172.724C1093.73 172.064 1093.45 171.634 1093.31 170.865C1092.37 165.769 1093.72 135.216 1096.07 131.635Z"/>
	<path fill="#0F172A" d="M1300.16 540.507C1302.02 540.546 1303.91 540.093 1305.77 540.205C1307.76 540.325 1308.27 540.916 1309.55 542.255C1309.58 543.334 1309.88 543.699 1309.08 544.528C1305.38 548.342 1287.69 547.522 1281.92 547.709C1280.19 548.001 1278.63 548.012 1276.88 547.95C1275.19 546.879 1274.81 546.779 1273.96 544.889L1274.58 543.718C1280.64 540.14 1292.98 541.155 1300.16 540.507Z"/>
</svg>
