<?xml version="1.0" encoding="utf-8" ?>
<svg xmlns="http://www.w3.org/2000/svg" xmlns:xlink="http://www.w3.org/1999/xlink" width="1536" height="1024">
	<path fill="white" d="M0 0L1534.69 0C1535.54 1.34434 1535.84 2.50848 1535.91 4.09208C1536.57 18.5072 1536 33.1619 1536 47.604L1536.01 132.471L1536.01 391.421L1536.01 865.91L1536 981.169C1536 989.131 1537.19 1015.2 1535.79 1021.39C1535.57 1022.35 1535.21 1023.17 1534.69 1024L0 1024L0 0Z"/>
	<path fill="#F9DFC3" d="M1443.65 341.418C1448.42 344.003 1450.05 353.005 1451.56 358.045C1472.14 427.075 1478.64 500.535 1454.14 569.509C1451.36 577.318 1449.45 586.336 1445.55 593.626L1443.61 594.924C1445.55 588.129 1443.94 531.494 1443.92 519.047L1444.3 347.693C1444.29 345.474 1444.25 343.572 1443.65 341.418Z"/>
	<path fill="#000007" d="M1376.61 878.366C1379.34 872.272 1384.22 830.037 1386.1 819.898C1391.43 791.205 1397.5 762.171 1404.76 733.905C1407.6 722.844 1411.43 712.045 1414.23 700.992C1415.97 694.129 1415.26 686.841 1417.28 679.994C1422.44 662.588 1440.8 652.53 1442.81 646.813C1445.24 655.236 1438.22 671.261 1434.05 678.895C1429.49 687.247 1422.01 693.364 1417.41 701.438C1413.96 707.504 1414.31 714.569 1410.05 720.397C1410.22 720.291 1410.4 720.188 1410.57 720.078C1414.39 717.591 1417.51 713.648 1420.65 710.349C1432.42 698.013 1444.06 693.47 1461.27 692.839C1461.17 697.081 1455.45 702.767 1452.41 705.62C1440.82 716.506 1426.42 723.701 1410.35 724.108C1410.18 728.597 1406.39 737.89 1405.14 742.844C1402.62 752.917 1401.03 763.479 1398.06 773.396C1397.73 774.483 1397.18 775.415 1396.61 776.387C1396.48 776.599 1396.37 776.817 1396.24 777.029C1396.17 777.156 1396.09 777.28 1396.01 777.405C1401.81 773.582 1406.18 769.567 1413.04 767.55C1413.41 767.44 1413.78 767.304 1414.14 767.179C1424.44 757.763 1436.23 749.998 1450.79 750.784C1456.68 751.102 1471.73 754.276 1475.9 758.837C1476.01 758.967 1476.1 759.121 1476.21 759.263C1472.52 765.354 1459.24 770.481 1452.5 772.184C1436.75 776.166 1426.58 769.781 1411.74 769.639C1402.63 775.672 1395.83 781.991 1393.53 793.171C1391.81 801.528 1392.27 814.504 1387.16 821.646L1387.87 821.374C1394.61 818.731 1400.78 814.704 1407.33 811.626C1422.39 804.553 1441.92 801.308 1457.79 807.99C1458.24 808.182 1458.73 808.382 1459.15 808.64C1456.73 815.215 1442.28 824.397 1436.09 827.235C1416.73 836.105 1405.75 827.911 1387.56 824.487C1387.88 829.116 1380.05 879.606 1378.36 882.894C1378.46 883.003 1378.56 883.121 1378.67 883.221C1382.1 886.292 1417.8 884.999 1424.64 885.072C1424.9 885.687 1425.07 885.99 1425.21 886.614C1426.08 890.63 1424.29 899.084 1422.03 902.43Q1380.64 901.656 1339.25 901.947C1339.33 901.757 1339.43 901.575 1339.49 901.377C1340.7 897.275 1338.2 888.735 1336.54 884.865C1347.35 884.701 1358.98 885.753 1369.66 884.333L1370.33 883.08C1370.42 880.746 1370.14 879.068 1369.38 876.862C1371.41 871.655 1370.67 862.113 1369.83 856.607C1368.54 848.047 1364.14 834.596 1356.93 829.249C1336.9 828.111 1324.76 818.565 1314.03 802.582C1311.49 798.793 1309.01 793.994 1305.44 791.113C1305.29 790.992 1305.13 790.88 1304.97 790.763Q1306.3 790.879 1307.62 791.087C1327.25 794.109 1343.82 804.6 1355.47 820.609C1359.13 825.648 1368.77 838.774 1367.85 844.669C1367.93 844.492 1368 844.313 1368.08 844.138C1368.43 843.417 1368.73 842.789 1368.97 842.016C1370.76 836.374 1366.94 796.136 1363.89 790.729C1363.47 790.396 1363.67 790.502 1363.15 790.298C1342.24 782.006 1323.9 768.432 1302.27 761.455C1312.93 758.322 1323.91 754.912 1335.13 755.535C1343.2 755.984 1354.18 758.471 1359.84 764.73C1359.99 763.844 1360.02 762.971 1359.97 762.075C1359.48 752.625 1351.42 743.001 1344.62 737.095C1340.92 733.876 1335.63 729.427 1330.45 729.794C1328.18 729.954 1325.89 729.866 1323.63 729.863C1319.33 728.173 1314.35 727.572 1309.88 726.151C1301.31 723.428 1293.03 720.006 1284.54 717.071C1291.73 714.627 1298.32 712.479 1306.05 713.019C1315.28 713.664 1325 717.62 1331.21 724.66C1334.84 721.65 1337.44 719.615 1342.37 719.271C1342.91 716.258 1335.25 700.617 1334.07 695.977C1332.48 689.724 1331.16 673.177 1334.71 667.772C1335.68 666.285 1336.08 666.354 1337.81 665.998C1340.97 667.006 1342.81 668.836 1344.94 671.25C1349.79 676.741 1362.92 691.883 1362.44 699.086C1366.38 703.866 1365.92 713.989 1365.34 719.843C1364.28 730.367 1360.75 740.984 1361.35 751.613C1362.07 764.221 1365.85 777.272 1367.63 789.852C1369.73 804.768 1375.55 872.687 1371.77 884.267C1373.83 884.511 1374.72 884.907 1376.59 883.92C1377.39 881.904 1377.01 880.451 1376.61 878.366Z"/>
	<path fill="white" d="M1342.37 719.271C1347.13 722.658 1353.94 736.099 1355.23 741.89C1355.48 743.015 1355.35 743.832 1355.07 744.926C1352.55 737.68 1337.67 728.533 1331.21 724.66C1334.84 721.65 1337.44 719.615 1342.37 719.271Z"/>
	<path fill="#F9DFC3" d="M1295.59 716.049C1302.02 715.185 1307.35 715.172 1313.6 717.142C1318.28 718.618 1326.57 721.779 1328.97 726.364L1328.16 727.17L1325.06 727.11C1319.24 726.279 1296.94 721.284 1293.57 717.013L1295.59 716.049Z"/>
	<path fill="white" d="M1438.92 653.784C1439.29 654.175 1439.47 654.271 1439.61 654.797C1440.6 658.396 1436.78 667.023 1435.23 670.638C1432.07 678.004 1425.38 691.711 1417.66 694.775C1417.62 694.269 1417.56 693.762 1417.56 693.254C1417.35 676.246 1428.13 665.232 1438.92 653.784Z"/>
	<path fill="white" d="M1454.07 695.795L1456.63 695.854L1456.84 696.519C1446.29 709.055 1433.66 719.166 1416.85 720.811L1415.56 720.664L1415.58 719.564C1427.26 706.131 1436.13 699.048 1454.07 695.795Z"/>
	<path fill="white" d="M1311.16 794.817C1318.42 794.239 1329.44 800.639 1335.32 804.515C1341.47 808.573 1353.24 818.017 1354.84 825.579C1353.56 826.247 1352.56 826.13 1351.14 825.945C1330.45 823.251 1323.15 809.838 1311.52 795.269L1311.16 794.817Z"/>
	<path fill="white" d="M1441.2 753.558C1451.05 752.258 1462.79 753.737 1471.16 759.435C1470.97 759.82 1470.76 760.319 1470.48 760.672C1466.18 766.183 1452.92 769.717 1446.23 770.814C1437.52 773.812 1425.58 768.793 1416.68 767.793L1415.77 767.695C1425.87 762.126 1429.52 758.062 1441.2 753.558Z"/>
	<path fill="white" d="M1326.97 758.06Q1329.32 757.861 1331.69 757.88Q1334.05 757.899 1336.4 758.137Q1338.75 758.374 1341.07 758.827Q1343.39 759.28 1345.66 759.945C1350.26 761.264 1357.56 764.238 1359.95 768.606C1360.37 769.095 1360.7 769.415 1361.02 769.962C1363.12 773.579 1364.39 784.022 1363.37 788.129C1360.87 785.807 1355.08 784.175 1351.79 782.83C1347.45 777.979 1317.24 764.386 1309.67 761.545Q1318.27 759.554 1326.97 758.06Z"/>
	<path fill="white" d="M1426.36 807.572C1435.2 806.56 1446.1 806.491 1454.42 809.742C1454.31 810.3 1454.3 810.54 1453.95 811.079C1447.89 820.4 1430.58 827.889 1419.81 828.818C1409.69 829.301 1400.07 824.893 1390.32 822.848C1395.51 821.167 1400.55 818.043 1405.4 815.586C1412.32 812.082 1418.87 809.571 1426.36 807.572Z"/>
	<path fill="#F9DFC3" d="M1336.56 668.786L1338.43 669.129C1346.81 675.058 1355.67 687.74 1359.6 696.987C1365.07 709.837 1363.99 728.654 1358.81 741.56L1358.96 742.88C1349.48 720.52 1335.27 707.027 1335.4 680.731C1335.42 676.692 1336.3 672.803 1336.56 668.786Z"/>
	<path fill="#000007" d="M92.8837 198.159C123.783 197.454 154.838 198.029 185.753 198.027C208.649 198.025 231.941 197.108 254.766 198.488C255.621 210.621 255.789 322.52 255.097 324.071C254.868 324.587 254.393 324.952 254.04 325.392C238.344 325.554 99.5297 327.091 92.9582 323.996C91.9997 321.547 91.8058 204.57 92.8837 198.159Z"/>
	<path fill="white" d="M95.8867 200.639C124.788 199.818 153.888 200.582 182.815 200.598C205.963 200.611 229.441 199.678 252.553 200.829C252.623 241.326 254.126 282.314 252.564 322.747L95.4521 322.664C95.127 308.983 93.8864 205.656 95.8867 200.639Z"/>
	<path fill="#000007" d="M113.133 228.407C120.179 227.218 162.997 227.294 169.068 228.368C170.597 228.638 170.589 229.067 171.453 230.288C170.124 230.539 168.813 230.716 167.46 230.732C161.128 230.81 118.169 231.504 114.827 230.074C114.388 229.886 113.52 228.788 113.133 228.407Z"/>
	<path fill="#000007" d="M127.765 273.415L138.164 273.277L138.143 308.909L129.001 308.995L117.818 308.785L117.778 273.638L127.765 273.415Z"/>
	<path fill="#000007" d="M151.726 256.14L171.616 256.047L171.59 309.213L151.907 309.178Q151.588 282.66 151.726 256.14Z"/>
	<path fill="#000007" d="M217.534 240.901L235.56 240.869L235.507 308.995L217.494 308.776Q217.323 274.838 217.534 240.901Z"/>
	<path fill="#000007" d="M185.157 223.205L204.017 223.229L204.163 309.067L185.36 309.172L185.157 223.205Z"/>
	<path fill="#000007" d="M413.006 54.3369C413.053 54.3308 413.1 54.3213 413.148 54.3184Q414.343 54.2584 415.539 54.2271Q416.735 54.1957 417.932 54.1931Q419.128 54.1904 420.325 54.2165Q421.521 54.2425 422.716 54.2972Q423.912 54.3519 425.105 54.4353Q426.299 54.5186 427.49 54.6306Q428.682 54.7425 429.87 54.883Q431.058 55.0234 432.243 55.1924Q433.427 55.3613 434.607 55.5585Q435.788 55.7558 436.963 55.9813Q438.138 56.2068 439.307 56.4604Q440.477 56.714 441.64 56.9956Q442.803 57.2772 443.958 57.5866Q445.114 57.8959 446.262 58.2329Q447.411 58.5699 448.55 58.9344Q449.69 59.2988 450.821 59.6904Q451.951 60.0821 453.072 60.5007Q454.193 60.9193 455.304 61.3647Q456.415 61.8101 457.514 62.282Q458.614 62.7539 459.702 63.252Q460.79 63.7501 461.866 64.2742Q462.941 64.7982 464.004 65.3479Q465.067 65.8976 466.117 66.4726Q467.166 67.0477 468.201 67.6477Q469.237 68.2477 470.257 68.8723Q471.278 69.497 472.283 70.146Q473.289 70.7949 474.278 71.4678Q475.268 72.1406 476.241 72.837Q477.214 73.5334 478.17 74.2529Q479.126 74.9725 480.065 75.7147Q481.004 76.457 481.924 77.2215Q482.845 77.986 483.747 78.7724Q484.657 79.5467 485.548 80.3433Q486.438 81.1399 487.309 81.9583Q488.179 82.7768 489.029 83.6166Q489.879 84.4564 490.708 85.3171Q491.537 86.1777 492.344 87.0587Q493.151 87.9396 493.936 88.8404Q494.721 89.7411 495.484 90.661Q496.246 91.5809 496.986 92.5195Q497.725 93.458 498.441 94.4147Q499.157 95.3713 499.85 96.3454Q500.542 97.3195 501.209 98.3105Q501.877 99.3015 502.52 100.309Q503.163 101.316 503.78 102.339Q504.398 103.362 504.99 104.4Q505.582 105.438 506.148 106.49Q506.715 107.542 507.255 108.608Q507.794 109.674 508.308 110.753Q508.821 111.832 509.308 112.924Q509.794 114.015 510.253 115.118Q510.712 116.222 511.144 117.336Q511.576 118.45 511.98 119.575Q512.383 120.699 512.759 121.834Q513.135 122.968 513.483 124.111Q513.83 125.255 514.15 126.406Q514.469 127.558 514.759 128.717Q515.05 129.876 515.311 131.042Q515.573 132.208 515.806 133.38Q516.038 134.552 516.242 135.73Q516.445 136.907 516.619 138.09Q516.794 139.272 516.939 140.458Q517.083 141.644 517.199 142.834Q517.314 144.023 517.4 145.215Q517.478 146.401 517.528 147.589Q517.577 148.777 517.598 149.966Q517.619 151.155 517.611 152.343Q517.603 153.532 517.566 154.721Q517.529 155.909 517.464 157.096Q517.398 158.283 517.304 159.468Q517.21 160.654 517.087 161.836Q516.964 163.019 516.812 164.198Q516.661 165.377 516.481 166.552Q516.301 167.728 516.092 168.898Q515.884 170.069 515.647 171.234Q515.411 172.399 515.146 173.558Q514.881 174.717 514.588 175.869Q514.295 177.021 513.975 178.166Q513.654 179.311 513.306 180.448Q512.957 181.585 512.582 182.713Q512.206 183.841 511.803 184.959Q511.4 186.078 510.971 187.186Q510.541 188.295 510.084 189.392Q509.628 190.49 509.145 191.576Q508.662 192.663 508.152 193.737Q507.643 194.811 507.108 195.873Q506.573 196.935 506.013 197.983Q505.452 199.032 504.866 200.066Q504.281 201.101 503.67 202.121Q503.059 203.141 502.424 204.146Q501.789 205.151 501.13 206.14Q500.47 207.129 499.787 208.102Q499.104 209.075 498.398 210.031Q497.691 210.987 496.962 211.926Q496.233 212.865 495.481 213.786Q494.729 214.707 493.955 215.609C475.602 236.674 450.882 248.339 423.186 250.197L422.34 250.269C397.58 252.218 371.094 241.702 352.558 225.726C333.055 208.917 320.824 185.895 318.938 160.103Q318.85 158.896 318.792 157.687Q318.734 156.477 318.706 155.267Q318.678 154.057 318.679 152.847Q318.68 151.636 318.712 150.426Q318.743 149.216 318.804 148.007Q318.864 146.798 318.955 145.591Q319.045 144.384 319.166 143.179Q319.286 141.975 319.435 140.773Q319.585 139.572 319.764 138.375Q319.943 137.178 320.152 135.985Q320.36 134.793 320.598 133.606Q320.836 132.419 321.102 131.238Q321.369 130.058 321.665 128.884Q321.961 127.71 322.285 126.544Q322.609 125.377 322.962 124.22Q323.315 123.062 323.697 121.913Q324.078 120.764 324.487 119.625Q324.897 118.486 325.334 117.357Q325.771 116.228 326.236 115.111Q326.701 113.993 327.193 112.887Q327.685 111.781 328.204 110.688Q328.723 109.594 329.269 108.514Q329.815 107.433 330.387 106.367Q330.96 105.3 331.558 104.248Q332.156 103.195 332.78 102.158Q333.404 101.121 334.053 100.099Q334.702 99.0776 335.376 98.0723Q336.05 97.0669 336.749 96.0784Q337.447 95.0899 338.17 94.1189Q338.893 93.1478 339.639 92.1948Q340.385 91.2418 341.154 90.3075Q341.924 89.3731 342.716 88.4579C360.47 67.9128 386.168 56.2179 413.006 54.3369Z"/>
	<path fill="white" d="M408.441 57.3073C408.604 57.2846 408.766 57.26 408.93 57.2391C432.847 54.1752 458.652 62.535 477.563 77.145Q478.508 77.8653 479.435 78.6089Q480.362 79.3525 481.27 80.1189Q482.178 80.8854 483.067 81.6742Q483.956 82.4629 484.825 83.2736Q485.693 84.0842 486.542 84.9162Q487.39 85.7482 488.218 86.6011Q489.045 87.4539 489.852 88.3271Q490.658 89.2003 491.442 90.0933Q492.226 90.9862 492.987 91.8984Q493.749 92.8106 494.488 93.7414Q495.227 94.6723 495.942 95.6212Q496.657 96.5701 497.349 97.5366Q498.041 98.503 498.708 99.4863Q499.375 100.47 500.018 101.469Q500.661 102.469 501.278 103.484Q501.896 104.5 502.488 105.53Q503.08 106.56 503.647 107.605Q504.213 108.65 504.753 109.708Q505.293 110.767 505.807 111.839Q506.321 112.91 506.808 113.994Q507.295 115.078 507.755 116.174Q508.215 117.27 508.647 118.377Q509.08 119.484 509.484 120.601Q509.889 121.719 510.266 122.846Q510.643 123.973 510.992 125.109Q511.341 126.245 511.661 127.39Q511.981 128.534 512.273 129.686Q512.565 130.838 512.828 131.997Q513.091 133.156 513.325 134.321Q513.56 135.487 513.765 136.657Q513.97 137.828 514.146 139.003Q514.322 140.179 514.469 141.358C517.496 165.803 509.823 191.178 494.697 210.495C477.968 231.86 454.311 244.018 427.682 247.268C427.155 247.377 426.984 247.424 426.382 247.477Q425.223 247.578 424.061 247.651Q422.9 247.724 421.737 247.769Q420.574 247.814 419.411 247.831Q418.247 247.848 417.083 247.837Q415.92 247.826 414.757 247.786Q413.594 247.747 412.432 247.679Q411.27 247.612 410.11 247.517Q408.951 247.421 407.793 247.298Q406.636 247.174 405.482 247.023Q404.329 246.871 403.179 246.692Q402.029 246.513 400.884 246.306Q399.739 246.099 398.599 245.865Q397.459 245.63 396.325 245.368Q395.191 245.106 394.064 244.817Q392.937 244.527 391.817 244.211Q390.697 243.894 389.585 243.551Q388.473 243.208 387.37 242.837Q386.267 242.467 385.173 242.07Q384.079 241.674 382.995 241.251Q381.91 240.827 380.837 240.378Q379.763 239.929 378.701 239.454Q377.638 238.979 376.588 238.479Q375.537 237.978 374.499 237.453Q373.46 236.927 372.435 236.376Q371.41 235.826 370.398 235.25Q369.387 234.675 368.389 234.076Q367.392 233.476 366.409 232.853Q365.426 232.229 364.459 231.582Q363.491 230.935 362.54 230.265Q361.588 229.595 360.653 228.902Q359.718 228.209 358.8 227.494Q357.882 226.778 356.982 226.041C337.188 210.149 324.37 187.807 321.666 162.422Q321.543 161.257 321.449 160.09Q321.355 158.923 321.289 157.754Q321.224 156.584 321.188 155.414Q321.152 154.243 321.145 153.072Q321.138 151.901 321.16 150.73Q321.182 149.56 321.233 148.39Q321.284 147.22 321.365 146.051Q321.445 144.883 321.554 143.717Q321.663 142.551 321.801 141.388Q321.939 140.225 322.106 139.066Q322.273 137.907 322.468 136.753Q322.664 135.598 322.888 134.449Q323.112 133.299 323.365 132.156Q323.617 131.012 323.898 129.875Q324.179 128.739 324.488 127.609Q324.797 126.48 325.134 125.358Q325.471 124.237 325.836 123.124Q326.201 122.011 326.593 120.908Q326.986 119.804 327.405 118.711Q327.825 117.618 328.271 116.535Q328.718 115.453 329.191 114.382Q329.664 113.31 330.164 112.251Q330.664 111.192 331.19 110.146Q331.715 109.1 332.267 108.067Q332.819 107.034 333.396 106.015Q333.973 104.996 334.575 103.992Q335.177 102.988 335.804 101.999Q336.431 101.01 337.083 100.037Q337.734 99.0636 338.409 98.107Q339.085 97.1504 339.784 96.2108Q340.482 95.2713 341.204 94.3494Q341.926 93.4275 342.671 92.5238Q343.429 91.5984 344.21 90.692Q344.991 89.7855 345.794 88.8985Q346.596 88.0115 347.421 87.1444Q348.245 86.2773 349.09 85.4308Q349.936 84.5842 350.802 83.7587Q351.667 82.9331 352.553 82.129Q353.439 81.325 354.344 80.5429Q355.25 79.7608 356.174 79.0012Q357.098 78.2416 358.041 77.5049Q358.983 76.7682 359.944 76.0548Q360.904 75.3415 361.881 74.6519Q362.859 73.9624 363.853 73.297Q364.847 72.6317 365.858 71.9909Q366.868 71.3502 367.894 70.7344Q368.919 70.1186 369.96 69.5282Q371 68.9378 372.055 68.3731Q373.109 67.8085 374.177 67.2698Q375.245 66.7312 376.327 66.219Q377.408 65.7067 378.501 65.2211Q379.594 64.7356 380.699 64.277Q381.804 63.8184 382.92 63.3871Q384.035 62.9558 385.161 62.552Q386.287 62.1482 387.423 61.7721Q388.559 61.3961 389.703 61.048Q390.848 60.7 392 60.3801Q393.153 60.0603 394.313 59.7688Q395.473 59.4773 396.64 59.2144Q397.807 58.9515 398.98 58.7173Q400.153 58.4831 401.332 58.2778Q402.51 58.0725 403.693 57.8962Q404.876 57.7198 406.064 57.5726Q407.251 57.4254 408.441 57.3073Z"/>
	<path fill="#36353A" d="M419.191 90.4524L420.274 91.5116C422.22 99.2941 420.79 143.245 420.777 154.418C428.741 154.573 448.576 152.878 454.806 155.402L455.037 156.948C442.744 156.76 430.438 156.827 418.143 156.789C418.518 142.741 415.922 100.525 419.191 90.4524Z"/>
	<path fill="#000007" d="M860.277 110.81C864.381 106.195 872.35 102.834 877.817 100.022C916.293 80.2305 964.177 67.167 1007.46 64.6922Q1012.77 64.3528 1018.08 64.1386Q1023.4 63.9244 1028.71 63.8355Q1034.03 63.7465 1039.35 63.7829Q1044.67 63.8193 1049.98 63.9809Q1055.3 64.1426 1060.61 64.4295Q1065.92 64.7164 1071.22 65.1283Q1076.52 65.5403 1081.82 66.077Q1087.11 66.6138 1092.38 67.2751Q1097.66 67.9364 1102.92 68.7218Q1108.18 69.5073 1113.42 70.4165Q1118.66 71.3256 1123.88 72.358Q1129.1 73.3904 1134.29 74.5454Q1139.48 75.7005 1144.64 76.9775Q1149.8 78.2545 1154.94 79.6528Q1160.07 81.0512 1165.16 82.57Q1170.26 84.0889 1175.32 85.7274C1186.11 89.157 1196.97 92.5053 1207.44 96.836C1213.46 99.3265 1229.29 105.126 1233.78 108.832C1234.73 109.612 1234.81 110.552 1235.14 111.667C1304.32 112.47 1373.57 110.749 1442.74 111.768C1443.87 113.867 1443.97 115.707 1444.04 118.038C1445.63 172.93 1444.27 228.236 1444.17 283.167C1444.15 293.237 1445.58 333.493 1443.83 340.844C1443.78 341.039 1443.71 341.227 1443.65 341.418C1444.25 343.572 1444.29 345.474 1444.3 347.693L1443.92 519.047C1443.94 531.494 1445.55 588.129 1443.61 594.924C1445.17 600.917 1445.28 623.341 1443.17 628.955C1441.2 630.449 1439.99 630.437 1437.61 630.762C1432.11 631.527 1426.41 630.974 1420.87 631.059C1418.15 643.3 1388.45 672.528 1378.53 682.363C1373.18 687.661 1366.61 692.869 1362.44 699.086C1362.92 691.883 1349.79 676.741 1344.94 671.25C1342.81 668.836 1340.97 667.006 1337.81 665.998C1336.08 666.354 1335.68 666.285 1334.71 667.772C1331.16 673.177 1332.48 689.724 1334.07 695.977C1335.25 700.617 1342.91 716.258 1342.37 719.271C1337.44 719.615 1334.84 721.65 1331.21 724.66C1325 717.62 1315.28 713.664 1306.05 713.019C1298.32 712.479 1291.73 714.627 1284.54 717.071C1293.03 720.006 1301.31 723.428 1309.88 726.151C1314.35 727.572 1319.33 728.173 1323.63 729.863C1323.17 731.712 1323.19 731.724 1321.64 732.66C1313.58 737.539 1304.44 741.417 1295.93 745.458C1276.36 754.743 1256.36 763.622 1236.1 771.311C1225.8 775.22 1183.56 784.986 1178.05 791.422C1193.5 791.778 1208.96 791.291 1224.41 791.633C1226.27 795.607 1226.48 807.427 1225.06 811.499C1224.86 812.082 1224.55 812.63 1224.22 813.152C1197.07 813.093 1169.89 812.855 1142.74 813.199C1146.26 818.217 1173.96 956.187 1173.37 959.542C1173.25 960.196 1173.13 960.401 1172.87 961.059C1173.07 961.307 1173.29 961.55 1173.49 961.802C1174.5 963.077 1174.87 964.64 1175.32 966.172C1177.67 968.055 1329.95 967.051 1348.33 967.061C1350.46 962.133 1342.39 911.376 1339.78 904.411C1355.64 903.567 1371.76 904.209 1387.66 904.165C1398.33 904.136 1410.45 903.021 1420.93 904.478C1422.67 908.638 1414.97 957.943 1412.51 964.996C1412.22 965.819 1411.75 966.616 1411.28 967.35Q1428.89 967.403 1446.5 967.17C1452.87 967.104 1460.14 966.351 1466.42 967.472C1468.98 967.928 1470.94 968.673 1472.81 970.552C1473.38 972.472 1473.49 972.678 1472.86 974.686C1469.88 977.654 1465.3 977.669 1461.34 977.655L88.6085 977.317C82.7839 977.317 66.135 979.153 62.0552 975.315C60.8541 974.186 60.9992 973.748 60.9228 972.197C61.745 970.334 62.3645 969.296 63.932 967.98C69.9872 965.808 99.4575 967.239 107.943 967.257C100.186 915.981 91.0272 864.54 81.5244 813.56C78.1225 795.311 75.2488 777.003 72.0155 758.728C69.9141 746.851 66.6113 734.111 66.2609 722.084C66.0097 713.463 68.8055 704.761 71.9352 696.826C72.2552 687.869 69.1741 678.9 67.8836 670.054C65.6917 655.031 66.5801 640.45 68.8453 625.508C74.2436 589.898 87.7617 559.785 109.424 531.067C147.279 480.881 207.132 449.741 268.788 441.048C261.329 422.255 264.609 407.333 269.266 388.78C263.356 396.445 262.302 408.791 257.626 414.353L256.971 413.274C256.5 400.247 260.892 390.656 269.674 381.069C274.114 376.139 280.3 372.457 284.214 367.266L283.746 366.635C279.542 367.385 275.572 369.897 271.809 371.852C274.015 367.018 276.224 363.571 280.648 360.48C289.256 354.464 299.059 355.019 308.868 356.809C313.199 348.408 319.113 342.416 327.963 338.826C349.137 330.234 375.39 337.003 395.599 345.431L396.677 343.668C395.503 340.045 392.413 334.784 392.526 331.12L393.502 330.863C397.454 333.232 400.245 336.142 401.405 340.736Q402.041 343.303 402.461 345.915C414.859 344.216 428.529 342.528 439.227 350.606C444.677 354.721 447.774 360.737 448.666 367.447C450.097 378.222 446.274 390.541 439.725 399.106C437.85 401.556 435.46 403.153 432.898 404.813C434.889 396.41 435.682 389.048 433.85 380.547C433.401 385.573 433.173 390.763 431.622 395.595C428.554 406.207 429.982 417.253 428.955 428.174C441.536 424.69 454.38 423.197 467.019 420.055C502.275 411.29 540.159 394.33 564.062 366.007L563.665 111.655L741.933 111.519C745.591 109.514 847.329 110.805 860.277 110.81Z"/>
	<path fill="#F99835" d="M519.749 737.13C521.227 738.899 521.433 741.157 521.455 743.382C521.509 749.024 520.339 754.519 516.309 758.622C516.221 758.534 516.102 758.469 516.044 758.359C514.751 755.917 519.051 740.731 519.749 737.13Z"/>
	<path fill="white" d="M734.903 772.868Q736.076 771.407 737.381 770.061C740.815 766.462 744.043 763.256 749.418 763.33C755.738 763.417 761.818 768.754 766.072 772.924L762.206 773.382L734.903 772.868Z"/>
	<path fill="white" d="M427.691 430.843C430.354 430.527 432.345 430.343 434.878 431.515L435.185 432.343C431.451 438.319 429.401 444.239 427.794 451.072L428.112 451.913C430.772 447.972 431.487 440.8 434.593 437.805C435.793 439.068 435.948 440.127 435.981 441.904C436.049 445.537 434.718 449.92 432.124 452.496C430.778 453.832 428.598 455.282 426.633 455.353C425.207 455.404 424.085 454.964 423.113 453.921C420.998 451.653 420.931 447.506 421.18 444.571C421.341 442.678 421.355 439.87 422.788 438.463C423.203 438.056 423.859 437.764 424.344 437.444C425.201 436.878 425.623 436.114 426.168 435.265C423.526 435.586 421.657 435.893 419.464 434.259L419.999 432.928C422.405 430.953 424.739 431.009 427.691 430.843Z"/>
	<path fill="white" d="M1030.94 88.8444C1033.37 88.42 1035.8 88.1512 1038.16 89.08C1040.93 90.1714 1043.35 92.4836 1044.49 95.2478C1045.43 97.5255 1045.49 100.051 1044.47 102.31C1043.06 105.439 1040.5 106.902 1037.4 107.998C1036.9 108.281 1036.76 108.408 1036.11 108.518C1033.71 108.929 1030.16 108.299 1028.37 106.566C1026.02 104.281 1025.42 100.561 1025.64 97.4162C1025.93 93.4386 1028.15 91.3164 1030.94 88.8444Z"/>
	<path fill="white" d="M392.761 428.821C398.119 424.28 406.065 421.824 411.907 417.658C416.939 414.069 421.117 406.732 426.588 404.391C427.034 409.93 428.571 417.604 426.683 422.854C423.65 426.419 420.245 427.366 417.727 431.711C417.248 432.538 416.721 433.34 416.233 434.163C408.458 432.521 400.567 430.036 392.761 428.821Z"/>
	<path fill="white" d="M402.587 795.591L403.447 795.664C414.878 796.588 461.433 792.634 467.605 799.453C468.748 800.717 469.025 801.88 468.797 803.597C468.498 805.838 466.711 808.105 464.801 809.231C459.558 812.321 413.028 810.558 402.969 810.93C401.891 806.271 402.683 800.439 402.587 795.591Z"/>
	<path fill="white" d="M670.98 726.273C673.414 726.093 675.44 726.438 677.745 727.195C681.485 728.423 694.245 732.597 695.863 735.821L691.635 739.988C686.873 738.069 682.951 736.336 677.698 736.36L678.888 736.497C679.876 740.007 687.059 739.871 689.205 742.988C683.845 745.222 676.082 742.561 671.274 745.506L671.706 746.48C674.61 748.157 680.888 747.465 684.31 747.535C681.067 750.485 677.95 752.855 674.144 755.051C659.901 757.755 634.119 751.306 620.11 747.406C637.356 740.823 653.97 733.381 670.98 726.273Z"/>
	<path fill="white" d="M448.679 844.597C449.557 843.79 450.382 843.426 451.563 843.302C459.285 842.487 467.601 843.515 475.391 843.745Q492.906 844.237 510.427 844.007C511.781 850.023 513.307 856.05 514.285 862.14C504.523 862.149 460.8 864.102 454.098 866.586C452.657 859.222 450.506 851.882 448.679 844.597Z"/>
	<path fill="white" d="M400.359 842.458C415.524 842.733 430.663 843.626 445.833 843.822C447.776 851.396 449.847 858.964 451.469 866.613C443.596 866.628 435.431 867.945 427.588 868.724C417.823 869.694 407.909 870.318 398.195 871.668C398.583 861.939 399.376 852.142 400.359 842.458Z"/>
	<path fill="#F9DFC3" d="M440.904 813.574L504.267 814.013C505.891 824.063 508.254 834.06 510.427 844.007Q492.906 844.237 475.391 843.745C467.601 843.515 459.285 842.487 451.563 843.302C450.382 843.426 449.557 843.79 448.679 844.597L440.904 813.574Z"/>
	<path fill="#F9DFC3" d="M791.483 813.25L859.192 813.033C860.489 821.877 862.362 830.669 864.152 839.424C842.371 843.45 819.591 843.512 797.525 845.425C796.251 834.613 793.167 824.025 791.483 813.25Z"/>
	<path fill="#F99835" d="M536.638 727.318C547.241 728.963 558.68 733.359 569.069 736.351Q570.236 738.698 571.273 741.104Q572.311 743.511 573.215 745.971Q574.12 748.431 574.888 750.937Q575.657 753.442 576.288 755.986Q576.919 758.53 577.411 761.104Q577.902 763.679 578.252 766.276Q578.602 768.874 578.81 771.486Q579.018 774.099 579.083 776.719C579.355 786.743 578.776 801.019 571.146 808.498C567.263 812.303 558.364 810.809 553.252 810.687C560.462 798.659 563.421 785.382 563.514 771.477C563.257 767.205 562.656 762.943 561.403 758.847L561.139 758.001L562.5 758.033L562.474 757.697L559.338 757.687L560.674 757.225L559.903 757.006C559.119 759.69 560.398 765.013 560.663 767.922C562.048 783.16 557.9 797.964 549.856 810.871L537.878 810.556C542.185 803.557 545.153 796.485 547.046 788.465C552.157 766.807 548.269 746.115 536.638 727.318Z"/>
	<path fill="#F99835" d="M268.067 490.581C273.33 490.658 285.834 494.831 290.155 492.785C309.634 495.349 330.402 505.645 345.528 517.965C351.135 522.533 356.66 528.521 362.756 532.295C366.61 536.919 369.448 542.457 371.288 548.161C333.431 526.555 292.723 517.207 249.79 512.946C256.395 505.906 261.472 497.618 268.067 490.581Z"/>
	<path fill="#F9DFC3" d="M861.856 813.125L979.608 813.079C1001.73 813.083 1024.05 812.419 1046.15 813.27C1044.02 815.539 1032.35 816.601 1028.77 817.332C1018.49 819.435 1008.33 822.111 997.982 823.924C954.733 831.503 910.223 835.7 866.5 839.614C865.361 830.776 863.432 821.905 861.856 813.125Z"/>
	<path fill="white" d="M364.602 432.558C366.618 429.138 368.619 426.086 372.39 424.357C374.906 423.203 377.603 422.965 380.154 424.144C383.576 425.726 385.355 428.555 386.729 431.875C386.599 433.494 386.433 435.13 386.596 436.752C386.751 438.286 386.628 438.761 387.822 439.706C389.86 437.304 390.461 434.237 391.333 431.268L392.021 430.196C400.668 433.674 410.192 435.63 419.171 438.174C418.781 445.886 417.998 453.002 423.705 459.149C427.315 463.037 430.593 464.601 430.5 470.376C429.506 471.914 429.054 472.794 427.153 473.329C424.774 473.997 422.284 473.494 420.283 475.033C419.75 477.278 419.488 480.24 417.729 481.837C416.132 481.594 415.708 481.126 414.45 480.159L413.881 481.226C414.733 482.75 415.666 483.212 417.141 483.999C416.994 491.275 413.579 509.313 408.198 514.085C405.079 516.851 400.686 516.957 396.768 516.497C388.21 515.491 378.636 512.594 371.14 518.518C366.914 521.858 364.231 527.218 362.756 532.295C356.66 528.521 351.135 522.533 345.528 517.965C330.402 505.645 309.634 495.349 290.155 492.785C288.023 491.849 287.368 491.845 286.171 489.778C286.103 485.596 288.874 481.44 290.652 477.736C295.976 481.118 304.803 480.797 310.864 480.359C330.76 478.92 352.394 470.164 365.702 454.86C367.5 457.161 369.35 459.56 371.636 461.403C373.65 463.025 375.64 463.691 378.214 463.448L378.431 463.004C376.466 460.854 373.367 460.204 371.328 457.962C364.833 450.819 364.144 441.773 364.602 432.558Z"/>
	<path fill="white" d="M864.152 839.424Q870.304 871.057 876.965 902.586C881.217 923.564 885.072 944.605 889.767 965.491L889.182 966.516C884.192 967.662 827.694 967.948 823.372 966.527C821.999 966.076 822.012 965.319 821.422 964.089C819.988 951.666 816.427 938.785 813.979 926.462Q806.053 885.882 797.525 845.425C819.591 843.512 842.371 843.45 864.152 839.424Z"/>
	<path fill="white" d="M572.671 737.519C590.825 743.678 659.691 763.068 675.466 756.991C684.717 753.426 693.744 741.615 700.647 734.472C710.677 724.092 719.125 717.325 733.213 713.238Q734.884 713.641 736.471 714.302C751.082 720.471 767.32 732.687 773.512 747.445C766.392 739.992 748.733 726.701 739.021 723.623C735.153 722.397 728.636 721.876 724.976 723.814L724.964 725.072C726.838 726.939 735.738 725.564 738.939 726.456C741.258 727.103 743.423 728.768 745.377 730.133C741.592 730.114 733.176 728.545 730.167 730.862C730.486 733.438 745.169 733.214 747.824 733.565C756.165 734.668 764.023 742.165 769.93 747.713C759.328 743.357 746.278 740.324 734.9 742.956L735.403 743.83L734.336 743.4C745.904 747.635 759.194 743.796 770.07 751.724C777.87 757.411 778.668 766.437 780.027 775.242C777.656 772.747 775.375 770.132 772.937 767.708C768.04 762.839 761.278 758.37 754.115 758.552C741.955 758.86 732.924 770.434 725.171 778.502C724.254 779.101 723.44 779.486 722.867 780.444C719.069 783.082 714.734 786.394 710.222 787.596C702.392 789.681 694.295 788.343 686.373 789.511C649.993 794.876 614.386 804.244 577.299 803.497C585.871 782.684 580.853 757.53 572.671 737.519Z"/>
	<path fill="#F9DFC3" d="M506.267 813.966L788.435 813.224Q792.162 829.202 794.821 845.393C768.936 845.327 742.959 847.276 717.046 847.622C695.535 847.909 674.053 846.971 652.552 846.618C632.055 846.281 611.567 846.538 591.066 845.999C580.536 845.722 518.505 843.371 513.577 845.402L513.269 846.739C510.472 835.986 508.498 824.855 506.267 813.966Z"/>
	<path fill="white" d="M1199.05 794.161L1221.89 794.327C1222.12 794.707 1222.33 795.001 1222.48 795.411C1223.77 798.818 1223.44 807.329 1221.84 810.423L581.956 811.049C589.97 806.818 669.452 794.932 682.704 794.244C709.971 795.262 737.585 794.402 764.883 794.427L936.192 794.329L1109.78 794.235C1139.45 794.231 1169.42 795.175 1199.05 794.161Z"/>
	<path fill="white" d="M1072.99 813.134Q1106.65 812.882 1140.3 813.158C1141.54 814.584 1142.15 815.965 1142.62 817.771C1148.09 838.768 1151.31 860.824 1155.74 882.117L1166.85 935.914C1168.56 944.334 1171.74 954.653 1171.58 963.198L1172.62 965.977L1171.97 966.815Q1150.08 967.168 1128.18 967.003C1121.22 966.998 1113.04 967.825 1106.22 966.601L1103.7 963.795C1104 963.153 1104.03 963.174 1104.2 962.373C1104.52 960.872 1078.01 828.616 1074.87 816.911C1074.5 815.518 1073.83 814.297 1072.99 813.134Z"/>
	<path fill="#F9DFC3" d="M860.277 110.81C864.381 106.195 872.35 102.834 877.817 100.022C916.293 80.2305 964.177 67.167 1007.46 64.6922Q1012.77 64.3528 1018.08 64.1386Q1023.4 63.9244 1028.71 63.8355Q1034.03 63.7465 1039.35 63.7829Q1044.67 63.8193 1049.98 63.9809Q1055.3 64.1426 1060.61 64.4295Q1065.92 64.7164 1071.22 65.1283Q1076.52 65.5403 1081.82 66.077Q1087.11 66.6138 1092.38 67.2751Q1097.66 67.9364 1102.92 68.7218Q1108.18 69.5073 1113.42 70.4165Q1118.66 71.3256 1123.88 72.358Q1129.1 73.3904 1134.29 74.5454Q1139.48 75.7005 1144.64 76.9775Q1149.8 78.2545 1154.94 79.6528Q1160.07 81.0512 1165.16 82.57Q1170.26 84.0889 1175.32 85.7274C1186.11 89.157 1196.97 92.5053 1207.44 96.836C1213.46 99.3265 1229.29 105.126 1233.78 108.832C1234.73 109.612 1234.81 110.552 1235.14 111.667C1228.34 112.294 1221.17 111.878 1214.33 111.863L1176.55 111.776L1057.16 111.693C1057.85 111.064 1058.31 110.406 1058.73 109.578C1061.46 104.141 1061.14 97.2374 1059.34 91.5699C1057.29 85.1354 1052.89 79.8101 1046.82 76.803Q1046.25 76.5197 1045.67 76.265Q1045.09 76.0103 1044.5 75.7849Q1043.91 75.5595 1043.31 75.3639Q1042.7 75.1683 1042.09 75.003Q1041.48 74.8377 1040.86 74.7032Q1040.24 74.5686 1039.61 74.4651Q1038.99 74.3616 1038.36 74.2895Q1037.73 74.2173 1037.1 74.1766Q1036.47 74.1359 1035.83 74.1268Q1035.2 74.1177 1034.57 74.1403Q1033.93 74.1628 1033.3 74.2169Q1032.67 74.271 1032.04 74.3565Q1031.41 74.442 1030.79 74.5587Q1030.17 74.6755 1029.55 74.8232Q1028.93 74.9708 1028.33 75.149Q1027.72 75.3273 1027.12 75.5356C1020.61 77.842 1015 82.8387 1012.17 89.1586C1008.8 96.694 1009.78 104.227 1012.66 111.702C922.446 111.604 832.129 112.528 741.933 111.519C745.591 109.514 847.329 110.805 860.277 110.81Z"/>
	<path fill="#F9DFC3" d="M71.9352 696.826C72.2552 687.869 69.1741 678.9 67.8836 670.054C65.6917 655.031 66.5801 640.45 68.8453 625.508C74.2436 589.898 87.7617 559.785 109.424 531.067C147.279 480.881 207.132 449.741 268.788 441.048C272.422 450.049 281.889 469.934 288.599 476.426C286.452 480.982 284.207 485.443 282.962 490.349C276.724 489.064 270.605 487.096 264.817 491.059C258.776 495.196 251.721 506.908 247.023 512.877C231.419 518.264 207.923 523.809 194.026 530.671C174.97 540.081 160.893 561.988 151.834 580.539C138.489 607.867 129.979 640.862 128.126 671.208C112.79 669.744 96.7672 670.908 84.4341 681.225Q81.7876 683.481 79.4657 686.07Q77.1438 688.658 75.1881 691.534L71.9352 696.826Z"/>
	<path fill="white" d="M513.269 846.739L513.577 845.402C518.505 843.371 580.536 845.722 591.066 845.999C611.567 846.538 632.055 846.281 652.552 846.618C674.053 846.971 695.535 847.909 717.046 847.622C742.959 847.276 768.936 845.327 794.821 845.393Q803.432 885.516 811.03 925.843C813.414 938.154 815.016 953.972 819.275 965.489L818.789 966.45C816.042 967.743 675.306 967.067 659.994 967.1C660.042 948.085 661.319 927.973 659.363 909.106C658.029 896.235 654.158 884.034 643.674 875.738C637.094 870.531 628.926 867.343 620.818 865.447C600.172 860.617 539.166 859.52 518.121 861.929C515.414 860.119 514.061 850.066 513.269 846.739Z"/>
	<path fill="white" d="M1046.15 813.27Q1058.3 812.962 1070.46 813.095C1073.71 816.832 1077.58 842.333 1078.82 848.448L1094.32 925.202C1096.05 933.439 1102.12 956.116 1101.92 962.509C1101.91 962.9 1101.78 963.512 1101.72 963.863C1101.96 964.845 1102 965.703 1102.06 966.712C1091.82 968.13 893.757 966.747 893.707 966.725C892.56 966.215 892.42 965.181 891.926 964.085C890.258 950.984 886.693 937.557 884.067 924.586L866.5 839.614C910.223 835.7 954.733 831.503 997.982 823.924C1008.33 822.111 1018.49 819.435 1028.77 817.332C1032.35 816.601 1044.02 815.539 1046.15 813.27Z"/>
	<path fill="white" d="M716.683 717.696C718.317 704.35 723.696 690.16 727.045 677.033L741.908 617.663C744.916 605.92 747.193 592.128 752.986 581.407C762.215 577.338 859.411 570.925 877.267 569.393C893.894 567.967 910.538 565.683 927.176 564.574L876.146 772.29Q848.244 772.586 820.341 772.371C811.544 772.363 801.931 771.659 793.216 772.696C789.464 772.532 785.679 772.581 781.921 772.534C781.096 762.46 778.612 750.483 773.638 741.676C767.051 730.011 749.405 714.992 736.142 711.54C728.949 709.668 722.623 714.221 716.683 717.696Z"/>
	<path fill="#FAC594" d="M769.507 604.499C774.795 601.682 778.897 600.068 784.863 599.568C783.534 611.683 781.289 624.093 778.428 635.937C776.479 626.127 774.754 613.101 769.507 604.499Z"/>
	<path fill="#F99835" d="M792.697 600.354C794.992 601.413 797.368 602.651 799.416 604.133C808.227 610.503 810.217 619.664 811.857 629.756L799.519 631.856Q791.269 633.021 783.045 634.359C786.572 623.113 788.803 611.5 792.697 600.354Z"/>
	<path fill="#000007" d="M805.349 637.943C807.163 637.659 808.751 637.679 810.577 637.844C811.041 638.688 811.355 639.335 811.38 640.319C811.607 649.429 802.432 662.452 796.306 668.514C788.228 676.508 779.356 680.866 767.959 680.756C765.325 680.058 762.772 679.024 760.215 678.089C768.484 665.759 775.624 652.754 783.791 640.364Q794.578 639.221 805.349 637.943Z"/>
	<path fill="#F99835" d="M769.507 604.499C774.754 613.101 776.479 626.127 778.428 635.937C777.321 642.304 760.038 666.848 755.783 673.508C753.649 670.858 751.445 668.194 749.736 665.244C744.109 655.53 743.107 643.904 746.13 633.163C749.722 620.396 758.158 610.992 769.507 604.499Z"/>
	<path fill="#F99835" d="M104.729 679.516C131.518 681.201 153.432 693.888 170.928 713.814C215.892 765.024 227.307 838.48 244.393 902.353C249.562 921.676 258.07 950.935 269.363 967.326Q225.37 966.792 181.374 967.026C156.928 967.029 132.38 966.637 107.943 967.257C100.186 915.981 91.0272 864.54 81.5244 813.56C78.1225 795.311 75.2488 777.003 72.0155 758.728C69.9141 746.851 66.6113 734.111 66.2609 722.084C66.0097 713.463 68.8055 704.761 71.9352 696.826L75.1881 691.534C86.1726 684.269 91.7143 681.343 104.729 679.516Z"/>
	<path fill="#F9DFC3" d="M428.955 428.174C441.536 424.69 454.38 423.197 467.019 420.055C502.275 411.29 540.159 394.33 564.062 366.007L564.162 629.987C618.875 628.764 673.708 630.128 728.441 629.614Q720.347 659.221 712.945 689.009C710.885 697.25 707.932 706.053 706.737 714.43C704.967 721.701 704.17 727.988 698.417 733.195C690.203 729.454 681.987 725.367 673.201 723.165C664.778 725.189 656.537 729.836 648.582 733.272Q639.656 737.206 630.463 740.469Q621.27 743.732 611.861 746.305C581.206 737.965 549.978 729.918 520.603 717.783C512.175 706.885 504.525 695.267 496.583 684.003Q474.061 651.735 450.868 619.945C438.535 603.119 423.6 581.877 407.505 568.671C397.913 560.801 385.779 555.343 374.802 549.635C371.944 543.569 368.443 537.864 365.029 532.101L365.462 531.101C376.172 506.638 392.251 524.373 406.568 518.247C417.881 513.405 418.17 488.256 422.478 477.578L422.679 477.088C425.139 476.768 427.374 476.455 429.559 475.203C431.433 474.129 433.758 472.72 434.218 470.435C435.082 466.137 428.981 461.652 426.959 458.26C430.276 456.222 433.117 453.919 435.468 450.797C437.956 447.491 440.218 443.166 439.448 438.888C438.91 435.896 437.602 434.088 435.185 432.343L434.878 431.515L436.059 430.548L435.692 429.471C433.485 428.35 431.373 428.333 428.955 428.174Z"/>
	<path fill="white" d="M608.249 369.416L928.084 369.226C928.537 409.22 928.281 449.246 928.205 489.242C928.165 510.412 926.957 532.307 928.815 553.364C923.666 554.216 918.51 554.747 913.32 555.27C888.163 558.787 862.224 559.858 836.904 561.985C805.557 564.618 773.952 569.322 742.56 570.787C727.237 571.502 711.656 571.007 696.308 571.046L608.276 571.269L608.025 437.198C608.005 414.762 606.823 391.765 608.249 369.416Z"/>
	<path fill="#000007" d="M665.908 427.16C670.909 425.788 710.429 426.02 716.337 427.036C717.867 427.299 717.757 427.534 718.659 428.827C706.98 430.924 684.967 429.613 672.571 429.377C669.477 429.318 668.087 429.424 665.908 427.16Z"/>
	<path fill="#F99835" d="M638.977 447.767Q640.023 447.725 641.069 447.741C643.808 447.762 645.777 448.269 647.661 450.366C649.045 451.906 649.579 453.737 649.356 455.785C648.966 459.367 646.933 460.925 644.312 463.002C643.111 463.022 641.818 463.015 640.632 462.826C638.463 462.48 636.343 460.931 635.092 459.154C633.931 457.503 633.576 455.519 634.009 453.555C634.661 450.597 636.636 449.333 638.977 447.767Z"/>
	<path fill="#F99835" d="M638.912 522.045C639.873 522.014 640.832 521.98 641.794 522C644.275 522.052 646.518 522.865 648.161 524.815C649.352 526.228 649.73 527.918 649.555 529.732C649.216 533.26 647.127 534.997 644.665 537.207C644.133 537.27 643.6 537.341 643.065 537.369C640.565 537.5 638.023 536.994 636.166 535.196C634.801 533.874 634.201 531.954 634.265 530.082C634.388 526.452 636.382 524.301 638.912 522.045Z"/>
	<path fill="#F99835" d="M639.628 471.787C640.116 471.777 640.263 471.759 640.716 471.799C643.356 472.035 645.794 472.874 647.453 475.024C648.929 476.937 649.502 479.223 649.032 481.6C648.436 484.618 646.801 486.078 644.351 487.74C643.218 487.707 642.077 487.652 640.951 487.523C638.559 487.248 636.543 486.047 635.15 484.064C633.996 482.422 633.668 480.663 634.056 478.702C634.754 475.177 636.885 473.713 639.628 471.787Z"/>
	<path fill="#F99835" d="M640.337 398.414C643.58 399.023 646.846 399.795 648.744 402.807C649.678 404.29 649.88 405.981 649.499 407.677C648.7 411.23 646.118 413.011 643.326 414.949C642.282 414.811 641.273 414.546 640.277 414.205C637.615 413.29 635.971 411.56 634.863 408.983C633.999 406.974 633.95 404.848 634.797 402.821C635.885 400.217 637.827 399.342 640.337 398.414Z"/>
	<path fill="#F99835" d="M638.742 422.205C641.97 422.144 645.205 422.238 647.639 424.67C649.025 426.057 649.713 427.753 649.63 429.712C649.468 433.546 647.301 435.75 644.71 438.224C644.534 438.233 644.358 438.251 644.182 438.251C641.103 438.269 638.262 437.578 636.136 435.193Q635.882 434.906 635.657 434.594Q635.432 434.283 635.24 433.951Q635.047 433.618 634.889 433.269Q634.73 432.919 634.607 432.555Q634.484 432.192 634.398 431.817Q634.312 431.443 634.264 431.062Q634.215 430.682 634.205 430.298Q634.194 429.914 634.222 429.531C634.467 426.135 636.325 424.263 638.742 422.205Z"/>
	<path fill="#F99835" d="M640.532 495.794C641.05 495.828 641.57 495.854 642.084 495.93C644.826 496.334 647.026 497.483 648.59 499.825C649.933 501.835 650.263 504.183 649.7 506.517C648.898 509.84 647.122 511.139 644.374 512.813C643.62 512.781 642.868 512.743 642.118 512.66C639.292 512.347 636.824 511.192 635.155 508.805C633.988 507.138 633.637 505.075 634.07 503.096C634.88 499.393 637.544 497.641 640.532 495.794Z"/>
	<path fill="#000007" d="M666.712 415.899Q693.37 416.035 720.028 415.75C728.023 415.705 738.284 414.401 745.937 416.263L746.983 418.265C740.305 419.097 668.358 419.24 666.883 418.172L666.712 415.899Z"/>
	<path fill="#000007" d="M858.588 412.642L885.751 412.605L885.92 493.783C885.993 507.842 887.159 522.754 885.778 536.663C890.12 536.91 904.817 535.556 907.774 537.98C902.68 541.325 889.384 539.502 883.048 539.407C875.667 540 867.85 539.465 860.421 539.449L840.035 539.427L771.065 539.405Q751.157 539.507 731.25 539.227C719.778 539.518 669.403 540.723 661.954 538.479L662.022 537.73C665.503 536.656 669.309 537.01 672.914 537.093L672.956 484.448L701.068 484.561C701.596 502.023 701.414 519.563 701.556 537.037L719.316 537.158C720.15 514.724 719.553 492.112 719.428 469.662L747.874 470.194C747.879 491.952 748.189 513.756 747.755 535.508C749.315 537.19 750.198 537.076 752.406 537.176C756.868 537.378 761.43 537.117 765.898 537.024L765.751 438.921L794.22 438.829C793.839 471.599 794.195 504.372 793.682 537.144L811.74 537.131C812.524 509.133 811.854 480.947 811.717 452.936L840.495 452.759L840.595 508.2C840.613 517.367 841.62 528.053 839.942 537.026L858.887 536.986C857.393 530.435 858.643 509.067 858.65 501.202L858.588 412.642Z"/>
	<path fill="#F9DFC3" d="M928.25 630.03C944.637 629.419 961.155 629.819 977.555 629.848L1063.53 630L1292.69 629.78L1396.85 630.1C1407.65 630.155 1428.19 628.826 1437.61 630.762C1432.11 631.527 1426.41 630.974 1420.87 631.059C1418.15 643.3 1388.45 672.528 1378.53 682.363C1373.18 687.661 1366.61 692.869 1362.44 699.086C1362.92 691.883 1349.79 676.741 1344.94 671.25C1342.81 668.836 1340.97 667.006 1337.81 665.998C1336.08 666.354 1335.68 666.285 1334.71 667.772C1331.16 673.177 1332.48 689.724 1334.07 695.977C1335.25 700.617 1342.91 716.258 1342.37 719.271C1337.44 719.615 1334.84 721.65 1331.21 724.66C1325 717.62 1315.28 713.664 1306.05 713.019C1298.32 712.479 1291.73 714.627 1284.54 717.071C1293.03 720.006 1301.31 723.428 1309.88 726.151C1314.35 727.572 1319.33 728.173 1323.63 729.863C1323.17 731.712 1323.19 731.724 1321.64 732.66C1313.58 737.539 1304.44 741.417 1295.93 745.458C1276.36 754.743 1256.36 763.622 1236.1 771.311C1225.8 775.22 1183.56 784.986 1178.05 791.422C1169.55 792.351 1160.15 791.586 1151.55 791.595L1095.22 791.595L961.01 791.459C935.778 791.461 910.451 791.104 885.232 791.763C886.29 788.474 889.522 786.074 890.595 782.52C895.43 766.496 898.771 749.501 902.779 733.205L928.25 630.03Z"/>
	<path fill="#F99835" d="M130.373 671.687C135.518 628.116 149.61 566.95 186.092 538.31C189.494 535.639 193.076 533.42 197.051 531.701C206.269 527.713 216.25 525.587 225.785 522.489C232.139 520.424 238.487 517.288 245.049 516.097C249.75 515.244 254.413 515.676 259.118 516.279C276.585 518.515 294.493 520.882 311.493 525.509C340.455 533.391 378.363 552.245 403.628 568.533C380.821 574.108 363.905 589.117 351.935 608.835C343.598 622.568 338.481 635.955 335.299 651.67C334.697 654.646 333.508 658.783 334.152 661.775C334.214 662.061 334.297 662.341 334.369 662.623L335.451 662.717C337.608 656.676 338.355 647.03 340.427 640.003C348.185 613.7 365.877 586.882 391.137 574.705C395.325 572.686 401.879 570.107 406.554 571.834C423.531 578.105 500.131 695.881 518.437 719.079C517.57 730.403 516.7 741.338 514.073 752.426C513.47 754.975 511.626 759.038 513.117 761.104C515.05 761.515 516.647 761.65 518.431 760.628C521.076 759.113 522.175 755.581 522.786 752.768C524.43 745.2 523.872 738.089 519.917 731.404L520.528 720.091C529.764 723.107 534.582 727.019 538.983 735.784C548.357 754.456 548.94 776.702 542.186 796.29Q540.501 801.197 538.317 805.904C521.962 806.179 503.106 808.051 487.073 804.365C463.52 798.948 412.425 757.511 392.917 741.359C383.363 733.449 374.316 723.151 363.851 716.626C372.093 729.535 392.349 743.821 404.455 753.965C415.731 762.367 426.771 771.175 438.265 779.267C441.523 781.56 456.411 790.75 457.46 792.413C457.632 792.686 457.617 793.041 457.695 793.355L456.829 793.511C450.627 793.578 405.249 792.755 402.844 794.491L402.587 795.591C402.683 800.439 401.891 806.271 402.969 810.93L403.335 812.957C413.8 815.465 427.6 812.155 438.59 813.596C441.287 823.46 444.335 833.705 445.833 843.822C430.663 843.626 415.524 842.733 400.359 842.458C399.376 852.142 398.583 861.939 398.195 871.668C388.863 905.019 371.097 927.502 340.808 944.632C338.053 933.075 336.554 920.823 334.908 909.047C327.909 858.96 326.912 808.816 334.424 758.68C335.971 748.35 338.596 738.163 341.208 728.062C342.543 722.902 344.458 717.422 345.058 712.131C345.206 710.828 345.321 710.847 344.532 709.859C344.103 710.277 343.711 710.697 343.365 711.19C340.093 715.839 338.311 729.844 336.888 735.735C320.316 804.33 325.504 877.086 338.737 945.738C323.513 954.608 304.218 963.705 286.821 966.819C266.66 933.355 259.227 896.33 249.995 858.942C240.356 819.906 230.082 781.237 211.597 745.273C197.837 718.503 174.276 685.19 144.176 675.511C139.62 673.787 135.118 672.698 130.373 671.687Z"/>
	<path fill="#F9DFC3" d="M404.455 753.965C415.731 762.367 426.771 771.175 438.265 779.267C441.523 781.56 456.411 790.75 457.46 792.413C457.632 792.686 457.617 793.041 457.695 793.355L456.829 793.511C441.227 791.605 419.416 793.134 403.195 793.212Q403.526 773.579 404.455 753.965Z"/>
	<path fill="#F9DFC3" d="M438.59 813.596C441.287 823.46 444.335 833.705 445.833 843.822C430.663 843.626 415.524 842.733 400.359 842.458Q401.014 828.211 402.105 813.991C414.263 813.655 426.431 814.125 438.59 813.596Z"/>
	<path fill="white" d="M576.476 123.818L1138.72 123.763L1332.22 123.757L1395.46 123.769C1407.11 123.778 1418.98 123.366 1430.6 124.037C1432.12 127.222 1431.75 130.907 1431.79 134.354L1431.78 500.222C1431.78 513.318 1433.02 611.265 1431.26 616.508C1431.08 617.043 1430.84 617.538 1430.55 618.021C1399.17 618.068 1367.73 618.389 1336.35 617.948C1325.22 618.42 1313.94 617.843 1302.79 617.651C1303.23 616.973 1303.61 616.361 1303.86 615.591C1306.2 608.417 1307.54 579.009 1308.4 568.944C1311.33 534.601 1315.12 500.039 1317.17 465.658C1317.33 463.013 1317.96 458.46 1316.82 456.103C1315.48 457.756 1314.84 459.939 1314.6 462.038C1313.81 469.11 1313.79 476.434 1313.13 483.57L1304.08 588.62C1303.41 595.782 1303.61 611.546 1300.42 617.155C1300.32 617.333 1300.2 617.502 1300.09 617.676C1272.88 617.278 1245.61 617.666 1218.38 617.611C1218.75 617.029 1219.13 616.474 1219.43 615.855C1224.6 605.413 1241.21 470.655 1237.4 459.441C1240.93 457.569 1245.04 453.21 1246.87 449.696C1246.86 449.655 1246.86 449.611 1246.83 449.576L1246.37 450.69L1244.93 450.491C1220.57 471.345 1196.24 492.703 1170.95 512.41L1172.19 512.909C1178.08 510.116 1230.49 467.405 1235.36 461.408C1238.11 475.021 1221.76 609.397 1216.35 617.129C1216.21 617.328 1216.05 617.515 1215.91 617.707C1192.29 618.843 1168.29 617.852 1144.62 617.859C1125.79 617.864 1106.05 619.064 1087.33 617.602L992.801 617.562C972.397 617.527 951.736 616.97 931.369 618.117C934.527 606.268 937.344 594.337 940.438 582.473C941.951 576.672 944.823 569.854 945.139 563.976C945.234 562.215 944.751 560.227 943.803 558.729C942.54 556.731 940.015 555.042 938.17 553.574L929.631 553.238C931.411 491.383 929.29 429.268 929.952 367.377L606.237 367.437C606.928 436.011 607.202 504.711 606.571 573.284C622.153 573.059 737.782 571.371 742.827 573.731C738.22 587.986 734.811 602.832 731.394 617.42L576.039 617.485L576.476 123.818Z"/>
	<path fill="#969190" d="M1399.53 161.651C1401.16 161.576 1401.89 161.402 1403.38 162.13C1403.9 168.935 1403.32 176.131 1403.3 182.982L1403.24 226.616C1403.22 263.966 1404 301.412 1403.62 338.744C1403.58 342.706 1404.12 346.23 1401.18 349.099L1400.77 349.206C1399.95 348.818 1399.81 349.12 1399.89 348.125C1402.42 314.582 1400.83 280.114 1400.83 246.467L1400.88 193.934C1400.89 184.57 1401.34 174.997 1400.71 165.668C1400.61 164.167 1400.28 162.958 1399.53 161.651Z"/>
	<path fill="#969190" d="M1392.53 363.848C1395.92 364.676 1399.22 364.533 1402.69 364.47C1403.57 365.909 1403.89 367.093 1403.96 368.766C1404.64 385.953 1403.93 403.486 1403.88 420.71L1403.55 519.912C1403.5 528.85 1404.84 561.407 1403.31 567.592C1403.14 568.279 1402.84 568.856 1402.47 569.45C1394.29 568.329 1385.78 568.767 1377.53 568.802C1359.62 568.88 1341.34 569.751 1323.47 568.749C1324.25 568.416 1324.89 567.747 1325.54 567.195C1350.01 565.708 1375.29 566.92 1399.85 566.888C1399.97 566.63 1400.1 566.376 1400.22 566.114C1402.02 562 1401.36 387.726 1400.89 371.871C1400.83 370.024 1400.57 368.567 1399.83 366.848L1391.3 366.16C1391.82 365.435 1392.14 364.654 1392.53 363.848Z"/>
	<path fill="#36353A" d="M928.562 157.304C929.89 158.764 929.797 159.79 929.886 161.703C930.825 181.7 929.861 202.135 929.869 222.181L930.068 346.075C867.739 345.112 805.248 345.971 742.905 345.962C697.737 345.956 651.458 344.597 606.415 346.279C607.438 285.077 606.11 223.814 606.474 162.602C606.483 161.745 606.696 160.867 606.838 160.021L607.594 159.902C610.269 168.889 608.4 205.507 608.381 216.759L608.335 344.081L927.877 343.992L927.884 208.441C927.874 198.438 926.429 164.682 928.562 157.304Z"/>
	<path fill="#FAC594" d="M955.132 346.202L955.104 206.936L955.086 172.521C955.095 168.661 955.901 163.591 955.178 159.867C955.132 159.629 955.078 159.392 955.028 159.154L956.193 159.389L955.615 158.719L956.175 158.575C958.671 163.633 957.223 321.441 957.277 344.048L1066.37 344.264C1071.12 344.232 1076.21 341.013 1080.77 341.955C1083 342.416 1083.18 343.321 1084.42 345.135C1085.25 345.364 1086.12 345.508 1086.96 345.677L1087.39 344.348C1090.74 347.618 1092.87 362.948 1092.81 367.781C1092.8 368.515 1092.77 368.553 1092.66 369.17C1094.26 369.513 1094.41 369.782 1095.86 368.888C1097.33 362.573 1100.6 355.499 1097.21 349.51C1100.9 350.577 1102.84 353.968 1104.58 357.155C1106.36 360.406 1107.81 364.657 1110.04 367.549L1110.69 369.206C1114.24 380.049 1110.65 395.653 1115.85 401.876C1112.86 403.744 1107.25 402.647 1103.72 404.248C1101.23 405.376 1094.22 408.512 1091.87 409.075C1085.72 400.682 1084.44 388.554 1080.9 378.992C1080.21 377.12 1079.83 377.232 1078.05 376.469C1078.33 375.921 1078.7 375.314 1078.75 374.678C1078.92 372.722 1078.39 371.727 1077.24 370.258C1074.37 368.81 1071.11 369.1 1067.98 369.083C1070.14 368.833 1071.37 368.93 1073.17 367.553L1075.16 367.011C1075.62 366.334 1075.83 365.8 1075.9 364.98C1076.3 360.699 1075.26 351.035 1072.62 347.555C1070.73 346.538 1068.96 346.307 1066.85 346.17C1055.96 345.461 1044.7 346.191 1033.76 346.163L955.132 346.202Z"/>
	<path fill="#F9DFC3" d="M1087.39 344.348C1090.74 347.618 1092.87 362.948 1092.81 367.781C1092.8 368.515 1092.77 368.553 1092.66 369.17L1092.49 369.917L1091.28 369.583C1090.06 368.123 1087.97 366.118 1087.48 364.274C1085.51 356.85 1082.32 353.17 1084.42 345.135C1085.25 345.364 1086.12 345.508 1086.96 345.677L1087.39 344.348Z"/>
	<path fill="#F99835" d="M738.529 194.133C735.675 190.876 733.405 187.893 733.923 183.24C734.217 180.593 735.681 178.352 737.769 176.746C740.838 174.387 744.878 173.527 748.662 174.254C751.459 174.79 754.25 176.059 755.811 178.553C757.366 181.036 757.167 183.958 756.453 186.676C755.667 189.671 753.772 192.201 752.012 194.693Q766.968 215.563 781.43 236.779C788.426 228.645 804.868 212.225 808.807 203.363C808.125 199.301 806.142 195.744 808.873 192.013C810.336 190.015 812.445 188.737 814.895 188.388C817.513 188.014 820.457 188.587 822.58 190.225C824.113 191.407 825.703 193.995 825.818 195.969C826.172 202.034 823.062 202.382 828.179 207.605C833.622 213.162 839.673 218.25 845.347 223.588C851.582 219.245 883.519 195.654 887.103 194.87C886.651 197.492 882.556 199.845 880.424 201.348C869.371 209.143 857.892 216.594 847.281 224.974C858.08 235.496 869.316 245.566 880.064 256.131L880.762 255.728C884.299 253.718 888.499 252.85 892.529 253.891C894.559 254.415 896.173 255.697 897.194 257.524C898.846 260.479 898.734 264.24 897.607 267.354C896.501 270.407 894.254 273.312 891.184 274.561C888.947 275.472 886.566 275.273 884.384 274.288C881.79 273.118 879.243 271.084 878.268 268.326C877.105 265.036 879.564 260.031 878.361 257.607C875.45 251.739 851.318 232.268 845.036 226.162C821.637 244.807 794.855 259.574 771.856 278.794C754.482 264.702 734.538 253.324 717.702 238.715C713.4 246.791 699.064 270.479 698.448 278.24C700.363 281.196 703.041 284.331 702.26 288.074C701.666 290.916 699.288 294.132 696.76 295.546C695.052 296.502 693.057 296.564 691.205 296.002C688.289 295.118 685.307 292.818 684.07 289.983C683.439 288.536 683.165 286.867 682.865 285.323C677.155 284.431 655.417 280.067 651.65 282.531C648.629 284.508 645.365 289.16 641.309 288.344C638.408 287.761 635.921 284.403 634.591 281.917C633.401 279.691 633.234 277.297 634.122 274.926C635.096 272.325 637.102 270.13 639.71 269.12C642.216 268.149 645.676 268.618 648.047 269.81C650.581 271.083 651.954 273.564 652.675 276.207Q652.977 277.349 653.203 278.508C663.218 280.707 673.515 281.367 683.421 283.744L683.988 282.951C688.371 276.883 692.846 278.833 696.194 274.584C703.711 265.042 710.141 248.844 715.725 237.737C706.031 230.28 695.805 223.368 685.671 216.522C676.829 221.585 667.868 227.867 658.66 232.142C656.041 234.011 655.77 235.64 654.319 238.388C652.766 241.328 650.998 242.873 647.806 243.824C645.068 244.641 641.971 244.569 639.462 243.105C636.852 241.583 635.153 238.816 634.603 235.879C634.047 232.907 634.624 229.677 636.399 227.203C638.07 224.877 640.645 223.482 643.473 223.164C653.955 221.985 651.787 227.933 656.457 230.833C656.62 230.934 656.808 230.987 656.983 231.064C666.496 225.486 675.941 219.706 685.621 214.425C696.093 221.37 706.322 228.631 716.709 235.695C724.233 221.994 730.393 207.471 738.529 194.133Z"/>
	<path fill="white" d="M814.419 190.008C815.494 190.02 816.594 189.997 817.659 190.163C819.744 190.489 821.724 191.968 822.884 193.703C824.002 195.373 824.194 197.261 823.725 199.193C823.005 202.155 821.186 203.188 818.708 204.565C815.889 204.5 812.833 204.024 810.817 201.844C809.684 200.619 809.188 199.056 809.324 197.401C809.608 193.938 811.967 192.079 814.419 190.008Z"/>
	<path fill="white" d="M691.916 278.465C692.178 278.496 692.442 278.519 692.703 278.557C695.211 278.925 697.935 280.22 699.336 282.414C700.481 284.207 700.511 286.338 699.969 288.34C699.044 291.759 696.823 293.099 693.97 294.751C693.57 294.682 693.169 294.61 692.773 294.52C690.14 293.923 687.823 292.893 686.411 290.455C685.369 288.655 685.356 286.586 685.965 284.636C686.965 281.432 689.195 280.039 691.916 278.465Z"/>
	<path fill="white" d="M641.635 270.237C642.433 270.318 643.178 270.428 643.96 270.613C646.552 271.225 648.704 272.656 649.976 275.045C650.917 276.811 650.99 278.675 650.376 280.568C649.423 283.508 647.34 284.518 644.764 285.75C643.743 285.743 642.712 285.713 641.713 285.481C639.626 284.997 637.53 283.645 636.443 281.767C635.486 280.111 635.406 278.272 635.888 276.45C636.757 273.164 638.884 271.799 641.635 270.237Z"/>
	<path fill="white" d="M739.41 195.839C742.808 196.401 746.448 196.334 749.888 196.378C758.604 204.083 773.425 228.939 781.062 239.817C791.632 229.104 799.994 216.375 810.612 205.752C813.323 205.979 816.02 206.321 818.72 206.646C820.199 205.997 821.335 205.547 822.955 205.451C830.418 210.873 836.921 218.672 843.467 225.175L823.151 239.47L771.804 275.846C753.453 263.577 736.431 249.35 718.075 237.15C725.854 223.938 732.255 209.453 739.41 195.839Z"/>
	<path fill="#F99835" d="M955.214 367.219L1031.53 367.243C1045.33 367.256 1059.42 366.696 1073.17 367.553C1071.37 368.93 1070.14 368.833 1067.98 369.083C1031.06 369.988 994.067 368.779 957.137 369.376L956.617 569.827L1163.4 569.772C1166.56 565.446 1169.08 543.462 1170.2 536.873C1169.88 536.241 1169.6 535.552 1169.19 534.977L1170.45 534.222L1170.04 532.673C1170.24 532.437 1170.46 532.209 1170.65 531.965C1173.07 528.953 1174.25 518.116 1173.84 514.153L1172.19 512.909C1178.08 510.116 1230.49 467.405 1235.36 461.408C1238.11 475.021 1221.76 609.397 1216.35 617.129C1216.21 617.328 1216.05 617.515 1215.91 617.707C1192.29 618.843 1168.29 617.852 1144.62 617.859C1125.79 617.864 1106.05 619.064 1087.33 617.602C1109.61 616.866 1132.08 617.441 1154.38 617.48C1154.87 616.76 1155.39 616.019 1155.72 615.207C1157.81 610.046 1163.81 575.463 1162.31 571.659L954.481 572.007L955.214 367.219Z"/>
	<path fill="white" d="M1067.98 369.083C1071.11 369.1 1074.37 368.81 1077.24 370.258C1078.39 371.727 1078.92 372.722 1078.75 374.678C1078.7 375.314 1078.33 375.921 1078.05 376.469C1079.26 380.322 1078.78 384.322 1079.94 388.086C1081.59 393.403 1089.29 406.276 1088.32 411.087C1086.92 412.278 1085.56 413.493 1084.01 414.485C1085.75 423.246 1087.04 431.997 1089.08 440.715C1091.07 449.269 1093.87 457.95 1095.23 466.612C1095.46 468.09 1095.37 469.041 1094.88 470.437L1095.89 471.936L1095.08 473.376C1095.59 473.698 1096.73 474.219 1097.08 474.645C1098.67 476.573 1099.53 481.875 1100.27 484.458C1104.15 498.123 1109.98 523.854 1123.21 531.019L1123.42 531.901C1131.73 533.423 1138.9 532.84 1147.27 532.448C1154.83 532.544 1162.49 532.907 1170.04 532.673L1170.45 534.222L1169.19 534.977C1169.6 535.552 1169.88 536.241 1170.2 536.873C1169.08 543.462 1166.56 565.446 1163.4 569.772L956.617 569.827L957.137 369.376C994.067 368.779 1031.06 369.988 1067.98 369.083Z"/>
	<path fill="#000007" d="M1025.89 392.965C1026.31 393.538 1026.45 393.71 1026.84 394.372C1028.42 397.081 1029.36 412.606 1028.64 415.74C1026.13 414.815 1025.9 404.978 1024.07 402.092C1023.97 401.935 1023.86 401.785 1023.75 401.631C1024.57 410.369 1016.58 430.792 1013.68 439.989C1010.76 449.292 984.962 528.822 985.883 532.187C987.707 531.852 988.303 531.542 989.675 530.322C995.913 524.772 1050.23 440.161 1050.58 434.964C1051.27 435.802 1052.04 436.707 1052.46 437.713C1055 443.891 1063.49 494.679 1063.98 503.06C1064.06 504.334 1063.8 505.361 1063.27 506.519C1071.08 502.047 1088.33 478.878 1094.88 470.437L1095.89 471.936L1095.08 473.376C1092.47 478.901 1067.34 508.969 1061.98 511.812C1063.07 505.021 1053.03 446.397 1049.48 441.333C1049.87 447.285 1000.35 519.067 992.648 531.843L1079.85 531.965C1094.21 531.978 1109.1 532.781 1123.42 531.901C1131.73 533.423 1138.9 532.84 1147.27 532.448C1154.83 532.544 1162.49 532.907 1170.04 532.673L1170.45 534.222L1169.19 534.977L982.126 534.388C987.645 512.154 995.648 490.068 1002.56 468.231C1009.75 445.548 1016.12 422.618 1023.54 400.016C1020.36 403.155 1016.26 408.087 1011.85 409.216L1011.01 408.509C1013.72 402.774 1021.95 398.851 1025.63 393.375C1025.72 393.24 1025.81 393.102 1025.89 392.965Z"/>
	<path fill="white" d="M992.648 531.843C1000.35 519.067 1049.87 447.285 1049.48 441.333C1053.03 446.397 1063.07 505.021 1061.98 511.812C1067.34 508.969 1092.47 478.901 1095.08 473.376C1095.59 473.698 1096.73 474.219 1097.08 474.645C1098.67 476.573 1099.53 481.875 1100.27 484.458C1104.15 498.123 1109.98 523.854 1123.21 531.019L1123.42 531.901C1109.1 532.781 1094.21 531.978 1079.85 531.965L992.648 531.843Z"/>
	<path fill="#000007" d="M1127.55 250.886C1127.69 250.783 1127.83 250.683 1127.97 250.576C1131.9 247.491 1134.89 242.223 1137.86 238.159C1148.06 224.165 1164.12 198.527 1176.9 188.448C1182.12 184.329 1188.59 181.218 1195.4 181.859C1206.07 182.865 1213.52 192.048 1219.77 199.824C1222.55 203.286 1226.16 207.212 1228.24 211.115C1235.1 209.975 1241.72 209.372 1248.68 209.504C1262.74 209.769 1280.69 214.226 1292.91 205.663C1298.66 201.634 1302.44 196.019 1306.78 190.647C1308.8 188.152 1311.47 185.994 1313.33 183.42C1313.7 182.902 1313.8 182.376 1313.95 181.77C1318.55 183.957 1363.32 229.015 1365.35 233.339C1365.41 233.486 1365.45 233.646 1365.51 233.8C1365.63 233.709 1365.77 233.622 1365.89 233.528C1370.92 229.788 1373.18 222.741 1378.23 219.187L1378.34 220.106L1379.12 220.987L1378.03 220.87C1375.18 225.602 1371.19 232.178 1366.74 235.509C1369.07 236.941 1372.56 239.462 1373.28 242.202C1370.32 240.896 1368.6 238.7 1365.9 237.221C1365.31 241.774 1346.64 266.025 1342.13 269.545C1335.79 274.494 1327.92 275.54 1320.12 274.497C1316.95 274.073 1313.78 273.531 1310.63 273.003C1313.05 275.449 1313.82 278.899 1316.6 280.981C1323 285.767 1331.46 280.871 1338.43 287.046C1343.62 291.644 1343.07 303.013 1348.04 306.16C1358.69 312.911 1379.36 302.115 1393.41 327.053C1396.09 331.814 1398.67 338.054 1398.65 343.613C1398.64 348.743 1396.64 359.647 1393.03 363.376C1392.87 363.54 1392.7 363.691 1392.53 363.848C1392.14 364.654 1391.82 365.435 1391.3 366.16C1389.92 373.114 1383.34 380.551 1377.5 384.378C1371.34 388.412 1365.47 389.581 1358.24 389.936C1356.33 388.177 1353.6 387.083 1351.06 386.58C1344.87 390.113 1337.32 394.611 1330.37 396.211C1324.76 397.244 1319.07 396.966 1313.54 395.669C1305.45 393.77 1288.39 387.5 1286.53 377.886C1285.84 374.304 1288.87 368.392 1286.79 365.294C1283.66 360.627 1276.26 359.144 1271.13 358.014L1270.49 359.145C1260.6 361.562 1241.07 367.626 1232.08 368.365C1231.97 369.577 1231.85 370.58 1231.46 371.744C1235.08 373.771 1241.07 372.523 1245.14 373.25C1252.38 374.539 1266.37 385.033 1269.5 391.646L1269.41 393.227C1267.75 393.084 1266.36 391.2 1265.27 389.945C1257.76 381.3 1250.89 375.895 1239.07 374.925C1234.31 374.534 1229.49 374.841 1224.72 375.082C1226.38 373.339 1228.27 371.767 1228.84 369.359C1189.68 368.038 1149.88 368.666 1110.69 369.206L1110.04 367.549C1107.81 364.657 1106.36 360.406 1104.58 357.155C1102.84 353.968 1100.9 350.577 1097.21 349.51C1100.6 355.499 1097.33 362.573 1095.86 368.888C1094.41 369.782 1094.26 369.513 1092.66 369.17C1092.77 368.553 1092.8 368.515 1092.81 367.781C1092.87 362.948 1090.74 347.618 1087.39 344.348C1087.44 344.218 1087.5 344.091 1087.54 343.959C1090.29 335.922 1080.75 324.706 1086.38 317.355L1088.25 316.607C1093.28 320.209 1094.18 333.372 1095.14 339.181C1095.41 340.806 1095.98 342.781 1095.5 344.379L1165.45 344.2C1174.76 344.219 1188.2 345.528 1197.13 344.071C1196.96 340.077 1193.22 329.632 1194.34 326.261C1194.64 325.36 1195.04 325.999 1195.22 324.567L1191.84 322.216C1190.65 319.529 1191.8 317.596 1191.68 314.725C1190 312.355 1186.72 312.108 1184.29 310.743C1182.51 309.747 1182.23 308.935 1181.68 307.139C1182.65 304.559 1185.66 302.611 1187.69 300.739C1189.16 299.378 1191.32 297.461 1192.05 295.549C1195.02 287.68 1193.67 276.367 1194.72 267.897C1195.05 265.222 1196.18 262.543 1196.23 259.869C1196.24 259.557 1196.23 259.244 1196.23 258.931C1204.87 246.716 1213.45 239.493 1228.73 236.99C1234.1 236.111 1239.59 235.8 1245.01 235.477C1244.44 231.935 1232.6 217.03 1229.2 214.431C1228.86 214.174 1228.3 213.885 1227.96 213.695C1223.19 216.891 1217.59 219.66 1213.32 223.493C1207.15 229.037 1201.89 235.877 1196.11 241.851C1183.51 254.87 1165.98 266.374 1147.1 262.699C1139.66 261.25 1134.76 256.595 1128.09 254.058C1126.68 258.404 1101.47 292.86 1098.23 294.791C1095.71 290.224 1076.38 266.045 1072.58 263.95C1068 274.323 1050.85 292.415 1042.21 301.359C1035.4 297.129 1029.01 292.114 1022.56 287.355C1013.78 296.195 1005.33 305.612 995.825 313.671C996.34 309.91 1018.42 288.371 1022.58 284.959C1026.08 287.612 1039.49 296.318 1040.95 298.901C1046.25 295.716 1070.76 267.336 1072.21 261.573C1072.25 261.401 1072.25 261.222 1072.27 261.046C1076.38 263.935 1096.87 287.743 1098.25 291.953C1102.23 288.726 1126.45 255.323 1126.8 252.324C1126.66 252.031 1126.52 251.734 1126.37 251.444C1123.61 246.121 1115.4 238.35 1111.32 233.2C1102.17 221.657 1094.44 208.168 1083.82 197.928C1080.28 194.512 1076.22 191.583 1071.41 190.262C1065.82 188.723 1060.29 189.84 1055.31 192.698C1043.3 199.606 1015.03 238.335 1004.98 250.417C1001.41 254.708 997.788 259.885 993.458 263.398C995.056 258.055 1039.05 205.108 1045.83 198.04C1048.71 195.044 1051.87 192.289 1055.54 190.319C1060.81 187.496 1066.55 186.794 1072.27 188.629C1077.45 190.291 1081.98 193.689 1085.84 197.44C1097.59 208.855 1106.64 224.354 1116.74 237.32C1119.76 241.192 1124.71 245.433 1127.08 249.493C1127.42 250.086 1127.42 250.293 1127.55 250.886Z"/>
	<path fill="#F9DFC3" d="M1201.49 262.466L1203.17 261.713C1204.94 264.351 1213.99 275.853 1214.36 277.563L1212.87 278.479C1210.6 277.021 1207.29 275.679 1204.58 275.533C1201.59 275.371 1199.79 276.28 1197.59 278.204L1196.31 278.301C1197.44 272.944 1201.03 267.786 1201.49 262.466Z"/>
	<path fill="white" d="M1247.5 235.93C1249.52 235.546 1251.21 235.41 1253.26 235.592C1255.05 236.753 1255.29 237.022 1255.87 239.078C1257.91 246.288 1261.68 277.698 1258.58 283.195C1256.75 283.117 1255.1 283.149 1253.41 282.374C1252.47 266.782 1251.33 251.135 1247.5 235.93Z"/>
	<path fill="white" d="M1250.46 291.444C1252.93 291.254 1255.41 291.496 1257.54 292.874C1259.95 294.43 1261.38 296.926 1261.77 299.746C1262.19 302.912 1261.17 306.106 1259.24 308.617C1257.19 311.296 1255.17 312.365 1251.88 312.849C1250.48 312.907 1248.96 313.017 1247.61 312.621C1245.43 311.981 1243.77 310.455 1242.87 308.381C1241.57 305.373 1242.01 301.861 1243.15 298.867C1244.63 294.974 1246.83 293.113 1250.46 291.444Z"/>
	<path fill="white" d="M1236.68 297.714C1236.78 297.586 1236.89 297.458 1236.99 297.329C1241.66 291.444 1243.95 285.49 1252.6 284.626C1255.86 284.301 1258.86 285.617 1261.25 287.775C1272.6 298.034 1266.56 314.522 1274.56 322.341C1284.56 332.121 1301.51 324.267 1310.46 336.43C1317.34 345.765 1309.84 369.407 1327.43 368.863C1331.36 368.742 1337.09 366.611 1340.61 367.931L1340.62 368.734C1335.98 370.719 1327.19 371.766 1322.5 369.936C1318.93 368.545 1315.68 365.592 1314.21 362.03C1309.83 351.401 1315.84 338.339 1302.31 332.446C1291.87 327.895 1275.41 332.394 1270.04 318.988C1266.7 310.651 1270.36 299.953 1262.04 293.453C1260 291.108 1256.92 289.174 1253.75 288.922C1250.34 288.651 1246.96 290.664 1244.54 292.942C1243.09 294.303 1242.18 295.71 1241.19 297.414C1240.57 298.498 1239.98 299.691 1239.24 300.702C1239.34 301.989 1239.73 302.95 1238.91 303.997L1238.31 302.575L1238.1 302.904L1236.68 297.714Z"/>
	<path fill="white" d="M1198.08 345.169C1205.62 348.877 1214.4 347.233 1222.09 344.615C1223.89 344.001 1226.05 343.415 1227.62 342.305C1230.44 346.981 1232.19 360.366 1230.98 365.596C1230.83 366.249 1230.55 366.697 1230.19 367.256C1190.27 368.516 1150.01 367.424 1110.04 367.549C1107.81 364.657 1106.36 360.406 1104.58 357.155C1102.84 353.968 1100.9 350.577 1097.21 349.51C1097.43 348.447 1097.6 347.369 1097.79 346.299C1103.64 344.566 1112.03 345.677 1118.19 345.703C1129.28 345.749 1192.26 347.43 1198.08 345.169Z"/>
	<path fill="#FAC594" d="M1197.59 278.204C1199.79 276.28 1201.59 275.371 1204.58 275.533C1207.29 275.679 1210.6 277.021 1212.87 278.479L1214.36 277.563C1220.46 281.087 1234.38 290.892 1236.68 297.714L1238.1 302.904L1238.31 302.575L1238.91 303.997C1239.73 302.95 1239.34 301.989 1239.24 300.702C1239.3 300.855 1239.37 301.007 1239.43 301.161C1247.06 321.686 1231.5 339.737 1258.22 352.564C1262.23 354.489 1267.5 355.7 1271.13 358.014L1270.49 359.145C1260.6 361.562 1241.07 367.626 1232.08 368.365C1233.84 366.28 1234.01 364.18 1234.09 361.556C1234.28 355.193 1233.99 343.88 1229.51 339.158C1224.2 341.662 1210.9 345.807 1205.11 344.38C1202.24 343.67 1200.28 341.763 1198.91 339.203C1197.23 336.073 1196.18 330.873 1197.45 327.499C1198.64 324.334 1201.63 325.143 1204.16 323.66C1205.33 322.971 1205.44 322.629 1205.81 321.411C1203.15 320.726 1199.39 322.78 1196.25 322.516C1191.78 320.024 1194.79 316.846 1193.13 312.929C1193.07 312.793 1193 312.66 1192.94 312.526C1190.12 310.233 1185.49 308.992 1182.09 307.629C1185 306.274 1187.61 304.958 1189.83 302.568C1196.19 295.723 1196.75 287.178 1196.31 278.301L1197.59 278.204Z"/>
	<path fill="#000007" d="M1197.59 278.204C1199.79 276.28 1201.59 275.371 1204.58 275.533C1207.29 275.679 1210.6 277.021 1212.87 278.479C1213.61 279.036 1214.28 279.745 1214.96 280.381C1210.04 280.876 1202.78 278.742 1197.59 278.204Z"/>
	<path fill="#000007" d="M1203.14 286.943C1205.5 286.854 1213.21 287.828 1214.99 289.313C1214.11 290.625 1209.14 290.698 1207.25 291.37L1206.21 293.658C1206.33 293.914 1206.46 294.164 1206.56 294.426C1207.24 296.167 1207.23 296.569 1206.4 298.231L1204.88 298.252C1203.1 295.579 1205.13 293.886 1203.74 291.466C1202.26 291.276 1201.43 291.21 1200.32 290.101L1203.14 286.943Z"/>
	<path fill="white" d="M1188.5 184.168C1194.88 183.38 1199.39 184.364 1204.85 187.781C1210.76 191.478 1224.82 205.596 1226.27 212.13C1223.25 215.818 1216.34 218.642 1212.53 221.981C1197.61 235.068 1185.98 255.517 1164.9 259.752C1163.97 260.224 1163.16 260.574 1162.14 260.801C1149.55 263.612 1139.9 258.835 1129.49 252.19C1133.42 249.223 1136.67 243.085 1139.58 238.975C1149.88 224.45 1165.18 199.785 1179.14 189.112C1181.98 186.942 1185.23 185.565 1188.5 184.168Z"/>
	<path fill="white" d="M1314.03 184.918L1315.69 185.034C1320.38 187.868 1363.4 232.072 1364.4 235.566C1364.38 235.833 1364.38 236.102 1364.34 236.367C1363.73 241 1343.82 266.306 1339.12 269.388C1329.89 275.438 1319.23 272.866 1309.18 270.878C1309.17 270.512 1309.17 269.976 1309.08 269.597C1308.16 265.664 1301.5 256.214 1298.03 253.938C1298.01 253.762 1298 253.581 1297.95 253.41C1297.38 251.545 1294.69 249.22 1293.33 247.821C1277.56 231.642 1253.04 237.176 1247.17 232.58C1246.99 232.443 1246.83 232.288 1246.66 232.145C1240.13 226.685 1236.97 217.769 1229.69 213.167C1229.49 213.042 1229.29 212.926 1229.09 212.806C1236.09 212.16 1242.74 211.418 1249.8 211.567C1260.64 211.797 1273.46 214.228 1284.09 211.733C1294.3 209.333 1299.36 202.12 1305.84 194.653C1308.58 191.484 1311.8 188.47 1314.03 184.918Z"/>
	<path fill="#F99835" d="M1271.13 358.014C1276.26 359.144 1283.66 360.627 1286.79 365.294C1288.87 368.392 1285.84 374.304 1286.53 377.886C1288.39 387.5 1305.45 393.77 1313.54 395.669C1319.07 396.966 1324.76 397.244 1330.37 396.211C1337.32 394.611 1344.87 390.113 1351.06 386.58C1353.6 387.083 1356.33 388.177 1358.24 389.936C1365.47 389.581 1371.34 388.412 1377.5 384.378C1383.34 380.551 1389.92 373.114 1391.3 366.16L1399.83 366.848C1400.57 368.567 1400.83 370.024 1400.89 371.871C1401.36 387.726 1402.02 562 1400.22 566.114C1400.1 566.376 1399.97 566.63 1399.85 566.888C1375.29 566.92 1350.01 565.708 1325.54 567.195C1324.89 567.747 1324.25 568.416 1323.47 568.749C1321.52 570.274 1321.63 571.374 1321.36 573.722C1320.31 582.802 1321.55 611.745 1317.87 617.487C1323.66 617.545 1330.72 616.868 1336.35 617.948C1325.22 618.42 1313.94 617.843 1302.79 617.651C1303.23 616.973 1303.61 616.361 1303.86 615.591C1306.2 608.417 1307.54 579.009 1308.4 568.944C1311.33 534.601 1315.12 500.039 1317.17 465.658C1317.33 463.013 1317.96 458.46 1316.82 456.103C1315.48 457.756 1314.84 459.939 1314.6 462.038C1313.81 469.11 1313.79 476.434 1313.13 483.57L1304.08 588.62C1303.41 595.782 1303.61 611.546 1300.42 617.155C1300.32 617.333 1300.2 617.502 1300.09 617.676C1272.88 617.278 1245.61 617.666 1218.38 617.611C1218.75 617.029 1219.13 616.474 1219.43 615.855C1224.6 605.413 1241.21 470.655 1237.4 459.441C1240.93 457.569 1245.04 453.21 1246.87 449.696C1246.86 449.655 1246.86 449.611 1246.83 449.576L1246.37 450.69L1244.93 450.491C1220.57 471.345 1196.24 492.703 1170.95 512.41L1172.19 512.909L1173.84 514.153C1174.25 518.116 1173.07 528.953 1170.65 531.965C1170.46 532.209 1170.24 532.437 1170.04 532.673C1162.49 532.907 1154.83 532.544 1147.27 532.448C1138.9 532.84 1131.73 533.423 1123.42 531.901L1123.21 531.019C1109.98 523.854 1104.15 498.123 1100.27 484.458C1099.53 481.875 1098.67 476.573 1097.08 474.645C1096.73 474.219 1095.59 473.698 1095.08 473.376L1095.89 471.936L1094.88 470.437C1095.37 469.041 1095.46 468.09 1095.23 466.612C1093.87 457.95 1091.07 449.269 1089.08 440.715C1087.04 431.997 1085.75 423.246 1084.01 414.485C1085.56 413.493 1086.92 412.278 1088.32 411.087C1089.29 406.276 1081.59 393.403 1079.94 388.086C1078.78 384.322 1079.26 380.322 1078.05 376.469C1079.83 377.232 1080.21 377.12 1080.9 378.992C1084.44 388.554 1085.72 400.682 1091.87 409.075C1094.22 408.512 1101.23 405.376 1103.72 404.248C1107.25 402.647 1112.86 403.744 1115.85 401.876C1110.65 395.653 1114.24 380.049 1110.69 369.206C1149.88 368.666 1189.68 368.038 1228.84 369.359C1228.27 371.767 1226.38 373.339 1224.72 375.082C1229.49 374.841 1234.31 374.534 1239.07 374.925C1250.89 375.895 1257.76 381.3 1265.27 389.945C1266.36 391.2 1267.75 393.084 1269.41 393.227L1269.5 391.646C1266.37 385.033 1252.38 374.539 1245.14 373.25C1241.07 372.523 1235.08 373.771 1231.46 371.744C1231.85 370.58 1231.97 369.577 1232.08 368.365C1241.07 367.626 1260.6 361.562 1270.49 359.145L1271.13 358.014Z"/>
	<path fill="white" d="M1147.27 532.448L1144.16 531.634C1144.86 531.033 1144.62 531.185 1145.3 530.783C1150.78 527.548 1167.83 512.84 1170.95 512.41L1172.19 512.909L1173.84 514.153C1174.25 518.116 1173.07 528.953 1170.65 531.965C1170.46 532.209 1170.24 532.437 1170.04 532.673C1162.49 532.907 1154.83 532.544 1147.27 532.448Z"/>
	<path fill="white" d="M1110.69 369.206C1149.88 368.666 1189.68 368.038 1228.84 369.359C1228.27 371.767 1226.38 373.339 1224.72 375.082C1224.29 375.923 1224.35 376.331 1223.43 376.644C1217.93 378.506 1213.08 381.771 1208.85 385.708C1199.63 394.3 1171.73 438.043 1163.54 440.24L1164.14 441.936C1163.37 442.394 1162.61 442.908 1161.79 443.286C1161.77 444.224 1161.84 444.012 1161.57 444.905C1160.27 449.158 1148.13 463.174 1143.98 465.317C1143.62 457.942 1136.64 448.59 1133.38 441.831L1132.43 438.889C1131.44 433.985 1127.08 427.389 1125.06 422.539C1123.43 418.595 1119.64 405.816 1117.81 403.184C1117.54 402.796 1116.3 402.176 1115.85 401.876C1110.65 395.653 1114.24 380.049 1110.69 369.206Z"/>
	<path fill="#000007" d="M1152.27 409.655C1155.35 412.299 1163.36 435.218 1163.56 439.675C1163.57 439.863 1163.55 440.052 1163.54 440.24L1164.14 441.936C1163.37 442.394 1162.61 442.908 1161.79 443.286C1161.79 443.029 1161.81 442.771 1161.78 442.515C1161.32 437.172 1155.39 418.731 1151.49 415.294C1151.48 415.61 1151.49 416.158 1151.4 416.497C1150.48 420.251 1136.64 439.985 1133.38 441.831L1132.43 438.889C1135.84 437.168 1150.6 415.005 1152.01 410.8C1152.14 410.404 1152.19 410.074 1152.27 409.655Z"/>
	<path fill="white" d="M1133.38 441.831C1136.64 439.985 1150.48 420.251 1151.4 416.497C1151.49 416.158 1151.48 415.61 1151.49 415.294C1155.39 418.731 1161.32 437.172 1161.78 442.515C1161.81 442.771 1161.79 443.029 1161.79 443.286C1161.77 444.224 1161.84 444.012 1161.57 444.905C1160.27 449.158 1148.13 463.174 1143.98 465.317C1143.62 457.942 1136.64 448.59 1133.38 441.831Z"/>
	<path fill="white" d="M1391.3 366.16L1399.83 366.848C1400.57 368.567 1400.83 370.024 1400.89 371.871C1401.36 387.726 1402.02 562 1400.22 566.114C1400.1 566.376 1399.97 566.63 1399.85 566.888C1375.29 566.92 1350.01 565.708 1325.54 567.195L1322.91 566.777C1319.14 559.145 1326.27 540.708 1322.41 533.435C1329.45 533.42 1369.02 535.267 1373.03 531.788C1365.46 529.61 1332.7 530.292 1322.54 530.184C1324.57 525.931 1328.37 469.465 1327.01 464.999C1331.1 462.167 1370.08 419.752 1372.06 415.587L1371.26 415.207C1362.49 418.959 1337.56 455.29 1326.56 462.127C1326.39 462.229 1326.22 462.321 1326.06 462.418C1326.63 461.372 1327.12 460.289 1327.31 459.105C1328.48 451.681 1331.43 401.572 1330.37 396.211C1337.32 394.611 1344.87 390.113 1351.06 386.58C1353.6 387.083 1356.33 388.177 1358.24 389.936C1365.47 389.581 1371.34 388.412 1377.5 384.378C1383.34 380.551 1389.92 373.114 1391.3 366.16Z"/>
</svg>
