<?xml version="1.0" encoding="utf-8" ?>
<svg xmlns="http://www.w3.org/2000/svg" xmlns:xlink="http://www.w3.org/1999/xlink" width="1536" height="1024">
	<path fill="white" d="M0 0L1534.69 0C1535.54 1.34434 1535.84 2.50848 1535.91 4.09208C1536.57 18.5072 1536 33.1619 1536 47.604L1536.01 132.471L1536.01 391.421L1536.01 865.91L1536 981.169C1536 989.131 1537.19 1015.2 1535.79 1021.39C1535.57 1022.35 1535.21 1023.17 1534.69 1024L0 1024L0 0Z"/>
	<path fill="#0F172A" d="M783.786 52.0315C788.126 51.9808 792.351 52.1541 796.568 53.2847C804.135 55.3133 811.109 59.7678 815.019 66.7077C819.081 73.9161 818.291 80.1275 816.145 87.7831C838.812 104.352 860.657 122.283 882.818 139.528C905.375 157.081 928.418 174.123 950.136 192.727C954.225 192.398 958.205 192.227 962.255 193.028C969.438 194.448 976.628 198.243 980.639 204.561C983.519 209.096 984.387 214.315 983.158 219.546C981.314 227.392 975.769 232.511 969.155 236.579C969.042 245.681 967.729 257.582 968.425 266.227C968.67 269.262 970.124 272.136 970.437 275.264C970.233 275.793 970.237 276.46 969.826 276.85C969.691 276.978 959.093 279.037 957.345 279.854C954.182 281.332 951.239 283.587 950.143 287.047C949.295 289.724 949.534 293.357 950.886 295.838C951.732 297.389 953.125 298.433 954.816 298.908C968.669 302.803 975.756 284.721 984.914 279.943C985.913 279.915 986.616 279.6 987.391 280.317C988.844 281.661 989.186 285.187 989.23 287.109C989.413 295.194 985.536 302.903 980.091 308.663C976.068 312.919 970.012 314.021 965.254 317.264C965.365 318.078 965.471 318.903 965.645 319.706C967.299 327.335 978.952 322.133 984.247 325.806C987.458 328.034 987.435 331.926 987.921 335.47C1014.74 337.02 1041.63 340.225 1068.44 342.371C1082.94 343.533 1097.68 345.356 1112.21 343.812C1115.44 345.524 1119.45 347.805 1120.62 351.474C1128.38 349.344 1134.72 347.721 1142.65 350.224C1150.83 344.537 1160.71 338.913 1167.97 332.154C1169.62 330.612 1168.74 328.384 1168.72 326.31C1168.71 324.738 1169.18 323.595 1170.32 322.513C1173.66 319.354 1179.23 316.656 1183.2 314.191C1195.29 306.688 1227.12 289.142 1236.09 279.904C1236.21 279.214 1236.31 278.646 1236.18 277.945C1234.87 270.493 1226.11 253.882 1219.79 249.787C1214.82 253.804 1177.05 266.937 1168.67 269.874C1163.14 271.813 1153.53 275.898 1147.92 273.202C1144.99 267.658 1134.86 240.462 1135.38 235.029C1137.3 232.625 1140.99 232.161 1143.68 230.718C1144.57 227.231 1140.68 218.614 1142.84 209.663Q1145.63 198.403 1149.53 187.479C1151.2 182.801 1157.95 169.499 1158.12 165.677C1158.13 165.348 1158.13 165.019 1158.13 164.69C1155.59 163.671 1153.13 163.629 1150.63 162.212C1149.82 160.305 1149.75 159.588 1150.45 157.576C1151.72 153.877 1155.24 150.25 1157.75 147.251C1169.03 133.757 1181.24 122.225 1197.37 114.676C1216.23 105.848 1242.79 105.661 1262.25 112.416C1285.28 120.41 1304.15 136.181 1314.73 158.308C1321.56 172.58 1325.92 190.005 1326.03 205.868C1326.04 207.6 1326.3 211.198 1325.48 212.744C1324.49 214.595 1322.68 215.49 1320.77 216.157C1317.37 217.348 1313.55 217.644 1310.01 218.391C1298.64 220.794 1286.08 222.723 1275.25 226.826C1275.04 227.26 1274.9 227.459 1274.8 227.906C1273.16 234.837 1283.8 257.379 1287.44 264.097C1296.22 262.654 1319.38 256.238 1326.73 259.413C1335.2 263.071 1346.05 287.57 1349.56 296.463C1356.23 313.368 1383.79 394.748 1377.8 408.507C1377.76 408.646 1377.73 408.79 1377.68 408.924C1375.52 414.083 1355.68 425.961 1350.21 428.402C1350.28 428.556 1350.35 428.705 1350.4 428.863C1351.6 432.714 1349.56 463.143 1347.9 466.822C1357.06 469.536 1364.57 474.911 1370.95 481.967C1386.33 498.983 1395.08 522.175 1393.71 545.12C1392.96 557.588 1388.56 573.643 1378.83 582.223C1379.32 583.04 1379.67 583.814 1379.88 584.738C1381 589.582 1380.68 595.446 1381.02 600.447C1382.25 618.995 1387.07 715.469 1380.46 726.067C1380.25 726.478 1380.18 726.681 1379.92 727.032C1375.88 732.504 1365.77 733.415 1359.64 734.054C1360.63 734.649 1361.55 735.309 1362.34 736.164C1364.7 738.722 1367.39 742.549 1367.26 746.153C1373.96 746.129 1383.78 744.838 1389.92 747.581C1403.47 753.636 1424.49 867.905 1427.53 888.776C1428.83 897.675 1427.85 906.669 1429.6 915.543C1430.82 921.702 1434.58 927.802 1436.75 933.744C1439.22 940.505 1444.49 956.63 1441.41 963.294C1449.05 963.291 1480.1 963.557 1485.97 965.064C1487.81 965.536 1488.5 965.813 1489.4 967.431L1488.78 969.255C1488.28 969.645 1487.85 970.164 1487.27 970.426C1485.68 971.136 1331.11 971.719 1313.06 971.519L334.227 972.173L205.464 971.789Q146.372 972.155 87.2853 971.231C79.31 971.128 54.7867 971.948 49.0975 969.856C47.8824 968.451 47.9117 968.579 48.0169 966.727C51.3215 963.461 77.7146 963.473 83.5111 963.158C83.3358 946.268 81.115 873.631 85.8985 864.016C90.5944 861.146 150.045 862.649 160.571 862.69L156.971 502.478L155.596 383.713L155.363 339.444C155.302 333.235 154.503 326.883 154.722 320.696C154.809 318.235 155.408 315.656 156.985 313.709C160.613 309.229 166.413 309.502 171.654 309.047L172.458 294.151C168.787 289.854 165.05 285.588 162.201 280.68C155.886 269.797 154.29 257.424 157.693 245.305C161.178 232.893 169.524 223.283 180.743 217.139C194.798 209.441 213.26 207.184 228.66 211.606C254.207 203.182 280.756 197.101 306.729 190.095L471.049 145.999C474.092 142.024 477.362 138.28 482.16 136.432C489.037 133.784 495.143 136.484 501.453 139.18C515.038 128.938 724.106 78.3935 755.889 71.1571C757.032 68.7641 758.519 66.3693 760.152 64.2822C766.305 56.4194 774.131 53.3083 783.786 52.0315Z"/>
	<path fill="white" d="M770.512 104.461C778.905 107.962 787.294 108.268 795.803 104.852C797.296 104.253 798.692 103.439 800.063 102.604C829.642 127.048 860.156 150.777 890.269 174.567C903.53 185.044 918.01 195.054 930.491 206.408C928.387 212.826 927.659 218.095 930.787 224.332C934.42 231.574 941.456 235.439 948.903 237.752Q949.602 237.968 950.307 238.166Q949.774 251.575 950.12 264.99C941.988 268.627 936.351 272.797 932.981 281.347C930.329 288.075 929.783 295.964 932.875 302.641C936.066 309.533 941.365 313.027 948.099 315.952C947.162 318.543 946.313 321.21 945.147 323.707C940.368 323.7 929.939 322.162 926.459 325.395C924.246 327.45 924.534 330.991 924.383 333.797C917.176 333.57 903.212 331.481 897.012 335.559C895.514 337.917 895.731 341.831 895.633 344.604C893.799 396.564 894.983 448.799 894.658 500.796L892.541 872.689L892.391 926.04C892.378 934.825 893.011 944.314 891.974 953.031L891.762 962.781C880.731 962.961 869.683 962.89 858.65 962.939L858.617 952.375C857.152 937.536 858.316 921.739 858.46 906.787Q858.793 869.717 858.707 832.645L860.353 546.284L860.949 484.617C861.083 472.753 862.671 458.901 860.073 447.299C855.791 442.872 828.281 443.379 820.964 443.112Q794.551 442.057 768.122 441.516C760.759 441.408 752.712 440.704 745.437 441.733C743.015 442.076 740.399 442.763 738.622 444.524C737.679 445.46 737.422 446.475 737.219 447.769C735.481 458.878 736.676 471.716 736.635 482.998L736.176 554.063L731.813 949.72C731.484 953.816 731.645 958.063 731.582 962.179L698.526 962.046Q697.108 943.703 697.669 925.313L696.654 658.065L696.221 588.975C696.155 575.571 697.125 561.124 695.111 547.887C690.797 544.579 642.447 544.39 634.12 544.543C624.075 543.546 575.838 542.161 570.183 544.996C569.012 548.488 568.557 551.99 568.355 555.659C567.178 576.98 568.337 599.001 568.444 620.385C568.509 633.49 567.198 650.602 569.165 663.187C568.274 739.406 571.01 815.645 569.372 891.866C570.943 915.174 570.107 939.204 569.817 962.571L538.478 962.525C538.361 957.511 538.539 952.284 537.795 947.323C539.202 914.112 536.679 880.283 536.379 847.026Q536.094 775.268 534.234 703.534C533.888 689.137 534.171 674.691 533.517 660.308C533.366 656.984 533.453 650.364 531.746 647.639C529.453 646.589 527.084 646.218 524.593 645.981C510.711 644.662 414.897 641.854 408.185 644.02C406.563 646.247 406.732 650.89 406.651 653.739C406.113 672.724 407.109 691.928 407.189 710.943Q408.492 803.933 408.857 896.931C410.848 914.118 409.782 944.504 408.982 962.516Q380.174 962.864 351.366 962.565C350.922 958.726 350.336 954.839 350.327 950.971Q350.174 926.198 350.323 901.426C350.41 892.932 351.549 883.375 350.481 875.027C350.125 872.242 349.168 869.331 347.148 867.307C345.125 865.281 342.412 864.441 339.637 864.091C331.978 863.125 323.507 864.084 315.743 864.115L266.165 864.075C264.821 812.608 265.583 760.961 265.485 709.47L264.791 486.883L264.541 370.915C264.38 353.455 264.945 335.375 263.811 317.964C263.625 315.112 263.278 312.499 262.045 309.89C258.708 306.817 253.937 307.339 249.706 307.304L249.547 290.191C259.15 280.299 264.573 269.182 264.288 255.097C264.214 251.482 263.974 247.723 263.317 244.171L625.856 143.981L725.715 116.813C740.493 112.793 756.125 109.648 770.512 104.461Z"/>
	<path fill="#B0C2D7" d="M408.857 896.931C410.848 914.118 409.782 944.504 408.982 962.516Q380.174 962.864 351.366 962.565C350.922 958.726 350.336 954.839 350.327 950.971C358.14 952.23 367.979 951.101 376.023 950.981Q392.323 950.79 408.617 951.248C408.594 933.233 407.862 914.907 408.857 896.931Z"/>
	<path fill="#B0C2D7" d="M569.372 891.866C570.943 915.174 570.107 939.204 569.817 962.571L538.478 962.525C538.361 957.511 538.539 952.284 537.795 947.323C537.983 947.576 538.138 947.856 538.358 948.081C540.681 950.459 564.738 948.974 569.304 948.918C569.592 929.976 568.008 910.763 569.372 891.866Z"/>
	<path fill="#B0C2D7" d="M697.669 925.313C699.109 933.073 698.321 941.777 698.407 949.698C705.034 949.971 726.883 952.336 731.813 949.72C731.484 953.816 731.645 958.063 731.582 962.179L698.526 962.046Q697.108 943.703 697.669 925.313Z"/>
	<path fill="#B0C2D7" d="M858.617 952.375Q875.294 952.797 891.974 953.031L891.762 962.781C880.731 962.961 869.683 962.89 858.65 962.939L858.617 952.375Z"/>
	<path fill="white" d="M1018.48 487.043Q1026.29 486.327 1034.04 485.081C1059.36 481.156 1084.58 475.793 1109.72 470.862C1121.39 468.574 1134.03 467.271 1145.38 463.91C1151.52 462.094 1178.48 450.423 1184.46 446.964C1189.72 443.913 1193.41 438.966 1198.34 435.509C1203.67 431.77 1211.54 427.991 1215.38 422.745C1225.52 431.525 1227.84 453.31 1238.69 460.832C1243.82 464.385 1248.83 462.759 1254.42 461.73C1254.56 461.854 1254.71 461.967 1254.84 462.101C1256.68 463.989 1273.71 495.005 1275.81 499.466C1276.37 500.641 1276.47 501.534 1276.41 502.827C1276.62 504.337 1269.75 519.731 1269.05 523.744C1267.68 531.624 1272.02 544.53 1270.39 549.894Q1262.25 549.684 1254.13 549.159C1254.17 552.952 1241.51 570.528 1238.76 574.736C1222.47 599.663 1205.7 624.227 1189.64 649.307C1185.36 655.983 1176.84 672.635 1172.74 677.195C1176.1 678.769 1179.15 680.641 1181.2 683.801C1180.84 686.239 1162.22 704.199 1158.99 712.313C1156.17 719.364 1157.35 726.522 1155.99 733.73C1155.95 733.934 1155.9 734.136 1155.86 734.34C1155.51 735.015 1155.71 734.779 1155.1 735.286C1153.44 736.649 1151.47 737.961 1150.09 739.609C1147.95 742.163 1149.45 747.264 1150.21 750.155C1153.64 763.213 1159.79 776.066 1164.89 788.596Q1184.92 836.569 1206.08 884.052C1208.97 890.697 1215.42 899.508 1215.97 906.574C1210.2 915.642 1167.38 930.628 1155.37 935.904C1149.47 938.496 1146.7 942.781 1144.39 948.49C1143.58 950.485 1142.98 950.326 1141.09 951.111C1142.33 954.661 1143.14 957.877 1141.55 961.46C1118.13 962.219 1093.98 962.657 1070.59 961.612C1055.97 962.946 1035.4 962.207 1020.62 961.159C1019.17 940.385 1019.94 919.224 1019.99 898.398L1019.75 807.892L1018.48 487.043Z"/>
	<path fill="#B0C2D7" d="M1070.59 961.612C1091.88 955.492 1118.89 953.736 1141.09 951.111C1142.33 954.661 1143.14 957.877 1141.55 961.46C1118.13 962.219 1093.98 962.657 1070.59 961.612Z"/>
	<path fill="#F99835" d="M910.221 341.183L962.118 342.169C976.925 342.496 992.624 342.41 1007.16 345.335C1007.38 383.806 1006.73 422.33 1007.61 460.79C1001.12 456.937 994.523 453.168 988.216 449.03C980.582 444.022 972.084 435.311 963.433 432.78L962.133 435.618Q962.3 442.16 962.149 448.702C965.495 452.106 971.739 456.406 974.072 460.397L976.472 461.663C976.898 463.923 977.47 465.409 976.692 467.649C975.703 468.254 974.726 468.893 973.694 469.421C968.302 471.331 963.021 473.51 957.651 475.468C955.323 476.166 953.995 475.763 951.748 474.956C948.643 475.675 947.399 477.071 945.671 479.669C943.637 480.438 941.66 480.284 939.522 480.256L937.954 480.376C932.671 477.351 930.256 475.219 923.83 475.928C922.04 478.487 919.44 481.41 920.142 484.751C920.558 486.73 922.347 488.7 923.663 490.19L925.188 491.69L932.967 498.898L933.402 499.379C934.839 500.989 935.957 502.579 937.041 504.439C938.446 505.125 939.274 505.213 940.795 505.258C943.224 504.869 945.228 504.674 947.698 504.957C949.8 504.981 951.754 504.861 953.833 504.542C957.097 502.845 961.273 502.422 964.885 501.726C967.435 502.073 970.585 501.043 973.11 500.537L985.762 496.612C993.575 493.993 1001.2 491.266 1008.73 487.913L1008.88 497.175C1008.89 504.656 1008.53 512.326 1008.97 519.783C1009.33 528.247 1009.32 536.664 1009.19 545.134C1009.06 566.864 1009.32 588.557 1009.48 610.285C1009.55 620.602 1010.35 631.592 1009.52 641.831Q1010 654.679 1009.77 667.533C1010.61 689.135 1010.21 710.882 1010.23 732.502L1010.29 838.784C1010.31 856.479 1010.02 874.325 1010.71 892.006Q1010.24 927.102 1010.27 962.199L983.982 962.16L956.253 962.209C938.03 962.473 919.777 962.322 901.551 962.354Q901.399 930.401 902.197 898.459L902.143 893.493L902.264 864.192L902.207 860.166L902.748 739.678L902.521 722.857L902.468 717.213L902.644 707.388C902.434 703.934 902.533 700.583 902.734 697.13C902.491 691.208 902.767 685.169 902.817 679.236L902.906 670.844L902.906 662.311L903.113 510.284L903.02 504.779L903.436 469.438L903.672 461.552L903.658 457.314L903.592 456.608C903.017 437.737 903.649 418.671 903.753 399.784L903.877 391.688C903.773 384.358 903.903 377.016 903.947 369.685C903.902 360.743 903.514 351.475 904.382 342.579C904.428 342.474 904.446 342.352 904.521 342.265C905.759 340.834 908.415 341.245 910.221 341.183Z"/>
	<path fill="#C66E2E" d="M1008.88 497.175C1008.89 504.656 1008.53 512.326 1008.97 519.783C990.171 521.601 973.943 526.09 954.747 523.988C956.641 517.65 961.317 512.596 962.996 506.347C965.254 505.12 968.275 505.172 970.798 504.602C974.412 503.952 978.299 504.229 982.005 503.701Q995.621 501.174 1008.88 497.175Z"/>
	<path fill="#FFC474" d="M974.072 460.397L976.472 461.663C976.898 463.923 977.47 465.409 976.692 467.649C975.703 468.254 974.726 468.893 973.694 469.421C972.745 465.898 972.625 463.823 974.072 460.397Z"/>
	<path fill="#F99835" d="M746.126 449.949C753.102 450.917 760.794 450.288 767.857 450.256L776.163 450.444C779.472 450.468 782.963 450.273 786.244 450.626C791.724 450.018 797.843 450.719 803.382 450.922C819.829 451 836.257 452.339 852.698 452.396C852.892 478.209 851.952 504.031 851.664 529.844C851.548 540.217 850.749 551.09 851.508 561.42Q849.708 671.615 849.529 781.827L848.928 856.519C848.923 867.025 848.129 878.286 849.104 888.719C848.525 912.833 849.695 937.064 848.663 961.141C812.991 961.065 777.281 960.649 741.613 960.971C741.641 955.084 741.491 949.128 741.758 943.251C741.428 939.022 741.681 934.609 741.679 930.358L744.203 713.519L744.043 711.907C744.372 708.692 744.437 705.417 744.606 702.187L744.723 693.043L744.717 673.794Q744.699 641.477 745.43 609.168L745.612 591.677C745.496 580.127 745.178 568.448 746.199 556.933L746.207 527.536L746.269 489.546L746.126 449.949Z"/>
	<path fill="#F99835" d="M577.478 572.698C577.635 566.921 575.371 557.918 578.631 553.072C581.491 551.614 583.707 552.102 586.885 552.197C592.4 552.223 597.966 552.093 603.475 552.285C626.65 552.073 649.83 553.022 673.008 553.084L676.621 553.083C680.236 553.381 683.827 553.712 687.457 553.644C687.482 557.972 687.701 562.394 687.419 566.71L687.612 589.443L687.66 623.484C687.672 637.386 687.919 651.328 687.687 665.226L687.633 672.113L687.589 676.451C687.596 683.438 688.043 690.831 687.074 697.742L687.273 698.538L687.271 700.375L687.292 707.052L687.36 725.392Q687.657 749.463 687.696 773.535C687.728 781.514 687.315 789.73 687.954 797.662L687.781 801.851L687.829 816.144C688 821.521 688.406 827.003 688.161 832.375L688.08 885.245C688.046 893.717 687.466 902.435 687.936 910.876L687.886 913.905Q687.924 937.664 688.228 961.421L625.774 960.804L620.739 960.892Q600.205 960.823 579.673 961.087C578.624 952.358 579.177 943.114 579.157 934.299Q578.965 907.441 579.428 880.587C579.541 865.468 577.954 849.332 579.48 834.359L579.417 816.497L579.129 808.225C580.519 789.504 578.788 769.87 579.024 751.023L578.881 747.818Q578.851 737.911 578.925 728.005L578.789 718.551L578.431 710.753C578.105 699.522 578.273 688.228 578.217 676.99C578.146 673.841 578.212 670.677 578.218 667.527L578.033 657.54L577.848 643.587L577.799 633.137C577.189 613.042 577.638 592.81 577.478 572.698Z"/>
	<path fill="#F99835" d="M415.74 651.91C420.785 651.921 425.84 652.128 430.885 652.258C435.232 652.293 439.562 652.346 443.904 652.599C450.965 652.677 458.112 652.529 465.16 652.912C478.12 653.305 491.149 653.352 504.091 654.071C510.156 654.094 517.204 653.456 523.103 654.961C525.719 662.76 525.017 712.55 525.216 724.169C525.825 759.749 527.929 796.003 526.469 831.537C526.483 833.546 526.621 835.633 526.469 837.634Q527.532 863.055 527.215 888.496L527.281 900.335L528.148 961.26L492.887 961.115L485.148 961.028C476.219 961.413 467.158 961.114 458.214 961.132L441.553 961.138C435.492 961.337 423.858 963.331 418.856 960.178L418.298 957.493C418.672 954.416 418.452 951.085 418.465 947.976L418.411 920.33L418.391 909.606L418.42 903.676L418.517 902.094L418.328 888.849C418.217 870.524 417.448 852.197 417.836 833.872C417.664 827.847 417.738 821.793 417.696 815.764L417.707 792.404L417.859 754.248L417.701 741.237L416.473 685.406C416.392 674.254 416.557 663.036 415.74 651.91Z"/>
	<path fill="white" d="M1296.38 683.791C1297.25 684.063 1297.21 683.867 1297.64 684.527C1299.75 687.772 1310.78 728.568 1310.4 730.979C1316.51 732.567 1322.58 734.693 1328.61 736.561L1328.64 736.793L1328.2 737.287C1327.99 737.528 1327.71 737.869 1327.48 738.08C1324.24 740.969 1324.58 743.939 1323.34 747.82C1322.21 751.366 1314.19 754.513 1310.89 756.276C1311.32 756.694 1311.7 757.078 1312.05 757.567C1315.5 762.341 1318.58 776.958 1320.76 783.17C1325.87 797.7 1365.22 904.081 1364.44 908.916C1362.29 910.941 1359.65 912.304 1357.51 914.48C1353.23 918.832 1349.82 924.385 1345.05 928.174C1338.36 931.437 1330.07 932.907 1322.89 934.953Q1310.5 938.536 1298.46 943.158C1297.65 944.138 1297.73 943.916 1296.57 944.108C1294.43 940.407 1293.99 932.282 1292.38 927.655C1289.8 920.282 1284.78 913.287 1282.9 905.824C1283.58 904.695 1284.47 903.401 1284.8 902.118C1287.41 892.159 1251.17 749.564 1245.64 740.953C1241 738.476 1230.69 741.807 1225.41 742.305C1225.8 741.675 1226.13 741.056 1226.42 740.369C1228.31 735.903 1228.47 727.705 1226.53 723.217C1231.21 725.089 1235.13 730.423 1240.47 730.155C1249.69 724.881 1289.35 692.434 1296.38 683.791Z"/>
	<path fill="white" d="M1299.47 270.742L1299.13 269.76C1305.87 267.019 1315.84 266.784 1323.19 266.244C1341.36 278.355 1361.47 359.092 1366.18 382.475C1367.17 387.402 1370.73 400.727 1368.53 405.171C1365.07 413.852 1318.55 434.761 1308.19 439.208C1291.86 446.218 1274.73 452.641 1256.79 453.641C1253.91 454.494 1249.33 455.187 1246.39 454.561C1235.22 452.184 1234.92 434.401 1230.56 426.496C1229.52 424.604 1226 423.478 1224.75 421.368C1223.97 420.044 1224.29 419.447 1224.58 418.035C1226.63 417.915 1227.23 419.945 1229.47 419.725C1229.94 419.299 1230.2 418.984 1230.37 418.357C1231.11 415.575 1231.31 413.623 1233.5 411.502L1234.27 411.766L1234.29 413.979C1237.69 415.066 1241.16 415.976 1244.6 416.958C1244.76 416.881 1244.92 416.816 1245.08 416.727C1251.12 413.221 1259.15 402.134 1264.07 396.741C1276.53 383.064 1309.52 350.593 1313.94 333.925C1313.39 330.98 1312.01 330.249 1309.73 328.37C1312.53 325.881 1315.51 324.189 1317.58 320.938C1321.1 315.388 1320.78 308.696 1319.27 302.543C1318.73 300.367 1318.14 298.357 1316.15 297.138L1315.33 297.852C1315.2 300.422 1316.39 301.798 1317.13 304.086C1319.11 310.21 1317.01 316.668 1314.51 322.259C1315.9 312.833 1317.58 302.899 1312.27 294.285C1308.98 288.939 1302.88 284.985 1296.8 283.627C1290.92 282.315 1285.01 283.207 1279.55 285.633C1261.78 293.526 1237.55 320.393 1223.01 334.524C1218.94 338.481 1214.57 343.685 1209.72 346.594C1209.54 346.701 1209.36 346.799 1209.18 346.901C1209.4 346.466 1209.5 346.294 1209.7 345.804C1211.37 341.761 1211.41 332.353 1209.69 328.443C1214 326.385 1218.25 323.394 1222.34 320.906C1229.82 316.359 1237.31 311.822 1244.39 306.664C1256.72 297.68 1268.33 287.836 1281.19 279.573C1285.59 276.752 1291.22 272.357 1296.63 273.528C1297.6 271.911 1297.7 271.612 1299.47 270.742Z"/>
	<path fill="#0F172A" d="M1349.43 378.16C1351.41 380.978 1350.12 383.301 1351.07 386.223C1351.65 388.018 1353.8 389.145 1354.76 390.76C1356.82 394.208 1357.97 405.817 1357.39 409.903L1356.6 410.572C1351.96 404.488 1355.62 394.729 1350.04 388.698C1345.75 399.12 1321.34 411.114 1310.97 415.418C1295.01 422.044 1277.18 427.217 1260.45 431.548C1254.2 433.165 1247.38 433.682 1241.36 435.977C1241.26 437.22 1241.36 438.306 1241.49 439.539L1239.55 441.228C1239.43 438.64 1236.77 435.8 1236.21 432.93C1252.49 432.743 1273.68 424.613 1289.29 419.699C1303.78 415.136 1339.13 402.255 1345.91 387.877C1347.07 385.402 1346.8 383.611 1345.92 381.11C1347.32 380.914 1348.18 380.815 1349.39 380.017L1349.43 378.16Z"/>
	<path fill="#000007" d="M1299.47 270.742C1308.2 272.04 1314.64 276.261 1319.85 283.356C1322.69 287.222 1327.66 295.636 1327.3 300.446C1327.28 300.635 1327.23 300.817 1327.19 301.003C1331.9 307.621 1350.44 369.876 1349.55 376.472L1349.43 378.16L1349.39 380.017C1348.18 380.815 1347.32 380.914 1345.92 381.11C1346 380.874 1346.09 380.64 1346.16 380.402C1349.48 369.246 1326.31 300.288 1318.76 287.6C1316.32 283.507 1313.38 279.481 1308.54 278.283C1308.46 278.126 1308.41 277.953 1308.3 277.812C1307.02 276.1 1304.39 275.846 1302.44 275.412C1300.8 273.97 1298.72 273.881 1296.63 273.528C1297.6 271.911 1297.7 271.612 1299.47 270.742Z"/>
	<path fill="white" d="M1197.31 122.272C1221.87 113.056 1242.2 110.63 1266.73 121.608C1288.38 131.298 1304.03 148.829 1312.26 171.019C1312.81 172.503 1313.6 174.145 1313.16 175.725L1301.31 177.695C1302.26 172.511 1295.41 162.337 1292.45 158.066C1281.89 142.843 1264.78 129.634 1246.35 126.329C1242.96 125.721 1232.11 126.384 1231.04 125.955L1232.77 125.714L1231.5 126.296C1238.49 127.86 1245.87 127.65 1252.76 129.418C1268.88 133.555 1284.22 147.853 1293.11 161.552C1296.13 166.204 1298.4 171.563 1300.81 176.552L1300.3 177.693C1298.63 178.101 1298.41 178.306 1296.77 177.613C1293.61 172.588 1291.28 167.24 1288.36 162.1C1280.44 148.144 1268.67 140.408 1254.47 133.944C1269.63 142.54 1289.47 158.624 1294.46 176.053C1294.73 176.981 1294.77 177.883 1294.59 178.824C1289.03 179.955 1283.82 181.226 1278.48 183.198C1281.63 191.331 1278.15 206.22 1274.74 213.775C1273.67 216.146 1272.54 218.395 1270.59 220.169L1268.82 220.586L1268.25 219.977C1269.55 217.24 1271.87 215.501 1273.28 212.897C1277.16 205.742 1278.81 193.259 1276.21 185.468C1275.38 182.969 1274.59 181.903 1272.5 180.36C1275.01 184.373 1275.01 191.286 1274.94 195.98C1274.86 201.837 1274.13 210.187 1269.7 214.468C1268.69 215.447 1268.02 216.296 1267.27 217.485C1267.52 218.967 1267.81 220.014 1267.11 221.427C1260.62 225.207 1252.38 227.192 1245.4 230.157C1216.73 242.345 1182.3 259.884 1152.15 265.992C1152.32 265.299 1152.48 264.576 1152.43 263.859C1152.14 259.085 1145.37 241.501 1142.26 238.447C1147.95 236.599 1153.39 233.909 1159.03 231.904C1167.85 228.773 1178.03 226.423 1186.2 221.925C1186.58 221.42 1186.66 221.362 1186.94 220.689C1189.64 214.32 1190.34 205.42 1192.08 198.565C1194.18 190.307 1197.5 181.811 1198.92 173.459C1199.12 172.288 1198.91 171.222 1198.5 170.129C1195.73 168.109 1166.99 160.383 1159.6 157.263C1164.01 154.286 1171.4 142.588 1176.21 137.859C1181.46 132.701 1188.1 128.842 1193.91 124.329C1194.07 124.412 1194.23 124.485 1194.38 124.58C1200.48 128.483 1227.03 160.829 1227.91 165.72C1226.34 168.131 1221.26 170.847 1218.75 172.623C1217.02 175.322 1215.71 174.792 1214.9 175.792C1213.87 177.083 1208.64 191.063 1208.82 192.303L1209.32 192.254L1210.51 189.927C1211.51 194.648 1211.55 199.892 1213.27 204.386C1215.55 210.347 1221.84 212.664 1223.92 217.739C1222.86 218.154 1222.65 218.082 1221.52 217.879C1222.27 219.256 1222.41 219.492 1223.75 220.291C1224.81 219.224 1225.32 218.291 1225.92 216.95C1226.68 219.194 1224.69 220.805 1227.15 221.917C1231.95 224.09 1241.34 223.008 1246.07 220.971Q1246.65 220.721 1247.21 220.443L1248.18 220.459C1251.62 220.526 1255.63 218.423 1258.4 216.467C1265.1 211.731 1270.3 203.566 1271.61 195.456C1272.55 189.716 1271.65 183.226 1268.2 178.425L1266.82 176.358C1266.8 176.227 1266.8 176.092 1266.77 175.964C1266.18 173.598 1263.3 171.247 1261.4 169.85C1253.41 163.99 1242.46 163.064 1233 164.508C1228.09 156.294 1204.58 126.484 1197.31 122.272Z"/>
	<path fill="#000007" d="M1190.17 223.16C1191.57 223.155 1192.23 223.224 1193.42 224.015C1196.37 225.988 1201.25 227.526 1203.46 230.297C1204.38 231.441 1204.09 231.974 1203.9 233.317L1201.67 234.881L1200.25 235.079L1199.4 233.851L1200.5 230.421L1190.17 223.16Z"/>
	<path fill="white" d="M1350.85 477.49C1353.43 477.595 1355.25 478.735 1357.34 480.136C1370.85 489.178 1381.54 511.893 1384.44 527.547C1387.34 543.204 1384.69 560.087 1375.51 573.273C1368.6 583.207 1359.03 590.813 1346.91 592.907C1340.45 594.022 1331.71 594.145 1326.2 590.278C1328.6 591.052 1331.15 592.237 1333.68 591.745L1334.06 590.497C1331.81 588.541 1323.9 587.415 1320.67 586.971L1319.51 588.834L1318.5 588.888L1317.78 587.886L1319.1 587C1319 586.886 1318.9 586.768 1318.79 586.656C1317.01 584.758 1313.75 582.742 1311.09 582.673L1312.28 584.912L1309.78 584.735L1309.06 583.384L1310.19 581.793C1307.35 577.11 1302.42 578.746 1298.83 575.669C1297.75 574.736 1296.66 573.781 1295.61 572.814C1284.8 562.937 1277.3 546.873 1276.7 532.22C1276.36 524.133 1279.86 511.447 1285.5 505.57C1286.02 505.03 1286.48 505.225 1287.2 505.205C1288.35 511.034 1281.3 517.615 1281.93 523.416L1282.97 523.574C1286.67 518.887 1285.68 512.471 1290.67 508.13C1296.65 502.923 1338.21 503.552 1348.04 490.433C1350.62 486.98 1351.37 481.695 1350.85 477.49Z"/>
	<path fill="#0F172A" d="M1325.61 506.748C1325.91 506.706 1326.21 506.662 1326.51 506.624C1336.66 505.34 1346.12 507.332 1354.23 513.744C1361.54 519.529 1365.78 527.916 1366.73 537.135Q1366.83 538.011 1366.88 538.89Q1366.93 539.769 1366.94 540.65Q1366.94 541.53 1366.91 542.41Q1366.87 543.29 1366.79 544.167Q1366.71 545.044 1366.59 545.916Q1366.46 546.788 1366.3 547.653Q1366.13 548.518 1365.92 549.373Q1365.71 550.229 1365.46 551.073Q1365.21 551.916 1364.91 552.747Q1364.62 553.577 1364.29 554.392Q1363.95 555.206 1363.58 556.003Q1363.2 556.8 1362.79 557.577Q1362.37 558.355 1361.92 559.11Q1361.47 559.866 1360.98 560.598Q1360.49 561.33 1359.96 562.037Q1359.44 562.744 1358.88 563.424C1352.29 571.515 1343.2 576.032 1332.9 577.018C1328.21 578.516 1320.65 577.247 1316.14 575.457C1307.54 572.045 1300.03 564.12 1296.55 555.614C1293.09 547.158 1293.5 537.845 1297.16 529.533C1302.84 516.658 1313.2 511.606 1325.61 506.748Z"/>
	<path fill="white" d="M1326.75 525.471Q1327.28 525.315 1327.82 525.194Q1328.35 525.073 1328.9 524.988Q1329.44 524.903 1329.99 524.854Q1330.54 524.806 1331.09 524.794Q1331.65 524.782 1332.2 524.806Q1332.75 524.831 1333.29 524.892Q1333.84 524.953 1334.39 525.051Q1334.93 525.148 1335.46 525.281Q1336 525.414 1336.52 525.583Q1337.05 525.751 1337.56 525.954Q1338.07 526.157 1338.57 526.394Q1339.07 526.63 1339.55 526.899Q1340.03 527.168 1340.49 527.469Q1340.96 527.769 1341.4 528.099Q1341.84 528.43 1342.26 528.789Q1342.68 529.148 1343.07 529.534Q1343.46 529.92 1343.83 530.331Q1344.2 530.742 1344.54 531.177Q1344.88 531.612 1345.19 532.068Q1345.5 532.524 1345.77 533Q1346.05 533.476 1346.3 533.969Q1346.54 534.462 1346.76 534.97Q1346.97 535.479 1347.15 536Q1347.33 536.522 1347.47 537.054Q1347.62 537.586 1347.73 538.127Q1347.83 538.667 1347.91 539.214Q1347.98 539.761 1348.01 540.311Q1348.05 540.861 1348.05 541.412Q1348.05 541.964 1348.01 542.514Q1347.97 543.064 1347.9 543.61Q1347.83 544.157 1347.72 544.697Q1347.61 545.237 1347.46 545.769Q1347.31 546.301 1347.13 546.822Q1346.95 547.343 1346.74 547.851Q1346.52 548.359 1346.28 548.852Q1346.03 549.344 1345.75 549.819Q1345.47 550.294 1345.16 550.75Q1344.85 551.205 1344.5 551.639Q1344.16 552.073 1343.8 552.483Q1343.43 552.893 1343.03 553.278Q1342.64 553.662 1342.22 554.02Q1341.8 554.378 1341.35 554.707Q1340.91 555.036 1340.45 555.335Q1339.99 555.634 1339.5 555.901Q1339.02 556.169 1338.52 556.404Q1338.02 556.639 1337.51 556.84Q1337 557.041 1336.47 557.208Q1335.95 557.375 1335.41 557.506Q1335.02 557.602 1334.63 557.678Q1334.23 557.755 1333.84 557.812Q1333.44 557.87 1333.04 557.908Q1332.64 557.946 1332.24 557.965Q1331.84 557.984 1331.44 557.984Q1331.04 557.983 1330.64 557.964Q1330.23 557.944 1329.84 557.904Q1329.44 557.865 1329.04 557.807Q1328.64 557.748 1328.25 557.671Q1327.86 557.593 1327.47 557.497Q1327.08 557.4 1326.69 557.285Q1326.31 557.17 1325.93 557.036Q1325.55 556.902 1325.18 556.75Q1324.81 556.599 1324.45 556.429Q1324.08 556.259 1323.73 556.073Q1323.37 555.885 1323.03 555.682Q1322.68 555.478 1322.35 555.257Q1322.01 555.037 1321.69 554.801Q1321.36 554.564 1321.05 554.313Q1320.74 554.061 1320.44 553.794Q1320.14 553.528 1319.85 553.247Q1319.56 552.966 1319.29 552.672Q1319.02 552.378 1318.76 552.071Q1318.5 551.764 1318.26 551.445Q1318.01 551.125 1317.79 550.795Q1317.56 550.464 1317.35 550.123Q1317.14 549.782 1316.94 549.431Q1316.75 549.08 1316.57 548.72Q1316.39 548.36 1316.23 547.992Q1316.07 547.624 1315.93 547.248Q1315.79 546.873 1315.67 546.491Q1315.54 546.109 1315.44 545.722Q1315.34 545.335 1315.25 544.943Q1315.16 544.55 1315.1 544.155Q1315.03 543.759 1314.98 543.36Q1314.93 542.962 1314.91 542.562Q1314.88 542.161 1314.87 541.76Q1314.86 541.359 1314.87 540.957Q1314.88 540.556 1314.91 540.156Q1314.94 539.755 1314.99 539.357Q1315.04 538.959 1315.11 538.563Q1315.17 538.168 1315.26 537.776Q1315.35 537.384 1315.45 536.997Q1315.56 536.61 1315.69 536.228Q1315.81 535.847 1315.95 535.472Q1316.1 535.097 1316.26 534.729Q1316.42 534.362 1316.6 534.002Q1316.78 533.643 1316.97 533.292Q1317.17 532.942 1317.38 532.601Q1317.59 532.261 1317.82 531.931Q1318.05 531.601 1318.29 531.283Q1318.54 530.964 1318.8 530.658Q1319.06 530.352 1319.33 530.058Q1319.6 529.765 1319.89 529.485Q1320.18 529.205 1320.48 528.94Q1320.78 528.674 1321.09 528.424Q1321.41 528.173 1321.73 527.938Q1322.06 527.703 1322.39 527.483Q1322.73 527.264 1323.08 527.061Q1323.42 526.859 1323.78 526.673Q1324.14 526.487 1324.5 526.319Q1324.86 526.151 1325.24 526Q1325.61 525.85 1325.99 525.717Q1326.37 525.585 1326.75 525.471Z"/>
	<path fill="#0F172A" d="M1328.67 531.415Q1328.92 531.333 1329.18 531.263Q1329.43 531.194 1329.69 531.137Q1329.95 531.079 1330.21 531.035Q1330.47 530.991 1330.73 530.959Q1330.99 530.927 1331.25 530.908Q1331.52 530.89 1331.78 530.884Q1332.04 530.878 1332.31 530.885Q1332.57 530.892 1332.83 530.911Q1333.1 530.931 1333.36 530.964Q1333.62 530.997 1333.88 531.042Q1334.14 531.088 1334.4 531.146Q1334.66 531.204 1334.91 531.274Q1335.16 531.345 1335.42 531.428Q1335.67 531.511 1335.91 531.606Q1336.16 531.701 1336.4 531.808Q1336.64 531.916 1336.88 532.034Q1337.11 532.153 1337.34 532.283Q1337.57 532.413 1337.79 532.554Q1338.02 532.695 1338.23 532.847Q1338.45 532.999 1338.66 533.162Q1338.87 533.324 1339.07 533.496Q1339.27 533.668 1339.46 533.85Q1339.65 534.032 1339.83 534.223Q1340.01 534.414 1340.18 534.614Q1340.36 534.813 1340.52 535.021Q1340.68 535.229 1340.84 535.445Q1340.99 535.66 1341.13 535.883Q1341.27 536.106 1341.4 536.335Q1341.53 536.564 1341.65 536.8Q1341.77 537.035 1341.88 537.276Q1341.99 537.518 1342.08 537.764Q1342.18 538.01 1342.26 538.26Q1342.34 538.51 1342.41 538.765Q1342.49 539.019 1342.54 539.276Q1342.6 539.533 1342.65 539.793Q1342.7 540.053 1342.73 540.315Q1342.76 540.577 1342.78 540.84Q1342.8 541.103 1342.81 541.367Q1342.82 541.631 1342.81 541.895Q1342.81 542.159 1342.79 542.422Q1342.77 542.685 1342.74 542.948Q1342.71 543.21 1342.66 543.47Q1342.62 543.73 1342.56 543.988Q1342.51 544.246 1342.44 544.501Q1342.37 544.755 1342.29 545.006Q1342.21 545.257 1342.11 545.504Q1342.02 545.751 1341.91 545.993Q1341.81 546.235 1341.69 546.471Q1341.57 546.708 1341.44 546.938Q1341.32 547.169 1341.18 547.393Q1341.04 547.617 1340.89 547.833Q1340.74 548.05 1340.57 548.259Q1340.41 548.468 1340.24 548.669Q1340.07 548.871 1339.89 549.063Q1339.71 549.255 1339.52 549.439Q1339.33 549.622 1339.13 549.796Q1338.93 549.97 1338.73 550.134Q1338.52 550.298 1338.31 550.452Q1338.09 550.605 1337.87 550.748Q1337.65 550.891 1337.42 551.023Q1337.19 551.155 1336.96 551.276Q1336.72 551.397 1336.48 551.506Q1336.24 551.615 1336 551.712Q1335.75 551.809 1335.5 551.894Q1335.25 551.98 1334.99 552.053Q1334.74 552.127 1334.48 552.187Q1334.22 552.248 1333.96 552.296Q1333.7 552.344 1333.43 552.378Q1333.17 552.413 1332.9 552.435Q1332.64 552.457 1332.37 552.466Q1332.11 552.474 1331.84 552.47Q1331.57 552.466 1331.31 552.448Q1331.04 552.431 1330.78 552.4Q1330.51 552.37 1330.25 552.326Q1329.99 552.282 1329.73 552.226Q1329.47 552.17 1329.21 552.1Q1328.96 552.031 1328.7 551.95Q1328.45 551.868 1328.2 551.774Q1327.95 551.68 1327.71 551.573Q1327.46 551.467 1327.22 551.349Q1326.99 551.231 1326.75 551.101Q1326.52 550.971 1326.3 550.83Q1326.07 550.689 1325.85 550.537Q1325.63 550.385 1325.42 550.222Q1325.21 550.06 1325.01 549.887Q1324.81 549.714 1324.61 549.531Q1324.42 549.349 1324.24 549.157Q1324.05 548.965 1323.88 548.764Q1323.7 548.564 1323.54 548.355Q1323.37 548.146 1323.22 547.929Q1323.07 547.712 1322.92 547.487Q1322.78 547.263 1322.65 547.032Q1322.52 546.801 1322.39 546.564Q1322.27 546.326 1322.17 546.083Q1322.06 545.84 1321.96 545.592Q1321.86 545.344 1321.78 545.092Q1321.7 544.84 1321.62 544.583Q1321.55 544.327 1321.49 544.068Q1321.43 543.808 1321.39 543.546Q1321.34 543.284 1321.31 543.02Q1321.28 542.756 1321.26 542.491Q1321.24 542.225 1321.23 541.959Q1321.22 541.693 1321.23 541.427Q1321.23 541.161 1321.25 540.896Q1321.27 540.63 1321.31 540.366Q1321.34 540.102 1321.38 539.84Q1321.43 539.578 1321.49 539.318Q1321.54 539.058 1321.62 538.802Q1321.69 538.545 1321.77 538.293Q1321.85 538.04 1321.95 537.792Q1322.04 537.544 1322.15 537.3Q1322.26 537.057 1322.38 536.82Q1322.5 536.582 1322.63 536.35Q1322.76 536.119 1322.9 535.894Q1323.05 535.67 1323.2 535.452Q1323.35 535.235 1323.52 535.025Q1323.68 534.816 1323.86 534.614Q1324.03 534.413 1324.21 534.221Q1324.4 534.028 1324.59 533.845Q1324.78 533.662 1324.99 533.489Q1325.19 533.315 1325.4 533.152Q1325.61 532.989 1325.83 532.836Q1326.04 532.684 1326.27 532.542Q1326.49 532.4 1326.73 532.27Q1326.96 532.139 1327.19 532.02Q1327.43 531.901 1327.68 531.794Q1327.92 531.687 1328.17 531.592Q1328.42 531.498 1328.67 531.415Z"/>
	<path fill="white" d="M1376.18 753.907C1379.33 753.57 1382.32 753.346 1385.49 753.498C1389.24 757.352 1395.44 777.96 1395.53 783.719C1395.54 784.82 1395.23 785.9 1394.81 786.905C1395.6 788.706 1396.35 790.39 1396.77 792.317C1398.2 793.122 1398.19 793.738 1398.63 795.319C1401.1 804.15 1417.96 875.096 1416.26 880.838C1417.43 883.059 1417.94 883.742 1417.84 886.205C1416.4 888.264 1413.62 889.034 1411.22 889.468C1410.95 889.517 1410.68 889.555 1410.4 889.599C1410.17 889.833 1409.98 890.105 1409.72 890.302C1406.42 892.787 1397.41 892.217 1393.3 892.223C1393.34 891.912 1393.42 891.423 1393.41 891.085C1393.31 886.438 1389.68 873.941 1386.65 870.63C1388.12 876.545 1389.62 889.754 1395.13 893.117C1397.05 894.294 1400.53 894.084 1402.75 894.169C1404.82 892.925 1405.12 893.038 1407.55 893.263L1408.32 894.014C1405.03 895.192 1397.92 896.312 1394.78 894.989C1392.27 893.93 1390.9 891.464 1390.03 889.015C1388.29 884.137 1388.27 877.166 1385.39 872.973L1383.91 873.142C1383.98 873.273 1384.06 873.402 1384.13 873.534C1387.22 879.513 1387.44 894.108 1394.32 896.315C1399 897.814 1406.01 896.012 1410.71 894.899C1413.43 894.014 1416.06 893.19 1418.57 891.777C1420.16 894.447 1420.8 901.143 1420 904.218C1419.85 904.769 1419.77 904.918 1419.54 905.491C1409.59 910.567 1389.08 914.414 1378.34 910.849C1376.81 910.341 1375.83 909.589 1374.71 908.463C1374.54 908.285 1374.36 908.114 1374.18 907.934C1374.08 907.826 1373.98 907.711 1373.88 907.599C1373.9 907.329 1373.95 906.781 1373.92 906.476C1373.41 901.709 1367.81 890.2 1365.97 884.842C1352.45 845.505 1339.14 805.628 1323.89 766.938C1323.32 765.504 1322.73 764.56 1321.5 763.611L1321.35 763.968C1320.45 761.615 1319.87 759.762 1321.04 757.278C1321.66 755.959 1322.28 755.776 1323.5 755.111L1324.76 755.401C1327.24 760.794 1329.58 768.72 1335.75 770.917C1341.35 772.906 1355.33 770.066 1360.49 767.541C1360.94 767.321 1361.41 767.128 1361.86 766.922L1362.85 766.47L1363.49 766.733C1369.69 764.349 1368.77 758.919 1372.36 754.78C1373.35 753.638 1374.78 753.964 1376.18 753.907Z"/>
	<path fill="white" d="M1376.18 753.907C1379.33 753.57 1382.32 753.346 1385.49 753.498C1389.24 757.352 1395.44 777.96 1395.53 783.719C1395.54 784.82 1395.23 785.9 1394.81 786.905C1395.6 788.706 1396.35 790.39 1396.77 792.317C1398.2 793.122 1398.19 793.738 1398.63 795.319C1401.1 804.15 1417.96 875.096 1416.26 880.838C1417.43 883.059 1417.94 883.742 1417.84 886.205C1416.4 888.264 1413.62 889.034 1411.22 889.468C1410.95 889.517 1410.68 889.555 1410.4 889.599C1410.17 889.833 1409.98 890.105 1409.72 890.302C1406.42 892.787 1397.41 892.217 1393.3 892.223C1393.34 891.912 1393.42 891.423 1393.41 891.085C1393.31 886.438 1389.68 873.941 1386.65 870.63C1388.1 865.655 1368.48 800.569 1365.65 790.314C1364.16 784.875 1360.02 774.856 1360.9 769.491C1361.93 768.84 1362.64 768.512 1363.22 767.395C1363.33 767.184 1363.4 766.954 1363.49 766.733C1369.69 764.349 1368.77 758.919 1372.36 754.78C1373.35 753.638 1374.78 753.964 1376.18 753.907Z"/>
	<path fill="#B0C2D7" d="M1396.77 792.317C1398.2 793.122 1398.19 793.738 1398.63 795.319C1401.1 804.15 1417.96 875.096 1416.26 880.838C1417.43 883.059 1417.94 883.742 1417.84 886.205C1416.4 888.264 1413.62 889.034 1411.22 889.468C1410.95 889.517 1410.68 889.555 1410.4 889.599C1410.59 889.159 1410.8 888.753 1410.89 888.28C1411.42 885.288 1407.82 870.502 1406.23 867.829C1407.71 863.662 1395.31 809.775 1392.11 803.178C1391.7 802.32 1390.34 802.144 1389.45 801.83C1391.98 801.36 1394.66 800.225 1396.08 797.954C1397.23 796.115 1397.12 794.366 1396.77 792.317Z"/>
	<path fill="#000007" d="M1384.92 781.681C1388.04 781.749 1391.23 781.889 1393.52 784.347C1394.26 785.144 1394.64 785.815 1394.81 786.905C1395.6 788.706 1396.35 790.39 1396.77 792.317C1397.12 794.366 1397.23 796.115 1396.08 797.954C1394.66 800.225 1391.98 801.36 1389.45 801.83C1386.97 801.932 1384.45 801.271 1382.44 799.759C1380.6 798.381 1379.68 796.321 1379.55 794.061C1379.24 788.637 1381.35 785.509 1384.92 781.681Z"/>
	<path fill="#B0C2D7" d="M1376.18 753.907C1379.33 753.57 1382.32 753.346 1385.49 753.498C1389.24 757.352 1395.44 777.96 1395.53 783.719C1395.54 784.82 1395.23 785.9 1394.81 786.905C1394.64 785.815 1394.26 785.144 1393.52 784.347C1391.23 781.889 1388.04 781.749 1384.92 781.681C1385.63 780.302 1385.84 779.402 1385.61 777.846C1384.7 771.633 1381.12 757.477 1376.18 753.907Z"/>
	<path fill="#000007" d="M1321.5 763.611L1321.35 763.968C1320.45 761.615 1319.87 759.762 1321.04 757.278C1321.66 755.959 1322.28 755.776 1323.5 755.111L1324.76 755.401C1327.24 760.794 1329.58 768.72 1335.75 770.917C1341.35 772.906 1355.33 770.066 1360.49 767.541C1360.94 767.321 1361.41 767.128 1361.86 766.922L1362.85 766.47L1363.49 766.733C1363.4 766.954 1363.33 767.184 1363.22 767.395C1362.64 768.512 1361.93 768.84 1360.9 769.491C1360.02 774.856 1364.16 784.875 1365.65 790.314C1368.48 800.569 1388.1 865.655 1386.65 870.63C1388.12 876.545 1389.62 889.754 1395.13 893.117C1397.05 894.294 1400.53 894.084 1402.75 894.169C1404.82 892.925 1405.12 893.038 1407.55 893.263L1408.32 894.014C1405.03 895.192 1397.92 896.312 1394.78 894.989C1392.27 893.93 1390.9 891.464 1390.03 889.015C1388.29 884.137 1388.27 877.166 1385.39 872.973L1383.91 873.142C1383.92 872.914 1383.94 872.687 1383.94 872.46C1383.99 869.989 1359.55 780.254 1357.06 773.193C1356.74 772.284 1356.06 771.498 1355.4 770.813C1355.05 770.928 1354.7 771.05 1354.34 771.144C1343.44 774.014 1331.95 774.769 1326.33 763.082C1325.54 761.431 1324.87 758.811 1323.24 757.865C1321.43 759.619 1321.57 761.196 1321.5 763.611Z"/>
	<path fill="#B0C2D7" d="M1418.57 891.777C1420.16 894.447 1420.8 901.143 1420 904.218C1419.85 904.769 1419.77 904.918 1419.54 905.491C1409.59 910.567 1389.08 914.414 1378.34 910.849C1376.81 910.341 1375.83 909.589 1374.71 908.463C1374.54 908.285 1374.36 908.114 1374.18 907.934C1374.08 907.826 1373.98 907.711 1373.88 907.599C1386.94 907.39 1399.9 911.015 1412.65 905.933C1413.48 904.337 1413.41 901.968 1413.22 900.182C1412.95 897.635 1412.71 896.486 1410.71 894.899C1413.43 894.014 1416.06 893.19 1418.57 891.777Z"/>
	<path fill="white" d="M1186.47 361.209C1187.86 361.091 1188.24 360.917 1189.44 361.596C1189.72 364.465 1186.75 365.384 1186.14 367.935C1185.45 370.807 1188.51 373.404 1188.54 376.366C1186.4 382.513 1173.34 404.581 1168.66 408.422C1164.18 410.2 1159.64 413.414 1155.07 414.639C1153.04 415.182 1152.37 415.014 1150.69 413.896C1150 411.974 1149.41 410.53 1148.12 408.935C1146.31 408.198 1144.9 408.197 1143.01 408.735C1131.43 412.022 1113.92 420.017 1102.13 424.581C1073.75 435.575 1045.11 446.476 1016.24 456.147L1016.06 444.671C1015.55 419.95 1015.34 395.034 1016.17 370.323L1081.48 385.175C1090.51 387.238 1102.15 391.477 1111.34 391.317C1116.15 391.233 1120.65 388.564 1124.81 386.421C1128.11 387.225 1131.51 387.812 1134.92 387.711C1138.28 387.612 1142.12 387.08 1145.17 385.575C1149.52 383.422 1151.94 378.736 1156.06 376.34C1164.98 371.138 1179.3 368.937 1186.47 361.209Z"/>
	<path fill="white" d="M214.169 218.604C224.337 218.888 235.445 222.928 243.088 229.699C250.188 235.989 253.514 244.588 253.983 253.946C254.497 264.2 251.502 274.849 244.406 282.452C234.754 292.794 220.825 296.049 207.195 296.51C197.637 296.358 187.855 293.104 180.294 287.211C172.656 281.257 167.563 272.68 166.524 263Q166.432 262.056 166.387 261.108Q166.342 260.16 166.344 259.211Q166.347 258.262 166.397 257.315Q166.447 256.367 166.545 255.423Q166.642 254.479 166.787 253.541Q166.932 252.604 167.124 251.674Q167.315 250.745 167.553 249.826Q167.791 248.908 168.075 248.002Q168.359 247.097 168.688 246.207Q169.016 245.317 169.389 244.444Q169.763 243.572 170.179 242.719Q170.595 241.866 171.054 241.036Q171.512 240.205 172.012 239.398Q172.511 238.592 173.051 237.811Q173.59 237.031 174.168 236.278Q174.746 235.526 175.361 234.803C185.193 223.077 199.603 219.754 214.169 218.604Z"/>
	<path fill="#0F172A" d="M206.247 235.681C212.511 235.432 217.421 235.451 223.058 238.443Q223.592 238.726 224.112 239.036Q224.631 239.345 225.135 239.681Q225.638 240.016 226.124 240.376Q226.61 240.736 227.077 241.12Q227.545 241.503 227.992 241.91Q228.44 242.317 228.867 242.746Q229.293 243.174 229.698 243.624Q230.103 244.073 230.485 244.542Q230.866 245.011 231.224 245.499Q231.582 245.987 231.915 246.491Q232.248 246.996 232.555 247.517Q232.863 248.038 233.144 248.574Q233.424 249.11 233.678 249.659Q233.932 250.208 234.158 250.769Q234.384 251.33 234.582 251.902Q234.779 252.473 234.948 253.054C236.404 258.209 235.889 263.706 233.192 268.367C229.109 275.422 221.857 278.526 214.328 280.554C207.661 281.037 201.185 280.538 195.28 277.15C190.393 274.345 186.681 269.817 185.255 264.332Q185.121 263.802 185.015 263.267Q184.908 262.731 184.828 262.191Q184.749 261.651 184.697 261.107Q184.644 260.563 184.62 260.018Q184.595 259.472 184.598 258.926Q184.601 258.38 184.631 257.834Q184.662 257.289 184.72 256.746Q184.778 256.203 184.863 255.663Q184.948 255.124 185.061 254.589Q185.173 254.055 185.313 253.527Q185.452 252.999 185.618 252.478Q185.783 251.958 185.975 251.447Q186.167 250.935 186.384 250.434Q186.602 249.933 186.844 249.444Q187.087 248.954 187.354 248.478Q187.62 248.001 187.911 247.539C192.171 240.648 198.657 237.57 206.247 235.681Z"/>
	<path fill="white" d="M210.07 242.545C213.661 242.875 216.852 243.458 219.973 245.373C223.532 247.558 226.303 250.959 227.205 255.091Q227.352 255.764 227.431 256.448Q227.509 257.133 227.518 257.822Q227.528 258.51 227.468 259.197Q227.407 259.883 227.278 260.56Q227.149 261.236 226.953 261.897Q226.757 262.557 226.495 263.194Q226.233 263.831 225.908 264.439Q225.583 265.046 225.199 265.618C221.884 270.655 217.141 272.508 211.511 273.735C207.724 273.336 204.146 272.931 200.805 270.97C197.472 269.014 194.839 265.848 193.952 262.047C193.089 258.349 193.845 254.482 195.832 251.274C199.085 246.023 204.263 243.804 210.07 242.545Z"/>
	<path fill="white" d="M1237.95 748.371C1239.67 749.89 1240.51 751.494 1241.33 753.599C1245.14 763.369 1247.41 774.03 1250.07 784.163Q1258.08 813.771 1264.67 843.728C1267.45 855.842 1272.15 870.89 1272.64 883.154C1272.69 884.47 1272.45 885.564 1271.95 886.769C1268.09 888.709 1263.31 889.465 1259.03 889.655C1254.91 891.236 1249.2 890.88 1244.77 891.124C1244.94 890.431 1244.98 890.436 1244.94 889.598C1244.71 884.256 1235.37 861.255 1232.94 854.125C1224.89 830.552 1217.92 806.57 1208.92 783.318C1208.43 782.065 1207.8 781.182 1206.86 780.22C1206.91 779.968 1206.97 779.718 1207 779.464C1207.5 775.936 1200.95 762.308 1198.57 759.381C1206.9 754.64 1218.91 753.337 1228.22 750.809C1231.3 750.11 1235.09 749.651 1237.95 748.371Z"/>
	<path fill="#B0C2D7" d="M1237.95 748.371C1239.67 749.89 1240.51 751.494 1241.33 753.599C1245.14 763.369 1247.41 774.03 1250.07 784.163Q1258.08 813.771 1264.67 843.728C1267.45 855.842 1272.15 870.89 1272.64 883.154C1272.69 884.47 1272.45 885.564 1271.95 886.769C1268.09 888.709 1263.31 889.465 1259.03 889.655C1260.2 886.777 1259.81 884.784 1259.34 881.767C1257.25 868.538 1244.49 797.361 1236.5 791.561C1233.69 790.882 1230.88 789.32 1229.21 786.918C1227.82 784.925 1227.49 782.727 1227.98 780.372C1228.85 776.187 1230.98 774.826 1234.37 772.734C1234.86 772.22 1235.37 771.718 1235.53 770.988C1236.43 766.751 1233.3 754.92 1230.97 751.36L1228.22 750.809C1231.3 750.11 1235.09 749.651 1237.95 748.371Z"/>
	<defs>
		<linearGradient id="gradient_0" gradientUnits="userSpaceOnUse" x1="1242.5953" y1="778.20807" x2="1230.0583" y2="785.54144">
			<stop offset="0" stop-color="#000001"/>
			<stop offset="1" stop-color="#040D24"/>
		</linearGradient>
	</defs>
	<path fill="url(#gradient_0)" d="M1234.37 772.734C1237.63 772.752 1240.09 772.952 1242.54 775.417C1244.47 777.358 1245.68 780.04 1245.61 782.799C1245.56 785.128 1244.64 787.417 1242.89 788.988C1241.08 790.619 1238.88 791.293 1236.5 791.561C1233.69 790.882 1230.88 789.32 1229.21 786.918C1227.82 784.925 1227.49 782.727 1227.98 780.372C1228.85 776.187 1230.98 774.826 1234.37 772.734Z"/>
	<path fill="white" d="M1267.32 300.79C1267.58 300.925 1267.85 301.054 1268.1 301.195C1271.62 303.118 1278.4 309.719 1279.47 313.486C1282.56 315.191 1298.65 330.212 1299.8 333.095C1299.85 333.219 1299.87 333.353 1299.9 333.481C1298.49 342.974 1271.03 370.086 1263.52 378.638C1257 386.076 1250.14 396.229 1242.3 402.203C1241.54 402.783 1240.78 403.241 1239.91 403.638L1238.61 402.92L1238.34 401.483L1238.97 400.882C1239.68 400.188 1239.48 400.506 1239.76 399.952L1239.63 398.127C1238.16 397.747 1237.3 397.166 1236.07 396.298C1235 395.544 1234.22 394.806 1232.88 395.035L1233.72 397.094C1227.45 395.206 1210.2 380.102 1205.3 374.9C1203.04 372.509 1201.21 369.63 1199.24 366.998C1201.77 365.216 1266.48 302.08 1267.32 300.79Z"/>
	<path fill="white" d="M1155.63 746.449L1156.35 746.783C1164.28 750.559 1170.44 757.963 1179.55 759.238C1182.18 759.606 1195.47 758.899 1195.92 760.843C1195.97 761.075 1195.93 761.319 1195.93 761.557C1197.06 760.914 1197.71 760.322 1198.57 759.381C1200.95 762.308 1207.5 775.936 1207 779.464C1206.97 779.718 1206.91 779.968 1206.86 780.22L1206.73 781.067L1205.57 778.108L1205.09 778.44L1205.23 779.072L1204.45 780.384L1204.53 780.2C1204.55 780.338 1204.57 780.477 1204.59 780.614C1205.31 784.474 1208.43 788.704 1209.82 792.648C1212.86 801.279 1239.6 880.66 1239.3 881.82C1239.27 881.912 1238.43 883.349 1238.41 883.375C1238.25 883.598 1238.04 883.783 1237.86 883.986C1239.79 886.766 1241.86 891.656 1241.38 895.063Q1250.26 894.837 1259.11 894.16C1261.07 896.331 1261.59 899.166 1261.46 902.041C1261.39 903.374 1261.12 904.283 1260.52 905.458C1254.93 909.453 1234.71 908.26 1227.54 907.373C1227.43 905.552 1183.61 811.267 1183.25 810.854C1183.42 808.548 1163.4 760.285 1160.6 756.217C1160.7 752.659 1158.86 749.791 1156.48 747.271C1156.21 746.984 1155.92 746.717 1155.63 746.449Z"/>
	<path fill="#000007" d="M1195.93 761.557C1197.06 760.914 1197.71 760.322 1198.57 759.381C1200.95 762.308 1207.5 775.936 1207 779.464C1206.97 779.718 1206.91 779.968 1206.86 780.22L1206.73 781.067L1205.57 778.108L1205.09 778.44L1205.23 779.072L1204.45 780.384L1204.53 780.2C1204.55 780.338 1204.57 780.477 1204.59 780.614C1205.31 784.474 1208.43 788.704 1209.82 792.648C1212.86 801.279 1239.6 880.66 1239.3 881.82C1239.27 881.912 1238.43 883.349 1238.41 883.375C1238.25 883.598 1238.04 883.783 1237.86 883.986C1237.91 883.754 1237.97 883.524 1238.01 883.29C1238.71 879.317 1201 769.184 1195.93 761.557Z"/>
	<path fill="#B0C2D7" d="M1160.6 756.217C1163.29 756.982 1163.97 757.195 1165.4 759.727C1169.19 766.426 1185.03 804.482 1183.85 809.42C1183.7 810.013 1183.51 810.333 1183.25 810.854C1183.42 808.548 1163.4 760.285 1160.6 756.217Z"/>
	<path fill="#0F172A" d="M1013.4 463.243L1093.33 433.844C1101.61 430.756 1126.21 419.58 1133.67 419.151L1133.79 420.733C1136.3 423.627 1138.89 435.648 1138.85 439.589C1138.84 440.454 1138.63 440.962 1138.32 441.756C1140.99 444.179 1143.06 451.076 1143.21 454.692C1143.23 455.198 1143.14 455.385 1143 455.816C1132.21 458.136 1117.85 462.016 1106.98 462.229C1102.44 464.913 1027.14 478.128 1016.9 479.601Q1014.96 471.463 1013.4 463.243Z"/>
	<path fill="#B0C2D7" d="M1013.4 463.243L1093.33 433.844C1101.61 430.756 1126.21 419.58 1133.67 419.151L1133.79 420.733C1132.89 421.973 1132.06 423.094 1131.49 424.534C1107.77 434.066 1083.41 442.58 1059.25 450.953C1046.63 455.328 1033.42 459.144 1021.17 464.451C1019.73 467.856 1021.8 472.576 1022.81 475.962C1034.78 474.533 1046.75 471.754 1058.59 469.443C1074.22 466.392 1089.99 463.557 1105.51 460.036C1114.62 458.43 1128.82 457.447 1136.8 452.722C1137.95 449.834 1136.58 446.943 1135.64 444.194C1137.13 444.376 1137.23 444.476 1138.5 443.723L1138.32 441.756C1140.99 444.179 1143.06 451.076 1143.21 454.692C1143.23 455.198 1143.14 455.385 1143 455.816C1132.21 458.136 1117.85 462.016 1106.98 462.229C1102.44 464.913 1027.14 478.128 1016.9 479.601Q1014.96 471.463 1013.4 463.243Z"/>
	<path fill="white" d="M1131.49 424.534C1132.06 423.094 1132.89 421.973 1133.79 420.733C1136.3 423.627 1138.89 435.648 1138.85 439.589C1138.84 440.454 1138.63 440.962 1138.32 441.756L1138.5 443.723C1137.23 444.476 1137.13 444.376 1135.64 444.194C1135.66 444.019 1135.68 443.845 1135.69 443.67C1135.83 439.503 1134.24 427.7 1131.49 424.534Z"/>
	<path fill="white" d="M1364.12 916.763C1369.49 918.167 1373.19 922.569 1378.72 923.822C1391.88 926.799 1409.08 918.979 1420.6 920.14C1422.28 920.997 1423.29 922.035 1424.35 923.583C1426.78 927.12 1429.31 932.407 1428.48 936.659C1431.17 939.349 1432.01 943.215 1431.99 946.936C1431.99 947.98 1431.82 948.612 1431.39 949.541C1408.51 951.187 1384.6 952.205 1361.67 951.69C1347.47 951.371 1333.28 950.067 1319.07 949.606C1311.87 950.139 1304.67 950.963 1297.48 951.655C1312.24 946.941 1327.04 941.804 1341.72 936.814C1345.01 935.695 1348.8 933.244 1352.13 932.886C1354.29 935.1 1356.45 937.251 1358.77 939.293L1359.72 939.227C1359.27 936.483 1356.05 933.148 1354.36 930.91C1354.99 926.108 1361.79 921.224 1364.12 916.763Z"/>
	<path fill="#B0C2D7" d="M1428.48 936.659C1431.17 939.349 1432.01 943.215 1431.99 946.936C1431.99 947.98 1431.82 948.612 1431.39 949.541C1408.51 951.187 1384.6 952.205 1361.67 951.69C1347.47 951.371 1333.28 950.067 1319.07 949.606C1332.21 947.169 1346.88 946.265 1360.21 946.071C1379.38 945.792 1403.8 949.719 1421.69 942.209C1424.46 941.047 1427.29 939.552 1428.48 936.659Z"/>
	<path fill="white" d="M1270.85 915.161C1273.33 914.55 1275.45 914.029 1277.62 912.595C1281.6 917.913 1286.15 929.917 1285.23 936.672C1285.13 937.443 1284.78 938.22 1284.51 938.948C1280.99 939.618 1277.72 940.074 1274.13 940.066C1270.23 941.517 1263.54 941.644 1259.32 941.374C1243.22 944.323 1225.84 944.174 1209.48 944.503Q1180.74 945.147 1152 945.247C1158.24 943.064 1164.36 939.621 1170.52 937.101C1181.75 932.507 1193.23 928.5 1204.37 923.692C1208.29 926.205 1206.28 930.645 1209.1 933.935C1209.34 933.93 1209.59 933.94 1209.84 933.921C1211.44 933.799 1212.16 932.862 1213.21 931.759C1212.68 928.919 1208.9 925.558 1207.09 923.225L1208.23 921.526L1209.09 921.361L1210.13 924.032L1211.24 923.838C1211.32 922.021 1210.9 921.786 1209.88 920.337C1211.58 917.677 1215.92 915.468 1218.58 913.677C1219.26 914.46 1219.96 915.223 1220.64 916.001C1221.34 916.794 1222.01 917.652 1222.89 918.256C1231.13 923.895 1261.14 917.042 1270.85 915.161Z"/>
	<path fill="#B0C2D7" d="M1270.85 915.161C1273.33 914.55 1275.45 914.029 1277.62 912.595C1281.6 917.913 1286.15 929.917 1285.23 936.672C1285.13 937.443 1284.78 938.22 1284.51 938.948C1280.99 939.618 1277.72 940.074 1274.13 940.066C1274.67 938.891 1275.58 937.4 1275.36 936.068C1275.18 935.029 1274.15 934.579 1273.35 933.956C1273.84 933.637 1274.41 933.313 1274.84 932.897C1276.24 931.53 1276.52 930.355 1276.47 928.433C1276.37 924.286 1273.73 918.112 1270.85 915.161Z"/>
	<path fill="#B0C2D7" d="M1259.32 941.374C1263.95 938.854 1269.13 937.167 1273.35 933.956C1274.15 934.579 1275.18 935.029 1275.36 936.068C1275.58 937.4 1274.67 938.891 1274.13 940.066C1270.23 941.517 1263.54 941.644 1259.32 941.374Z"/>
	<path fill="white" d="M1243.58 215.463C1239.06 215.388 1234.67 215.146 1230.51 213.188C1225.05 210.618 1220.91 206.203 1219 200.445C1217.08 194.618 1217.76 187.994 1220.55 182.556C1223.67 176.444 1229.12 172.576 1235.57 170.538C1242.75 168.269 1249.65 170.578 1256.08 174.062C1257.91 175.057 1259.62 176.099 1260.21 178.14L1257.93 178.151C1259.79 179.294 1261.33 180.505 1262.29 182.534L1263.14 181.332C1262.96 179.849 1262.88 178.582 1263.05 177.095L1264.02 176.943C1265.23 185.049 1270.68 189.98 1268.69 198.723C1268.62 199.03 1268.54 199.335 1268.47 199.641L1269.13 200.59L1268.85 199.156C1275.48 191.111 1265.93 181.192 1266.82 176.358L1268.2 178.425C1271.65 183.226 1272.55 189.716 1271.61 195.456C1270.3 203.566 1265.1 211.731 1258.4 216.467C1255.63 218.423 1251.62 220.526 1248.18 220.459L1247.21 220.443L1247.48 219.151L1246.83 218.146C1245.5 218.032 1244.28 218.069 1243.17 217.229L1243.58 215.463Z"/>
	<path fill="#000007" d="M1243.58 215.463C1247.79 215.306 1251.04 214.671 1255 213.296L1254.97 212.641C1249.7 211.696 1244.24 214.473 1238.7 213.69C1232.83 212.859 1227.98 209.383 1224.54 204.631C1221.5 200.42 1220.15 195.386 1221.06 190.238C1222.14 184.141 1225.93 178.849 1230.98 175.366C1233.78 173.427 1237.54 171.4 1241.06 172.031L1241 172.996C1236.26 174.035 1233.26 175.491 1229.42 178.438C1224.97 183.32 1224.42 189.217 1220.77 193.491C1220.88 193.618 1221 193.743 1221.11 193.874C1227.68 201.825 1224.87 210.573 1240.71 212.433C1247.02 213.174 1253.49 211.779 1258.52 207.783C1262.3 204.769 1265.55 200.121 1266.05 195.206C1266.44 191.367 1265.22 186.018 1262.72 183.001C1262.58 182.838 1262.43 182.689 1262.29 182.534L1263.14 181.332C1262.96 179.849 1262.88 178.582 1263.05 177.095L1264.02 176.943C1265.23 185.049 1270.68 189.98 1268.69 198.723C1268.62 199.03 1268.54 199.335 1268.47 199.641L1269.13 200.59L1268.85 199.156C1275.48 191.111 1265.93 181.192 1266.82 176.358L1268.2 178.425C1271.65 183.226 1272.55 189.716 1271.61 195.456C1270.3 203.566 1265.1 211.731 1258.4 216.467C1255.63 218.423 1251.62 220.526 1248.18 220.459L1247.21 220.443L1247.48 219.151L1246.83 218.146C1245.5 218.032 1244.28 218.069 1243.17 217.229L1243.58 215.463Z"/>
	<path fill="#0F172A" d="M1244.55 174.874L1247.15 172.853L1248.26 173.105C1248.33 173.378 1248.36 173.656 1248.45 173.923C1249.08 175.959 1249.93 175.999 1251.7 176.918L1252.39 176.747C1257.04 179.362 1260.41 182.275 1261.92 187.654C1263.14 192.058 1262.97 196.996 1260.77 201.067C1258.47 205.298 1254.19 208.205 1249.61 209.447Q1249.11 209.582 1248.61 209.693Q1248.1 209.803 1247.6 209.889Q1247.09 209.974 1246.57 210.034Q1246.06 210.095 1245.55 210.129Q1245.03 210.164 1244.52 210.174Q1244 210.183 1243.49 210.167Q1242.97 210.151 1242.46 210.109Q1241.94 210.067 1241.43 210Q1240.92 209.933 1240.41 209.841Q1239.9 209.749 1239.4 209.631Q1238.9 209.514 1238.4 209.372Q1237.91 209.23 1237.42 209.064Q1236.93 208.898 1236.45 208.708Q1235.97 208.518 1235.5 208.304Q1235.03 208.09 1234.57 207.854Q1234.12 207.617 1233.67 207.358C1229.67 205.057 1226.71 201.438 1225.67 196.881C1224.45 191.565 1225.72 187.42 1228.7 182.98C1229.52 181.764 1230.42 180.708 1230.91 179.318C1235.6 176.842 1239.22 175.18 1244.55 174.874Z"/>
	<path fill="white" d="M1192.08 703.427Q1192.69 703.453 1193.3 703.508Q1193.91 703.564 1194.51 703.649Q1195.12 703.734 1195.72 703.848Q1196.32 703.963 1196.91 704.106Q1197.51 704.25 1198.09 704.422Q1198.68 704.594 1199.26 704.795Q1199.84 704.995 1200.4 705.224Q1200.97 705.452 1201.52 705.708Q1202.08 705.964 1202.62 706.246Q1203.16 706.529 1203.69 706.837Q1204.22 707.146 1204.73 707.48Q1205.24 707.813 1205.74 708.172Q1206.23 708.53 1206.71 708.912Q1207.19 709.294 1207.65 709.699Q1208.1 710.104 1208.54 710.531Q1208.98 710.957 1209.4 711.405Q1209.81 711.852 1210.21 712.319Q1210.6 712.786 1210.97 713.272Q1211.34 713.758 1211.69 714.261Q1212.04 714.764 1212.36 715.284Q1212.68 715.804 1212.98 716.338Q1213.27 716.873 1213.55 717.421Q1213.82 717.97 1214.06 718.531Q1214.3 719.092 1214.52 719.664Q1214.73 720.236 1214.92 720.818Q1215.11 721.4 1215.27 721.99Q1215.43 722.58 1215.56 723.178Q1215.69 723.775 1215.79 724.378Q1215.89 724.981 1215.96 725.588Q1216.03 726.195 1216.07 726.805Q1216.11 727.415 1216.13 728.027Q1216.14 728.638 1216.12 729.249Q1216.1 729.86 1216.05 730.47Q1216.01 731.079 1215.93 731.686Q1215.85 732.293 1215.75 732.895Q1215.64 733.497 1215.5 734.093Q1215.37 734.689 1215.2 735.278Q1215.04 735.867 1214.85 736.447Q1214.65 737.028 1214.43 737.598Q1214.21 738.168 1213.96 738.727Q1213.72 739.285 1213.44 739.831Q1213.17 740.377 1212.86 740.909Q1212.56 741.441 1212.24 741.958Q1211.91 742.474 1211.56 742.974Q1211.2 743.474 1210.83 743.957Q1210.45 744.439 1210.05 744.903Q1209.66 745.366 1209.24 745.81Q1208.81 746.253 1208.37 746.676Q1207.93 747.098 1207.47 747.499Q1207.01 747.899 1206.53 748.277Q1206.05 748.655 1205.55 749.008Q1205.05 749.362 1204.53 749.691Q1204.02 750.02 1203.49 750.324Q1202.96 750.627 1202.41 750.905Q1201.87 751.182 1201.31 751.433Q1200.75 751.683 1200.18 751.906Q1199.61 752.13 1199.03 752.325Q1198.45 752.52 1197.87 752.687Q1197.28 752.853 1196.68 752.991Q1196.09 753.129 1195.49 753.238Q1194.88 753.346 1194.28 753.426Q1193.67 753.505 1193.06 753.555Q1192.45 753.605 1191.84 753.625Q1191.23 753.645 1190.62 753.635Q1190.21 753.629 1189.79 753.608Q1189.38 753.588 1188.97 753.554Q1188.55 753.52 1188.14 753.473Q1187.73 753.425 1187.32 753.364Q1186.91 753.303 1186.5 753.229Q1186.09 753.154 1185.69 753.066Q1185.28 752.978 1184.88 752.877Q1184.48 752.776 1184.08 752.661Q1183.68 752.547 1183.29 752.419Q1182.9 752.292 1182.51 752.151Q1182.12 752.011 1181.73 751.857Q1181.35 751.704 1180.97 751.538Q1180.59 751.372 1180.21 751.194Q1179.84 751.016 1179.47 750.825Q1179.1 750.635 1178.74 750.432Q1178.38 750.229 1178.03 750.015Q1177.67 749.801 1177.32 749.575Q1176.98 749.349 1176.64 749.111Q1176.3 748.874 1175.97 748.626Q1175.63 748.377 1175.31 748.118Q1174.99 747.859 1174.67 747.589Q1174.36 747.319 1174.05 747.039Q1173.75 746.759 1173.45 746.469Q1173.16 746.179 1172.87 745.88Q1172.58 745.58 1172.31 745.271Q1172.03 744.963 1171.76 744.645Q1171.5 744.327 1171.24 744.001Q1170.99 743.674 1170.74 743.34Q1170.5 743.005 1170.27 742.663Q1170.03 742.32 1169.81 741.97Q1169.59 741.62 1169.38 741.263Q1169.17 740.906 1168.97 740.542Q1168.77 740.178 1168.59 739.808Q1168.4 739.437 1168.22 739.061Q1168.05 738.685 1167.89 738.303Q1167.73 737.922 1167.58 737.535Q1167.43 737.148 1167.29 736.756Q1167.16 736.365 1167.04 735.969Q1166.91 735.573 1166.8 735.173Q1166.69 734.773 1166.6 734.37Q1166.5 733.967 1166.42 733.561Q1166.33 733.155 1166.26 732.746Q1166.19 732.338 1166.14 731.927Q1166.08 731.516 1166.04 731.104Q1166 730.692 1165.97 730.278Q1165.94 729.865 1165.92 729.45Q1165.91 729.036 1165.91 728.622Q1165.9 728.207 1165.92 727.793Q1165.93 727.378 1165.95 726.965Q1165.98 726.551 1166.02 726.138Q1166.06 725.726 1166.11 725.314Q1166.16 724.903 1166.23 724.494Q1166.3 724.085 1166.38 723.678Q1166.46 723.271 1166.55 722.868Q1166.64 722.464 1166.75 722.063Q1166.85 721.663 1166.97 721.266Q1167.09 720.869 1167.23 720.476Q1167.36 720.083 1167.51 719.695Q1167.65 719.307 1167.81 718.924Q1167.97 718.541 1168.14 718.163Q1168.31 717.786 1168.49 717.414Q1168.68 717.042 1168.87 716.676Q1169.07 716.311 1169.27 715.952Q1169.48 715.593 1169.7 715.241Q1169.92 714.889 1170.15 714.545Q1170.38 714.2 1170.62 713.864Q1170.86 713.527 1171.12 713.199Q1171.37 712.87 1171.63 712.55Q1171.9 712.23 1172.17 711.919Q1172.44 711.608 1172.73 711.306Q1173.01 711.005 1173.31 710.712Q1173.6 710.42 1173.9 710.137Q1174.21 709.855 1174.52 709.583Q1174.83 709.31 1175.15 709.049Q1175.47 708.787 1175.8 708.536Q1176.13 708.285 1176.47 708.045Q1176.81 707.805 1177.16 707.576Q1177.5 707.347 1177.85 707.13Q1178.21 706.913 1178.57 706.707Q1178.93 706.502 1179.29 706.308Q1179.66 706.115 1180.03 705.933Q1180.41 705.752 1180.78 705.583Q1181.16 705.414 1181.55 705.258Q1181.93 705.102 1182.32 704.958Q1182.71 704.815 1183.1 704.684Q1183.49 704.553 1183.89 704.436Q1184.29 704.318 1184.69 704.214Q1185.09 704.109 1185.5 704.018Q1185.9 703.927 1186.31 703.85Q1186.71 703.772 1187.12 703.708Q1187.53 703.643 1187.94 703.593Q1188.36 703.542 1188.77 703.505Q1189.18 703.468 1189.59 703.444Q1190.01 703.421 1190.42 703.411Q1190.84 703.401 1191.25 703.405Q1191.67 703.409 1192.08 703.427Z"/>
	<path fill="#0F172A" d="M1186.59 706.107Q1187.14 705.993 1187.69 705.906Q1188.25 705.819 1188.81 705.759Q1189.37 705.699 1189.93 705.667Q1190.49 705.635 1191.05 705.63Q1191.61 705.625 1192.17 705.648Q1192.73 705.671 1193.29 705.721Q1193.85 705.771 1194.41 705.849Q1194.96 705.927 1195.52 706.032Q1196.07 706.137 1196.61 706.269Q1197.16 706.401 1197.7 706.559Q1198.24 706.718 1198.77 706.902Q1199.3 707.087 1199.82 707.298Q1200.34 707.508 1200.85 707.744Q1201.36 707.98 1201.86 708.241Q1202.35 708.501 1202.84 708.786Q1203.32 709.071 1203.79 709.379Q1204.26 709.687 1204.71 710.018Q1205.17 710.349 1205.61 710.701Q1206.04 711.054 1206.46 711.428Q1206.88 711.802 1207.28 712.196Q1207.68 712.589 1208.06 713.002Q1208.44 713.416 1208.8 713.847Q1209.16 714.278 1209.5 714.726Q1209.84 715.175 1210.16 715.639Q1210.47 716.104 1210.76 716.583Q1211.06 717.062 1211.33 717.556Q1211.59 718.049 1211.84 718.555Q1212.08 719.06 1212.3 719.577Q1212.52 720.095 1212.72 720.622Q1212.91 721.149 1213.08 721.685Q1213.24 722.222 1213.38 722.765Q1213.53 723.309 1213.64 723.859Q1213.75 724.409 1213.84 724.964Q1213.93 725.519 1213.99 726.077Q1214.05 726.636 1214.08 727.197Q1214.11 727.758 1214.12 728.319Q1214.12 728.881 1214.1 729.442Q1214.08 730.004 1214.03 730.563Q1213.97 731.122 1213.9 731.679Q1213.82 732.235 1213.71 732.787Q1213.61 733.339 1213.48 733.885Q1213.35 734.431 1213.19 734.97Q1213.03 735.509 1212.84 736.039Q1212.66 736.57 1212.45 737.09Q1212.24 737.611 1212 738.121Q1211.77 738.631 1211.51 739.128Q1211.24 739.626 1210.96 740.11Q1210.68 740.594 1210.37 741.064Q1210.06 741.533 1209.73 741.987Q1209.4 742.441 1209.04 742.879Q1208.69 743.316 1208.32 743.735Q1207.94 744.154 1207.55 744.555Q1207.16 744.955 1206.74 745.336Q1206.33 745.717 1205.9 746.077Q1205.47 746.437 1205.02 746.775Q1204.57 747.113 1204.11 747.429Q1203.64 747.745 1203.16 748.038Q1202.69 748.331 1202.19 748.6Q1201.7 748.869 1201.19 749.113Q1200.69 749.357 1200.17 749.576Q1199.65 749.796 1199.13 749.989Q1198.6 750.183 1198.06 750.35Q1197.53 750.518 1196.98 750.659Q1196.44 750.8 1195.89 750.914Q1195.34 751.028 1194.79 751.115Q1194.23 751.202 1193.67 751.262Q1193.11 751.322 1192.55 751.354Q1191.99 751.387 1191.43 751.391Q1190.87 751.396 1190.31 751.373Q1189.75 751.35 1189.19 751.3Q1188.63 751.25 1188.07 751.172Q1187.52 751.094 1186.96 750.989Q1186.41 750.884 1185.87 750.753Q1185.32 750.621 1184.78 750.462Q1184.24 750.304 1183.71 750.119Q1183.18 749.934 1182.66 749.724Q1182.14 749.513 1181.63 749.277Q1181.12 749.041 1180.62 748.781Q1180.13 748.52 1179.64 748.235Q1179.16 747.951 1178.69 747.642Q1178.22 747.334 1177.77 747.003Q1177.31 746.673 1176.88 746.32Q1176.44 745.967 1176.02 745.594Q1175.6 745.22 1175.2 744.826Q1174.8 744.432 1174.42 744.019Q1174.04 743.606 1173.68 743.175Q1173.32 742.744 1172.98 742.295Q1172.64 741.847 1172.32 741.383Q1172.01 740.918 1171.72 740.439Q1171.42 739.959 1171.15 739.466Q1170.89 738.973 1170.64 738.467Q1170.4 737.962 1170.18 737.444Q1169.96 736.927 1169.76 736.4Q1169.57 735.873 1169.4 735.337Q1169.24 734.8 1169.1 734.257Q1168.95 733.713 1168.84 733.163Q1168.73 732.613 1168.64 732.058Q1168.55 731.503 1168.49 730.944Q1168.43 730.386 1168.4 729.825Q1168.37 729.264 1168.36 728.703Q1168.36 728.141 1168.38 727.579Q1168.4 727.018 1168.45 726.459Q1168.5 725.899 1168.58 725.343Q1168.66 724.787 1168.77 724.235Q1168.87 723.683 1169 723.137Q1169.13 722.591 1169.29 722.052Q1169.45 721.513 1169.64 720.982Q1169.82 720.452 1170.03 719.931Q1170.24 719.41 1170.48 718.901Q1170.71 718.391 1170.97 717.893Q1171.23 717.396 1171.52 716.911Q1171.8 716.427 1172.11 715.958Q1172.42 715.488 1172.75 715.034Q1173.08 714.58 1173.43 714.143Q1173.79 713.706 1174.16 713.286Q1174.53 712.867 1174.93 712.466Q1175.32 712.066 1175.74 711.685Q1176.15 711.305 1176.58 710.945Q1177.01 710.585 1177.46 710.246Q1177.91 709.908 1178.37 709.592Q1178.84 709.276 1179.32 708.983Q1179.79 708.69 1180.29 708.422Q1180.78 708.153 1181.29 707.908Q1181.79 707.664 1182.31 707.445Q1182.83 707.225 1183.35 707.032Q1183.88 706.838 1184.42 706.671Q1184.95 706.503 1185.5 706.362Q1186.04 706.221 1186.59 706.107Z"/>
	<path fill="white" d="M1188.98 715.362Q1189.3 715.311 1189.63 715.276Q1189.96 715.241 1190.28 715.223Q1190.61 715.204 1190.94 715.201Q1191.27 715.199 1191.59 715.212Q1191.92 715.226 1192.25 715.255Q1192.58 715.285 1192.9 715.331Q1193.23 715.377 1193.55 715.439Q1193.87 715.501 1194.19 715.578Q1194.51 715.656 1194.82 715.749Q1195.14 715.842 1195.45 715.951Q1195.75 716.059 1196.06 716.183Q1196.36 716.307 1196.66 716.446Q1196.96 716.584 1197.25 716.737Q1197.54 716.89 1197.82 717.058Q1198.1 717.225 1198.37 717.406Q1198.65 717.587 1198.91 717.781Q1199.18 717.975 1199.43 718.182Q1199.69 718.389 1199.93 718.609Q1200.17 718.828 1200.41 719.059Q1200.64 719.29 1200.86 719.532Q1201.08 719.775 1201.29 720.027Q1201.5 720.28 1201.7 720.543Q1201.89 720.806 1202.07 721.078Q1202.26 721.351 1202.43 721.632Q1202.6 721.913 1202.75 722.201Q1202.91 722.49 1203.05 722.787Q1203.19 723.083 1203.31 723.386Q1203.44 723.689 1203.55 723.997Q1203.66 724.306 1203.76 724.62Q1203.85 724.934 1203.93 725.252Q1204.01 725.57 1204.08 725.892Q1204.14 726.214 1204.19 726.538Q1204.24 726.863 1204.27 727.189Q1204.3 727.516 1204.32 727.843Q1204.33 728.171 1204.33 728.499Q1204.33 728.827 1204.32 729.155Q1204.3 729.483 1204.27 729.809Q1204.24 730.135 1204.19 730.46Q1204.14 730.784 1204.08 731.106Q1204.01 731.428 1203.93 731.746Q1203.85 732.064 1203.76 732.378Q1203.66 732.692 1203.55 733Q1203.44 733.309 1203.31 733.612Q1203.18 733.915 1203.04 734.211Q1202.9 734.507 1202.75 734.796Q1202.59 735.085 1202.42 735.366Q1202.25 735.647 1202.07 735.919Q1201.89 736.191 1201.69 736.454Q1201.49 736.716 1201.28 736.969Q1201.07 737.222 1200.85 737.464Q1200.63 737.706 1200.4 737.938Q1200.17 738.168 1199.92 738.388Q1199.68 738.607 1199.42 738.814Q1199.17 739.02 1198.9 739.215Q1198.64 739.409 1198.37 739.589Q1198.09 739.77 1197.81 739.937Q1197.53 740.104 1197.24 740.257Q1196.95 740.41 1196.65 740.548Q1196.35 740.687 1196.05 740.81Q1195.75 740.934 1195.44 741.042Q1195.13 741.151 1194.81 741.244Q1194.5 741.337 1194.18 741.414Q1193.86 741.491 1193.54 741.553Q1193.21 741.614 1192.89 741.66Q1192.57 741.705 1192.25 741.734Q1191.92 741.764 1191.6 741.777Q1191.27 741.791 1190.95 741.788Q1190.62 741.786 1190.3 741.768Q1189.98 741.749 1189.65 741.715Q1189.33 741.681 1189.01 741.632Q1188.69 741.582 1188.37 741.517Q1188.05 741.451 1187.74 741.371Q1187.43 741.29 1187.12 741.194Q1186.81 741.098 1186.5 740.987Q1186.2 740.876 1185.9 740.75Q1185.6 740.624 1185.3 740.484Q1185.01 740.344 1184.73 740.19Q1184.44 740.035 1184.16 739.867Q1183.89 739.699 1183.62 739.518Q1183.35 739.336 1183.09 739.142Q1182.83 738.947 1182.58 738.741Q1182.33 738.534 1182.09 738.315Q1181.85 738.096 1181.62 737.866Q1181.39 737.636 1181.17 737.395Q1180.96 737.154 1180.75 736.902Q1180.55 736.651 1180.35 736.39Q1180.16 736.128 1179.98 735.858Q1179.8 735.588 1179.63 735.309Q1179.47 735.03 1179.32 734.744Q1179.16 734.458 1179.02 734.164Q1178.89 733.87 1178.76 733.57Q1178.64 733.27 1178.53 732.965Q1178.42 732.659 1178.33 732.348Q1178.23 732.038 1178.15 731.723Q1178.07 731.408 1178.01 731.089Q1177.95 730.771 1177.9 730.45Q1177.85 730.129 1177.82 729.806Q1177.79 729.483 1177.77 729.159Q1177.76 728.835 1177.76 728.51Q1177.76 728.185 1177.77 727.861Q1177.79 727.537 1177.82 727.214Q1177.85 726.891 1177.9 726.57Q1177.94 726.248 1178.01 725.93Q1178.07 725.611 1178.15 725.296Q1178.22 724.981 1178.32 724.67Q1178.41 724.36 1178.52 724.054Q1178.63 723.748 1178.75 723.447Q1178.87 723.147 1179.01 722.853Q1179.15 722.559 1179.3 722.272Q1179.45 721.986 1179.62 721.706Q1179.78 721.427 1179.96 721.157Q1180.14 720.886 1180.33 720.624Q1180.53 720.363 1180.73 720.111Q1180.94 719.859 1181.15 719.617Q1181.37 719.376 1181.6 719.145Q1181.83 718.914 1182.06 718.695Q1182.3 718.476 1182.55 718.268Q1182.8 718.061 1183.06 717.866Q1183.32 717.671 1183.59 717.489Q1183.86 717.307 1184.14 717.138Q1184.41 716.969 1184.7 716.814Q1184.98 716.659 1185.28 716.518Q1185.57 716.377 1185.87 716.251Q1186.17 716.124 1186.47 716.013Q1186.78 715.901 1187.09 715.804Q1187.4 715.708 1187.71 715.626Q1188.02 715.545 1188.34 715.479Q1188.66 715.412 1188.98 715.362Z"/>
	<path fill="#0F172A" d="M1184.28 721.826C1187.36 720.139 1190.31 718.744 1193.93 719.776C1196.6 720.537 1199.39 722.433 1200.75 724.901C1201.79 726.8 1202.03 728.85 1201.33 730.908C1200.61 733.017 1199.65 734.261 1197.85 735.496L1196.85 737.183C1195.86 737.797 1194.83 738.371 1193.65 738.481C1189.6 738.861 1185.21 736.65 1182.07 734.313C1180.9 729.151 1181.67 726.347 1184.28 721.826Z"/>
	<path fill="#B0C2D7" d="M782.003 60.2328C787.812 59.6836 793.822 60.0393 799.054 62.8452C803.329 65.1383 806.823 68.8105 808.188 73.5494C809.553 78.2888 808.587 83.2678 806.166 87.4855C802.441 93.9737 796.458 97.0094 789.472 98.8006C783.8 99.2421 778.433 98.5631 773.423 95.7275C768.465 92.921 764.503 88.3397 763.102 82.7508Q762.903 81.9676 762.784 81.1685Q762.664 80.3693 762.625 79.5622Q762.586 78.7551 762.628 77.9482Q762.67 77.1412 762.793 76.3425Q762.915 75.5438 763.117 74.7614Q763.318 73.9789 763.597 73.2206Q763.876 72.4622 764.229 71.7356Q764.583 71.0089 765.007 70.3213C768.846 64.0589 775.222 61.8689 782.003 60.2328Z"/>
	<path fill="#0F172A" d="M784.52 64.6927C788.01 64.4545 791.922 64.633 795.116 66.1948C798.64 67.9184 801.411 70.9782 802.527 74.7609Q802.726 75.4374 802.852 76.1312Q802.978 76.825 803.03 77.5282Q803.082 78.2315 803.06 78.9362Q803.037 79.6411 802.94 80.3395Q802.843 81.038 802.673 81.7223Q802.503 82.4065 802.261 83.069Q802.019 83.7314 801.709 84.3645Q801.399 84.9977 801.023 85.5944C798.273 89.9469 794.238 91.7539 789.433 92.9336C785.381 93.027 781.655 92.6748 778.077 90.6009C774.32 88.4232 771.374 84.8815 770.361 80.6078C769.553 77.1924 770.169 73.7687 772.188 70.8938C775.181 66.6334 779.742 65.6068 784.52 64.6927Z"/>
	<path fill="white" d="M785.643 70.624C787.626 70.6472 790.242 70.8484 792.123 71.52C793.851 72.1369 795.498 73.6524 796.269 75.3147C797.084 77.0752 796.925 79.1378 796.157 80.8829C794.532 84.5724 791.614 85.9167 788.146 87.3952C786.33 87.2476 784.283 87.0753 782.573 86.4368C780.006 85.4782 777.478 83.1929 776.602 80.5564Q776.492 80.2223 776.419 79.8781Q776.346 79.5339 776.312 79.1838Q776.277 78.8337 776.281 78.4819Q776.285 78.1301 776.328 77.7809Q776.37 77.4317 776.451 77.0893Q776.532 76.7469 776.65 76.4155Q776.768 76.084 776.922 75.7676Q777.075 75.4511 777.263 75.1535C779.112 72.1583 782.494 71.49 785.643 70.624Z"/>
	<path fill="white" d="M1259.96 559.258L1262.85 559.203C1263.72 559.187 1264.72 559.51 1265.4 560.102C1266.98 561.481 1268.77 566.558 1270.15 568.544C1275.9 576.822 1285.14 584.505 1293.59 589.911C1309.46 600.068 1326.55 603.716 1344.89 606.632C1348.91 607.272 1354.43 606.924 1358.03 608.499C1358.11 609.269 1358.29 609.806 1357.98 610.534C1351.64 625.634 1268.27 703.542 1252.42 710.05C1251.39 711.812 1249.38 712.718 1247.62 713.56C1249.24 710.742 1289.86 675.358 1296.09 669.585C1309.22 657.401 1322.52 644.748 1334.6 631.513C1338.21 627.567 1348.35 617.59 1348.1 612.169C1323.78 613.242 1296.42 599.979 1278.38 584.346C1271.94 578.775 1260.59 567.84 1259.96 559.258Z"/>
	<path fill="#B0C2D7" d="M953.933 198.962C957.734 198.822 961.852 199.55 965.302 201.169C969.44 203.11 972.87 206.577 974.267 210.984Q974.491 211.668 974.642 212.372Q974.794 213.076 974.871 213.791Q974.948 214.507 974.949 215.227Q974.951 215.947 974.878 216.663Q974.805 217.379 974.657 218.083Q974.509 218.788 974.289 219.473Q974.068 220.159 973.778 220.817Q973.487 221.475 973.129 222.1C969.971 227.609 964.656 229.668 958.845 231.198C953.249 231.302 948.663 231.254 943.77 228.202C940.156 225.948 937.418 222.386 936.552 218.169Q936.413 217.462 936.345 216.745Q936.278 216.028 936.283 215.308Q936.288 214.588 936.366 213.872Q936.444 213.156 936.593 212.451Q936.742 211.746 936.962 211.06Q937.181 210.374 937.469 209.714Q937.756 209.054 938.109 208.425Q938.461 207.797 938.875 207.208C942.456 202.031 948.019 200.08 953.933 198.962Z"/>
	<path fill="#0F172A" d="M953.577 203.447C956.41 203.309 959.37 203.648 961.986 204.793C965.154 206.179 967.854 208.622 969.006 211.95C969.983 214.774 969.762 217.57 968.456 220.246C966.282 224.703 962.212 226.321 957.811 227.731C954.852 227.859 951.599 227.685 948.864 226.427C945.789 225.013 943.066 222.337 941.978 219.092C941.009 216.203 941.25 213.416 942.635 210.71C944.897 206.289 949.153 204.773 953.577 203.447Z"/>
	<path fill="#B0C2D7" d="M953.186 209.965C954.206 209.923 955.255 209.877 956.271 209.999C958.035 210.21 960.272 211.036 961.33 212.557C962.24 213.867 962.467 215.074 962.168 216.606C961.641 219.314 959.245 220.733 957.113 222.117C956.353 222.142 955.593 222.164 954.833 222.128C952.73 222.026 950.417 220.96 949.158 219.213C948.099 217.743 947.852 216.091 948.335 214.363C948.949 212.165 951.358 211.016 953.186 209.965Z"/>
	<path fill="white" d="M1218.76 300.445L1220.57 301.073Q1220.75 301.759 1220.87 302.457Q1221 303.154 1221.07 303.859Q1221.14 304.564 1221.16 305.273Q1221.18 305.981 1221.15 306.689Q1221.12 307.397 1221.03 308.1Q1220.94 308.804 1220.81 309.499Q1220.67 310.194 1220.48 310.877Q1220.29 311.56 1220.05 312.227C1217.11 314.975 1211.86 316.252 1208.28 318.253C1197.99 324.003 1204.39 335.748 1201.81 344.578L1200.9 344.272C1200.77 342.162 1200.64 340.443 1199.84 338.472L1199.1 338.429C1198.1 339.136 1197.95 339.861 1197.55 340.969C1198.19 343.378 1199.96 344.741 1201.56 346.547C1202.81 347.956 1204.4 349.768 1204.29 351.729L1203.03 352.021C1201.38 351.11 1200.12 350.019 1198.72 348.753C1198.69 348.224 1198.72 348.134 1198.51 347.561C1196.15 341.278 1184.84 327.42 1178.86 324.329C1186.44 321.424 1213.3 305.926 1218.76 300.445Z"/>
	<path fill="white" d="M1166.52 415.975C1171.06 415.127 1175.32 414.739 1179.56 417.075C1183.02 418.983 1185.66 422.237 1186.61 426.092C1187.41 429.326 1187.01 432.751 1185.17 435.566C1182.78 439.227 1179.45 440.814 1175.38 441.769C1173.52 442.643 1171.35 442.487 1169.35 442.264C1165.98 441.889 1163.11 440.755 1161.05 437.922C1158.67 434.65 1158.03 430.47 1158.65 426.539C1159.49 421.339 1162.5 418.817 1166.52 415.975Z"/>
	<path fill="#0F172A" d="M1163.11 424.714C1165.63 422.249 1168.98 419.212 1172.64 418.887C1174.44 418.728 1175.84 419.063 1177.26 420.132L1179.96 421.122L1180.38 422.406C1182.39 423.918 1183.6 425.102 1183.94 427.798C1184.3 430.535 1183.16 433.108 1181.31 435.075C1179.36 437.14 1176.33 438.604 1173.48 438.685C1170.12 438.781 1167.37 436.989 1164.81 435.038C1162.85 431.33 1162.74 428.781 1163.11 424.714Z"/>
	<path fill="#000007" d="M1163.11 424.714C1165.63 422.249 1168.98 419.212 1172.64 418.887C1174.44 418.728 1175.84 419.063 1177.26 420.132L1176.87 421.315C1174.92 422.267 1174.84 422.252 1173.99 424.234C1170.68 424.306 1168.36 425.273 1165.89 427.476C1166.08 429.744 1167.01 432.494 1165.88 434.436L1164.81 435.038C1162.85 431.33 1162.74 428.781 1163.11 424.714Z"/>
	<path fill="white" d="M1310.59 183.419C1312.27 183.205 1313.87 183.218 1315.56 183.258C1316.07 183.827 1316.41 184.211 1316.73 184.916C1318.74 189.394 1320.75 204.354 1318.92 208.861C1311.86 211.136 1304.42 212.546 1297.09 213.578C1298.16 211.663 1298.36 210.019 1298.25 207.837C1297.95 202.035 1295.87 191.906 1291.47 187.916L1292.04 185.701L1293.49 185.398C1298.53 190.318 1299.32 207.37 1302.15 210.408C1302.18 210.265 1302.22 210.123 1302.25 209.979C1303.46 203.509 1299.74 191.203 1295.92 185.792C1301.02 185.399 1305.63 184.617 1310.59 183.419Z"/>
	<path fill="white" d="M1333.68 755.334C1332.94 751.149 1332.5 747.457 1334.97 743.653C1336.31 741.584 1338.3 740.321 1340.73 739.898C1344.92 739.166 1350.04 740.646 1353.45 743.141C1356.51 745.373 1359.23 749.227 1359.61 753.063Q1359.65 753.447 1359.65 753.833Q1359.65 754.219 1359.61 754.602Q1359.57 754.986 1359.5 755.365Q1359.42 755.743 1359.31 756.112Q1359.19 756.48 1359.05 756.836Q1358.9 757.192 1358.71 757.531Q1358.53 757.871 1358.31 758.19Q1358.1 758.51 1357.85 758.806C1355.17 762.049 1351.32 762.187 1347.49 762.792C1345.72 764.141 1342.64 764.554 1340.5 764.263C1336.49 762.215 1335.35 759.267 1333.68 755.334Z"/>
	<path fill="#000007" d="M1334.34 754.057C1334.47 750.35 1334.65 746.804 1337.6 744.099C1339.49 742.361 1341.97 741.677 1344.5 741.874C1347.94 742.142 1351.39 743.927 1353.61 746.565C1355.21 748.469 1356.24 750.93 1355.9 753.448C1355.61 755.524 1354.37 757.611 1352.67 758.843C1351.01 760.042 1348.73 760.737 1346.8 761.37C1345.77 761.489 1344.72 761.581 1343.68 761.479C1339.36 761.057 1336.88 757.141 1334.34 754.057Z"/>
	<path fill="white" d="M1341.63 746.056C1343.64 745.828 1345.85 745.666 1347.79 746.349C1349.68 747.016 1351.86 748.545 1352.69 750.431C1353.29 751.787 1353.35 753.044 1352.69 754.418C1351.78 756.342 1350.13 757.336 1348.23 758.061C1345.66 757.798 1342.75 757.74 1340.72 755.953C1339.52 754.905 1338.75 753.612 1338.69 751.999C1338.6 749.403 1339.96 747.864 1341.63 746.056Z"/>
	<path fill="#000007" d="M1343.5 748.301L1346.51 747.993C1347.95 748.904 1350.02 751.04 1350.35 752.747C1350.52 753.653 1349.45 754.417 1348.88 755.061C1348.65 755.56 1347.76 756.334 1347.42 756.707C1347.18 756.632 1346.93 756.591 1346.71 756.482C1344.44 755.353 1343.85 750.558 1343.5 748.301Z"/>
	<path fill="white" d="M994.683 460.967C998.092 461.609 1003.78 466.886 1007.05 468.909Q1007.58 475.274 1008.17 481.634L996.019 487.434C995.638 487.602 995.478 487.681 995.04 487.821C992.767 488.548 991.072 489.01 988.913 487.643C985.92 485.748 984.451 481.998 983.932 478.625C983.716 477.223 983.127 473.242 983.956 472.059C986.126 468.963 991.519 465.393 994.683 460.967Z"/>
	<path fill="#B0C2D7" d="M1105.28 356.374C1100.14 352.476 1022.66 351.71 1014.68 345.327L1015.34 344.5C1023.02 343.217 1101.7 350.082 1109.91 351.9L1110.38 352.922L1109.07 354.776C1107.54 355.123 1106.55 355.436 1105.28 356.374Z"/>
	<path fill="#B0C2D7" d="M1167.74 166.16C1170.39 165.847 1172.82 166.668 1175.09 167.956C1174 174.878 1159.19 215.004 1155.19 219.167L1155.15 220.769L1153.82 221.642L1152.55 221.165C1148.14 213.653 1167.79 177.025 1167.74 166.16Z"/>
	<path fill="white" d="M1126.61 372.728C1125.78 369.025 1124.99 365.273 1127.19 361.834C1128.72 359.453 1131.28 357.487 1134.07 356.887C1136.23 356.419 1138.68 356.751 1140.48 358.111C1142.21 359.424 1143.29 361.054 1143.48 363.21C1145 365.157 1145.79 367.221 1145.53 369.78C1145.3 371.996 1143.64 374.154 1141.86 375.381C1139.25 377.173 1135.67 377.909 1132.6 377.12C1130.09 376.475 1128.26 374.64 1126.61 372.728Z"/>
	<path fill="#0F172A" d="M1130.12 363.187C1132.59 361.173 1135.25 359.438 1138.63 359.926C1140.46 360.189 1141.57 361.227 1142.47 362.717C1142.88 363.389 1142.96 363.905 1143 364.677C1143.31 366.524 1143.81 367.566 1142.81 369.296C1142.5 369.817 1141.81 370.413 1141.41 370.823C1141.03 373.025 1140.9 372.897 1139.23 374.184C1137.09 374.576 1135.56 374.633 1133.43 374.164L1129.59 370.715C1129.58 368.19 1129.87 365.697 1130.12 363.187Z"/>
	<path fill="#000007" d="M1130.12 363.187C1132.59 361.173 1135.25 359.438 1138.63 359.926C1140.46 360.189 1141.57 361.227 1142.47 362.717C1142.88 363.389 1142.96 363.905 1143 364.677C1143.31 366.524 1143.81 367.566 1142.81 369.296C1142.5 369.817 1141.81 370.413 1141.41 370.823C1140.61 369.009 1140.7 366.976 1140.01 365.035C1137.91 363.747 1136.12 364.313 1133.72 364.466L1132.72 364.873L1130.12 363.187Z"/>
	<path fill="white" d="M155.901 872.812L211.33 872.488C223.929 872.449 237.879 871.243 250.214 873.777C249.376 873.978 248.538 874.158 247.697 874.345C242.815 875.431 237.937 875.663 232.961 875.964C217.62 876.127 202.219 875.702 186.875 875.516C171.171 875.326 155.329 875.398 139.677 874.034C144.705 872.58 150.689 872.952 155.901 872.812Z"/>
	<path fill="white" d="M488.738 146.037Q488.959 146.015 489.181 146.003Q489.403 145.992 489.626 145.991Q489.848 145.991 490.07 146.001Q490.292 146.011 490.514 146.032Q490.735 146.053 490.955 146.085Q491.175 146.117 491.393 146.159Q491.612 146.201 491.828 146.254Q492.044 146.307 492.257 146.37Q492.47 146.434 492.68 146.507Q492.89 146.581 493.096 146.664Q493.302 146.748 493.503 146.842Q493.705 146.935 493.902 147.039Q494.099 147.142 494.291 147.255Q494.482 147.367 494.668 147.489Q494.854 147.611 495.034 147.742Q495.214 147.873 495.387 148.012Q495.56 148.152 495.727 148.299Q495.893 148.447 496.052 148.602Q496.211 148.758 496.362 148.921Q496.513 149.084 496.657 149.254Q496.8 149.424 496.934 149.601Q497.069 149.778 497.195 149.962Q497.321 150.145 497.438 150.334Q497.555 150.523 497.662 150.718Q497.77 150.913 497.868 151.112Q497.966 151.312 498.054 151.516Q498.142 151.72 498.22 151.928Q498.299 152.137 498.367 152.348Q498.435 152.56 498.492 152.775Q498.55 152.99 498.597 153.207Q498.644 153.424 498.681 153.644Q498.717 153.863 498.743 154.084Q498.769 154.305 498.784 154.527Q498.799 154.749 498.803 154.971Q498.808 155.193 498.801 155.416Q498.795 155.638 498.777 155.86Q498.76 156.082 498.732 156.302Q498.704 156.523 498.665 156.742Q498.627 156.961 498.577 157.178Q498.528 157.395 498.468 157.609Q498.409 157.823 498.339 158.034Q498.268 158.245 498.188 158.453Q498.108 158.66 498.018 158.863Q497.927 159.067 497.828 159.265Q497.728 159.464 497.618 159.658Q497.509 159.851 497.39 160.039Q497.271 160.227 497.143 160.409Q497.015 160.591 496.879 160.767Q496.743 160.943 496.598 161.111Q496.453 161.28 496.3 161.442Q496.147 161.603 495.987 161.757Q495.826 161.911 495.659 162.057Q495.491 162.203 495.316 162.341Q495.141 162.478 494.96 162.607Q494.779 162.736 494.592 162.856Q494.405 162.976 494.212 163.087Q494.019 163.198 493.821 163.299Q493.623 163.401 493.421 163.492Q493.218 163.584 493.011 163.666Q492.804 163.747 492.594 163.819Q492.383 163.89 492.17 163.951Q491.956 164.013 491.739 164.063Q491.523 164.114 491.304 164.154Q491.085 164.194 490.865 164.224Q490.565 164.264 490.263 164.284Q489.96 164.305 489.658 164.305Q489.355 164.305 489.053 164.285Q488.75 164.265 488.45 164.226Q488.15 164.186 487.853 164.126Q487.556 164.067 487.264 163.988Q486.971 163.909 486.685 163.811Q486.398 163.713 486.119 163.596Q485.84 163.479 485.568 163.344Q485.297 163.209 485.036 163.056Q484.774 162.903 484.523 162.733Q484.273 162.564 484.034 162.378Q483.794 162.192 483.568 161.991Q483.342 161.789 483.129 161.574Q482.917 161.358 482.719 161.128Q482.521 160.899 482.339 160.657Q482.157 160.415 481.991 160.162Q481.825 159.908 481.676 159.644Q481.528 159.38 481.397 159.107Q481.266 158.834 481.153 158.553Q481.041 158.272 480.947 157.984Q480.853 157.696 480.778 157.402Q480.704 157.109 480.649 156.811Q480.594 156.513 480.559 156.212Q480.524 155.911 480.508 155.609Q480.493 155.306 480.498 155.003Q480.503 154.7 480.527 154.398Q480.552 154.097 480.597 153.797Q480.642 153.497 480.706 153.201Q480.77 152.905 480.854 152.614Q480.938 152.323 481.041 152.038Q481.144 151.753 481.265 151.476Q481.386 151.198 481.526 150.93Q481.666 150.661 481.823 150.402Q481.979 150.143 482.153 149.895Q482.327 149.646 482.517 149.41Q482.707 149.174 482.911 148.951Q483.116 148.728 483.336 148.519Q483.555 148.31 483.787 148.116Q484.02 147.922 484.265 147.744Q484.51 147.566 484.766 147.404Q485.022 147.242 485.288 147.098Q485.555 146.954 485.83 146.827Q486.105 146.701 486.388 146.593Q486.671 146.485 486.96 146.396Q487.25 146.307 487.545 146.237Q487.839 146.167 488.138 146.117Q488.437 146.067 488.738 146.037Z"/>
	<path fill="white" d="M248.633 325.374C250.063 333.82 249.959 342.811 250.183 351.367Q250.66 377.612 250.564 403.861C250.588 412.714 250.319 421.762 251.561 430.542L248.813 429.419C246.973 423.868 247.654 334.514 248.633 325.374Z"/>
	<path fill="white" d="M1105.28 356.374C1106.55 355.436 1107.54 355.123 1109.07 354.776C1111.23 359.818 1108.95 375.613 1107.01 380.669C1106.68 381.523 1106.11 382.332 1105.56 383.054C1105.39 382.975 1105.23 382.893 1105.06 382.818C1097.32 379.306 1087.33 377.943 1078.99 376.063C1063.03 372.464 1047 369.076 1031.17 364.939C1027.66 364.02 1023.96 363.849 1020.57 362.542C1030.24 363.271 1094.9 376.8 1101.82 380.04C1104.32 375.776 1106.87 362.166 1105.57 357.325C1105.48 357.005 1105.38 356.691 1105.28 356.374Z"/>
	<path fill="#B0C2D7" d="M1259.11 894.16C1263.32 893.423 1269.03 893.041 1272.71 890.85C1274.52 893.347 1275.61 895.477 1275.18 898.642C1275.11 899.19 1275 899.727 1274.87 900.266C1271.42 903.366 1265.1 905.199 1260.52 905.458C1261.12 904.283 1261.39 903.374 1261.46 902.041C1261.59 899.166 1261.07 896.331 1259.11 894.16Z"/>
	<path fill="#B0C2D7" d="M179.272 303.657C196.726 308.457 214.136 306.406 231.791 308.698C217.067 309.903 195.252 311.01 181.127 308.175C179.731 306.905 179.7 305.443 179.272 303.657Z"/>
	<path fill="white" d="M967.546 478.715C968.706 479.993 969.093 480.306 969.486 482.035C968.459 483.715 966.524 484.164 964.772 484.823C963.428 483.887 962.752 482.951 962.453 481.387C964.048 479.595 965.356 479.428 967.546 478.715Z"/>
	<path fill="#000007" d="M1249.82 273.691C1249.33 274.78 1248.84 275.084 1247.84 275.706L1246.67 274.686C1246.17 273.345 1245.94 272.412 1246.14 270.975C1246.28 270.025 1246.34 269.273 1246.22 268.314C1246.18 267.992 1246.13 267.671 1246.09 267.35L1246.57 267.187C1248.31 268.806 1250.24 269.812 1250.46 272.238L1249.82 273.691Z"/>
</svg>
