<?xml version="1.0" encoding="utf-8" ?>
<svg xmlns="http://www.w3.org/2000/svg" xmlns:xlink="http://www.w3.org/1999/xlink" width="1536" height="1024">
	<path fill="#0F172A" d="M0 0L57.9098 0L1476.46 0L1534.69 0C1535.35 1.05454 1535.76 2.06213 1535.88 3.31831C1536.55 10.6571 1536.98 48.5821 1535.78 54.764C1535.61 55.6239 1535.34 56.2261 1534.97 57.0122C1536.44 60.295 1535.99 64.2642 1536.01 67.7893L1536.02 760.086C1536.02 779.235 1537.43 958.444 1535.21 964.339C1535.15 964.489 1535.09 964.636 1535.03 964.784C1536.43 968.021 1536.96 1018.09 1535.53 1022.29C1535.33 1022.91 1535.03 1023.46 1534.69 1024L1480.33 1024L54.397 1024L0 1024L0 968.073L0 57.2609L0 0Z"/>
	<path fill="white" d="M828.69 116.645C831.912 120.339 835.835 128.368 836.403 133.168L834.818 135.086C834.217 134.917 833.641 134.741 833.054 134.527C830.351 133.541 827.793 131.762 826.679 129C824.928 124.659 826.846 120.539 828.69 116.645Z"/>
	<path fill="#F99835" d="M565.221 521.556L574.711 521.312C572.862 526.21 570.673 531.012 568.625 535.833C568.482 535.784 568.331 535.753 568.195 535.687C566.208 534.726 561.88 529.403 561.145 527.195C560.483 525.207 560.308 524.27 561.289 522.468L565.221 521.556Z"/>
	<path fill="#B3A293" d="M575.395 324.962C583.588 324.282 592.907 326.248 600.433 329.457C605.359 331.557 611.559 334.815 613.522 340.191C614.489 342.841 614.022 344.575 612.915 347.08C610.764 345.959 608.968 343.316 607.155 341.664C604.156 338.933 600.442 336.443 596.851 334.562C591.128 331.565 578.86 330.197 574.812 326.715L575.395 324.962Z"/>
	<path fill="white" d="M622.484 346.363C622.517 343.661 621.79 336.104 623.168 334.123C625.669 333.441 627.829 332.801 630.459 333.082C632.123 334.085 632.038 334.016 632.576 335.889C631.268 344.617 619.376 356.678 614.017 363.503C610.826 368.119 607.541 372.694 604.583 377.464L603.496 376.744C604.132 374.587 604.065 372.353 604.56 370.172C605.352 366.682 607.872 365.589 610.703 363.805L612.212 360.046L611.68 359.681L613.166 357.789C613.127 357.541 613.072 357.296 613.05 357.046C613.035 356.88 613.052 356.712 613.053 356.545C617.022 353.426 619.994 350.818 622.484 346.363Z"/>
	<path fill="#F99835" d="M529.385 427.012C530.478 426.807 530.661 426.862 531.672 427.183C531.584 428.073 531.506 428.863 531.249 429.726C530.21 433.209 524.958 448.406 522.257 449.792L519.261 447.624L513.306 441.92C512.521 439.249 511.958 436.477 511.316 433.766C517.081 430.571 523.013 428.568 529.385 427.012Z"/>
	<path fill="#B3A293" d="M563.664 335.481C568.701 335.809 573.686 336.363 578.62 337.463C585.684 339.039 597.983 342.46 601.926 349.092C603.172 351.189 603.899 353.102 603.269 355.498L602.11 355.987L600.799 354.326C600.138 353.405 599.455 352.486 598.661 351.672C590.639 343.45 567.536 342.129 556.366 342.365C558.733 340.01 561.229 337.765 563.664 335.481Z"/>
	<path fill="#B3A293" d="M589.295 360.673C590.426 361.674 591.06 362.798 591.666 364.173C593.185 367.623 596.049 373.916 594.236 377.631C593.665 378.8 592.918 379.617 591.726 380.095C586.486 382.197 579.075 377.957 574.343 375.805C570.58 373.979 566.977 371.701 563.356 369.603C573.545 368.231 581.504 367.986 589.295 360.673Z"/>
	<path fill="white" d="M655.525 303.072L655.749 303.291C656.092 305.467 641.49 324.08 639.139 327.34C635.438 325.527 631.618 324.232 627.724 322.912C623.768 324.242 619.932 326.061 616.097 327.709L610.097 323.727C625.588 318.43 642.206 312.813 655.525 303.072Z"/>
	<path fill="#B3A293" d="M556.932 351.298C564.684 350.954 574.561 350.342 581.58 354.089L581.527 356.054C577.129 359.141 569.802 359.88 564.571 360.938C559.102 362.114 553.533 364.666 547.966 365.105C545.49 365.3 544.15 364.832 542.33 363.277C542.461 361.976 542.455 361.486 543.183 360.401C546.528 355.416 551.155 352.432 556.932 351.298Z"/>
	<path fill="#B3A293" d="M648.533 293.419C650.182 293.378 650.239 293.232 651.479 294.28C651.026 295.184 650.67 295.618 649.873 296.276C643.406 301.614 600.88 319.61 593.845 318.832C592.006 318.209 590.152 317.651 588.292 317.093L588.573 316.484C600.411 307.319 633.525 297.294 648.533 293.419Z"/>
	<path fill="#F99835" d="M503.421 441.682C506.506 444.64 508.255 448.99 511.564 451.974C526.955 465.857 548.197 473.675 567.054 481.638C571.653 483.58 576.569 485.061 580.998 487.354C581.154 487.435 581.309 487.519 581.464 487.602C573.19 487.947 562.939 484.545 555.096 482C538.236 476.53 511.347 464.997 503.191 447.991C502.072 445.656 502.654 444.014 503.421 441.682Z"/>
	<path fill="white" d="M1055.89 439.983L1056.18 440.37C1055.95 442.681 1022.63 473.354 1018 477.185C1017.91 466.42 1028.83 453.329 1029.36 444.487C1038.09 443.835 1047.12 441.226 1055.89 439.983Z"/>
	<path fill="white" d="M866.575 253.899C873.306 252.987 880.824 253.954 887.578 254.373C879.561 263.53 869.571 271.316 860.618 279.573L849.026 290.297Q853.161 272.294 857.997 254.466L866.575 253.899Z"/>
	<path fill="#F99835" d="M487.452 682.518C487.68 682.7 487.912 682.876 488.135 683.064C494.921 688.797 514.843 731.309 518.326 740.274C520.317 745.4 522.066 750.534 522.643 756.033C521.587 755.763 521.043 755.492 520.162 754.809C504.389 742.576 490.216 701.765 487.452 682.518Z"/>
	<path fill="#F99835" d="M647.101 543.728C654.576 547.666 661.058 556.325 666.277 562.88C668.592 565.787 675.332 573.364 674.942 576.767L670.501 577.573C660.72 579.152 651.234 577.887 641.597 576.144C643.096 565.302 645.21 554.51 647.101 543.728Z"/>
	<path fill="white" d="M0 968.073C5.72809 988.425 15.0524 1005.24 34.0861 1016.02C40.4599 1019.63 47.354 1022.07 54.397 1024L0 1024L0 968.073Z"/>
	<path fill="white" d="M1535.03 964.784C1536.43 968.021 1536.96 1018.09 1535.53 1022.29C1535.33 1022.91 1535.03 1023.46 1534.69 1024L1480.33 1024C1497.38 1019.76 1511.21 1012.45 1522.14 998.278C1528.27 990.327 1536.4 975.374 1535.03 964.784Z"/>
	<path fill="white" d="M0 0L57.9098 0C37.3768 5.18685 21.3136 13.035 9.96122 31.8333C5.14709 39.8049 2.48495 48.3676 0 57.2609L0 0Z"/>
	<path fill="white" d="M1476.46 0L1534.69 0C1535.35 1.05454 1535.76 2.06213 1535.88 3.31831C1536.55 10.6571 1536.98 48.5821 1535.78 54.764C1535.61 55.6239 1535.34 56.2261 1534.97 57.0122C1535.74 49.533 1528.7 35.6616 1524.67 29.5541C1513.17 12.1245 1496.28 4.07946 1476.46 0Z"/>
	<path fill="#F99835" d="M552.206 529.31C555.385 532.113 558.347 537.115 561.219 540.463C568.216 548.619 576.436 555.302 585.269 561.384C611.038 579.129 643.377 591.685 674.864 585.891L672.335 592.435C664.049 596.452 649.24 594.246 640.244 592.744C604.249 586.732 570.435 566.572 549.201 536.834C550.069 534.303 551.207 531.796 552.206 529.31Z"/>
	<path fill="#F99835" d="M453.408 582.038C471.015 592.652 485.362 611.854 497.302 628.262Q491.86 637.43 487.032 646.936C485.51 650.04 483.707 655.052 481.195 657.443C479.982 658.598 479.685 658.554 478.028 658.559C476.102 653.7 475.621 648.08 474.501 642.974C473.252 637.276 471.582 631.632 469.942 626.035C465.434 610.658 459.109 596.894 453.408 582.038Z"/>
	<path fill="white" d="M840.762 168.764L841.292 169.422C843.241 182.84 837.478 205.496 833.818 218.686C817.733 217.994 801.572 219.943 785.437 219.399L784.287 218.913C785.188 216.3 834.438 174.212 840.762 168.764Z"/>
	<path fill="white" d="M651.638 110.929L717.226 111.004Q705.819 121.05 695 131.727Q684.08 142.477 672.732 152.773C663.736 140.107 656.96 125.483 651.638 110.929Z"/>
	<path fill="white" d="M775.373 66.7587C791.165 75.7106 806.148 87.1958 817.93 101.048C806.419 101.254 794.888 101.182 783.375 101.243L739.895 101.186C751.396 89.4284 764.349 78.9683 775.373 66.7587Z"/>
	<path fill="white" d="M1026.39 352.105L1027.49 353.201C1030.11 367.611 1022.48 388.865 1015.62 401.542C997.822 407.342 980.471 411.455 961.957 414.256C962.201 409.517 1018.84 362.071 1026.39 352.105Z"/>
	<path fill="white" d="M1180.14 566.009L1181.22 566.158C1181.45 566.721 1181.67 567.192 1181.67 567.816C1181.73 579.807 1173.29 615.61 1166.08 624.547Q1144.11 624.353 1122.18 623.003L1118.97 622.353C1122.3 618.152 1127.12 614.532 1131.14 610.918Q1144.85 598.54 1158.74 586.376C1165.8 580.179 1174.63 573.658 1180.14 566.009Z"/>
	<path fill="#F99835" d="M396.649 554.067C402.437 554.662 435.228 573.116 440.743 577.834C444.316 588.057 449.581 597.823 453.584 607.915C459.415 622.611 463.279 637.82 466.956 653.168L459.481 651.404C445.899 628.541 433.597 605.498 418.859 583.238C412.181 573.152 402.6 564.437 396.649 554.067Z"/>
	<path fill="white" d="M1185.57 670.284C1193.74 668.514 1221.41 677.103 1230.82 679.56C1230.79 679.693 1230.78 679.831 1230.74 679.96C1229.79 682.84 1199.97 710.458 1196.5 712.52C1196.46 712.673 1196.43 712.832 1196.37 712.977C1194.84 716.481 1176.15 733.32 1172.2 735.172C1175.77 728.335 1174.56 714.825 1176.18 706.594C1177.74 698.64 1185.93 676.636 1185.57 670.284Z"/>
	<path fill="white" d="M396.911 571.235C406.635 576.999 439.327 634.566 445.779 647.288C436.641 644.272 427.327 641.743 418.081 639.08L403.518 635.012C391.791 622.668 378.706 611.849 365.744 600.851C370.903 601.158 375.986 601.307 381.125 600.575C391.171 599.146 397.895 594.806 403.903 586.755C400.325 581.788 398.457 577.154 396.911 571.235Z"/>
	<path fill="#B3A293" d="M548.434 373.222C552.378 372.62 556.213 371.415 560.172 370.783C560.509 371.565 560.439 371.2 560.434 372.141C560.433 372.375 560.421 372.609 560.415 372.843C564.624 379.885 580.684 386.82 588.102 389.054C595.875 386.696 598.82 383.361 603.496 376.744L604.583 377.464C601.541 383.087 596.83 388.299 592.952 393.409L568.226 426.338C561.983 434.677 554.642 443.142 550.234 452.618C548.552 456.234 547.891 460.279 547.141 464.172C541.737 461.475 536.443 458.544 531.123 455.686C536.822 436.853 545.583 418.108 554.616 400.683C553.549 391.191 551.331 382.306 548.434 373.222Z"/>
	<path fill="#F99835" d="M487.127 830.146C492.123 836.621 496.804 850.712 500.172 858.555C511.023 883.822 521.865 909.565 531.278 935.403C540.687 961.231 548.778 987.422 556.965 1013.65L522.696 1013.74Q520.148 990.473 516.645 967.331Q513.142 944.189 508.69 921.211Q504.238 898.232 498.845 875.456Q493.452 852.681 487.127 830.146Z"/>
	<path fill="white" d="M1193.75 647.78C1217.98 647.376 1273.03 668.164 1294.62 680.704C1325.73 698.774 1351.34 723.3 1369.05 754.627C1373.49 762.472 1377.89 770.604 1380.21 779.38C1378.57 781.14 1377.19 781.354 1374.99 782.084C1373.8 783.085 1372.41 783.488 1370.98 784.055C1370.15 783.885 1369.39 784.006 1368.92 783.263C1365.43 777.781 1363.62 771.182 1360.62 765.402C1357.06 758.52 1351.55 751.601 1346.99 745.319C1310.45 694.984 1248.91 669.303 1189.08 659.739C1189.26 659.555 1189.46 659.376 1189.64 659.187C1192.13 656.582 1193.88 651.339 1193.75 647.78Z"/>
	<path fill="#F99835" d="M282.147 554.762C288.598 551.517 292.601 548.072 300.092 547.088C299.716 554.963 303.84 560.294 308.94 565.909C318.852 576.822 330.992 585.701 342.663 594.608C357.643 606.039 373.112 617.544 387.019 630.281C365.387 622.632 342.964 617.043 320.699 611.54C312.862 609.603 303.186 609.103 295.891 606.012C282.407 600.298 267.793 589.044 261.081 575.965C265.927 565.975 273.316 560.956 282.147 554.762Z"/>
	<path fill="white" d="M637.812 103.538C639.412 104.146 639.849 105.273 640.419 106.881C650.845 136.289 663.269 161.082 685.187 183.77C712.851 212.406 749.176 226.955 788.648 228.737C802.928 229.382 817.331 228.328 831.644 228.569C830.819 232.245 830.173 237.672 828.018 240.758C826.634 242.742 825.233 242.503 823.019 242.791C782.954 244.005 751.702 242.964 715.287 224.006C668.828 199.82 642.314 155.904 627.022 107.369C630.636 106.151 634.219 104.819 637.812 103.538Z"/>
	<path fill="#B3A293" d="M307.148 549.556C307.234 549.379 307.315 549.198 307.406 549.023C310.714 542.64 321.89 541.907 326.626 535.748C331.178 529.829 329.341 519.05 331.703 516.486C332.661 515.446 334.649 514.362 335.864 513.535C347.144 521.196 357.421 530.263 368.871 537.659C373.097 540.388 387.084 546.42 389.502 549.34C388.912 550.491 388.635 551.54 388.393 552.806C386.136 564.609 387.875 576.681 394.674 586.643L394.058 587.007C383.131 593.315 368.212 593.793 356.229 590.496C341.02 586.312 314.957 563.361 307.148 549.556Z"/>
	<path fill="white" d="M898.47 256.488C915.498 256.68 933.567 261.293 949.479 267.085C941.664 275.815 931.86 283.582 923.175 291.485L876.125 334.681L851.763 356.512C846.788 339.564 844.38 320.272 847.658 302.765C863.7 286.717 881.365 271.414 898.47 256.488Z"/>
	<path fill="white" d="M816.335 116.901C816.699 119.366 816.669 121.713 816.793 124.188C817.054 129.404 819.527 137.066 823.674 140.464C828.293 144.248 834.038 143.905 839.597 143.437L841.022 155.354C820.051 175.512 794.887 199.899 771.689 217.123C765.609 216.384 759.659 215.118 753.668 213.874Q746.129 211.677 738.867 208.69Q731.605 205.702 724.702 201.958L776.173 154.297C789.444 141.8 802.357 128.591 816.335 116.901Z"/>
	<path fill="white" d="M729.429 111.098C756.111 110.351 782.879 110.774 809.572 110.903L738.983 176.966C731.543 183.599 724.415 190.621 717.191 197.49C701.441 186.769 689.689 175.376 677.896 160.405C687.06 150.596 697.367 141.856 707.056 132.567C714.414 125.513 721.375 117.322 729.429 111.098Z"/>
	<path fill="white" d="M1070.09 439.23C1086.38 438.158 1111.28 442.475 1124.45 452.441C1123.94 453.885 1048.91 525.918 1042.67 529.252C1040.88 533.688 1021.7 549.683 1017.16 553.78C1012.1 533.147 1011.3 513.931 1014.31 492.894C1021.25 487.283 1067.19 444.329 1070.09 439.23Z"/>
	<path fill="white" d="M1004.89 301.418Q1007.93 304.207 1010.62 307.332Q1013.3 310.457 1015.61 313.875C1019.73 319.868 1027.2 332.035 1025.84 339.291C1023.34 345.381 956.273 405.69 945.484 414.683C936.219 414.597 927.295 413.964 918.191 412.181C909.558 410.176 901.513 407.361 893.432 403.737C911.984 385.387 931.775 368.396 951.044 350.824C969.04 334.412 986.466 317.355 1004.89 301.418Z"/>
	<path fill="white" d="M1239.49 683.789C1240.79 683.591 1241.98 683.565 1243.27 683.85C1252.09 685.788 1285.44 699.603 1289.89 706.963C1289.88 707.102 1289.88 707.243 1289.84 707.378C1289.15 710.029 1217.07 779.805 1210.02 784.129C1209.99 784.263 1209.98 784.401 1209.94 784.53C1208.69 787.981 1197.84 797.121 1194.36 798.87C1193.79 793.874 1186.27 785.928 1183.9 781.029C1179.8 772.559 1176.76 752.247 1173.62 747.554C1177.88 745.187 1238.2 686.541 1239.49 683.789Z"/>
	<path fill="white" d="M1168.67 499.993C1168.88 500.028 1169.09 500.035 1169.29 500.097C1171.45 500.762 1172.22 502.896 1173.11 504.842C1177.37 514.108 1184.45 542.249 1181.01 551.852C1179.4 555.775 1111.82 618.394 1104.58 621.443C1094.79 620.165 1085.22 617.851 1075.64 615.461C1069.3 612.418 1062.81 609.596 1056.33 606.844C1058.43 605.584 1168.01 500.996 1168.67 499.993Z"/>
	<path fill="white" d="M1297.63 713.048C1299.39 712.909 1300.65 713.563 1302.07 714.522C1308.53 718.869 1331.64 738.168 1332.96 744.874C1332.91 745.128 1332.87 745.384 1332.8 745.635C1332.31 747.568 1329.78 749.784 1328.42 751.193C1320.45 759.414 1243.01 836.289 1241.31 837.067C1239.92 837.698 1238.34 836.72 1237 836.248C1235.81 833.993 1223.68 827.487 1220.81 825.315C1213.6 819.846 1208.1 811.641 1200.59 806.679C1204.71 804.338 1296.97 714.142 1297.63 713.048Z"/>
	<path fill="white" d="M958.041 271.245C969.718 272.689 989.406 287.631 998.412 295.181C988.143 303.921 978.497 313.38 968.581 322.51C943.087 345.984 917.739 369.977 891.73 392.858L884.357 399.099C871.692 390.351 862.64 379.114 855.45 365.584C865.361 355.369 876.432 346.109 886.994 336.58C910.797 315.107 935.239 293.76 958.041 271.245Z"/>
	<path fill="white" d="M1132.55 457.983C1134.37 457.833 1135.41 458.288 1136.97 459.216C1145.72 464.433 1162.05 480.077 1164.75 490.179C1163.81 493.327 1057.85 594.184 1050.28 598.877L1049.24 600.599L1048.02 600.592C1034.64 589.835 1027.04 578.924 1020.53 563.316C1049.39 534.17 1080.78 507.086 1110.61 478.888C1115.65 474.127 1129.34 463.145 1132.55 457.983Z"/>
	<path fill="white" d="M736.743 25.1632Q747.437 28.2114 757.79 32.2703Q768.143 36.3293 778.06 41.3618C801.631 53.2439 822.093 68.8789 838.652 89.5294C867.42 125.405 869.607 170.694 859.504 214.061C848.425 261.614 826.134 309.389 842.594 358.704C850.583 382.639 866.127 401.085 888.844 412.279C926.151 430.664 972.215 425.392 1010.29 412.55L1005.08 421.487L999.582 430.892C969.448 438.571 937.566 441.525 907.118 433.629C879.042 426.348 854.686 409.817 839.907 384.51C817.885 346.801 821.136 303.175 831.622 262.391C835.456 247.479 840.389 232.858 844.268 217.952C853.459 182.626 855.331 142.105 836.168 109.714C815.678 75.0803 774.824 50.6394 736.66 40.7797C736.555 35.5796 736.692 30.3642 736.743 25.1632Z"/>
	<path fill="#F99835" d="M497.593 457.252C501.612 460.472 504.429 465.232 508.577 468.433C530.042 485 558.187 494.888 585.058 497.113C583.193 502.442 581.124 507.624 578.906 512.814C571.051 512.546 561.494 511.96 554.052 514.757C551.35 515.772 549.488 517.049 547.801 519.424C541.546 528.231 537.706 540.152 533.368 550.038Q524.903 568.913 516.153 587.658Q509.18 603.304 501.626 618.678C490.079 600.635 473.951 586.751 456.903 574.103Q478.009 515.943 497.593 457.252Z"/>
	<path fill="white" d="M1063.05 414.472Q1067.76 414.213 1072.48 414.267Q1077.2 414.322 1081.9 414.688Q1086.61 415.055 1091.28 415.733Q1095.95 416.411 1100.56 417.397Q1102.14 417.72 1103.72 418.081Q1105.29 418.442 1106.86 418.842Q1108.42 419.242 1109.98 419.681Q1111.54 420.119 1113.08 420.596Q1114.62 421.072 1116.16 421.587Q1117.69 422.101 1119.21 422.653Q1120.72 423.205 1122.23 423.794Q1123.73 424.383 1125.22 425.009Q1126.71 425.634 1128.19 426.297Q1129.66 426.959 1131.12 427.657Q1132.58 428.356 1134.02 429.09Q1135.46 429.823 1136.88 430.593Q1138.3 431.362 1139.7 432.165Q1141.1 432.969 1142.48 433.807Q1143.86 434.645 1145.23 435.517Q1146.59 436.389 1147.93 437.294Q1149.26 438.199 1150.58 439.136Q1151.9 440.074 1153.19 441.044Q1154.48 442.013 1155.75 443.015Q1157.02 444.016 1158.26 445.048Q1159.51 446.08 1160.72 447.142Q1161.94 448.204 1163.13 449.296Q1164.32 450.388 1165.49 451.509Q1166.65 452.63 1167.79 453.779Q1168.93 454.928 1170.03 456.105Q1171.14 457.282 1172.22 458.486Q1173.3 459.689 1174.35 460.919Q1175.39 462.149 1176.41 463.404Q1177.43 464.659 1178.42 465.939Q1179.4 467.219 1180.36 468.523Q1181.31 469.826 1182.24 471.153Q1183.16 472.48 1184.05 473.829C1210.63 514.933 1211.12 568.006 1196.64 613.528C1187.31 642.888 1173.82 671.154 1167.43 701.415C1160.43 734.479 1163.25 768.378 1182.04 797.141C1205.37 832.863 1241.57 854.496 1282.86 863.113C1283.2 863.737 1283.49 864.272 1283.65 864.973C1284.51 868.704 1284.44 874.142 1282.34 877.401C1274.14 874.927 1265.78 872.829 1257.51 870.583C1253.2 867.237 1240.95 863.871 1235.17 861.163C1225.15 856.467 1215.42 850.225 1206.48 843.729C1185.55 828.523 1168.28 807.781 1158.74 783.652C1143.32 744.621 1149.17 702.343 1162.99 663.716C1170.92 641.55 1180.85 619.452 1186.5 596.584Q1187.54 592.446 1188.37 588.263Q1189.2 584.079 1189.82 579.859Q1190.44 575.639 1190.85 571.394Q1191.27 567.148 1191.47 562.888Q1191.67 558.627 1191.66 554.361Q1191.65 550.096 1191.43 545.836Q1191.21 541.576 1190.78 537.333Q1190.35 533.089 1189.71 528.872C1184.68 497.745 1168.36 470.067 1142.63 451.633C1118.61 434.428 1088.86 427.111 1059.52 429.633C1051.12 430.355 1042.91 432.201 1034.6 433.568C1034.97 433.272 1035.43 432.927 1035.76 432.574C1038.36 429.832 1043.84 420.396 1043.64 416.513L1063.05 414.472Z"/>
	<path fill="white" d="M865.466 229.632Q866.47 229.632 867.474 229.644C921.85 230.272 982.56 244.588 1021.64 284.893C1053.96 318.226 1059.88 361.021 1040.96 403.031C1033.42 419.759 1022.8 434.959 1015.68 451.869C1007.75 470.719 1002.82 491.813 1002.5 512.288C1002.02 543.005 1009.15 576.252 1031.34 598.906C1065.37 633.663 1117.26 633.391 1162.49 634.069C1162.54 634.39 1162.64 634.708 1162.65 635.033C1162.76 638.124 1159.89 644.909 1157.83 647.041C1157.79 647.575 1157.5 648.152 1157.32 648.658C1109.19 647.667 1058.26 645.243 1022.35 608.897C981.196 567.242 981.018 499.045 1002.24 447.827C1015.73 415.252 1037.33 392.34 1037.5 354.845C1037.6 331.873 1028.58 311.341 1012.52 295.135C972.8 255.076 915.672 244.583 861.433 244.337L865.466 229.632Z"/>
	<path fill="white" d="M457.056 815.84L472.906 818.029C485.484 854.528 493.465 892.846 500.468 930.759C505.535 958.186 510.296 985.964 512.638 1013.77C496.897 1014.17 481.121 1013.99 465.375 1014Q438.1 1014.04 410.828 1013.65C440.363 952.502 458.439 883.946 457.056 815.84Z"/>
	<path fill="white" d="M700.735 269.082C706.784 268.947 765.781 290.305 773.396 295.005C766.734 310.441 746.087 334.35 735.443 348.51Q715.377 375.504 695.951 402.963C686.55 404.955 677.163 408.571 668.013 411.526C674.133 400.167 676.876 388.172 676.514 375.25C676.33 368.669 675.158 356.482 669.753 351.848C668.478 350.755 666.91 350.286 665.247 350.513C654.835 351.935 650.7 370.389 646.812 378.623C644.917 382.636 642.443 386.106 639.781 389.634C618.784 413.86 604.004 427.926 596.994 460.356C588.219 455.857 579.487 451.201 570.507 447.122C583.476 431.108 595.349 414.064 607.419 397.359L666.234 315.384C673.936 304.632 691.97 276.383 700.735 269.082Z"/>
	<path fill="#0F172A" d="M709.082 280C709.226 280.015 709.37 280.027 709.512 280.047C715.752 280.919 745.915 292.446 749.089 297.162C750.166 298.761 749.565 300.058 749.288 301.836C747.811 302.236 746.358 302.58 744.823 302.337C739.23 301.453 712.397 291.153 709.209 286.98C708.262 284.485 708.664 282.536 709.082 280Z"/>
	<path fill="#B3A293" d="M664.011 361.312C664.184 361.474 664.365 361.628 664.53 361.799C667.563 364.939 667.203 374.669 667.032 378.652C666.576 389.216 664.053 404 656.834 412.26C655.131 414.209 652.79 415.536 650.915 417.315C649.285 418.861 647.956 420.901 648.032 423.24C648.076 424.597 648.519 424.645 649.406 425.572C651.407 426.116 653.141 425.992 655.148 425.537C662.834 423.796 670.116 420.082 677.606 417.665C689.6 413.794 701.189 411.363 712.589 405.729C717.012 403.543 744.793 387.505 745.527 387.413C745.678 387.883 745.764 388.043 745.804 388.505C745.985 390.601 744.573 393.354 743.735 395.234C737.967 408.181 722.99 416.319 711.043 422.953C706.915 425.246 701.652 427.68 698.699 431.476C697.314 433.255 697.106 434.014 697.278 436.204C698.505 437.32 698.916 437.867 700.635 438.057C708.437 438.922 733.394 420.352 740.002 414.715C732.187 434.751 709.895 437.243 704.576 449.353C703.636 451.493 704.078 452.666 704.939 454.634L706.694 455.153C714.525 453.642 723.418 445.148 729.84 440.412C726.09 455.499 713.455 454.547 704.66 464.521C702.957 466.453 702.922 467.524 703.041 469.927C704.397 471.796 704.689 471.998 706.836 472.856C709.114 472.568 709.618 472.434 711.458 471.081C715.23 467.77 719.389 464.883 723.428 461.908C722.184 465.691 721.092 469.312 718.366 472.308C712.895 478.319 705.027 481.787 698.135 485.871C684.599 493.893 653.764 510.851 643.327 520.303C637.861 535.219 634.869 557.669 632.606 573.646C611.395 567.498 591.922 557.362 575.922 541.923C583.604 525.944 595.475 499.241 600.74 482.479C605.575 467.085 607.504 451.382 614.698 436.687C624.002 417.682 642.384 405.178 653.506 387.516C658.483 379.611 660.242 369.857 664.011 361.312Z"/>
	<path fill="white" d="M147.54 10.1275C233.95 8.44622 321.336 9.79401 407.841 9.82195L835.36 10.2269Q835.094 40.6558 835.207 71.0844C831.657 67.5119 827.996 63.9819 824.21 60.661C802.779 41.8641 778.34 28.7232 751.584 19.1502C745.856 17.1009 737.746 13.7634 731.623 14.6267C729.239 14.9628 728.559 16.1487 727.087 17.8656C726.886 25.7362 724.958 38.1516 727.497 45.5902C728.237 47.758 729.508 49.2802 731.515 50.3793C735.985 52.827 743.103 53.2457 748.092 54.6998C754.763 56.6436 761.04 59.498 767.314 62.4463C754.255 75.8599 740.325 88.4136 726.723 101.273L648.514 101.261C648.331 100.637 648.131 100.023 647.939 99.4019C647.461 97.8647 647.066 96.1424 646.047 94.8668C644.926 93.4631 643.999 92.9096 642.162 92.8473C636.576 92.6576 621.622 97.5748 617.341 101.255L114.52 101.253L114.242 10.219L147.54 10.1275Z"/>
	<path fill="#F99835" d="M226.433 739.932C233.038 744.399 237.627 751.19 244.865 755.156C256.805 761.696 270.415 765.7 283.219 770.192C326.299 785.306 371.389 797.261 415.847 807.621C426.392 810.078 437.066 811.91 447.62 814.328C448.606 886.571 430.419 948.752 400.494 1013.63C383.627 1013.4 366.744 1013.52 349.875 1013.5L128.116 1013.62C135.496 990.77 146.68 968.379 155.808 946.144C181.805 882.817 213.407 806.875 226.433 739.932Z"/>
	<path fill="#F99835" d="M544.937 546.565C547.174 548.404 549.23 551.65 551.156 553.915C555.923 559.524 560.695 564.562 566.503 569.1C594.894 591.284 631.449 606.695 668.032 602.214C664.377 609.944 661.757 618.353 658.546 626.298L633.683 687.908C621.105 719.283 609.518 751.514 588.371 778.388C574.273 796.304 555.738 810.532 532.444 813.189C517.664 814.874 501.582 813.397 486.9 811.369C424.496 802.75 361.96 785.385 302.079 766.133C282.452 759.823 257.788 753.907 241.613 740.922C224.647 727.302 216.427 705.75 214.184 684.643C209.965 644.953 231.163 614.687 255.022 585.105C255.807 585.575 255.673 585.398 256.16 585.957C261.823 592.446 267.306 597.89 274.424 602.795C271.064 602.617 267.681 602.399 264.316 602.371C261.351 602.347 259.485 602.762 257.343 604.854C257.152 606.831 257.282 607.229 258.109 609.048C258.984 609.676 259.705 610.155 260.782 610.369C266.799 611.57 273.176 611.966 279.264 612.852Q293.521 615.046 307.555 618.377C334.393 624.766 360.823 632.496 387.386 639.901C414.688 647.512 442.194 654.772 468.834 664.519C464.894 675.717 465.742 687.863 467.353 699.425C471.148 726.668 480.916 757.192 504.021 774.185C506.651 776.119 512.433 779.26 515.726 778.535C516.858 778.286 516.766 778.019 517.383 777.136C517.3 776.45 517.326 775.079 517.065 774.493C515.631 771.274 501.633 763.143 498.153 759.179C481.678 740.416 471.24 699.498 473.362 674.961C473.537 672.932 473.727 670.857 475.367 669.479C476.958 670.357 477.391 671.889 477.866 673.606C479.627 679.972 480.6 686.669 482.118 693.112Q484.358 702.379 487.416 711.409Q490.474 720.438 494.325 729.159C499.004 739.56 510.03 760.098 520.996 763.727C522.562 764.245 524.212 764.262 525.694 763.477C527.448 762.547 528.48 760.718 528.963 758.851C533.645 740.74 497.156 684.159 487.401 666.428C494.225 654.776 500.061 642.402 506.083 630.314Q526.632 588.961 544.937 546.565Z"/>
	<path fill="white" d="M1022.44 10.1275C1081.74 9.27891 1141.16 9.94132 1200.47 9.86803Q1311.07 9.47083 1421.66 10.3039C1422.03 10.8869 1422.17 11.0372 1422.41 11.6317C1423.88 15.2425 1423.43 117.45 1422.91 128.473C1422.84 129.932 1422.47 131.252 1421.94 132.612L1244.81 132.659L870.37 132.646C864.673 113.103 857.104 98.1558 845.285 81.579L845.235 10.2856L1022.44 10.1275Z"/>
	<path fill="#0F172A" d="M1271.63 59.6385C1283.74 57.8895 1297.13 59.0967 1309.41 59.106C1324.93 59.1178 1341.02 58.274 1356.48 59.4015C1358.73 59.5655 1361.06 59.8392 1363.03 61.0253C1366.72 63.2484 1369.05 66.6074 1369.9 70.8172C1370.74 74.985 1369.8 80.0857 1367.33 83.5654C1365.15 86.6327 1361.88 87.7716 1358.39 88.516C1350.95 90.2339 1286.75 89.8289 1276.78 88.8542C1272.37 88.4232 1267.71 86.5618 1264.95 82.9414C1262.68 79.9511 1262.15 76.1108 1262.78 72.4823C1263.82 66.4305 1266.78 63.1351 1271.63 59.6385Z"/>
	<path fill="#0F172A" d="M1095.8 59.6368C1107.78 57.6187 1131.9 59.1203 1145.01 59.0727L1200.39 58.881C1210.58 58.8801 1221 58.417 1231.14 59.3873C1231.86 59.6672 1232.57 59.9546 1233.27 60.296Q1233.94 60.6253 1234.58 61.0222Q1235.22 61.419 1235.81 61.8791Q1236.41 62.3393 1236.95 62.8579Q1237.49 63.3765 1237.98 63.948Q1238.47 64.5196 1238.89 65.1382Q1239.32 65.7567 1239.68 66.4157Q1240.04 67.0746 1240.33 67.7671Q1240.62 68.4596 1240.84 69.1782C1242.15 73.3782 1241.8 78.0864 1239.49 81.8842C1237.22 85.6067 1234.23 87.491 1230.12 88.4834C1226.74 89.4612 1109.6 89.38 1099.79 88.2411C1095.64 87.7601 1091.58 85.6468 1089.08 82.2274C1086.96 79.3265 1086.48 75.77 1087.07 72.2928C1088.09 66.3478 1091.05 63.0828 1095.8 59.6368Z"/>
	<path fill="white" d="M1432.57 10.8765C1440.61 9.01274 1469.75 9.66858 1478.45 10.9141Q1479.78 11.1123 1481.09 11.3755Q1482.41 11.6387 1483.71 11.9663Q1485.01 12.2938 1486.29 12.6849Q1487.58 13.076 1488.84 13.5297Q1490.1 13.9834 1491.34 14.4986Q1492.58 15.0138 1493.79 15.5892Q1495.01 16.1647 1496.19 16.799Q1497.37 17.4334 1498.52 18.1251Q1499.67 18.8167 1500.79 19.5641Q1501.9 20.3115 1502.98 21.1127Q1504.05 21.9139 1505.09 22.767Q1506.13 23.6202 1507.12 24.5232Q1508.11 25.4263 1509.06 26.377Q1510.01 27.3277 1510.91 28.3238Q1511.8 29.3199 1512.65 30.359Q1513.5 31.3981 1514.3 32.4777C1520.87 41.5357 1524.28 52.2178 1524.8 63.3482C1525.8 84.5741 1524.82 106.336 1524.81 127.613L1524.66 260.376L1524.63 666.548L1524.6 873.488L1524.79 933.984C1524.82 945.509 1525.81 958.056 1523.9 969.438C1522.2 979.526 1517.19 991.938 1508.63 998.12C1508.27 999.384 1507.61 999.919 1506.69 1000.84C1489.58 1018.19 1454.52 1013.79 1431.68 1013.61C1431.85 1013.31 1432.04 1013.03 1432.2 1012.73C1433.92 1009.42 1433.17 614.182 1433.19 576.314L1433.36 139.971L1433.35 51.3055C1433.35 42.2003 1434.78 18.2611 1432.57 10.8765Z"/>
	<path fill="white" d="M71.487 10.1239Q87.8293 10.0246 104.171 10.1934L104.162 1013.48C85.6241 1013.61 64.6032 1015.71 46.6993 1010.87C39.4738 1007.85 32.8627 1003.92 27.2008 998.461C15.9368 987.602 10.7767 972.876 10.6146 957.448C10.3621 933.422 10.8818 909.349 10.9469 885.318L11.0768 744.324L11.2295 349.542L11.2329 152.963L11.1899 91.9135C11.1876 80.1097 10.563 67.9042 11.7746 56.1626C12.9359 44.9087 18.9497 34.2549 26.8272 26.2948C39.4276 13.5621 54.2048 10.2944 71.487 10.1239Z"/>
	<path fill="white" d="M114.488 111.013L618.008 111.042C628.687 147.209 646.901 181.17 674.805 206.901C705.792 235.476 743.804 251.003 785.888 253.057C798.669 253.681 811.552 252.873 824.332 252.364C815.779 285.703 809.71 319.053 817.485 353.203C824.582 384.371 842.181 410.829 869.457 427.857C906.981 451.283 952.811 451.581 994.708 441.921Q993.134 445.442 991.704 449.025Q990.274 452.607 988.99 456.245Q987.707 459.882 986.572 463.569Q985.438 467.255 984.453 470.985Q983.469 474.715 982.637 478.481Q981.805 482.248 981.127 486.045Q980.448 489.842 979.924 493.664Q979.4 497.485 979.032 501.325C975.692 539.227 984.727 579.542 1009.6 609.08C1036.41 640.923 1073.48 652.862 1113.81 656.342C1127.04 657.484 1140.32 657.507 1153.54 658.656C1153.96 660.181 1143.01 699.49 1142.02 704.838Q1141.41 708.103 1140.94 711.392Q1140.47 714.681 1140.14 717.988Q1139.82 721.294 1139.63 724.611Q1139.45 727.929 1139.41 731.251Q1139.38 734.573 1139.49 737.893Q1139.59 741.214 1139.85 744.527Q1140.1 747.84 1140.49 751.138Q1140.89 754.437 1141.43 757.715C1148.15 798.246 1172.21 831.351 1205.23 854.972Q1209.24 857.785 1213.4 860.389Q1217.55 862.992 1221.83 865.38Q1226.11 867.768 1230.5 869.934Q1234.9 872.1 1239.4 874.038Q1243.9 875.977 1248.49 877.682Q1253.09 879.387 1257.76 880.855Q1262.44 882.324 1267.18 883.55Q1271.93 884.777 1276.73 885.76C1280.51 886.518 1286.19 888.074 1289.92 887.241C1291.29 886.936 1291.7 886.443 1292.31 885.243C1293.89 882.112 1295.11 859.152 1294.07 855.96C1286.79 853.245 1279.09 852.279 1271.62 850.26C1263.63 848.103 1255.9 845.062 1248.07 842.4C1255.13 838.823 1311.57 781.289 1321.15 771.995C1326.87 766.443 1333.83 761.263 1339.06 755.315C1339.66 754.628 1339.97 753.952 1340.35 753.136C1349.8 759.371 1356.41 782.306 1361.9 792.28C1362.57 793.491 1363.51 795.147 1364.95 795.435C1369.65 796.368 1385.07 789.878 1388.73 787.087C1389.96 786.153 1391.69 784.56 1391.77 782.897C1392.29 772.574 1369.01 735.404 1362.06 726.295C1328.78 682.662 1280.85 657.835 1228.45 644.642C1218.2 642.062 1207.73 639.227 1197.26 637.814C1197.61 637.419 1197.97 637.036 1198.31 636.633C1201.28 633.124 1202.91 626.428 1204.32 622.094C1212.72 596.343 1217.23 569.451 1215.46 542.319C1212.79 501.301 1196.73 466.106 1165.72 438.912C1142.6 418.636 1111.76 406.664 1081.11 404.901C1070.3 404.278 1059.54 405.129 1048.76 405.856C1048.95 405.699 1049.14 405.549 1049.33 405.383C1056.35 399.006 1061.23 368.699 1061.5 358.693C1062.33 327.941 1050.66 301.712 1029.7 279.559C988.116 235.628 926.761 221.862 868.379 220.358C874.169 193.698 875.481 169.207 872.716 142.044L1421.75 142.628C1422.2 143.409 1422.56 144.235 1422.73 145.125C1424.26 153.084 1422.98 183.737 1422.98 194.498L1422.84 322.418L1422.7 819.496L1422.69 947.27C1422.68 967.833 1423.9 989.681 1422.55 1010.1C1422.46 1011.42 1422.09 1012.41 1421.41 1013.54L567.244 1013.93C563.083 1002.89 560.169 991.1 556.621 979.82Q547.628 951.679 537.254 924.017Q525.394 893.361 512.616 863.077C506.63 849.178 499.841 835.344 494.823 821.075C511.205 825.006 534.224 824.058 550.147 818.825C601.635 801.901 625.023 735.301 643.222 689.839Q658.241 652.007 673.675 614.342C678.469 602.727 682.68 590.708 688.379 579.502C680.433 561.861 665.024 544.53 649.457 533.234L651.229 524.957C663.53 518.594 675.178 510.752 687.14 503.766C698.335 497.227 711.17 491.76 721.022 483.266C723.299 481.302 725.791 479.043 727.298 476.407C729.341 472.832 737.086 448.414 738.306 443.402C739.064 440.289 739.198 436.829 739.452 433.637C746.641 424.865 747.992 418.857 747.731 407.706C750.012 403.964 752.067 400.319 753.394 396.122C755.597 389.154 755.339 383.178 751.965 376.72C759.367 365.886 803.637 314.769 804.525 308.041C805.332 301.922 800.655 294.845 796.983 290.36C794.844 287.746 792.388 285.245 789.371 283.662C777.951 277.67 763.859 274.468 751.611 270.164C738.717 265.632 725.976 260.028 712.887 256.146Q707.652 254.562 702.206 254.053C683.526 252.443 674.047 284.732 661.981 295.045C661.713 292.271 661.62 289.499 659.514 287.412C657.21 285.128 653.726 284.238 650.567 284.364C641.982 284.705 633.139 288.062 625.103 290.9C601.338 299.293 582.92 308.038 563.383 324.186C559.813 327.137 555.685 329.901 552.583 333.332C549.933 336.263 547.984 339.889 545.739 343.131C541.167 349.735 533.996 355.961 534.667 364.773C534.959 368.608 536.72 370.741 539.526 373.07Q542.548 385.634 545.31 398.257Q540.432 407.313 536.046 416.617C526.944 418.002 516.696 420.606 508.44 424.722C504.152 426.86 499.66 429.752 497.084 433.904C488.31 448.043 479.924 480.123 474.302 496.825C466.278 520.665 457.483 544.243 449.545 568.116C447.954 568.831 446.041 569.22 444.359 569.723C429.487 559.076 411.962 553.222 396.943 543.192C395.36 544.834 391.451 548.605 389.502 549.34C387.084 546.42 373.097 540.388 368.871 537.659C357.421 530.263 347.144 521.196 335.864 513.535C334.649 514.362 332.661 515.446 331.703 516.486C329.341 519.05 331.178 529.829 326.626 535.748C321.89 541.907 310.714 542.64 307.406 549.023C307.315 549.198 307.234 549.379 307.148 549.556L305.044 548.935C303.715 549.47 302.69 549.87 301.225 549.882L300.092 547.088C292.601 548.072 288.598 551.517 282.147 554.762L281.767 553.9C282.826 552.133 284.903 551.52 286.718 550.582C285.169 548.647 279.612 550.124 276.894 547.292C271.43 552.231 265.153 555.709 259.987 561.193C256.051 565.373 255.178 570.213 251.99 574.515C248.373 579.396 243.803 583.731 239.958 588.476C227.464 603.892 215.877 621.426 209.379 640.303C198.4 672.192 204.074 700.946 218.436 730.565C200.846 815.419 165.495 897.137 132.244 976.879C130.142 981.92 119.634 1009.89 118.157 1011.84C117.148 1013.17 116.829 1013.19 115.206 1013.48L114.782 1012.76C115.352 1010.64 115.08 1007.95 115.107 1005.74L114.051 1005.64L114.437 1005.26L114.488 111.013Z"/>
	<path fill="#0F172A" d="M467.814 336.945C470.327 336.878 473.11 337.274 475.435 338.274C479.429 339.993 482.551 343.176 484.028 347.275Q484.312 348.077 484.514 348.904Q484.717 349.73 484.836 350.572Q484.955 351.415 484.99 352.265Q485.025 353.115 484.974 353.965Q484.924 354.814 484.79 355.654Q484.655 356.494 484.437 357.317Q484.22 358.139 483.921 358.936Q483.622 359.733 483.246 360.496C480.854 365.422 477.323 367.508 472.333 369.275C468.478 369.307 465.46 369.4 461.993 367.468Q461.256 367.051 460.566 366.561Q459.875 366.071 459.238 365.513Q458.601 364.955 458.024 364.335Q457.447 363.716 456.937 363.04Q456.426 362.365 455.986 361.641Q455.547 360.917 455.184 360.152Q454.82 359.388 454.537 358.59Q454.253 357.792 454.052 356.969C452.962 352.613 453.55 348.001 455.932 344.161C458.842 339.471 462.802 338.188 467.814 336.945Z"/>
	<path fill="#F99835" d="M467.855 345.013C468.336 345.098 468.814 345.204 469.287 345.325C472.073 346.039 474.347 347.071 475.769 349.713Q475.943 350.036 476.082 350.376Q476.222 350.715 476.326 351.068Q476.43 351.42 476.497 351.78Q476.564 352.141 476.594 352.507Q476.623 352.873 476.616 353.24Q476.608 353.607 476.562 353.971Q476.516 354.336 476.434 354.693Q476.351 355.051 476.232 355.398C475.185 358.429 472.98 359.813 470.312 361.22C467.219 360.512 464.702 359.776 462.939 356.852C461.858 355.059 461.569 353.135 462.117 351.111C462.989 347.89 465.14 346.54 467.855 345.013Z"/>
	<path fill="#0F172A" d="M427.019 311.442C430.475 311.295 433.662 311.38 436.883 312.796C441.548 314.847 445.035 318.62 446.802 323.387C448.543 328.087 448.448 333.51 446.232 338.038C443.399 343.825 438.809 346.333 432.944 348.384C428.774 348.44 425.183 348.509 421.368 346.557C416.905 344.274 413.484 340.364 412.027 335.548Q411.892 335.104 411.78 334.655Q411.668 334.205 411.578 333.75Q411.489 333.295 411.422 332.836Q411.355 332.378 411.311 331.916Q411.267 331.455 411.247 330.992Q411.226 330.529 411.228 330.065Q411.231 329.601 411.256 329.139Q411.282 328.676 411.33 328.215Q411.379 327.754 411.45 327.296Q411.522 326.838 411.616 326.384Q411.711 325.93 411.828 325.481Q411.944 325.033 412.084 324.591Q412.223 324.148 412.384 323.714Q412.545 323.279 412.727 322.853Q412.91 322.427 413.113 322.01Q413.317 321.594 413.541 321.188C416.538 315.827 421.3 313.12 427.019 311.442Z"/>
	<path fill="#F99835" d="M427.61 319.518C429.074 319.478 430.627 319.399 432.064 319.715C434.72 320.298 437.081 322.164 438.454 324.483C439.947 327.007 440.036 330.064 439.196 332.833C437.963 336.898 435.341 338.513 431.906 340.52C430.561 340.487 429.065 340.507 427.748 340.221Q427.22 340.103 426.707 339.932Q426.194 339.762 425.701 339.54Q425.207 339.318 424.739 339.048Q424.271 338.777 423.832 338.46Q423.394 338.144 422.99 337.784Q422.585 337.425 422.22 337.026Q421.854 336.628 421.53 336.195Q421.207 335.761 420.929 335.297C419.456 332.82 419.208 329.872 420.017 327.127C421.237 322.984 424.031 321.348 427.61 319.518Z"/>
	<path fill="#0F172A" d="M824.955 808.871C831.243 808.49 837.17 809.421 842.651 812.682Q843.234 813.029 843.799 813.405Q844.365 813.781 844.91 814.184Q845.456 814.588 845.981 815.018Q846.506 815.449 847.009 815.905Q847.511 816.361 847.991 816.842Q848.47 817.323 848.925 817.826Q849.379 818.331 849.808 818.857Q850.237 819.383 850.639 819.93Q851.041 820.477 851.416 821.043Q851.79 821.609 852.135 822.194Q852.481 822.778 852.797 823.379Q853.113 823.98 853.398 824.596Q853.683 825.212 853.938 825.841Q854.192 826.471 854.415 827.112Q854.637 827.753 854.827 828.405Q855.018 829.057 855.175 829.717Q855.325 830.361 855.443 831.012Q855.56 831.663 855.646 832.319Q855.731 832.975 855.783 833.634Q855.835 834.293 855.855 834.955Q855.874 835.616 855.861 836.277Q855.847 836.938 855.801 837.598Q855.755 838.258 855.675 838.914Q855.596 839.571 855.484 840.223Q855.372 840.875 855.228 841.521Q855.084 842.166 854.908 842.804Q854.732 843.441 854.524 844.069Q854.316 844.697 854.078 845.314Q853.839 845.931 853.57 846.535Q853.301 847.139 853.002 847.729Q852.703 848.319 852.375 848.893Q852.047 849.468 851.691 850.025C846.92 857.406 839.7 860.778 831.344 862.472C824.87 862.802 817.969 861.328 812.453 857.866Q811.896 857.519 811.358 857.144Q810.82 856.77 810.301 856.368Q809.782 855.967 809.284 855.54Q808.786 855.113 808.31 854.662Q807.834 854.21 807.382 853.735Q806.929 853.261 806.501 852.764Q806.073 852.266 805.67 851.748Q805.268 851.23 804.892 850.693Q804.516 850.155 804.168 849.599Q803.819 849.044 803.499 848.471Q803.179 847.898 802.889 847.31Q802.598 846.722 802.337 846.12Q802.076 845.518 801.846 844.904Q801.616 844.289 801.417 843.664Q801.218 843.039 801.051 842.404Q800.884 841.77 800.749 841.128Q800.615 840.489 800.513 839.845Q800.411 839.2 800.34 838.551Q800.27 837.903 800.231 837.251Q800.192 836.6 800.186 835.947Q800.179 835.294 800.204 834.642Q800.23 833.99 800.287 833.34Q800.344 832.69 800.433 832.043Q800.522 831.397 800.643 830.755Q800.764 830.114 800.915 829.479Q801.068 828.845 801.25 828.218Q801.433 827.592 801.647 826.975Q801.86 826.358 802.103 825.753Q802.347 825.147 802.62 824.555Q802.892 823.962 803.194 823.383Q803.495 822.804 803.825 822.241Q804.154 821.677 804.511 821.131C809.374 813.81 816.626 810.601 824.955 808.871Z"/>
	<path fill="#F99835" d="M824.682 817.778C828.238 817.57 831.822 817.883 835.125 819.304Q835.553 819.484 835.971 819.686Q836.389 819.888 836.797 820.111Q837.204 820.333 837.6 820.577Q837.995 820.82 838.378 821.083Q838.761 821.346 839.129 821.628Q839.498 821.911 839.852 822.211Q840.206 822.512 840.544 822.83Q840.882 823.148 841.204 823.483Q841.525 823.818 841.829 824.17Q842.133 824.521 842.419 824.887Q842.705 825.253 842.972 825.633Q843.239 826.013 843.486 826.406Q843.733 826.799 843.959 827.205Q844.186 827.61 844.392 828.026Q844.598 828.442 844.782 828.869Q844.967 829.295 845.129 829.73Q845.423 830.524 845.636 831.344Q845.849 832.163 845.978 833Q846.107 833.837 846.152 834.682Q846.197 835.528 846.157 836.374Q846.117 837.219 845.992 838.057Q845.867 838.894 845.658 839.715Q845.45 840.535 845.16 841.331Q844.87 842.127 844.502 842.889C841.676 848.683 836.878 851.396 830.995 853.385C826.915 853.478 823.079 853.023 819.396 851.137Q818.594 850.735 817.836 850.256Q817.077 849.776 816.37 849.223Q815.664 848.671 815.016 848.05Q814.367 847.43 813.784 846.748Q813.201 846.067 812.688 845.33Q812.176 844.594 811.739 843.81Q811.303 843.026 810.946 842.202Q810.59 841.379 810.317 840.524Q810.061 839.687 809.891 838.828Q809.721 837.969 809.638 837.097Q809.556 836.225 809.562 835.35Q809.567 834.474 809.661 833.604Q809.755 832.733 809.937 831.876Q810.118 831.02 810.385 830.186Q810.651 829.352 811.001 828.549Q811.35 827.746 811.779 826.983C814.706 821.787 819.152 819.397 824.682 817.778Z"/>
	<path fill="#0F172A" d="M875.496 820.921C886.387 820.455 933.505 819.048 940.98 821.782C944.135 822.936 946.992 824.988 948.194 828.235C949.815 832.614 949.679 841.31 947.628 845.477C945.97 848.844 942.799 850.016 939.483 851.099C926.723 851.309 913.935 851.045 901.17 851.093C893.801 851.121 885.779 851.825 878.49 851.08C875.885 850.814 873.248 850.174 870.957 848.873C867.906 847.14 865.802 844.286 864.953 840.889C863.686 835.818 864.895 829.157 867.885 824.871C869.857 822.046 872.35 821.574 875.496 820.921Z"/>
	<path fill="white" d="M875.367 829.9Q907.514 829.921 939.655 830.523C939.735 834.267 939.432 837.92 939.087 841.646Q907.143 841.82 875.2 841.465C875.199 837.612 875.309 833.753 875.367 829.9Z"/>
	<path fill="#0F172A" d="M823.193 872.582C829.589 871.985 835.445 872.312 841.308 875.149Q841.919 875.448 842.515 875.777Q843.111 876.106 843.69 876.464Q844.269 876.822 844.829 877.207Q845.39 877.593 845.931 878.006Q846.472 878.419 846.992 878.858Q847.513 879.297 848.011 879.761Q848.509 880.225 848.983 880.713Q849.458 881.201 849.908 881.711Q850.358 882.222 850.782 882.754Q851.207 883.286 851.605 883.838Q852.002 884.391 852.373 884.962Q852.743 885.533 853.085 886.122Q853.426 886.711 853.739 887.315Q854.051 887.92 854.333 888.539Q854.616 889.159 854.867 889.791Q855.119 890.424 855.339 891.068C857.579 897.676 857.18 905.246 854.023 911.489C849.714 920.011 842.358 924.071 833.643 927.017C827.363 927.659 821.082 926.975 815.365 924.164Q814.777 923.877 814.204 923.561Q813.631 923.245 813.074 922.901Q812.517 922.557 811.978 922.186Q811.439 921.815 810.92 921.417Q810.4 921.019 809.901 920.596Q809.401 920.173 808.923 919.726Q808.446 919.279 807.991 918.808Q807.536 918.338 807.105 917.845Q806.674 917.352 806.268 916.839Q805.862 916.325 805.483 915.792Q805.103 915.259 804.75 914.708Q804.397 914.157 804.072 913.589Q803.747 913.021 803.451 912.437Q803.154 911.854 802.887 911.256Q802.62 910.658 802.383 910.048Q802.146 909.438 801.94 908.817Q801.724 908.15 801.54 907.474Q801.356 906.797 801.206 906.112Q801.056 905.428 800.939 904.736Q800.822 904.045 800.739 903.349Q800.656 902.653 800.607 901.954Q800.558 901.254 800.544 900.554Q800.529 899.853 800.549 899.152Q800.568 898.451 800.622 897.752Q800.676 897.053 800.763 896.358Q800.851 895.662 800.973 894.972Q801.094 894.281 801.249 893.598Q801.404 892.914 801.593 892.239Q801.781 891.564 802.002 890.898Q802.223 890.233 802.476 889.579Q802.73 888.926 803.014 888.285Q803.299 887.645 803.615 887.019C807.797 878.915 814.87 875.318 823.193 872.582Z"/>
	<path fill="#F99835" d="M825.476 881.56C829.503 881.374 833.219 881.629 836.906 883.418Q837.318 883.615 837.718 883.833Q838.119 884.05 838.508 884.289Q838.897 884.527 839.273 884.785Q839.65 885.043 840.012 885.32Q840.374 885.598 840.722 885.893Q841.069 886.189 841.401 886.502Q841.732 886.815 842.047 887.145Q842.362 887.475 842.66 887.821Q842.958 888.167 843.237 888.528Q843.516 888.889 843.776 889.263Q844.036 889.638 844.277 890.026Q844.517 890.414 844.737 890.813Q844.957 891.213 845.156 891.624Q845.356 892.034 845.533 892.454Q845.711 892.875 845.866 893.304Q846.022 893.733 846.155 894.169C847.619 898.818 847.116 904.189 844.763 908.459C841.826 913.789 837.564 915.875 831.928 917.544C827.821 917.673 824.356 917.712 820.524 916.01C816.113 914.05 812.459 910.358 810.828 905.784C809.18 901.165 809.505 895.765 811.875 891.443C814.977 885.787 819.532 883.4 825.476 881.56Z"/>
	<path fill="#0F172A" d="M1005 800.846C1005.87 800.924 1006.78 801.006 1007.61 801.278C1011.11 802.429 1017.52 812.919 1019.76 816.179L1063.86 879.631C1071.29 890.097 1107.29 937.778 1109.57 945.107C1110.07 946.72 1109.24 947.577 1108.41 948.828C1107.29 949.438 1106.26 949.784 1104.98 949.881C1089.43 951.05 1072.19 949.808 1056.45 949.797L952.125 949.742C938.758 949.725 921.4 951.114 908.539 949.942C906.096 949.719 904.988 949.23 903.444 947.393C902.157 940.147 916.674 922.501 920.981 915.937C910.411 915.955 885.262 917.391 876.069 915.613C873.154 915.05 870.405 913.952 868.274 911.809C865.639 909.159 864.703 905.362 864.666 901.723C864.626 897.776 865.091 891.73 868.071 888.856C870.318 886.689 873.543 885.805 876.578 885.464C884.082 884.622 892.288 885.779 899.886 885.835C914.377 885.942 928.89 885.62 943.38 885.442Q963.521 858.291 982.946 830.623C989.957 820.781 996.805 809.714 1005 800.846Z"/>
	<path fill="white" d="M874.564 894.861C889.148 894.947 988.578 893.458 994.613 895.967C995.972 896.532 996.781 897.475 997.28 898.844C998.15 901.231 997.018 903.637 996.029 905.786C995.03 906.159 994.005 906.452 992.947 906.605C983.915 907.913 880.857 907.332 876.714 905.933C876.224 905.767 875.872 905.331 875.45 905.03C874.085 901.872 874.512 898.231 874.564 894.861Z"/>
	<path fill="#F99835" d="M1006.01 814.324C1006.81 814.854 1007.39 815.427 1008.05 816.136C1011.3 819.655 1014.03 824.57 1016.77 828.535Q1025.24 840.745 1033.84 852.858L1074.46 910.982C1080.2 919.21 1086.46 927.175 1091.94 935.568C1092.91 937.044 1093.46 938.187 1093.42 939.997C1047.75 942.092 1001.44 940.698 955.687 940.596L916.329 940.429C921.297 931.978 927.272 923.988 933.032 916.061C946.313 915.902 959.617 916.174 972.9 916.239C979.562 916.272 986.97 916.929 993.518 915.674C997.046 914.998 1000.52 913.547 1003.15 911.047C1005.81 908.513 1007.14 905.221 1007.28 901.578C1007.43 897.747 1006.41 893.896 1003.65 891.113C995.598 882.995 967.358 885.513 955.528 885.352C972.444 861.771 989.809 838.404 1006.01 814.324Z"/>
	<path d="M267.434 302.002C271.549 299.634 275.731 297.232 280.174 295.535Q281.745 294.951 283.342 294.444Q284.939 293.938 286.56 293.51Q288.18 293.082 289.819 292.734Q291.458 292.385 293.112 292.118Q294.766 291.85 296.432 291.664Q298.097 291.477 299.769 291.372Q301.442 291.267 303.117 291.244Q304.793 291.221 306.467 291.28Q308.142 291.339 309.812 291.48Q311.482 291.621 313.143 291.843Q314.803 292.065 316.452 292.368Q318.1 292.671 319.731 293.054Q321.362 293.437 322.973 293.9Q324.583 294.362 326.17 294.903Q327.756 295.444 329.313 296.061Q330.871 296.679 332.397 297.372C343.02 302.301 349.412 309.43 353.416 320.332C356.764 321.727 360.263 323.078 363.402 324.902C374.833 331.544 382.985 344 382.208 357.511C381.943 362.122 380.322 368.005 381.623 372.43C381.667 372.581 381.723 372.729 381.773 372.878C388.854 377.573 385.304 386.123 399.145 387.606C406.505 388.394 425.636 381.094 427.193 389.769C428.335 396.131 425.621 404.041 423.241 409.845C425.661 410.383 429.129 410.814 431.265 412.036C431.911 412.406 443.678 426.373 444.575 427.749C447.075 431.586 446.482 437.453 446.508 441.91C453.176 452.034 461.047 463.651 458.457 476.423C456.315 486.987 447.586 495.165 438.862 500.742C433.479 504.183 427.405 506.949 421.391 509.114C416.392 510.913 408.5 511.678 404.435 514.939C402.057 524.303 399.831 533.989 396.943 543.192C395.36 544.834 391.451 548.605 389.502 549.34C387.084 546.42 373.097 540.388 368.871 537.659C357.421 530.263 347.144 521.196 335.864 513.535C334.649 514.362 332.661 515.446 331.703 516.486C329.341 519.05 331.178 529.829 326.626 535.748C321.89 541.907 310.714 542.64 307.406 549.023C307.315 549.198 307.234 549.379 307.148 549.556L305.044 548.935C303.715 549.47 302.69 549.87 301.225 549.882L300.092 547.088C292.601 548.072 288.598 551.517 282.147 554.762L281.767 553.9C282.826 552.133 284.903 551.52 286.718 550.582C285.169 548.647 279.612 550.124 276.894 547.292C271.928 546.376 267.157 544.421 262.414 542.723C260.445 544.321 258.433 545.81 256.268 547.137C245.986 553.438 232.952 555.286 221.274 552.34C208.458 549.106 199.887 541.171 193.31 530.082Q192.109 529.985 190.916 529.819Q189.74 529.66 188.573 529.443Q187.406 529.226 186.251 528.951Q185.096 528.676 183.957 528.344Q182.817 528.012 181.696 527.623Q180.574 527.234 179.474 526.79Q178.373 526.345 177.296 525.847Q176.218 525.348 175.167 524.796Q174.117 524.244 173.094 523.641Q172.072 523.037 171.082 522.383Q170.091 521.729 169.134 521.027Q168.177 520.324 167.257 519.575Q166.336 518.825 165.454 518.031Q164.572 517.236 163.731 516.399Q162.889 515.561 162.091 514.683Q161.292 513.804 160.539 512.887Q159.785 511.97 159.078 511.016C151.375 500.518 149.298 487.507 151.31 474.831C146.427 467.387 142.682 459.238 141.74 450.308C140.066 434.44 146.795 421.809 156.52 409.89C153.041 397.704 152.812 385.352 157.775 373.535C164.106 358.463 175.633 349.106 190.376 342.979C194.738 330.881 201.083 320.45 211.619 312.795C228.743 300.354 247.219 298.704 267.434 302.002Z"/>
	<path fill="white" d="M310.204 328.927C310.915 329.404 311.549 330.075 312.187 330.65C315.517 339.387 320.595 360.41 318.628 369.095C318.04 371.692 317.102 372.452 314.983 373.728C307.853 374.73 286.681 363.006 278.742 359.437C279.721 371.267 286.863 404.438 283.919 413.648C283.19 415.931 281.645 417.723 279.422 418.653C269.916 422.631 245.243 409.202 235.414 404.719C236.249 414.248 239.814 442.493 237.421 450.194C236.848 452.037 235.778 453.623 233.954 454.398C227.504 457.138 198.825 442.752 191.357 439.41C190.501 448.387 191.326 471.976 187.894 478.755C186.998 480.525 185.656 481.763 183.69 482.21C176.419 483.866 165.844 475.437 160.115 471.531C159.24 470.807 159.46 471.159 159.017 470.172C158.562 469.157 158.997 468.797 159.361 467.805C165.04 467.27 172.071 475.824 177.808 477.648C180.094 478.375 181.16 478.085 183.141 477.048C188.294 470.372 184.532 450.487 187.26 441.613C187.811 439.82 188.667 438.001 190.459 437.158C195.459 434.803 225.078 449.27 233.167 451.586C234.303 440.935 229.706 409.303 233.25 402.625C233.842 401.511 234.495 400.799 235.865 400.802C243.812 400.814 269.484 418.384 277.006 415.932C286.973 412.684 270.984 367.571 276.061 356.926C284.01 351.928 304.097 369.71 314.061 369.117C320.325 363.251 306.082 338.491 310.204 328.927Z"/>
	<path fill="#B3A293" d="M334.397 349.965C348.559 355.864 362.249 365.069 373.188 375.801C376.756 375.545 378.952 375.27 381.773 372.878C388.854 377.573 385.304 386.123 399.145 387.606C406.505 388.394 425.636 381.094 427.193 389.769C428.335 396.131 425.621 404.041 423.241 409.845C425.661 410.383 429.129 410.814 431.265 412.036C431.911 412.406 443.678 426.373 444.575 427.749C447.075 431.586 446.482 437.453 446.508 441.91C453.176 452.034 461.047 463.651 458.457 476.423C456.315 486.987 447.586 495.165 438.862 500.742C433.479 504.183 427.405 506.949 421.391 509.114C416.392 510.913 408.5 511.678 404.435 514.939L403.228 513.145C403.354 512.162 403.499 511.15 403.502 510.158C403.508 508.18 403.578 507.236 402.168 505.87C398.945 506.005 395.836 505.805 392.625 505.532C377.725 505.002 364.87 503.115 350.509 499.067C348.344 496.469 345.764 494.269 343.266 492.002C341.859 494.425 340.5 496.92 338.925 499.237C334.891 505.176 328.594 509.992 321.451 511.314C313.878 512.717 305.96 510.536 299.77 506.071C292.408 500.761 286.921 492.472 285.648 483.418C284.74 476.958 286.396 470.177 290.464 465.015C299.493 453.558 309.862 460.981 321.006 459.418C322.081 459.267 323.447 458.295 324.029 457.401C327.012 452.821 319.536 452.83 320.693 448.851C322.456 442.795 326.55 437.451 328.616 431.436C337.702 404.983 340.627 377.381 334.397 349.965Z"/>
	<path d="M368.2 396.097C368.389 396.089 368.577 396.079 368.766 396.073C373.663 395.923 377.732 398.225 381.223 401.534C383.571 403.759 385.575 407.058 385.479 410.4C385.387 413.626 383.426 415.352 381.203 417.327C381.057 417.323 380.912 417.321 380.766 417.315C375.417 417.11 370.993 414.108 367.468 410.203C365.508 408.032 363.669 404.702 363.969 401.689C364.24 398.955 366.21 397.66 368.2 396.097Z"/>
	<path fill="#0F172A" d="M362.798 375.786C363.132 375.783 363.466 375.769 363.799 375.777C365.731 375.823 368.517 376.936 369.716 378.488C370.534 379.547 370.198 379.789 370.041 381.032C367.652 383.812 363.638 385.282 360.505 387.142C349.131 393.894 350.207 403.736 347.32 415.156C345.877 416.131 344.878 416.311 343.159 416.487C342.084 415.903 341.734 415.949 341.179 414.776C339.035 410.242 341.909 401.224 343.499 396.842C347.149 386.779 353.245 380.335 362.798 375.786Z"/>
	<path fill="#0F172A" d="M306.204 467.445Q307.944 467.457 309.68 467.576C320.788 468.38 329.466 473.971 336.559 482.215C333.009 487.736 329.03 493.182 322.939 496.093C320.087 497.456 316.915 498.061 313.904 496.836C310.007 495.25 308.367 491.893 306.931 488.244C307.319 486.203 307.819 484.118 308.96 482.35C311.722 478.073 317.718 477.429 322.305 476.385C317.676 475.025 313.069 473.642 308.199 473.596C297.722 473.497 302.743 480.057 297.512 484.257C296.074 485.411 295.385 485.531 293.641 485.229C293.531 484.977 293.405 484.731 293.31 484.474C292.363 481.908 294.407 477.069 295.525 474.715C297.397 470.776 302.348 468.82 306.204 467.445Z"/>
	<path fill="#B3A293" d="M327.944 480.37C328.59 480.725 329.02 481.607 329.426 482.2C329.102 484.249 328.241 485.411 326.809 486.882C323.59 490.192 320.153 492.164 315.511 492.36C313.849 490.258 313.314 489.061 313.388 486.459C315.883 482.331 322.971 482.436 327.235 480.669L327.944 480.37Z"/>
	<path fill="#0F172A" d="M381.773 372.878C388.854 377.573 385.304 386.123 399.145 387.606C406.505 388.394 425.636 381.094 427.193 389.769C428.335 396.131 425.621 404.041 423.241 409.845C425.661 410.383 429.129 410.814 431.265 412.036C431.911 412.406 443.678 426.373 444.575 427.749C447.075 431.586 446.482 437.453 446.508 441.91C453.176 452.034 461.047 463.651 458.457 476.423C456.315 486.987 447.586 495.165 438.862 500.742C433.479 504.183 427.405 506.949 421.391 509.114C416.392 510.913 408.5 511.678 404.435 514.939L403.228 513.145C403.354 512.162 403.499 511.15 403.502 510.158C403.508 508.18 403.578 507.236 402.168 505.87C398.945 506.005 395.836 505.805 392.625 505.532C408.484 503.465 418.42 502.667 432.574 494.293C439.887 489.966 448.002 483.587 450.084 474.889C452.355 465.401 445.369 455.289 440.61 447.504Q438.673 448.746 436.663 449.864C427.448 454.916 415.995 453.754 406.316 450.905C403.75 451.989 400.444 453.791 397.606 453.697C395.399 453.624 394.161 453.013 392.744 451.433L392.939 449.32C395.007 445.909 398.147 445.027 401.631 443.481C408.056 434.923 411.154 424.501 417.954 415.866L415.162 412.943C413.321 408.224 418.358 399.748 419.488 394.747C412.825 395.889 405.913 396.909 399.156 396.017C386.445 394.34 380.412 385.29 373.188 375.801C376.756 375.545 378.952 375.27 381.773 372.878Z"/>
	<path fill="white" d="M424.745 419.782L427.178 420.208C427.894 421.012 428.215 421.007 428.172 422.168C427.993 426.957 419.503 433.733 416.09 436.747L415.029 437.032L414.665 436.164C417.086 430.506 420.731 424.439 424.745 419.782Z"/>
	<path fill="white" d="M434.786 428.738Q435.061 428.868 435.321 429.025Q435.582 429.182 435.825 429.365Q436.067 429.548 436.291 429.755Q436.514 429.962 436.714 430.19Q436.915 430.419 437.092 430.667Q437.268 430.914 437.419 431.179Q437.569 431.443 437.692 431.721Q437.814 432 437.908 432.289C438.463 434.026 438.262 435.39 437.321 436.994C434.208 442.296 426.457 444.131 420.991 445.287L418.059 444.555C424.142 439.865 429.593 434.377 434.786 428.738Z"/>
</svg>
