<?xml version="1.0" encoding="utf-8" ?>
<svg xmlns="http://www.w3.org/2000/svg" xmlns:xlink="http://www.w3.org/1999/xlink" width="1536" height="1024">
	<path fill="white" d="M0 0L1534.69 0C1535.54 1.34434 1535.84 2.50848 1535.91 4.09208C1536.57 18.5072 1536 33.1619 1536 47.604L1536.01 132.471L1536.01 391.421L1536.01 865.91L1536 981.169C1536 989.131 1537.19 1015.2 1535.79 1021.39C1535.57 1022.35 1535.21 1023.17 1534.69 1024L0 1024L0 0Z"/>
	<path fill="#000007" d="M1340.71 558.84C1343.45 556.409 1344.49 555.125 1348.34 555.164L1349.61 556.322C1349.49 558.015 1349.41 559.138 1348.07 560.355C1346.93 561.389 1345.11 562.142 1343.64 562.604C1343.6 562.556 1343.57 562.501 1343.53 562.46C1342.13 561.164 1341.41 560.684 1340.71 558.84Z"/>
	<path fill="#000007" d="M665.89 195.924C666.32 194.915 666.86 194.16 667.522 193.29L669.852 193.48C670.923 197.024 672.173 199.632 674.71 202.404C678.333 204.826 681.326 205.865 685.672 206.49C688.121 206.297 690.501 206.057 692.922 205.607C691.803 206.903 690.781 208.213 689.802 209.617C689.238 209.841 688.734 210.033 688.135 210.145C681.712 211.346 676.638 209.391 671.477 205.689C668.809 202.74 667.354 199.581 665.89 195.924Z"/>
	<path fill="#0F172A" d="M1399.35 266.686C1401.05 266.453 1401.74 266.523 1403.32 267.174C1404.51 269.371 1403.95 271.819 1403.96 274.305L1405.14 275.19C1408.07 275.166 1410.58 274.992 1412.79 277.066C1412 280.024 1410.66 279.851 1408.01 280.052C1401.66 280.534 1405.33 284.45 1401.92 288.236C1401.56 288.481 1400.81 288.581 1400.37 288.692C1398.72 286.184 1400.35 283.043 1398.38 280.644C1397.09 280.564 1395.43 280.584 1394.2 280.192C1392.22 279.566 1391.63 278.974 1390.73 277.195L1391.3 275.996C1393.69 274.751 1396.37 275.837 1399.04 275.002C1399.95 272.652 1399.42 269.206 1399.35 266.686Z"/>
	<path fill="#0F172A" d="M1334.63 564.499C1334.07 561.726 1330.97 560.671 1329.99 558.071C1329.38 556.451 1329.45 556.303 1330.21 554.761C1336.02 553.771 1335.34 558.725 1339.74 559.962L1340.71 558.84C1341.41 560.684 1342.13 561.164 1343.53 562.46C1343.57 562.501 1343.6 562.556 1343.64 562.604C1343.76 566.634 1348.48 568.185 1349.41 572.114C1348.6 573.699 1348.63 573.803 1347.04 574.544C1344 573.767 1341.25 569.857 1338.62 567.924L1338.08 567.532C1338.09 567.984 1338.12 568.101 1337.98 568.596C1337.38 570.597 1335.51 572.942 1333.55 573.716C1331.94 574.353 1331.75 574.304 1330.2 573.585C1329.14 568.785 1332.9 568.883 1334.32 565.349C1334.44 565.07 1334.53 564.783 1334.63 564.499Z"/>
	<path fill="#F99835" d="M454.505 138.734C454.412 134.29 453.846 129.706 455.799 125.587L456.81 125.519C458.794 129.429 458.319 134.282 458.197 138.54C462.261 138.495 466.668 138.079 470.546 139.447L471.414 140.43C468.422 142.893 462.243 142.144 458.616 142.091C458.031 146.033 459.201 154.823 456.777 157.784L455.913 157.047C454.463 152.61 454.718 147.147 454.462 142.493C450.59 142.365 444.085 142.79 440.965 140.392L441.907 139.472C446.005 138.313 450.291 138.645 454.505 138.734Z"/>
	<path fill="#000007" d="M1309.22 234.824C1310.02 232.413 1310.58 230.201 1312.35 228.301L1313.28 228.361L1313.85 230.354C1315.21 232.219 1315.9 233.486 1315.41 235.94C1315.2 236.961 1314.87 237.809 1314.41 238.739C1317.76 238.805 1321.91 238.433 1324.93 239.983L1325.71 241.282C1325.1 242.834 1325.07 243.095 1323.48 243.693C1320.39 244.857 1316.94 243.957 1313.75 245.36C1314.83 247.826 1315.67 250.717 1314.65 253.348C1314.24 254.421 1314.13 254.338 1313.08 254.759C1311.64 253.879 1310.77 253.073 1310.29 251.393C1309.79 249.612 1309.97 247.723 1309.39 245.942L1309.24 244.637C1307.04 243.158 1302.76 244.423 1299.95 243.407C1299.07 241.756 1299.17 241.782 1299.6 239.939C1302.64 237.936 1306.3 240.302 1309.58 238.711C1310.13 236.964 1309.77 236.523 1309.22 234.824Z"/>
	<path fill="#000007" d="M549.073 235.19C553.652 235.228 555.787 238.189 558.801 241.226C560.211 239.867 561.625 238.063 563.24 236.98C564.824 235.918 565.626 235.94 567.396 236.322L567.836 238.012C567.267 241.018 564.694 243.184 562.671 245.332C564.805 247.559 567.516 249.845 568.489 252.84C568.117 255.071 567.805 255.12 566.216 256.597C563.467 254.474 561.022 251.472 558.606 248.953C557.084 250.776 554.953 253.894 552.703 254.682C551.327 255.164 551.119 255.101 549.863 254.433C549.765 253.778 549.706 253.601 549.712 252.998C549.745 249.915 553.349 247.266 555.414 245.303C553.851 243.872 552.253 242.436 550.815 240.879C549.18 239.109 548.957 237.538 549.073 235.19Z"/>
	<path fill="#000007" d="M1201.31 112.893C1203.58 112.844 1203.67 112.59 1205.44 114.191C1206.87 117.837 1206.3 122.254 1204.84 125.816C1207.42 125.806 1210.16 125.684 1212.72 125.985C1214.64 126.209 1215.88 126.8 1217.03 128.291L1216.01 129.444C1212.39 131.168 1208.41 130.723 1204.51 130.602C1205.34 132.592 1205.85 135.157 1205.86 137.318C1205.87 140.081 1205.21 141.015 1203.44 142.923L1202.04 142.775C1199.78 139.003 1201.74 134.445 1199.41 130.675C1197.09 130.673 1193.77 131.135 1191.59 130.336C1190.09 129.783 1189.83 129.487 1189.14 128.097C1189.51 127.601 1189.58 127.456 1189.99 127.074C1192.31 124.946 1196.97 125.681 1199.89 125.788C1201.43 122.078 1201.28 116.919 1201.31 112.893Z"/>
	<path fill="#F99835" d="M1423.28 865.01C1423.35 864.863 1423.41 864.718 1423.47 864.569C1425.26 860.003 1422.94 852.668 1426.47 849.076C1427.54 849.546 1427.89 849.692 1428.36 850.856C1429.79 854.391 1429.11 861.146 1429.15 865.084L1429.6 865.626C1434.07 865.414 1440.98 864.224 1444.57 867.236C1443.05 868.913 1440.47 869.512 1438.21 869.599C1435.02 869.722 1431.77 869.573 1428.58 869.513C1429.07 874.069 1429.64 881.577 1427.89 885.804C1427.43 886.928 1427.25 886.875 1426.15 887.366C1422.39 883.062 1425.85 875.382 1423.21 870.386C1423.14 870.245 1423.05 870.11 1422.97 869.973C1418.98 870.087 1413.97 870.58 1410.1 869.438C1408.66 869.015 1408.49 868.903 1407.84 867.6C1410.61 864.264 1418.29 866.103 1422.38 865.219C1422.68 865.154 1422.98 865.08 1423.28 865.01Z"/>
	<path fill="#F99835" d="M1433.25 501.494C1434.58 501.205 1435.45 500.933 1436.75 501.518C1437.34 502.322 1437.73 503.025 1437.98 504.004C1438.89 507.6 1438.56 515.187 1436.67 518.372C1442.67 518.25 1450.72 517.353 1456.16 520.201L1456.01 520.699C1450.67 523.587 1442.36 522.778 1436.44 522.741C1436.91 523.569 1437.25 524.197 1437.49 525.127C1438.45 528.811 1438.61 536.886 1436.49 540.031L1436.02 540.372C1432.22 539.298 1434.58 526.663 1432.05 522.641Q1429.43 522.702 1426.81 522.719C1423.44 522.743 1419.72 523.013 1417.16 520.491L1418.23 519.378C1422.62 517.701 1427.65 518.281 1432.27 518.395C1434.71 514.353 1433.73 506.136 1433.25 501.494Z"/>
	<path fill="#000007" d="M883.451 110.481C886.651 107.519 889.399 105.472 894.037 105.653C897.414 105.785 900.461 107.526 902.557 110.139C904.632 112.723 905.299 115.214 905.75 118.397C905.515 119.43 905.265 120.463 904.92 121.466C903.846 124.586 901.576 127.452 898.544 128.825C895.447 130.227 891.861 130.065 888.792 128.673Q888.198 128.407 887.634 128.081Q887.07 127.756 886.542 127.375Q886.014 126.994 885.528 126.561Q885.041 126.128 884.602 125.647Q884.162 125.167 883.773 124.644Q883.385 124.122 883.052 123.562Q882.719 123.003 882.444 122.412Q882.17 121.821 881.957 121.206C880.576 117.144 881.593 114.071 883.451 110.481Z"/>
	<path fill="white" d="M887.644 111.664C890.364 110.578 893.42 109.22 896.31 110.587C898.076 111.422 899.69 113.354 901.045 114.744C900.929 116.544 900.975 118.711 900.332 120.417C899.642 122.247 897.962 123.944 896.184 124.728C894.339 125.541 892.246 125.626 890.378 124.837C888.579 124.077 887.162 122.677 886.433 120.862C885.04 117.393 886.192 114.803 887.644 111.664Z"/>
	<path fill="#0F172A" d="M88.7608 770.534C90.5453 770.542 92.2513 770.6 93.9632 771.161C97.1652 772.211 100.091 774.427 101.539 777.523C102.969 780.582 102.907 784.053 101.649 787.16C99.9268 791.41 96.7572 793.009 92.8431 794.775C90.6708 794.699 88.3476 794.696 86.2851 793.946C83.0552 792.771 80.215 790.121 78.8813 786.948Q78.645 786.4 78.4698 785.83Q78.2946 785.26 78.1827 784.675Q78.0708 784.089 78.0235 783.495Q77.9762 782.9 77.9941 782.304Q78.0119 781.708 78.0948 781.117Q78.1776 780.527 78.3244 779.949Q78.4712 779.371 78.6802 778.813Q78.8893 778.254 79.158 777.722C81.2198 773.59 84.6557 771.939 88.7608 770.534Z"/>
	<path fill="white" d="M89.7739 775.46C89.8561 775.472 89.9389 775.481 90.0205 775.496C92.5723 775.974 95.0769 776.91 96.5672 779.175C97.6578 780.832 97.8447 782.8 97.2998 784.687C96.4485 787.635 94.3302 788.858 91.7547 790.187C90.5704 790.013 89.191 789.864 88.0586 789.442C86.2033 788.75 84.409 787.323 83.582 785.488C82.8923 783.958 82.9745 782.235 83.5711 780.691C84.6894 777.796 87.1859 776.751 89.7739 775.46Z"/>
	<path fill="#0F172A" d="M112.714 501.861C114.609 501.855 116.307 501.939 118.124 502.524C121.789 503.704 125.115 506.159 126.675 509.766Q126.898 510.293 127.068 510.84Q127.238 511.386 127.354 511.947Q127.469 512.507 127.529 513.077Q127.589 513.646 127.592 514.218Q127.596 514.79 127.543 515.36Q127.49 515.93 127.381 516.492Q127.272 517.054 127.109 517.603Q126.946 518.151 126.729 518.681C124.973 523.09 121.579 524.588 117.505 526.234C115.781 526.318 114.019 526.413 112.323 526.027C109.035 525.278 106.013 523.456 104.268 520.506C102.526 517.563 102.341 513.999 103.411 510.788C104.977 506.089 108.509 503.841 112.714 501.861Z"/>
	<path fill="white" d="M112.758 506.8C115.872 506.83 118.436 507.387 120.611 509.799C121.814 511.133 122.41 512.807 122.314 514.602C122.149 517.69 120.31 519.173 118.098 521.018C114.954 520.973 111.959 520.768 109.57 518.414C108.354 517.215 107.779 515.665 107.892 513.964C108.114 510.605 110.395 508.812 112.758 506.8Z"/>
	<path fill="#0F172A" d="M1435.52 593.019C1438.22 592.746 1441.12 593.004 1443.57 594.227Q1444.16 594.515 1444.71 594.862Q1445.26 595.208 1445.77 595.61Q1446.29 596.011 1446.76 596.463Q1447.23 596.914 1447.65 597.412Q1448.07 597.909 1448.44 598.447Q1448.81 598.985 1449.12 599.558Q1449.44 600.131 1449.69 600.733Q1449.94 601.335 1450.13 601.959Q1450.3 602.547 1450.41 603.15Q1450.52 603.753 1450.57 604.365Q1450.62 604.976 1450.6 605.589Q1450.59 606.201 1450.51 606.809Q1450.43 607.417 1450.28 608.013Q1450.14 608.61 1449.94 609.188Q1449.73 609.766 1449.47 610.32Q1449.21 610.874 1448.89 611.398C1446.64 615.108 1443.41 616.455 1439.39 617.284C1436.87 617.609 1434.31 616.993 1432.09 615.777C1429.11 614.139 1427.05 611.258 1426.21 607.978C1425.39 604.723 1425.8 601.148 1427.64 598.304C1429.54 595.378 1432.16 593.742 1435.52 593.019Z"/>
	<path fill="white" d="M1434.67 598.27C1436.78 598.016 1438.75 597.726 1440.76 598.627C1442.79 599.541 1444.55 601.291 1445.24 603.439Q1445.33 603.71 1445.39 603.989Q1445.45 604.268 1445.48 604.552Q1445.51 604.835 1445.52 605.12Q1445.52 605.405 1445.5 605.69Q1445.47 605.974 1445.42 606.254Q1445.37 606.535 1445.29 606.809Q1445.21 607.083 1445.11 607.348Q1445 607.613 1444.87 607.866C1443.64 610.217 1441.83 610.956 1439.41 611.686C1438.88 611.924 1438.4 612.169 1437.8 612.174C1436.28 612.187 1434.55 611.934 1433.41 610.899C1431.81 609.439 1431.35 607.02 1431.28 604.95C1431.19 601.877 1432.7 600.341 1434.67 598.27Z"/>
	<path fill="#0F172A" d="M147.063 101.322C148.804 101.363 150.647 101.364 152.339 101.81C155.841 102.733 159.117 105.32 160.73 108.573C162.274 111.69 162.321 115.225 161.028 118.438C159.303 122.723 156.044 124.589 152.076 126.338C149.949 126.606 147.706 126.694 145.628 126.08C142.245 125.082 139.504 122.854 138.032 119.625C136.631 116.549 136.715 112.936 137.898 109.805C139.607 105.285 142.885 103.182 147.063 101.322Z"/>
	<path fill="white" d="M147.91 106.378Q148.543 106.464 149.173 106.568C152.023 107.042 154.762 107.926 156.414 110.502C157.326 111.925 157.528 113.431 157.168 115.073C156.446 118.37 154.073 119.944 151.45 121.664C151.141 121.657 150.832 121.656 150.523 121.643C147.763 121.534 144.971 120.723 143.168 118.497C141.959 117.005 141.537 115.219 141.894 113.34C142.589 109.682 145.001 108.199 147.91 106.378Z"/>
	<path fill="#F99835" d="M774.096 66.8826C782.544 66.0026 790.51 66.4037 798.188 70.3769C807.181 75.03 813.783 83.6512 816.75 93.2633C819.674 102.74 818.909 112.857 814.246 121.639C808.501 132.458 799.87 137.829 788.45 141.235C779.397 142.664 770.281 141.383 762.259 136.851Q761.443 136.395 760.65 135.899Q759.858 135.403 759.092 134.867Q758.325 134.332 757.586 133.759Q756.848 133.186 756.138 132.576Q755.429 131.967 754.752 131.323Q754.074 130.679 753.43 130.001Q752.785 129.324 752.175 128.615Q751.566 127.906 750.992 127.168Q750.419 126.429 749.883 125.663Q749.347 124.897 748.851 124.105Q748.354 123.312 747.898 122.496Q747.441 121.68 747.026 120.842Q746.611 120.004 746.239 119.147Q745.867 118.289 745.538 117.414Q745.209 116.538 744.924 115.648Q744.64 114.757 744.4 113.853Q744.159 112.955 743.962 112.047Q743.766 111.139 743.614 110.222Q743.463 109.305 743.357 108.381Q743.251 107.458 743.191 106.531Q743.13 105.603 743.116 104.674Q743.102 103.745 743.133 102.816Q743.165 101.887 743.242 100.961Q743.319 100.034 743.442 99.1132Q743.565 98.1919 743.733 97.2779Q743.901 96.3639 744.115 95.4592Q744.328 94.5546 744.585 93.6616Q744.843 92.7686 745.144 91.8895Q745.446 91.0103 745.79 90.1471Q746.134 89.2838 746.521 88.4387Q746.907 87.5935 747.335 86.7685Q747.763 85.9434 748.231 85.1405C754.185 74.9706 763.001 69.8826 774.096 66.8826Z"/>
	<path fill="#F99835" d="M133.771 720.665C119.149 720.538 105.253 716.027 93.4485 707.302Q92.1571 706.342 90.9148 705.319Q89.6725 704.296 88.4825 703.213Q87.2924 702.129 86.1576 700.989Q85.0227 699.848 83.9457 698.652Q82.8688 697.456 81.8524 696.208Q80.8361 694.961 79.8828 693.664Q78.9296 692.367 78.0418 691.025Q77.1539 689.683 76.3337 688.298Q75.5135 686.913 74.763 685.49Q74.0124 684.066 73.3333 682.607Q72.6542 681.148 72.0483 679.657Q71.4424 678.166 70.9111 676.647Q70.3798 675.128 69.9245 673.584Q69.4691 672.04 69.0909 670.476Q68.7126 668.911 68.4123 667.33Q68.112 665.749 67.8905 664.155C65.3834 645.901 70.9221 628.116 82.0978 613.636C95.2704 596.569 112.893 589.142 133.754 586.412C133.879 631.101 132.639 676.004 133.771 720.665Z"/>
	<path fill="#0F172A" d="M274.485 132.588C271.762 126.176 269.655 120.156 272.52 113.356C274.388 108.922 278.063 105.661 282.521 103.976C287.589 102.061 293.51 102.169 298.442 104.452C302.535 106.348 305.852 109.73 307.304 114.047C309.334 120.08 307.647 125.235 305.318 130.848C324.371 148.98 345.078 165.945 364.727 183.494C370.443 179.964 375.52 177.888 382.328 179.388C387.015 180.421 391.3 183.255 393.721 187.452Q394.132 188.178 394.469 188.94Q394.806 189.703 395.066 190.496Q395.327 191.288 395.507 192.102Q395.688 192.916 395.788 193.744Q395.887 194.572 395.905 195.406Q395.922 196.24 395.857 197.071Q395.792 197.903 395.645 198.724Q395.498 199.545 395.271 200.347C394.768 202.11 394.015 203.759 393.211 205.402C411.219 218.395 429.164 231.871 446.523 245.718C450.536 241.721 454.603 239.347 460.41 239.348C464.522 239.349 468.419 240.622 472.211 242.088C506.016 209.72 537.159 174.466 571.325 142.525C568.377 137.463 566.345 133.247 567.978 127.247C569.242 122.604 572.519 118.862 576.663 116.525C581.01 114.075 586.328 113.306 591.138 114.737C595.453 116.021 598.901 118.934 600.93 122.95C603.528 128.092 603.645 132.869 601.86 138.3C601.815 138.436 601.764 138.57 601.716 138.705C624.692 152.529 648.218 165.886 670.384 180.986C675.429 177.074 680.994 174.393 687.603 175.137C691.7 175.598 694.828 177.828 697.243 181.059C700.963 186.036 702.173 192.045 701.205 198.107C700.931 199.824 700.633 200.144 701.746 201.658C701.894 201.86 702.067 202.042 702.228 202.233C702.754 203.195 703.23 204.148 703.669 205.153C702.435 206.147 701.691 205.999 700.139 206.135C696.112 205.106 693.577 208.346 689.802 209.617C690.781 208.213 691.803 206.903 692.922 205.607C690.501 206.057 688.121 206.297 685.672 206.49C681.326 205.865 678.333 204.826 674.71 202.404C672.173 199.632 670.923 197.024 669.852 193.48L667.522 193.29C666.86 194.16 666.32 194.915 665.89 195.924C666.034 192.034 666.609 188.693 667.662 184.946C646.139 169.749 622.477 155.051 599.054 143.017C595.728 146.62 591.913 149.143 586.879 149.415C582.225 149.668 578.396 148.347 574.444 145.997C562.929 156.342 552.289 167.814 541.405 178.829C519.414 201.085 497.641 223.631 475.222 245.455C478.512 250.107 480.656 255.625 479.599 261.428C478.723 266.242 475.731 270.163 471.663 272.772Q471.231 273.044 470.786 273.294Q470.34 273.543 469.883 273.77Q469.425 273.996 468.957 274.199Q468.488 274.403 468.01 274.582Q467.532 274.761 467.046 274.915Q466.559 275.07 466.065 275.199Q465.571 275.329 465.072 275.433Q464.572 275.537 464.068 275.616Q463.563 275.695 463.055 275.748Q462.548 275.801 462.038 275.828Q461.528 275.855 461.018 275.856Q460.507 275.858 459.997 275.833Q459.487 275.808 458.979 275.757Q458.471 275.707 457.967 275.63Q457.462 275.554 456.962 275.452Q456.461 275.35 455.967 275.223C451.402 274.097 447.386 271.462 444.867 267.446C442.088 263.018 441.728 257.276 443.056 252.326C443.23 251.681 443.425 251.046 443.611 250.404L443.857 249.54C426.813 235.596 408.878 221.668 390.587 209.409C384.884 212.876 380.191 214.672 373.475 213.135C368.998 212.111 364.941 209.329 362.573 205.365C359.923 200.931 359.442 195.734 360.808 190.806Q361.325 189.002 361.905 187.217C361.947 187.085 361.991 186.954 362.034 186.822L324.202 153.03C316.826 146.572 309.062 140.403 301.884 133.735C297.222 137.05 292.996 138.76 287.138 137.799C284.147 137.309 281.077 136.066 278.411 134.648C262.908 151.253 246.28 167.016 230.22 183.105C219.884 193.459 209.646 205.059 198.684 214.671C201.854 219.451 203.437 223.567 202.266 229.366C201.222 234.532 197.892 238.627 193.488 241.381C189.17 244.082 183.861 245.951 178.74 244.751C174.143 243.674 170.438 240.292 168.094 236.302C165.547 231.967 164.724 226.898 166.009 222.014C167.237 217.349 170.373 212.467 174.705 210.139C179.192 207.727 185.684 207.671 190.526 209.247C192.26 209.811 193.931 210.657 195.499 211.58C221.916 185.359 247.743 158.463 274.485 132.588Z"/>
	<path fill="#F99835" d="M377.626 183.252C381.557 183.648 384.644 185.232 387.993 187.208C389.058 188.835 390.167 190.616 390.815 192.453C391.901 195.535 391.811 199.388 390.214 202.279C387.747 206.743 383.625 208.276 379.011 209.419C376.558 209.212 373.881 208.772 371.689 207.58C368.646 205.925 366.13 202.88 365.193 199.534Q365.016 198.915 364.905 198.281Q364.793 197.647 364.748 197.005Q364.703 196.363 364.725 195.72Q364.746 195.077 364.835 194.44Q364.923 193.802 365.077 193.177Q365.231 192.552 365.45 191.947Q365.668 191.341 365.948 190.762Q366.227 190.182 366.566 189.635C369.228 185.308 373.017 184.288 377.626 183.252Z"/>
	<path fill="#F99835" d="M669.852 193.48C670.976 188.752 672.743 184.647 676.943 181.836C679.706 179.987 683.127 179.472 686.35 180.196Q687.068 180.36 687.765 180.594Q688.463 180.829 689.134 181.13Q689.806 181.432 690.444 181.798Q691.082 182.165 691.682 182.592Q692.281 183.02 692.835 183.504Q693.389 183.989 693.893 184.526Q694.396 185.062 694.845 185.646Q695.293 186.23 695.682 186.855C697.407 189.663 698.062 193.093 697.182 196.301C696.145 200.079 693.219 202.936 689.86 204.76C688.525 205.485 687.106 206.001 685.672 206.49C681.326 205.865 678.333 204.826 674.71 202.404C672.173 199.632 670.923 197.024 669.852 193.48Z"/>
	<path fill="#F99835" d="M583.98 118.127C585.961 118.233 588.077 118.45 589.942 119.159C593.556 120.535 596.655 123.469 598.04 127.094C599.303 130.4 599.204 134.009 597.637 137.194C595.519 141.498 591.925 143.626 587.581 145.083C585.22 144.992 582.694 144.918 580.466 144.06C576.948 142.706 573.983 139.595 572.641 136.092Q572.417 135.493 572.255 134.873Q572.093 134.254 571.995 133.622Q571.898 132.989 571.866 132.35Q571.834 131.711 571.868 131.071Q571.901 130.432 572 129.8Q572.099 129.168 572.263 128.549Q572.427 127.93 572.653 127.331Q572.879 126.732 573.165 126.16C575.502 121.497 579.347 119.717 583.98 118.127Z"/>
	<path fill="#F99835" d="M285.829 107.345C288.252 107.166 290.884 106.952 293.265 107.502C296.965 108.357 300.523 110.987 302.376 114.306Q302.684 114.853 302.934 115.429Q303.184 116.005 303.373 116.604Q303.563 117.202 303.69 117.817Q303.817 118.432 303.88 119.057Q303.943 119.682 303.942 120.31Q303.94 120.938 303.875 121.562Q303.809 122.186 303.679 122.801Q303.549 123.415 303.357 124.013C301.738 128.889 298.378 131.125 294.06 133.268C291.426 133.541 288.341 133.575 285.755 132.933C282.42 132.105 279.22 129.752 277.462 126.802C275.661 123.78 275.361 120.239 276.415 116.904C277.973 111.976 281.577 109.676 285.829 107.345Z"/>
	<path fill="#F99835" d="M182.739 212.304C184.819 212.417 187.246 213.019 189.188 213.806C192.599 215.188 195.59 217.668 196.971 221.15C198.239 224.348 198.015 227.736 196.718 230.879C194.579 236.059 190.671 238.339 185.735 240.407C183.336 240.405 180.814 240.431 178.543 239.554C175.222 238.271 172.224 235.806 170.777 232.507C169.326 229.195 169.431 225.464 170.802 222.152C173.146 216.493 177.421 214.438 182.739 212.304Z"/>
	<path fill="#F99835" d="M458.524 243.899C461.033 243.815 463.304 243.819 465.719 244.633Q466.411 244.869 467.074 245.176Q467.737 245.484 468.365 245.859Q468.992 246.234 469.577 246.672Q470.161 247.111 470.697 247.608Q471.233 248.106 471.713 248.657Q472.194 249.208 472.614 249.806Q473.035 250.404 473.39 251.043Q473.745 251.681 474.032 252.354Q474.319 253.023 474.535 253.719Q474.75 254.415 474.89 255.13Q475.031 255.845 475.095 256.57Q475.16 257.296 475.147 258.024Q475.135 258.753 475.046 259.476Q474.957 260.199 474.792 260.908Q474.627 261.618 474.388 262.306Q474.149 262.994 473.839 263.653C471.791 267.958 468.417 270.051 464.121 271.525C461.619 271.585 459.282 271.6 456.881 270.742C453.14 269.406 449.839 266.657 448.202 262.995Q447.918 262.363 447.703 261.704Q447.488 261.046 447.344 260.368Q447.2 259.69 447.129 259.001Q447.058 258.311 447.061 257.618Q447.063 256.925 447.14 256.237Q447.216 255.548 447.366 254.871Q447.515 254.195 447.735 253.538Q447.956 252.881 448.245 252.251C450.387 247.501 453.957 245.626 458.524 243.899Z"/>
	<path fill="#000007" d="M1321.67 144.055C1321.62 143.813 1321.57 143.57 1321.52 143.328C1319.99 135.955 1316.84 132.164 1321.57 124.654C1324.27 120.36 1328.8 117.427 1333.73 116.378C1338.82 115.296 1344.64 116.235 1349 119.134C1352.11 121.198 1354.95 125.349 1355.51 129.139C1355.64 130.046 1355.55 130.798 1355.38 131.681C1355.35 131.807 1355.33 131.934 1355.31 132.061C1356.52 135.448 1355.64 139.728 1354.02 142.884C1351.88 147.07 1347.33 149.71 1342.92 150.937C1335.78 152.922 1330.83 151.168 1324.48 147.858C1320.44 152.12 1313.87 157.095 1308.64 159.797C1302.16 166.874 1287.58 176.032 1279.38 182.242L1252.12 203.066C1246.91 207.044 1241.7 211.618 1235.94 214.742C1238.22 217.58 1239.3 221.416 1238.92 225.047C1238.45 229.628 1235.67 233.66 1232.03 236.366Q1231.64 236.658 1231.24 236.931Q1230.84 237.203 1230.43 237.455Q1230.01 237.708 1229.59 237.938Q1229.16 238.169 1228.72 238.379Q1228.29 238.588 1227.84 238.775Q1227.39 238.962 1226.94 239.126Q1226.48 239.29 1226.02 239.431Q1225.55 239.573 1225.08 239.69Q1224.61 239.808 1224.14 239.902Q1223.66 239.996 1223.18 240.066Q1222.7 240.135 1222.22 240.181Q1221.74 240.227 1221.25 240.248Q1220.77 240.27 1220.29 240.267Q1219.8 240.264 1219.32 240.236Q1218.83 240.209 1218.35 240.157Q1217.87 240.106 1217.39 240.03Q1216.92 239.954 1216.46 239.854Q1216 239.755 1215.55 239.631Q1215.09 239.508 1214.65 239.361Q1214.2 239.215 1213.76 239.045Q1213.32 238.875 1212.89 238.683Q1212.46 238.491 1212.04 238.278Q1211.62 238.064 1211.21 237.828Q1210.8 237.593 1210.41 237.337Q1210.01 237.081 1209.63 236.805Q1209.25 236.529 1208.88 236.234Q1208.51 235.938 1208.16 235.624Q1207.81 235.31 1207.48 234.979Q1207.14 234.647 1206.82 234.299Q1206.51 233.95 1206.21 233.586Q1205.91 233.222 1205.63 232.842Q1205.35 232.463 1205.09 232.07C1202.57 228.3 1203.06 221.587 1203.75 217.246L1203.39 216.479C1193.2 208.198 1180.05 201.966 1168.64 195.438C1159.47 190.198 1150.13 184.082 1140.51 179.78C1136.34 183.141 1131.3 185.584 1125.78 184.839C1119.29 183.962 1114.47 179.629 1110.82 174.499Q1109.94 173.252 1109.08 171.987C1097.25 173.932 1085.17 174.862 1073.24 176.03C1066.43 176.698 1059.05 177.994 1052.23 177.753L1051.71 177.886C1049.87 178.341 1045.35 178.361 1044.38 179.874C1040.29 186.274 1041.87 193.546 1033.06 197.115C1027.02 199.561 1019.93 197.47 1014.35 194.879C997.534 209.754 981.327 225.38 964.885 240.665C967.027 246.03 968.048 250.515 965.678 256.039C963.791 260.438 960.023 263.736 955.617 265.486Q954.769 265.821 953.892 266.072Q953.015 266.322 952.118 266.485Q951.22 266.647 950.311 266.721Q949.402 266.794 948.49 266.778Q947.579 266.761 946.673 266.655Q945.767 266.549 944.876 266.354Q943.985 266.159 943.118 265.878Q942.25 265.596 941.415 265.23C937.349 263.419 934.224 260.243 932.658 256.04C930.978 251.529 931.121 246.538 932.695 242.013Q923.718 233.963 915.019 225.612Q898.574 211.363 882.391 196.817C882.156 196.977 881.922 197.141 881.685 197.299C875.253 201.586 870.552 202.842 862.894 201.195Q859.909 199.527 856.948 197.819Q827.813 220.441 799.672 244.287C801.668 250.844 802.82 256.768 799.463 263.129C797.233 267.354 792.795 270.719 788.255 272.112C786.721 272.583 785.154 272.956 783.59 273.311C777.763 271.895 771.729 270.02 768.31 264.654C764.924 259.338 765.033 252.786 766.502 246.878C745.815 231.895 722.472 218.582 700.139 206.135C701.691 205.999 702.435 206.147 703.669 205.153C703.23 204.148 702.754 203.195 702.228 202.233C709.84 204.899 717.92 211.048 724.841 215.255Q747.067 228.945 769.534 242.235C772.534 239.435 775.817 237.5 779.832 236.579C786.306 235.093 791.489 237.415 796.812 240.848C805.617 231.924 850.542 198.934 853.367 193.795C851.19 189.023 850.035 183.689 851.9 178.58C853.457 174.319 857.102 171.013 861.207 169.246Q861.662 169.047 862.127 168.871Q862.591 168.696 863.064 168.543Q863.536 168.39 864.016 168.261Q864.495 168.132 864.981 168.027Q865.466 167.922 865.956 167.841Q866.446 167.761 866.94 167.704Q867.433 167.648 867.929 167.616Q868.424 167.584 868.921 167.577Q869.417 167.569 869.914 167.587Q870.41 167.604 870.905 167.646Q871.4 167.688 871.892 167.754Q872.384 167.821 872.872 167.912Q873.36 168.002 873.844 168.117Q874.327 168.232 874.804 168.371Q875.281 168.509 875.75 168.672Q876.219 168.834 876.68 169.019C880.985 170.759 884.645 173.958 886.297 178.384C888.27 183.673 887.114 188.557 885.19 193.638L916.344 220.439C921.52 226.752 929.12 232.348 934.833 238.399C938.042 235.54 942.164 233.028 946.446 232.253C952.649 231.129 957.137 233.376 962.14 236.734C979.2 222.44 994.088 204.971 1011.84 191.623C1010.74 189.75 1009.73 187.669 1009.03 185.613C1007.61 181.415 1007.73 176.524 1009.84 172.587C1012 168.564 1015.99 165.74 1020.3 164.441C1025.28 162.939 1031.54 163.346 1036.1 165.962C1039.2 167.74 1042 170.825 1042.97 174.312Q1049.59 173.687 1056.22 173.167C1071.04 170.235 1093.21 169.358 1108.9 167.802C1110.63 166.137 1111.95 159.063 1114.29 156.066C1116.96 152.643 1121.16 150.554 1125.42 149.957Q1125.87 149.892 1126.33 149.85Q1126.79 149.809 1127.24 149.79Q1127.7 149.771 1128.16 149.775Q1128.62 149.779 1129.08 149.806Q1129.53 149.833 1129.99 149.883Q1130.44 149.933 1130.9 150.006Q1131.35 150.078 1131.8 150.174Q1132.24 150.269 1132.69 150.387Q1133.13 150.504 1133.57 150.644Q1134 150.784 1134.43 150.945Q1134.86 151.107 1135.28 151.29Q1135.7 151.472 1136.11 151.676Q1136.52 151.88 1136.92 152.104Q1137.32 152.327 1137.71 152.571Q1138.1 152.815 1138.47 153.078Q1138.85 153.341 1139.21 153.622C1142.8 156.379 1145.54 160.461 1145.99 165.031C1146.33 168.5 1145.23 172.818 1142.96 175.516C1153.81 180.865 1164.28 187.615 1174.76 193.673C1185.15 199.68 1196.07 205.268 1205.99 212.01C1211.02 208.492 1215.82 205.629 1222.19 205.718C1226.32 205.776 1231.06 207.673 1233.96 210.627C1240.61 207.137 1305.58 157.033 1306.45 154.729C1312.02 152.847 1317.23 147.876 1321.67 144.055Z"/>
	<path fill="#F99835" d="M1215.87 211.175C1220.2 210.514 1223.67 210.244 1227.69 212.509C1230.77 214.246 1233.17 217.053 1234.11 220.489C1234.9 223.337 1234.59 226.219 1233.09 228.782C1230.97 232.41 1227.4 234.162 1223.5 235.183C1222.01 235.866 1220.28 235.994 1218.67 235.821C1215.31 235.461 1212.53 234.043 1210.54 231.257C1208.26 228.056 1207.61 223.564 1208.52 219.759C1209.55 215.457 1212.43 213.466 1215.87 211.175Z"/>
	<path fill="#F99835" d="M1123.07 154.91C1126.86 154.394 1130.2 153.863 1133.78 155.659C1136.98 157.262 1139.64 160.201 1140.74 163.61C1141.78 166.811 1141.56 170.183 1139.83 173.104C1137.76 176.606 1134.21 178.476 1130.4 179.413C1129.09 180.177 1127.23 180.226 1125.74 180.089C1122.41 179.782 1119.58 178.164 1117.55 175.504C1115.21 172.435 1114.49 168.523 1115.24 164.772C1116.2 159.994 1119.35 157.554 1123.07 154.91Z"/>
	<path fill="#F99835" d="M948.649 236.303C950.545 236.491 952.794 236.94 954.57 237.643C957.9 238.963 960.461 241.097 961.797 244.494C963.077 247.744 962.721 251.388 961.283 254.522C959.038 259.413 955.54 261.151 950.775 262.831C948.546 262.792 946.359 262.631 944.277 261.758C940.777 260.292 937.724 257.166 936.566 253.53C935.469 250.089 935.853 246.559 937.583 243.401C940.034 238.925 944.088 237.599 948.649 236.303Z"/>
	<path fill="#F99835" d="M1023.79 167.412C1027.05 167.646 1030.13 167.964 1033.02 169.654Q1033.58 169.984 1034.11 170.368Q1034.63 170.751 1035.12 171.184Q1035.6 171.617 1036.04 172.096Q1036.48 172.574 1036.88 173.093Q1037.27 173.612 1037.61 174.167Q1037.95 174.722 1038.23 175.308Q1038.52 175.893 1038.74 176.504Q1038.97 177.114 1039.13 177.744Q1039.28 178.335 1039.37 178.938Q1039.46 179.541 1039.49 180.15Q1039.52 180.759 1039.48 181.368Q1039.45 181.977 1039.35 182.579Q1039.26 183.182 1039.1 183.771Q1038.95 184.361 1038.73 184.932Q1038.52 185.502 1038.25 186.048Q1037.98 186.594 1037.65 187.11C1035.08 191.104 1031.32 192.755 1026.87 193.6C1025.14 193.607 1023.33 193.643 1021.66 193.159C1018.52 192.251 1015.4 190.141 1013.97 187.133C1012.37 183.788 1012.65 180.144 1013.83 176.739C1015.64 171.528 1019.13 169.622 1023.79 167.412Z"/>
	<path fill="#F99835" d="M856.499 190.766C855.44 186.585 855.181 181.147 857.383 177.287C858.908 174.613 861.489 173.04 864.422 172.299C868.784 171.195 873.465 172.093 877.211 174.533C880.1 176.415 882.661 179.376 883.284 182.843C883.848 185.979 882.712 188.939 880.859 191.437C878.362 194.804 874.817 196.954 870.653 197.535C869.225 197.734 867.81 197.833 866.371 197.771C861.97 196.244 859.583 194.107 856.499 190.766Z"/>
	<path fill="#F99835" d="M779.314 240.954C781.929 240.679 784.552 240.434 787.145 241.058C790.67 241.907 793.915 244.355 795.697 247.513Q796.01 248.074 796.265 248.663Q796.521 249.252 796.717 249.864Q796.912 250.476 797.046 251.104Q797.181 251.732 797.252 252.37Q797.323 253.008 797.33 253.65Q797.338 254.293 797.281 254.932Q797.225 255.572 797.105 256.203Q796.986 256.834 796.804 257.45C795.417 262.306 792.163 265.129 787.917 267.511C785.774 267.811 783.709 267.964 781.558 267.618Q780.841 267.505 780.139 267.318Q779.437 267.131 778.758 266.873Q778.079 266.614 777.431 266.287Q776.782 265.961 776.171 265.568Q775.56 265.176 774.992 264.723Q774.425 264.27 773.907 263.76Q773.389 263.251 772.927 262.691Q772.464 262.131 772.062 261.526C769.953 258.297 769.428 254.333 770.415 250.625C771.762 245.564 774.994 243.278 779.314 240.954Z"/>
	<path fill="#F99835" d="M1333.92 120.403C1337.48 119.96 1340.69 120.095 1343.95 121.784Q1344.58 122.116 1345.18 122.512Q1345.77 122.908 1346.32 123.364Q1346.88 123.82 1347.38 124.331Q1347.88 124.841 1348.32 125.402Q1348.76 125.962 1349.15 126.565Q1349.53 127.168 1349.85 127.808Q1350.17 128.448 1350.42 129.118Q1350.67 129.788 1350.85 130.48Q1351.01 131.108 1351.12 131.749Q1351.22 132.39 1351.26 133.037Q1351.29 133.685 1351.27 134.333Q1351.24 134.982 1351.16 135.625Q1351.07 136.268 1350.92 136.899Q1350.77 137.53 1350.56 138.144Q1350.35 138.757 1350.08 139.347Q1349.81 139.937 1349.48 140.498C1347.06 144.582 1343.39 146.366 1339 147.412C1337.28 148.031 1335.56 147.87 1333.8 147.468C1330.47 146.712 1327.73 144.68 1326.02 141.735Q1325.65 141.086 1325.34 140.402Q1325.03 139.719 1324.8 139.009Q1324.56 138.298 1324.4 137.568Q1324.23 136.837 1324.14 136.094Q1324.05 135.351 1324.03 134.602Q1324.01 133.854 1324.07 133.107Q1324.12 132.36 1324.26 131.623Q1324.39 130.886 1324.59 130.165C1326.05 124.997 1329.52 122.791 1333.92 120.403Z"/>
	<path fill="#F99835" d="M1311.03 467.865C1310.41 466.118 1300.52 458.624 1298.04 455.934C1286.24 443.147 1279.76 427.2 1280.56 409.682C1281.34 392.658 1288.53 375.814 1301.3 364.376C1319.21 348.337 1339.13 343.996 1362.42 345.176C1383.7 349.205 1402.08 357.362 1414.57 375.899Q1415.46 377.22 1416.28 378.582Q1417.1 379.945 1417.85 381.345Q1418.6 382.746 1419.29 384.181Q1419.97 385.617 1420.59 387.084Q1421.2 388.551 1421.74 390.047Q1422.28 391.542 1422.75 393.062Q1423.22 394.582 1423.61 396.123Q1424.01 397.664 1424.33 399.222Q1424.65 400.78 1424.89 402.352Q1425.13 403.924 1425.3 405.506Q1425.46 407.088 1425.55 408.676Q1425.64 410.264 1425.65 411.854Q1425.66 413.444 1425.6 415.034Q1425.53 416.623 1425.39 418.207Q1425.25 419.791 1425.03 421.366Q1424.81 422.941 1424.51 424.504C1421.09 441.961 1409.75 457.531 1394.97 467.205C1378.56 477.944 1357.43 482.366 1338.12 478.17C1327.36 475.832 1320.44 470.853 1311.03 467.865Z"/>
	<path fill="#000007" d="M1339.18 379.962C1341.42 380.083 1341.53 379.989 1343.12 381.533C1344.42 385.105 1344.07 389.528 1342.47 392.958C1346.51 392.852 1351.25 392.221 1355 393.885C1356.26 394.441 1356.21 394.427 1356.7 395.682C1356.51 395.871 1356.33 396.07 1356.12 396.247C1353.07 398.928 1346.06 397.856 1342.22 397.694C1342.57 398.292 1342.89 398.842 1343.09 399.506C1344.12 402.866 1343.83 407.571 1342.35 410.728C1341.85 411.609 1341.37 411.677 1340.5 412.148C1336.76 408.148 1339.38 402.315 1337.02 397.605C1334.75 397.648 1332.19 397.865 1329.97 397.47C1328.53 397.214 1327.42 396.597 1326.57 395.399L1327.32 394.149C1330.43 392.413 1333.91 392.911 1337.34 393.048C1339.49 388.896 1337.71 384.351 1339.18 379.962Z"/>
	<path fill="#F99835" d="M217.204 554.015C188.763 547.35 161.217 528.199 141.874 506.726C116.618 478.69 104.067 436.12 106.164 398.854Q106.263 396.996 106.407 395.141Q106.552 393.286 106.742 391.435Q106.932 389.584 107.167 387.738Q107.402 385.893 107.683 384.053Q107.963 382.214 108.288 380.382Q108.614 378.55 108.984 376.726Q109.354 374.903 109.769 373.089Q110.184 371.275 110.643 369.472Q111.102 367.669 111.605 365.878Q112.108 364.086 112.655 362.308Q113.202 360.529 113.793 358.765Q114.383 357 115.016 355.251Q115.65 353.501 116.326 351.768Q117.002 350.035 117.72 348.318Q118.439 346.602 119.199 344.904Q119.959 343.206 120.761 341.527Q121.563 339.848 122.405 338.189Q123.248 336.53 124.131 334.892Q125.014 333.255 125.937 331.639Q126.86 330.023 127.822 328.431Q128.784 326.839 129.785 325.27Q130.786 323.702 131.825 322.158Q132.864 320.615 133.941 319.098Q135.017 317.58 136.131 316.09Q137.244 314.599 138.394 313.136Q139.543 311.674 140.729 310.24Q141.914 308.805 143.134 307.401Q144.354 305.996 145.608 304.622Q146.862 303.247 148.149 301.904Q149.436 300.561 150.756 299.25Q152.076 297.939 153.428 296.66Q154.779 295.382 156.162 294.137C165.666 285.686 175.871 277.91 187.135 271.953C226.601 251.083 278.41 247.838 320.579 261.983C327.197 264.203 334.003 266.624 340.365 269.504C348.858 273.349 354.45 278.286 364.057 278.873C351.638 278.801 315.89 275.687 307.63 283.688C305.367 285.881 303.606 289.098 303.276 292.231C302.24 302.066 302.885 312.418 302.884 322.326L302.921 378.218L302.939 555.755C293.376 553.843 282.332 554.801 272.548 554.783C250.855 554.743 229.042 555.294 207.369 554.924L217.204 554.015Z"/>
	<path fill="#000007" d="M258.72 471.385C259.477 471.871 259.314 471.698 259.837 472.233C262.726 475.186 261.813 481.386 261.754 485.332C264.416 485.297 267.963 484.928 270.479 485.792C272.196 486.381 273.08 486.759 273.797 488.394L272.523 489.733C269.182 491.344 265.113 490.781 261.499 490.637C261.65 495.774 262.444 499.635 259.012 503.835L257.021 501.712C255.987 498.049 256.476 493.857 256.601 490.077C252.982 490.42 249.188 491.209 245.823 489.486C244.636 488.877 244.728 488.797 244.305 487.537C244.708 487.069 244.775 486.939 245.213 486.586C247.751 484.538 253.33 485.463 256.488 485.644C256.36 480.821 255.447 475.316 258.72 471.385Z"/>
	<path fill="#000007" d="M188.999 329.958C188.789 327.154 188.209 324.096 189.651 321.549L190.967 320.658C192.458 321.619 193.113 322.169 193.495 324.004C193.873 325.817 193.578 328.158 193.549 330.028L193.537 330.523L194.069 332.088C198.478 333.341 204.199 327.4 207.11 332.002C206.311 333.845 205.502 334.474 203.581 335.193C200.963 336.173 198.041 336.851 195.311 337.468L199.598 342.985C200.726 345.189 201.407 346.002 201.098 348.531C199.361 349.219 199.286 348.931 197.625 348.257L195.144 345.236L191.097 340.806C189.684 342.769 188.258 344.929 186.64 346.722C185.392 348.105 184.367 348.382 182.585 348.48L182.099 347.036C182.702 343.66 185.139 341.101 187.182 338.464C183.301 336.873 178.125 335.237 175.336 331.971C178.931 329.608 184.504 332.462 188.447 331.755L188.999 329.958Z"/>
	<path fill="#000007" d="M900.559 278.331L1129.35 278.329L1196.84 278.307C1208.06 278.298 1220.2 277.38 1231.34 278.663C1234.91 279.074 1239.05 281.71 1241.53 284.254C1244.72 287.517 1245.88 293.255 1246.32 297.657C1247.27 307.177 1246.61 317.306 1246.6 326.884L1246.46 382.558C1246.32 424.224 1247.64 466.088 1246.56 507.721C1246.51 509.689 1246.42 511.379 1245.75 513.246C1247.56 518.939 1247.24 632.226 1245.78 635.163C1245.67 635.404 1245.52 635.633 1245.39 635.867C1264.53 629.785 1280.83 628.465 1299.33 638.019C1310.66 643.869 1327.04 660.553 1331.3 672.99C1331.55 673.738 1331.6 674.378 1331.59 675.161C1331.72 675.048 1331.85 674.938 1331.97 674.822C1336.45 670.623 1339.47 663.206 1342.93 657.999C1354.6 640.418 1375.86 629.914 1396.9 630.103C1417.28 630.285 1434.32 639.899 1448.22 654.202C1464.43 670.875 1472.68 691.711 1472.37 714.96C1471.91 749.655 1449.02 780.899 1425.06 803.894C1403.51 824.58 1379.31 843.027 1354.67 859.86C1350.41 862.775 1345.37 866.997 1340.59 868.823C1342.07 872.933 1342.46 927.805 1340.72 931.625C1340.51 932.096 1340.4 932.251 1340.15 932.655L1439.2 932.765C1452.02 932.849 1467.41 931.906 1479.87 932.973C1482.43 933.193 1485.38 933.701 1487.3 935.551C1488.75 936.953 1489.49 938.968 1489.4 940.962C1489.34 942.296 1488.86 943.304 1487.89 944.267C1482.72 949.416 1466.58 947.469 1459.76 947.41L483.006 947.509L191.51 947.442L98.2809 947.431C84.9992 947.404 70.8099 948.692 57.6645 947.366C54.3848 947.035 48.9626 946.067 46.9355 943.234C46.1534 942.141 46.0493 940.893 46.4075 939.611C47.0462 937.324 50.0099 934.134 52.2294 933.244C57.3577 931.186 125.225 932.653 137.096 932.553C131.615 919.157 134.056 875.277 134.08 859.187L134.09 767.529C134.052 752 134.628 736.153 133.771 720.665C132.639 676.004 133.879 631.101 133.754 586.412C133.772 578.323 131.445 567.596 137.464 561.104C140.142 558.216 144.117 556.41 147.924 555.624C155.269 554.109 163.827 554.946 171.359 554.982Q189.364 555.173 207.369 554.924C229.042 555.294 250.855 554.743 272.548 554.783C282.332 554.801 293.376 553.843 302.939 555.755L302.921 378.218L302.884 322.326C302.885 312.418 302.24 302.066 303.276 292.231C303.606 289.098 305.367 285.881 307.63 283.688C315.89 275.687 351.638 278.801 364.057 278.873L900.559 278.331Z"/>
	<path fill="#F99835" d="M223.543 568.336C225.412 568.401 227.434 568.512 228.939 569.781C230.165 570.815 230.653 571.88 230.779 573.445C231.001 576.209 229.141 578.202 227.445 580.118C225.336 579.895 223.019 579.677 221.393 578.145C220.031 576.861 219.552 575.454 219.719 573.601C219.926 571.321 221.955 569.748 223.543 568.336Z"/>
	<path fill="#F99835" d="M1103.69 460.474C1104 459.631 1103.92 459.963 1104.06 459.163C1104.48 456.923 1104.69 454.457 1106.43 452.901L1107.17 452.942L1106.91 455.248C1108.12 457.518 1108.45 458.306 1107.61 460.877C1107.57 461.015 1107.51 461.147 1107.45 461.282C1110.53 461.213 1113.47 460.858 1116.19 462.534L1116.87 463.791C1115.74 465.142 1114.63 465.631 1112.87 465.845C1111.25 466.04 1109.5 465.927 1107.87 465.899C1108.02 466.411 1108.11 466.617 1108.19 467.111C1108.57 469.441 1108.34 471.506 1106.94 473.423L1105.76 473.542C1104.41 471.458 1104.5 469.398 1104.39 467.002C1101.7 464.995 1098.01 466.68 1095.33 464.512L1095.22 463.08C1098.05 461.008 1101.12 462.461 1103.69 460.474Z"/>
	<path fill="#F99835" d="M423.964 387.986L425.884 388.801C427.204 390.392 427.072 391.847 427.111 393.818L427.125 394.675C429.201 396.9 432.071 395.583 434.65 397.373C435.004 399.111 435.004 398.975 434.034 400.467C431.993 400.7 430.662 400.991 428.862 401.999C426.721 404.106 426.577 407.39 426.103 410.223L424.292 409.427C422.442 407.52 422.516 404.63 422.208 402.097C420.232 399.976 417.939 401.42 415.656 400.081C414.815 399.586 414.992 399.315 414.782 398.421C416.48 396.261 419.416 396.89 421.678 395.42C423.151 394.463 423.614 389.81 423.964 387.986Z"/>
	<path fill="#0F172A" d="M1347.32 852.925C1353.48 849.016 1360.18 845.108 1365.57 840.186L1367.03 842.015C1368.94 842.086 1369.26 841.761 1370.86 840.828C1370.07 844.438 1366.5 847.123 1363.45 849.072C1358.92 851.958 1354.15 854.488 1349.67 857.446C1346.71 859.398 1342.74 863.973 1339.42 864.556L1338.57 863.828C1340.91 860.146 1345.25 857.197 1348.43 854.195L1347.32 852.925Z"/>
	<path fill="#F99835" d="M1064.32 397.178L1066.35 397.402C1066.89 398.004 1067.38 398.37 1067.6 399.163C1068.51 402.558 1068.33 407.332 1066.53 410.397Q1071.32 410.396 1076.11 410.524C1078.14 410.593 1080.55 410.754 1082.01 412.328C1081.92 412.433 1081.85 412.552 1081.75 412.643C1079.42 414.707 1070.56 414.363 1067.44 414.51C1067.94 419.237 1069.08 423.68 1065.97 427.598C1062.82 424.686 1065.37 418.276 1063.2 414.339C1059.1 414.372 1054.55 414.894 1051.05 412.391L1051.61 411.387C1055.24 409.912 1059.12 410.267 1062.96 410.357C1065.07 406.821 1064.33 401.232 1064.32 397.178Z"/>
	<path fill="#F99835" d="M473.232 480.523C473.42 480.677 473.629 480.81 473.795 480.987C476.513 483.891 476.36 493.009 476.626 497.011Q479.931 497.095 483.232 497.289C485.497 497.436 488.295 497.709 489.884 499.508L489.172 500.629C485.446 502.475 480.844 502.317 476.755 502.562C476.336 508.184 475.558 513.968 473.76 519.322C470.851 516.238 471.125 507.083 470.851 502.833C465.084 502.256 459.582 500.914 454.047 499.252C459.351 497.925 464.722 497.19 470.125 496.403C470.738 490.953 471.862 485.817 473.232 480.523Z"/>
	<path fill="#F99835" d="M1361.21 698.329C1365.13 698.317 1369.05 698.365 1372.97 698.193C1370.09 702.844 1341.89 722.602 1335.68 727.898L1334.93 727.579L1333.67 722.57C1333.82 722.142 1334.05 721.544 1334.16 721.079C1335.27 716.208 1335.79 703.252 1333.38 698.966C1342.68 698.986 1351.93 699.024 1361.21 698.329Z"/>
	<path fill="#F99835" d="M1328.03 699.02L1331.1 699.43C1333.3 703.085 1332.67 709.766 1331.9 713.813C1331.76 714.536 1331.51 715.077 1331.2 715.74C1332.69 719.252 1332.96 724.354 1331.92 728.013L1331 728.798L1329.13 728.356C1328.03 725.839 1292.47 700.709 1288.36 699.063C1301.53 699.272 1314.88 699.763 1328.03 699.02Z"/>
	<path fill="#F99835" d="M1442.25 759.024C1444.26 758.936 1447.85 758.234 1449.49 759.263C1447.04 764.999 1441.76 773.13 1436.89 777.188C1433.86 782.814 1427.28 789.094 1422.39 793.3C1420.78 792.639 1419.7 791.658 1418.4 790.517C1418.37 790.17 1418.35 789.607 1418.25 789.243C1416.77 783.868 1401.46 763.481 1396.94 760.752C1412.01 760.895 1427.22 759.974 1442.25 759.024Z"/>
	<path fill="#F99835" d="M1333.82 806.195C1339.38 808.728 1361.8 831.744 1365.83 837.136L1366.66 838.73L1365.57 840.186C1360.18 845.108 1353.48 849.016 1347.32 852.925C1343.76 855.925 1339.97 858.817 1335.62 860.57C1334.43 860.071 1334.44 859.845 1333.7 858.845C1333.77 858.706 1333.86 858.57 1333.93 858.428C1336.1 854.038 1335.54 811.981 1333.82 806.195Z"/>
	<path fill="#F99835" d="M1298.93 837.915C1303.14 835.171 1330.55 809.393 1331.3 805.948C1333.24 810.15 1333.41 857.264 1332.07 860.483C1331.98 860.711 1331.86 860.93 1331.76 861.153C1321.32 852.877 1309.76 845.718 1298.93 837.915Z"/>
	<path fill="#F99835" d="M1234.4 655.653C1234.09 654.733 1233.13 653.761 1232.53 652.975C1235.29 648.091 1253.67 641.896 1259.3 639.921C1259.49 640.079 1259.69 640.232 1259.87 640.396C1261.69 642.019 1262.56 644.209 1262.73 646.583C1266.84 651.579 1280.69 683.225 1282.59 689.92C1282.98 691.259 1282.96 692.67 1282.84 694.045C1281.05 689.68 1240.75 658.302 1234.88 655.839C1234.72 655.773 1234.56 655.715 1234.4 655.653Z"/>
	<path fill="#F99835" d="M1216.53 761.985C1234.13 762.056 1251.77 762.346 1269.36 761.614C1268.78 766.7 1250.21 791.391 1245.79 795.857C1244.23 795.227 1242.84 794.519 1241.4 793.641C1240.83 791.25 1226.99 775.93 1224.18 774.13C1223.65 770.734 1219.09 764.333 1216.53 761.985Z"/>
	<path fill="#F99835" d="M1451.64 688.791C1454.15 688.655 1456.79 688.144 1459 689.523C1460.63 691.84 1461.05 694.83 1461.71 697.548C1462.84 702.341 1464.89 707.887 1464.01 712.757L1463 713.763L1459.44 713.44C1456.11 711.312 1395.28 699.204 1386.13 696.914C1398.16 695.802 1410.18 694.03 1422.19 692.7C1431.53 691.666 1442.66 691.403 1451.64 688.791Z"/>
	<path fill="#F99835" d="M1456.28 723.889C1458.72 723.065 1461.21 722.314 1462.7 720.055C1463.16 725.563 1461.46 734.609 1458.09 739.036C1457.76 743.312 1454.31 753.181 1451.05 755.89C1450.94 755.979 1450.83 756.059 1450.72 756.143C1445.67 756.676 1440.28 756.689 1435.32 757.564C1422.46 757.229 1409.29 758.531 1396.35 758.527C1402.87 756.398 1453.72 727.506 1456.28 723.889Z"/>
	<path fill="#F99835" d="M1360.37 650.838C1371.33 645.93 1387.74 635.952 1400.44 638.653L1400.52 640.865C1399.8 641.679 1399.2 642.593 1398.56 643.482C1398.17 649.678 1380.71 688.812 1376.59 692.551C1377.92 687.471 1367.98 664.854 1365.05 659.798C1364.59 659.007 1364.12 658.464 1363.52 657.786C1363.54 657.554 1363.57 657.323 1363.58 657.09C1363.69 654.73 1361.96 652.403 1360.37 650.838Z"/>
	<path fill="#F99835" d="M1402.43 638.956C1410.04 640.514 1429.42 646.38 1433.46 652.897C1433.77 653.403 1433.82 653.648 1434.05 654.24C1433.21 655.981 1432.61 656.002 1430.92 656.844C1424.72 661.983 1384.76 689.746 1380.15 691.453C1380.81 690.791 1381.43 690.089 1381.93 689.298C1384.89 684.659 1397.53 654.822 1399.48 648.807C1399.82 647.734 1399.72 647.059 1399.49 645.985C1401.14 644.485 1402.54 642.741 1402.57 640.384C1402.58 639.847 1402.51 639.513 1402.43 638.956Z"/>
	<path fill="#F99835" d="M1358.59 651.952C1360.67 653.902 1361.27 656.02 1362.11 658.653C1364.99 664.186 1377.14 691.36 1376.4 696.093C1366.12 696.123 1354.76 695.256 1344.61 696.795C1341.25 696.695 1337.08 697.501 1334.26 695.506C1338.89 690.946 1340.82 679.94 1343.75 673.861C1347.56 665.959 1353.94 659.851 1358.33 652.4C1358.42 652.252 1358.5 652.102 1358.59 651.952Z"/>
	<path fill="#F99835" d="M1263.6 644.348L1263.63 643.401C1263.66 642.203 1263.54 641.064 1263.41 639.875C1269.83 636.856 1284.4 641.202 1290.73 643.507C1294.38 644.835 1300.59 647.038 1302.34 650.721L1302.26 652.029C1301.06 658.415 1289.4 690.076 1285.75 694.694C1286 693.701 1285.97 692.78 1285.73 691.782C1284.21 685.707 1267.13 646.663 1263.6 644.348Z"/>
	<path fill="#F99835" d="M1303.42 652.75C1306.89 652.987 1309.08 655.911 1311.21 658.353C1318.85 667.096 1329.05 683.27 1330.1 695.01L1329.41 696.819C1315.37 696.917 1301.23 697.164 1287.22 696.145C1287.96 695.469 1288.57 694.758 1289.1 693.899C1291.9 689.354 1304.25 656.878 1303.42 652.75Z"/>
	<path fill="#F99835" d="M1205.9 685.289C1214.09 684.181 1268.04 695.136 1281.07 697.723C1276.01 699.787 1269.38 700.296 1263.97 701.051C1257.91 703.087 1249.94 703.494 1243.56 704.588L1199.92 712.191C1201.47 709.97 1206 688.463 1205.9 685.289Z"/>
	<path fill="#0F172A" d="M1334.26 695.506C1335.2 688.654 1339.01 679.114 1342.36 673.007C1343.4 671.101 1349 663.636 1348.73 662.172L1345.37 666.722C1345.12 666.741 1344.41 666.803 1344.19 666.783C1343.88 666.754 1343.58 666.673 1343.27 666.618C1339.31 670.87 1335.9 681.882 1333.85 687.374C1333.06 686.68 1333.07 686.628 1333.01 685.616C1332.57 678.195 1344.36 661.416 1349.35 655.617C1353.18 651.174 1366.85 639.204 1372.27 638.815L1371.36 641.108C1372.13 642.126 1372.79 641.971 1373.99 642.201C1374.64 641.907 1375.3 641.64 1375.94 641.343C1380.39 639.289 1385.08 639.859 1389.42 637.932C1389.08 636.86 1388.79 636.926 1387.88 636.337C1388.01 636.166 1388.1 635.974 1388.25 635.823C1390.67 633.359 1399.56 632.813 1402.92 632.948C1415 633.432 1442.01 651.244 1450.19 660.523C1451.81 662.35 1453.89 665.086 1453.72 667.586C1452.42 666.588 1451.4 665.468 1450.32 664.239L1449.26 664.937C1449.47 668.543 1453.13 669.756 1453.23 673.664L1454.51 672.597L1454.31 671.292L1455.04 670.681C1459.75 674.488 1464 682.085 1465.64 687.889L1465.18 688.772L1463.13 687.382C1462.53 688.705 1462.95 689.872 1463.24 691.223C1462.37 692.057 1462.17 691.886 1462.13 693.169C1462.09 694.204 1462.21 695.148 1462.35 696.169C1462.44 696.823 1462.42 696.553 1462.37 697.3C1463.45 699.419 1463.96 701.07 1464.19 703.437C1465.03 702.836 1465.41 702.273 1465.95 701.397C1469 704.768 1468.37 708.904 1468.16 713.317C1467.6 725.101 1464.82 746.913 1456.46 755.538C1455.67 750.899 1460.62 745.909 1459.59 740.007L1458.09 739.036C1461.46 734.609 1463.16 725.563 1462.7 720.055C1461.21 722.314 1458.72 723.065 1456.28 723.889L1455.76 722.349C1457.9 721.106 1461.79 719.407 1462.94 717.275C1461.54 715.599 1459.9 715.607 1457.84 715.12L1459.44 713.44L1463 713.763L1464.01 712.757C1464.89 707.887 1462.84 702.341 1461.71 697.548C1461.05 694.83 1460.63 691.84 1459 689.523C1456.79 688.144 1454.15 688.655 1451.64 688.791L1451.45 687.088C1452.96 686.861 1454.48 686.675 1455.93 686.204C1457.15 685.806 1457.03 685.372 1457.58 684.278C1457.4 681.095 1454.65 677.761 1452.93 675.103C1450.73 669.366 1443.16 659.044 1437.34 656.744C1435.58 656.048 1434.04 657.191 1432.41 657.905L1430.92 656.844C1432.61 656.002 1433.21 655.981 1434.05 654.24C1433.82 653.648 1433.77 653.403 1433.46 652.897C1429.42 646.38 1410.04 640.514 1402.43 638.956C1402.51 639.513 1402.58 639.847 1402.57 640.384C1402.54 642.741 1401.14 644.485 1399.49 645.985L1398.56 643.482C1399.2 642.593 1399.8 641.679 1400.52 640.865L1400.44 638.653C1387.74 635.952 1371.33 645.93 1360.37 650.838C1361.96 652.403 1363.69 654.73 1363.58 657.09C1363.57 657.323 1363.54 657.554 1363.52 657.786L1362.11 658.653C1361.27 656.02 1360.67 653.902 1358.59 651.952C1358.5 652.102 1358.42 652.252 1358.33 652.4C1353.94 659.851 1347.56 665.959 1343.75 673.861C1340.82 679.94 1338.89 690.946 1334.26 695.506Z"/>
	<path fill="#F99835" d="M1201.47 720.545C1202.14 720.43 1202.75 720.315 1203.43 720.436C1205.87 720.868 1267.56 757.504 1268.88 759.562C1257.2 761.411 1227.3 759.497 1214.53 759.174C1214.78 757.692 1205.94 735.825 1204.82 731.833C1203.8 728.181 1203.58 723.685 1201.47 720.545Z"/>
	<path fill="#F99835" d="M1208.97 677.427C1213.97 674.643 1219.67 660.329 1229.09 655.27C1231.41 655.249 1231.46 655.654 1233.14 657.118C1240.26 661.861 1281.2 691.579 1283.26 697.069C1272.99 691.537 1223.3 685.429 1207.87 682.271C1208.44 680.716 1209.28 679.104 1208.97 677.427Z"/>
	<path fill="#F99835" d="M1271.26 764.082C1275.08 767.469 1292.36 824.499 1293.26 831.45C1293.41 832.599 1293.11 833.681 1292.89 834.799C1291.06 831.861 1287.93 829.928 1284.67 828.905C1284.61 828.714 1284.57 828.511 1284.48 828.33C1283.01 825.429 1263.66 812.017 1259.78 810.264C1258.18 806.434 1249.77 800.376 1246.06 798.278C1250 795.655 1270.32 768.484 1271.26 764.082Z"/>
	<path fill="#F99835" d="M1432.41 657.905C1434.04 657.191 1435.58 656.048 1437.34 656.744C1443.16 659.044 1450.73 669.366 1452.93 675.103C1454.65 677.761 1457.4 681.095 1457.58 684.278C1457.03 685.372 1457.15 685.806 1455.93 686.204C1454.48 686.675 1452.96 686.861 1451.45 687.088C1445.51 687.081 1439.16 688.279 1433.23 688.95C1415.25 690.988 1397.23 694.09 1379.22 695.57C1382.79 693.729 1431.05 660.351 1432.41 657.905Z"/>
	<path fill="#F99835" d="M1394.31 761.681C1402.14 766.204 1412.48 783.411 1417.01 791.362C1418.2 793.125 1419.27 794.21 1419.4 796.396C1412.69 804.142 1396.04 819.264 1387.29 824.234C1383.23 828.36 1377.98 832.168 1372.98 835.086C1372.31 834.884 1371.77 834.744 1371.17 834.365C1371.76 833.689 1372.22 833.154 1372.62 832.345C1375.89 825.76 1395.76 766.286 1394.31 761.681Z"/>
	<path fill="#F99835" d="M1286.3 700.098C1292.92 702.534 1318.85 723.374 1327.54 729.336L1329.35 731.043C1328.62 732.238 1327.88 732.34 1326.65 732.918C1316.08 738.55 1305.23 743.78 1294.48 749.087C1287.53 752.522 1280.32 756.721 1272.9 758.994C1273.76 757.832 1274.56 756.601 1275.07 755.238C1277.58 748.51 1286.3 710.461 1286.92 703.543C1287.04 702.296 1286.79 701.231 1286.3 700.098Z"/>
	<path fill="#F99835" d="M1339.67 733.617C1338.8 732.611 1337.47 731.907 1336.36 731.162L1336.38 730.562C1342.45 724.739 1370.19 702.75 1376.74 699.496C1378.2 700.997 1378.27 702.505 1378.58 704.514C1382 713.118 1394 750.919 1393.2 758.407C1389.58 754.547 1345.47 734.559 1339.67 733.617Z"/>
	<path fill="#F99835" d="M1274.28 764.058C1274.59 764.085 1274.91 764.085 1275.22 764.141C1277.45 764.548 1329.02 800.781 1330.69 803.383C1329.78 806.632 1317.41 817.982 1314.22 820.016C1314.16 820.212 1314.13 820.417 1314.05 820.605C1312.54 824.27 1300.11 834.985 1296.38 836.709C1297.43 831.757 1277.59 769.891 1274.28 764.058Z"/>
	<path fill="#F99835" d="M1392.53 760.99C1392.87 762.127 1393 763.218 1392.76 764.396C1390.81 773.851 1386.64 783.766 1383.6 792.995C1379.27 806.149 1375.56 819.939 1370.23 832.693L1369.82 835.295C1368.68 835.821 1368.57 835.974 1367.36 835.72C1365.98 831.939 1339.13 806.131 1334.67 803.705C1338.22 802.457 1385.49 767.864 1390.34 763.789C1391.3 762.975 1391.95 762.112 1392.53 760.99Z"/>
	<path fill="#F99835" d="M1329.39 733.576L1331.75 734.704C1332.83 737.833 1332.8 787.669 1331.61 791.609C1331.68 791.8 1331.75 791.989 1331.81 792.181C1332.81 795.26 1333.04 798.07 1331.51 801.001C1328.98 797.432 1279.94 763.823 1274.49 761.233C1281.78 758.512 1325.19 737.387 1329.39 733.576Z"/>
	<path fill="#F99835" d="M1333.66 764.32C1336.58 758.875 1333.8 744.688 1334.62 737.764C1334.83 736.019 1334.88 735.25 1336.22 734.155L1338.96 735.182C1345.9 738.21 1389.07 756.94 1391.43 759.66C1388.8 762.646 1336.61 800.798 1333.43 802.022C1336.02 797.584 1335.77 771.36 1334.35 766.072C1334.18 765.468 1333.93 764.883 1333.66 764.32Z"/>
	<path fill="#F99835" d="M1378.69 697.567C1404.82 703.647 1431.41 710.594 1457.84 715.12C1459.9 715.607 1461.54 715.599 1462.94 717.275C1461.79 719.407 1457.9 721.106 1455.76 722.349C1445.32 729.659 1433.03 735.589 1421.92 741.857C1413.22 746.762 1404.32 752.872 1395.11 756.672C1395.33 756.101 1395.52 755.626 1395.53 755.003C1395.6 750.819 1382.08 706.688 1379.97 704.326C1380.39 701.963 1380.33 699.984 1378.96 697.911C1378.88 697.789 1378.78 697.682 1378.69 697.567Z"/>
	<path fill="#F99835" d="M1281.68 700.295C1282.87 700.223 1284.02 700.3 1285.2 700.361C1284.37 709.835 1275.55 750.503 1271.44 757.722C1268.94 754.965 1233.61 734.927 1228.66 732.955C1227.09 730.296 1203.95 717.33 1199.7 715.113C1226.77 708.668 1254.69 706.599 1281.68 700.295Z"/>
	<path fill="#F99835" d="M777.302 468.252C803.137 468.854 829.025 468.381 854.866 468.227Q837.21 482.144 820.027 496.641L777.313 532.908C776.511 511.448 777.228 489.735 777.302 468.252Z"/>
	<path fill="#F99835" d="M725.047 468.472C741.521 468.116 758.032 468.259 774.511 468.188C775.085 489.6 774.649 511.16 774.697 532.588C770.007 528.571 765.139 524.73 760.362 520.815C739.037 503.312 717.888 485.535 695.776 469.028L725.047 468.472Z"/>
	<path fill="#F99835" d="M980.294 581.529C976.723 590.808 939.433 638.997 931.004 642.785C930.836 642.861 930.658 642.91 930.485 642.972C916.876 622.631 900.859 603.447 886.283 583.74C898.786 582.245 911.675 582.433 924.262 582.232L980.294 581.529Z"/>
	<path fill="#F99835" d="M546.709 505.179C546.525 504.783 546.434 504.64 546.354 504.156C545.117 496.672 548.539 466.013 553.06 460.401L555.029 460.386C582.695 461.955 610.264 464.092 637.903 465.97C653.332 467.018 669.17 467.308 684.506 469.238Q633.059 481.922 581.914 495.779C570.376 498.935 557.861 500.913 546.709 505.179Z"/>
	<path fill="#F99835" d="M711.614 720.814Q743.349 695.675 774.341 669.624C774.319 701.52 775.103 733.502 774.383 765.39L774.043 766.131C771.053 766.073 716.884 725.825 711.614 720.814Z"/>
	<path fill="#F99835" d="M570.129 579.665C582.747 581.975 596.341 581.906 609.137 582.495C628.496 583.387 647.777 584.393 667.159 584.597C656.595 597.678 646.772 611.312 636.42 624.555C631.436 630.931 624.817 637.561 620.706 644.458C616.449 638.281 609.94 632.548 604.843 626.966C596.53 617.865 573.119 590.132 570.129 579.665Z"/>
	<path fill="#F99835" d="M777.123 669.581C798.809 685.746 818.919 704.159 840.832 719.965C821.523 737.521 798.322 752.054 776.759 766.728C778.223 756.555 777.166 744.912 777.15 734.576L777.123 669.581Z"/>
	<path fill="#F99835" d="M593.999 398.599C593.258 397.906 593.37 397.875 593.149 396.95L593.771 396.453C603.116 389.011 632.771 370.391 644.468 372.405C645.776 372.63 646.055 373.535 646.807 374.549Q660.578 401.818 673.812 429.351C679.316 440.703 685.149 452.01 689.976 463.668C677.707 457.298 666.482 448.628 655.169 440.703L616.758 414.133C609.404 408.982 601.946 402.763 593.999 398.599Z"/>
	<path fill="#F99835" d="M908.007 373.634C909.863 372.404 910.174 372.605 912.243 373.011C929.68 376.429 948.181 387.209 961.638 398.562Q930.852 418.179 900.412 438.331C887.552 446.834 873.692 457.908 859.45 463.78C876.176 434.024 891.28 403.408 908.007 373.634Z"/>
	<path fill="#F99835" d="M998.836 458.113C1003.7 465.259 1006.74 495.333 1005.21 504.153C1005.15 504.529 1005.07 504.901 1004.98 505.273C993.023 500.561 978.769 498.33 966.229 495.359L918.067 483.575C899.725 479.165 880.979 474.98 863.296 468.314C873.484 466.798 884.327 467.149 894.642 466.446C915.885 464.998 937.054 462.72 958.279 461.083C971.71 460.047 985.538 460.105 998.836 458.113Z"/>
	<path fill="#F99835" d="M1003.75 510.748C1006.96 522.646 990.407 565.193 984.153 576.003C983.227 577.604 982.768 578.501 981.037 579.274C967.257 578.514 953.237 579.154 939.444 579.402Q913.7 579.622 887.981 580.76L958.107 538.58C973.336 529.342 988.278 519.576 1003.75 510.748Z"/>
	<path fill="#F99835" d="M648.287 372.127C654.7 367.664 676.35 369.543 684.307 370.954C695.875 373.005 711.801 378.027 721.012 385.385C716.11 394.933 713.144 405.552 709.87 415.741C704.619 432.084 699.667 448.395 692.871 464.188C685.575 447.065 677.021 430.465 668.887 413.734C662.134 399.84 655.853 385.597 648.287 372.127Z"/>
	<path fill="#F99835" d="M568.611 577.677C558.529 559.84 551.901 541.577 547.866 521.538C547.204 518.246 545.624 513.359 547.535 510.48L549.74 511.389C555.101 516.24 562.379 520.051 568.563 523.856Q588.312 536.004 608.386 547.606C627.574 558.877 646.171 571.117 665.374 582.383C636.387 581.631 607.473 579.039 578.496 578.285C575.273 577.664 571.889 577.756 568.611 577.677Z"/>
	<path fill="#F99835" d="M832.55 388.186C832.374 387.107 832.239 386.442 832.488 385.351C832.838 383.824 835.036 382.369 836.317 381.519C853.159 370.348 886.457 367.515 905.996 371.602C900.259 380.585 895.515 390.382 890.517 399.798C879.149 421.215 868.36 442.927 856.594 464.13C847.771 439.113 840.633 413.455 832.55 388.186Z"/>
	<path fill="#F99835" d="M778.233 461.498C780.985 458.421 783.374 447.718 785.099 443.266C792.976 422.929 806.69 403.542 823.741 389.949C825.669 388.412 827.383 386.947 829.931 387.233L830.828 389.261C835.66 407.963 841.83 426.5 847.688 444.91C849.901 451.867 852.569 458.794 854.435 465.841Q830.225 465.7 806.015 465.807C797.125 465.847 787.49 466.617 778.693 465.596C777.821 464.071 778.119 463.224 778.233 461.498Z"/>
	<path fill="#F99835" d="M722.562 386.627C746.077 397.645 762.569 431.534 770.927 454.623L773.919 463.024C773.818 463.803 773.574 464.592 773.386 465.353C766.436 466.96 756.413 465.758 749.133 465.773L695.162 466.008C705.646 440.101 712.91 412.883 722.562 386.627Z"/>
	<path fill="#F99835" d="M884.038 585.676C900.056 603.971 914.083 625.556 929.047 644.891C919.305 654.345 854.148 713.533 847.273 714.666C860.207 671.901 871.393 628.541 884.038 585.676Z"/>
	<path fill="#F99835" d="M963.34 400.333C977.333 410.677 995.953 437.956 998.913 455.284C998.957 455.544 998.973 455.808 999.003 456.07C976.824 456.068 954.102 458.7 932.006 460.715C909.112 462.804 886.428 464.405 863.448 465.302C883.647 452.783 903.337 439.541 923.228 426.547C936.588 417.818 950.28 409.503 963.34 400.333Z"/>
	<path fill="#F99835" d="M669.649 586.221Q687.614 650.18 703.842 714.601C695.644 713.09 631.098 654.027 622.9 645.125C632.714 633.512 641.975 621.541 651.171 609.436C657.079 601.658 662.806 593.208 669.649 586.221Z"/>
	<path fill="#F99835" d="M558.749 457.961C557.106 457.806 555.2 457.852 553.818 456.869C553.871 454.397 554.632 452.28 555.511 449.993C560.224 437.723 579.279 404.783 591.055 399.507L593.302 400.465C600.47 406.585 608.804 411.841 616.539 417.23L664.174 449.944C671.929 455.3 680.23 460.46 687.285 466.707C656.964 464.178 626.485 462.286 596.119 460.28C583.706 459.46 571.118 459.175 558.749 457.961Z"/>
	<path fill="#F99835" d="M694.724 470.73C701.345 477.2 709.464 482.782 716.686 488.616C735.778 504.041 755.52 519.144 773.837 535.457C758.755 542.871 743.002 549.201 727.567 555.862L671.99 580.976C674.158 568.909 677.098 556.897 679.594 544.884L694.724 470.73Z"/>
	<path fill="#F99835" d="M855.758 471.126C857.401 473.32 879.336 568.152 882.385 580.419Q855.97 569.719 830.034 557.904L779.021 535.172C804.67 513.796 829.34 491.636 855.758 471.126Z"/>
	<path fill="#F99835" d="M881.158 585.82C877.509 600.959 872.565 615.891 868.314 630.875L844.207 716.413L842.709 718.927C833.263 710.257 822.738 702.496 812.728 694.488C801.242 685.3 790.013 675.807 778.392 666.787C795.517 653.961 812.037 640.434 828.788 627.134C846.203 613.306 863.859 599.802 881.158 585.82Z"/>
	<path fill="#F99835" d="M672.844 587.351C693.078 603.298 713.02 619.671 733.386 635.438C746.662 645.717 761.491 655.515 773.745 666.938Q758.079 680.051 742.192 692.894C731.317 701.846 720.375 711.357 708.539 719.01C707.48 718.055 707.372 717.101 706.93 715.762Q695.341 670.898 683.048 626.222C679.634 613.451 675.159 600.309 672.844 587.351Z"/>
	<path fill="white" d="M1245.67 811.318C1245.96 811.334 1246.26 811.338 1246.55 811.367C1248.95 811.604 1267.69 827.046 1271.02 829.522C1279.48 835.813 1322.92 865.737 1325.55 869.406C1327.58 873.59 1326.71 923.488 1326.44 931.892C1324.87 933.167 1324.18 932.917 1322.21 932.99Q1301.06 933.124 1279.91 932.768C1280.05 932.649 1280.2 932.54 1280.32 932.411C1283.98 928.724 1285.86 922.045 1285.86 916.984Q1285.86 916.269 1285.82 915.556Q1285.78 914.842 1285.7 914.131Q1285.63 913.421 1285.52 912.714Q1285.41 912.008 1285.26 911.308Q1285.12 910.608 1284.94 909.916Q1284.76 909.224 1284.55 908.542Q1284.33 907.859 1284.09 907.188Q1283.84 906.517 1283.56 905.859Q1283.29 905.201 1282.98 904.557Q1282.67 903.913 1282.32 903.286Q1281.98 902.658 1281.61 902.048Q1281.24 901.438 1280.84 900.847Q1280.43 900.256 1280 899.685Q1279.57 899.115 1279.12 898.566Q1278.66 898.017 1278.17 897.492Q1277.69 896.966 1277.18 896.465C1268.35 887.679 1256.84 887.862 1245.25 887.952C1247.3 884.023 1247.16 816.413 1245.67 811.318Z"/>
	<path fill="#F99835" d="M773.683 538.637C775.701 541.09 774.686 650.414 774.657 664.281Q746.622 642.494 718.875 620.341L673.204 583.875C705.475 566.995 740.161 552.91 773.683 538.637Z"/>
	<path fill="#F99835" d="M777.5 537.941C791.007 542.919 804.219 549.327 817.388 555.156L881.256 582.82Q858.12 600.516 835.389 618.731C816.063 634.005 797.015 649.737 777.194 664.359C776.754 622.276 776.983 580.023 777.5 537.941Z"/>
	<path fill="#F99835" d="M858.911 470.207C906.407 484.681 955.024 494.044 1002.87 507.028L1003.15 508.217C990.102 514.457 977.344 523.708 964.913 531.212Q924.816 555.101 885.053 579.544C879.693 561.415 875.744 542.786 871.395 524.39C867.137 506.384 862.423 488.37 858.911 470.207Z"/>
	<path fill="#F99835" d="M548.328 507.327Q619.879 487.924 691.85 470.138C689.948 485.874 685.807 501.384 682.587 516.888C678.154 538.23 674.146 559.662 669.3 580.919C653.951 574.382 639.615 563.77 625.46 554.965C608.938 544.688 592.036 535.046 575.43 524.904C567.393 519.996 559.153 513.959 550.627 510.051L548.328 507.327Z"/>
	<path fill="white" d="M415.309 603.008L455.983 603.051L456.197 825.279L484.622 825.233L484.94 661.98C498.471 661.926 512.082 661.608 525.6 662.185L525.717 825.258L555.957 825.24L555.908 766.74C555.909 754.559 555.559 742.243 556.354 730.088L592.314 730.2C594.264 730.185 595.594 730.181 597.361 731.055C598.617 741.363 597.756 752.65 597.756 763.061L597.725 825.185L625.645 825.161L625.597 784.326L666.087 784.477L666.101 825.161C671.25 825.199 676.437 824.749 681.575 824.971C684.267 825.087 687.867 825.304 689.731 827.373L687.751 827.902L688.893 827.791C675.857 828.879 662.55 828.197 649.46 828.278Q611.025 828.73 572.587 828.544C546.741 828.537 520.881 828.094 495.039 828.304C463.898 828.557 432.546 829.439 401.424 828.94C398.968 828.9 396.54 828.873 394.403 827.545L394.619 826.304C397.948 824.123 410.307 825.369 414.833 825.347L415.309 603.008Z"/>
	<path fill="#000007" d="M629.227 788.156L662.498 788.263C662.56 797.858 664.111 815.906 661.969 824.65C660.151 825.218 658.629 825.34 656.729 825.32L657.042 796.26C649.612 796.084 642.134 796.312 634.7 796.364C634.71 806.044 634.946 815.738 635.074 825.417C633.335 825.331 630.958 825.547 629.535 824.457C628.284 812.706 629.185 800.013 629.227 788.156Z"/>
	<path fill="#F99835" d="M634.7 796.364C642.134 796.312 649.612 796.084 657.042 796.26L656.729 825.32C649.526 825.165 642.28 825.374 635.074 825.417C634.946 815.738 634.71 806.044 634.7 796.364Z"/>
	<defs>
		<linearGradient id="gradient_0" gradientUnits="userSpaceOnUse" x1="558.48029" y1="781.49426" x2="464.02832" y2="694.92035">
			<stop offset="0" stop-color="black"/>
			<stop offset="1" stop-color="#04071E"/>
		</linearGradient>
	</defs>
	<path fill="url(#gradient_0)" d="M488.233 665.426L522.01 665.474L522.046 781.349C522.048 791.149 523.46 816.988 521.584 824.673C519.84 825.41 518.357 825.376 516.484 825.373C515.81 783.134 516.665 740.719 516.692 698.46L492.621 697.612C491.567 697.893 490.333 697.914 489.724 698.864C486.772 703.472 490.521 722.464 488.382 729.617Q488.123 697.521 488.233 665.426Z"/>
	<path fill="#000007" d="M418.653 606.571L452.435 606.591L452.455 615.635L452.399 758.548L452.311 805.059C452.298 810.225 453.068 815.801 452.666 820.896C452.513 822.833 452.125 823.997 450.805 825.379L447.45 825.757C448.028 777.322 447.679 728.841 447.674 680.402C447.671 659.161 446.977 637.735 447.76 616.517C444.879 613.958 428.293 615.6 423.664 615.855C423.659 634.088 424.337 652.587 423.56 670.786L423.694 771.764C423.699 789.061 425.054 807.549 423.359 824.722C421.725 825.34 420.213 825.759 418.489 826.035C417.846 797.226 418.453 768.256 418.465 739.43C418.482 700.918 418.089 662.361 418.682 623.854L418.653 606.571Z"/>
	<path fill="#000007" d="M559.499 733.642L594.037 733.753L594.039 767.338C594.073 777.739 595.589 817.613 593.556 824.789C591.885 825.134 590.397 825.314 588.689 825.325C580.883 825.178 573.055 825.357 565.248 825.416C563.244 825.412 561.722 825.288 559.812 824.661C558.089 812.662 559.42 792.52 559.612 779.601C558.942 764.375 559.504 748.896 559.499 733.642Z"/>
	<path fill="#F99835" d="M565.45 767.418C571.521 766.98 583.31 765.808 588.775 768.076C588.252 787.108 588.474 806.285 588.689 825.325C580.883 825.178 573.055 825.357 565.248 825.416C565.122 806.089 565.385 786.747 565.45 767.418Z"/>
	<path fill="#F99835" d="M492.621 697.612L516.692 698.46C516.665 740.719 515.81 783.134 516.484 825.373Q504.591 825.451 492.702 825.76C491.269 825.563 490.14 825.228 488.783 824.721C487.014 818.544 488.095 741.805 488.382 729.617C490.521 722.464 486.772 703.472 489.724 698.864C490.333 697.914 491.567 697.893 492.621 697.612Z"/>
	<path fill="#000007" d="M488.382 729.617C490.521 722.464 486.772 703.472 489.724 698.864C490.333 697.914 491.567 697.893 492.621 697.612C493.586 717.231 492.76 737.141 492.706 756.797C492.643 779.766 493.202 802.805 492.702 825.76C491.269 825.563 490.14 825.228 488.783 824.721C487.014 818.544 488.095 741.805 488.382 729.617Z"/>
	<path fill="#F99835" d="M423.664 615.855C428.293 615.6 444.879 613.958 447.76 616.517C446.977 637.735 447.671 659.161 447.674 680.402C447.679 728.841 448.028 777.322 447.45 825.757C438.625 824.443 427.434 825.62 418.489 826.035C420.213 825.759 421.725 825.34 423.359 824.722C425.054 807.549 423.699 789.061 423.694 771.764L423.56 670.786C424.337 652.587 423.659 634.088 423.664 615.855Z"/>
	<path fill="white" d="M1097.69 567.509C1110.62 565.806 1125.49 567.178 1138.64 567.224C1138.7 567.345 1138.76 567.467 1138.82 567.587C1139.09 568.101 1139.39 568.637 1139.56 569.198C1141.15 574.59 1140.01 628.174 1140.01 638.828L1140.07 759.16C1140.08 779.549 1140.49 800.029 1140.05 820.407C1140.01 822.352 1139.85 823.769 1139.01 825.546C1143.58 825.549 1159.37 824.34 1162.27 827.06C1161.82 827.426 1161.73 827.551 1161.11 827.772C1155.89 829.616 1131.29 828.443 1124.75 828.479Q1051.28 828.797 977.816 828.307C946.312 828.319 914.754 829.333 883.251 828.928C880.181 828.889 876.372 828.994 873.589 827.66L874.504 826.704C879.307 825.017 884.358 825.384 889.373 825.447Q889.481 803.242 889.353 781.038C902.824 781.007 916.436 780.608 929.886 781.307C930.466 795.915 930.05 810.693 930.081 825.321L956.392 825.261L956.411 755.059L956.51 724.105Q977.757 723.999 999.002 724.368L999.062 825.239L1025.61 825.205C1025.86 824.772 1025.88 824.756 1026.11 824.237C1027.56 820.947 1027.34 664.246 1026.1 660.83L1067.44 660.888Q1067.82 661.484 1068.08 662.141Q1068.33 662.798 1068.46 663.492C1069.38 668.503 1068.73 675.015 1068.73 680.179L1068.71 715.991L1068.72 784.805C1068.73 796.828 1069.18 808.999 1068.65 820.999C1068.58 822.653 1068.31 823.775 1067.43 825.198L1096.75 825.21C1097.79 823.453 1097.97 822.009 1098.01 819.991C1099.15 760.866 1097.96 701.515 1098.02 642.361L1098.11 591.536C1098.13 583.863 1099.12 574.968 1097.69 567.509Z"/>
	<path fill="#000007" d="M892.867 784.629C903.743 784.599 914.818 784.091 925.663 784.822C928.144 794.796 926.611 814.926 926.584 825.884C924.702 825.718 923.249 825.484 921.498 824.763C920.123 816.406 921.151 806.551 921.564 798.033L920.974 796.044C915.309 793.723 903.966 795.284 897.772 795.413C897.84 804.96 898.665 815.179 897.5 824.637C895.958 825.584 894.496 825.738 892.726 825.994L892.867 784.629Z"/>
	<path fill="#F99835" d="M897.772 795.413C903.966 795.284 915.309 793.723 920.974 796.044L921.564 798.033C921.151 806.551 920.123 816.406 921.498 824.763C923.249 825.484 924.702 825.718 926.584 825.884C915.281 825.847 904.03 825.685 892.726 825.994C894.496 825.738 895.958 825.584 897.5 824.637C898.665 815.179 897.84 804.96 897.772 795.413Z"/>
	<path fill="#000007" d="M959.989 727.537Q977.706 727.358 995.423 727.379L995.377 751.007C995.401 762.094 996.918 817.549 995.095 824.847C993.061 825.673 991.394 825.515 989.251 825.388L989.291 751.125C986.212 749.631 970.192 749.366 966.727 750.665C966.415 750.782 966.006 751.07 965.749 751.234L965.495 752.249Q965.929 775.366 965.612 798.485C965.535 807.296 964.815 816.739 965.755 825.483C963.662 825.51 962.18 825.611 960.33 824.55C959.414 816.827 959.917 808.736 959.944 800.947L960.067 761.6C959.812 750.265 960.007 738.878 959.989 727.537Z"/>
	<path fill="#F99835" d="M965.495 752.249L965.749 751.234C966.006 751.07 966.415 750.782 966.727 750.665C970.192 749.366 986.212 749.631 989.291 751.125L989.251 825.388C981.43 825.189 973.579 825.405 965.755 825.483C964.815 816.739 965.535 807.296 965.612 798.485Q965.929 775.366 965.495 752.249Z"/>
	<path fill="#000007" d="M1030.51 664.265C1041.43 663.456 1052.96 663.981 1063.9 664.318C1064.57 665.562 1064.87 666.519 1064.95 667.942C1066.28 691.345 1064.98 717.363 1064.99 741.065C1065 768.746 1066.25 797.031 1064.76 824.643C1062.81 825.716 1059.53 825.312 1057.31 825.331C1054.84 825.451 1052.36 825.791 1049.99 824.943C1050.03 824.126 1050.12 823.147 1049.94 822.35C1049.62 820.974 1048.69 820.378 1047.6 819.662L1046.33 820.303L1045.88 824.427C1043.36 826.297 1032.79 825.324 1029.16 825.334C1029.94 823.984 1030.3 822.835 1030.39 821.269C1030.97 811.021 1030.49 800.443 1030.5 790.159L1030.65 730.373L1030.79 687.468C1030.82 679.866 1031.37 671.811 1030.51 664.265Z"/>
	<path fill="#000007" d="M1101.04 571.259C1111.05 569.365 1124.75 570.784 1135.11 570.833C1135.27 571.116 1135.45 571.392 1135.6 571.683C1136.12 572.705 1136.21 573.736 1136.26 574.853C1136.77 586.238 1136.37 597.838 1136.36 609.243L1136.27 677.416L1136.48 788.517C1136.48 795.918 1137.72 819.151 1135.96 824.852L1132.39 825.45C1128.57 825.608 1125.67 826.067 1122.39 823.767C1121.4 823.071 1120.91 822.586 1119.66 822.493L1118.46 824.778C1114.05 826.567 1105.28 825.297 1100.31 825.231C1100.47 824.954 1100.66 824.685 1100.81 824.399C1101.76 822.651 1101.59 820.15 1101.62 818.217C1102.52 759.197 1101.5 700.057 1101.52 641.027C1101.52 628.704 1103.25 579.34 1101.04 571.259Z"/>
	<path fill="#0F172A" d="M689.165 895.741C695.889 899.987 700.825 906.927 708.776 909.224C713.183 910.497 830.454 911.037 837.577 909.562C847.659 907.475 852.254 895.826 863.379 895.243C883.206 894.203 903.534 895.151 923.405 895.167L1050.09 895.246L1180.93 895.37C1203.77 895.328 1229.35 893.785 1251.82 895.324C1258.13 895.757 1263.98 896.779 1268.78 901.176C1273.11 905.14 1275.98 910.952 1276.16 916.851C1276.27 920.714 1275.18 924.435 1272.38 927.196C1268.96 930.563 1264.26 931.974 1259.59 932.434C1248.99 933.478 1237.54 932.569 1226.87 932.48L1164.44 932.144L957.247 931.988L313.317 932.605C318.585 921.347 316.84 907.789 316.641 895.63L652.324 895.344C664.588 895.316 676.917 895.024 689.165 895.741Z"/>
	<path fill="#0F172A" d="M143.637 922.082C144.347 911.098 144.026 899.937 144.115 888.927Q144.435 860.915 144.36 832.902L144.027 662.03L144.212 611.882C144.196 601.235 143.699 590.356 144.283 579.743C144.487 576.043 144.591 569.912 146.934 566.92C149.898 565.157 153.139 564.48 156.534 564.112C166.737 563.007 177.739 563.787 188.019 563.79C198.107 563.792 209.072 562.937 219.058 564.213C216.329 567.902 213.093 572.978 213.809 577.826C214.089 579.725 215.126 581.271 216.672 582.384C219.657 584.532 224.227 585.185 227.799 584.478C231.255 583.794 234.846 581.771 236.704 578.694C237.827 576.832 238.064 574.853 237.36 572.795C236.188 569.368 233.587 566.213 230.524 564.346C237.458 563.014 285.921 563.525 294.117 564.441C297.577 564.828 300.612 565.563 303.667 567.268C306.37 570.181 306.401 577.487 306.55 581.343C307.416 603.66 306.805 626.244 306.884 648.586L307.108 782.947L306.88 868.965C306.911 883.851 308.103 899.322 307.032 914.133C306.703 918.691 305.542 925.695 302.018 928.971C299.925 930.917 294.861 931.411 292.109 931.661C270.601 933.615 247.856 932.348 226.248 932.325C201.034 932.297 175.257 933.39 150.136 931.479C147.28 928.6 145.419 925.7 143.637 922.082Z"/>
	<path fill="#000007" d="M221.725 896.493C224.54 896.355 227.035 896.578 229.663 897.678Q230.422 898.001 231.143 898.401Q231.864 898.801 232.539 899.273Q233.215 899.746 233.838 900.286Q234.462 900.825 235.026 901.427Q235.59 902.028 236.089 902.685Q236.588 903.341 237.016 904.046Q237.444 904.751 237.797 905.496Q238.15 906.241 238.424 907.019C239.863 911.193 239.43 915.605 237.391 919.501C234.961 924.145 231.122 925.915 226.318 927.286C223.375 927.325 220.245 926.877 217.579 925.563Q216.846 925.205 216.153 924.775Q215.46 924.345 214.814 923.847Q214.167 923.349 213.575 922.789Q212.982 922.228 212.449 921.611Q211.915 920.994 211.447 920.326Q210.979 919.658 210.58 918.946Q210.181 918.234 209.857 917.486Q209.532 916.737 209.284 915.96Q209.051 915.243 208.894 914.506Q208.736 913.769 208.656 913.019Q208.576 912.269 208.573 911.515Q208.571 910.761 208.647 910.011Q208.723 909.261 208.876 908.523Q209.029 907.785 209.258 907.067Q209.487 906.348 209.789 905.657Q210.091 904.967 210.463 904.311C213.053 899.683 216.961 898.001 221.725 896.493Z"/>
	<path fill="white" d="M219.88 902.575C221.516 902.305 223.15 902.072 224.811 902.258C227.647 902.576 230.433 904.173 232.123 906.48C233.57 908.457 234.077 910.961 233.622 913.364C232.901 917.173 230.402 919.203 227.405 921.246C225.871 921.555 224.324 921.863 222.754 921.651C220.116 921.295 217.496 919.671 215.915 917.542C214.3 915.367 213.769 912.469 214.289 909.827C214.981 906.308 217.168 904.559 219.88 902.575Z"/>
	<path fill="#000007" d="M162.703 589.18C185.32 587.853 208.606 588.957 231.304 588.895C243.624 588.862 280.683 587.239 290.151 589.587C295.262 590.854 297.692 594.53 300.199 598.78C301.817 650.209 300.655 702.014 300.634 753.481L300.678 829.868C300.698 844.375 301.103 858.988 300.546 873.479C300.437 876.335 300.387 879.698 299.023 882.282C296.84 886.417 293.4 888.364 289.121 889.611C268.68 888.794 167.371 891.672 157.339 887.275C154.544 886.05 153.065 882.934 152.062 880.169C150.936 877.066 150.813 874.017 150.695 870.756C150.174 856.334 150.588 841.773 150.625 827.334L150.733 751.5C150.743 703.849 149.528 655.937 150.706 608.327C150.803 604.386 150.752 599.647 152.636 596.068C154.781 591.995 158.535 590.367 162.703 589.18Z"/>
	<path fill="white" d="M161.022 595.767C175.39 595.258 189.937 595.691 204.329 595.67L276.187 595.445C280.424 595.453 289.008 594.785 291.946 598.086C293.367 599.683 294.067 601.696 294.202 603.806C294.947 615.387 294.212 627.511 294.198 639.146L294.263 709.961L294.273 807.755C294.374 828.911 295.201 850.273 294.504 871.412C294.323 876.895 293.962 878.562 289.941 882.312C287.297 882.631 284.58 882.682 281.918 882.749C259.824 883.302 237.621 882.816 215.516 882.907C199.658 882.972 183.182 883.963 167.386 882.772C165.068 882.597 160.994 882.428 159.327 880.698C157.265 878.557 156.72 875.815 156.681 872.96C155.848 813.469 156.617 753.832 156.541 694.323L156.498 633.077C156.504 623.051 155.761 612.266 156.861 602.319C157.178 599.455 159.115 597.728 161.022 595.767Z"/>
	<path fill="white" d="M333.191 283.947C395.788 283.107 458.454 283.722 521.059 283.686L928.359 283.276L1127.38 283.35L1190.03 283.228C1204.12 283.21 1218.58 282.417 1232.55 284.483C1232.96 284.543 1233.28 284.562 1233.66 284.689C1235.98 285.463 1238.86 289.762 1239.77 291.883C1241.01 294.792 1241.1 298.765 1241.19 301.898C1241.8 321.288 1241.27 340.854 1241.26 360.262L1241.31 471.021L1241.37 578.553C1241.36 596.825 1241.94 615.333 1241.23 633.582C1241.17 635.096 1240.88 636.3 1240.26 637.694C1235.22 642.168 1227.76 644.86 1222.35 649.375C1210.74 659.083 1202.47 671.596 1197.51 685.851C1195.9 690.477 1194.9 695.422 1192.58 699.754C1192.47 699.946 1192.36 700.134 1192.25 700.324C1193.53 697.961 1193.42 695.455 1193.47 692.843C1194.04 665.905 1193.43 638.849 1193.36 611.902L1193.2 467.21L1193.23 378.816C1193.23 364.825 1194.35 349.996 1193.02 336.149C1192.57 331.432 1190.82 327.518 1187.48 324.144L1186.76 323.432C1183.79 320.424 1175.12 320.453 1170.94 320.358C1136.43 319.577 1101.72 320.37 1067.19 320.409L855.893 320.711L497.655 320.502C483.441 320.509 373.897 318.738 366.51 321.794Q365.248 322.319 364.109 323.075Q362.97 323.83 361.995 324.788C359.302 327.437 357.295 331.22 356.832 334.981C355.354 346.976 356.365 360.097 356.347 372.241L356.31 445.488L356.502 689.657L356.388 799.251C356.351 814.243 354.911 836.55 356.791 850.826C357.327 854.895 358.907 858.971 361.72 862.029C365.144 865.753 373.269 866.498 378.082 866.723C398.309 867.672 418.946 866.897 439.203 866.897L557.909 866.883L941.378 866.796L1094.94 866.728C1120.52 866.711 1149.02 867.979 1174.14 866.483C1177.54 866.28 1184.76 865.97 1187.26 863.451C1189.88 860.804 1192.47 857.667 1193.18 853.898C1195.19 843.214 1193.68 827.719 1193.61 816.401C1193.41 786.444 1192.35 755.959 1194.17 726.067C1200.59 750.283 1207.74 767.137 1224.23 786.63C1228.01 791.092 1236.97 798.454 1238.77 803.236C1239.03 803.752 1239.12 803.871 1239.28 804.384C1240.75 808.955 1240.1 876.277 1239.59 884.354C1239.51 885.66 1239.13 886.807 1238.59 887.993L1000.81 887.545L910.33 887.5C894.357 887.485 878.247 886.999 862.291 887.545C850.444 887.95 845.225 900.036 834.205 901.405C821.162 903.027 806.616 901.806 793.402 901.797L710.4 901.651C703.481 897.359 697.408 889.878 689.157 888.353C677.339 886.17 663.817 887.462 651.762 887.478L583.554 887.558L316.733 887.533L316.417 668.715L316.496 603.98C316.508 592.98 317.445 580.869 315.964 569.995C315.216 564.501 312.309 561.207 308.596 557.377L308.544 307.16C308.538 301.247 307.68 291.565 312.321 287.337C317.388 282.721 326.821 283.9 333.191 283.947Z"/>
</svg>
