<?xml version="1.0" encoding="utf-8" ?>
<svg xmlns="http://www.w3.org/2000/svg" xmlns:xlink="http://www.w3.org/1999/xlink" width="1536" height="1024">
	<path fill="#F99835" d="M0 0L1534.69 0C1536.37 2.65349 1535.98 5.99953 1535.99 9.03163L1536.01 643.288L1536.02 818.109L1536.02 863.417C1536.02 869.726 1536.87 877.468 1535.8 883.615C1535.65 884.423 1535.34 885.228 1535.02 885.981C1536.72 889.94 1536.88 954.277 1535.36 957.906C1535.24 958.188 1535.1 958.458 1534.97 958.735L1534.95 961.654C1536.56 965.613 1536.19 969.601 1535.41 973.701L1535.36 975.317C1536.06 978.016 1535.98 979.404 1534.99 981.991C1536.56 985.546 1537.05 1018.35 1535.47 1022.5C1535.22 1023.15 1535.06 1023.35 1534.69 1024L1381.95 1024L1378.38 1024L1368.47 1024L1363.01 1024L1352.75 1024L1347.29 1024L1337.17 1024L1328 1024L1320.55 1024L1281.31 1024L1208.03 1024L1184.87 1024L1164.87 1024L1156.41 1024L839.864 1024L736.7 1024L722.299 1024L696.723 1024L687.059 1024L680.943 1024L571.994 1024L570.838 1024L560.989 1024L524.757 1024L518.011 1024L0 1024L0 0Z"/>
	<path fill="white" d="M32.5443 498.446C37.2083 498.293 41.8994 498.471 46.5651 498.543C47.1274 522.401 46.9272 546.348 46.7544 570.212C42.0535 570.33 37.3212 570.191 32.6173 570.166C31.4194 546.47 32.3444 522.186 32.5443 498.446Z"/>
	<path fill="white" d="M1488.1 498.496C1492.89 497.786 1497.69 498.04 1502.51 498.201C1503.26 499.292 1503.57 500.281 1503.79 501.566C1505.21 509.911 1504.01 520.456 1504 529.034C1503.97 541.201 1504.97 554.465 1503.68 566.522C1503.56 567.691 1503.11 568.599 1502.42 569.528C1498.02 570.707 1492.12 569.975 1487.52 569.959C1487.68 569.7 1487.84 569.449 1487.98 569.183C1489.53 566.225 1489.25 502.829 1488.1 498.496Z"/>
	<path fill="white" d="M1280.39 444.481L1281.46 444.775L1281.28 446.198L1281.82 445.865C1281.9 463.873 1283.27 577.722 1280.96 584.075C1280.4 581.818 1270.98 571.076 1268.74 569.015C1268.59 565.54 1260.88 551.026 1259.25 546.231C1256.76 538.875 1255.34 530.795 1254.67 523.063C1252.09 493.314 1261.25 467.147 1280.39 444.481Z"/>
	<path fill="white" d="M253.978 442.234C266.35 452.278 274.919 470.68 278.853 485.861Q279.206 487.182 279.526 488.511Q279.846 489.841 280.132 491.178Q280.418 492.515 280.67 493.859Q280.923 495.203 281.141 496.553Q281.359 497.903 281.544 499.258Q281.728 500.613 281.878 501.972Q282.028 503.331 282.144 504.694Q282.259 506.056 282.341 507.421Q282.422 508.786 282.469 510.153Q282.516 511.52 282.528 512.887Q282.54 514.254 282.518 515.622Q282.496 516.989 282.44 518.355Q282.383 519.721 282.292 521.086Q282.201 522.45 282.075 523.812Q281.95 525.173 281.79 526.532Q281.631 527.89 281.437 529.243Q281.243 530.597 281.015 531.945Q280.787 533.293 280.525 534.636Q280.263 535.978 279.967 537.313Q279.672 538.648 279.342 539.975Q279.013 541.302 278.65 542.621Q278.288 543.939 277.892 545.248Q277.496 546.557 277.068 547.855Q276.639 549.154 276.178 550.441Q275.716 551.728 275.223 553.003Q274.729 554.279 274.204 555.541Q273.678 556.803 273.121 558.052Q272.563 559.301 271.975 560.535Q271.386 561.769 270.767 562.988Q270.147 564.207 269.497 565.41Q268.847 566.613 268.167 567.799Q267.487 568.985 266.777 570.154C262.924 575.723 258.551 580.832 254.152 585.97C253.172 561.201 253.547 536.312 253.568 511.524C253.587 488.455 253.213 465.288 253.978 442.234Z"/>
	<path fill="white" d="M1355.75 702.153C1364.22 699.809 1406.21 701.347 1417.58 701.339C1437.77 701.327 1458.36 700.25 1478.5 701.223C1479.19 702.337 1479.63 703.405 1479.74 704.714C1480.47 712.945 1480.85 770.748 1479.49 775.701C1479.22 776.669 1478.6 777.259 1477.93 777.973C1477.86 777.753 1477.81 777.52 1477.71 777.312C1475.4 772.688 1469.74 767.732 1466.18 763.839C1436.05 730.871 1397.48 715.689 1355.75 702.153Z"/>
	<path fill="white" d="M1406.26 439.981C1413.94 438.626 1422.97 439.434 1430.77 439.45L1478.58 439.592C1479.09 440.601 1479.47 441.527 1479.61 442.655C1480.27 447.94 1479.69 454.023 1479.69 459.406L1479.7 495.569L1479.69 561.022C1479.69 572.302 1480.07 583.732 1479.61 594.997C1479.54 596.726 1479.34 597.843 1478.31 599.26C1471.37 601.002 1461.39 599.965 1454.14 600.004L1405.91 600.207C1406.01 600.047 1406.13 599.897 1406.22 599.728C1406.82 598.501 1406.95 597.029 1406.99 595.676C1408.03 559.582 1407.04 523.16 1406.96 487.029C1406.93 477.047 1408.3 447.714 1406.26 439.981Z"/>
	<path fill="white" d="M55.8735 439.673C80.7245 439.323 105.617 439.619 130.472 439.642Q131.671 519.779 130.876 599.921L56.1159 600.227L55.8735 439.673Z"/>
	<path fill="white" d="M501.812 423.409C501.941 423.387 502.068 423.362 502.197 423.344C527.04 420.057 554.433 428.722 574.172 443.725Q575.15 444.461 576.11 445.22Q577.07 445.98 578.01 446.763Q578.951 447.547 579.872 448.353Q580.793 449.159 581.694 449.988Q582.594 450.817 583.474 451.668Q584.354 452.519 585.213 453.391Q586.072 454.263 586.908 455.157Q587.745 456.05 588.56 456.964Q589.374 457.878 590.166 458.811Q590.957 459.745 591.725 460.698Q592.493 461.651 593.238 462.623Q593.982 463.595 594.702 464.585Q595.422 465.574 596.118 466.582Q596.813 467.589 597.484 468.614Q598.154 469.638 598.799 470.678Q599.443 471.719 600.062 472.775Q600.681 473.832 601.273 474.903Q601.866 475.974 602.432 477.059Q602.997 478.145 603.536 479.244Q604.075 480.344 604.586 481.456Q605.098 482.568 605.581 483.693Q606.065 484.817 606.521 485.953Q606.976 487.089 607.404 488.237Q607.831 489.384 608.23 490.541Q608.629 491.698 609 492.865Q609.37 494.032 609.711 495.208Q610.052 496.383 610.364 497.567Q610.676 498.751 610.959 499.942Q611.241 501.133 611.495 502.331Q611.748 503.529 611.971 504.732Q612.194 505.936 612.388 507.145Q612.581 508.354 612.745 509.567C616.164 534.952 608.276 559.618 592.878 579.727C574.047 604.317 548.724 616.872 518.436 620.839C518.226 620.865 518.016 620.894 517.806 620.919C494.21 623.634 463.604 612.73 445.485 597.856C425.155 581.168 410.651 557.351 408.062 530.947C405.516 504.979 413.964 479.995 430.523 460.026C448.6 438.226 473.823 426.053 501.812 423.409Z"/>
	<path fill="#F99835" d="M507.662 510.844C509.143 510.734 510.709 510.62 512.182 510.872C514.624 511.29 517.184 512.911 518.623 514.926C519.976 516.82 520.431 519.109 520.043 521.39C519.364 525.382 517.056 527.218 513.977 529.416C512.906 529.539 511.839 529.62 510.765 529.471Q510.196 529.39 509.64 529.25Q509.083 529.109 508.544 528.911Q508.005 528.712 507.49 528.458Q506.975 528.203 506.49 527.896Q506.005 527.588 505.556 527.231Q505.106 526.874 504.697 526.471Q504.287 526.068 503.923 525.624Q503.558 525.18 503.243 524.7Q502.961 524.272 502.726 523.816Q502.491 523.361 502.305 522.883Q502.12 522.405 501.986 521.91Q501.852 521.415 501.77 520.909Q501.689 520.403 501.662 519.891Q501.635 519.379 501.662 518.867Q501.69 518.355 501.771 517.849Q501.852 517.343 501.986 516.848C502.884 513.655 504.97 512.358 507.662 510.844Z"/>
	<path fill="white" d="M1286.43 334.252Q1382.53 333.558 1478.63 333.883C1479.23 335.124 1479.57 336.252 1479.65 337.627C1480.26 347.352 1480.63 427.657 1479.24 431.932C1479.04 432.549 1478.74 433.121 1478.4 433.674C1452.16 433.659 1425.77 433.215 1399.55 434.201C1400.63 435.959 1400.81 437.373 1400.88 439.402C1401.38 453.499 1401 467.733 1401 481.843L1400.98 560.357C1400.98 568.596 1402.23 597.289 1400.74 603.458C1400.56 604.173 1400.39 604.743 1400.05 605.381C1426.17 605.972 1452.3 604.974 1478.42 605.422C1479.08 606.474 1479.48 607.475 1479.59 608.729C1480.27 616.576 1480.61 687.168 1479.55 692.014C1479.33 692.99 1478.97 693.807 1478.44 694.646L1383.78 694.735C1368.47 694.776 1351.51 693.543 1336.37 695.502C1325.09 689.654 1300.42 682.434 1287.42 678.225C1289.26 671.745 1287.72 623.026 1287.7 612.097L1287.76 417.75C1287.76 407.8 1288.97 339.175 1286.77 334.798C1286.68 334.607 1286.55 334.434 1286.43 334.252Z"/>
	<path fill="#F99835" d="M1348.57 511.999C1350.36 511.86 1351.87 511.832 1353.48 512.744C1355.21 513.72 1356.57 515.43 1357.05 517.361Q1357.14 517.72 1357.19 518.086Q1357.24 518.453 1357.25 518.822Q1357.26 519.191 1357.24 519.56Q1357.21 519.929 1357.15 520.293Q1357.09 520.657 1356.99 521.013Q1356.89 521.37 1356.75 521.714Q1356.62 522.058 1356.45 522.387Q1356.28 522.715 1356.08 523.025C1354.61 525.278 1352.7 525.952 1350.17 526.435C1347.78 525.821 1345.31 524.607 1343.89 522.513C1342.98 521.17 1342.56 519.476 1342.92 517.876C1343.62 514.813 1346.08 513.455 1348.57 511.999Z"/>
	<path fill="white" d="M74.4855 334.215Q161.092 333.365 247.7 333.931L247.728 596.566C247.646 629.283 248.569 661.995 247.985 694.718L147.562 694.927L56.2792 695.297L56.1238 605.68C68.7429 605.549 127.176 606.882 135.171 604.628C136.354 602.658 136.462 600.472 136.577 598.222C137.514 579.959 136.652 561.134 136.646 542.814L136.514 433.609L55.9725 433.469L55.5675 334.328L74.4855 334.215Z"/>
	<path fill="#F99835" d="M184.604 510.158C185.749 510.109 186.917 510.007 188.062 510.1C189.99 510.256 191.742 511.416 192.934 512.908C194.263 514.572 194.599 516.429 194.356 518.511C193.955 521.96 192.116 523.517 189.624 525.594C186.711 525.193 183.961 524.638 181.824 522.425C180.47 521.024 179.744 519.319 179.87 517.357C180.087 513.992 182.182 512.121 184.604 510.158Z"/>
	<path fill="white" d="M515.984 75.4511C549.091 74.7246 582.314 75.3994 615.433 75.4077Q690.959 75.0347 766.482 75.6829L766.55 127.155C759.965 133.605 755.707 139.093 752.156 147.669C765.808 136.916 782.656 128.615 800.544 130.617C801.739 130.75 802.699 131.012 803.806 131.484L803.766 132.356C763.886 151.403 726.353 179.652 706.155 220.022C699.952 232.419 696.619 246.095 690.356 258.388C686.861 265.246 672.687 281.015 671.796 283.984C670.757 287.447 671.54 289.806 668.123 291.864C664.992 293.75 660.598 294.434 657.081 295.382C646.393 298.26 636.927 304.362 633.507 315.497Q633.176 316.586 632.912 317.694C629.811 318.636 626.004 319.384 623.516 321.504L623.435 322.764C625.481 324.76 628.021 325.328 630.68 326.165C630.786 345.808 634.098 369.356 648.828 383.677C653.063 387.794 657.548 390.428 662.957 392.668C665.168 396.756 667.37 400.08 670.686 403.359Q670.756 428.426 672.492 453.433C673.218 463.77 675.232 475.1 674.555 485.392C673.533 500.941 663.299 513.546 664.488 529.977C665.18 539.532 669.416 549.294 676.316 555.997C680.269 559.837 684.641 562.303 689.855 564.006C704.389 568.753 714.162 578.015 726.532 586.792C734.733 592.61 743.267 598.012 751.725 603.444C731.021 619.708 630.471 691.484 624.967 704.687C626.08 712.677 640.006 721.796 646.098 726.388C658.732 735.912 671.977 743.714 685.702 751.505Q654.482 794.743 622.03 837.063C600.589 864.75 576.23 891.121 558.789 921.628C551.612 934.183 545.862 947.761 540.519 961.186C532.259 961.476 523.927 961.229 515.66 961.203C515.034 947.686 515.408 934.006 515.386 920.471L515.285 848.333L515.507 627.665C540.499 625.635 563.183 617.032 582.255 600.553C603.549 582.155 617.809 556.832 619.826 528.528Q619.909 527.266 619.962 526.002Q620.014 524.738 620.036 523.473Q620.058 522.208 620.049 520.944Q620.04 519.679 620.001 518.414Q619.961 517.15 619.891 515.887Q619.821 514.624 619.721 513.363Q619.62 512.102 619.489 510.844Q619.357 509.586 619.196 508.331Q619.034 507.077 618.842 505.827Q618.65 504.576 618.427 503.331Q618.205 502.086 617.953 500.846Q617.7 499.607 617.418 498.374Q617.135 497.141 616.823 495.915Q616.51 494.689 616.169 493.471Q615.827 492.254 615.455 491.044Q615.084 489.835 614.684 488.635Q614.283 487.436 613.853 486.246Q613.424 485.056 612.966 483.877Q612.507 482.698 612.021 481.531Q611.534 480.363 611.019 479.208Q610.504 478.052 609.962 476.91Q609.419 475.767 608.849 474.638Q608.278 473.509 607.681 472.394Q607.083 471.279 606.459 470.179Q605.835 469.079 605.184 467.995Q604.533 466.91 603.856 465.842Q603.179 464.773 602.477 463.721Q601.774 462.67 601.046 461.635Q600.318 460.601 599.565 459.585Q598.812 458.568 598.035 457.57Q597.258 456.572 596.457 455.594Q595.656 454.615 594.831 453.656C573.718 429.385 546.72 418.491 515.116 416.314C516.6 302.741 515.569 189.044 515.984 75.4511Z"/>
	<path fill="white" d="M0 0L1534.69 0C1536.37 2.65349 1535.98 5.99953 1535.99 9.03163L1536.01 643.288L1536.02 818.109L1536.02 863.417C1536.02 869.726 1536.87 877.468 1535.8 883.615C1535.65 884.423 1535.34 885.228 1535.02 885.981C1534.66 881.173 1531.71 875.069 1529.96 870.554C1521.14 847.853 1503.97 809.408 1487.87 792.076C1488.31 790.969 1488.64 789.909 1488.68 788.71C1489.38 770.366 1490.76 584.194 1488.61 578.309C1488.4 577.74 1488.12 577.235 1487.8 576.728C1494.22 576.85 1502.24 577.855 1508.41 576.014C1511.32 573.019 1510.69 567.147 1510.63 563.147C1510.41 549.585 1512.24 501.646 1509.14 492.566C1505.38 489.747 1492.94 491.22 1488.24 491.257C1490.95 485.816 1489.34 401.577 1489.33 387.622L1489.01 154.287C1489.01 141.267 1490.53 76.771 1488.23 68.4063C1487.65 67.7058 1487.18 66.7211 1486.26 66.6363C1470.91 65.2281 1455.11 66.0109 1439.7 66.0566L1361.97 66.1473L1097.13 66.17L279.895 66.1551C254.975 66.1248 49.9437 65.2297 47.7865 66.4625C44.9367 78.4307 46.5116 93.5299 46.4507 105.935L46.2153 179.148L46.3891 491.358C42.1586 491.258 29.9739 489.919 26.9318 493.006C25.1912 494.772 25.8414 566.18 26.4604 574.457Q26.5499 575.645 26.6693 576.831C33.3271 577.334 39.9765 577.164 46.6458 577.063L47.0401 969.898L379.48 970.115L482.463 970.106C500.31 970.102 519.074 968.912 536.805 970.606C529.482 988.039 522.665 1005.65 518.011 1024L0 1024L0 0Z"/>
	<path fill="white" d="M82.5376 75.1449L507.716 75.4446L508.053 416.074C482.463 417.004 458.775 425.362 439.164 442.103C418.285 459.929 403.588 484.989 401.461 512.682Q401.365 513.945 401.301 515.211Q401.237 516.476 401.204 517.742Q401.17 519.009 401.168 520.276Q401.166 521.542 401.196 522.809Q401.225 524.076 401.285 525.341Q401.345 526.606 401.437 527.87Q401.528 529.134 401.651 530.395Q401.773 531.656 401.927 532.913Q402.081 534.171 402.265 535.424Q402.449 536.677 402.665 537.926Q402.88 539.174 403.126 540.417Q403.372 541.66 403.648 542.896Q403.925 544.133 404.231 545.362Q404.538 546.591 404.875 547.812Q405.212 549.034 405.579 550.246Q405.946 551.459 406.342 552.662Q406.739 553.865 407.165 555.058Q407.591 556.251 408.046 557.434Q408.502 558.616 408.986 559.786Q409.47 560.957 409.983 562.115Q410.496 563.274 411.037 564.419Q411.579 565.564 412.148 566.696Q412.717 567.828 413.314 568.945Q413.911 570.062 414.536 571.165Q415.16 572.267 415.811 573.354Q416.463 574.44 417.141 575.51Q417.818 576.581 418.522 577.634Q419.226 578.687 419.956 579.723Q420.686 580.758 421.44 581.775Q422.195 582.793 422.975 583.791Q423.755 584.789 424.559 585.768Q425.363 586.747 426.191 587.706C447.311 612.298 475.647 625.641 507.814 628.105Q508.686 794.678 507.868 961.252Q432.621 961.898 357.375 961.172L82.7243 960.938C82.5183 952.219 82.6955 943.462 82.7054 934.739L56.568 934.804L56.1535 700.516C76.9854 700.479 247.211 701.92 252.118 699.816C255.227 694.814 253.611 608.102 253.625 594.89Q255.264 593.376 256.838 591.796C277.769 570.847 288.523 543.383 288.381 513.873C288.227 481.923 276.287 455.441 253.671 433.037C253.095 398.266 253.276 363.395 253.417 328.618C231.078 327.637 208.448 328.529 186.072 328.539L55.8983 328.532L56.2158 101.592C64.9019 101.368 73.6197 101.465 82.3101 101.412C82.5106 92.6645 82.4638 83.8957 82.5376 75.1449Z"/>
	<path fill="#F99835" d="M246.428 752.735C263.746 750.241 284.931 756.249 298.834 766.41Q300.312 767.503 301.735 768.666Q303.158 769.83 304.523 771.062Q305.887 772.293 307.19 773.59Q308.493 774.887 309.731 776.246Q310.969 777.605 312.139 779.023Q313.308 780.441 314.408 781.915Q315.507 783.388 316.533 784.914Q317.559 786.439 318.509 788.013Q319.46 789.586 320.332 791.205Q321.204 792.823 321.996 794.482Q322.788 796.141 323.498 797.837Q324.209 799.533 324.835 801.261Q325.462 802.989 326.003 804.746Q326.544 806.503 326.999 808.285Q327.454 810.066 327.821 811.867Q328.188 813.669 328.467 815.486C331.349 834.445 325.503 854.803 314.041 870.06C300.955 887.479 282.087 895.795 261.011 898.692C239.031 899.226 218.548 894.878 201.064 880.77C187.161 869.551 177.423 852.287 175.655 834.466C173.653 814.283 179.94 794.826 192.924 779.3C206.378 763.211 225.821 754.599 246.428 752.735Z"/>
	<path fill="white" d="M246.867 758.717C263.759 757.545 281.189 761.213 294.935 771.464Q296.297 772.459 297.609 773.52Q298.92 774.582 300.177 775.707Q301.434 776.832 302.634 778.018Q303.833 779.204 304.973 780.448Q306.112 781.692 307.189 782.991Q308.265 784.29 309.276 785.641Q310.286 786.992 311.229 788.391Q312.171 789.791 313.043 791.235Q313.915 792.679 314.714 794.165Q315.514 795.651 316.238 797.174Q316.963 798.698 317.611 800.256Q318.259 801.813 318.829 803.401Q319.399 804.989 319.89 806.604Q320.381 808.218 320.791 809.854Q321.201 811.491 321.53 813.146Q321.858 814.801 322.104 816.47Q322.331 818.124 322.475 819.787Q322.619 821.45 322.681 823.118Q322.743 824.786 322.722 826.455Q322.701 828.124 322.597 829.79Q322.493 831.456 322.307 833.115Q322.121 834.773 321.853 836.421Q321.585 838.068 321.235 839.701Q320.886 841.333 320.456 842.946Q320.025 844.558 319.516 846.148Q319.007 847.737 318.419 849.3Q317.831 850.862 317.167 852.393Q316.503 853.924 315.763 855.421Q315.024 856.917 314.211 858.375Q313.398 859.833 312.514 861.249Q311.63 862.664 310.677 864.035Q309.724 865.405 308.704 866.726C296.071 882.952 278.471 890.202 258.568 892.615C239.887 892.998 222.864 889.149 207.777 877.572C193.825 866.866 183.835 851.301 181.672 833.7C179.481 815.867 184.942 799.286 195.996 785.309C208.938 768.945 226.497 761.031 246.867 758.717Z"/>
	<path fill="#F99835" d="M219.661 779.946C221.186 780.141 221.703 780.46 222.864 781.377L222.971 783.002C220.125 787.577 214.976 791.536 211.163 795.431C210.179 795.915 209.486 795.853 208.393 795.916C208.117 795.061 207.981 794.331 208.018 793.419C208.231 788.209 215.897 782.847 219.661 779.946Z"/>
	<path fill="#F99835" d="M283.182 778.439C283.63 778.52 283.824 778.547 284.297 778.674C288.746 779.861 294.518 785.678 296.605 789.687C297.899 792.171 297.739 792.651 297.008 795.23C296.47 795.135 296.429 795.141 295.837 794.962C292.264 793.881 284.251 785.318 282.744 782.069C282.023 780.515 282.602 779.882 283.182 778.439Z"/>
	<path fill="#F99835" d="M296.026 854.785C297.557 855.223 297.867 855.357 298.996 856.467C299.044 857.105 299.101 857.38 299.033 857.976C298.494 862.704 290.3 868.989 286.832 872.123C285.368 871.602 284.86 871.214 283.879 870.084C283.87 866.143 293.392 858.062 296.026 854.785Z"/>
	<path fill="#F99835" d="M204.298 854.012C204.514 854.015 204.73 854.007 204.946 854.022C209.597 854.339 215.672 862.151 218.609 865.623C220.268 867.584 220.137 867.714 219.944 870.221C219.287 870.297 218.632 870.358 217.969 870.31C214.317 870.046 209.206 864.757 207.094 862.007C205.063 859.363 203.822 857.499 204.298 854.012Z"/>
	<path fill="#F99835" d="M251.548 770.007C254.668 770.021 258.762 769.65 261.616 771.068C263.118 771.813 263.404 771.899 263.899 773.472C263.715 773.678 263.542 773.895 263.348 774.09C260.732 776.714 254.643 775.618 251.217 775.384C249.723 775.565 248.245 775.954 246.764 776.226C243.666 776.793 242.013 776.746 239.385 774.926L239.445 773.599C243.052 770.169 246.84 770.309 251.548 770.007Z"/>
	<path fill="#F99835" d="M237.94 876.072C244.105 876.693 258.694 875.53 263.327 878.915L263.609 882.001C259.47 882.518 255.275 882.68 251.107 882.784C247.797 882.866 240.879 882.923 238.469 880.236C237.582 879.248 237.948 877.378 237.94 876.072Z"/>
	<path fill="#F99835" d="M198.121 808.883C199.75 809.587 200.598 810.099 201.713 811.495C199.523 821.332 200.929 825.732 200.378 834.499C200.312 835.549 199.803 836.555 199.273 837.441L196.945 836.476C196.197 835.63 195.68 834.933 195.285 833.859C192.435 826.103 194.589 816.047 198.121 808.883Z"/>
	<path fill="#F99835" d="M303.987 808.909C305.753 808.97 306.307 809.183 307.731 810.23C312.401 817.634 311.249 828.647 309.574 836.801C307.419 836.554 306.668 836.686 304.96 835.277C305.236 830.216 305.222 824.941 304.857 819.886C304.588 816.16 303.619 812.675 303.987 808.909Z"/>
	<path fill="#F99835" d="M250.571 821.398C253.861 821.143 256.817 820.953 259.524 823.224C261.035 824.491 261.845 826.113 261.847 828.092C261.852 831.509 259.93 833.376 257.659 835.573C254.762 835.814 252.083 835.971 249.642 834.057Q249.362 833.84 249.106 833.594Q248.85 833.348 248.622 833.077Q248.394 832.805 248.195 832.511Q247.997 832.217 247.831 831.903Q247.665 831.59 247.533 831.261Q247.401 830.931 247.305 830.59Q247.209 830.248 247.149 829.899Q247.089 829.549 247.067 829.195C246.881 825.868 248.482 823.716 250.571 821.398Z"/>
	<path fill="#F99835" d="M243.492 136.805C243.54 136.799 243.588 136.789 243.636 136.785C264.686 135.015 285.57 140.919 301.982 154.441Q303.351 155.587 304.661 156.799Q305.972 158.011 307.221 159.286Q308.47 160.562 309.654 161.897Q310.839 163.233 311.956 164.625Q313.073 166.018 314.119 167.464Q315.166 168.91 316.14 170.406Q317.115 171.902 318.014 173.444Q318.913 174.986 319.734 176.571Q320.556 178.156 321.298 179.779Q322.041 181.403 322.702 183.061Q323.364 184.719 323.942 186.408Q324.521 188.097 325.015 189.813Q325.509 191.528 325.919 193.266Q326.328 195.004 326.65 196.76Q326.973 198.515 327.209 200.285Q327.444 202.055 327.592 203.834C329.404 223.557 323.851 242.721 310.968 257.874C297.335 273.909 278.486 283.009 257.684 284.77C238.572 286.729 218.188 280.897 202.992 269.32C187.482 257.503 176.293 239.185 173.895 219.74C171.492 200.25 177.323 182.097 189.215 166.747C202.676 149.374 221.881 139.547 243.492 136.805Z"/>
	<path fill="white" d="M245.68 142.816C261.424 140.911 280.249 146.722 293.021 155.841C307.268 166.013 318.298 183.575 320.972 200.897C323.57 217.735 319.792 235.624 309.487 249.298C296.118 267.037 278.276 276.038 256.584 278.999C238.048 279.289 221.678 275.649 206.839 263.904C192.669 252.689 181.809 235.237 179.881 217.087C178.004 199.415 184.84 181.983 195.977 168.443C208.366 153.382 226.468 144.778 245.68 142.816Z"/>
	<path fill="#F99835" d="M283.15 162.993C287.214 163.481 291.652 167.493 294.165 170.571C296.083 172.92 296.104 174.019 295.851 176.882C295.155 176.949 294.308 177.074 293.6 176.976C291.027 176.619 287.778 173.675 286.157 171.738C283.621 168.706 282.817 166.937 283.15 162.993Z"/>
	<path fill="#F99835" d="M205.374 237.504C205.959 237.698 206.012 237.682 206.615 238.075C209.213 239.77 216.498 247.977 217.117 250.794C217.403 252.096 216.407 253.094 215.752 254.207C214.221 253.739 213.091 253.075 211.877 252.051C208.882 249.527 203.544 244.747 203.482 240.459C203.461 239.02 204.434 238.501 205.374 237.504Z"/>
	<path fill="#F99835" d="M218.087 162.593C219.37 163.495 219.739 163.905 220.324 165.436C219.596 170.387 212.766 174.827 209.109 177.922C207.853 177.225 207.322 176.578 206.465 175.468C206.428 174.676 206.362 173.88 206.561 173.1C207.617 168.962 214.67 164.94 218.087 162.593Z"/>
	<path fill="#F99835" d="M295.192 237.482L297.808 237.775C298.592 238.519 299.181 238.65 299.168 239.805C299.12 244.266 290.231 251.829 287.011 254.865C285.256 254.267 284.58 253.881 283.519 252.343C283.485 248.353 292.322 240.798 295.192 237.482Z"/>
	<path fill="#F99835" d="M248.933 204.669C249.584 204.663 250.233 204.661 250.883 204.708C253.058 204.864 255.03 205.732 256.366 207.511Q256.544 207.745 256.697 207.996Q256.849 208.247 256.976 208.512Q257.102 208.777 257.2 209.054Q257.299 209.331 257.368 209.616Q257.438 209.902 257.478 210.193Q257.518 210.484 257.527 210.778Q257.537 211.071 257.517 211.364Q257.496 211.658 257.446 211.947C256.942 214.858 255.117 216.252 252.892 217.888C250.257 217.804 248.11 217.451 246.248 215.405C245.081 214.123 244.702 212.573 244.861 210.871C245.13 207.979 246.921 206.483 248.933 204.669Z"/>
	<path fill="#F99835" d="M260.983 259.917C262.388 259.98 262.441 260.368 263.469 261.254L262.611 260.025L263.372 261.48C263.033 262.906 262.784 263.558 261.52 264.402C256.015 268.078 245.125 266.641 239.001 265.522C238.351 265.165 237.795 264.857 237.313 264.278C236.376 263.153 236.458 263.082 236.593 261.697C239.684 259.411 255.85 260.568 260.983 259.917Z"/>
	<path fill="#F99835" d="M240.886 154.038C247.26 153.462 254.525 153.452 260.792 154.931C262.876 155.423 264.886 155.9 265.989 157.775C264.811 159.511 263.792 159.921 261.863 160.663C254.934 159.828 245.748 161.449 239.256 159.443C237.814 158.997 237.623 158.71 236.951 157.42C238.135 155.45 238.932 155.164 240.886 154.038Z"/>
	<path fill="#F99835" d="M196.127 190.263C197.657 191.19 198.424 191.879 199.397 193.389C198.585 198.226 197.832 219.827 196.886 221.684C196.013 221.575 195.214 221.543 194.463 221.045C193 220.075 192.438 218.411 192.102 216.732C190.522 208.828 191.566 197.027 196.127 190.263Z"/>
	<path fill="#F99835" d="M303.573 190.855C305.684 191.494 306.769 192.264 307.757 194.297C311.25 201.481 310.781 213.798 308.021 221.102C306.275 220.86 305.361 220.606 303.948 219.532C303.47 214.839 301.768 193.87 303.573 190.855Z"/>
	<path d="M774.15 75.6007L1210.39 75.6642C1291.44 75.579 1372.57 74.8217 1453.61 75.7619C1456.01 79.8339 1455.86 94.5409 1454.64 99.2198C1454.45 99.955 1454.04 100.673 1453.64 101.315L1478.63 101.36C1479.22 102.589 1479.56 103.696 1479.63 105.059C1480.82 125.808 1479.65 325.781 1479.18 327.033C1478.96 327.64 1478.82 327.803 1478.46 328.397L1281.32 328.59C1281.97 329.723 1282.32 330.742 1282.41 332.061C1283.19 343.603 1283.21 427.404 1281.57 432.898C1281.43 433.388 1281.2 433.824 1280.98 434.286C1280.88 434.556 1280.79 434.83 1280.68 435.097C1278.79 439.862 1270.57 445.614 1267.59 450.677C1248.52 483.147 1241.44 516.729 1255.3 553.024C1258.18 560.58 1262.47 568.158 1267.16 574.745C1269.92 578.618 1280.29 589.375 1280.9 592.585C1282.88 598.582 1282.95 670.676 1280.72 675.904C1282.86 676.631 1285.41 677.214 1287.42 678.225C1300.42 682.434 1325.09 689.654 1336.37 695.502C1342.87 697.618 1349.36 699.733 1355.75 702.153C1397.48 715.689 1436.05 730.871 1466.18 763.839C1469.74 767.732 1475.4 772.688 1477.71 777.312C1477.81 777.52 1477.86 777.753 1477.93 777.973C1480.68 780.959 1487.17 788.233 1487.87 792.076C1503.97 809.408 1521.14 847.853 1529.96 870.554C1531.71 875.069 1534.66 881.173 1535.02 885.981C1536.72 889.94 1536.88 954.277 1535.36 957.906C1535.24 958.188 1535.1 958.458 1534.97 958.735L1534.95 961.654C1536.56 965.613 1536.19 969.601 1535.41 973.701L1535.36 975.317C1536.06 978.016 1535.98 979.404 1534.99 981.991C1536.56 985.546 1537.05 1018.35 1535.47 1022.5C1535.22 1023.15 1535.06 1023.35 1534.69 1024L1381.95 1024L1378.38 1024L1368.47 1024L1363.01 1024L1352.75 1024L1347.29 1024L1337.17 1024L1328 1024L1320.55 1024L1281.31 1024L1208.03 1024L1184.87 1024L1164.87 1024L1156.41 1024L839.864 1024L736.7 1024L722.299 1024L696.723 1024L687.059 1024L680.943 1024L571.994 1024L570.838 1024L560.989 1024L524.757 1024L518.011 1024C522.665 1005.65 529.482 988.039 536.805 970.606L540.519 961.186C545.862 947.761 551.612 934.183 558.789 921.628C576.23 891.121 600.589 864.75 622.03 837.063Q654.482 794.742 685.702 751.505C671.977 743.714 658.732 735.912 646.098 726.388C640.006 721.796 626.08 712.677 624.967 704.687C630.471 691.484 731.021 619.708 751.725 603.444C743.267 598.012 734.733 592.61 726.532 586.792C714.162 578.015 704.389 568.753 689.855 564.006C684.641 562.303 680.269 559.837 676.316 555.997C669.416 549.294 665.18 539.532 664.488 529.977C663.299 513.546 673.533 500.941 674.555 485.392C675.232 475.1 673.218 463.77 672.492 453.433Q670.756 428.426 670.686 403.359C667.37 400.08 665.168 396.756 662.957 392.668C657.548 390.428 653.063 387.794 648.828 383.677C634.098 369.356 630.786 345.808 630.68 326.165C628.021 325.328 625.481 324.76 623.435 322.764L623.516 321.504C626.004 319.384 629.811 318.636 632.912 317.694Q633.176 316.586 633.507 315.497C636.927 304.362 646.393 298.26 657.081 295.382C660.598 294.434 664.992 293.75 668.123 291.864C671.54 289.806 670.757 287.447 671.796 283.984C672.687 281.015 686.861 265.246 690.356 258.388C696.619 246.095 699.952 232.419 706.155 220.022C726.353 179.652 763.886 151.403 803.766 132.356L803.806 131.484C802.699 131.012 801.739 130.75 800.544 130.617C782.656 128.615 765.808 136.916 752.156 147.669C755.707 139.093 759.965 133.605 766.55 127.155L774.146 121.256Q774.015 98.4276 774.15 75.6007Z"/>
	<path fill="#3F4541" d="M687.343 1023.17L696.242 1023.22L696.638 1023.36L696.723 1024L687.059 1024L687.343 1023.17Z"/>
	<path fill="#3F4541" d="M560.898 1023.22C562.553 1023.29 564.227 1023.39 565.884 1023.36C568.074 1023.31 569.167 1023.43 570.732 1021.86L570.838 1024L560.989 1024L560.898 1023.22Z"/>
	<path fill="white" d="M851.559 103.16C855.311 105 859.092 109.375 862.69 111.892C859.859 112.144 856.391 112.391 854.058 110.416C851.805 108.509 851.726 105.87 851.559 103.16Z"/>
	<path fill="white" d="M1080.73 450.917C1082.65 451.317 1083.83 451.219 1085.19 452.691C1085.14 453.389 1085.02 453.922 1084.65 454.528C1082.22 458.444 1075.47 463.884 1071.16 465.254L1070.61 464.531C1073.23 459.587 1077.8 456.122 1080.52 451.306C1080.59 451.177 1080.66 451.046 1080.73 450.917Z"/>
	<path fill="white" d="M824.198 707.057C824.585 707.219 824.72 707.258 825.112 707.522C827.664 709.243 833.499 713.735 833.974 716.896L831.702 717.14C827.302 716.508 822.765 716.488 818.325 716.288L824.198 707.057Z"/>
	<path fill="#0F172A" d="M928.738 675.62C930.926 680.764 931.64 691.767 931.511 697.506C931.465 699.533 930.449 699.86 929.026 701.136L927.18 701.077C927.011 700.766 926.728 700.29 926.609 699.928C924.623 693.891 925.986 681.509 928.738 675.62Z"/>
	<path fill="#0F172A" d="M919.247 693.932L919.875 694.604C920.158 708.699 912.472 718.243 903.587 728.342L903.526 728.355L903.197 727.682C907.871 716.207 913.886 705.121 919.247 693.932Z"/>
	<path fill="white" d="M759.422 779.248C759.898 783.356 759.597 787.289 758.997 791.374C757.847 799.208 753.091 819.985 746.967 824.552C745.238 820.626 757.164 785.839 759.422 779.248Z"/>
	<path fill="#0F172A" d="M937.973 659.355C939.174 661.131 939.375 674.622 939.73 677.77C940.503 684.621 942.185 691.213 943.108 697.996L941.734 699.339L937.869 698.44C935.574 696.331 934.671 671.211 934.331 666.334L937.973 659.355Z"/>
	<path fill="#0F172A" d="M849.161 852.76C852.575 854.128 859.029 860.534 861.357 863.655C869.031 873.943 863 886.485 861.24 897.813C859.63 899.588 857.452 901.026 855.562 902.501C854.368 902.862 853.457 903.375 852.229 903.051C853.225 901.488 855.713 899.899 857.168 898.663C858.449 892.294 861.69 877.865 860.873 872.081C860.556 869.837 858.974 867.516 857.767 865.634C855.088 861.451 851.723 857.632 849.406 853.239C849.322 853.081 849.243 852.92 849.161 852.76Z"/>
	<path fill="white" d="M800.079 118.761C810.58 117.535 820.568 119.188 830.156 123.541L814.233 129.133C814.087 129.017 813.943 128.898 813.794 128.785C813.546 128.596 813.293 128.415 813.044 128.229C810.621 126.412 808.725 125.641 805.85 124.821C794.686 122.17 784.837 124.818 774.212 128.11C781.706 122.686 791.102 120.401 800.079 118.761Z"/>
	<path fill="#0F172A" d="M949.997 638.414L950.483 638.782C949.931 648.021 949.214 656.785 949.776 666.066C950.122 671.774 954.428 695.461 952.786 698.876L949.608 699.982C946.074 691.776 944.817 659.315 944.094 648.736C945.968 645.251 948.024 641.845 949.997 638.414Z"/>
	<path fill="white" d="M713.821 306.208C715.1 309.705 713.792 312.486 712.257 315.737C706.715 327.472 694.431 344.365 686.679 355.363C682.101 361.859 676.613 368.201 673.722 375.683C671.915 380.359 671.323 385.245 673.002 390.06C674.506 394.369 677.91 397.613 680.984 400.847C681.433 401.32 681.266 401.107 681.591 401.636Q680.324 401.2 679.077 400.71C674.059 398.723 669.244 394.952 667.235 389.805C664.948 383.945 666.839 377.244 669.41 371.821C673.142 363.95 678.918 357.126 684.258 350.307C694.875 336.749 707.111 322.159 713.821 306.208Z"/>
	<path fill="#F99835" d="M677.098 406.457C683.264 408.988 688.058 409.56 694.716 409.51C686.951 424.392 679.081 440.436 681.629 457.753C680.686 461.311 679.693 464.829 678.561 468.333C674.741 448.297 675.836 426.663 677.098 406.457Z"/>
	<path fill="#0F172A" d="M965.573 616.084C960.323 634.796 961.383 657.193 963.926 676.226C964.88 683.374 966.594 690.392 967.253 697.58C965.552 698.866 962.699 698.729 960.617 698.908C957.289 694.124 956.313 648.061 956.339 639.687C956.371 629.327 958.086 623.535 965.573 616.084Z"/>
	<path fill="#F99835" d="M948.515 506.38L949.033 506.939C946.192 510.66 941.852 513.83 938.168 516.699C909.991 538.637 878.289 545.49 843.397 549.066C831.517 550.284 819.077 551.643 807.17 550.158L806.02 549.545C812.032 547.634 832.257 547.247 840.392 546.362C880.673 541.979 915.695 530.418 948.515 506.38Z"/>
	<path fill="white" d="M667.134 297.124L669.005 296.875C671.04 299.033 670.059 303.197 671.477 306C675.481 313.916 680.757 320.483 683.998 328.914C675.732 327.511 667.589 325.715 659.416 323.856C652.228 322.112 644.873 320.984 637.588 319.719C638.54 317.308 639.55 314.829 640.802 312.558C646.535 302.161 656.548 300.064 667.134 297.124Z"/>
	<path fill="#0F172A" d="M961.735 702.502C962.694 702.68 963.536 702.972 964.448 703.315C962.409 710.97 930.954 751.394 924.104 761.318C907.512 785.353 891.722 810.056 874.561 833.675C869.364 840.829 863.825 847.561 857.998 854.207C857.04 853.33 855.859 852.399 855.252 851.236C854.714 850.204 854.606 849.548 855.053 848.446C855.979 846.161 868.346 830.995 870.834 827.463C898.784 787.801 926.223 747.383 955.31 708.572C957.126 706.149 958.778 703.567 961.735 702.502Z"/>
	<path fill="white" d="M969.121 303.412C984.43 307.074 1000.07 309.291 1015.49 312.503C1007.34 319.82 998.861 326.787 990.487 333.844C985.696 338.042 980.724 341.935 975.666 345.805C970.559 346.514 965.336 346.845 960.2 347.338C970.537 334.503 969.892 319.018 969.121 303.412Z"/>
	<path fill="white" d="M583.684 907.312C600.397 896.476 628.038 884.836 648.073 889.209C657.114 891.182 667.368 895.465 675.363 900.07C653.914 898.065 603.048 902.579 585.973 916.898Q584.919 917.785 583.938 918.751C582.488 937.681 580.033 956.533 578.092 975.417C576.891 987.096 576 1013.97 571.994 1024L570.838 1024L570.732 1021.86C570.673 1009.81 572.375 997.705 573.727 985.748C575.614 969.057 577.341 952.308 579.552 935.657C580.807 926.204 582.66 916.785 583.684 907.312Z"/>
	<path fill="white" d="M868.379 752.748C871.626 754.034 875.627 758.341 878.63 760.509C858.214 794.394 841.245 806.818 842.89 849.907C840.842 851.919 838.92 854.106 836.958 856.205L833.272 861.859C833.233 842.781 832.859 823.862 831.848 804.807C838.558 798.012 843.518 788.884 848.836 780.964Q858.525 766.798 868.379 752.748Z"/>
	<path fill="white" d="M637.155 323.748C652.975 327.177 668.935 331.198 684.987 333.299C685.609 335.517 686.542 337.493 687.518 339.569C680.248 348.41 672.808 357.02 666.423 366.54C662.606 373.504 661.392 379.468 661.445 387.38C656.319 384.084 652.131 380.817 648.418 375.933C637.544 361.627 634.921 341.179 637.155 323.748Z"/>
	<path fill="white" d="M524.757 1024C535.975 990.669 555.104 936.408 576.059 908.872C574.437 918.209 572.105 927.403 570.621 936.765C566.124 965.129 563.074 994.579 560.898 1023.22L560.989 1024L524.757 1024Z"/>
	<path fill="white" d="M781.786 652.415C785.344 660.082 783.866 670.358 787.564 679.003C793.187 692.15 805.864 698.91 818.497 703.935C816.578 704.728 814.637 705.53 812.82 706.539C784.257 722.396 779.535 769.144 771.266 797.875C768.967 804.765 766.612 812.621 762.047 818.378C760.723 820.047 760.077 820.658 757.972 820.877L757.331 819.991C772.533 786.912 769.048 725.164 773.798 687.155C775.301 675.136 778.152 663.956 781.786 652.415Z"/>
	<path fill="#0F172A" d="M965.573 616.084C972.752 602.596 998.545 568.146 1010.32 560.565C999.706 585.196 995.169 604.437 994.064 631.275C993.21 654.399 994.6 677.66 994.497 700.816Q984.619 699.242 974.685 698.08C970.819 679.201 967.801 659.921 966.83 640.654C966.645 636.975 967.259 617.96 965.927 616.162L965.573 616.084Z"/>
	<path fill="white" d="M931.952 703.263C939.209 702.698 945.557 703.634 952.679 704.862C942.298 721.019 929.651 736.286 918.423 751.922C898.137 780.17 878.358 808.982 858.482 837.528C856.691 840.394 854.499 845.011 851.067 846.01C850.453 845.625 849.84 845.464 849.585 844.76C846.86 837.245 850.847 820.723 854.13 813.455C861.452 797.239 918.565 708.391 931.952 703.263Z"/>
	<path fill="#0F172A" d="M663.161 695.438C679.362 679.515 699.06 666.099 716.722 651.785C731.28 639.985 744.971 626.669 759.892 615.432C765.08 621.584 769.833 627.986 773.721 635.048C768.205 632.134 762.898 629.086 757.173 626.565C761.834 632.975 768.593 636.886 772.685 643.956C765.328 640.007 758.696 635.017 751.042 631.546C755.213 637.979 761.472 642.126 766.112 648.134C765.953 649.264 765.955 649.295 765.143 650.093C760.097 647.046 756.118 642.087 750.472 639.927C749.348 639.497 749.356 639.506 748.279 639.96C748.921 648.039 761.413 650.568 762.68 658.225L762.193 656.97C757.865 658.088 749.252 645.604 742.587 645.724L741.744 647.021C743.682 654.108 758.805 658.891 760.155 665.166L759.521 665.849C754.297 663.718 744.357 652.749 738.961 650.404C737.732 649.87 737.196 650.229 735.995 650.614C733.803 655.967 755.626 667.259 757.645 673.463L756.622 673.914C747.424 668.161 738.665 660.66 729.887 654.206L728.719 654.734C726.762 664.034 753.854 674.619 754.837 680.385C747.461 679.191 731.34 664.052 723.409 659.556L722.389 659.993L722.02 661.681C726.009 671.234 744.382 679.405 752.014 687.26C745.422 687.323 725.108 667.828 716.509 664.129L715.149 665.717C717.267 670.557 721.78 673.868 725.736 677.149C733.362 682.539 742.673 687.582 749.384 693.998C749.62 695.863 749.626 695.843 748.618 697.429C745.108 697.01 726.667 681.449 722.924 677.969C719.521 675.344 713.941 669.727 709.541 670.108L708.973 671.527C709.462 673.654 710.228 674.629 711.777 676.138C719.027 682.274 726.192 688.907 733.823 694.547C737.376 697.173 743.442 699.539 745.983 702.975C746.014 704.634 745.842 704.738 744.884 706.121C740.558 704.216 716.898 685.331 714.403 681.62L713.81 681.247C710.9 679.393 706.899 674.611 703.862 674.015C702.313 674.954 702.159 675.075 701.376 676.701C702.982 679.126 705.051 681.14 707.054 683.236Q717.159 692.397 727.99 700.686C731.594 703.449 735.915 705.945 739.174 709.08C740.589 710.441 741.39 712.1 741.778 714L741.016 714.482C729.448 707.086 716.332 695.176 705.572 686.224C703.165 684.016 698.028 678.651 694.583 679.021C694.348 679.046 694.117 679.099 693.884 679.138C693.447 680.816 693.532 681.833 694.524 683.37C695.121 684.295 696.054 685.125 696.843 685.891Q703.577 692.245 710.638 698.235C717.429 703.89 732.927 713.465 736.963 720.572C732.48 720.93 709.015 701.168 704.449 697.271C702.762 695.831 700.152 693.984 698.887 692.201L688.522 684.305L688.251 685.129L689.205 686.606C688.181 686.686 687.837 686.467 686.919 686.061L686.641 687.037C691.02 693.934 698.539 699.817 704.832 704.937C711.864 710.311 727.408 719.594 731.627 726.717L731.353 727.715C725.972 727.872 708.305 711.855 703.724 707.54C703.61 707.433 703.511 707.312 703.405 707.198C699.165 703.89 686.254 690.59 681.824 690.491L680.979 691.509C682.567 699.885 717.65 723.587 725.2 730.363C726.361 731.405 726.207 731.37 726.292 732.951L725.08 733.641C719.782 730.276 714.829 725.72 709.891 721.813C702.484 715.952 694.877 710.323 687.569 704.34C682.998 700.598 678.654 696.005 673.412 693.228C673.185 693.107 672.954 692.991 672.725 692.873C677.304 698.436 682.293 703.337 687.838 707.925C694.682 713.589 719.327 729.648 722.412 735.69L722.123 736.401C721.54 736.534 721.313 736.617 720.752 736.646C718.164 736.777 714.812 735.161 712.612 733.846C707.073 730.534 701.941 725.905 696.776 722.02C685.378 713.446 673.535 705.27 663.161 695.438Z"/>
	<path fill="white" d="M744.437 834.115C760.363 829.182 766.752 825.638 775.45 811.097C772.044 836.061 760.094 859.685 749.727 882.38Q740.147 903.455 730.841 924.653C716.328 957.469 702.351 990.59 687.343 1023.17L687.059 1024L680.943 1024Q701.46 957.674 724.57 892.206C731.232 872.876 736.485 852.964 744.437 834.115Z"/>
	<path fill="white" d="M846.173 858.086C849.831 862.271 853.749 866.386 856.808 871.037Q855.226 883.188 853.141 895.262C835.059 907.467 811.951 919.908 795.787 933.649C779.746 947.287 746.387 1004.04 736.7 1024L722.299 1024L722.416 1023.32C736.658 996.836 752.112 971.234 767.809 945.609C774.664 934.419 781.149 921.507 789.854 911.729C798.381 902.151 811.333 896.323 821.328 888.314C831.586 880.095 838.692 868.729 846.173 858.086Z"/>
	<path fill="#F99835" d="M713.821 306.208L723.214 305.167C722.472 323.806 724.655 343.423 738.024 357.694C742.626 362.607 747.751 365.636 753.514 368.922C757.054 375.054 759.701 381.902 757.802 389.061C756.585 393.647 753.637 397.115 749.519 399.375C745.57 401.542 741.218 401.672 736.825 401.959C739.249 399.941 742.366 397.972 742.485 394.512C742.552 392.563 741.709 391.004 740.261 389.743C735.859 385.908 728.007 385.452 722.483 386.061C708.097 387.646 694.377 402.088 686.667 403.015C684.856 403.233 683.192 402.37 681.591 401.636C681.266 401.107 681.433 401.32 680.984 400.847C677.91 397.613 674.506 394.369 673.002 390.06C671.323 385.245 671.915 380.359 673.722 375.683C676.613 368.201 682.101 361.859 686.679 355.363C694.431 344.365 706.715 327.472 712.257 315.737C713.792 312.486 715.1 309.705 713.821 306.208Z"/>
	<path d="M725.649 367.638C727.997 367.449 729.902 367.255 732.17 368.1L732.294 368.93C727.264 372.968 717.615 375.225 711.494 377.453C708.381 378.783 705.18 379.957 702.029 381.198C709.604 375.612 716.943 371.226 725.649 367.638Z"/>
	<path fill="#0F172A" d="M807.994 723.327C820.005 722.567 831.423 722.988 843.05 726.447L864.42 748.168C853.428 763.991 842.072 779.301 831.641 795.546C830.265 796.909 829.902 797.313 827.873 797.488C824.129 797.81 820.049 797.345 816.279 797.259C804.763 796.998 793.783 797.732 782.847 801.663C782.842 791.127 783.895 780.8 786.309 770.533C789.499 756.971 795.492 731.1 807.994 723.327Z"/>
	<path fill="white" d="M692.972 755.512C699.967 758.835 712.461 761.947 717.048 768.025C719.428 771.179 718.876 774.61 718.263 778.215L717.467 778.08C716.955 776.546 716.488 775.339 715.541 774.021L714.563 774.43C713.244 778.414 713.563 783.512 713.373 787.713C712.228 785 711.43 781.756 708.956 780.125L708.596 795.303C707.397 791.973 706.365 788.197 704.37 785.262C701.429 789.758 704.148 795.637 703.193 800.936C702.345 801.033 700.031 794.142 697.989 793.322C695.673 796.545 698.176 809.082 698.167 813.625C695.95 809.632 695.539 804.464 692.496 800.989L691.709 801.789C690.938 807.677 692.336 814.059 692.658 820.013C689.831 816.444 689.954 811.079 686.775 807.406L685.954 807.69C684.136 810.7 687.24 820.614 686.736 825.461L686.045 825.291C685.264 823.094 684.518 820.837 683.576 818.704C682.922 817.223 682.164 815.442 680.646 814.836C678.819 818.269 681.14 833.591 680.712 839.136C680.139 836.189 679.6 833.193 678.839 830.287C678.136 827.603 676.818 823.673 674.383 822.261C672.558 825.605 675.294 841.699 674.958 847.325C673.311 840.439 671.698 834.814 668.012 828.666L667.234 828.555C666.522 836.01 669.055 843.489 668.204 851.246C666.256 844.166 663.369 838.214 659.33 832.14C659.638 836.654 663.236 855.782 662.005 858.425C657.697 853.719 656.745 846.349 652.788 841.094L652.26 840.403C652.682 848.612 654.438 857.047 655.539 865.212L653.755 866.167L653.749 866.214C651.948 862.399 648.696 852.917 644.859 851.238C642.881 855.321 647.884 864.227 648.655 868.763C649.089 871.323 648.661 872.256 647.276 874.253L646.145 874.118C643.039 870.443 642.26 864.719 641.567 860.119C641.719 865.947 643.372 870.762 645.581 876.116C623.322 881.787 603.226 885.9 583.506 898.407C592.206 885.003 602.983 873.101 613.042 860.73C623.454 847.924 633.433 834.703 643.609 821.702C660.563 800.043 675.661 776.869 692.972 755.512Z"/>
	<path fill="white" d="M949.424 626.312L949.843 626.672C950.111 628.013 949.936 627.906 949.157 629.088C923.048 668.726 907.555 714.039 882.202 753.948C874.062 746.13 866.276 737.903 858.375 729.842C849.934 721.125 841.531 712.474 832.505 704.354C869.819 675.909 909.503 650.865 949.424 626.312Z"/>
	<path fill="#0F172A" d="M782.527 804.456Q785.168 803.78 787.845 803.271Q790.523 802.762 793.227 802.422Q795.931 802.082 798.652 801.912Q801.372 801.742 804.098 801.742Q806.823 801.743 809.543 801.914Q812.264 802.085 814.968 802.427Q817.672 802.768 820.349 803.278Q823.027 803.788 825.667 804.465C825.719 827.143 826.374 849.985 824.9 872.624C813.125 888.72 791.936 894.829 779.714 911.203C771.419 922.316 764.67 934.571 757.613 946.487L726.384 999.954C722.073 1007.47 718.742 1016.19 713.781 1023.21L722.416 1023.32L722.299 1024L696.723 1024L696.638 1023.36L696.242 1023.22C700.994 1008.84 707.877 994.956 714.068 981.151C721.118 965.431 727.745 949.551 734.936 933.889C751.889 896.966 778.285 844.355 782.527 804.456Z"/>
	<path fill="#52618D" d="M713.781 1023.21L722.416 1023.32L722.299 1024L696.723 1024L696.638 1023.36L713.781 1023.21Z"/>
	<path fill="#0F172A" d="M1105.97 517.994L1107.96 518.771C1113.19 530.139 1149.65 628.015 1148.87 633.994C1119.61 644.187 1094.07 663.413 1069.76 682.172C1060.81 689.083 1051.32 697.705 1041.22 702.782C1038.4 707.254 1025.96 714.516 1021.19 717.945L1015.55 712.295C1015.64 695.481 1014.54 678.844 1013.86 662.055C1013.16 644.544 1012.5 609.807 1020.35 594.038C1025.56 583.554 1069.67 548.735 1081.51 538.789C1088.37 533.022 1099.67 525.09 1105.38 518.685C1105.58 518.457 1105.77 518.224 1105.97 517.994Z"/>
	<path fill="#F99835" d="M683.634 274.765C703.649 253.846 701.205 247.221 712.752 224.194C723.155 203.448 740.162 185.573 757.689 170.687C782.594 149.535 832.116 123.51 865.702 126.251C884.3 129.978 902.746 139.136 919.11 148.472C920.844 172.302 930.145 194.304 948.425 210.22Q950.636 212.151 953.058 213.81Q955.481 215.468 958.081 216.83C956.186 240.939 954.478 264.822 954.063 289.013Q914.035 282.191 873.928 275.854C860.022 273.636 844.439 272.454 830.998 268.394C820.899 265.343 817.619 253.993 803.632 250.146C793.396 252.466 783.715 256.868 773.633 259.773C764.373 262.442 754.203 263.37 745.335 267.069C740.29 269.173 735.226 271.986 731.978 276.495L731.712 278.351C733.137 279.664 733.805 279.853 735.708 279.961C739.924 277.729 745.172 276.245 749.933 275.973L751.041 276.454C748.092 280.474 742.007 281.538 738.274 284.723L740.663 285.856C737.281 302.661 738.011 315.93 748.001 330.775C748.925 332.148 749.959 333.439 751.019 334.708C750.809 330.383 750.706 326.024 750.351 321.71C761.354 333.583 771.766 340.663 786.452 347.33C780.018 341.94 771.837 339.043 765.567 333.773C761.739 331.597 758.677 328.447 756.094 324.929C751.136 322.131 746.256 309.781 744.223 304.575C751.393 301.516 757.65 297.364 764.547 293.862C777.104 287.486 791.783 288.685 805.411 289.127L806.115 303.949C796.689 299.054 786.057 296.588 775.485 298.378C768.061 299.636 757.78 302.697 753.324 309.316C752.255 310.904 751.66 312.153 751.99 314.02C753.049 314.064 754.068 314.141 755.117 314.292C754.798 316.225 754.318 317.605 754.994 319.499C759.336 318.537 760.277 313.684 765.624 313.172C763.549 314.841 761.65 316.393 759.996 318.509L760.555 320.046C762.207 319.294 763.548 318.523 764.947 317.35C766.622 315.946 767.689 314.707 769.953 314.786C770.192 317.216 770.012 318.821 771.723 320.625C776.031 321.836 779.546 320.017 783.375 318.255C785.128 316.327 785.73 315.435 788.294 314.661C789.911 315.375 791.362 315.955 793.099 316.301C795.371 314.602 797.037 312.995 800.064 313.514C800.772 313.635 801.486 314.024 802.123 314.326L801.843 314.849L801.044 315.027C799.22 315.443 797.778 315.658 796.478 317.122C799.582 316.988 801.905 316.343 804.545 314.687C806.424 317.62 805.204 322.134 804.506 325.375C803.445 330.292 802.134 335.23 799.951 339.776C788.667 333.873 775.426 332.376 763.428 328.253L767.354 331.182C777.773 335.409 789.105 336.814 799.642 340.847C797.761 343.824 795.853 346.699 793.445 349.284C785.423 357.899 772.698 363.42 760.944 363.759C754.552 363.943 749.007 361.834 744.356 357.432C733.873 347.509 728.06 328.585 727.544 314.304C728.85 317.366 729.381 321.017 730.239 324.252C733.29 335.757 737.08 346.467 745.763 355.055L746.544 354.686C746.88 347.706 738.772 333.437 736.23 326.292Q734.844 322.452 733.859 318.491Q732.873 314.53 732.299 310.488C731.495 304.787 731.356 299.263 732.358 293.579C732.871 290.669 736.424 283.522 736.084 281.327C736.044 281.071 735.977 280.82 735.923 280.567C734.829 280.914 733.604 281.275 732.623 281.887C726.676 285.597 725.868 293.57 724.327 299.846L723.883 299.819L723.141 299.784C719.716 299.601 716.581 299.871 713.181 300.319C712.434 295.839 711.863 291.386 711.424 286.865C707.358 281.112 703.31 278.211 696.929 275.323C692.221 273.967 688.439 274.228 683.634 274.765Z"/>
	<path d="M757.172 230.613C772.162 229.041 788.088 231.123 802.73 234.338C797.034 235.018 790.274 234.09 784.487 233.862C778.236 233.392 740.582 235.086 739.245 234.093C744.233 230.908 751.418 231.041 757.172 230.613Z"/>
	<path d="M748.335 207.555C762.999 207.066 777.843 207.031 792.372 209.354C776.998 211.112 761.433 210.072 746.02 211.65C736.895 212.757 728.526 214.911 719.811 217.809C729.033 211.394 737.252 208.592 748.335 207.555Z"/>
	<path fill="white" d="M683.634 274.765C703.649 253.846 701.205 247.221 712.752 224.194C723.155 203.448 740.162 185.573 757.689 170.687C782.594 149.535 832.116 123.51 865.702 126.251C858.557 131.567 844.18 134.988 835.507 139.01C821.263 145.615 806.562 154.839 793.736 163.889C784.915 170.114 776.447 177.372 768.859 185.05C764.628 189.331 752.031 205.481 748.335 207.555C737.252 208.592 729.033 211.394 719.811 217.809C728.526 214.911 736.895 212.757 746.02 211.65C743.654 219.62 720.28 250.528 714.053 257.468C708.573 263.577 702.095 268.966 696.929 275.323C692.221 273.967 688.439 274.228 683.634 274.765Z"/>
	<path fill="#0F172A" d="M1208.03 1024C1208.99 1023.34 1209.74 1022.59 1210.17 1021.48C1213.03 1014.08 1214.58 1005.58 1216.68 997.878C1222.01 978.321 1227.06 958.229 1233.83 939.136C1255.76 877.303 1288.11 787.401 1351.19 757.604C1372.25 747.654 1399.13 740.274 1421.86 748.617C1427.99 750.867 1433.46 754.944 1438.04 759.548C1449.91 771.508 1471.72 805.166 1478.91 820.526C1475.28 817.339 1472.25 812.124 1469.47 808.149C1463.03 798.93 1454.03 785.091 1446.23 777.49L1444.9 777.724C1443.43 783.45 1493.87 844.86 1496.7 862.735C1496.6 862.403 1496.43 861.825 1496.27 861.481C1493.03 854.637 1444.91 794.675 1437.58 787.438C1436.07 785.944 1433.96 785.089 1432.01 784.307C1432.13 784.432 1432.24 784.554 1432.36 784.682C1436.89 789.882 1440.76 795.937 1444.83 801.526Q1455.97 816.902 1467.48 832.002Q1479.13 847.384 1491.06 862.554C1495.66 868.407 1501.01 874.278 1504.92 880.616C1508.05 885.689 1511.01 890.739 1510.56 896.863C1510.55 895.844 1510.39 894.965 1509.99 894.015C1507.35 887.642 1443.33 816.273 1435.13 808.885C1433.39 807.313 1431.27 806.415 1429.11 805.57C1429.93 806.173 1430.72 806.815 1431.41 807.568C1446.44 824.178 1460.19 842.297 1474.69 859.419C1487.32 874.342 1506.36 894.282 1516.37 910.032C1518.61 913.544 1519.82 916.517 1519.69 920.711C1519.59 919.803 1519.5 918.941 1519.08 918.112C1513.94 907.936 1432.2 842.663 1418.49 838.105C1419.07 839.898 1421.2 841.615 1422.61 842.838C1434.07 852.813 1446.46 861.768 1458.23 871.373C1472.64 883.136 1486.55 895.642 1500.6 907.847C1508.41 914.638 1520.4 923.15 1525.71 931.917C1528.22 936.056 1533.73 946.644 1532.59 951.363C1532.2 950.498 1531.94 949.909 1531.3 949.199C1519.75 936.438 1427.29 881.369 1410.35 873.958C1408.38 873.095 1406.31 872.83 1404.18 872.718C1415.1 877.616 1431.95 889.995 1442.62 896.828L1487.8 926.008C1503.72 936.205 1520.55 946.482 1534.97 958.735L1534.95 961.654C1536.56 965.613 1536.19 969.601 1535.41 973.701L1535.36 975.317C1536.06 978.016 1535.98 979.404 1534.99 981.991C1536.56 985.546 1537.05 1018.35 1535.47 1022.5C1535.22 1023.15 1535.06 1023.35 1534.69 1024L1381.95 1024L1378.38 1024L1368.47 1024L1363.01 1024L1352.75 1024L1347.29 1024L1337.17 1024L1328 1024L1320.55 1024L1281.31 1024L1208.03 1024Z"/>
	<path fill="#52618D" d="M1320.67 1023.36C1322.77 1023.24 1325.9 1022.64 1327.75 1023.78C1327.84 1023.84 1327.91 1023.93 1328 1024L1320.55 1024L1320.67 1023.36Z"/>
	<path fill="#52618D" d="M1369.04 1023.24C1372.09 1023.27 1375.22 1023.16 1378.26 1023.36L1378.38 1024L1368.47 1024L1369.04 1023.24Z"/>
	<path fill="#52618D" d="M1337.08 1023.3L1346.63 1023.27L1347.29 1024L1337.17 1024L1337.08 1023.3Z"/>
	<path fill="#52618D" d="M1352.89 1023.37L1362.46 1023.24L1363.01 1024L1352.75 1024L1352.89 1023.37Z"/>
	<path fill="#52618D" d="M1535.41 973.701Q1535.38 967.67 1534.95 961.654C1536.56 965.613 1536.19 969.601 1535.41 973.701Z"/>
	<path d="M1378.35 988.627C1379.3 989.642 1380.41 990.785 1380.9 992.104C1383.23 998.462 1383.65 1014.19 1383.31 1021.19C1383.25 1022.42 1382.72 1023.08 1381.95 1024L1378.38 1024L1378.26 1023.36C1378.54 1014.9 1380.76 996.022 1378.35 988.627Z"/>
	<path d="M1362.46 1023.24C1363.39 1015.36 1367.74 939.851 1366.81 936.674C1367.89 938.007 1369.2 939.508 1369.6 941.22C1371.59 949.741 1370.32 1011.62 1369.13 1022.54L1369.04 1023.24L1368.47 1024L1363.01 1024L1362.46 1023.24Z"/>
	<path d="M1534.99 981.991C1529.05 977.046 1520.06 973.271 1513.27 969.36Q1493.65 957.796 1474.4 945.614C1464.53 939.468 1453.6 933.649 1445.03 925.727C1450.69 925.636 1524.77 968.742 1535.36 975.317C1536.06 978.016 1535.98 979.404 1534.99 981.991Z"/>
	<path d="M1346.63 1023.27L1346.71 1022.6C1347.61 1013.87 1347.18 1004.81 1347.65 996.001Q1349.09 969.81 1351.73 943.712C1352.51 935.44 1352.79 926.589 1354.84 918.534L1356.06 917.927L1354.94 918.255L1355.63 916.828L1356.43 919.089L1356.37 918.11C1357.13 921.983 1357.41 925.748 1357.44 929.689C1357.51 939.667 1355.05 1018.09 1352.89 1023.37L1352.75 1024L1347.29 1024L1346.63 1023.27Z"/>
	<path d="M1343.1 888.939C1343.29 888.674 1343.48 888.412 1343.66 888.145C1344.5 886.928 1344.99 885.592 1345.51 884.222L1346.22 883.885C1346.45 884.326 1346.8 884.721 1346.91 885.207C1347.59 888.262 1338.54 1012.46 1337.08 1023.3C1334.91 1023.31 1331.45 1023.8 1329.61 1022.61C1327.84 1015.77 1329.71 1005.94 1330.31 998.816Q1333.75 962.762 1338.44 926.851C1339.93 915.983 1342.09 905.126 1343.3 894.24C1343.51 892.38 1343.72 890.747 1343.1 888.939Z"/>
	<path d="M1281.31 1024C1284.9 1019.05 1285.95 1008.82 1287.65 1002.75C1299.94 958.878 1313.99 915.744 1327.39 872.24C1329.52 865.325 1337.66 837.615 1342.97 834.811L1343.85 835.583C1345.31 839.641 1344.73 844.506 1344.25 848.706C1341.25 875.255 1335.8 901.611 1332.58 928.182L1324.84 991.965C1323.58 1002.24 1323.01 1013.34 1320.67 1023.36L1320.55 1024L1281.31 1024Z"/>
	<path fill="#F99835" d="M845.544 283.88Q885.598 288.956 925.444 295.46C937.361 297.411 949.592 298.955 961.306 301.889C962.759 314.315 964.897 336.332 956.723 346.492C955.193 348.394 953.24 347.976 951.096 348.821L951.604 349.613L952.057 348.726L953.675 348.937L953.518 349.798C961.509 352.164 969.618 353.405 977.672 355.419L978.295 355.02C990.641 346.987 1000.42 335.251 1011.98 326.215C1026.56 314.818 1054.97 304.463 1073.35 308.055C1081.08 309.566 1087.67 313.772 1092.03 320.368C1099.39 331.489 1099.98 347.103 1097.33 359.788C1095.39 369.033 1091.95 378.004 1088.54 386.782C1080.07 408.547 1069.99 431.367 1049.6 444.523C1040.91 450.134 1022.49 458.55 1011.71 456.088C1006.17 454.825 1001.02 451.036 998.215 446.123C993.762 438.337 994.49 428.552 995.363 419.971C991.262 431.449 989.301 442.831 994.607 454.317C995.924 457.169 997.726 459.91 999.471 462.522C990.478 475.365 982.636 488.777 974.57 502.197C970.524 508.928 965.966 515.598 962.376 522.573C979.195 503.951 992.562 482.097 1015.61 470.349C1024.44 465.845 1034.07 462.966 1043.09 458.851C1050.27 455.571 1056.8 449.217 1063.96 446.756C1062.94 451.387 1029.99 470.508 1023.61 481.197C1033.16 474 1051.28 458.949 1061.62 454.298L1062.34 455.235C1061.23 459.102 1041.9 475.589 1037.66 480.352C1032.4 486.259 1028.88 493.254 1023.95 499.192C1031.63 491.608 1052.99 465.662 1060.83 462.907C1061.49 464.488 1061.12 465.942 1060.56 467.584C1060.5 467.742 1060.4 467.88 1060.32 468.029C1055.15 476.843 1045.87 484.35 1039.31 492.323C1035.2 497.307 1031.65 503.983 1026.96 508.259C1030.73 505.932 1059.08 476.392 1059.7 473.405C1059.75 473.146 1059.79 472.884 1059.83 472.623C1061.12 474.853 1062.06 477.72 1061.43 480.313C1061.34 480.67 1061.25 481.03 1061.1 481.366C1056.43 488.169 1049.32 493.825 1043.84 500.053C1038.88 505.675 1034.86 513.207 1029.13 517.896C1033.99 515.546 1058.61 491.274 1060.5 486.554C1060.67 486.139 1060.74 485.491 1060.81 485.086C1062.9 488.01 1066.5 502.814 1065.7 506.327C1065.67 506.461 1065.61 506.587 1065.57 506.717C1059.86 512.576 1050.89 517.527 1044.15 522.318C1029.68 532.604 1016.18 542.768 1003.53 555.284C993.308 565.408 984.031 576.116 975.28 587.548C969.25 595.424 964.388 606.63 956.455 612.635C946.425 620.227 933.903 626.019 923.117 632.605C891.608 651.847 852.031 676.724 826.197 702.865C812.032 695.042 799.043 688.564 794.052 671.903C791.568 663.611 790.089 655.063 787.325 646.833C777.25 616.825 756.266 600.234 732.393 581.116C743.638 571.973 754.876 562.06 769.295 558.445C782.727 555.077 798.092 556.516 811.889 556.619C866.953 557.033 914.221 556.188 955.791 515.267C968.581 502.678 980.851 487.818 985.33 470.104C967.989 504.91 940.708 532.287 903.45 544.756C898.08 546.553 891.556 548.701 885.934 549.109C868.486 553.855 847.494 554.335 829.553 553.31C846.113 550.036 863.341 549.223 880.064 546.169C891.068 543.625 901.846 540.6 912.136 535.88C919.173 532.652 925.949 528.902 932.186 524.301C945.241 514.671 969.731 490.776 975.466 475.364C968.921 480.906 963.88 490.282 957.331 496.532C936.536 516.378 903.89 531.46 876.051 537.787C863.857 540.558 802.947 551.445 794.049 545.84C805.134 543.226 820.086 543.214 831.738 541.874C885.204 535.726 938.257 518.105 972.792 474.562L971.324 474.944C927.161 521.585 878.669 534.195 816.856 541.143C808.871 542.284 794.72 544.841 787.219 542.189C789.508 539.51 806.385 539.149 810.602 538.785C848.23 534.138 879.618 529.364 913.964 511.818C922.217 507.602 930.703 503.08 938.214 497.633C946.318 491.757 952.796 484.594 960.448 478.403L961.139 477.85L962.626 475.152C961.196 475.128 957.279 479.359 955.968 480.614C947.713 488.515 937.933 494.962 928.181 500.874C891.999 522.808 859.428 529.791 818.148 535.465C809.851 536.605 793.282 539.602 785.448 539.458C784.175 539.435 783.458 539.352 782.401 538.563L782.796 537.824C790.827 536.102 799.222 535.346 807.349 534.01C849.638 527.059 887.515 520.732 924.033 496.373C929.152 492.959 938.561 487.458 941.931 482.377C942.037 482.218 942.112 482.042 942.203 481.874L942.462 481.95C942.177 482.059 941.889 482.163 941.606 482.277C935.704 484.644 929.16 490.677 923.642 494.184Q915.445 499.428 906.782 503.86Q898.119 508.291 889.07 511.87C849.218 527.935 789.126 534.579 745.711 540.255C725.53 542.893 705.966 546.283 685.598 547.366C687.174 550.347 689.507 553.81 689.707 557.198L689.26 557.796C686.181 556.334 683.893 552.918 682.752 549.794C682.553 549.249 682.409 548.735 682.275 548.171C682.412 549.944 682.536 551.71 682.604 553.487L681.724 554.151L680.003 553.516C676.48 549.954 674.012 545.582 672.001 541.019C663.91 522.655 673.866 509.251 677.702 491.788C679.406 484.032 678.828 476.207 678.561 468.333C679.693 464.829 680.686 461.311 681.629 457.753C685.916 444.435 691.46 431.89 697.181 419.146C698.415 415.887 699.463 412.538 701.663 409.785L702.733 409.421C706.152 415.945 700.352 442.352 698.903 450.129C704.414 438.405 706.097 426.787 707.876 414.096C714.384 412.265 720.841 409.012 727.45 407.84C743.001 405.082 755.048 409.31 764.164 393.063L764.378 392.68C778.755 408.651 788.244 428.426 801.381 445.298C794.253 429.345 785.982 414.109 777.74 398.718C772.476 388.889 767.507 378.892 761.72 369.355C776.108 367.914 789.818 362.792 799.324 351.383C799.42 351.268 799.512 351.151 799.606 351.034C806.201 358.737 813.041 366.383 819.114 374.504C827.017 385.074 834.091 396.255 842.57 406.385C832.678 385.51 819.471 363.122 801.698 347.952C808.023 338.02 810.536 328.146 810.912 316.416C825.927 318.497 843.392 322.129 858.14 317.352L858.466 316.855C839.319 316.177 829.45 313.468 812.132 305.041C811.62 299.651 811.24 294.21 810.453 288.853C819.312 289.239 827.583 290.218 836.048 293.064C843.842 295.684 852.096 299.985 860.31 300.722C868.043 301.415 875.807 298.697 883.485 298.222C863.651 296.299 862.012 295.487 845.544 283.88Z"/>
	<path d="M703.965 472.161C713.648 471.265 725.581 472.105 734.505 475.919L715.685 476.968C705.246 477.607 695.523 478.573 685.437 481.445C691.681 474.823 694.819 472.954 703.965 472.161Z"/>
	<path d="M742.393 583.553C766.765 593.203 791.023 622.108 801.54 645.446C797.128 642.472 788.427 628.768 783.698 623.704C777.1 616.639 770.114 609.673 762.942 603.188C755.977 596.89 748.361 590.831 742.393 583.553Z"/>
	<path d="M686.698 461.474C692.979 454.641 699.665 451.115 709.05 450.752C725.013 450.133 771.03 453.006 782.33 463.607C786.435 467.458 788.302 472.033 790.346 477.181C772.726 459.309 743.599 460.503 720.182 460.347C712.655 460.297 695.821 459.497 690.238 464.843C687.657 467.314 686.436 471.351 684.568 474.36C684.156 469.661 685.299 465.905 686.698 461.474Z"/>
	<path fill="white" d="M697.181 419.146C698.287 426.82 688.621 451.676 686.698 461.474C685.299 465.905 684.156 469.661 684.568 474.36C684.916 479.008 684.886 483.04 683.895 487.601C683.731 488.357 683.753 488.744 683.999 489.471C687.642 487.489 690.21 484.337 694.219 482.839L695.439 483.22C694.337 491.767 676.555 508.953 674.464 524.417C673.121 534.353 682.632 543.694 682.275 548.171C682.412 549.944 682.536 551.71 682.604 553.487L681.724 554.151L680.003 553.516C676.48 549.954 674.012 545.582 672.001 541.019C663.91 522.655 673.866 509.251 677.702 491.788C679.406 484.032 678.828 476.207 678.561 468.333C679.693 464.829 680.686 461.311 681.629 457.753C685.916 444.435 691.46 431.89 697.181 419.146Z"/>
	<path d="M1070.22 315.451C1073.36 315.475 1075.63 315.957 1078.26 317.724C1084.65 322.021 1087.39 329.046 1088.75 336.376C1092.47 356.326 1085.85 376.805 1074.49 393.09C1069.47 400.285 1062.96 408.837 1053.71 410.313C1045 411.705 1040.69 405.793 1034.36 401.357L1033.83 400.996C1033.38 399.776 1032.41 398.89 1031.33 398.171C1025.43 394.257 1014.22 398.441 1008.03 400.111C1013.87 394.464 1021.59 390.614 1026.35 383.859C1031.54 376.504 1030.71 367.32 1032.79 358.94C1035.55 347.797 1042.87 334.853 1050.04 325.833C1055.4 319.098 1061.84 316.367 1070.22 315.451Z"/>
	<path fill="#F99835" d="M1053.28 335.253C1059.77 331.232 1068.3 325.22 1076.38 326.946C1078.7 327.439 1080.56 328.968 1081.8 330.943C1084.96 335.982 1085.25 344.479 1083.81 350.113C1083.29 352.136 1082.15 353.869 1081.02 355.593C1082.75 352.075 1082.17 345.576 1080.8 341.951C1079.59 338.729 1076.98 336.09 1073.82 334.737C1069.7 332.969 1065.17 333.191 1061.11 334.963C1059.34 335.733 1057.69 336.743 1056.06 337.761C1054.21 343.031 1050.44 347.066 1048.75 352.605C1048.86 352.499 1048.97 352.396 1049.07 352.288C1055.47 345.531 1056.92 334.829 1068.79 334.388C1071.07 334.303 1073.05 335.139 1074.62 336.805C1079.01 341.482 1079.6 349.995 1079.19 356.04C1078.13 371.589 1070.12 393.762 1058.04 403.912C1055.21 406.294 1051.7 408.024 1047.9 407.615C1044.87 407.288 1042.54 405.619 1040.67 403.281C1037.66 399.513 1036.3 394.858 1032.68 391.488L1032.33 391.157C1039.61 385.969 1047.72 382.042 1049.39 372.36C1050.16 367.92 1048.66 357.519 1045.88 353.93C1045.73 353.733 1045.56 353.545 1045.4 353.352C1045.5 352.311 1045.51 352.776 1045.37 351.755C1045.28 351.103 1045.18 350.454 1045.12 349.797C1044.58 343.201 1049.51 339.813 1053.28 335.253Z"/>
	<path fill="#0F172A" d="M1148.6 642.28C1167.89 651.279 1188.79 657.53 1208.82 664.732L1321.44 705.421C1339.57 712.004 1358.25 717.774 1376 725.292C1380.86 727.349 1394.49 732.833 1396.84 737.328C1358.96 738.778 1320.69 758.222 1295.17 785.82C1277.74 804.671 1264.31 826.038 1251.76 848.335Q1245.9 858.719 1240.59 869.396C1236.35 878.106 1224.51 908.663 1218.98 913.325C1219.66 911.952 1220.06 910.664 1220.18 909.137C1220.88 899.634 1220.03 819.255 1218.71 815.733C1218.26 814.529 1217.47 813.366 1216.78 812.286C1217.89 819.029 1216.67 826.874 1216.35 833.736Q1215.55 851.139 1215.05 868.553Q1214.68 887.935 1214.5 907.321C1214.42 913.578 1214.83 920.425 1213.99 926.596C1213.49 930.21 1198.42 975.338 1197.06 977.284C1196.55 978.014 1195.99 978.699 1195.4 979.369C1196.16 977.986 1196.71 976.613 1196.81 975.033C1197.93 957.432 1194.68 935.87 1193.26 918.01Q1191.41 894.746 1189.21 871.514C1188.47 863.458 1188.2 855.105 1186.76 847.158Q1185.11 845.1 1183.41 843.08C1184.17 844.602 1184.62 846.001 1184.8 847.689C1185.69 855.771 1185.52 864.216 1185.75 872.346L1187.05 916.068C1187.95 944.839 1190.42 977.731 1189.27 1006.25C1189.06 1011.46 1187.64 1017.21 1185.94 1022.14C1185.7 1022.85 1185.33 1023.41 1184.87 1024L1164.87 1024L1156.41 1024L839.864 1024Q859.534 989.559 882.369 957.13C897.41 935.889 914.473 915.345 926.689 892.276C936.61 873.542 945.249 853.925 953.842 834.554C961.055 818.294 969.044 793.123 980.556 780.468C971.984 804.729 962.062 828.467 953.599 852.782C950.054 862.969 946.267 873.33 943.897 883.858C953.011 872.085 958.833 857.124 964.155 843.33C973.694 818.605 983.525 786.305 997.542 764.278C988.445 799.769 973.101 833.225 960.992 867.739C980.761 845.191 988.994 813.503 998.923 785.801C1004.55 770.094 1010.95 753.779 1018.31 738.82C1008.93 775.062 996.138 810.006 983.158 845.082C1001.09 822.853 1009.36 792.628 1017.64 765.751C1019.35 760.209 1021.51 754.755 1023.13 749.217C1025.39 741.483 1026.76 733.193 1029.56 725.662C1030.58 722.933 1031.51 720.612 1034.37 719.472C1035.96 723.596 1009.67 810.638 1007.17 820.454C1014.03 808.292 1044.81 723.685 1042.55 712.222C1045.48 710.741 1049.92 708.132 1051.28 705.091C1051.7 706.669 1051.82 708.155 1051.56 709.765C1050.23 717.982 1034.81 775.56 1032.12 780.341C1031.74 781.033 1031.35 781.718 1030.95 782.402C1032.61 781.115 1034.53 779.706 1035.7 777.939C1044.37 764.903 1057.1 719.784 1059.38 703.35C1059.54 702.251 1059.42 701.664 1059.07 700.636C1062.73 698.522 1066.78 695.793 1069.11 692.195C1069.38 693.122 1069.57 694.07 1069.44 695.036C1068.46 702.261 1053.54 759.272 1050.78 764.216C1050.15 765.353 1049.24 766.419 1048.42 767.411C1050.28 766.171 1052.32 764.877 1053.64 763.031C1063.08 749.861 1073.31 709.429 1076.7 692.803C1077.15 690.617 1077.42 688.805 1076.95 686.591C1079.61 685.066 1083.12 683.29 1084.32 680.283C1084.85 681.799 1084.95 683.064 1084.7 684.638C1083.85 690.215 1072.63 741.958 1071.63 744.009C1071.36 744.548 1070.97 745.016 1070.62 745.498C1070.49 745.673 1070.37 745.857 1070.25 746.033C1070.17 746.139 1070.09 746.24 1070.01 746.344C1080.42 738.874 1089.87 695.062 1092.23 680.909C1092.55 679.025 1092.76 677.66 1092.09 675.816C1094.89 674.203 1098.92 672.134 1099.95 668.849C1100.94 672.244 1091.29 717.217 1088.72 721.878C1088.48 722.323 1088.21 722.756 1087.94 723.188C1097.84 714.723 1107.55 680.016 1107.97 666.588C1107.99 665.69 1107.86 664.988 1107.69 664.112C1110.08 662.718 1113.93 660.666 1114.86 657.94C1116.62 663.361 1109.11 691.646 1106.33 697.114C1105.74 698.267 1105 699.34 1104.23 700.381C1115.22 692.91 1120.44 672.394 1122.74 659.746C1123.03 658.13 1123.29 656.428 1122.82 654.828C1128.21 652.83 1144.56 645.74 1148.6 642.28Z"/>
	<path d="M1143.14 989.091L1144.81 989.376C1145.16 989.714 1145.34 989.838 1145.55 990.337C1147.43 994.663 1151.3 1019.22 1149.25 1022.88C1147.45 1023.31 1146.5 1023.46 1144.72 1022.86C1141.29 1017.37 1144.08 997.273 1143.23 989.818L1143.14 989.091Z"/>
	<path d="M1152.33 954.499C1153.28 955.399 1154.28 956.32 1155.1 957.345C1157.52 960.367 1165.31 1017.34 1164.77 1022.58C1162.35 1023.75 1159.23 1023.24 1156.6 1023.14C1156.68 1011.77 1155.15 1000.32 1154.61 988.957C1154.13 978.857 1154.64 968.144 1153.45 958.165C1153.3 956.88 1152.85 955.675 1152.33 954.499Z"/>
	<path d="M1167.05 910.318C1167.79 910.495 1168.22 910.801 1168.85 911.196C1170.92 919.899 1182.76 1015.62 1180.95 1021.31C1180.74 1021.96 1180 1022.84 1179.63 1023.44C1177.64 1023.48 1175.97 1023.43 1174.03 1022.95C1171.72 1016.27 1172.21 1006.42 1171.69 999.246Q1169.48 971.742 1168.18 944.179C1167.71 932.936 1168.01 921.518 1167.05 910.318Z"/>
	<path fill="white" d="M774.15 75.6007L1210.39 75.6642C1291.44 75.579 1372.57 74.8217 1453.61 75.7619C1456.01 79.8339 1455.86 94.5409 1454.64 99.2198C1454.45 99.955 1454.04 100.673 1453.64 101.315L1478.63 101.36C1479.22 102.589 1479.56 103.696 1479.63 105.059C1480.82 125.808 1479.65 325.781 1479.18 327.033C1478.96 327.64 1478.82 327.803 1478.46 328.397L1281.32 328.59C1281.97 329.723 1282.32 330.742 1282.41 332.061C1283.19 343.603 1283.21 427.404 1281.57 432.898C1281.43 433.388 1281.2 433.824 1280.98 434.286C1280.88 434.556 1280.79 434.83 1280.68 435.097C1278.79 439.862 1270.57 445.614 1267.59 450.677C1248.52 483.147 1241.44 516.729 1255.3 553.024C1258.18 560.58 1262.47 568.158 1267.16 574.745C1269.92 578.618 1280.29 589.375 1280.9 592.585C1282.88 598.582 1282.95 670.676 1280.72 675.904C1269.11 670.421 1255.85 666.665 1243.73 662.333C1216.3 652.527 1188.78 643.089 1161.47 632.937C1161.75 629.275 1120.99 522.511 1116.63 516.172C1119.6 514.468 1121.32 511.051 1122.89 508.126C1129.93 494.933 1134.86 480.497 1140.69 466.738C1147.16 451.486 1154.45 436.662 1161.44 421.654C1167.88 407.832 1174.22 394.067 1178.4 379.352C1191.05 334.709 1189.35 279.5 1173.4 235.877C1152.3 178.21 1108.38 143.935 1053.02 120.98C1041.6 116.248 1029.88 112.915 1018.38 108.547C1013.35 106.633 1008.58 103.735 1003.8 101.259C992.734 95.5273 981.407 91.6415 968.94 90.3818C948.571 88.3235 941.558 93.2884 923.555 96.0476C908.253 98.3928 887.781 92.926 873.875 86.4773C872.337 84.9444 870.886 83.5021 869.091 82.2593L867.616 82.581C866.917 84.7323 867.739 88.2029 868.721 90.2216C871.6 97.7732 874.961 102.822 882.563 106.186Q886.128 107.784 889.877 108.883C901.203 111.496 912.743 113.093 924.082 115.642C932.009 117.424 939.829 119.97 947.595 122.351Q941.479 118.765 935.006 115.875Q928.532 112.986 921.779 110.828C909.996 106.991 881.365 103.58 874.389 93.8874L874.921 92.6217C909.321 116.494 960.815 95.0638 1007 128.146C991.241 109.408 969.744 102.86 946.331 99.4875C962.994 95.7394 982.518 100.394 997.84 107.405C1004.04 110.242 1009.98 113.906 1016.36 116.306C1043.13 126.384 1069.06 135.545 1093.53 150.969C1135.08 177.156 1161.91 214.393 1172.7 262.433C1182.31 305.21 1180.57 353.359 1164.57 394.381C1157.79 411.778 1148.66 428.433 1141.06 445.508C1134.3 460.692 1126.78 483.715 1118.34 497.121C1117.71 498.132 1117.12 498.967 1116.21 499.758C1114.33 497.7 1111.41 496.572 1108.74 495.91C1112.51 492.291 1114.54 488.217 1115.38 483.039C1112.51 486.867 1109.2 493.772 1104.3 494.899C1102.66 494.425 1102.42 494.426 1101.35 493.127C1103.91 487.56 1108.86 481.216 1108.73 474.941C1108.73 474.684 1108.74 474.426 1108.74 474.168C1108.74 474.013 1108.73 473.858 1108.72 473.703C1108.01 477.945 1100.31 490.051 1096.6 492.498C1095.42 493.282 1094.75 493.209 1093.4 493.195L1092.25 492.225C1093.98 485.098 1101.06 478.045 1099.2 470.492C1098.5 475.947 1090.64 488.601 1086.68 492.162C1086.11 492.679 1085.35 492.87 1084.63 493.106L1084.76 490.633L1084.62 490.935C1085.69 487.23 1086.76 483.299 1088.53 479.864C1091.6 473.913 1097.33 468.938 1098.32 462.142C1093.32 469.055 1086.27 474.968 1080.57 481.394C1077.5 484.851 1074.98 489.055 1071.82 492.326C1070.69 493.487 1069 494.234 1067.54 494.901C1070.5 491.084 1072.58 486.79 1075.48 482.922C1080.8 475.821 1087.25 469.018 1091.89 461.487C1092.58 460.368 1092.85 459.469 1092.89 458.161C1092.9 457.854 1092.92 457.547 1092.92 457.24C1092.93 457.031 1092.91 456.823 1092.9 456.615C1091.74 458.827 1070.91 483.614 1070.16 484.044C1073.77 468.764 1093.61 452.501 1096.24 444.085C1093.6 447.178 1088.83 450.837 1085.19 452.691C1083.83 451.219 1082.65 451.317 1080.73 450.917C1084.5 448.215 1093.67 439.416 1096.46 435.656C1084.97 439.521 1079.59 451.608 1069.9 457.314C1070.83 456.266 1071.72 455.261 1072.31 453.968C1077.44 442.608 1098.62 428.307 1100.26 423.422C1097.36 426.823 1088.59 431.485 1084.61 434.514C1081.21 437.101 1078.19 440.254 1075.09 443.181L1074.63 442.95C1076.47 433.108 1094.84 424.963 1095.93 415.383C1091.48 421.344 1081.72 429.769 1074.74 432.425C1078.59 429.648 1082.06 425.685 1085.23 422.154C1088.06 419.011 1092.62 414.883 1092.39 410.439C1092.21 410.899 1092.1 411.239 1091.86 411.653C1089.53 415.602 1083.64 419.645 1079.33 420.977C1084.22 416.485 1090.08 411.684 1091.53 404.921C1091.48 405.116 1091.45 405.32 1091.37 405.508C1090.33 408.113 1087.59 409.649 1085.27 410.964C1091.88 403.377 1098.91 384.119 1102.07 374.16C1107.74 356.237 1109.37 335.774 1100.26 318.626C1096.58 311.705 1091.09 306.577 1083.83 303.584C1061.44 294.347 1044.33 307.148 1023.5 306.087C1020.51 305.934 1017.4 304.814 1014.54 303.95C1021.36 302.18 1028.41 300.501 1034.26 296.383C1037.67 293.989 1040.65 290.635 1041.38 286.443C1040.3 287.915 1038.21 288.767 1036.61 289.588C1027.19 294.447 1004.57 303.85 994.416 300.582C997.632 299.113 1001.03 298.032 1004.26 296.585C1012.4 292.945 1018.51 286.221 1021.65 277.908C1026.61 264.759 1025.23 248.16 1019.56 235.484C1020.78 242.892 1021.23 250.507 1020.31 257.976C1018.86 269.649 1013.98 280.624 1004.45 287.878C999.556 291.603 986.159 298.216 979.857 297.146C978.922 296.988 978.899 297.053 978.339 296.27C989.021 290.375 996.522 289.024 1002.77 277.191C1010.82 261.923 1008.45 244.356 1003.67 228.525C1003.41 237.32 1003.38 246.263 1002.14 254.982C1000.62 265.716 996.14 278.353 986.969 284.97C982.238 288.383 971.243 294.721 965.396 293.396C964.271 293.141 964.623 293.347 964.082 292.39C972.358 285.069 977.402 286.435 982.712 274.255Q983.079 273.398 983.403 272.525Q983.727 271.651 984.008 270.762Q984.289 269.873 984.525 268.972Q984.762 268.07 984.953 267.158Q985.145 266.246 985.292 265.326Q985.439 264.406 985.54 263.479Q985.641 262.553 985.697 261.622Q985.752 260.692 985.761 259.76Q985.771 258.828 985.735 257.897Q985.698 256.966 985.616 256.037Q985.534 255.109 985.406 254.186Q985.278 253.263 985.104 252.347Q984.931 251.431 984.713 250.525Q984.495 249.619 984.232 248.725Q983.97 247.83 983.664 246.95Q983.357 246.07 983.008 245.206L982.626 244.263C982.334 248.111 981.962 251.957 981.242 255.752C978.457 270.413 970.587 279.675 958.521 287.792C964.18 267.021 965.898 242.877 968.451 221.431C981.445 224.79 993.874 227.076 1007.23 228.63C1001.11 225.46 994.401 224.22 987.872 222.185C978.763 219.345 969.078 214.959 961.085 209.717C940.614 196.292 931.654 174.83 926.725 151.9C947.754 160.259 969.571 165.603 992.33 163.677C972.32 158.782 952.378 153.234 933.408 145.102C907.882 134.161 889.336 121.826 861.367 116.806C881.35 114.206 909.486 122.507 927.866 129.889C937.325 133.689 946.361 138.378 955.688 142.467C934.54 125.881 911.489 116.416 885.668 109.524C876.682 106.864 863.176 105.25 857.058 97.6414C855.3 95.4554 854.327 92.7837 852.909 90.383C848.294 93.9208 850.848 100.832 848.075 105.197C846.381 102.061 845.86 98.0855 845.099 94.6162C842.449 98.3381 840.177 102.119 837.977 106.119C838.026 102.714 838.993 99.6756 838.057 96.2776L837.129 96.1289C835.19 98.5941 834.37 101.492 833.375 104.422C834.394 109.053 839.154 116.294 839.085 118.638C837.679 119.476 836.707 119.485 835.08 119.02C833.54 118.579 832.476 117.024 831.847 115.647C830.074 111.76 831.237 109.167 831.5 105.292C828.479 108.873 828.148 111.108 828.402 115.703C812.355 110.138 798.646 108.514 782.83 116.267C779.835 117.735 776.98 119.503 774.146 121.256Q774.015 98.4276 774.15 75.6007Z"/>
	<path fill="#F99835" d="M1274.98 135.407Q1275.66 135.343 1276.34 135.302C1298.5 134.053 1319.31 139.666 1336.09 154.7C1351.23 168.256 1360.8 186.595 1361.7 207.04C1362.53 225.833 1356.04 245.268 1343.2 259.136C1329.98 273.42 1310.83 282.9 1291.31 283.684C1273.52 286.499 1253.39 279.844 1238.99 269.694C1223.42 258.732 1211.17 241.435 1208.02 222.465C1204.84 203.335 1209.1 182.735 1220.66 167.01C1233.81 149.098 1253.29 138.79 1274.98 135.407Z"/>
	<path fill="white" d="M1275.95 141.409C1295.49 139.657 1314 144.962 1329.41 157.162C1344.01 168.723 1353.25 184.278 1355.29 202.903C1357.19 220.311 1352.4 238.531 1341.36 252.228C1328.94 267.634 1310.31 275.998 1290.92 278.027C1290.75 278.056 1290.57 278.092 1290.39 278.116C1273.08 280.354 1254.56 274.377 1240.81 263.993Q1239.43 262.963 1238.1 261.866Q1236.77 260.77 1235.5 259.608Q1234.23 258.447 1233.02 257.224Q1231.8 256.001 1230.65 254.72Q1229.5 253.439 1228.41 252.102Q1227.33 250.765 1226.31 249.376Q1225.29 247.987 1224.34 246.549Q1223.39 245.112 1222.51 243.629Q1221.64 242.146 1220.83 240.621Q1220.03 239.097 1219.31 237.534Q1218.58 235.972 1217.93 234.376Q1217.29 232.779 1216.72 231.153Q1216.15 229.526 1215.66 227.874Q1215.18 226.221 1214.77 224.546Q1214.37 222.872 1214.05 221.179Q1213.73 219.486 1213.49 217.78Q1213.28 216.145 1213.15 214.501Q1213.02 212.858 1212.97 211.21Q1212.92 209.562 1212.95 207.913Q1212.99 206.265 1213.1 204.62Q1213.21 202.976 1213.41 201.338Q1213.6 199.701 1213.87 198.075Q1214.15 196.45 1214.5 194.839Q1214.86 193.229 1215.29 191.638Q1215.72 190.047 1216.23 188.479Q1216.74 186.911 1217.32 185.37Q1217.91 183.829 1218.57 182.319Q1219.23 180.809 1219.97 179.333Q1220.7 177.857 1221.51 176.419Q1222.31 174.981 1223.19 173.584Q1224.07 172.187 1225.01 170.835Q1225.95 169.483 1226.96 168.179C1238.9 152.962 1256.99 143.798 1275.95 141.409Z"/>
	<path fill="#F99835" d="M1247.1 165.412C1247.99 165.286 1248.71 165.305 1249.6 165.432C1251.01 165.635 1250.8 165.855 1251.62 166.923C1251.55 167.492 1251.56 167.7 1251.38 168.211C1250.15 171.888 1244.43 176.653 1240.98 178.172C1239.48 177.99 1239.43 178.144 1238.48 176.989C1238.97 172.38 1244.63 169.926 1246.7 166.167C1246.84 165.918 1246.96 165.663 1247.1 165.412Z"/>
	<path fill="#F99835" d="M1317.37 164.664C1320.76 165.395 1324.25 168.265 1326.62 170.751C1328.19 172.409 1329.38 174.079 1329.34 176.42L1327.68 177.822L1327.01 178.317L1325.54 178.069C1322.82 175.625 1319.91 172.92 1317.98 169.776C1316.65 167.612 1316.89 167.039 1317.37 164.664Z"/>
	<path fill="#F99835" d="M1236.47 237.427C1236.86 237.42 1237.27 237.399 1237.66 237.467C1240.55 237.974 1245.53 244.044 1247.38 246.408C1248.77 248.187 1249.88 249.593 1249.62 251.894L1247.4 252.898C1243.16 250.701 1237.92 246.08 1236.11 241.564C1235.34 239.626 1235.72 239.27 1236.47 237.427Z"/>
	<path fill="#F99835" d="M1326.67 237.43C1328.73 237.17 1329.46 236.885 1331.38 237.752C1331.84 239.639 1331.76 239.922 1331.01 241.707C1329.34 245.637 1324.83 250.701 1320.89 252.295L1319.44 252.94L1318.23 252.404C1317.74 246.213 1325.94 242.938 1326.67 237.43Z"/>
	<path fill="#F99835" d="M1280.62 203.672C1282.09 203.573 1283.61 203.332 1285 203.942C1286.77 204.721 1288.3 206.138 1288.92 208.001Q1289.02 208.284 1289.08 208.576Q1289.15 208.867 1289.19 209.164Q1289.23 209.461 1289.23 209.76Q1289.24 210.06 1289.22 210.358Q1289.19 210.656 1289.14 210.951Q1289.08 211.245 1289 211.532Q1288.92 211.819 1288.8 212.097Q1288.69 212.374 1288.55 212.638C1287.4 214.773 1285.75 215.587 1283.56 216.365C1281.72 216.607 1279.88 215.673 1278.43 214.687C1277.62 213.453 1277.19 212.464 1277.19 210.961C1277.18 207.695 1278.44 205.964 1280.62 203.672Z"/>
	<path fill="#F99835" d="M1274.88 154.162C1279.81 153.499 1285.25 152.879 1290.13 154.06C1292.67 154.674 1295.13 155.343 1296.56 157.678L1296.11 158.906C1294.06 160.086 1292.4 159.761 1290.17 159.524C1284.8 158.018 1278.84 160.16 1273.44 159.307C1271.85 159.055 1271.65 159.109 1270.73 157.809C1271.9 155.725 1272.93 155.331 1274.88 154.162Z"/>
	<path fill="#F99835" d="M1270.43 259.936C1273.52 259.446 1293.24 259.82 1295.37 261.183L1295.53 262.851L1293.67 264.44C1293.27 264.847 1293.15 265.024 1292.55 265.292C1287.7 267.48 1277.47 267.355 1272.79 264.548C1270.72 263.312 1270.83 262.094 1270.43 259.936Z"/>
	<path fill="#F99835" d="M1336.93 193.916C1338.4 194.022 1339.3 193.806 1340.39 194.986C1343.48 198.347 1343.58 206.088 1343.21 210.397C1342.91 213.889 1342.59 217.934 1339.76 220.315L1338.88 220.973C1337.93 220.662 1337.5 220.801 1337.04 219.842C1336.58 218.891 1336.52 195.185 1336.93 193.916Z"/>
	<path fill="#F99835" d="M1227.45 194.668C1228.89 194.431 1230.04 194.416 1231.5 194.514C1231.82 194.946 1232.3 195.297 1232.46 195.81C1233.06 197.666 1231.51 207.574 1231.44 210.313C1231.36 213.264 1232.12 216.016 1231.87 218.977L1230.32 220.185L1228.27 220.167C1227.69 219.644 1227.13 219.169 1226.73 218.485C1223.24 212.49 1225.89 201.076 1227.45 194.668Z"/>
</svg>
