<?xml version="1.0" encoding="utf-8" ?>
<svg xmlns="http://www.w3.org/2000/svg" xmlns:xlink="http://www.w3.org/1999/xlink" width="1536" height="1024">
	<path fill="white" d="M0 0L1534.69 0C1535.54 1.34434 1535.84 2.50848 1535.91 4.09208C1536.57 18.5072 1536 33.1619 1536 47.604L1536.01 132.471L1536.01 391.421L1536.01 865.91L1536 981.169C1536 989.131 1537.19 1015.2 1535.79 1021.39C1535.57 1022.35 1535.21 1023.17 1534.69 1024L0 1024L0 0Z"/>
	<path fill="#0F172A" d="M1285.34 348.459C1289.74 347.906 1293.5 347.544 1297.6 349.736Q1297.97 349.931 1298.32 350.146Q1298.68 350.36 1299.02 350.593Q1299.37 350.826 1299.7 351.076Q1300.03 351.327 1300.35 351.595Q1300.67 351.862 1300.97 352.147Q1301.28 352.431 1301.56 352.731Q1301.85 353.03 1302.12 353.345Q1302.4 353.659 1302.65 353.988Q1302.91 354.316 1303.14 354.658Q1303.38 354.999 1303.6 355.353Q1303.82 355.706 1304.02 356.071Q1304.22 356.435 1304.4 356.81Q1304.58 357.184 1304.74 357.568Q1304.9 357.951 1305.04 358.343Q1305.18 358.734 1305.3 359.133Q1305.42 359.531 1305.52 359.935C1306.46 363.893 1305.94 368.017 1303.73 371.473C1301.48 374.972 1297.87 377.227 1293.91 378.209C1292.03 379.187 1289.14 378.897 1287.14 378.419C1283.18 377.471 1280.01 374.903 1277.95 371.421Q1277.52 370.706 1277.17 369.951Q1276.81 369.196 1276.53 368.409Q1276.26 367.622 1276.06 366.811Q1275.87 366 1275.75 365.174Q1275.64 364.347 1275.61 363.514Q1275.58 362.68 1275.64 361.848Q1275.69 361.015 1275.83 360.193Q1275.97 359.37 1276.19 358.566C1277.64 353.366 1280.85 350.929 1285.34 348.459Z"/>
	<path fill="white" d="M1287.3 356.71C1288.65 356.48 1290.14 356.169 1291.5 356.455C1293.62 356.902 1295.6 358.586 1296.6 360.474C1297.47 362.13 1297.55 364.019 1296.83 365.748C1295.81 368.202 1294.01 369.028 1291.66 369.914C1291.44 370.029 1291.24 370.198 1291.01 370.259C1288.85 370.816 1287.43 370.068 1285.8 368.912C1284.72 367.154 1284.24 365.639 1284.14 363.585C1284 360.389 1285.21 358.98 1287.3 356.71Z"/>
	<path fill="#0F172A" d="M1437.13 364.212C1438.24 364.183 1439.32 364.327 1440.43 364.444C1442.26 365.578 1442.95 366.561 1443.54 368.637C1444.79 373.066 1444.7 382.501 1442.45 386.577C1448.8 386.464 1459.65 385.098 1464.78 389.689C1465.76 390.567 1465.61 390.745 1465.7 392.052C1465.29 392.562 1465.15 392.801 1464.69 393.209C1459.74 397.65 1448.41 396.237 1442.32 396.14C1442.54 396.509 1442.92 397.092 1443.08 397.528C1444.56 401.48 1444.72 412.1 1442.75 415.855C1441.72 417.824 1440.16 417.785 1438.21 418.229L1436.96 418.031C1431.36 412.987 1436.63 402.435 1433.03 396.174C1426.82 396.263 1419.4 397.055 1413.61 394.395C1411.96 393.638 1411.33 393.087 1410.69 391.451C1411.1 390.897 1411.24 390.647 1411.69 390.196C1416.19 385.702 1427.7 386.878 1433.48 386.91C1435.51 383.691 1434.43 377.565 1434.36 373.885C1434.27 369.705 1434.13 367.36 1437.13 364.212Z"/>
	<path fill="#0F172A" d="M106.373 587.833C108.351 588.118 109.416 588.423 111.034 589.617C114.364 594.893 112.55 605.245 112.412 611.372C116.839 611.263 121.58 610.881 125.979 611.332C129.491 611.691 133.091 612.693 135.405 615.49C135.311 616.149 135.402 616.651 134.915 617.136C129.708 622.317 119.195 621.002 112.529 620.872C112.524 627.886 114.503 637.819 109.634 643.371C107.8 643.232 106.684 642.909 105.11 641.953C101.442 637.213 103.298 626.825 103.367 620.956C98.5095 620.577 93.5595 620.873 88.6872 620.723C85.4891 620.624 84.2836 620.275 82.1173 617.965C81.6968 615.998 81.7398 615.609 82.3707 613.694C86.7135 609.552 97.1536 611.163 102.903 611.293C103.065 607.128 102.659 602.981 102.694 598.817C102.733 594.021 102.823 591.345 106.373 587.833Z"/>
	<path fill="#0F172A" d="M1288.1 486.491C1289.61 486.289 1290.75 486.318 1292.25 486.511C1293.91 487.678 1294.47 488.557 1295.04 490.504C1296.42 495.16 1296.53 505.638 1294.23 509.922C1300.21 510.097 1306.54 509.137 1312.44 509.99C1315.3 510.403 1316.74 511.001 1318.4 513.251C1318.28 515.052 1318.2 515.964 1316.86 517.278C1313.08 520.984 1299.66 519.242 1294.39 519.23C1294.55 519.527 1294.86 520.033 1294.98 520.386C1296.22 524.071 1296.14 535.732 1294.48 539.312C1293.69 541.007 1292.5 541.015 1290.88 541.569C1290.4 541.612 1290.25 541.656 1289.71 541.529C1282.2 539.762 1287.97 524.628 1284.88 519.26C1279.42 519.209 1270.08 520.548 1265.29 518.473C1263.5 517.698 1263.25 516.835 1262.72 515.081C1263.03 513.724 1263.29 512.804 1264.33 511.818C1267.94 508.39 1279.88 510.013 1284.94 510.036C1289.07 503.683 1283.19 493.377 1288.1 486.491Z"/>
	<path fill="#0F172A" d="M845.793 110.837C847.967 111.112 849.372 111.372 851.135 112.722C854.765 117.825 852.93 128.035 853.068 134.281C860.999 134.166 870.19 133.115 877.1 137.777L877.278 140.114C870.748 145.271 860.663 144.13 852.834 144.111C852.929 150.034 854.142 158.678 851.194 163.973C850.05 164.206 848.636 164.576 847.459 164.533C846.633 164.503 845.402 164.032 844.839 163.452C841.264 159.766 842.894 149.199 842.955 144.169C838.844 144.204 834.653 144.343 830.551 144.095C826.813 143.87 822.438 142.676 819.899 139.802C819.94 138.684 819.694 138.364 820.531 137.522C825.18 132.845 836.626 134.25 842.567 134.38C842.651 127.119 840.709 116.557 845.793 110.837Z"/>
	<path fill="#0F172A" d="M1055.94 82.8894C1061.97 81.9045 1067.45 81.8862 1072.9 84.9529C1077.79 87.705 1081.23 92.5113 1082.63 97.9039C1083.99 103.165 1083.37 108.999 1080.55 113.688C1077.47 118.801 1072.3 121.77 1066.64 123.201C1066.52 123.283 1066.4 123.388 1066.26 123.446C1063.52 124.581 1058.83 124.105 1056.07 123.208C1050.8 121.495 1046.32 117.266 1043.83 112.37Q1043.59 111.898 1043.37 111.414Q1043.16 110.93 1042.97 110.436Q1042.77 109.942 1042.61 109.439Q1042.44 108.936 1042.3 108.425Q1042.16 107.914 1042.04 107.397Q1041.92 106.88 1041.83 106.357Q1041.74 105.835 1041.68 105.309Q1041.62 104.783 1041.58 104.254Q1041.54 103.726 1041.53 103.196Q1041.52 102.666 1041.53 102.136Q1041.55 101.606 1041.59 101.078Q1041.63 100.549 1041.7 100.024Q1041.77 99.4982 1041.86 98.9766Q1041.96 98.455 1042.08 97.9388Q1042.2 97.4225 1042.34 96.9129Q1042.49 96.4033 1042.66 95.9016C1045.02 89.0793 1049.75 85.9762 1055.94 82.8894Z"/>
	<path fill="white" d="M1057.76 91.1356C1061.35 90.567 1064.42 90.4623 1067.76 92.2247C1070.69 93.7704 1073.03 96.6392 1073.99 99.8086Q1074.18 100.418 1074.3 101.045Q1074.43 101.671 1074.48 102.308Q1074.54 102.944 1074.52 103.582Q1074.51 104.221 1074.43 104.854Q1074.35 105.488 1074.2 106.109Q1074.05 106.729 1073.83 107.331Q1073.62 107.932 1073.34 108.506Q1073.06 109.081 1072.72 109.622C1070.65 112.879 1068.02 114.264 1064.42 115.1C1063.36 115.648 1062.24 115.456 1061.1 115.359C1057.91 115.087 1055.22 114.136 1053.2 111.541C1050.91 108.595 1050.17 104.615 1050.75 100.958C1051.48 96.2447 1054.23 93.8721 1057.76 91.1356Z"/>
	<path fill="#0F172A" d="M1400.49 557.01C1407.17 555.968 1413.34 555.767 1419.28 559.436Q1419.72 559.713 1420.15 560.013Q1420.58 560.312 1420.99 560.632Q1421.4 560.952 1421.8 561.293Q1422.19 561.633 1422.57 561.993Q1422.95 562.353 1423.31 562.731Q1423.67 563.109 1424.01 563.505Q1424.35 563.901 1424.67 564.313Q1424.99 564.725 1425.29 565.153Q1425.59 565.58 1425.87 566.023Q1426.14 566.465 1426.4 566.92Q1426.65 567.376 1426.89 567.844Q1427.12 568.311 1427.33 568.79Q1427.53 569.269 1427.72 569.757Q1427.9 570.245 1428.06 570.743Q1428.22 571.24 1428.36 571.744Q1428.49 572.248 1428.6 572.759C1429.77 578.12 1428.96 584.088 1425.93 588.721C1422.77 593.56 1417.92 596.32 1412.38 597.521C1408.75 598.783 1404.39 598.436 1400.71 597.448C1396.08 596.205 1392.29 592.982 1389.93 588.852Q1389.66 588.369 1389.41 587.873Q1389.16 587.377 1388.93 586.869Q1388.71 586.361 1388.51 585.843Q1388.31 585.325 1388.14 584.798Q1387.96 584.271 1387.82 583.736Q1387.67 583.2 1387.55 582.659Q1387.43 582.117 1387.33 581.57Q1387.24 581.023 1387.17 580.472Q1387.11 579.921 1387.07 579.367Q1387.03 578.814 1387.01 578.259Q1387 577.704 1387.02 577.149Q1387.03 576.594 1387.07 576.041Q1387.11 575.487 1387.18 574.936Q1387.25 574.385 1387.35 573.839Q1387.45 573.292 1387.57 572.751Q1387.69 572.21 1387.84 571.675C1389.83 564.455 1394.19 560.556 1400.49 557.01Z"/>
	<path fill="white" d="M1404.22 563.762C1408.02 563.314 1411.36 563.83 1414.6 566.036Q1415.2 566.456 1415.76 566.933Q1416.32 567.41 1416.83 567.94Q1417.34 568.469 1417.79 569.046Q1418.25 569.623 1418.64 570.242Q1419.04 570.861 1419.37 571.515Q1419.71 572.17 1419.97 572.854Q1420.24 573.538 1420.44 574.245Q1420.64 574.953 1420.77 575.676C1421.34 578.992 1420.69 582.435 1418.71 585.176C1416.47 588.271 1413.77 589.492 1410.16 590.119C1408.31 590.378 1406.29 590.417 1404.46 590.008C1401.22 589.286 1398.29 587.877 1396.55 584.907C1394.57 581.523 1394.58 577.25 1395.54 573.55C1396.87 568.442 1399.98 566.301 1404.22 563.762Z"/>
	<path fill="#F99835" d="M1214.59 146.659C1222.78 145.712 1231.38 145.993 1239.3 148.402C1253.26 152.652 1265.7 162.19 1272.51 175.218C1275.04 180.061 1279.88 190.403 1278.21 195.728C1285.22 188.93 1290.57 181.884 1300.13 178.638C1310.01 175.288 1320.41 176.141 1329.68 180.896C1338.13 185.231 1345.54 193.17 1348.38 202.35C1349.56 206.18 1350.98 213.224 1349.08 216.85C1354.94 215.129 1360.42 212.681 1366.52 211.697C1376.65 210.063 1386.4 212.572 1394.66 218.648C1403.28 224.992 1409.53 235.443 1411.1 246.034C1411.73 250.262 1411.68 257.807 1409.12 261.26C1390.39 260.601 1371.55 261.066 1352.81 261.118L1221.11 260.886L1181.46 261.025C1173.37 261.054 1164.98 261.478 1156.94 260.604C1152.3 260.1 1148.79 257.727 1145.98 254.127C1143.78 251.309 1142.29 248.086 1142.86 244.426C1143.56 239.966 1147.16 234.6 1150.83 232.015C1151.66 231.435 1152.46 230.95 1153.12 230.178C1153.26 230.007 1153.4 229.831 1153.54 229.657C1160.06 229.417 1166.63 229.605 1173.15 229.625C1173.61 224.82 1167.44 217.443 1166.48 212.198C1163.82 197.595 1167.51 182.064 1175.88 169.895C1185.14 156.43 1198.94 149.664 1214.59 146.659Z"/>
	<path fill="#F99835" d="M123.145 367.235Q124.052 359.828 125.276 352.466Q126.499 345.104 128.037 337.802Q129.575 330.499 131.424 323.27Q133.273 316.04 135.43 308.896Q137.587 301.752 140.048 294.707Q142.509 287.662 145.27 280.729Q148.031 273.796 151.086 266.988Q154.141 260.179 157.485 253.508C198.882 171.969 274.236 112.595 360.519 84.4735Q364.994 83.0181 369.503 81.6734Q374.012 80.3287 378.553 79.0955Q383.094 77.8624 387.664 76.7415Q392.234 75.6206 396.83 74.6127Q401.426 73.6048 406.046 72.7105Q410.665 71.8162 415.306 71.036Q419.946 70.2558 424.604 69.5901Q429.262 68.9245 433.935 68.3739Q438.608 67.8233 443.293 67.388Q447.978 66.9527 452.673 66.6331Q457.367 66.3134 462.068 66.1095Q466.769 65.9056 471.474 65.8176Q476.178 65.7297 480.883 65.7577Q485.589 65.7857 490.292 65.9296Q494.995 66.0736 499.693 66.3334Q504.391 66.5932 509.082 66.9687Q513.772 67.3443 518.452 67.8353Q523.131 68.3263 527.797 68.9324Q532.464 69.5386 537.113 70.2596Q541.763 70.9806 546.394 71.816Q551.024 72.6514 555.633 73.6006Q560.242 74.5499 564.826 75.6124Q569.409 76.6749 573.966 77.8501Q578.522 79.0253 583.048 80.3124Q587.574 81.5995 592.067 82.9978Q596.56 84.396 601.017 85.9046Q605.474 87.4131 609.892 89.0311Q614.311 90.6491 618.688 92.3754Q623.066 94.1018 627.399 95.9355Q631.733 97.7692 636.02 99.7092Q640.307 101.649 644.545 103.694Q648.783 105.739 652.969 107.888Q657.27 110.042 661.509 112.315Q665.748 114.587 669.922 116.978Q674.096 119.368 678.202 121.874Q682.308 124.381 686.342 127.001Q690.376 129.62 694.335 132.352Q698.294 135.083 702.176 137.925Q706.057 140.766 709.858 143.714Q713.659 146.663 717.375 149.716Q721.092 152.77 724.722 155.926Q728.352 159.082 731.893 162.338Q735.434 165.595 738.882 168.949Q742.33 172.303 745.683 175.752Q749.036 179.201 752.292 182.742Q755.548 186.283 758.703 189.914Q761.859 193.545 764.911 197.263Q767.964 200.98 770.912 204.782C779.673 215.851 787.846 226.749 795.008 238.946C800.885 248.954 806.926 258.955 810.528 270.044C794.607 283.369 778.825 299.071 768.49 317.256C741.219 271.297 692.387 240.865 641.344 227.857C581.599 212.63 518.192 224.218 465.65 255.491C410.47 288.334 368.043 344.174 352.38 406.59C334.895 476.268 349.294 547.206 385.876 608.185C411.866 651.505 443.168 678.594 480.887 710.594Q507.849 733.115 534.45 756.062C483.375 760.574 433.304 757.536 383.288 745.854C369.354 742.599 355.547 738.409 341.767 734.543C341.871 720.274 343.811 693.008 340.847 679.862Q340.675 679.097 340.465 678.341Q340.256 677.586 340.008 676.842Q339.761 676.098 339.477 675.367Q339.193 674.636 338.872 673.92Q338.552 673.204 338.196 672.506Q337.841 671.807 337.451 671.127Q337.061 670.446 336.637 669.787Q336.213 669.127 335.757 668.489Q335.301 667.851 334.814 667.237Q334.327 666.623 333.809 666.034Q333.292 665.444 332.746 664.882Q332.2 664.319 331.626 663.785Q331.052 663.25 330.453 662.745Q329.853 662.24 329.229 661.765Q328.605 661.291 327.958 660.848Q327.311 660.405 326.643 659.995C317.322 654.204 275.655 655.033 264.144 657.8C255.155 659.961 249.841 665.426 245.095 673.151C185.104 616.29 151.004 561.936 127.093 483.134C110.089 487.158 94.7371 487.866 78.0818 481.32C62.046 475.017 48.2359 461.076 41.4281 445.32Q40.7971 443.866 40.2392 442.382Q39.6812 440.898 39.1977 439.388Q38.7141 437.879 38.3062 436.347Q37.8983 434.815 37.567 433.265Q37.2357 431.715 36.9818 430.15Q36.7279 428.585 36.5521 427.01Q36.3763 425.434 36.279 423.852Q36.1817 422.269 36.1631 420.684Q36.1445 419.099 36.2047 417.515Q36.2649 415.931 36.4037 414.352Q36.5426 412.773 36.7597 411.202Q36.9768 409.632 37.2717 408.074Q37.5666 406.517 37.9385 404.976Q38.3104 403.435 38.7584 401.914Q39.2065 400.393 39.7295 398.897Q40.2525 397.401 40.8492 395.932Q41.3815 394.589 41.9801 393.274Q42.5788 391.96 43.2423 390.676Q43.9059 389.393 44.6326 388.145Q45.3594 386.896 46.1476 385.686Q46.9358 384.475 47.7834 383.306Q48.631 382.136 49.536 381.01Q50.441 379.884 51.401 378.805Q52.3611 377.725 53.3738 376.695Q54.3865 375.665 55.4494 374.687Q56.5123 373.709 57.6227 372.785Q58.7331 371.862 59.8882 370.994Q61.0433 370.127 62.2403 369.319Q63.4372 368.51 64.6731 367.763Q65.9089 367.015 67.1805 366.33Q68.4522 365.645 69.7564 365.024Q71.0606 364.404 72.3942 363.849C89.7812 356.711 106.532 360.191 123.145 367.235Z"/>
	<path fill="#0F172A" d="M279.525 277.57C282.13 277.531 284.625 278.048 287.008 279.1C291.415 281.045 294.864 284.261 296.476 288.875Q296.735 289.612 296.919 290.371Q297.104 291.13 297.214 291.903Q297.323 292.677 297.356 293.457Q297.389 294.237 297.345 295.017Q297.301 295.797 297.181 296.569Q297.061 297.341 296.865 298.097Q296.669 298.853 296.401 299.586Q296.132 300.32 295.792 301.023C293.203 306.457 289.241 308.358 283.799 310.233C280.495 310.315 277.377 310.066 274.331 308.654C270.619 306.932 267.824 303.52 266.572 299.662Q266.301 298.836 266.116 297.987Q265.93 297.138 265.832 296.275Q265.733 295.411 265.723 294.542Q265.712 293.673 265.79 292.808Q265.868 291.942 266.033 291.089Q266.198 290.235 266.448 289.403Q266.699 288.571 267.033 287.769Q267.367 286.966 267.78 286.202C270.426 281.294 274.37 279.173 279.525 277.57Z"/>
	<path fill="#F99835" d="M278.956 288.462C281.016 288.396 283.223 288.286 284.869 289.765C286.28 291.034 286.826 292.517 286.79 294.396C286.742 296.88 285.17 298.528 283.58 300.227C282.011 300.098 280.192 299.799 278.859 298.899C277.305 297.849 276.373 296.38 276.256 294.499C276.108 292.127 277.596 290.233 278.956 288.462Z"/>
	<path fill="#0F172A" d="M481.36 132.608C483.363 132.919 485.427 133.217 486.971 134.655C490.861 138.279 488.986 150.944 488.929 156.072C494.086 155.9 499.79 155.237 504.865 156.191C507.983 156.778 510.884 157.623 512.78 160.344C512.547 161.489 512.585 161.851 511.733 162.654C506.483 167.6 495.368 166.353 488.778 166.305C488.828 169.887 489.06 173.47 489.116 177.055C489.19 181.695 489.43 185.356 485.996 188.894C483.827 188.724 481.578 188.689 479.934 187.064C476.303 183.473 478.176 171.447 478.289 166.462C470.621 166.587 461.154 167.704 454.826 162.444L454.964 159.73C460.644 154.678 471.009 155.928 478.014 156.036C478.676 148.349 476.377 139.026 481.36 132.608Z"/>
	<path fill="#0F172A" d="M263.235 514.084C267.343 514.223 270.809 514.671 274.498 516.602Q274.951 516.839 275.392 517.098Q275.833 517.358 276.26 517.639Q276.687 517.921 277.099 518.224Q277.511 518.527 277.907 518.85Q278.303 519.174 278.682 519.517Q279.061 519.86 279.422 520.223Q279.783 520.585 280.125 520.965Q280.468 521.345 280.79 521.742Q281.112 522.139 281.414 522.552Q281.716 522.965 281.996 523.393Q282.277 523.821 282.535 524.262Q282.793 524.704 283.028 525.158Q283.264 525.612 283.476 526.078Q283.688 526.543 283.875 527.019Q284.063 527.494 284.227 527.979Q284.39 528.464 284.529 528.956Q284.68 529.474 284.805 529.998Q284.929 530.523 285.028 531.053Q285.126 531.583 285.198 532.117Q285.27 532.652 285.315 533.189Q285.36 533.726 285.378 534.265Q285.396 534.804 285.387 535.343Q285.379 535.882 285.343 536.42Q285.307 536.958 285.244 537.494Q285.182 538.029 285.093 538.561Q285.003 539.093 284.888 539.619Q284.772 540.146 284.63 540.666Q284.488 541.186 284.32 541.699Q284.152 542.211 283.959 542.714Q283.766 543.218 283.548 543.711Q283.33 544.204 283.088 544.686Q282.845 545.167 282.579 545.636C279.067 551.906 273.89 554.836 267.186 556.757C261.597 556.95 257.069 556.498 252.362 553.266Q251.932 552.968 251.518 552.649Q251.103 552.33 250.706 551.99Q250.308 551.65 249.927 551.291Q249.547 550.932 249.186 550.554Q248.824 550.176 248.482 549.78Q248.14 549.385 247.818 548.972Q247.496 548.56 247.195 548.132Q246.895 547.704 246.616 547.261Q246.337 546.818 246.081 546.362Q245.825 545.906 245.592 545.438Q245.359 544.969 245.15 544.49Q244.941 544.01 244.756 543.521Q244.571 543.031 244.412 542.533Q244.252 542.035 244.117 541.529Q243.983 541.024 243.874 540.512Q243.765 540 243.682 539.484C242.717 533.764 243.983 527.656 247.405 522.938C251.466 517.339 256.614 515.159 263.235 514.084Z"/>
	<path fill="#F99835" d="M261.858 522.196C263.792 522.206 265.924 522.151 267.792 522.722C271.427 523.834 274.618 526.755 276.109 530.237Q276.368 530.843 276.564 531.472Q276.76 532.102 276.893 532.747Q277.025 533.393 277.092 534.049Q277.158 534.704 277.159 535.363Q277.16 536.023 277.094 536.678Q277.029 537.334 276.898 537.98Q276.767 538.626 276.572 539.256Q276.376 539.885 276.119 540.492C274.284 544.837 271.209 546.736 267.121 548.494C264.931 548.543 262.535 548.554 260.447 547.847C257.026 546.689 254.128 544.263 252.567 540.985C251.063 537.824 251.101 534.189 252.362 530.957C254.151 526.374 257.6 524.096 261.858 522.196Z"/>
	<path fill="white" d="M208.196 386.521C213.736 386.036 219.876 387.026 225.027 389.089Q225.849 389.425 226.654 389.802Q227.459 390.179 228.244 390.596Q229.029 391.013 229.792 391.468Q230.556 391.923 231.296 392.415Q232.035 392.908 232.75 393.436Q233.464 393.965 234.151 394.529Q234.838 395.092 235.497 395.689Q236.155 396.286 236.783 396.916Q237.411 397.545 238.006 398.204Q238.602 398.864 239.164 399.552Q239.727 400.24 240.254 400.956Q240.781 401.671 241.272 402.412Q241.764 403.153 242.217 403.917Q242.671 404.681 243.086 405.467Q243.501 406.253 243.876 407.059Q244.252 407.865 244.587 408.688C249.044 419.395 247.905 429.33 243.604 439.795C248.506 439.681 255.998 438.972 259.858 442.59C261.937 444.539 263.321 447.808 263.354 450.649C263.378 452.706 262.614 454.497 261.112 455.899C258.8 458.059 255.151 458.906 252.069 459.166C239.642 460.217 226.539 458.519 214.034 458.499L113.438 458.628Q98.0804 458.653 82.7292 459.101C81.662 450.572 81.8438 442.822 87.015 435.529Q87.3339 435.073 87.6752 434.633Q88.0166 434.193 88.3794 433.771Q88.7422 433.349 89.1256 432.945Q89.5091 432.542 89.9122 432.158Q90.3152 431.774 90.737 431.411Q91.1587 431.047 91.5981 430.706Q92.0374 430.364 92.4932 430.044Q92.9491 429.725 93.4203 429.429Q93.8915 429.132 94.3769 428.86Q94.8623 428.588 95.3607 428.34Q95.8591 428.092 96.3692 427.869Q96.8793 427.647 97.4 427.45Q97.9206 427.253 98.4503 427.082Q98.9801 426.912 99.5178 426.768Q100.055 426.624 100.6 426.507Q101.144 426.39 101.693 426.3C110.439 424.854 117.483 428.406 124.358 433.38C122.536 426.444 121.995 419.464 125.367 412.882C128.331 407.096 133.675 402.981 139.868 401.134Q140.489 400.945 141.119 400.787Q141.749 400.629 142.386 400.504Q143.024 400.379 143.666 400.286Q144.309 400.193 144.956 400.133Q145.602 400.072 146.251 400.045Q146.9 400.018 147.549 400.023Q148.199 400.029 148.847 400.068Q149.495 400.106 150.141 400.177Q150.786 400.249 151.427 400.353Q152.068 400.457 152.703 400.593Q153.338 400.73 153.965 400.898Q154.592 401.067 155.21 401.267Q155.828 401.467 156.435 401.698Q157.042 401.929 157.636 402.191Q158.23 402.452 158.811 402.744Q159.391 403.035 159.956 403.356C167.931 407.88 171.026 414.614 173.401 423.095C174.657 415.552 176.488 408.711 180.926 402.351C187.795 392.506 196.744 388.587 208.196 386.521Z"/>
	<path fill="#0F172A" d="M534.45 756.062Q507.849 733.115 480.887 710.594C443.168 678.594 411.866 651.505 385.876 608.185C349.294 547.206 334.895 476.268 352.38 406.59C368.043 344.174 410.47 288.334 465.65 255.491C518.192 224.218 581.599 212.63 641.344 227.857C692.387 240.865 741.219 271.297 768.49 317.256C778.825 299.071 794.607 283.369 810.528 270.044C857.565 231.952 915.254 217.397 975.019 223.626Q978.021 223.966 981.013 224.38Q984.006 224.794 986.987 225.281Q989.969 225.769 992.938 226.329Q995.906 226.889 998.86 227.522Q1001.81 228.155 1004.75 228.86Q1007.69 229.565 1010.61 230.342Q1013.53 231.119 1016.43 231.967Q1019.33 232.816 1022.21 233.735Q1025.08 234.654 1027.94 235.644Q1030.79 236.633 1033.62 237.693Q1036.45 238.752 1039.25 239.88Q1042.06 241.009 1044.83 242.206Q1047.6 243.402 1050.35 244.667Q1053.09 245.931 1055.8 247.263Q1058.52 248.594 1061.19 249.992Q1063.87 251.389 1066.52 252.852Q1069.16 254.315 1071.77 255.842Q1074.37 257.37 1076.94 258.96Q1079.51 260.551 1082.04 262.204Q1084.57 263.858 1087.05 265.573Q1089.54 267.287 1091.99 269.063Q1094.43 270.838 1096.83 272.673Q1099.23 274.508 1101.59 276.401Q1103.94 278.294 1106.25 280.244Q1108.56 282.194 1110.82 284.201Q1113.07 286.207 1115.28 288.268Q1117.49 290.329 1119.65 292.444Q1121.81 294.559 1123.91 296.726Q1126.02 298.893 1128.07 301.111Q1130.12 303.329 1132.12 305.596Q1134.12 307.864 1136.06 310.18Q1138 312.496 1139.88 314.859Q1141.74 317.174 1143.54 319.535Q1145.35 321.895 1147.09 324.299Q1148.84 326.703 1150.52 329.149Q1152.21 331.595 1153.83 334.081Q1155.46 336.568 1157.02 339.093Q1158.59 341.619 1160.09 344.183Q1161.59 346.746 1163.03 349.345Q1164.47 351.945 1165.84 354.579Q1167.21 357.213 1168.52 359.879Q1169.83 362.546 1171.07 365.244Q1172.32 367.943 1173.49 370.671Q1174.67 373.398 1175.78 376.154Q1176.89 378.91 1177.93 381.693Q1178.97 384.475 1179.94 387.282Q1180.91 390.089 1181.82 392.919Q1182.72 395.749 1183.55 398.6Q1184.39 401.452 1185.15 404.323Q1185.91 407.194 1186.61 410.082Q1187.3 412.971 1187.92 415.876Q1188.54 418.781 1189.09 421.7Q1189.64 424.62 1190.12 427.552Q1190.6 430.484 1191.01 433.427Q1191.41 436.369 1191.75 439.321Q1192.08 442.273 1192.34 445.233Q1192.6 448.192 1192.79 451.157Q1192.98 454.121 1193.1 457.09Q1193.21 460.058 1193.26 463.029Q1193.3 465.999 1193.27 468.97Q1193.24 471.94 1193.14 474.91Q1193.04 477.879 1192.86 480.844Q1192.69 483.81 1192.44 486.77Q1192.19 489.731 1191.87 492.684C1185.77 549.988 1160.09 604.544 1123.96 648.934C1101.46 676.565 1071.54 698.501 1044.54 721.487L874.907 863.354C855.077 879.874 835.127 896.114 815.584 912.983C808.861 918.786 801.572 924.093 795.294 930.374C819.901 930.709 844.503 930.333 869.11 930.387L1055.2 930.707C1055.27 930.537 1055.34 930.369 1055.4 930.197C1057.48 924.355 1056.41 915.411 1056.38 909.132L1056.05 855.707C1055.99 843.589 1054.14 827.884 1057.61 816.27C1059.36 810.401 1062.97 805.196 1068.5 802.36C1078.83 797.072 1095.36 799.845 1106.71 799.609C1106.78 799.468 1106.86 799.329 1106.93 799.184C1108.82 795.065 1108.11 788.058 1108.09 783.537C1108.02 768.046 1105.49 727.601 1110.07 715.928C1111.82 711.469 1115.94 707.418 1120.34 705.569C1125.74 703.303 1187.55 703.465 1198.63 704.142C1202.5 704.378 1207.91 704.815 1211.39 706.634C1216.37 709.236 1220.22 715.075 1221.62 720.399C1223.12 726.133 1223.87 753.381 1221.39 758.149Q1239 758.11 1256.6 758.336C1256.67 758.176 1256.75 758.02 1256.82 757.858C1259.52 751.446 1258.15 739.976 1258.13 732.935C1258.09 719.047 1256.58 646.313 1260.21 637.065C1261.88 632.805 1266.61 628.384 1270.75 626.517C1278.78 622.901 1331.75 622.543 1340.16 625.976C1344.64 627.804 1348.78 631.951 1350.67 636.4C1351.94 639.389 1352.44 642.6 1352.63 645.822C1353.48 660.057 1353.34 780.301 1351.83 784.152C1351.64 784.633 1351.48 784.817 1351.19 785.278C1366.11 785.015 1394.44 783.041 1408.01 785.891C1412.83 786.904 1417.36 788.863 1420.96 792.278C1427.48 798.448 1428.95 805.413 1429.06 814.068C1429.37 837.857 1428.87 861.699 1428.9 885.496C1428.93 898.953 1429.96 912.993 1429.12 926.387C1429.03 927.919 1428.66 928.927 1427.9 930.248C1436.38 930.242 1453.48 928.21 1460.02 934.738C1462.31 937.02 1463.89 940.453 1463.79 943.719C1463.67 947.365 1461.64 950.947 1458.87 953.247C1453.4 957.797 1444.98 956.667 1438.32 956.632L485.413 956.53L216.328 956.586L130.016 956.696C116.36 956.691 101.375 957.882 87.8509 956.153C84.0308 955.665 79.7952 955.193 77.3858 951.893Q77.0041 951.368 76.6774 950.806Q76.3507 950.245 76.0824 949.653Q75.8141 949.062 75.607 948.446Q75.3999 947.831 75.2561 947.197Q75.1123 946.564 75.0332 945.919Q74.9541 945.274 74.9406 944.625Q74.9271 943.976 74.9793 943.328Q75.0315 942.681 75.1489 942.042C75.8126 938.269 78.1128 934.728 81.4152 932.751C87.6873 928.996 128.138 930.867 138.16 930.895L138.097 846.628C138.087 833.475 136.343 815.936 139.137 803.321C140.122 798.873 142.733 794.967 145.943 791.799C149.161 788.623 153.203 785.99 157.642 784.958C167.883 782.577 180.792 783.984 191.346 784.058Q216.99 784.346 242.635 784.127C242.775 763.134 242.988 742.125 242.842 721.132C242.756 708.81 241.763 696.13 242.591 683.852C242.842 680.143 243.49 676.527 245.095 673.151C249.841 665.426 255.155 659.961 264.144 657.8C275.655 655.033 317.322 654.204 326.643 659.995Q327.311 660.405 327.958 660.848Q328.605 661.291 329.229 661.765Q329.853 662.24 330.453 662.745Q331.052 663.25 331.626 663.785Q332.2 664.319 332.746 664.882Q333.292 665.444 333.809 666.034Q334.327 666.623 334.814 667.237Q335.301 667.851 335.757 668.489Q336.213 669.127 336.637 669.787Q337.061 670.447 337.451 671.127Q337.841 671.807 338.196 672.506Q338.552 673.204 338.872 673.92Q339.193 674.636 339.477 675.367Q339.761 676.098 340.008 676.842Q340.256 677.586 340.465 678.341Q340.675 679.097 340.847 679.862C343.811 693.008 341.871 720.274 341.767 734.543C355.547 738.409 369.354 742.599 383.288 745.854C433.304 757.536 483.375 760.574 534.45 756.062Z"/>
	<path fill="white" d="M1080.87 575.76C1082.96 575.256 1085.5 574.873 1087.58 575.539C1090.04 576.325 1092.21 578.483 1093.23 580.827C1094.02 582.647 1093.97 584.614 1093.13 586.409C1091.97 588.875 1090.11 589.716 1087.64 590.507C1086.61 591.167 1085.36 591.307 1084.14 591.436C1082.94 591.562 1081.5 591.51 1080.53 590.683C1078.25 588.727 1077.55 586.208 1077.39 583.276C1077.21 579.842 1078.78 578.216 1080.87 575.76Z"/>
	<path fill="white" d="M941.271 340.65C942.485 340.855 943.844 341.035 945.01 341.454C947.255 342.261 948.975 344.041 949.89 346.227C950.875 348.583 950.925 350.971 949.904 353.324C948.594 356.342 946.581 357.684 943.576 358.745C943.248 358.665 942.919 358.59 942.592 358.505C939.554 357.709 936.951 356.294 935.401 353.453C934.227 351.301 933.934 348.973 934.782 346.65C935.982 343.359 938.304 342.028 941.271 340.65Z"/>
	<path fill="white" d="M766.517 636.824C767.483 636.93 768.459 637.048 769.401 637.289C772.057 637.968 774.377 639.489 775.754 641.899Q775.942 642.224 776.097 642.566Q776.251 642.908 776.37 643.264Q776.489 643.62 776.572 643.986Q776.655 644.352 776.7 644.724Q776.745 645.097 776.753 645.472Q776.76 645.847 776.73 646.221Q776.699 646.596 776.631 646.965Q776.563 647.334 776.458 647.694C775.534 650.883 773.219 652.331 770.513 653.825C769.09 653.783 767.478 653.813 766.087 653.503C763.857 653.004 761.852 651.419 760.703 649.458C759.667 647.693 759.428 645.64 759.969 643.672C760.991 639.956 763.336 638.475 766.517 636.824Z"/>
	<path fill="white" d="M841.734 508.483C844.848 508.523 847.756 509.152 849.906 511.606C851.507 513.432 851.987 515.704 851.605 518.063C850.95 522.117 848.705 523.747 845.573 525.938C844.485 526.018 843.34 526.113 842.254 525.977C840.017 525.698 837.756 524.167 836.548 522.285C835.258 520.277 835.179 517.74 835.684 515.469C836.503 511.787 838.783 510.381 841.734 508.483Z"/>
	<path fill="white" d="M1009.02 506.349C1009.82 506.521 1010.62 506.715 1011.39 506.987C1014.08 507.93 1016.2 509.665 1017.3 512.348C1018.26 514.697 1018.07 517.034 1016.99 519.308C1015.6 522.234 1013.49 523.124 1010.67 524.243C1009.39 523.956 1007.97 523.689 1006.76 523.173C1004.43 522.181 1002.57 520.392 1001.65 518.012C1000.8 515.796 1000.99 513.5 1002.13 511.427C1003.72 508.54 1006 507.337 1009.02 506.349Z"/>
	<path fill="white" d="M936.812 684.064C938.231 684.082 939.872 684.021 941.258 684.335C943.537 684.851 945.761 686.586 947.01 688.541C948.253 690.485 948.496 692.816 947.799 695.004C946.766 698.252 944.45 699.583 941.682 701.157C941.053 701.175 940.427 701.185 939.799 701.144C937.037 700.964 934.352 699.862 932.611 697.644C931.323 696.004 930.873 694.04 931.124 691.988C931.61 688.033 933.884 686.324 936.812 684.064Z"/>
	<path fill="white" d="M762.103 399.878C763.672 399.739 765.347 399.529 766.92 399.618C769.744 399.778 772.49 401.315 774.242 403.522C775.564 405.189 776.024 406.993 775.614 409.085C774.966 412.384 772.816 413.988 770.291 415.859C769.28 416.051 768.253 416.244 767.224 416.307C764.894 416.45 762.823 415.84 761.105 414.229C759.29 412.527 758.317 410.386 758.364 407.886C758.427 404.544 759.783 402.165 762.103 399.878Z"/>
	<path fill="white" d="M524.203 506.405C525.949 506.331 527.952 506.14 529.661 506.544C531.885 507.071 533.844 508.801 534.905 510.787C535.979 512.801 536.038 514.885 535.394 517.048C534.375 520.471 532.34 521.875 529.452 523.578C528.746 523.61 528.04 523.636 527.334 523.607C524.723 523.501 522.046 522.322 520.346 520.307C518.947 518.648 518.371 516.736 518.574 514.581C518.95 510.592 521.256 508.661 524.203 506.405Z"/>
	<path fill="white" d="M691.383 507.868C692.404 507.917 693.442 507.98 694.443 508.196C697.042 508.758 699.38 510.11 700.777 512.421C702.057 514.539 702.222 516.888 701.484 519.227C700.397 522.675 698.058 524.018 695.096 525.63C693.822 525.562 692.542 525.492 691.278 525.309C689.028 524.983 687.019 523.505 685.762 521.634C684.428 519.648 684.168 517.243 684.812 514.968C685.881 511.189 688.22 509.731 691.383 507.868Z"/>
	<path fill="white" d="M1086.45 407.722C1088.07 407.689 1089.95 407.978 1091.47 408.582C1093.67 409.456 1095.57 411.45 1096.42 413.643C1097.3 415.902 1097.21 418.262 1096.05 420.404C1094.51 423.257 1092.2 424.168 1089.25 425C1087.56 425.363 1085.37 425.108 1083.79 424.405C1081.99 423.61 1080.59 421.938 1079.92 420.116C1079.07 417.842 1079.27 415.063 1080.27 412.871C1081.56 410.038 1083.6 408.719 1086.45 407.722Z"/>
	<path fill="white" d="M450.004 573.08C451.377 573.202 452.841 573.311 454.159 573.73C456.478 574.468 458.7 576.505 459.745 578.684C460.79 580.865 460.9 583.2 460.04 585.462C458.83 588.643 456.542 589.795 453.683 591.186C452.431 591.185 451.109 591.105 449.88 590.849C447.484 590.35 445.177 588.723 443.944 586.6C442.756 584.555 442.592 582.16 443.281 579.923C444.405 576.269 446.886 574.82 450.004 573.08Z"/>
	<path fill="white" d="M590.147 342.068C591.529 341.966 593.02 341.804 594.402 341.923Q594.854 341.965 595.299 342.053Q595.745 342.141 596.179 342.274Q596.613 342.407 597.031 342.583Q597.45 342.76 597.848 342.978Q598.246 343.196 598.62 343.454Q598.994 343.712 599.34 344.006Q599.685 344.3 599.999 344.628Q600.313 344.957 600.592 345.315C601.891 346.975 602.376 349.027 602.135 351.105C601.664 355.174 599.319 357.157 596.287 359.462C595.464 359.505 594.642 359.542 593.817 359.531C590.965 359.492 588.214 358.553 586.262 356.387C584.815 354.781 584.18 352.842 584.35 350.694C584.676 346.571 587.179 344.486 590.147 342.068Z"/>
	<path fill="white" d="M595.627 682.547C599.349 683.115 602.544 683.776 604.794 687.17C606.138 689.199 606.57 691.589 605.987 693.949C605.022 697.857 602.57 699.498 599.321 701.369C595.891 701.054 592.951 700.703 590.512 697.938C588.876 696.084 588.316 693.776 588.681 691.349C589.347 686.918 592.193 684.86 595.627 682.547Z"/>
	<path fill="white" d="M443.366 408.886C444.563 408.718 445.75 408.663 446.96 408.703C449.94 408.8 452.649 409.932 454.583 412.264C456.033 414.012 456.568 416.306 456.246 418.534C455.709 422.262 453.268 424.409 450.477 426.565C448.841 426.778 446.831 426.841 445.193 426.512C442.424 425.954 439.777 424.479 438.239 422.052C437.083 420.228 436.766 418.007 437.251 415.913C438.078 412.335 440.504 410.754 443.366 408.886Z"/>
	<path fill="white" d="M1073.22 440.715C1073.52 440.645 1073.8 440.563 1074.1 440.504C1076.97 439.932 1079.82 441.704 1082.12 443.198C1082.82 444.615 1083.13 445.892 1083.24 447.476C1084.64 467.551 1083.5 488.151 1083.54 508.297C1083.56 520.454 1085.13 546.084 1082.9 556.285C1082.87 556.296 1082.84 556.316 1082.81 556.319C1077.67 556.835 1073.66 558.634 1069.12 561.03C1065.46 555.214 1055.34 549.516 1049.62 545.391C1044.89 540.159 1037.88 535.092 1032.14 530.945C1032.69 530.247 1033.18 529.535 1033.66 528.793C1037.6 522.757 1038.2 514.532 1036.64 507.612C1035.52 502.663 1033.02 497.824 1028.67 495.02C1033.22 491.711 1072.27 444.723 1073.22 440.715Z"/>
	<path fill="white" d="M461.392 441.251C464.781 443.428 501.976 488.187 507.325 494.627C505.01 497.504 502.848 500.697 501.46 504.134C497.656 513.548 499.674 521.882 503.402 530.838C498.533 535.079 493.534 539.072 488.41 543C481.288 548.613 474.18 554.193 466.776 559.435C461.866 556.098 458.236 555.374 452.33 554.782L452.314 444.256C455.395 443.426 458.387 442.313 461.392 441.251Z"/>
	<path fill="white" d="M941.671 246.414C951.02 246.117 960.302 246.782 969.586 247.824C961.615 272.525 956.679 298.657 949.763 323.746C942.984 323.119 937.713 323.323 931.123 325.1C927.172 320.762 923.457 316.143 919.655 311.671C904.894 294.499 890.602 276.946 875.99 259.65C898.239 252.15 918.215 247.608 941.671 246.414Z"/>
	<path fill="white" d="M1076.11 813.567C1085.78 812.169 1096.82 813.222 1106.65 813.231C1107.41 814.546 1107.75 815.526 1107.84 817.055C1108.8 832.277 1107.97 848.148 1108 863.453C1108.05 885.608 1108.68 907.86 1108.13 930.003C1106.11 931.321 1102.44 930.742 1100.06 930.694L1068.7 930.862C1072.3 924.317 1068.37 840.868 1069.59 824.462C1070 818.937 1071.99 817.072 1076.11 813.567Z"/>
	<path fill="#0F172A" d="M1086.15 884.085C1087.65 883.82 1089.08 883.816 1090.59 883.817C1092.46 884.601 1093.36 885.389 1094.18 887.278C1096.34 892.196 1096.53 903.712 1094.13 908.387C1093.15 910.294 1091.82 910.557 1089.98 911.247C1089.08 911.324 1088.02 911.465 1087.13 911.298C1086.32 911.146 1085.11 910.573 1084.58 909.927C1081.45 906.083 1081.88 899.315 1082.27 894.639C1082.64 890.257 1082.52 887.144 1086.15 884.085Z"/>
	<path fill="#0F172A" d="M1085.6 833.071C1087.32 832.742 1089.29 832.434 1091.02 832.842C1092.26 833.133 1093.24 834.065 1093.9 835.111C1097.2 840.326 1096.42 853.306 1094.86 859.005C1094.24 861.262 1093.4 861.53 1091.49 862.538C1091.34 862.595 1091.19 862.665 1091.03 862.709C1088.86 863.313 1087.18 863.057 1085.28 861.895C1083.18 859.535 1082.74 856.577 1082.49 853.529C1082.03 847.89 1081.85 837.431 1085.6 833.071Z"/>
	<path fill="white" d="M573.507 246.505C603.733 243.481 632.591 249.892 661.007 259.535Q644.092 279.806 627.532 300.368C620.542 309.342 613.059 317.9 605.613 326.494C599.695 324.338 594.797 323.966 588.52 324.032Q577.114 285.685 566.339 247.155L573.507 246.505Z"/>
	<path fill="white" d="M437.834 307.443C440.157 310.364 438.852 380.858 438.781 391.051C433.761 393.129 428.797 396.204 425.187 400.309C419.733 406.51 418.398 414.214 418.997 422.229C403.478 427.806 388.217 434.376 372.911 440.523L371.644 440.158C371.439 439.337 371.263 438.671 371.288 437.816C371.562 428.583 374.451 418.079 376.948 409.2C388.05 369.732 408.729 336.146 437.834 307.443Z"/>
	<path fill="white" d="M982.186 249.537Q983.618 249.668 985.043 249.86C1004.51 252.471 1061.72 271.514 1073.5 286.804C1071.13 289.486 1032.27 306.023 1026.98 307.066C1024.7 309.902 970.226 333.029 964.794 333.918C963.418 333.22 962.856 332.126 962.046 330.871C961.326 329.756 961.9 327.719 962.196 326.435C968.144 300.668 976.541 275.427 982.186 249.537Z"/>
	<path fill="white" d="M1097.25 306.441C1097.93 306.568 1097.95 306.535 1098.69 306.889C1103.45 309.162 1109.54 316.991 1113.01 320.989Q1115.29 323.579 1117.49 326.238Q1119.69 328.897 1121.81 331.622Q1123.93 334.346 1125.96 337.134Q1128 339.922 1129.94 342.771Q1131.89 345.619 1133.75 348.526Q1135.61 351.432 1137.39 354.394Q1139.16 357.356 1140.84 360.371Q1142.52 363.385 1144.1 366.45Q1145.69 369.514 1147.19 372.626Q1148.68 375.737 1150.08 378.892Q1151.48 382.048 1152.78 385.245Q1154.08 388.441 1155.28 391.676Q1156.49 394.911 1157.59 398.181Q1158.69 401.45 1159.7 404.753Q1160.7 408.055 1161.61 411.386Q1162.51 414.717 1163.31 418.074C1164.56 423.214 1169.09 437.744 1166.35 442.239C1161.35 442.206 1122.39 424.207 1114.85 421.024C1115.95 414.87 1114.93 408.03 1111.84 402.564C1108.36 396.423 1103.73 393.327 1097.05 391.519C1098.68 381.986 1097.37 370.065 1097.39 360.303C1097.42 342.496 1098.36 324.193 1097.25 306.441Z"/>
	<path fill="white" d="M551.767 249.28L552.805 249.289C556.119 252.153 573.782 320.5 576.404 330.357L570.849 335.334C551.303 327.862 532.232 318.418 513.148 309.82Q487.637 298.139 461.843 287.099Q464.336 285.298 466.879 283.569Q469.422 281.84 472.013 280.183Q474.604 278.527 477.242 276.945Q479.879 275.363 482.56 273.857Q485.241 272.351 487.964 270.921Q490.687 269.492 493.449 268.141Q496.212 266.789 499.011 265.517Q501.811 264.245 504.646 263.052Q507.48 261.86 510.348 260.749Q513.215 259.638 516.113 258.609Q519.011 257.58 521.937 256.634Q524.863 255.687 527.814 254.825Q530.766 253.962 533.741 253.184Q536.716 252.405 539.712 251.712Q542.708 251.018 545.722 250.41Q548.737 249.802 551.767 249.28Z"/>
	<path fill="white" d="M341.926 833.473C357.69 833.497 373.757 832.782 389.469 833.91C390.998 834.896 392.705 835.899 393.998 837.188C395.619 838.805 396.277 840.67 396.586 842.892C397.862 852.053 396.905 862.42 396.91 871.703L396.966 930.797L342.045 930.795L341.926 833.473Z"/>
	<path fill="#0F172A" d="M370.394 855.108C371.851 855.526 372.769 856.085 373.983 856.983C376.257 862.159 372.107 871.908 370.678 877.305C374.409 877.317 379.598 876.768 383.034 878.182C384.935 878.965 386.416 879.589 387.169 881.535C386.798 882.174 386.798 882.27 386.154 882.837C382.082 886.418 373.7 885.334 368.661 885.2C365.965 894.109 364.916 906.279 359.733 914.049C359.166 914.008 358.588 913.969 358.028 913.869C356.755 913.641 355.409 912.912 354.7 911.826C351.684 907.208 358.772 890.672 360.209 885.098C357.296 885.219 352.91 885.888 350.202 884.626C348.33 883.754 347.743 883.239 346.96 881.377L347.755 879.786C352.374 876.291 356.297 877.082 361.708 877.359C363.374 871.349 365.215 858.549 370.394 855.108Z"/>
	<path fill="white" d="M1222.48 771.562C1233.7 770.823 1245.35 771.158 1256.59 771.576C1256.87 772.089 1257 772.261 1257.18 772.78C1258.46 776.474 1258.47 910.698 1258.04 925.77C1257.99 927.429 1257.88 928.601 1257.14 930.119L1254.97 930.728L1221.77 930.871C1222.61 929.587 1222.83 928.028 1222.87 926.515C1223.8 893.307 1223.25 859.81 1223.2 826.571C1223.18 810.603 1224.42 786.626 1222.48 771.562Z"/>
	<path fill="#0F172A" d="M1235.66 843.579C1237.29 843.276 1239.42 842.82 1241.05 843.056C1242.37 843.246 1243.5 843.931 1244.3 844.954C1247.67 849.24 1247.01 855.948 1246.3 860.97C1245.73 864.961 1245.53 866.831 1242.2 869.336C1242.02 869.456 1241.86 869.609 1241.66 869.698C1240.37 870.273 1238.53 870.043 1237.21 869.721C1235.99 868.702 1235.35 867.771 1234.86 866.244C1232.93 860.267 1232.7 849.207 1235.66 843.579Z"/>
	<path fill="#0F172A" d="M1236.52 893.091C1238.16 892.738 1239.69 892.693 1241.37 892.671C1242.89 893.322 1244.04 893.946 1244.82 895.481C1247.47 900.724 1247.43 912.032 1245.38 917.389C1244.62 919.355 1243.28 919.517 1241.5 920.14C1239.79 920.535 1238.8 920.223 1237.15 919.682C1235.03 917.864 1234.55 916.083 1234.09 913.393C1233.09 907.463 1233.05 898.079 1236.52 893.091Z"/>
	<path fill="#0F172A" d="M1236.61 792.566C1237.95 792.356 1239.37 792.113 1240.73 792.299C1242.25 792.506 1243.58 793.417 1244.41 794.696C1247.68 799.757 1247.44 811.766 1245.45 817.259C1244.69 819.368 1243.38 819.621 1241.5 820.464C1241.09 820.723 1241.1 820.741 1240.56 820.922C1238.86 821.483 1237.75 821.069 1236.22 820.33C1234.02 817.95 1233.72 814.967 1233.49 811.866C1233.06 806.055 1232.69 797.094 1236.61 792.566Z"/>
	<path fill="white" d="M1021.55 540.335C1031.07 544.717 1051.27 562.937 1059.98 570.575C1060.5 572.442 1058.27 576.886 1058.02 579.115C1057.47 583.989 1060.24 589.704 1059.39 594.071C1054.01 600.294 1043.41 606.752 1036.62 611.824L980.652 653.271C972.584 659.508 964.473 665.968 955.536 670.922C963.072 649.928 971.587 629.218 979.358 608.297C987.509 586.349 995.032 563.885 1004.25 542.37C1010.39 542.53 1015.64 542.124 1021.55 540.335Z"/>
	<path fill="white" d="M513.816 539.947C521.27 540.517 521.743 543.384 531.901 542.465C539.246 558.612 544.923 575.677 551.214 592.256L580.964 670.16C572.503 665.296 564.679 659.484 556.817 653.729C548.478 647.244 539.619 641.384 531.027 635.238Q503.921 615.571 476.451 596.417C479.725 585.951 479.918 580.013 476.159 569.627C487.919 559.109 500.797 548.857 513.816 539.947Z"/>
	<path fill="white" d="M962.553 367.953C987.251 378.632 1011.97 389.16 1036.53 400.164C1043.12 403.118 1055.21 407.149 1060.4 411.556C1062 414.177 1061.76 420.307 1062.54 423.553C1063.13 426.016 1064.54 428.118 1064.66 430.674C1061.58 438.514 1044.23 456.928 1037.85 464.553Q1027.56 476.443 1017.63 488.636C1013.35 487.167 1009.53 487.121 1005.08 487.489C1001.04 478.951 998.182 469.559 994.805 460.713Q985.052 435.878 975.79 410.857C971.685 399.763 964.6 384.193 962.107 373.229C961.66 371.265 961.902 369.832 962.553 367.953Z"/>
	<path fill="white" d="M571.054 367.68L574.151 370.568C575.777 377.049 536.923 474.727 532.182 486.884C527.741 487.269 523.427 488.006 519.047 488.797C513.013 480.479 505.758 472.864 498.961 465.161L471.094 432.459C474.01 424.742 475.005 420.008 473.821 411.707C491.572 403.168 509.921 395.766 527.875 387.655C542.335 381.123 556.411 373.818 571.054 367.68Z"/>
	<path fill="white" d="M1082.9 296.692L1083.3 296.688C1083.65 297.191 1084.14 297.619 1084.34 298.197C1085.49 301.592 1085.11 381.589 1084 389.405C1082.23 390.467 1080.08 390.628 1078.2 391.552C1073.68 393.775 1069.96 396.831 1065.86 399.677C1062.64 396.511 1007 372.808 998.557 369.094C988.498 364.517 978.275 360.312 968.273 355.605C968.622 352.836 968.808 350.023 969.064 347.243C996.454 334.506 1024.55 322.96 1052.21 310.785C1061.11 306.867 1075.28 302.153 1082.9 296.692Z"/>
	<path fill="white" d="M450.849 296.574C462.232 299.227 478.291 307.969 489.562 313.005Q513.093 323.473 536.471 334.277C546.193 338.743 556.394 342.882 565.493 348.52C566.486 350.497 566.198 352.396 566.087 354.537C562.538 358.737 542.703 366.368 536.754 369.085C514.481 380.028 490.926 390.965 467.711 399.758C462.296 394.539 458.45 392.458 450.971 391.12L450.849 296.574Z"/>
	<path fill="white" d="M1352 800.069C1361.66 798.8 1401.17 798.167 1408.18 802.173C1410.99 803.78 1412.74 806.413 1413.53 809.493C1413.86 810.084 1413.97 810.175 1414.15 810.728C1415.28 814.171 1415.11 927.783 1414.11 929.96L1413.5 929.548L1413.22 930.602C1392.61 930.855 1371.99 930.234 1351.37 930.497C1352.36 928.95 1352.36 927.281 1352.41 925.489C1353.22 898.095 1352.42 870.46 1352.44 843.032C1352.45 831.861 1353.85 809.898 1352 800.069Z"/>
	<path fill="#0F172A" d="M1365.77 879.589C1367.63 879.278 1369.95 878.91 1371.78 879.457C1373.71 880.032 1375.15 881.672 1376.01 883.431C1378.8 889.186 1378.96 905.265 1376.38 911.038C1375.34 913.368 1374.11 913.599 1371.9 914.513C1370.93 915.059 1370 915.11 1368.9 915.175C1367.35 915.265 1365.82 914.997 1364.7 913.893C1361.64 910.872 1361.69 904.729 1361.61 900.686C1361.46 893.637 1360.65 884.913 1365.77 879.589Z"/>
	<path fill="#0F172A" d="M1388.88 879.589C1390.77 879.191 1392.87 878.833 1394.8 879.025C1396.73 879.217 1398.46 880.48 1399.49 882.076C1403.68 888.537 1402.54 902.104 1400.88 909.256C1400.2 912.163 1399.11 912.842 1396.74 914.345C1394.73 915.465 1392.07 915.378 1389.9 914.767C1387.22 912.81 1386.57 910.551 1386.07 907.392C1384.84 899.645 1384.23 886.085 1388.88 879.589Z"/>
	<path fill="#0F172A" d="M1364.99 821.075C1366.82 820.692 1368.89 820.32 1370.75 820.662C1372.67 821.015 1374.31 822.536 1375.3 824.155C1379.14 830.435 1378.93 845.315 1376.95 852.171C1376.22 854.701 1374.95 855.234 1372.8 856.392C1372.17 856.699 1372.16 856.743 1371.36 856.929C1369.38 857.39 1366.72 857.089 1365.08 855.835C1362.88 854.158 1362.19 851.1 1361.81 848.498C1360.75 841.084 1360.44 827.198 1364.99 821.075Z"/>
	<path fill="#0F172A" d="M1389.37 821.074C1391.36 820.715 1393.51 820.378 1395.52 820.793C1397.37 821.176 1398.92 822.676 1399.82 824.287C1403.4 830.69 1402.88 845.808 1400.46 852.514C1399.51 855.17 1398.36 855.567 1395.95 856.588C1394.82 856.852 1393.51 857.014 1392.35 856.928C1390.69 856.807 1389.14 855.88 1388.11 854.605C1383.93 849.399 1385.14 835.29 1385.59 828.776C1385.86 824.82 1386.41 823.664 1389.37 821.074Z"/>
	<path fill="white" d="M919.497 365.392C920.979 366.26 921.706 366.976 922.683 368.382C923.218 374.027 858.96 478.937 851.434 491.314C844.944 489.39 839.358 489.77 832.896 491.578C828.162 484.598 823.896 477.257 819.494 470.062C809.753 454.221 799.326 438.559 790.538 422.166C792.793 416.108 793.505 410.801 793.718 404.385C814.478 398.624 834.85 391.445 855.388 384.955C876.691 378.223 898.219 372.205 919.497 365.392Z"/>
	<path fill="white" d="M617.136 364.244C632.478 370.948 649.823 374.967 665.845 379.902Q703.141 391.602 740.224 403.962C740.24 404.596 740.272 405.23 740.283 405.864C740.401 412.479 742.104 417.03 744.969 422.984C736.757 438.14 726.981 452.716 717.833 467.336C713.157 475.219 708.027 482.845 703.313 490.714C696.576 489.318 691.464 488.812 684.621 490.139C675.194 476.151 666.798 461.325 657.988 446.931Q634.403 409.01 612.021 370.367L617.136 364.244Z"/>
	<path fill="white" d="M837.088 543.89C841.518 544.755 845.741 544.708 850.235 544.556C856.192 556.004 863.003 567.091 869.434 578.284C887.298 609.373 905.969 640.42 921.922 672.547C919.969 674.237 918.213 676.15 916.416 678.004C905.198 675.477 894.002 671.903 882.921 668.787L795.526 643.212C794.167 637.644 792.237 633.05 789.313 628.104C803.329 599.187 821.269 571.866 837.088 543.89Z"/>
	<path fill="white" d="M698.771 544.37C705.237 550.674 741.061 616.002 747.445 628.126C743.107 633.622 741.63 637.989 740.007 644.672C712.507 650.973 684.844 660.49 657.569 668.156L621.42 678.851L616.34 671.089C628.647 646.682 642.135 622.766 655.446 598.896C665.599 580.691 675.521 562.071 686.675 544.473C690.79 544.781 694.661 544.732 698.771 544.37Z"/>
	<path fill="white" d="M741.775 657.26C744.427 659.199 746.89 664.065 749.405 666.712C742.587 685.559 733.809 703.872 726.153 722.405Q701.687 782.743 675.722 842.452Q668.552 824.414 660.198 806.893C653.351 793.713 647.494 779.905 641.154 766.466C632.682 748.51 623.79 730.72 615.936 712.483C621.388 705.71 623.381 700.917 624.335 692.271C635.18 687.811 647.321 685.117 658.597 681.773C686.277 673.563 714.292 666.074 741.775 657.26Z"/>
	<path fill="white" d="M167.313 798.532C192.343 798.009 217.564 798.781 242.615 798.838C242.442 842.789 243.717 886.918 242.479 930.846L225.563 930.885L151.763 930.912L151.8 849.047C151.796 836.634 150.46 822.26 152.215 810.078C152.613 807.316 154.001 804.495 155.854 802.423C158.926 798.988 163.051 798.77 167.313 798.532Z"/>
	<path fill="#0F172A" d="M171.645 878.317C172.105 878.322 172.565 878.326 173.024 878.351C175.489 878.485 177.908 879.168 179.526 881.154C184.167 886.852 182.864 901.11 181.768 907.889C181.125 911.865 180.022 913.21 176.871 915.526C176.664 915.53 176.457 915.536 176.249 915.538C173.56 915.562 171.075 915.367 169.145 913.268C164.849 908.595 165.664 898.497 166.002 892.689C166.379 886.191 166.648 882.756 171.645 878.317Z"/>
	<path fill="#0F172A" d="M222.734 878.524C223.934 878.782 225.303 879.022 226.441 879.509C228.596 880.431 229.918 882.199 230.655 884.379C232.855 890.894 233.328 905.301 230.013 911.506C228.672 914.016 226.663 914.567 224.131 915.373C222.926 915.262 221.625 915.167 220.453 914.843C218.869 914.405 217.591 913.145 216.854 911.711C213.607 905.394 214.163 890.738 216.526 884.178C217.719 880.867 219.711 879.835 222.734 878.524Z"/>
	<path fill="#0F172A" d="M219.476 819.866C221.192 819.698 223.417 819.505 225.137 819.808C226.69 820.081 228.096 821.061 229.019 822.331C233.512 828.523 232.188 842.565 230.872 849.666C230.14 853.613 228.764 854.869 225.578 857.041C225.279 857.059 224.98 857.091 224.68 857.097C222.333 857.144 220.111 856.494 218.467 854.758C215.024 851.123 215.2 843.972 215.188 839.275C215.171 832.638 214.517 824.837 219.476 819.866Z"/>
	<path fill="#0F172A" d="M194.882 820.05C196.679 819.844 198.983 819.429 200.771 819.851C202.397 820.235 203.795 821.46 204.64 822.867C208.402 829.123 207.593 844.132 205.929 850.97C205.224 853.87 203.981 854.8 201.51 856.353C200.584 856.43 199.648 856.497 198.72 856.443C196.381 856.307 194.343 855.497 192.895 853.598C188.68 848.067 189.795 836 190.489 829.319C190.936 825.015 191.407 822.889 194.882 820.05Z"/>
	<path fill="#0F172A" d="M195.815 879.104C197.395 879.06 199.125 878.978 200.691 879.256C202.187 879.521 203.568 880.75 204.418 881.955C208.602 887.886 207.626 902.401 206.084 909.131C205.305 912.533 203.717 913.468 200.945 915.215C199.615 915.257 198.121 915.375 196.804 915.17C194.906 914.874 193.317 913.642 192.27 912.064C188.249 906.002 189.199 890.669 191.035 883.88C191.709 881.389 193.754 880.367 195.815 879.104Z"/>
	<path fill="#0F172A" d="M172.343 819.146C173.5 819.181 174.661 819.22 175.812 819.362C177.67 819.592 179.21 820.556 180.278 822.096C184.406 828.048 183.317 843.542 181.774 850.237C180.931 853.897 179.226 855.066 176.228 856.932C175.406 856.903 174.584 856.87 173.768 856.764C171.618 856.483 169.84 855.374 168.606 853.587C164.645 847.852 165.299 831.938 167.016 825.468C167.921 822.054 169.514 820.909 172.343 819.146Z"/>
	<path fill="white" d="M793.789 656.866C809.567 660.679 825.031 665.591 840.633 670.056Q876.367 679.945 911.781 690.926C912.37 699.799 914.696 705.522 920.09 712.603C906.528 743.403 891.765 773.672 878.226 804.491C873.168 817.264 866.799 830.216 860.323 842.337C852.396 824.764 845.354 806.676 837.893 788.891L787.573 667.304C790.05 664.079 791.873 660.438 793.789 656.866Z"/>
	<path fill="white" d="M779.731 431.447C784.855 436.517 817.504 490.699 821.955 499.434C818.303 505.075 815.503 510.827 815.501 517.705C815.497 526.011 819.365 532.079 825.014 537.788C816.044 554.289 806.511 570.369 797.142 586.64C790.693 597.839 784.683 609.191 777.572 619.999C777.006 619.83 776.442 619.679 775.873 619.524C769.544 617.799 765.017 619.451 758.782 619.351L757.931 619.329C742.747 592.081 727.208 564.675 711.003 538.021C715.434 534.016 718.554 529.586 719.926 523.683C722.073 514.444 719.042 506.736 714.241 498.982C718.466 491.029 723.613 483.391 728.317 475.698L755.317 431.631C755.5 431.71 755.683 431.791 755.867 431.868L756.789 432.25C758.283 432.882 759.774 433.557 761.338 434.003C767.953 435.889 773.828 434.681 779.731 431.447Z"/>
	<path fill="white" d="M270.913 670.866C281.136 670.27 315.191 668.363 322.597 675.41C324.836 677.54 327.078 681.112 327.565 684.178C329.03 693.413 328.166 703.956 328.164 713.319Q328.186 742.141 327.908 770.962L328.097 930.895L314.625 930.895L256.558 930.597C255.63 884.177 256.49 837.538 256.471 791.096C256.458 757.82 255.2 722.034 256.581 689.023C256.721 685.668 256.683 681.902 258.409 678.917C261.091 674.281 266.006 672.196 270.913 670.866Z"/>
	<path fill="#0F172A" d="M303.515 764.317C304.808 764.256 306.115 764.19 307.409 764.272C309.027 764.374 310.273 765.258 311.254 766.512C314.696 770.904 314.237 779.493 313.804 784.69C313.379 789.801 313.346 792.882 309.264 796.373C309.024 796.388 308.784 796.41 308.543 796.419C306.492 796.491 304.27 795.997 302.813 794.478C299.356 790.875 299.372 782.886 299.58 778.245C299.816 772.993 299.363 768.103 303.515 764.317Z"/>
	<path fill="#0F172A" d="M275.839 764.305C277.031 764.266 278.261 764.21 279.447 764.345C281.063 764.528 282.482 765.363 283.464 766.652C287.599 772.083 286.46 782.839 285.58 789.23C285.069 792.935 284.47 794.121 281.459 796.424C280.876 796.518 280.293 796.607 279.703 796.637C277.885 796.731 276.016 796.162 274.699 794.873C271.945 792.177 271.686 786.567 271.641 782.94C271.562 776.625 271.241 769.028 275.839 764.305Z"/>
	<path fill="#0F172A" d="M277.964 822.143C280.175 822.603 282.47 822.845 283.912 824.769C287.982 830.2 286.653 842.666 285.62 848.964C284.99 852.81 283.853 854.259 280.701 856.481C278.176 855.942 276.071 855.493 274.555 853.228C270.981 847.894 271.858 833.49 273.395 827.429C274.126 824.549 275.506 823.674 277.964 822.143Z"/>
	<path fill="#0F172A" d="M275.016 706.596C277.277 706.385 279.827 705.998 281.838 707.323C284.433 709.032 285.315 712.902 285.712 715.811C286.571 722.109 286.262 733.452 282.394 738.584Q281.139 738.784 279.873 738.904C277.948 739.07 276.212 738.833 274.76 737.447C272.288 735.088 271.727 730.291 271.566 727.032C271.275 721.124 270.915 711.103 275.016 706.596Z"/>
	<path fill="#0F172A" d="M303.613 706.499C305.926 706.349 308.577 706.061 310.489 707.648C313.159 709.864 313.7 714.591 313.874 717.859C314.213 724.221 314.085 733.877 309.761 738.766Q308.98 738.857 308.197 738.925C306.067 739.109 304.078 739.111 302.434 737.587C300.077 735.401 299.54 730.732 299.375 727.672C299.016 720.968 298.979 711.644 303.613 706.499Z"/>
	<path fill="#0F172A" d="M305.199 822.039C306.006 822.099 306.765 822.206 307.554 822.395C309.637 822.895 310.81 823.554 311.855 825.46C315.097 831.374 314.662 845.06 312.821 851.396C312.016 854.168 310.759 854.837 308.405 856.111C306.105 855.894 303.867 855.564 302.348 853.646C298.222 848.437 299.436 835.531 300.412 829.385C301.004 825.665 302.22 824.25 305.199 822.039Z"/>
	<path fill="#0F172A" d="M275.866 881.322C278.328 881.196 281.193 880.915 283.128 882.77C286.185 885.701 286.448 892.216 286.459 896.178C286.477 902.447 286.751 910.038 282.157 914.678C281.554 914.787 281.271 914.859 280.7 914.899C278.802 915.03 276.776 914.54 275.407 913.165C272.669 910.415 272.338 905.042 272.239 901.374C272.074 895.233 271.538 885.951 275.866 881.322Z"/>
	<path fill="#0F172A" d="M304.408 880.439C306.818 880.57 309.132 880.5 310.872 882.443C314.78 886.807 313.628 898.5 313.11 904.067C312.607 909.467 312.252 912.004 308.033 915.531C306.142 915.228 304.185 914.685 302.77 913.308C299.097 909.733 299.37 901.457 299.49 896.722C299.651 890.393 299.574 885.034 304.408 880.439Z"/>
	<path fill="white" d="M1124.01 718.297C1130.47 716.966 1197.63 716.756 1202.69 718.218C1205.34 718.984 1207.6 721.353 1208.66 723.861C1209.67 726.245 1209.89 927.79 1208.9 929.808C1208.54 930.546 1206.9 930.662 1206.12 930.854L1120.3 930.551C1121.21 929.073 1121.57 927.792 1121.69 926.079C1123.01 907.612 1121.92 888.328 1121.81 869.8L1121.52 771.066C1121.5 759.531 1119.24 727.5 1124.01 718.297Z"/>
	<path fill="#0F172A" d="M1186.52 875.837C1188.23 875.61 1190.15 875.382 1191.87 875.68C1193.77 876.011 1195.32 877.246 1196.26 878.9C1199.53 884.671 1199.21 901.759 1196.94 908.03C1196.04 910.543 1194.52 910.929 1192.26 911.849C1190.87 912.485 1189.46 912.691 1187.96 912.483C1186.47 912.276 1185.27 911.598 1184.42 910.299C1180.87 904.9 1181.8 887.525 1183.13 881.021C1183.61 878.681 1184.56 877.173 1186.52 875.837Z"/>
	<path fill="#0F172A" d="M1161.74 875.837C1163.64 875.493 1166.4 875.001 1168.29 875.463C1170.23 875.937 1171.65 877.58 1172.49 879.299C1175.04 884.523 1175.34 903.9 1172.96 909.206C1171.99 911.377 1170.71 911.622 1168.66 912.477C1167.9 912.856 1168.16 912.817 1167.34 912.883C1165.31 913.048 1163.1 912.971 1161.57 911.479C1157.84 907.85 1158.2 899.534 1158.2 894.605C1158.2 888.503 1157.21 880.382 1161.74 875.837Z"/>
	<path fill="#0F172A" d="M1189.03 813.573C1190.78 813.545 1192.83 813.64 1194.33 814.655C1196.04 815.815 1196.8 817.865 1197.27 819.789C1198.61 825.296 1199.47 844.31 1196.32 848.681C1194.77 850.844 1191.94 851.16 1189.5 851.483C1188.63 851.227 1187.75 850.953 1186.94 850.539C1184.87 849.478 1183.8 847.914 1183.14 845.731C1181.35 839.784 1180.18 822.141 1183.57 816.678C1184.88 814.577 1186.74 814.071 1189.03 813.573Z"/>
	<path fill="#0F172A" d="M1138.09 751.305C1140.06 750.814 1142.59 750.328 1144.58 750.857C1146.08 751.255 1147.38 752.495 1148.15 753.8C1151.88 760.082 1151.43 776.832 1149.6 783.831C1148.93 786.428 1147.71 786.984 1145.53 788.172C1145.28 788.223 1145.03 788.287 1144.77 788.324C1142.34 788.669 1139.56 788.837 1137.56 787.186C1135.27 785.295 1134.54 781.724 1134.25 778.899C1133.44 771.008 1133.09 757.536 1138.09 751.305Z"/>
	<path fill="#0F172A" d="M1188.28 751.307C1190.6 751.252 1193.14 751.333 1195.11 752.71C1196.66 753.795 1197.07 754.731 1197.42 756.557C1198.66 762.952 1199.91 781.965 1195.64 787.323C1193.78 789.643 1191.22 789.347 1188.56 789.537C1187.95 789.415 1187.33 789.287 1186.74 789.089Q1186.46 788.999 1186.2 788.879Q1185.93 788.759 1185.68 788.61Q1185.43 788.461 1185.19 788.286Q1184.96 788.111 1184.74 787.911Q1184.53 787.711 1184.34 787.489Q1184.15 787.267 1183.99 787.025Q1183.82 786.783 1183.68 786.525Q1183.55 786.267 1183.44 785.995C1181.06 780.119 1180.69 760.608 1183.42 754.852C1184.46 752.652 1186.1 752.093 1188.28 751.307Z"/>
	<path fill="#0F172A" d="M1137.76 814.321C1139.84 813.914 1142.19 813.522 1144.3 813.951C1146.24 814.346 1147.84 815.733 1148.76 817.44C1152.26 823.886 1152.02 839.661 1149.64 846.437C1148.67 849.224 1147.14 849.746 1144.66 850.834C1143.89 851.224 1144.16 851.174 1143.32 851.257C1141.8 851.406 1139.26 851.55 1138.02 850.462C1134.98 847.793 1134.64 843.238 1134.4 839.436C1133.91 832.01 1132.69 820.11 1137.76 814.321Z"/>
	<path fill="#0F172A" d="M1136.94 875.835C1139.33 875.375 1142.35 874.884 1144.72 875.603C1146.72 876.209 1148.1 877.725 1149.05 879.521C1152.06 885.183 1151.9 901.979 1149.62 908.024C1148.73 910.398 1147.55 910.633 1145.39 911.64C1145.17 911.788 1144.98 911.975 1144.74 912.084C1143 912.891 1140.41 913.079 1138.58 912.706C1136.65 911.296 1135.83 909.96 1135.2 907.635C1133.02 899.493 1132.67 883.24 1136.94 875.835Z"/>
	<path fill="#0F172A" d="M1161.06 814.322C1163.27 813.861 1165.68 813.52 1167.94 813.835C1169.85 814.101 1171.4 815.589 1172.39 817.166C1176.19 823.285 1175.49 838.764 1173.63 845.658C1172.89 848.418 1171.85 849.054 1169.55 850.418C1169.24 850.716 1169.07 850.929 1168.63 851.098C1166.47 851.92 1164.54 851.975 1162.41 851.298C1160.07 849.128 1159.23 846.387 1158.68 843.329C1157.29 835.52 1156.35 820.955 1161.06 814.322Z"/>
	<path fill="#0F172A" d="M1161.09 752.057C1163.42 751.54 1166.28 750.931 1168.62 751.678C1170.61 752.313 1171.96 754.027 1172.88 755.809C1175.93 761.664 1176.04 779.065 1173.55 785.037C1172.61 787.293 1171.49 787.54 1169.4 788.503C1168.23 789.507 1166.33 789.414 1164.85 789.557C1163.59 789.679 1162.49 789.285 1161.56 788.408C1158.3 785.354 1158 778.35 1157.82 774.204C1157.55 767.701 1156.55 756.954 1161.09 752.057Z"/>
	<path fill="white" d="M1277.89 637.279C1278.9 637.159 1279.91 637.046 1280.92 636.997C1288.97 636.606 1331.8 635.717 1335.51 639.472C1337.66 641.642 1338.05 649.278 1338.19 652.226C1338.77 664.096 1338.37 676.157 1338.35 688.045L1338.22 752.643L1337.93 928.362L1337.56 928.297C1337.83 929.148 1337.91 929.632 1337.77 930.514C1335.77 931.494 1331.82 930.918 1329.56 930.893L1270.51 930.924C1271.48 929.354 1271.5 927.695 1271.54 925.893C1272.1 904.402 1271.26 882.714 1271.31 861.194L1271.6 688.477C1271.65 674.567 1270.22 659.868 1271.67 646.089C1272.14 641.543 1274.55 639.947 1277.89 637.279Z"/>
	<path fill="#0F172A" d="M1289.99 876.587C1291.65 876.461 1293.33 876.301 1294.85 877.115C1297.24 878.395 1298.29 880.949 1298.89 883.451C1300.09 888.554 1301.12 900.824 1297.88 905.167C1296.49 907.041 1295.31 907.075 1293.16 907.507C1292.29 907.545 1291.65 907.517 1290.79 907.365C1288.85 907.019 1287.19 906.24 1286.14 904.485C1283.02 899.235 1283.87 887.79 1285.34 882.109C1286.11 879.11 1287.38 878.127 1289.99 876.587Z"/>
	<path fill="#0F172A" d="M1315.83 876.588C1317.68 876.598 1319.59 876.53 1321.21 877.545C1323.38 878.903 1324.18 881.519 1324.7 883.886C1325.82 889.023 1326.41 900.828 1323.14 905.196C1321.59 907.283 1320.22 907.269 1317.81 907.765C1316.68 907.797 1315.6 907.528 1314.49 907.329C1313.35 906.528 1312.3 905.707 1311.65 904.437C1308.81 898.867 1308.96 886.183 1311.22 880.451C1312.08 878.247 1313.79 877.519 1315.83 876.588Z"/>
	<path fill="#0F172A" d="M1315.72 812.072C1317.87 811.911 1320.38 812.016 1322.05 813.565C1324.62 815.954 1325.17 820.886 1325.37 824.213C1325.67 828.999 1325.78 837.996 1322.32 841.741C1320.78 843.403 1318.93 843.324 1316.8 843.392C1314.78 842.859 1313.06 842.158 1311.85 840.346C1308.55 835.434 1309.31 822.834 1310.83 817.441C1311.63 814.61 1313.23 813.418 1315.72 812.072Z"/>
	<path fill="#0F172A" d="M1288.44 746.056C1290.15 745.739 1292.1 745.278 1293.82 745.728C1295.83 746.255 1297.28 747.685 1298.22 749.494C1301.23 755.257 1301.24 767.834 1298.93 773.803C1298.06 776.062 1296.67 776.491 1294.66 777.566C1294.13 777.842 1293.63 778.136 1293.02 778.192C1291.42 778.339 1289.77 778.203 1288.52 777.173C1286.1 775.194 1285.62 770.553 1285.33 767.638C1284.67 761.016 1284.03 751.365 1288.44 746.056Z"/>
	<path fill="#0F172A" d="M1315.89 745.305C1317.44 745.069 1319.14 744.717 1320.62 745.394C1322.62 746.308 1323.63 748.104 1324.33 750.095C1326.39 755.996 1326.75 769.365 1323.78 774.829C1322.54 777.126 1320.93 777.403 1318.62 778.023C1317.97 778.038 1317.97 778.061 1317.36 777.996C1315.37 777.782 1313.8 777.076 1312.58 775.416C1308.95 770.449 1310.17 758.242 1311.06 752.529C1311.64 748.769 1312.94 747.463 1315.89 745.305Z"/>
	<path fill="#0F172A" d="M1288.44 680.79C1290.19 680.484 1292.51 680.095 1294.24 680.498C1296.05 680.919 1297.51 682.309 1298.38 683.899C1301.57 689.749 1301.21 702.5 1299.16 708.616C1298.33 711.095 1296.89 711.612 1294.7 712.575L1293.67 713.165C1291.82 713.179 1290.07 713.577 1288.57 712.304C1286.17 710.265 1285.71 705.791 1285.4 702.82C1284.7 696.131 1284.04 686.181 1288.44 680.79Z"/>
	<path fill="#0F172A" d="M1288.39 812.072C1290.06 811.729 1292.08 811.336 1293.75 811.776C1296.01 812.374 1297.58 814.038 1298.54 816.113C1301.27 822.022 1301.23 833.471 1298.91 839.426C1297.89 842.032 1296.31 842.358 1293.91 843.27C1293.58 843.487 1293.37 843.663 1292.93 843.717C1291.35 843.914 1288.78 843.655 1287.53 842.726C1285.85 841.478 1285.25 839.146 1284.93 837.182C1283.67 829.396 1283.79 818.623 1288.39 812.072Z"/>
	<path fill="#0F172A" d="M1314.35 680.79C1316.31 680.451 1318.75 680.061 1320.61 680.935C1322.6 681.872 1323.66 683.613 1324.44 685.592C1326.76 691.47 1326.81 703.814 1324.03 709.397C1322.78 711.896 1321.14 712.119 1318.68 712.841C1318.52 712.891 1318.37 712.96 1318.2 712.991C1316.66 713.285 1314.36 712.803 1313.14 711.808C1310.49 709.663 1310.29 705.108 1310.14 701.951C1309.81 694.962 1309.42 686.172 1314.35 680.79Z"/>
	<path fill="white" d="M423.333 434.34L424.294 434.46C428.803 438.653 433.458 441.605 439.197 443.85C438.602 455.753 439.263 468.004 439.296 479.938Q439.455 519.118 438.934 558.294C432.035 562.33 427.432 567.525 425.395 575.406Q425.213 576.106 425.067 576.814Q424.921 577.522 424.81 578.237Q424.7 578.952 424.626 579.671Q424.552 580.391 424.514 581.113Q424.476 581.835 424.475 582.558Q424.473 583.281 424.508 584.004Q424.543 584.726 424.615 585.446Q424.686 586.166 424.794 586.881Q424.901 587.596 425.045 588.305Q425.188 589.013 425.367 589.714Q425.547 590.415 425.761 591.106Q425.975 591.796 426.224 592.475Q426.472 593.154 426.755 593.82Q427.037 594.486 427.353 595.136Q427.669 595.787 428.017 596.421Q428.365 597.055 428.745 597.67C432.443 603.739 438.352 608.511 445.334 610.15C453.22 612.001 459.922 609.483 466.58 605.398C477.433 612.229 487.797 620.163 498.239 627.618C522.893 645.219 547.168 663.313 572.098 680.532C570.657 686.631 569.434 692.527 570.636 698.785Q570.757 699.41 570.908 700.028Q571.06 700.646 571.242 701.256Q571.425 701.866 571.637 702.466Q571.85 703.067 572.092 703.655Q572.334 704.244 572.606 704.82Q572.877 705.396 573.177 705.957Q573.477 706.519 573.805 707.064Q574.132 707.61 574.487 708.139Q574.841 708.668 575.221 709.178Q575.602 709.689 576.007 710.179Q576.413 710.67 576.842 711.14Q577.272 711.61 577.724 712.058Q578.176 712.506 578.651 712.93Q579.125 713.355 579.62 713.755Q580.114 714.156 580.628 714.531Q581.143 714.906 581.675 715.255C588.519 719.71 595.977 720.091 603.732 718.368C609.594 729.49 614.639 741.186 620.125 752.514C631.596 776.199 643.116 799.996 653.175 824.325C647.627 819.105 641.575 814.334 635.732 809.445Q571.889 756.86 509.166 702.945C486.986 684.046 462.504 666.199 442.917 644.627C395.839 592.778 366.229 527.084 369.654 456.234C387.241 448.365 406.113 442.909 423.333 434.34Z"/>
	<path fill="white" d="M760.912 673.319C765.631 674.223 770.158 673.725 774.896 674.179C780.687 680.768 788.549 703.986 792.428 713.182L831.803 806.918C838.021 821.725 843.464 837.012 850.529 851.427C840.867 857.666 832.293 865.881 823.488 873.285C806.711 887.392 790.105 901.658 773.015 915.391L768.132 919.099C761.368 912.908 753.847 907.489 746.802 901.614C734.907 891.696 723.272 881.467 711.306 871.633C703.077 864.87 694.261 858.501 686.77 850.914C695.032 827.863 705.673 805.186 715.228 782.621L760.912 673.319Z"/>
	<path fill="white" d="M1108.64 433.976C1108.92 433.946 1109.2 433.907 1109.48 433.887C1113.05 433.638 1165.01 455.069 1168.28 457.894C1170.51 464.736 1168.64 475.703 1168.02 482.829Q1167.76 485.806 1167.43 488.777Q1167.09 491.748 1166.7 494.711Q1166.3 497.673 1165.84 500.626Q1165.38 503.579 1164.85 506.521Q1164.32 509.463 1163.72 512.393Q1163.13 515.322 1162.47 518.238Q1161.81 521.153 1161.09 524.053Q1160.36 526.953 1159.57 529.836Q1158.78 532.719 1157.93 535.584Q1157.08 538.449 1156.16 541.294Q1155.24 544.139 1154.26 546.963Q1153.28 549.786 1152.24 552.587Q1151.2 555.389 1150.09 558.166Q1148.99 560.943 1147.82 563.695Q1146.65 566.447 1145.43 569.172Q1144.2 571.896 1142.91 574.593Q1141.62 577.29 1140.27 579.958Q1138.92 582.625 1137.51 585.262Q1136.11 587.898 1134.64 590.503Q1133.17 593.107 1131.65 595.679Q1130.13 598.25 1128.54 600.786Q1126.96 603.323 1125.33 605.823Q1123.69 608.324 1122 610.787Q1120.3 613.25 1118.56 615.675Q1116.81 618.1 1115.01 620.485Q1113.21 622.87 1111.35 625.215Q1109.5 627.559 1107.59 629.861Q1105.69 632.164 1103.73 634.423Q1101.77 636.682 1099.77 638.897Q1097.76 641.112 1095.7 643.282Q1093.65 645.451 1091.54 647.574Q1089.44 649.697 1087.29 651.773C1065.37 673.213 1040.24 692.217 1016.75 711.945Q960.887 758.462 905.516 805.559Q895.13 814.439 884.509 823.036C892.258 804.21 900.97 785.689 909.338 767.127C916.559 751.112 923.456 734.854 931.225 719.1C936.897 719.944 942.14 720.366 947.714 718.7Q948.332 718.516 948.94 718.301Q949.548 718.086 950.144 717.841Q950.741 717.596 951.324 717.321Q951.907 717.046 952.476 716.742Q953.045 716.438 953.598 716.106Q954.151 715.775 954.686 715.415Q955.222 715.056 955.739 714.67Q956.255 714.284 956.752 713.873Q957.249 713.462 957.724 713.026Q958.2 712.591 958.653 712.132Q959.106 711.673 959.536 711.192Q959.965 710.711 960.37 710.209Q960.775 709.707 961.154 709.185Q961.533 708.663 961.885 708.123Q962.238 707.583 962.563 707.026Q962.888 706.469 963.184 705.896C967.336 698 966.793 690.239 964.252 681.966C977.424 671.645 1065.68 608.037 1067.83 603.81C1070.47 605.377 1073.17 607.085 1076.02 608.241C1082.56 610.89 1089.99 611.251 1096.5 608.351C1103.1 605.408 1108.04 599.603 1110.46 592.845Q1110.7 592.188 1110.9 591.521Q1111.11 590.854 1111.28 590.177Q1111.46 589.501 1111.6 588.816Q1111.74 588.132 1111.84 587.442Q1111.95 586.751 1112.02 586.057Q1112.09 585.362 1112.13 584.665Q1112.17 583.967 1112.17 583.269Q1112.18 582.571 1112.15 581.873Q1112.12 581.175 1112.05 580.48Q1111.99 579.784 1111.89 579.093Q1111.79 578.401 1111.66 577.715Q1111.53 577.029 1111.36 576.351Q1111.2 575.672 1111 575.003Q1110.8 574.333 1110.57 573.674Q1110.34 573.015 1110.08 572.368Q1109.81 571.72 1109.52 571.087C1106.57 564.91 1102.16 561.508 1095.82 559.308C1097.27 552.29 1097.37 446.498 1095.93 442.318Q1097.04 441.994 1098.13 441.62C1102.13 440.244 1106.73 437.932 1108.64 433.976Z"/>
	<path fill="white" d="M673.498 264.931Q677.046 266.6 680.519 268.42Q683.992 270.24 687.384 272.208Q690.775 274.176 694.079 276.289Q697.382 278.401 700.591 280.655Q703.801 282.908 706.91 285.297Q710.019 287.687 713.022 290.208Q716.026 292.729 718.917 295.378Q721.809 298.026 724.584 300.797C732.109 308.271 739.886 316.776 745.68 325.689C749.315 331.281 752.15 337.974 756.501 342.999C758.412 345.205 760.619 346.787 763.428 347.678C768.499 349.288 774.224 348.312 778.339 344.894C784.382 339.873 787.697 330.214 792.485 323.909C811.762 298.519 835.107 280.029 863.232 265.144C870.024 271.547 875.93 279.5 881.984 286.617Q901.53 309.495 920.316 333.001C916.79 339.84 915.749 345.639 915.585 353.325C910.376 354.339 905.25 356.198 900.184 357.773C862.854 368.351 826.23 382.293 788.623 391.688C786.588 389.33 784.552 387.075 781.972 385.298Q781.423 384.922 780.856 384.575Q780.29 384.227 779.706 383.908Q779.123 383.589 778.524 383.3Q777.926 383.01 777.313 382.751Q776.701 382.492 776.076 382.264Q775.452 382.036 774.817 381.839Q774.182 381.642 773.538 381.477Q772.894 381.312 772.242 381.18Q771.591 381.047 770.933 380.947Q770.276 380.848 769.614 380.781Q768.953 380.714 768.289 380.68Q767.625 380.646 766.96 380.646Q766.295 380.645 765.631 380.678Q764.967 380.711 764.305 380.776Q763.644 380.842 762.986 380.941Q762.329 381.04 761.677 381.171C755.016 382.511 750.053 386.166 746.337 391.756C726.233 386.376 706.293 379.456 686.48 373.093L620.994 352.426C620.976 351.723 620.938 351.025 620.909 350.322C620.659 344.234 618.707 339.286 616.081 333.839C636.046 311.832 654.411 287.752 673.498 264.931Z"/>
	<path fill="white" d="M587.521 376.331C591.634 376.896 595.223 376.956 599.355 376.48C613.351 397.182 625.659 418.918 638.573 440.298C650.109 459.398 662.189 477.984 672.987 497.544C667.718 503.613 664.815 511.541 665.383 519.61C665.914 527.137 669.056 532.615 674.627 537.505C655.574 574.844 633.528 610.904 613.642 647.837C610.275 653.281 607.349 659.048 604.306 664.681L592.652 664.081C587.177 648.121 580.446 632.47 574.357 616.726L544.235 537.472C545.143 536.678 546.036 535.866 546.863 534.987Q547.361 534.449 547.831 533.888Q548.301 533.326 548.743 532.741Q549.184 532.157 549.596 531.551Q550.008 530.945 550.39 530.32Q550.771 529.694 551.121 529.05Q551.47 528.406 551.787 527.746Q552.104 527.085 552.388 526.41Q552.672 525.734 552.922 525.046Q553.172 524.357 553.387 523.656Q553.602 522.956 553.782 522.246Q553.962 521.536 554.107 520.817Q554.251 520.099 554.359 519.375Q554.468 518.65 554.54 517.921Q554.612 517.192 554.648 516.46Q554.684 515.728 554.683 514.995Q554.682 514.263 554.645 513.531C554.257 505.099 550.649 498.54 544.459 492.998C550.202 473.085 558.873 453.357 566.34 433.992C573.711 414.878 580.323 395.506 587.521 376.331Z"/>
	<path fill="white" d="M935.041 375.516C939.383 376.019 943.78 375.963 948.145 376.021C955.183 392.723 961.478 409.744 968.008 426.65C976.498 448.633 985.115 470.651 992.537 493.019C991.948 493.541 991.386 494.064 990.826 494.616C985.276 500.085 982.154 506.753 982.183 514.628C982.216 523.595 986.136 529.926 992.274 536.113C988.53 550.636 981.451 565.394 976.133 579.507C965.445 607.87 955.173 636.67 943.47 664.62L934.049 666.392L929.198 657.697C907.775 617.621 884.639 578.084 861.764 538.811C866.145 533.667 869.41 528.841 870.497 522.031C871.964 512.844 868.502 504.86 863.224 497.571C878.542 473.369 892.79 447.696 907.276 422.939C916.48 407.209 926.82 391.735 935.041 375.516Z"/>
	<path fill="white" d="M341.767 734.543C355.547 738.409 369.354 742.599 383.288 745.854C433.304 757.536 483.375 760.574 534.45 756.062C541.24 761.224 547.661 767.154 554.249 772.591L617.883 826.098L687.221 884.313C705.692 899.698 724.598 914.703 742.393 930.872C689.218 929.736 635.845 930.459 582.65 930.693L411.759 930.919L411.814 926.24C412.003 908.026 411.834 889.794 411.801 871.579C411.782 861.005 412.978 848.652 410.778 838.325Q410.591 837.462 410.344 836.614Q410.096 835.766 409.789 834.938Q409.482 834.11 409.117 833.306Q408.752 832.501 408.33 831.725Q407.909 830.949 407.434 830.204Q406.959 829.46 406.432 828.751Q405.905 828.042 405.329 827.372Q404.754 826.702 404.132 826.075Q403.101 825.044 401.944 824.156Q400.787 823.269 399.524 822.539Q398.261 821.81 396.914 821.252Q395.566 820.694 394.158 820.316C383.056 817.293 354.736 819.038 341.633 819.076Q341.445 776.809 341.767 734.543Z"/>
</svg>
